<?xml version="1.0" encoding="utf-8" standalone="no"?>
<!DOCTYPE svg PUBLIC "-//W3C//DTD SVG 1.1//EN"
  "http://www.w3.org/Graphics/SVG/1.1/DTD/svg11.dtd">
<svg xmlns:xlink="http://www.w3.org/1999/xlink" width="525.438125pt" height="395.373125pt" viewBox="0 0 525.438125 395.373125" xmlns="http://www.w3.org/2000/svg" version="1.1">
 <metadata>
  <rdf:RDF xmlns:dc="http://purl.org/dc/elements/1.1/" xmlns:cc="http://creativecommons.org/ns#" xmlns:rdf="http://www.w3.org/1999/02/22-rdf-syntax-ns#">
   <cc:Work>
    <dc:type rdf:resource="http://purl.org/dc/dcmitype/StillImage"/>
    <dc:date>2026-07-10T16:44:57.371478</dc:date>
    <dc:format>image/svg+xml</dc:format>
    <dc:creator>
     <cc:Agent>
      <dc:title>Matplotlib v3.9.4, https://matplotlib.org/</dc:title>
     </cc:Agent>
    </dc:creator>
   </cc:Work>
  </rdf:RDF>
 </metadata>
 <defs>
  <style type="text/css">*{stroke-linejoin: round; stroke-linecap: butt}</style>
 </defs>
 <g id="figure_1">
  <g id="patch_1">
   <path d="M 0 395.373125 
L 525.438125 395.373125 
L 525.438125 0 
L 0 0 
z
" style="fill: #faf5e7"/>
  </g>
  <g id="axes_1">
   <g id="patch_2">
    <path d="M 48.059375 353.53875 
L 518.238125 353.53875 
L 518.238125 7.2 
L 48.059375 7.2 
z
" style="fill: #faf5e7"/>
   </g>
   <g id="line2d_1">
    <path d="M 73.247522 334.984888 
L 493.049978 25.753862 
" clip-path="url(#p2cf02de8c4)" style="fill: none; stroke-dasharray: 0.8,1.32; stroke-dashoffset: 0; stroke: #1a1a1a; stroke-opacity: 0.5; stroke-width: 0.8"/>
   </g>
   <g id="matplotlib.axis_1">
    <g id="xtick_1">
     <g id="line2d_2">
      <path d="M 73.247522 353.53875 
L 73.247522 7.2 
" clip-path="url(#p2cf02de8c4)" style="fill: none; stroke: #1a1a1a; stroke-opacity: 0.22; stroke-width: 0.5; stroke-linecap: square"/>
     </g>
     <g id="line2d_3">
      <defs>
       <path id="m5cb608f23f" d="M 0 0 
L 0 3.5 
" style="stroke: #1a1a1a; stroke-width: 0.8"/>
      </defs>
      <g>
       <use xlink:href="#m5cb608f23f" x="73.247522" y="353.53875" style="fill: #1a1a1a; stroke: #1a1a1a; stroke-width: 0.8"/>
      </g>
     </g>
     <g id="text_1">
      <!-- 0.0 -->
      <g style="fill: #1a1a1a" transform="translate(65.29596 368.137187) scale(0.1 -0.1)">
       <defs>
        <path id="DejaVuSans-30" d="M 2034 4250 
Q 1547 4250 1301 3770 
Q 1056 3291 1056 2328 
Q 1056 1369 1301 889 
Q 1547 409 2034 409 
Q 2525 409 2770 889 
Q 3016 1369 3016 2328 
Q 3016 3291 2770 3770 
Q 2525 4250 2034 4250 
z
M 2034 4750 
Q 2819 4750 3233 4129 
Q 3647 3509 3647 2328 
Q 3647 1150 3233 529 
Q 2819 -91 2034 -91 
Q 1250 -91 836 529 
Q 422 1150 422 2328 
Q 422 3509 836 4129 
Q 1250 4750 2034 4750 
z
" transform="scale(0.015625)"/>
        <path id="DejaVuSans-2e" d="M 684 794 
L 1344 794 
L 1344 0 
L 684 0 
L 684 794 
z
" transform="scale(0.015625)"/>
       </defs>
       <use xlink:href="#DejaVuSans-30"/>
       <use xlink:href="#DejaVuSans-2e" x="63.623047"/>
       <use xlink:href="#DejaVuSans-30" x="95.410156"/>
      </g>
     </g>
    </g>
    <g id="xtick_2">
     <g id="line2d_4">
      <path d="M 157.208013 353.53875 
L 157.208013 7.2 
" clip-path="url(#p2cf02de8c4)" style="fill: none; stroke: #1a1a1a; stroke-opacity: 0.22; stroke-width: 0.5; stroke-linecap: square"/>
     </g>
     <g id="line2d_5">
      <g>
       <use xlink:href="#m5cb608f23f" x="157.208013" y="353.53875" style="fill: #1a1a1a; stroke: #1a1a1a; stroke-width: 0.8"/>
      </g>
     </g>
     <g id="text_2">
      <!-- 0.2 -->
      <g style="fill: #1a1a1a" transform="translate(149.256451 368.137187) scale(0.1 -0.1)">
       <defs>
        <path id="DejaVuSans-32" d="M 1228 531 
L 3431 531 
L 3431 0 
L 469 0 
L 469 531 
Q 828 903 1448 1529 
Q 2069 2156 2228 2338 
Q 2531 2678 2651 2914 
Q 2772 3150 2772 3378 
Q 2772 3750 2511 3984 
Q 2250 4219 1831 4219 
Q 1534 4219 1204 4116 
Q 875 4013 500 3803 
L 500 4441 
Q 881 4594 1212 4672 
Q 1544 4750 1819 4750 
Q 2544 4750 2975 4387 
Q 3406 4025 3406 3419 
Q 3406 3131 3298 2873 
Q 3191 2616 2906 2266 
Q 2828 2175 2409 1742 
Q 1991 1309 1228 531 
z
" transform="scale(0.015625)"/>
       </defs>
       <use xlink:href="#DejaVuSans-30"/>
       <use xlink:href="#DejaVuSans-2e" x="63.623047"/>
       <use xlink:href="#DejaVuSans-32" x="95.410156"/>
      </g>
     </g>
    </g>
    <g id="xtick_3">
     <g id="line2d_6">
      <path d="M 241.168504 353.53875 
L 241.168504 7.2 
" clip-path="url(#p2cf02de8c4)" style="fill: none; stroke: #1a1a1a; stroke-opacity: 0.22; stroke-width: 0.5; stroke-linecap: square"/>
     </g>
     <g id="line2d_7">
      <g>
       <use xlink:href="#m5cb608f23f" x="241.168504" y="353.53875" style="fill: #1a1a1a; stroke: #1a1a1a; stroke-width: 0.8"/>
      </g>
     </g>
     <g id="text_3">
      <!-- 0.4 -->
      <g style="fill: #1a1a1a" transform="translate(233.216942 368.137187) scale(0.1 -0.1)">
       <defs>
        <path id="DejaVuSans-34" d="M 2419 4116 
L 825 1625 
L 2419 1625 
L 2419 4116 
z
M 2253 4666 
L 3047 4666 
L 3047 1625 
L 3713 1625 
L 3713 1100 
L 3047 1100 
L 3047 0 
L 2419 0 
L 2419 1100 
L 313 1100 
L 313 1709 
L 2253 4666 
z
" transform="scale(0.015625)"/>
       </defs>
       <use xlink:href="#DejaVuSans-30"/>
       <use xlink:href="#DejaVuSans-2e" x="63.623047"/>
       <use xlink:href="#DejaVuSans-34" x="95.410156"/>
      </g>
     </g>
    </g>
    <g id="xtick_4">
     <g id="line2d_8">
      <path d="M 325.128996 353.53875 
L 325.128996 7.2 
" clip-path="url(#p2cf02de8c4)" style="fill: none; stroke: #1a1a1a; stroke-opacity: 0.22; stroke-width: 0.5; stroke-linecap: square"/>
     </g>
     <g id="line2d_9">
      <g>
       <use xlink:href="#m5cb608f23f" x="325.128996" y="353.53875" style="fill: #1a1a1a; stroke: #1a1a1a; stroke-width: 0.8"/>
      </g>
     </g>
     <g id="text_4">
      <!-- 0.6 -->
      <g style="fill: #1a1a1a" transform="translate(317.177433 368.137187) scale(0.1 -0.1)">
       <defs>
        <path id="DejaVuSans-36" d="M 2113 2584 
Q 1688 2584 1439 2293 
Q 1191 2003 1191 1497 
Q 1191 994 1439 701 
Q 1688 409 2113 409 
Q 2538 409 2786 701 
Q 3034 994 3034 1497 
Q 3034 2003 2786 2293 
Q 2538 2584 2113 2584 
z
M 3366 4563 
L 3366 3988 
Q 3128 4100 2886 4159 
Q 2644 4219 2406 4219 
Q 1781 4219 1451 3797 
Q 1122 3375 1075 2522 
Q 1259 2794 1537 2939 
Q 1816 3084 2150 3084 
Q 2853 3084 3261 2657 
Q 3669 2231 3669 1497 
Q 3669 778 3244 343 
Q 2819 -91 2113 -91 
Q 1303 -91 875 529 
Q 447 1150 447 2328 
Q 447 3434 972 4092 
Q 1497 4750 2381 4750 
Q 2619 4750 2861 4703 
Q 3103 4656 3366 4563 
z
" transform="scale(0.015625)"/>
       </defs>
       <use xlink:href="#DejaVuSans-30"/>
       <use xlink:href="#DejaVuSans-2e" x="63.623047"/>
       <use xlink:href="#DejaVuSans-36" x="95.410156"/>
      </g>
     </g>
    </g>
    <g id="xtick_5">
     <g id="line2d_10">
      <path d="M 409.089487 353.53875 
L 409.089487 7.2 
" clip-path="url(#p2cf02de8c4)" style="fill: none; stroke: #1a1a1a; stroke-opacity: 0.22; stroke-width: 0.5; stroke-linecap: square"/>
     </g>
     <g id="line2d_11">
      <g>
       <use xlink:href="#m5cb608f23f" x="409.089487" y="353.53875" style="fill: #1a1a1a; stroke: #1a1a1a; stroke-width: 0.8"/>
      </g>
     </g>
     <g id="text_5">
      <!-- 0.8 -->
      <g style="fill: #1a1a1a" transform="translate(401.137924 368.137187) scale(0.1 -0.1)">
       <defs>
        <path id="DejaVuSans-38" d="M 2034 2216 
Q 1584 2216 1326 1975 
Q 1069 1734 1069 1313 
Q 1069 891 1326 650 
Q 1584 409 2034 409 
Q 2484 409 2743 651 
Q 3003 894 3003 1313 
Q 3003 1734 2745 1975 
Q 2488 2216 2034 2216 
z
M 1403 2484 
Q 997 2584 770 2862 
Q 544 3141 544 3541 
Q 544 4100 942 4425 
Q 1341 4750 2034 4750 
Q 2731 4750 3128 4425 
Q 3525 4100 3525 3541 
Q 3525 3141 3298 2862 
Q 3072 2584 2669 2484 
Q 3125 2378 3379 2068 
Q 3634 1759 3634 1313 
Q 3634 634 3220 271 
Q 2806 -91 2034 -91 
Q 1263 -91 848 271 
Q 434 634 434 1313 
Q 434 1759 690 2068 
Q 947 2378 1403 2484 
z
M 1172 3481 
Q 1172 3119 1398 2916 
Q 1625 2713 2034 2713 
Q 2441 2713 2670 2916 
Q 2900 3119 2900 3481 
Q 2900 3844 2670 4047 
Q 2441 4250 2034 4250 
Q 1625 4250 1398 4047 
Q 1172 3844 1172 3481 
z
" transform="scale(0.015625)"/>
       </defs>
       <use xlink:href="#DejaVuSans-30"/>
       <use xlink:href="#DejaVuSans-2e" x="63.623047"/>
       <use xlink:href="#DejaVuSans-38" x="95.410156"/>
      </g>
     </g>
    </g>
    <g id="xtick_6">
     <g id="line2d_12">
      <path d="M 493.049978 353.53875 
L 493.049978 7.2 
" clip-path="url(#p2cf02de8c4)" style="fill: none; stroke: #1a1a1a; stroke-opacity: 0.22; stroke-width: 0.5; stroke-linecap: square"/>
     </g>
     <g id="line2d_13">
      <g>
       <use xlink:href="#m5cb608f23f" x="493.049978" y="353.53875" style="fill: #1a1a1a; stroke: #1a1a1a; stroke-width: 0.8"/>
      </g>
     </g>
     <g id="text_6">
      <!-- 1.0 -->
      <g style="fill: #1a1a1a" transform="translate(485.098415 368.137187) scale(0.1 -0.1)">
       <defs>
        <path id="DejaVuSans-31" d="M 794 531 
L 1825 531 
L 1825 4091 
L 703 3866 
L 703 4441 
L 1819 4666 
L 2450 4666 
L 2450 531 
L 3481 531 
L 3481 0 
L 794 0 
L 794 531 
z
" transform="scale(0.015625)"/>
       </defs>
       <use xlink:href="#DejaVuSans-31"/>
       <use xlink:href="#DejaVuSans-2e" x="63.623047"/>
       <use xlink:href="#DejaVuSans-30" x="95.410156"/>
      </g>
     </g>
    </g>
    <g id="text_7">
     <!-- primary lens: recovered_frac@0.9 at 8× train depth (D=64) -->
     <g style="fill: #1a1a1a" transform="translate(133.505 385.815312) scale(0.1 -0.1)">
      <defs>
       <path id="DejaVuSans-70" d="M 1159 525 
L 1159 -1331 
L 581 -1331 
L 581 3500 
L 1159 3500 
L 1159 2969 
Q 1341 3281 1617 3432 
Q 1894 3584 2278 3584 
Q 2916 3584 3314 3078 
Q 3713 2572 3713 1747 
Q 3713 922 3314 415 
Q 2916 -91 2278 -91 
Q 1894 -91 1617 61 
Q 1341 213 1159 525 
z
M 3116 1747 
Q 3116 2381 2855 2742 
Q 2594 3103 2138 3103 
Q 1681 3103 1420 2742 
Q 1159 2381 1159 1747 
Q 1159 1113 1420 752 
Q 1681 391 2138 391 
Q 2594 391 2855 752 
Q 3116 1113 3116 1747 
z
" transform="scale(0.015625)"/>
       <path id="DejaVuSans-72" d="M 2631 2963 
Q 2534 3019 2420 3045 
Q 2306 3072 2169 3072 
Q 1681 3072 1420 2755 
Q 1159 2438 1159 1844 
L 1159 0 
L 581 0 
L 581 3500 
L 1159 3500 
L 1159 2956 
Q 1341 3275 1631 3429 
Q 1922 3584 2338 3584 
Q 2397 3584 2469 3576 
Q 2541 3569 2628 3553 
L 2631 2963 
z
" transform="scale(0.015625)"/>
       <path id="DejaVuSans-69" d="M 603 3500 
L 1178 3500 
L 1178 0 
L 603 0 
L 603 3500 
z
M 603 4863 
L 1178 4863 
L 1178 4134 
L 603 4134 
L 603 4863 
z
" transform="scale(0.015625)"/>
       <path id="DejaVuSans-6d" d="M 3328 2828 
Q 3544 3216 3844 3400 
Q 4144 3584 4550 3584 
Q 5097 3584 5394 3201 
Q 5691 2819 5691 2113 
L 5691 0 
L 5113 0 
L 5113 2094 
Q 5113 2597 4934 2840 
Q 4756 3084 4391 3084 
Q 3944 3084 3684 2787 
Q 3425 2491 3425 1978 
L 3425 0 
L 2847 0 
L 2847 2094 
Q 2847 2600 2669 2842 
Q 2491 3084 2119 3084 
Q 1678 3084 1418 2786 
Q 1159 2488 1159 1978 
L 1159 0 
L 581 0 
L 581 3500 
L 1159 3500 
L 1159 2956 
Q 1356 3278 1631 3431 
Q 1906 3584 2284 3584 
Q 2666 3584 2933 3390 
Q 3200 3197 3328 2828 
z
" transform="scale(0.015625)"/>
       <path id="DejaVuSans-61" d="M 2194 1759 
Q 1497 1759 1228 1600 
Q 959 1441 959 1056 
Q 959 750 1161 570 
Q 1363 391 1709 391 
Q 2188 391 2477 730 
Q 2766 1069 2766 1631 
L 2766 1759 
L 2194 1759 
z
M 3341 1997 
L 3341 0 
L 2766 0 
L 2766 531 
Q 2569 213 2275 61 
Q 1981 -91 1556 -91 
Q 1019 -91 701 211 
Q 384 513 384 1019 
Q 384 1609 779 1909 
Q 1175 2209 1959 2209 
L 2766 2209 
L 2766 2266 
Q 2766 2663 2505 2880 
Q 2244 3097 1772 3097 
Q 1472 3097 1187 3025 
Q 903 2953 641 2809 
L 641 3341 
Q 956 3463 1253 3523 
Q 1550 3584 1831 3584 
Q 2591 3584 2966 3190 
Q 3341 2797 3341 1997 
z
" transform="scale(0.015625)"/>
       <path id="DejaVuSans-79" d="M 2059 -325 
Q 1816 -950 1584 -1140 
Q 1353 -1331 966 -1331 
L 506 -1331 
L 506 -850 
L 844 -850 
Q 1081 -850 1212 -737 
Q 1344 -625 1503 -206 
L 1606 56 
L 191 3500 
L 800 3500 
L 1894 763 
L 2988 3500 
L 3597 3500 
L 2059 -325 
z
" transform="scale(0.015625)"/>
       <path id="DejaVuSans-20" transform="scale(0.015625)"/>
       <path id="DejaVuSans-6c" d="M 603 4863 
L 1178 4863 
L 1178 0 
L 603 0 
L 603 4863 
z
" transform="scale(0.015625)"/>
       <path id="DejaVuSans-65" d="M 3597 1894 
L 3597 1613 
L 953 1613 
Q 991 1019 1311 708 
Q 1631 397 2203 397 
Q 2534 397 2845 478 
Q 3156 559 3463 722 
L 3463 178 
Q 3153 47 2828 -22 
Q 2503 -91 2169 -91 
Q 1331 -91 842 396 
Q 353 884 353 1716 
Q 353 2575 817 3079 
Q 1281 3584 2069 3584 
Q 2775 3584 3186 3129 
Q 3597 2675 3597 1894 
z
M 3022 2063 
Q 3016 2534 2758 2815 
Q 2500 3097 2075 3097 
Q 1594 3097 1305 2825 
Q 1016 2553 972 2059 
L 3022 2063 
z
" transform="scale(0.015625)"/>
       <path id="DejaVuSans-6e" d="M 3513 2113 
L 3513 0 
L 2938 0 
L 2938 2094 
Q 2938 2591 2744 2837 
Q 2550 3084 2163 3084 
Q 1697 3084 1428 2787 
Q 1159 2491 1159 1978 
L 1159 0 
L 581 0 
L 581 3500 
L 1159 3500 
L 1159 2956 
Q 1366 3272 1645 3428 
Q 1925 3584 2291 3584 
Q 2894 3584 3203 3211 
Q 3513 2838 3513 2113 
z
" transform="scale(0.015625)"/>
       <path id="DejaVuSans-73" d="M 2834 3397 
L 2834 2853 
Q 2591 2978 2328 3040 
Q 2066 3103 1784 3103 
Q 1356 3103 1142 2972 
Q 928 2841 928 2578 
Q 928 2378 1081 2264 
Q 1234 2150 1697 2047 
L 1894 2003 
Q 2506 1872 2764 1633 
Q 3022 1394 3022 966 
Q 3022 478 2636 193 
Q 2250 -91 1575 -91 
Q 1294 -91 989 -36 
Q 684 19 347 128 
L 347 722 
Q 666 556 975 473 
Q 1284 391 1588 391 
Q 1994 391 2212 530 
Q 2431 669 2431 922 
Q 2431 1156 2273 1281 
Q 2116 1406 1581 1522 
L 1381 1569 
Q 847 1681 609 1914 
Q 372 2147 372 2553 
Q 372 3047 722 3315 
Q 1072 3584 1716 3584 
Q 2034 3584 2315 3537 
Q 2597 3491 2834 3397 
z
" transform="scale(0.015625)"/>
       <path id="DejaVuSans-3a" d="M 750 794 
L 1409 794 
L 1409 0 
L 750 0 
L 750 794 
z
M 750 3309 
L 1409 3309 
L 1409 2516 
L 750 2516 
L 750 3309 
z
" transform="scale(0.015625)"/>
       <path id="DejaVuSans-63" d="M 3122 3366 
L 3122 2828 
Q 2878 2963 2633 3030 
Q 2388 3097 2138 3097 
Q 1578 3097 1268 2742 
Q 959 2388 959 1747 
Q 959 1106 1268 751 
Q 1578 397 2138 397 
Q 2388 397 2633 464 
Q 2878 531 3122 666 
L 3122 134 
Q 2881 22 2623 -34 
Q 2366 -91 2075 -91 
Q 1284 -91 818 406 
Q 353 903 353 1747 
Q 353 2603 823 3093 
Q 1294 3584 2113 3584 
Q 2378 3584 2631 3529 
Q 2884 3475 3122 3366 
z
" transform="scale(0.015625)"/>
       <path id="DejaVuSans-6f" d="M 1959 3097 
Q 1497 3097 1228 2736 
Q 959 2375 959 1747 
Q 959 1119 1226 758 
Q 1494 397 1959 397 
Q 2419 397 2687 759 
Q 2956 1122 2956 1747 
Q 2956 2369 2687 2733 
Q 2419 3097 1959 3097 
z
M 1959 3584 
Q 2709 3584 3137 3096 
Q 3566 2609 3566 1747 
Q 3566 888 3137 398 
Q 2709 -91 1959 -91 
Q 1206 -91 779 398 
Q 353 888 353 1747 
Q 353 2609 779 3096 
Q 1206 3584 1959 3584 
z
" transform="scale(0.015625)"/>
       <path id="DejaVuSans-76" d="M 191 3500 
L 800 3500 
L 1894 563 
L 2988 3500 
L 3597 3500 
L 2284 0 
L 1503 0 
L 191 3500 
z
" transform="scale(0.015625)"/>
       <path id="DejaVuSans-64" d="M 2906 2969 
L 2906 4863 
L 3481 4863 
L 3481 0 
L 2906 0 
L 2906 525 
Q 2725 213 2448 61 
Q 2172 -91 1784 -91 
Q 1150 -91 751 415 
Q 353 922 353 1747 
Q 353 2572 751 3078 
Q 1150 3584 1784 3584 
Q 2172 3584 2448 3432 
Q 2725 3281 2906 2969 
z
M 947 1747 
Q 947 1113 1208 752 
Q 1469 391 1925 391 
Q 2381 391 2643 752 
Q 2906 1113 2906 1747 
Q 2906 2381 2643 2742 
Q 2381 3103 1925 3103 
Q 1469 3103 1208 2742 
Q 947 2381 947 1747 
z
" transform="scale(0.015625)"/>
       <path id="DejaVuSans-5f" d="M 3263 -1063 
L 3263 -1509 
L -63 -1509 
L -63 -1063 
L 3263 -1063 
z
" transform="scale(0.015625)"/>
       <path id="DejaVuSans-66" d="M 2375 4863 
L 2375 4384 
L 1825 4384 
Q 1516 4384 1395 4259 
Q 1275 4134 1275 3809 
L 1275 3500 
L 2222 3500 
L 2222 3053 
L 1275 3053 
L 1275 0 
L 697 0 
L 697 3053 
L 147 3053 
L 147 3500 
L 697 3500 
L 697 3744 
Q 697 4328 969 4595 
Q 1241 4863 1831 4863 
L 2375 4863 
z
" transform="scale(0.015625)"/>
       <path id="DejaVuSans-40" d="M 2381 1678 
Q 2381 1231 2603 976 
Q 2825 722 3213 722 
Q 3597 722 3817 978 
Q 4038 1234 4038 1678 
Q 4038 2116 3813 2373 
Q 3588 2631 3206 2631 
Q 2828 2631 2604 2375 
Q 2381 2119 2381 1678 
z
M 4084 744 
Q 3897 503 3655 389 
Q 3413 275 3091 275 
Q 2553 275 2217 664 
Q 1881 1053 1881 1678 
Q 1881 2303 2218 2693 
Q 2556 3084 3091 3084 
Q 3413 3084 3656 2967 
Q 3900 2850 4084 2613 
L 4084 3022 
L 4531 3022 
L 4531 722 
Q 4988 791 5245 1139 
Q 5503 1488 5503 2041 
Q 5503 2375 5404 2669 
Q 5306 2963 5106 3213 
Q 4781 3622 4314 3839 
Q 3847 4056 3297 4056 
Q 2913 4056 2559 3954 
Q 2206 3853 1906 3653 
Q 1416 3334 1139 2817 
Q 863 2300 863 1697 
Q 863 1200 1042 765 
Q 1222 331 1563 0 
Q 1891 -325 2322 -495 
Q 2753 -666 3244 -666 
Q 3647 -666 4036 -530 
Q 4425 -394 4750 -141 
L 5031 -488 
Q 4641 -791 4180 -952 
Q 3719 -1113 3244 -1113 
Q 2666 -1113 2153 -908 
Q 1641 -703 1241 -313 
Q 841 78 631 592 
Q 422 1106 422 1697 
Q 422 2266 634 2781 
Q 847 3297 1241 3688 
Q 1644 4084 2172 4295 
Q 2700 4506 3291 4506 
Q 3953 4506 4520 4234 
Q 5088 3963 5472 3463 
Q 5706 3156 5829 2797 
Q 5953 2438 5953 2053 
Q 5953 1231 5456 756 
Q 4959 281 4084 263 
L 4084 744 
z
" transform="scale(0.015625)"/>
       <path id="DejaVuSans-39" d="M 703 97 
L 703 672 
Q 941 559 1184 500 
Q 1428 441 1663 441 
Q 2288 441 2617 861 
Q 2947 1281 2994 2138 
Q 2813 1869 2534 1725 
Q 2256 1581 1919 1581 
Q 1219 1581 811 2004 
Q 403 2428 403 3163 
Q 403 3881 828 4315 
Q 1253 4750 1959 4750 
Q 2769 4750 3195 4129 
Q 3622 3509 3622 2328 
Q 3622 1225 3098 567 
Q 2575 -91 1691 -91 
Q 1453 -91 1209 -44 
Q 966 3 703 97 
z
M 1959 2075 
Q 2384 2075 2632 2365 
Q 2881 2656 2881 3163 
Q 2881 3666 2632 3958 
Q 2384 4250 1959 4250 
Q 1534 4250 1286 3958 
Q 1038 3666 1038 3163 
Q 1038 2656 1286 2365 
Q 1534 2075 1959 2075 
z
" transform="scale(0.015625)"/>
       <path id="DejaVuSans-74" d="M 1172 4494 
L 1172 3500 
L 2356 3500 
L 2356 3053 
L 1172 3053 
L 1172 1153 
Q 1172 725 1289 603 
Q 1406 481 1766 481 
L 2356 481 
L 2356 0 
L 1766 0 
Q 1100 0 847 248 
Q 594 497 594 1153 
L 594 3053 
L 172 3053 
L 172 3500 
L 594 3500 
L 594 4494 
L 1172 4494 
z
" transform="scale(0.015625)"/>
       <path id="DejaVuSans-d7" d="M 4488 3438 
L 3059 2003 
L 4488 575 
L 4116 197 
L 2681 1631 
L 1247 197 
L 878 575 
L 2303 2003 
L 878 3438 
L 1247 3816 
L 2681 2381 
L 4116 3816 
L 4488 3438 
z
" transform="scale(0.015625)"/>
       <path id="DejaVuSans-68" d="M 3513 2113 
L 3513 0 
L 2938 0 
L 2938 2094 
Q 2938 2591 2744 2837 
Q 2550 3084 2163 3084 
Q 1697 3084 1428 2787 
Q 1159 2491 1159 1978 
L 1159 0 
L 581 0 
L 581 4863 
L 1159 4863 
L 1159 2956 
Q 1366 3272 1645 3428 
Q 1925 3584 2291 3584 
Q 2894 3584 3203 3211 
Q 3513 2838 3513 2113 
z
" transform="scale(0.015625)"/>
       <path id="DejaVuSans-28" d="M 1984 4856 
Q 1566 4138 1362 3434 
Q 1159 2731 1159 2009 
Q 1159 1288 1364 580 
Q 1569 -128 1984 -844 
L 1484 -844 
Q 1016 -109 783 600 
Q 550 1309 550 2009 
Q 550 2706 781 3412 
Q 1013 4119 1484 4856 
L 1984 4856 
z
" transform="scale(0.015625)"/>
       <path id="DejaVuSans-44" d="M 1259 4147 
L 1259 519 
L 2022 519 
Q 2988 519 3436 956 
Q 3884 1394 3884 2338 
Q 3884 3275 3436 3711 
Q 2988 4147 2022 4147 
L 1259 4147 
z
M 628 4666 
L 1925 4666 
Q 3281 4666 3915 4102 
Q 4550 3538 4550 2338 
Q 4550 1131 3912 565 
Q 3275 0 1925 0 
L 628 0 
L 628 4666 
z
" transform="scale(0.015625)"/>
       <path id="DejaVuSans-3d" d="M 678 2906 
L 4684 2906 
L 4684 2381 
L 678 2381 
L 678 2906 
z
M 678 1631 
L 4684 1631 
L 4684 1100 
L 678 1100 
L 678 1631 
z
" transform="scale(0.015625)"/>
       <path id="DejaVuSans-29" d="M 513 4856 
L 1013 4856 
Q 1481 4119 1714 3412 
Q 1947 2706 1947 2009 
Q 1947 1309 1714 600 
Q 1481 -109 1013 -844 
L 513 -844 
Q 928 -128 1133 580 
Q 1338 1288 1338 2009 
Q 1338 2731 1133 3434 
Q 928 4138 513 4856 
z
" transform="scale(0.015625)"/>
      </defs>
      <use xlink:href="#DejaVuSans-70"/>
      <use xlink:href="#DejaVuSans-72" x="63.476562"/>
      <use xlink:href="#DejaVuSans-69" x="104.589844"/>
      <use xlink:href="#DejaVuSans-6d" x="132.373047"/>
      <use xlink:href="#DejaVuSans-61" x="229.785156"/>
      <use xlink:href="#DejaVuSans-72" x="291.064453"/>
      <use xlink:href="#DejaVuSans-79" x="332.177734"/>
      <use xlink:href="#DejaVuSans-20" x="391.357422"/>
      <use xlink:href="#DejaVuSans-6c" x="423.144531"/>
      <use xlink:href="#DejaVuSans-65" x="450.927734"/>
      <use xlink:href="#DejaVuSans-6e" x="512.451172"/>
      <use xlink:href="#DejaVuSans-73" x="575.830078"/>
      <use xlink:href="#DejaVuSans-3a" x="627.929688"/>
      <use xlink:href="#DejaVuSans-20" x="661.621094"/>
      <use xlink:href="#DejaVuSans-72" x="693.408203"/>
      <use xlink:href="#DejaVuSans-65" x="732.271484"/>
      <use xlink:href="#DejaVuSans-63" x="793.794922"/>
      <use xlink:href="#DejaVuSans-6f" x="848.775391"/>
      <use xlink:href="#DejaVuSans-76" x="909.957031"/>
      <use xlink:href="#DejaVuSans-65" x="969.136719"/>
      <use xlink:href="#DejaVuSans-72" x="1030.660156"/>
      <use xlink:href="#DejaVuSans-65" x="1069.523438"/>
      <use xlink:href="#DejaVuSans-64" x="1131.046875"/>
      <use xlink:href="#DejaVuSans-5f" x="1194.523438"/>
      <use xlink:href="#DejaVuSans-66" x="1244.523438"/>
      <use xlink:href="#DejaVuSans-72" x="1279.728516"/>
      <use xlink:href="#DejaVuSans-61" x="1320.841797"/>
      <use xlink:href="#DejaVuSans-63" x="1382.121094"/>
      <use xlink:href="#DejaVuSans-40" x="1437.101562"/>
      <use xlink:href="#DejaVuSans-30" x="1537.101562"/>
      <use xlink:href="#DejaVuSans-2e" x="1600.724609"/>
      <use xlink:href="#DejaVuSans-39" x="1632.511719"/>
      <use xlink:href="#DejaVuSans-20" x="1696.134766"/>
      <use xlink:href="#DejaVuSans-61" x="1727.921875"/>
      <use xlink:href="#DejaVuSans-74" x="1789.201172"/>
      <use xlink:href="#DejaVuSans-20" x="1828.410156"/>
      <use xlink:href="#DejaVuSans-38" x="1860.197266"/>
      <use xlink:href="#DejaVuSans-d7" x="1923.820312"/>
      <use xlink:href="#DejaVuSans-20" x="2007.609375"/>
      <use xlink:href="#DejaVuSans-74" x="2039.396484"/>
      <use xlink:href="#DejaVuSans-72" x="2078.605469"/>
      <use xlink:href="#DejaVuSans-61" x="2119.71875"/>
      <use xlink:href="#DejaVuSans-69" x="2180.998047"/>
      <use xlink:href="#DejaVuSans-6e" x="2208.78125"/>
      <use xlink:href="#DejaVuSans-20" x="2272.160156"/>
      <use xlink:href="#DejaVuSans-64" x="2303.947266"/>
      <use xlink:href="#DejaVuSans-65" x="2367.423828"/>
      <use xlink:href="#DejaVuSans-70" x="2428.947266"/>
      <use xlink:href="#DejaVuSans-74" x="2492.423828"/>
      <use xlink:href="#DejaVuSans-68" x="2531.632812"/>
      <use xlink:href="#DejaVuSans-20" x="2595.011719"/>
      <use xlink:href="#DejaVuSans-28" x="2626.798828"/>
      <use xlink:href="#DejaVuSans-44" x="2665.8125"/>
      <use xlink:href="#DejaVuSans-3d" x="2742.814453"/>
      <use xlink:href="#DejaVuSans-36" x="2826.603516"/>
      <use xlink:href="#DejaVuSans-34" x="2890.226562"/>
      <use xlink:href="#DejaVuSans-29" x="2953.849609"/>
     </g>
    </g>
   </g>
   <g id="matplotlib.axis_2">
    <g id="ytick_1">
     <g id="line2d_14">
      <path d="M 48.059375 334.984888 
L 518.238125 334.984888 
" clip-path="url(#p2cf02de8c4)" style="fill: none; stroke: #1a1a1a; stroke-opacity: 0.22; stroke-width: 0.5; stroke-linecap: square"/>
     </g>
     <g id="line2d_15">
      <defs>
       <path id="mc3898d3f7a" d="M 0 0 
L -3.5 0 
" style="stroke: #1a1a1a; stroke-width: 0.8"/>
      </defs>
      <g>
       <use xlink:href="#mc3898d3f7a" x="48.059375" y="334.984888" style="fill: #1a1a1a; stroke: #1a1a1a; stroke-width: 0.8"/>
      </g>
     </g>
     <g id="text_8">
      <!-- 0.0 -->
      <g style="fill: #1a1a1a" transform="translate(25.15625 338.784107) scale(0.1 -0.1)">
       <use xlink:href="#DejaVuSans-30"/>
       <use xlink:href="#DejaVuSans-2e" x="63.623047"/>
       <use xlink:href="#DejaVuSans-30" x="95.410156"/>
      </g>
     </g>
    </g>
    <g id="ytick_2">
     <g id="line2d_16">
      <path d="M 48.059375 273.138683 
L 518.238125 273.138683 
" clip-path="url(#p2cf02de8c4)" style="fill: none; stroke: #1a1a1a; stroke-opacity: 0.22; stroke-width: 0.5; stroke-linecap: square"/>
     </g>
     <g id="line2d_17">
      <g>
       <use xlink:href="#mc3898d3f7a" x="48.059375" y="273.138683" style="fill: #1a1a1a; stroke: #1a1a1a; stroke-width: 0.8"/>
      </g>
     </g>
     <g id="text_9">
      <!-- 0.2 -->
      <g style="fill: #1a1a1a" transform="translate(25.15625 276.937902) scale(0.1 -0.1)">
       <use xlink:href="#DejaVuSans-30"/>
       <use xlink:href="#DejaVuSans-2e" x="63.623047"/>
       <use xlink:href="#DejaVuSans-32" x="95.410156"/>
      </g>
     </g>
    </g>
    <g id="ytick_3">
     <g id="line2d_18">
      <path d="M 48.059375 211.292478 
L 518.238125 211.292478 
" clip-path="url(#p2cf02de8c4)" style="fill: none; stroke: #1a1a1a; stroke-opacity: 0.22; stroke-width: 0.5; stroke-linecap: square"/>
     </g>
     <g id="line2d_19">
      <g>
       <use xlink:href="#mc3898d3f7a" x="48.059375" y="211.292478" style="fill: #1a1a1a; stroke: #1a1a1a; stroke-width: 0.8"/>
      </g>
     </g>
     <g id="text_10">
      <!-- 0.4 -->
      <g style="fill: #1a1a1a" transform="translate(25.15625 215.091696) scale(0.1 -0.1)">
       <use xlink:href="#DejaVuSans-30"/>
       <use xlink:href="#DejaVuSans-2e" x="63.623047"/>
       <use xlink:href="#DejaVuSans-34" x="95.410156"/>
      </g>
     </g>
    </g>
    <g id="ytick_4">
     <g id="line2d_20">
      <path d="M 48.059375 149.446272 
L 518.238125 149.446272 
" clip-path="url(#p2cf02de8c4)" style="fill: none; stroke: #1a1a1a; stroke-opacity: 0.22; stroke-width: 0.5; stroke-linecap: square"/>
     </g>
     <g id="line2d_21">
      <g>
       <use xlink:href="#mc3898d3f7a" x="48.059375" y="149.446272" style="fill: #1a1a1a; stroke: #1a1a1a; stroke-width: 0.8"/>
      </g>
     </g>
     <g id="text_11">
      <!-- 0.6 -->
      <g style="fill: #1a1a1a" transform="translate(25.15625 153.245491) scale(0.1 -0.1)">
       <use xlink:href="#DejaVuSans-30"/>
       <use xlink:href="#DejaVuSans-2e" x="63.623047"/>
       <use xlink:href="#DejaVuSans-36" x="95.410156"/>
      </g>
     </g>
    </g>
    <g id="ytick_5">
     <g id="line2d_22">
      <path d="M 48.059375 87.600067 
L 518.238125 87.600067 
" clip-path="url(#p2cf02de8c4)" style="fill: none; stroke: #1a1a1a; stroke-opacity: 0.22; stroke-width: 0.5; stroke-linecap: square"/>
     </g>
     <g id="line2d_23">
      <g>
       <use xlink:href="#mc3898d3f7a" x="48.059375" y="87.600067" style="fill: #1a1a1a; stroke: #1a1a1a; stroke-width: 0.8"/>
      </g>
     </g>
     <g id="text_12">
      <!-- 0.8 -->
      <g style="fill: #1a1a1a" transform="translate(25.15625 91.399286) scale(0.1 -0.1)">
       <use xlink:href="#DejaVuSans-30"/>
       <use xlink:href="#DejaVuSans-2e" x="63.623047"/>
       <use xlink:href="#DejaVuSans-38" x="95.410156"/>
      </g>
     </g>
    </g>
    <g id="ytick_6">
     <g id="line2d_24">
      <path d="M 48.059375 25.753862 
L 518.238125 25.753862 
" clip-path="url(#p2cf02de8c4)" style="fill: none; stroke: #1a1a1a; stroke-opacity: 0.22; stroke-width: 0.5; stroke-linecap: square"/>
     </g>
     <g id="line2d_25">
      <g>
       <use xlink:href="#mc3898d3f7a" x="48.059375" y="25.753862" style="fill: #1a1a1a; stroke: #1a1a1a; stroke-width: 0.8"/>
      </g>
     </g>
     <g id="text_13">
      <!-- 1.0 -->
      <g style="fill: #1a1a1a" transform="translate(25.15625 29.55308) scale(0.1 -0.1)">
       <use xlink:href="#DejaVuSans-31"/>
       <use xlink:href="#DejaVuSans-2e" x="63.623047"/>
       <use xlink:href="#DejaVuSans-30" x="95.410156"/>
      </g>
     </g>
    </g>
    <g id="text_14">
     <!-- crosscheck lens: recovered_frac@0.9 at D=64 -->
     <g style="fill: #1a1a1a" transform="translate(14.798438 295.813906) rotate(-90) scale(0.1 -0.1)">
      <defs>
       <path id="DejaVuSans-6b" d="M 581 4863 
L 1159 4863 
L 1159 1991 
L 2875 3500 
L 3609 3500 
L 1753 1863 
L 3688 0 
L 2938 0 
L 1159 1709 
L 1159 0 
L 581 0 
L 581 4863 
z
" transform="scale(0.015625)"/>
      </defs>
      <use xlink:href="#DejaVuSans-63"/>
      <use xlink:href="#DejaVuSans-72" x="54.980469"/>
      <use xlink:href="#DejaVuSans-6f" x="93.84375"/>
      <use xlink:href="#DejaVuSans-73" x="155.025391"/>
      <use xlink:href="#DejaVuSans-73" x="207.125"/>
      <use xlink:href="#DejaVuSans-63" x="259.224609"/>
      <use xlink:href="#DejaVuSans-68" x="314.205078"/>
      <use xlink:href="#DejaVuSans-65" x="377.583984"/>
      <use xlink:href="#DejaVuSans-63" x="439.107422"/>
      <use xlink:href="#DejaVuSans-6b" x="494.087891"/>
      <use xlink:href="#DejaVuSans-20" x="551.998047"/>
      <use xlink:href="#DejaVuSans-6c" x="583.785156"/>
      <use xlink:href="#DejaVuSans-65" x="611.568359"/>
      <use xlink:href="#DejaVuSans-6e" x="673.091797"/>
      <use xlink:href="#DejaVuSans-73" x="736.470703"/>
      <use xlink:href="#DejaVuSans-3a" x="788.570312"/>
      <use xlink:href="#DejaVuSans-20" x="822.261719"/>
      <use xlink:href="#DejaVuSans-72" x="854.048828"/>
      <use xlink:href="#DejaVuSans-65" x="892.912109"/>
      <use xlink:href="#DejaVuSans-63" x="954.435547"/>
      <use xlink:href="#DejaVuSans-6f" x="1009.416016"/>
      <use xlink:href="#DejaVuSans-76" x="1070.597656"/>
      <use xlink:href="#DejaVuSans-65" x="1129.777344"/>
      <use xlink:href="#DejaVuSans-72" x="1191.300781"/>
      <use xlink:href="#DejaVuSans-65" x="1230.164062"/>
      <use xlink:href="#DejaVuSans-64" x="1291.6875"/>
      <use xlink:href="#DejaVuSans-5f" x="1355.164062"/>
      <use xlink:href="#DejaVuSans-66" x="1405.164062"/>
      <use xlink:href="#DejaVuSans-72" x="1440.369141"/>
      <use xlink:href="#DejaVuSans-61" x="1481.482422"/>
      <use xlink:href="#DejaVuSans-63" x="1542.761719"/>
      <use xlink:href="#DejaVuSans-40" x="1597.742188"/>
      <use xlink:href="#DejaVuSans-30" x="1697.742188"/>
      <use xlink:href="#DejaVuSans-2e" x="1761.365234"/>
      <use xlink:href="#DejaVuSans-39" x="1793.152344"/>
      <use xlink:href="#DejaVuSans-20" x="1856.775391"/>
      <use xlink:href="#DejaVuSans-61" x="1888.5625"/>
      <use xlink:href="#DejaVuSans-74" x="1949.841797"/>
      <use xlink:href="#DejaVuSans-20" x="1989.050781"/>
      <use xlink:href="#DejaVuSans-44" x="2020.837891"/>
      <use xlink:href="#DejaVuSans-3d" x="2097.839844"/>
      <use xlink:href="#DejaVuSans-36" x="2181.628906"/>
      <use xlink:href="#DejaVuSans-34" x="2245.251953"/>
     </g>
    </g>
   </g>
   <g id="patch_3">
    <path d="M 48.059375 353.53875 
L 48.059375 7.2 
" style="fill: none; stroke: #1a1a1a; stroke-linejoin: miter; stroke-linecap: square"/>
   </g>
   <g id="patch_4">
    <path d="M 518.238125 353.53875 
L 518.238125 7.2 
" style="fill: none; stroke: #1a1a1a; stroke-linejoin: miter; stroke-linecap: square"/>
   </g>
   <g id="patch_5">
    <path d="M 48.059375 353.53875 
L 518.238125 353.53875 
" style="fill: none; stroke: #1a1a1a; stroke-linejoin: miter; stroke-linecap: square"/>
   </g>
   <g id="patch_6">
    <path d="M 48.059375 7.2 
L 518.238125 7.2 
" style="fill: none; stroke: #1a1a1a; stroke-linejoin: miter; stroke-linecap: square"/>
   </g>
   <g id="text_15">
    <!-- lenses agree -->
    <g style="fill: #5a5a5a" transform="translate(355.62007 125.082531) rotate(-38) scale(0.085 -0.085)">
     <defs>
      <path id="DejaVuSans-67" d="M 2906 1791 
Q 2906 2416 2648 2759 
Q 2391 3103 1925 3103 
Q 1463 3103 1205 2759 
Q 947 2416 947 1791 
Q 947 1169 1205 825 
Q 1463 481 1925 481 
Q 2391 481 2648 825 
Q 2906 1169 2906 1791 
z
M 3481 434 
Q 3481 -459 3084 -895 
Q 2688 -1331 1869 -1331 
Q 1566 -1331 1297 -1286 
Q 1028 -1241 775 -1147 
L 775 -588 
Q 1028 -725 1275 -790 
Q 1522 -856 1778 -856 
Q 2344 -856 2625 -561 
Q 2906 -266 2906 331 
L 2906 616 
Q 2728 306 2450 153 
Q 2172 0 1784 0 
Q 1141 0 747 490 
Q 353 981 353 1791 
Q 353 2603 747 3093 
Q 1141 3584 1784 3584 
Q 2172 3584 2450 3431 
Q 2728 3278 2906 2969 
L 2906 3500 
L 3481 3500 
L 3481 434 
z
" transform="scale(0.015625)"/>
     </defs>
     <use xlink:href="#DejaVuSans-6c"/>
     <use xlink:href="#DejaVuSans-65" x="27.783203"/>
     <use xlink:href="#DejaVuSans-6e" x="89.306641"/>
     <use xlink:href="#DejaVuSans-73" x="152.685547"/>
     <use xlink:href="#DejaVuSans-65" x="204.785156"/>
     <use xlink:href="#DejaVuSans-73" x="266.308594"/>
     <use xlink:href="#DejaVuSans-20" x="318.408203"/>
     <use xlink:href="#DejaVuSans-61" x="350.195312"/>
     <use xlink:href="#DejaVuSans-67" x="411.474609"/>
     <use xlink:href="#DejaVuSans-72" x="474.951172"/>
     <use xlink:href="#DejaVuSans-65" x="513.814453"/>
     <use xlink:href="#DejaVuSans-65" x="575.337891"/>
    </g>
   </g>
   <g id="PathCollection_1">
    <defs>
     <path id="md5c433d189" d="M 0 3.605551 
C 0.956203 3.605551 1.873372 3.225648 2.54951 2.54951 
C 3.225648 1.873372 3.605551 0.956203 3.605551 0 
C 3.605551 -0.956203 3.225648 -1.873372 2.54951 -2.54951 
C 1.873372 -3.225648 0.956203 -3.605551 0 -3.605551 
C -0.956203 -3.605551 -1.873372 -3.225648 -2.54951 -2.54951 
C -3.225648 -1.873372 -3.605551 -0.956203 -3.605551 0 
C -3.605551 0.956203 -3.225648 1.873372 -2.54951 2.54951 
C -1.873372 3.225648 -0.956203 3.605551 0 3.605551 
z
" style="stroke: #1a1a1a; stroke-opacity: 0.8; stroke-width: 0.6"/>
    </defs>
    <g clip-path="url(#p2cf02de8c4)">
     <use xlink:href="#md5c433d189" x="95.847557" y="40.856422" style="fill: #d55e00; fill-opacity: 0.8; stroke: #1a1a1a; stroke-opacity: 0.8; stroke-width: 0.6"/>
     <use xlink:href="#md5c433d189" x="91.53161" y="27.48805" style="fill: #d55e00; fill-opacity: 0.8; stroke: #1a1a1a; stroke-opacity: 0.8; stroke-width: 0.6"/>
     <use xlink:href="#md5c433d189" x="88.842033" y="26.423272" style="fill: #d55e00; fill-opacity: 0.8; stroke: #1a1a1a; stroke-opacity: 0.8; stroke-width: 0.6"/>
     <use xlink:href="#md5c433d189" x="73.247522" y="29.837891" style="fill: #d55e00; fill-opacity: 0.8; stroke: #1a1a1a; stroke-opacity: 0.8; stroke-width: 0.6"/>
     <use xlink:href="#md5c433d189" x="76.929848" y="29.006993" style="fill: #d55e00; fill-opacity: 0.8; stroke: #1a1a1a; stroke-opacity: 0.8; stroke-width: 0.6"/>
     <use xlink:href="#md5c433d189" x="329.980718" y="25.753862" style="fill: #d55e00; fill-opacity: 0.8; stroke: #1a1a1a; stroke-opacity: 0.8; stroke-width: 0.6"/>
     <use xlink:href="#md5c433d189" x="347.372565" y="25.753862" style="fill: #d55e00; fill-opacity: 0.8; stroke: #1a1a1a; stroke-opacity: 0.8; stroke-width: 0.6"/>
     <use xlink:href="#md5c433d189" x="348.816728" y="25.753862" style="fill: #d55e00; fill-opacity: 0.8; stroke: #1a1a1a; stroke-opacity: 0.8; stroke-width: 0.6"/>
     <use xlink:href="#md5c433d189" x="262.671416" y="26.761036" style="fill: #d55e00; fill-opacity: 0.8; stroke: #1a1a1a; stroke-opacity: 0.8; stroke-width: 0.6"/>
     <use xlink:href="#md5c433d189" x="141.331936" y="25.753862" style="fill: #d55e00; fill-opacity: 0.8; stroke: #1a1a1a; stroke-opacity: 0.8; stroke-width: 0.6"/>
     <use xlink:href="#md5c433d189" x="97.950336" y="25.753862" style="fill: #d55e00; fill-opacity: 0.8; stroke: #1a1a1a; stroke-opacity: 0.8; stroke-width: 0.6"/>
     <use xlink:href="#md5c433d189" x="88.3926" y="25.753862" style="fill: #d55e00; fill-opacity: 0.8; stroke: #1a1a1a; stroke-opacity: 0.8; stroke-width: 0.6"/>
     <use xlink:href="#md5c433d189" x="98.438742" y="25.753862" style="fill: #d55e00; fill-opacity: 0.8; stroke: #1a1a1a; stroke-opacity: 0.8; stroke-width: 0.6"/>
     <use xlink:href="#md5c433d189" x="109.745314" y="25.753862" style="fill: #d55e00; fill-opacity: 0.8; stroke: #1a1a1a; stroke-opacity: 0.8; stroke-width: 0.6"/>
     <use xlink:href="#md5c433d189" x="75.947" y="88.561837" style="fill: #d55e00; fill-opacity: 0.8; stroke: #1a1a1a; stroke-opacity: 0.8; stroke-width: 0.6"/>
     <use xlink:href="#md5c433d189" x="73.247522" y="334.984888" style="fill: #d55e00; fill-opacity: 0.8; stroke: #1a1a1a; stroke-opacity: 0.8; stroke-width: 0.6"/>
     <use xlink:href="#md5c433d189" x="77.516498" y="132.066971" style="fill: #d55e00; fill-opacity: 0.8; stroke: #1a1a1a; stroke-opacity: 0.8; stroke-width: 0.6"/>
    </g>
   </g>
   <g id="PathCollection_2">
    <defs>
     <path id="m72cdf88cb7" d="M 0 3.605551 
C 0.956203 3.605551 1.873372 3.225648 2.54951 2.54951 
C 3.225648 1.873372 3.605551 0.956203 3.605551 0 
C 3.605551 -0.956203 3.225648 -1.873372 2.54951 -2.54951 
C 1.873372 -3.225648 0.956203 -3.605551 0 -3.605551 
C -0.956203 -3.605551 -1.873372 -3.225648 -2.54951 -2.54951 
C -3.225648 -1.873372 -3.605551 -0.956203 -3.605551 0 
C -3.605551 0.956203 -3.225648 1.873372 -2.54951 2.54951 
C -1.873372 3.225648 -0.956203 3.605551 0 3.605551 
z
" style="stroke: #1a1a1a; stroke-opacity: 0.8; stroke-width: 0.6"/>
    </defs>
    <g clip-path="url(#p2cf02de8c4)">
     <use xlink:href="#m72cdf88cb7" x="73.545549" y="334.984888" style="fill: #e69f00; fill-opacity: 0.8; stroke: #1a1a1a; stroke-opacity: 0.8; stroke-width: 0.6"/>
     <use xlink:href="#m72cdf88cb7" x="73.247522" y="334.984888" style="fill: #e69f00; fill-opacity: 0.8; stroke: #1a1a1a; stroke-opacity: 0.8; stroke-width: 0.6"/>
     <use xlink:href="#m72cdf88cb7" x="73.247522" y="334.984888" style="fill: #e69f00; fill-opacity: 0.8; stroke: #1a1a1a; stroke-opacity: 0.8; stroke-width: 0.6"/>
     <use xlink:href="#m72cdf88cb7" x="77.825745" y="332.419174" style="fill: #e69f00; fill-opacity: 0.8; stroke: #1a1a1a; stroke-opacity: 0.8; stroke-width: 0.6"/>
     <use xlink:href="#m72cdf88cb7" x="78.349473" y="334.984888" style="fill: #e69f00; fill-opacity: 0.8; stroke: #1a1a1a; stroke-opacity: 0.8; stroke-width: 0.6"/>
     <use xlink:href="#m72cdf88cb7" x="73.247522" y="334.984888" style="fill: #e69f00; fill-opacity: 0.8; stroke: #1a1a1a; stroke-opacity: 0.8; stroke-width: 0.6"/>
     <use xlink:href="#m72cdf88cb7" x="74.088317" y="334.984888" style="fill: #e69f00; fill-opacity: 0.8; stroke: #1a1a1a; stroke-opacity: 0.8; stroke-width: 0.6"/>
     <use xlink:href="#m72cdf88cb7" x="73.247522" y="334.984888" style="fill: #e69f00; fill-opacity: 0.8; stroke: #1a1a1a; stroke-opacity: 0.8; stroke-width: 0.6"/>
     <use xlink:href="#m72cdf88cb7" x="74.355969" y="334.984888" style="fill: #e69f00; fill-opacity: 0.8; stroke: #1a1a1a; stroke-opacity: 0.8; stroke-width: 0.6"/>
     <use xlink:href="#m72cdf88cb7" x="73.247522" y="334.289333" style="fill: #e69f00; fill-opacity: 0.8; stroke: #1a1a1a; stroke-opacity: 0.8; stroke-width: 0.6"/>
     <use xlink:href="#m72cdf88cb7" x="73.247522" y="334.984888" style="fill: #e69f00; fill-opacity: 0.8; stroke: #1a1a1a; stroke-opacity: 0.8; stroke-width: 0.6"/>
     <use xlink:href="#m72cdf88cb7" x="224.765849" y="178.880163" style="fill: #e69f00; fill-opacity: 0.8; stroke: #1a1a1a; stroke-opacity: 0.8; stroke-width: 0.6"/>
     <use xlink:href="#m72cdf88cb7" x="73.247522" y="334.984888" style="fill: #e69f00; fill-opacity: 0.8; stroke: #1a1a1a; stroke-opacity: 0.8; stroke-width: 0.6"/>
     <use xlink:href="#m72cdf88cb7" x="74.695522" y="331.156866" style="fill: #e69f00; fill-opacity: 0.8; stroke: #1a1a1a; stroke-opacity: 0.8; stroke-width: 0.6"/>
     <use xlink:href="#m72cdf88cb7" x="73.247522" y="334.984888" style="fill: #e69f00; fill-opacity: 0.8; stroke: #1a1a1a; stroke-opacity: 0.8; stroke-width: 0.6"/>
     <use xlink:href="#m72cdf88cb7" x="77.157578" y="334.984888" style="fill: #e69f00; fill-opacity: 0.8; stroke: #1a1a1a; stroke-opacity: 0.8; stroke-width: 0.6"/>
     <use xlink:href="#m72cdf88cb7" x="76.62221" y="333.867009" style="fill: #e69f00; fill-opacity: 0.8; stroke: #1a1a1a; stroke-opacity: 0.8; stroke-width: 0.6"/>
     <use xlink:href="#m72cdf88cb7" x="73.247522" y="331.286384" style="fill: #e69f00; fill-opacity: 0.8; stroke: #1a1a1a; stroke-opacity: 0.8; stroke-width: 0.6"/>
     <use xlink:href="#m72cdf88cb7" x="77.672894" y="334.984888" style="fill: #e69f00; fill-opacity: 0.8; stroke: #1a1a1a; stroke-opacity: 0.8; stroke-width: 0.6"/>
     <use xlink:href="#m72cdf88cb7" x="73.247522" y="331.048831" style="fill: #e69f00; fill-opacity: 0.8; stroke: #1a1a1a; stroke-opacity: 0.8; stroke-width: 0.6"/>
    </g>
   </g>
   <g id="PathCollection_3">
    <defs>
     <path id="m0e16a2b525" d="M -3.605551 3.605551 
L 3.605551 3.605551 
L 3.605551 -3.605551 
L -3.605551 -3.605551 
z
" style="stroke: #1a1a1a; stroke-opacity: 0.8; stroke-width: 0.6"/>
    </defs>
    <g clip-path="url(#p2cf02de8c4)">
     <use xlink:href="#m0e16a2b525" x="73.247522" y="332.193625" style="fill: #0072b2; fill-opacity: 0.8; stroke: #1a1a1a; stroke-opacity: 0.8; stroke-width: 0.6"/>
     <use xlink:href="#m0e16a2b525" x="73.247522" y="334.984888" style="fill: #0072b2; fill-opacity: 0.8; stroke: #1a1a1a; stroke-opacity: 0.8; stroke-width: 0.6"/>
     <use xlink:href="#m0e16a2b525" x="74.660568" y="334.984888" style="fill: #0072b2; fill-opacity: 0.8; stroke: #1a1a1a; stroke-opacity: 0.8; stroke-width: 0.6"/>
     <use xlink:href="#m0e16a2b525" x="79.067119" y="332.371065" style="fill: #0072b2; fill-opacity: 0.8; stroke: #1a1a1a; stroke-opacity: 0.8; stroke-width: 0.6"/>
     <use xlink:href="#m0e16a2b525" x="78.524617" y="331.317766" style="fill: #0072b2; fill-opacity: 0.8; stroke: #1a1a1a; stroke-opacity: 0.8; stroke-width: 0.6"/>
     <use xlink:href="#m0e16a2b525" x="73.247522" y="334.984888" style="fill: #0072b2; fill-opacity: 0.8; stroke: #1a1a1a; stroke-opacity: 0.8; stroke-width: 0.6"/>
     <use xlink:href="#m0e16a2b525" x="76.276988" y="334.647776" style="fill: #0072b2; fill-opacity: 0.8; stroke: #1a1a1a; stroke-opacity: 0.8; stroke-width: 0.6"/>
     <use xlink:href="#m0e16a2b525" x="73.247522" y="334.984888" style="fill: #0072b2; fill-opacity: 0.8; stroke: #1a1a1a; stroke-opacity: 0.8; stroke-width: 0.6"/>
     <use xlink:href="#m0e16a2b525" x="73.592071" y="331.252938" style="fill: #0072b2; fill-opacity: 0.8; stroke: #1a1a1a; stroke-opacity: 0.8; stroke-width: 0.6"/>
     <use xlink:href="#m0e16a2b525" x="76.606781" y="334.984888" style="fill: #0072b2; fill-opacity: 0.8; stroke: #1a1a1a; stroke-opacity: 0.8; stroke-width: 0.6"/>
     <use xlink:href="#m0e16a2b525" x="156.204838" y="271.129865" style="fill: #0072b2; fill-opacity: 0.8; stroke: #1a1a1a; stroke-opacity: 0.8; stroke-width: 0.6"/>
     <use xlink:href="#m0e16a2b525" x="138.97412" y="287.609937" style="fill: #0072b2; fill-opacity: 0.8; stroke: #1a1a1a; stroke-opacity: 0.8; stroke-width: 0.6"/>
     <use xlink:href="#m0e16a2b525" x="180.680009" y="261.760765" style="fill: #0072b2; fill-opacity: 0.8; stroke: #1a1a1a; stroke-opacity: 0.8; stroke-width: 0.6"/>
     <use xlink:href="#m0e16a2b525" x="99.316277" y="317.62523" style="fill: #0072b2; fill-opacity: 0.8; stroke: #1a1a1a; stroke-opacity: 0.8; stroke-width: 0.6"/>
     <use xlink:href="#m0e16a2b525" x="110.701506" y="308.252556" style="fill: #0072b2; fill-opacity: 0.8; stroke: #1a1a1a; stroke-opacity: 0.8; stroke-width: 0.6"/>
     <use xlink:href="#m0e16a2b525" x="75.939473" y="332.751428" style="fill: #0072b2; fill-opacity: 0.8; stroke: #1a1a1a; stroke-opacity: 0.8; stroke-width: 0.6"/>
     <use xlink:href="#m0e16a2b525" x="78.271664" y="334.874417" style="fill: #0072b2; fill-opacity: 0.8; stroke: #1a1a1a; stroke-opacity: 0.8; stroke-width: 0.6"/>
     <use xlink:href="#m0e16a2b525" x="78.747746" y="331.269503" style="fill: #0072b2; fill-opacity: 0.8; stroke: #1a1a1a; stroke-opacity: 0.8; stroke-width: 0.6"/>
     <use xlink:href="#m0e16a2b525" x="73.247522" y="334.984888" style="fill: #0072b2; fill-opacity: 0.8; stroke: #1a1a1a; stroke-opacity: 0.8; stroke-width: 0.6"/>
     <use xlink:href="#m0e16a2b525" x="77.521918" y="332.029603" style="fill: #0072b2; fill-opacity: 0.8; stroke: #1a1a1a; stroke-opacity: 0.8; stroke-width: 0.6"/>
     <use xlink:href="#m0e16a2b525" x="78.903714" y="334.984888" style="fill: #0072b2; fill-opacity: 0.8; stroke: #1a1a1a; stroke-opacity: 0.8; stroke-width: 0.6"/>
     <use xlink:href="#m0e16a2b525" x="78.621785" y="334.984888" style="fill: #0072b2; fill-opacity: 0.8; stroke: #1a1a1a; stroke-opacity: 0.8; stroke-width: 0.6"/>
     <use xlink:href="#m0e16a2b525" x="73.247522" y="334.984888" style="fill: #0072b2; fill-opacity: 0.8; stroke: #1a1a1a; stroke-opacity: 0.8; stroke-width: 0.6"/>
     <use xlink:href="#m0e16a2b525" x="78.803023" y="330.949504" style="fill: #0072b2; fill-opacity: 0.8; stroke: #1a1a1a; stroke-opacity: 0.8; stroke-width: 0.6"/>
     <use xlink:href="#m0e16a2b525" x="77.831008" y="334.446056" style="fill: #0072b2; fill-opacity: 0.8; stroke: #1a1a1a; stroke-opacity: 0.8; stroke-width: 0.6"/>
    </g>
   </g>
   <g id="text_16">
    <!-- converged contender cells: -->
    <g style="fill: #d55e00" transform="translate(115.227768 41.869386) scale(0.09 -0.09)">
     <defs>
      <path id="DejaVuSans-Bold-63" d="M 3366 3391 
L 3366 2478 
Q 3138 2634 2908 2709 
Q 2678 2784 2431 2784 
Q 1963 2784 1702 2511 
Q 1441 2238 1441 1747 
Q 1441 1256 1702 982 
Q 1963 709 2431 709 
Q 2694 709 2930 787 
Q 3166 866 3366 1019 
L 3366 103 
Q 3103 6 2833 -42 
Q 2563 -91 2291 -91 
Q 1344 -91 809 395 
Q 275 881 275 1747 
Q 275 2613 809 3098 
Q 1344 3584 2291 3584 
Q 2566 3584 2833 3536 
Q 3100 3488 3366 3391 
z
" transform="scale(0.015625)"/>
      <path id="DejaVuSans-Bold-6f" d="M 2203 2784 
Q 1831 2784 1636 2517 
Q 1441 2250 1441 1747 
Q 1441 1244 1636 976 
Q 1831 709 2203 709 
Q 2569 709 2762 976 
Q 2956 1244 2956 1747 
Q 2956 2250 2762 2517 
Q 2569 2784 2203 2784 
z
M 2203 3584 
Q 3106 3584 3614 3096 
Q 4122 2609 4122 1747 
Q 4122 884 3614 396 
Q 3106 -91 2203 -91 
Q 1297 -91 786 396 
Q 275 884 275 1747 
Q 275 2609 786 3096 
Q 1297 3584 2203 3584 
z
" transform="scale(0.015625)"/>
      <path id="DejaVuSans-Bold-6e" d="M 4056 2131 
L 4056 0 
L 2931 0 
L 2931 347 
L 2931 1631 
Q 2931 2084 2911 2256 
Q 2891 2428 2841 2509 
Q 2775 2619 2662 2680 
Q 2550 2741 2406 2741 
Q 2056 2741 1856 2470 
Q 1656 2200 1656 1722 
L 1656 0 
L 538 0 
L 538 3500 
L 1656 3500 
L 1656 2988 
Q 1909 3294 2193 3439 
Q 2478 3584 2822 3584 
Q 3428 3584 3742 3212 
Q 4056 2841 4056 2131 
z
" transform="scale(0.015625)"/>
      <path id="DejaVuSans-Bold-76" d="M 97 3500 
L 1216 3500 
L 2088 1081 
L 2956 3500 
L 4078 3500 
L 2700 0 
L 1472 0 
L 97 3500 
z
" transform="scale(0.015625)"/>
      <path id="DejaVuSans-Bold-65" d="M 4031 1759 
L 4031 1441 
L 1416 1441 
Q 1456 1047 1700 850 
Q 1944 653 2381 653 
Q 2734 653 3104 758 
Q 3475 863 3866 1075 
L 3866 213 
Q 3469 63 3072 -14 
Q 2675 -91 2278 -91 
Q 1328 -91 801 392 
Q 275 875 275 1747 
Q 275 2603 792 3093 
Q 1309 3584 2216 3584 
Q 3041 3584 3536 3087 
Q 4031 2591 4031 1759 
z
M 2881 2131 
Q 2881 2450 2695 2645 
Q 2509 2841 2209 2841 
Q 1884 2841 1681 2658 
Q 1478 2475 1428 2131 
L 2881 2131 
z
" transform="scale(0.015625)"/>
      <path id="DejaVuSans-Bold-72" d="M 3138 2547 
Q 2991 2616 2845 2648 
Q 2700 2681 2553 2681 
Q 2122 2681 1889 2404 
Q 1656 2128 1656 1613 
L 1656 0 
L 538 0 
L 538 3500 
L 1656 3500 
L 1656 2925 
Q 1872 3269 2151 3426 
Q 2431 3584 2822 3584 
Q 2878 3584 2943 3579 
Q 3009 3575 3134 3559 
L 3138 2547 
z
" transform="scale(0.015625)"/>
      <path id="DejaVuSans-Bold-67" d="M 2919 594 
Q 2688 288 2409 144 
Q 2131 0 1766 0 
Q 1125 0 706 504 
Q 288 1009 288 1791 
Q 288 2575 706 3076 
Q 1125 3578 1766 3578 
Q 2131 3578 2409 3434 
Q 2688 3291 2919 2981 
L 2919 3500 
L 4044 3500 
L 4044 353 
Q 4044 -491 3511 -936 
Q 2978 -1381 1966 -1381 
Q 1638 -1381 1331 -1331 
Q 1025 -1281 716 -1178 
L 716 -306 
Q 1009 -475 1290 -558 
Q 1572 -641 1856 -641 
Q 2406 -641 2662 -400 
Q 2919 -159 2919 353 
L 2919 594 
z
M 2181 2772 
Q 1834 2772 1640 2515 
Q 1447 2259 1447 1791 
Q 1447 1309 1634 1061 
Q 1822 813 2181 813 
Q 2531 813 2725 1069 
Q 2919 1325 2919 1791 
Q 2919 2259 2725 2515 
Q 2531 2772 2181 2772 
z
" transform="scale(0.015625)"/>
      <path id="DejaVuSans-Bold-64" d="M 2919 2988 
L 2919 4863 
L 4044 4863 
L 4044 0 
L 2919 0 
L 2919 506 
Q 2688 197 2409 53 
Q 2131 -91 1766 -91 
Q 1119 -91 703 423 
Q 288 938 288 1747 
Q 288 2556 703 3070 
Q 1119 3584 1766 3584 
Q 2128 3584 2408 3439 
Q 2688 3294 2919 2988 
z
M 2181 722 
Q 2541 722 2730 984 
Q 2919 1247 2919 1747 
Q 2919 2247 2730 2509 
Q 2541 2772 2181 2772 
Q 1825 2772 1636 2509 
Q 1447 2247 1447 1747 
Q 1447 1247 1636 984 
Q 1825 722 2181 722 
z
" transform="scale(0.015625)"/>
      <path id="DejaVuSans-Bold-20" transform="scale(0.015625)"/>
      <path id="DejaVuSans-Bold-74" d="M 1759 4494 
L 1759 3500 
L 2913 3500 
L 2913 2700 
L 1759 2700 
L 1759 1216 
Q 1759 972 1856 886 
Q 1953 800 2241 800 
L 2816 800 
L 2816 0 
L 1856 0 
Q 1194 0 917 276 
Q 641 553 641 1216 
L 641 2700 
L 84 2700 
L 84 3500 
L 641 3500 
L 641 4494 
L 1759 4494 
z
" transform="scale(0.015625)"/>
      <path id="DejaVuSans-Bold-6c" d="M 538 4863 
L 1656 4863 
L 1656 0 
L 538 0 
L 538 4863 
z
" transform="scale(0.015625)"/>
      <path id="DejaVuSans-Bold-73" d="M 3272 3391 
L 3272 2541 
Q 2913 2691 2578 2766 
Q 2244 2841 1947 2841 
Q 1628 2841 1473 2761 
Q 1319 2681 1319 2516 
Q 1319 2381 1436 2309 
Q 1553 2238 1856 2203 
L 2053 2175 
Q 2913 2066 3209 1816 
Q 3506 1566 3506 1031 
Q 3506 472 3093 190 
Q 2681 -91 1863 -91 
Q 1516 -91 1145 -36 
Q 775 19 384 128 
L 384 978 
Q 719 816 1070 734 
Q 1422 653 1784 653 
Q 2113 653 2278 743 
Q 2444 834 2444 1013 
Q 2444 1163 2330 1236 
Q 2216 1309 1875 1350 
L 1678 1375 
Q 931 1469 631 1722 
Q 331 1975 331 2491 
Q 331 3047 712 3315 
Q 1094 3584 1881 3584 
Q 2191 3584 2531 3537 
Q 2872 3491 3272 3391 
z
" transform="scale(0.015625)"/>
      <path id="DejaVuSans-Bold-3a" d="M 716 3500 
L 1844 3500 
L 1844 2291 
L 716 2291 
L 716 3500 
z
M 716 1209 
L 1844 1209 
L 1844 0 
L 716 0 
L 716 1209 
z
" transform="scale(0.015625)"/>
     </defs>
     <use xlink:href="#DejaVuSans-Bold-63"/>
     <use xlink:href="#DejaVuSans-Bold-6f" x="59.277344"/>
     <use xlink:href="#DejaVuSans-Bold-6e" x="127.978516"/>
     <use xlink:href="#DejaVuSans-Bold-76" x="199.169922"/>
     <use xlink:href="#DejaVuSans-Bold-65" x="264.355469"/>
     <use xlink:href="#DejaVuSans-Bold-72" x="332.177734"/>
     <use xlink:href="#DejaVuSans-Bold-67" x="381.494141"/>
     <use xlink:href="#DejaVuSans-Bold-65" x="453.076172"/>
     <use xlink:href="#DejaVuSans-Bold-64" x="520.898438"/>
     <use xlink:href="#DejaVuSans-Bold-20" x="592.480469"/>
     <use xlink:href="#DejaVuSans-Bold-63" x="627.294922"/>
     <use xlink:href="#DejaVuSans-Bold-6f" x="686.572266"/>
     <use xlink:href="#DejaVuSans-Bold-6e" x="755.273438"/>
     <use xlink:href="#DejaVuSans-Bold-74" x="826.464844"/>
     <use xlink:href="#DejaVuSans-Bold-65" x="874.267578"/>
     <use xlink:href="#DejaVuSans-Bold-6e" x="942.089844"/>
     <use xlink:href="#DejaVuSans-Bold-64" x="1013.28125"/>
     <use xlink:href="#DejaVuSans-Bold-65" x="1084.863281"/>
     <use xlink:href="#DejaVuSans-Bold-72" x="1152.685547"/>
     <use xlink:href="#DejaVuSans-Bold-20" x="1202.001953"/>
     <use xlink:href="#DejaVuSans-Bold-63" x="1236.816406"/>
     <use xlink:href="#DejaVuSans-Bold-65" x="1296.09375"/>
     <use xlink:href="#DejaVuSans-Bold-6c" x="1363.916016"/>
     <use xlink:href="#DejaVuSans-Bold-6c" x="1398.193359"/>
     <use xlink:href="#DejaVuSans-Bold-73" x="1432.470703"/>
     <use xlink:href="#DejaVuSans-Bold-3a" x="1491.992188"/>
    </g>
    <!-- primary reads ≈0, -->
    <g style="fill: #d55e00" transform="translate(115.227768 52.01773) scale(0.09 -0.09)">
     <defs>
      <path id="DejaVuSans-Bold-70" d="M 1656 506 
L 1656 -1331 
L 538 -1331 
L 538 3500 
L 1656 3500 
L 1656 2988 
Q 1888 3294 2169 3439 
Q 2450 3584 2816 3584 
Q 3463 3584 3878 3070 
Q 4294 2556 4294 1747 
Q 4294 938 3878 423 
Q 3463 -91 2816 -91 
Q 2450 -91 2169 54 
Q 1888 200 1656 506 
z
M 2400 2772 
Q 2041 2772 1848 2508 
Q 1656 2244 1656 1747 
Q 1656 1250 1848 986 
Q 2041 722 2400 722 
Q 2759 722 2948 984 
Q 3138 1247 3138 1747 
Q 3138 2247 2948 2509 
Q 2759 2772 2400 2772 
z
" transform="scale(0.015625)"/>
      <path id="DejaVuSans-Bold-69" d="M 538 3500 
L 1656 3500 
L 1656 0 
L 538 0 
L 538 3500 
z
M 538 4863 
L 1656 4863 
L 1656 3950 
L 538 3950 
L 538 4863 
z
" transform="scale(0.015625)"/>
      <path id="DejaVuSans-Bold-6d" d="M 3781 2919 
Q 3994 3244 4286 3414 
Q 4578 3584 4928 3584 
Q 5531 3584 5847 3212 
Q 6163 2841 6163 2131 
L 6163 0 
L 5038 0 
L 5038 1825 
Q 5041 1866 5042 1909 
Q 5044 1953 5044 2034 
Q 5044 2406 4934 2573 
Q 4825 2741 4581 2741 
Q 4263 2741 4089 2478 
Q 3916 2216 3909 1719 
L 3909 0 
L 2784 0 
L 2784 1825 
Q 2784 2406 2684 2573 
Q 2584 2741 2328 2741 
Q 2006 2741 1831 2477 
Q 1656 2213 1656 1722 
L 1656 0 
L 531 0 
L 531 3500 
L 1656 3500 
L 1656 2988 
Q 1863 3284 2130 3434 
Q 2397 3584 2719 3584 
Q 3081 3584 3359 3409 
Q 3638 3234 3781 2919 
z
" transform="scale(0.015625)"/>
      <path id="DejaVuSans-Bold-61" d="M 2106 1575 
Q 1756 1575 1579 1456 
Q 1403 1338 1403 1106 
Q 1403 894 1545 773 
Q 1688 653 1941 653 
Q 2256 653 2472 879 
Q 2688 1106 2688 1447 
L 2688 1575 
L 2106 1575 
z
M 3816 1997 
L 3816 0 
L 2688 0 
L 2688 519 
Q 2463 200 2181 54 
Q 1900 -91 1497 -91 
Q 953 -91 614 226 
Q 275 544 275 1050 
Q 275 1666 698 1953 
Q 1122 2241 2028 2241 
L 2688 2241 
L 2688 2328 
Q 2688 2594 2478 2717 
Q 2269 2841 1825 2841 
Q 1466 2841 1156 2769 
Q 847 2697 581 2553 
L 581 3406 
Q 941 3494 1303 3539 
Q 1666 3584 2028 3584 
Q 2975 3584 3395 3211 
Q 3816 2838 3816 1997 
z
" transform="scale(0.015625)"/>
      <path id="DejaVuSans-Bold-79" d="M 78 3500 
L 1197 3500 
L 2138 1125 
L 2938 3500 
L 4056 3500 
L 2584 -331 
Q 2363 -916 2067 -1148 
Q 1772 -1381 1288 -1381 
L 641 -1381 
L 641 -647 
L 991 -647 
Q 1275 -647 1404 -556 
Q 1534 -466 1606 -231 
L 1638 -134 
L 78 3500 
z
" transform="scale(0.015625)"/>
      <path id="DejaVuSans-Bold-2248" d="M 4684 3309 
L 4684 2547 
Q 4353 2297 4073 2189 
Q 3794 2081 3494 2081 
Q 3159 2081 2713 2263 
Q 2669 2281 2644 2291 
Q 2622 2300 2575 2319 
Q 2091 2509 1797 2509 
Q 1522 2509 1253 2389 
Q 984 2269 678 2009 
L 678 2772 
Q 1006 3016 1286 3123 
Q 1566 3231 1869 3231 
Q 2213 3231 2672 3047 
Q 2703 3034 2719 3028 
Q 2744 3019 2788 3000 
Q 3272 2809 3566 2809 
Q 3834 2809 4098 2926 
Q 4363 3044 4684 3309 
z
M 4684 2003 
L 4684 1241 
Q 4353 991 4073 883 
Q 3794 775 3494 775 
Q 3159 775 2713 956 
Q 2669 975 2641 988 
Q 2622 994 2575 1013 
Q 2091 1203 1797 1203 
Q 1522 1203 1253 1084 
Q 984 966 678 703 
L 678 1466 
Q 1013 1716 1291 1823 
Q 1569 1931 1869 1931 
Q 2203 1931 2650 1750 
Q 2697 1731 2719 1722 
Q 2744 1713 2788 1697 
Q 3272 1503 3566 1503 
Q 3834 1503 4098 1620 
Q 4363 1738 4684 2003 
z
" transform="scale(0.015625)"/>
      <path id="DejaVuSans-Bold-30" d="M 2944 2338 
Q 2944 3213 2780 3570 
Q 2616 3928 2228 3928 
Q 1841 3928 1675 3570 
Q 1509 3213 1509 2338 
Q 1509 1453 1675 1090 
Q 1841 728 2228 728 
Q 2613 728 2778 1090 
Q 2944 1453 2944 2338 
z
M 4147 2328 
Q 4147 1169 3647 539 
Q 3147 -91 2228 -91 
Q 1306 -91 806 539 
Q 306 1169 306 2328 
Q 306 3491 806 4120 
Q 1306 4750 2228 4750 
Q 3147 4750 3647 4120 
Q 4147 3491 4147 2328 
z
" transform="scale(0.015625)"/>
      <path id="DejaVuSans-Bold-2c" d="M 653 1209 
L 1778 1209 
L 1778 256 
L 1006 -909 
L 341 -909 
L 653 256 
L 653 1209 
z
" transform="scale(0.015625)"/>
     </defs>
     <use xlink:href="#DejaVuSans-Bold-70"/>
     <use xlink:href="#DejaVuSans-Bold-72" x="71.582031"/>
     <use xlink:href="#DejaVuSans-Bold-69" x="120.898438"/>
     <use xlink:href="#DejaVuSans-Bold-6d" x="155.175781"/>
     <use xlink:href="#DejaVuSans-Bold-61" x="259.375"/>
     <use xlink:href="#DejaVuSans-Bold-72" x="326.855469"/>
     <use xlink:href="#DejaVuSans-Bold-79" x="376.171875"/>
     <use xlink:href="#DejaVuSans-Bold-20" x="441.357422"/>
     <use xlink:href="#DejaVuSans-Bold-72" x="476.171875"/>
     <use xlink:href="#DejaVuSans-Bold-65" x="525.488281"/>
     <use xlink:href="#DejaVuSans-Bold-61" x="593.310547"/>
     <use xlink:href="#DejaVuSans-Bold-64" x="660.791016"/>
     <use xlink:href="#DejaVuSans-Bold-73" x="732.373047"/>
     <use xlink:href="#DejaVuSans-Bold-20" x="791.894531"/>
     <use xlink:href="#DejaVuSans-Bold-2248" x="826.708984"/>
     <use xlink:href="#DejaVuSans-Bold-30" x="910.498047"/>
     <use xlink:href="#DejaVuSans-Bold-2c" x="980.078125"/>
    </g>
    <!-- crosscheck reads ≈1 -->
    <g style="fill: #d55e00" transform="translate(115.227768 62.166074) scale(0.09 -0.09)">
     <defs>
      <path id="DejaVuSans-Bold-68" d="M 4056 2131 
L 4056 0 
L 2931 0 
L 2931 347 
L 2931 1625 
Q 2931 2084 2911 2256 
Q 2891 2428 2841 2509 
Q 2775 2619 2662 2680 
Q 2550 2741 2406 2741 
Q 2056 2741 1856 2470 
Q 1656 2200 1656 1722 
L 1656 0 
L 538 0 
L 538 4863 
L 1656 4863 
L 1656 2988 
Q 1909 3294 2193 3439 
Q 2478 3584 2822 3584 
Q 3428 3584 3742 3212 
Q 4056 2841 4056 2131 
z
" transform="scale(0.015625)"/>
      <path id="DejaVuSans-Bold-6b" d="M 538 4863 
L 1656 4863 
L 1656 2216 
L 2944 3500 
L 4244 3500 
L 2534 1894 
L 4378 0 
L 3022 0 
L 1656 1459 
L 1656 0 
L 538 0 
L 538 4863 
z
" transform="scale(0.015625)"/>
      <path id="DejaVuSans-Bold-31" d="M 750 831 
L 1813 831 
L 1813 3847 
L 722 3622 
L 722 4441 
L 1806 4666 
L 2950 4666 
L 2950 831 
L 4013 831 
L 4013 0 
L 750 0 
L 750 831 
z
" transform="scale(0.015625)"/>
     </defs>
     <use xlink:href="#DejaVuSans-Bold-63"/>
     <use xlink:href="#DejaVuSans-Bold-72" x="59.277344"/>
     <use xlink:href="#DejaVuSans-Bold-6f" x="108.59375"/>
     <use xlink:href="#DejaVuSans-Bold-73" x="177.294922"/>
     <use xlink:href="#DejaVuSans-Bold-73" x="236.816406"/>
     <use xlink:href="#DejaVuSans-Bold-63" x="296.337891"/>
     <use xlink:href="#DejaVuSans-Bold-68" x="355.615234"/>
     <use xlink:href="#DejaVuSans-Bold-65" x="426.806641"/>
     <use xlink:href="#DejaVuSans-Bold-63" x="494.628906"/>
     <use xlink:href="#DejaVuSans-Bold-6b" x="553.90625"/>
     <use xlink:href="#DejaVuSans-Bold-20" x="620.410156"/>
     <use xlink:href="#DejaVuSans-Bold-72" x="655.224609"/>
     <use xlink:href="#DejaVuSans-Bold-65" x="704.541016"/>
     <use xlink:href="#DejaVuSans-Bold-61" x="772.363281"/>
     <use xlink:href="#DejaVuSans-Bold-64" x="839.84375"/>
     <use xlink:href="#DejaVuSans-Bold-73" x="911.425781"/>
     <use xlink:href="#DejaVuSans-Bold-20" x="970.947266"/>
     <use xlink:href="#DejaVuSans-Bold-2248" x="1005.761719"/>
     <use xlink:href="#DejaVuSans-Bold-31" x="1089.550781"/>
    </g>
    <!-- (13 of 17 cells above the 0.5-gap line) -->
    <g style="fill: #d55e00" transform="translate(115.227768 72.244105) scale(0.09 -0.09)">
     <defs>
      <path id="DejaVuSans-Bold-28" d="M 2413 -844 
L 1484 -844 
Q 1006 -72 778 623 
Q 550 1319 550 2003 
Q 550 2688 779 3389 
Q 1009 4091 1484 4856 
L 2413 4856 
Q 2013 4116 1813 3408 
Q 1613 2700 1613 2009 
Q 1613 1319 1811 609 
Q 2009 -100 2413 -844 
z
" transform="scale(0.015625)"/>
      <path id="DejaVuSans-Bold-33" d="M 2981 2516 
Q 3453 2394 3698 2092 
Q 3944 1791 3944 1325 
Q 3944 631 3412 270 
Q 2881 -91 1863 -91 
Q 1503 -91 1142 -33 
Q 781 25 428 141 
L 428 1069 
Q 766 900 1098 814 
Q 1431 728 1753 728 
Q 2231 728 2486 893 
Q 2741 1059 2741 1369 
Q 2741 1688 2480 1852 
Q 2219 2016 1709 2016 
L 1228 2016 
L 1228 2791 
L 1734 2791 
Q 2188 2791 2409 2933 
Q 2631 3075 2631 3366 
Q 2631 3634 2415 3781 
Q 2200 3928 1806 3928 
Q 1516 3928 1219 3862 
Q 922 3797 628 3669 
L 628 4550 
Q 984 4650 1334 4700 
Q 1684 4750 2022 4750 
Q 2931 4750 3382 4451 
Q 3834 4153 3834 3553 
Q 3834 3144 3618 2883 
Q 3403 2622 2981 2516 
z
" transform="scale(0.015625)"/>
      <path id="DejaVuSans-Bold-66" d="M 2841 4863 
L 2841 4128 
L 2222 4128 
Q 1984 4128 1890 4042 
Q 1797 3956 1797 3744 
L 1797 3500 
L 2753 3500 
L 2753 2700 
L 1797 2700 
L 1797 0 
L 678 0 
L 678 2700 
L 122 2700 
L 122 3500 
L 678 3500 
L 678 3744 
Q 678 4316 997 4589 
Q 1316 4863 1984 4863 
L 2841 4863 
z
" transform="scale(0.015625)"/>
      <path id="DejaVuSans-Bold-37" d="M 428 4666 
L 3944 4666 
L 3944 3988 
L 2125 0 
L 953 0 
L 2675 3781 
L 428 3781 
L 428 4666 
z
" transform="scale(0.015625)"/>
      <path id="DejaVuSans-Bold-62" d="M 2400 722 
Q 2759 722 2948 984 
Q 3138 1247 3138 1747 
Q 3138 2247 2948 2509 
Q 2759 2772 2400 2772 
Q 2041 2772 1848 2508 
Q 1656 2244 1656 1747 
Q 1656 1250 1848 986 
Q 2041 722 2400 722 
z
M 1656 2988 
Q 1888 3294 2169 3439 
Q 2450 3584 2816 3584 
Q 3463 3584 3878 3070 
Q 4294 2556 4294 1747 
Q 4294 938 3878 423 
Q 3463 -91 2816 -91 
Q 2450 -91 2169 54 
Q 1888 200 1656 506 
L 1656 0 
L 538 0 
L 538 4863 
L 1656 4863 
L 1656 2988 
z
" transform="scale(0.015625)"/>
      <path id="DejaVuSans-Bold-2e" d="M 653 1209 
L 1778 1209 
L 1778 0 
L 653 0 
L 653 1209 
z
" transform="scale(0.015625)"/>
      <path id="DejaVuSans-Bold-35" d="M 678 4666 
L 3669 4666 
L 3669 3781 
L 1638 3781 
L 1638 3059 
Q 1775 3097 1914 3117 
Q 2053 3138 2203 3138 
Q 3056 3138 3531 2711 
Q 4006 2284 4006 1522 
Q 4006 766 3489 337 
Q 2972 -91 2053 -91 
Q 1656 -91 1267 -14 
Q 878 63 494 219 
L 494 1166 
Q 875 947 1217 837 
Q 1559 728 1863 728 
Q 2300 728 2551 942 
Q 2803 1156 2803 1522 
Q 2803 1891 2551 2103 
Q 2300 2316 1863 2316 
Q 1603 2316 1309 2248 
Q 1016 2181 678 2041 
L 678 4666 
z
" transform="scale(0.015625)"/>
      <path id="DejaVuSans-Bold-2d" d="M 347 2297 
L 2309 2297 
L 2309 1388 
L 347 1388 
L 347 2297 
z
" transform="scale(0.015625)"/>
      <path id="DejaVuSans-Bold-29" d="M 513 -844 
Q 913 -100 1113 609 
Q 1313 1319 1313 2009 
Q 1313 2700 1113 3408 
Q 913 4116 513 4856 
L 1441 4856 
Q 1916 4091 2145 3389 
Q 2375 2688 2375 2003 
Q 2375 1319 2147 623 
Q 1919 -72 1441 -844 
L 513 -844 
z
" transform="scale(0.015625)"/>
     </defs>
     <use xlink:href="#DejaVuSans-Bold-28"/>
     <use xlink:href="#DejaVuSans-Bold-31" x="45.703125"/>
     <use xlink:href="#DejaVuSans-Bold-33" x="115.283203"/>
     <use xlink:href="#DejaVuSans-Bold-20" x="184.863281"/>
     <use xlink:href="#DejaVuSans-Bold-6f" x="219.677734"/>
     <use xlink:href="#DejaVuSans-Bold-66" x="288.378906"/>
     <use xlink:href="#DejaVuSans-Bold-20" x="331.884766"/>
     <use xlink:href="#DejaVuSans-Bold-31" x="366.699219"/>
     <use xlink:href="#DejaVuSans-Bold-37" x="436.279297"/>
     <use xlink:href="#DejaVuSans-Bold-20" x="505.859375"/>
     <use xlink:href="#DejaVuSans-Bold-63" x="540.673828"/>
     <use xlink:href="#DejaVuSans-Bold-65" x="599.951172"/>
     <use xlink:href="#DejaVuSans-Bold-6c" x="667.773438"/>
     <use xlink:href="#DejaVuSans-Bold-6c" x="702.050781"/>
     <use xlink:href="#DejaVuSans-Bold-73" x="736.328125"/>
     <use xlink:href="#DejaVuSans-Bold-20" x="795.849609"/>
     <use xlink:href="#DejaVuSans-Bold-61" x="830.664062"/>
     <use xlink:href="#DejaVuSans-Bold-62" x="898.144531"/>
     <use xlink:href="#DejaVuSans-Bold-6f" x="969.726562"/>
     <use xlink:href="#DejaVuSans-Bold-76" x="1038.427734"/>
     <use xlink:href="#DejaVuSans-Bold-65" x="1103.613281"/>
     <use xlink:href="#DejaVuSans-Bold-20" x="1171.435547"/>
     <use xlink:href="#DejaVuSans-Bold-74" x="1206.25"/>
     <use xlink:href="#DejaVuSans-Bold-68" x="1254.052734"/>
     <use xlink:href="#DejaVuSans-Bold-65" x="1325.244141"/>
     <use xlink:href="#DejaVuSans-Bold-20" x="1393.066406"/>
     <use xlink:href="#DejaVuSans-Bold-30" x="1427.880859"/>
     <use xlink:href="#DejaVuSans-Bold-2e" x="1497.460938"/>
     <use xlink:href="#DejaVuSans-Bold-35" x="1535.449219"/>
     <use xlink:href="#DejaVuSans-Bold-2d" x="1605.029297"/>
     <use xlink:href="#DejaVuSans-Bold-67" x="1646.533203"/>
     <use xlink:href="#DejaVuSans-Bold-61" x="1718.115234"/>
     <use xlink:href="#DejaVuSans-Bold-70" x="1785.595703"/>
     <use xlink:href="#DejaVuSans-Bold-20" x="1857.177734"/>
     <use xlink:href="#DejaVuSans-Bold-6c" x="1891.992188"/>
     <use xlink:href="#DejaVuSans-Bold-69" x="1926.269531"/>
     <use xlink:href="#DejaVuSans-Bold-6e" x="1960.546875"/>
     <use xlink:href="#DejaVuSans-Bold-65" x="2031.738281"/>
     <use xlink:href="#DejaVuSans-Bold-29" x="2099.560547"/>
    </g>
   </g>
   <g id="text_17">
    <!-- non-converged cells: both lenses ≈0, -->
    <g style="fill: #5a5a5a" transform="translate(312.87731 292.112036) scale(0.09 -0.09)">
     <defs>
      <path id="DejaVuSans-2d" d="M 313 2009 
L 1997 2009 
L 1997 1497 
L 313 1497 
L 313 2009 
z
" transform="scale(0.015625)"/>
      <path id="DejaVuSans-62" d="M 3116 1747 
Q 3116 2381 2855 2742 
Q 2594 3103 2138 3103 
Q 1681 3103 1420 2742 
Q 1159 2381 1159 1747 
Q 1159 1113 1420 752 
Q 1681 391 2138 391 
Q 2594 391 2855 752 
Q 3116 1113 3116 1747 
z
M 1159 2969 
Q 1341 3281 1617 3432 
Q 1894 3584 2278 3584 
Q 2916 3584 3314 3078 
Q 3713 2572 3713 1747 
Q 3713 922 3314 415 
Q 2916 -91 2278 -91 
Q 1894 -91 1617 61 
Q 1341 213 1159 525 
L 1159 0 
L 581 0 
L 581 4863 
L 1159 4863 
L 1159 2969 
z
" transform="scale(0.015625)"/>
      <path id="DejaVuSans-2248" d="M 4684 1947 
L 4684 1388 
Q 4356 1144 4076 1036 
Q 3797 928 3494 928 
Q 3150 928 2694 1113 
Q 2663 1125 2641 1134 
Q 2622 1141 2575 1159 
Q 2091 1350 1797 1350 
Q 1522 1350 1253 1231 
Q 984 1113 678 850 
L 678 1409 
Q 1006 1653 1286 1761 
Q 1566 1869 1869 1869 
Q 2213 1869 2672 1684 
Q 2706 1669 2722 1663 
Q 2741 1656 2788 1638 
Q 3272 1447 3566 1447 
Q 3834 1447 4098 1564 
Q 4363 1681 4684 1947 
z
M 4684 3163 
L 4684 2606 
Q 4356 2359 4076 2251 
Q 3797 2144 3494 2144 
Q 3150 2144 2694 2328 
Q 2663 2341 2641 2350 
Q 2622 2356 2575 2375 
Q 2091 2566 1797 2566 
Q 1522 2566 1253 2447 
Q 984 2328 678 2069 
L 678 2625 
Q 1006 2869 1286 2976 
Q 1566 3084 1869 3084 
Q 2213 3084 2672 2900 
Q 2703 2888 2719 2881 
Q 2741 2872 2788 2853 
Q 3272 2663 3566 2663 
Q 3834 2663 4098 2780 
Q 4363 2897 4684 3163 
z
" transform="scale(0.015625)"/>
      <path id="DejaVuSans-2c" d="M 750 794 
L 1409 794 
L 1409 256 
L 897 -744 
L 494 -744 
L 750 256 
L 750 794 
z
" transform="scale(0.015625)"/>
     </defs>
     <use xlink:href="#DejaVuSans-6e"/>
     <use xlink:href="#DejaVuSans-6f" x="63.378906"/>
     <use xlink:href="#DejaVuSans-6e" x="124.560547"/>
     <use xlink:href="#DejaVuSans-2d" x="187.939453"/>
     <use xlink:href="#DejaVuSans-63" x="224.023438"/>
     <use xlink:href="#DejaVuSans-6f" x="279.003906"/>
     <use xlink:href="#DejaVuSans-6e" x="340.185547"/>
     <use xlink:href="#DejaVuSans-76" x="403.564453"/>
     <use xlink:href="#DejaVuSans-65" x="462.744141"/>
     <use xlink:href="#DejaVuSans-72" x="524.267578"/>
     <use xlink:href="#DejaVuSans-67" x="563.630859"/>
     <use xlink:href="#DejaVuSans-65" x="627.107422"/>
     <use xlink:href="#DejaVuSans-64" x="688.630859"/>
     <use xlink:href="#DejaVuSans-20" x="752.107422"/>
     <use xlink:href="#DejaVuSans-63" x="783.894531"/>
     <use xlink:href="#DejaVuSans-65" x="838.875"/>
     <use xlink:href="#DejaVuSans-6c" x="900.398438"/>
     <use xlink:href="#DejaVuSans-6c" x="928.181641"/>
     <use xlink:href="#DejaVuSans-73" x="955.964844"/>
     <use xlink:href="#DejaVuSans-3a" x="1008.064453"/>
     <use xlink:href="#DejaVuSans-20" x="1041.755859"/>
     <use xlink:href="#DejaVuSans-62" x="1073.542969"/>
     <use xlink:href="#DejaVuSans-6f" x="1137.019531"/>
     <use xlink:href="#DejaVuSans-74" x="1198.201172"/>
     <use xlink:href="#DejaVuSans-68" x="1237.410156"/>
     <use xlink:href="#DejaVuSans-20" x="1300.789062"/>
     <use xlink:href="#DejaVuSans-6c" x="1332.576172"/>
     <use xlink:href="#DejaVuSans-65" x="1360.359375"/>
     <use xlink:href="#DejaVuSans-6e" x="1421.882812"/>
     <use xlink:href="#DejaVuSans-73" x="1485.261719"/>
     <use xlink:href="#DejaVuSans-65" x="1537.361328"/>
     <use xlink:href="#DejaVuSans-73" x="1598.884766"/>
     <use xlink:href="#DejaVuSans-20" x="1650.984375"/>
     <use xlink:href="#DejaVuSans-2248" x="1682.771484"/>
     <use xlink:href="#DejaVuSans-30" x="1766.560547"/>
     <use xlink:href="#DejaVuSans-2c" x="1830.183594"/>
    </g>
    <!-- no disagreement anywhere -->
    <g style="fill: #5a5a5a" transform="translate(357.10106 302.190067) scale(0.09 -0.09)">
     <defs>
      <path id="DejaVuSans-77" d="M 269 3500 
L 844 3500 
L 1563 769 
L 2278 3500 
L 2956 3500 
L 3675 769 
L 4391 3500 
L 4966 3500 
L 4050 0 
L 3372 0 
L 2619 2869 
L 1863 0 
L 1184 0 
L 269 3500 
z
" transform="scale(0.015625)"/>
     </defs>
     <use xlink:href="#DejaVuSans-6e"/>
     <use xlink:href="#DejaVuSans-6f" x="63.378906"/>
     <use xlink:href="#DejaVuSans-20" x="124.560547"/>
     <use xlink:href="#DejaVuSans-64" x="156.347656"/>
     <use xlink:href="#DejaVuSans-69" x="219.824219"/>
     <use xlink:href="#DejaVuSans-73" x="247.607422"/>
     <use xlink:href="#DejaVuSans-61" x="299.707031"/>
     <use xlink:href="#DejaVuSans-67" x="360.986328"/>
     <use xlink:href="#DejaVuSans-72" x="424.462891"/>
     <use xlink:href="#DejaVuSans-65" x="463.326172"/>
     <use xlink:href="#DejaVuSans-65" x="524.849609"/>
     <use xlink:href="#DejaVuSans-6d" x="586.373047"/>
     <use xlink:href="#DejaVuSans-65" x="683.785156"/>
     <use xlink:href="#DejaVuSans-6e" x="745.308594"/>
     <use xlink:href="#DejaVuSans-74" x="808.6875"/>
     <use xlink:href="#DejaVuSans-20" x="847.896484"/>
     <use xlink:href="#DejaVuSans-61" x="879.683594"/>
     <use xlink:href="#DejaVuSans-6e" x="940.962891"/>
     <use xlink:href="#DejaVuSans-79" x="1004.341797"/>
     <use xlink:href="#DejaVuSans-77" x="1063.521484"/>
     <use xlink:href="#DejaVuSans-68" x="1145.308594"/>
     <use xlink:href="#DejaVuSans-65" x="1208.6875"/>
     <use xlink:href="#DejaVuSans-72" x="1270.210938"/>
     <use xlink:href="#DejaVuSans-65" x="1309.074219"/>
    </g>
   </g>
   <g id="legend_1">
    <g id="patch_7">
     <path d="M 307.298672 200.358984 
L 512.288125 200.358984 
Q 513.988125 200.358984 513.988125 198.658984 
L 513.988125 162.079766 
Q 513.988125 160.379766 512.288125 160.379766 
L 307.298672 160.379766 
Q 305.598672 160.379766 305.598672 162.079766 
L 305.598672 198.658984 
Q 305.598672 200.358984 307.298672 200.358984 
z
" style="fill: #faf5e7; opacity: 0.8; stroke: #1a1a1a; stroke-linejoin: miter"/>
    </g>
    <g id="PathCollection_4">
     <g>
      <use xlink:href="#md5c433d189" x="317.498672" y="168.007187" style="fill: #d55e00; fill-opacity: 0.8; stroke: #1a1a1a; stroke-opacity: 0.8; stroke-width: 0.6"/>
     </g>
    </g>
    <g id="text_18">
     <!-- contender (Arm 3), converged (n=17) -->
     <g style="fill: #1a1a1a" transform="translate(332.798672 170.238437) scale(0.085 -0.085)">
      <defs>
       <path id="DejaVuSans-41" d="M 2188 4044 
L 1331 1722 
L 3047 1722 
L 2188 4044 
z
M 1831 4666 
L 2547 4666 
L 4325 0 
L 3669 0 
L 3244 1197 
L 1141 1197 
L 716 0 
L 50 0 
L 1831 4666 
z
" transform="scale(0.015625)"/>
       <path id="DejaVuSans-33" d="M 2597 2516 
Q 3050 2419 3304 2112 
Q 3559 1806 3559 1356 
Q 3559 666 3084 287 
Q 2609 -91 1734 -91 
Q 1441 -91 1130 -33 
Q 819 25 488 141 
L 488 750 
Q 750 597 1062 519 
Q 1375 441 1716 441 
Q 2309 441 2620 675 
Q 2931 909 2931 1356 
Q 2931 1769 2642 2001 
Q 2353 2234 1838 2234 
L 1294 2234 
L 1294 2753 
L 1863 2753 
Q 2328 2753 2575 2939 
Q 2822 3125 2822 3475 
Q 2822 3834 2567 4026 
Q 2313 4219 1838 4219 
Q 1578 4219 1281 4162 
Q 984 4106 628 3988 
L 628 4550 
Q 988 4650 1302 4700 
Q 1616 4750 1894 4750 
Q 2613 4750 3031 4423 
Q 3450 4097 3450 3541 
Q 3450 3153 3228 2886 
Q 3006 2619 2597 2516 
z
" transform="scale(0.015625)"/>
       <path id="DejaVuSans-37" d="M 525 4666 
L 3525 4666 
L 3525 4397 
L 1831 0 
L 1172 0 
L 2766 4134 
L 525 4134 
L 525 4666 
z
" transform="scale(0.015625)"/>
      </defs>
      <use xlink:href="#DejaVuSans-63"/>
      <use xlink:href="#DejaVuSans-6f" x="54.980469"/>
      <use xlink:href="#DejaVuSans-6e" x="116.162109"/>
      <use xlink:href="#DejaVuSans-74" x="179.541016"/>
      <use xlink:href="#DejaVuSans-65" x="218.75"/>
      <use xlink:href="#DejaVuSans-6e" x="280.273438"/>
      <use xlink:href="#DejaVuSans-64" x="343.652344"/>
      <use xlink:href="#DejaVuSans-65" x="407.128906"/>
      <use xlink:href="#DejaVuSans-72" x="468.652344"/>
      <use xlink:href="#DejaVuSans-20" x="509.765625"/>
      <use xlink:href="#DejaVuSans-28" x="541.552734"/>
      <use xlink:href="#DejaVuSans-41" x="580.566406"/>
      <use xlink:href="#DejaVuSans-72" x="648.974609"/>
      <use xlink:href="#DejaVuSans-6d" x="688.337891"/>
      <use xlink:href="#DejaVuSans-20" x="785.75"/>
      <use xlink:href="#DejaVuSans-33" x="817.537109"/>
      <use xlink:href="#DejaVuSans-29" x="881.160156"/>
      <use xlink:href="#DejaVuSans-2c" x="920.173828"/>
      <use xlink:href="#DejaVuSans-20" x="951.960938"/>
      <use xlink:href="#DejaVuSans-63" x="983.748047"/>
      <use xlink:href="#DejaVuSans-6f" x="1038.728516"/>
      <use xlink:href="#DejaVuSans-6e" x="1099.910156"/>
      <use xlink:href="#DejaVuSans-76" x="1163.289062"/>
      <use xlink:href="#DejaVuSans-65" x="1222.46875"/>
      <use xlink:href="#DejaVuSans-72" x="1283.992188"/>
      <use xlink:href="#DejaVuSans-67" x="1323.355469"/>
      <use xlink:href="#DejaVuSans-65" x="1386.832031"/>
      <use xlink:href="#DejaVuSans-64" x="1448.355469"/>
      <use xlink:href="#DejaVuSans-20" x="1511.832031"/>
      <use xlink:href="#DejaVuSans-28" x="1543.619141"/>
      <use xlink:href="#DejaVuSans-6e" x="1582.632812"/>
      <use xlink:href="#DejaVuSans-3d" x="1646.011719"/>
      <use xlink:href="#DejaVuSans-31" x="1729.800781"/>
      <use xlink:href="#DejaVuSans-37" x="1793.423828"/>
      <use xlink:href="#DejaVuSans-29" x="1857.046875"/>
     </g>
    </g>
    <g id="PathCollection_5">
     <g>
      <use xlink:href="#m72cdf88cb7" x="317.498672" y="180.483594" style="fill: #e69f00; fill-opacity: 0.8; stroke: #1a1a1a; stroke-opacity: 0.8; stroke-width: 0.6"/>
     </g>
    </g>
    <g id="text_19">
     <!-- contender (Arm 3), not converged (n=20) -->
     <g style="fill: #1a1a1a" transform="translate(332.798672 182.714844) scale(0.085 -0.085)">
      <use xlink:href="#DejaVuSans-63"/>
      <use xlink:href="#DejaVuSans-6f" x="54.980469"/>
      <use xlink:href="#DejaVuSans-6e" x="116.162109"/>
      <use xlink:href="#DejaVuSans-74" x="179.541016"/>
      <use xlink:href="#DejaVuSans-65" x="218.75"/>
      <use xlink:href="#DejaVuSans-6e" x="280.273438"/>
      <use xlink:href="#DejaVuSans-64" x="343.652344"/>
      <use xlink:href="#DejaVuSans-65" x="407.128906"/>
      <use xlink:href="#DejaVuSans-72" x="468.652344"/>
      <use xlink:href="#DejaVuSans-20" x="509.765625"/>
      <use xlink:href="#DejaVuSans-28" x="541.552734"/>
      <use xlink:href="#DejaVuSans-41" x="580.566406"/>
      <use xlink:href="#DejaVuSans-72" x="648.974609"/>
      <use xlink:href="#DejaVuSans-6d" x="688.337891"/>
      <use xlink:href="#DejaVuSans-20" x="785.75"/>
      <use xlink:href="#DejaVuSans-33" x="817.537109"/>
      <use xlink:href="#DejaVuSans-29" x="881.160156"/>
      <use xlink:href="#DejaVuSans-2c" x="920.173828"/>
      <use xlink:href="#DejaVuSans-20" x="951.960938"/>
      <use xlink:href="#DejaVuSans-6e" x="983.748047"/>
      <use xlink:href="#DejaVuSans-6f" x="1047.126953"/>
      <use xlink:href="#DejaVuSans-74" x="1108.308594"/>
      <use xlink:href="#DejaVuSans-20" x="1147.517578"/>
      <use xlink:href="#DejaVuSans-63" x="1179.304688"/>
      <use xlink:href="#DejaVuSans-6f" x="1234.285156"/>
      <use xlink:href="#DejaVuSans-6e" x="1295.466797"/>
      <use xlink:href="#DejaVuSans-76" x="1358.845703"/>
      <use xlink:href="#DejaVuSans-65" x="1418.025391"/>
      <use xlink:href="#DejaVuSans-72" x="1479.548828"/>
      <use xlink:href="#DejaVuSans-67" x="1518.912109"/>
      <use xlink:href="#DejaVuSans-65" x="1582.388672"/>
      <use xlink:href="#DejaVuSans-64" x="1643.912109"/>
      <use xlink:href="#DejaVuSans-20" x="1707.388672"/>
      <use xlink:href="#DejaVuSans-28" x="1739.175781"/>
      <use xlink:href="#DejaVuSans-6e" x="1778.189453"/>
      <use xlink:href="#DejaVuSans-3d" x="1841.568359"/>
      <use xlink:href="#DejaVuSans-32" x="1925.357422"/>
      <use xlink:href="#DejaVuSans-30" x="1988.980469"/>
      <use xlink:href="#DejaVuSans-29" x="2052.603516"/>
     </g>
    </g>
    <g id="PathCollection_6">
     <g>
      <use xlink:href="#m0e16a2b525" x="317.498672" y="192.96" style="fill: #0072b2; fill-opacity: 0.8; stroke: #1a1a1a; stroke-opacity: 0.8; stroke-width: 0.6"/>
     </g>
    </g>
    <g id="text_20">
     <!-- baseline (Arm 2), any loss (n=25) -->
     <g style="fill: #1a1a1a" transform="translate(332.798672 195.19125) scale(0.085 -0.085)">
      <defs>
       <path id="DejaVuSans-35" d="M 691 4666 
L 3169 4666 
L 3169 4134 
L 1269 4134 
L 1269 2991 
Q 1406 3038 1543 3061 
Q 1681 3084 1819 3084 
Q 2600 3084 3056 2656 
Q 3513 2228 3513 1497 
Q 3513 744 3044 326 
Q 2575 -91 1722 -91 
Q 1428 -91 1123 -41 
Q 819 9 494 109 
L 494 744 
Q 775 591 1075 516 
Q 1375 441 1709 441 
Q 2250 441 2565 725 
Q 2881 1009 2881 1497 
Q 2881 1984 2565 2268 
Q 2250 2553 1709 2553 
Q 1456 2553 1204 2497 
Q 953 2441 691 2322 
L 691 4666 
z
" transform="scale(0.015625)"/>
      </defs>
      <use xlink:href="#DejaVuSans-62"/>
      <use xlink:href="#DejaVuSans-61" x="63.476562"/>
      <use xlink:href="#DejaVuSans-73" x="124.755859"/>
      <use xlink:href="#DejaVuSans-65" x="176.855469"/>
      <use xlink:href="#DejaVuSans-6c" x="238.378906"/>
      <use xlink:href="#DejaVuSans-69" x="266.162109"/>
      <use xlink:href="#DejaVuSans-6e" x="293.945312"/>
      <use xlink:href="#DejaVuSans-65" x="357.324219"/>
      <use xlink:href="#DejaVuSans-20" x="418.847656"/>
      <use xlink:href="#DejaVuSans-28" x="450.634766"/>
      <use xlink:href="#DejaVuSans-41" x="489.648438"/>
      <use xlink:href="#DejaVuSans-72" x="558.056641"/>
      <use xlink:href="#DejaVuSans-6d" x="597.419922"/>
      <use xlink:href="#DejaVuSans-20" x="694.832031"/>
      <use xlink:href="#DejaVuSans-32" x="726.619141"/>
      <use xlink:href="#DejaVuSans-29" x="790.242188"/>
      <use xlink:href="#DejaVuSans-2c" x="829.255859"/>
      <use xlink:href="#DejaVuSans-20" x="861.042969"/>
      <use xlink:href="#DejaVuSans-61" x="892.830078"/>
      <use xlink:href="#DejaVuSans-6e" x="954.109375"/>
      <use xlink:href="#DejaVuSans-79" x="1017.488281"/>
      <use xlink:href="#DejaVuSans-20" x="1076.667969"/>
      <use xlink:href="#DejaVuSans-6c" x="1108.455078"/>
      <use xlink:href="#DejaVuSans-6f" x="1136.238281"/>
      <use xlink:href="#DejaVuSans-73" x="1197.419922"/>
      <use xlink:href="#DejaVuSans-73" x="1249.519531"/>
      <use xlink:href="#DejaVuSans-20" x="1301.619141"/>
      <use xlink:href="#DejaVuSans-28" x="1333.40625"/>
      <use xlink:href="#DejaVuSans-6e" x="1372.419922"/>
      <use xlink:href="#DejaVuSans-3d" x="1435.798828"/>
      <use xlink:href="#DejaVuSans-32" x="1519.587891"/>
      <use xlink:href="#DejaVuSans-35" x="1583.210938"/>
      <use xlink:href="#DejaVuSans-29" x="1646.833984"/>
     </g>
    </g>
   </g>
  </g>
 </g>
 <defs>
  <clipPath id="p2cf02de8c4">
   <rect x="48.059375" y="7.2" width="470.17875" height="346.33875"/>
  </clipPath>
 </defs>
</svg>
