<?xml version="1.0" encoding="utf-8" standalone="no"?>
<!DOCTYPE svg PUBLIC "-//W3C//DTD SVG 1.1//EN"
  "http://www.w3.org/Graphics/SVG/1.1/DTD/svg11.dtd">
<svg xmlns:xlink="http://www.w3.org/1999/xlink" width="799.361562pt" height="315.748437pt" viewBox="0 0 799.361562 315.748437" xmlns="http://www.w3.org/2000/svg" version="1.1">
 <metadata>
  <rdf:RDF xmlns:dc="http://purl.org/dc/elements/1.1/" xmlns:cc="http://creativecommons.org/ns#" xmlns:rdf="http://www.w3.org/1999/02/22-rdf-syntax-ns#">
   <cc:Work>
    <dc:type rdf:resource="http://purl.org/dc/dcmitype/StillImage"/>
    <dc:date>2026-07-10T21:55:04.313688</dc:date>
    <dc:format>image/svg+xml</dc:format>
    <dc:creator>
     <cc:Agent>
      <dc:title>Matplotlib v3.9.4, https://matplotlib.org/</dc:title>
     </cc:Agent>
    </dc:creator>
   </cc:Work>
  </rdf:RDF>
 </metadata>
 <defs>
  <style type="text/css">*{stroke-linejoin: round; stroke-linecap: butt}</style>
 </defs>
 <g id="figure_1">
  <g id="patch_1">
   <path d="M 0 315.748437 
L 799.361562 315.748437 
L 799.361562 0 
L 0 0 
z
" style="fill: #faf5e7"/>
  </g>
  <g id="axes_1">
   <g id="patch_2">
    <path d="M 45.561563 277.16 
L 394.361562 277.16 
L 394.361562 7.2 
L 45.561563 7.2 
z
" style="fill: #faf5e7"/>
   </g>
   <g id="matplotlib.axis_1">
    <g id="xtick_1">
     <g id="line2d_1">
      <path d="M 45.561563 277.16 
L 45.561563 7.2 
" clip-path="url(#pd890f6f287)" style="fill: none; stroke: #1a1a1a; stroke-opacity: 0.22; stroke-width: 0.5; stroke-linecap: square"/>
     </g>
     <g id="line2d_2">
      <defs>
       <path id="m5624b2e942" d="M 0 0 
L 0 3.5 
" style="stroke: #1a1a1a; stroke-width: 0.8"/>
      </defs>
      <g>
       <use xlink:href="#m5624b2e942" x="45.561563" y="277.16" style="fill: #1a1a1a; stroke: #1a1a1a; stroke-width: 0.8"/>
      </g>
     </g>
     <g id="text_1">
      <!-- 2 -->
      <g style="fill: #1a1a1a" transform="translate(42.380313 291.758437) scale(0.1 -0.1)">
       <defs>
        <path id="DejaVuSans-32" d="M 1228 531 
L 3431 531 
L 3431 0 
L 469 0 
L 469 531 
Q 828 903 1448 1529 
Q 2069 2156 2228 2338 
Q 2531 2678 2651 2914 
Q 2772 3150 2772 3378 
Q 2772 3750 2511 3984 
Q 2250 4219 1831 4219 
Q 1534 4219 1204 4116 
Q 875 4013 500 3803 
L 500 4441 
Q 881 4594 1212 4672 
Q 1544 4750 1819 4750 
Q 2544 4750 2975 4387 
Q 3406 4025 3406 3419 
Q 3406 3131 3298 2873 
Q 3191 2616 2906 2266 
Q 2828 2175 2409 1742 
Q 1991 1309 1228 531 
z
" transform="scale(0.015625)"/>
       </defs>
       <use xlink:href="#DejaVuSans-32"/>
      </g>
     </g>
    </g>
    <g id="xtick_2">
     <g id="line2d_3">
      <path d="M 112.371863 277.16 
L 112.371863 7.2 
" clip-path="url(#pd890f6f287)" style="fill: none; stroke: #1a1a1a; stroke-opacity: 0.22; stroke-width: 0.5; stroke-linecap: square"/>
     </g>
     <g id="line2d_4">
      <g>
       <use xlink:href="#m5624b2e942" x="112.371863" y="277.16" style="fill: #1a1a1a; stroke: #1a1a1a; stroke-width: 0.8"/>
      </g>
     </g>
     <g id="text_2">
      <!-- 4 -->
      <g style="fill: #1a1a1a" transform="translate(109.190613 291.758437) scale(0.1 -0.1)">
       <defs>
        <path id="DejaVuSans-34" d="M 2419 4116 
L 825 1625 
L 2419 1625 
L 2419 4116 
z
M 2253 4666 
L 3047 4666 
L 3047 1625 
L 3713 1625 
L 3713 1100 
L 3047 1100 
L 3047 0 
L 2419 0 
L 2419 1100 
L 313 1100 
L 313 1709 
L 2253 4666 
z
" transform="scale(0.015625)"/>
       </defs>
       <use xlink:href="#DejaVuSans-34"/>
      </g>
     </g>
    </g>
    <g id="xtick_3">
     <g id="line2d_5">
      <path d="M 179.182163 277.16 
L 179.182163 7.2 
" clip-path="url(#pd890f6f287)" style="fill: none; stroke: #1a1a1a; stroke-opacity: 0.22; stroke-width: 0.5; stroke-linecap: square"/>
     </g>
     <g id="line2d_6">
      <g>
       <use xlink:href="#m5624b2e942" x="179.182163" y="277.16" style="fill: #1a1a1a; stroke: #1a1a1a; stroke-width: 0.8"/>
      </g>
     </g>
     <g id="text_3">
      <!-- 8 -->
      <g style="fill: #1a1a1a" transform="translate(176.000913 291.758437) scale(0.1 -0.1)">
       <defs>
        <path id="DejaVuSans-38" d="M 2034 2216 
Q 1584 2216 1326 1975 
Q 1069 1734 1069 1313 
Q 1069 891 1326 650 
Q 1584 409 2034 409 
Q 2484 409 2743 651 
Q 3003 894 3003 1313 
Q 3003 1734 2745 1975 
Q 2488 2216 2034 2216 
z
M 1403 2484 
Q 997 2584 770 2862 
Q 544 3141 544 3541 
Q 544 4100 942 4425 
Q 1341 4750 2034 4750 
Q 2731 4750 3128 4425 
Q 3525 4100 3525 3541 
Q 3525 3141 3298 2862 
Q 3072 2584 2669 2484 
Q 3125 2378 3379 2068 
Q 3634 1759 3634 1313 
Q 3634 634 3220 271 
Q 2806 -91 2034 -91 
Q 1263 -91 848 271 
Q 434 634 434 1313 
Q 434 1759 690 2068 
Q 947 2378 1403 2484 
z
M 1172 3481 
Q 1172 3119 1398 2916 
Q 1625 2713 2034 2713 
Q 2441 2713 2670 2916 
Q 2900 3119 2900 3481 
Q 2900 3844 2670 4047 
Q 2441 4250 2034 4250 
Q 1625 4250 1398 4047 
Q 1172 3844 1172 3481 
z
" transform="scale(0.015625)"/>
       </defs>
       <use xlink:href="#DejaVuSans-38"/>
      </g>
     </g>
    </g>
    <g id="xtick_4">
     <g id="line2d_7">
      <path d="M 245.992463 277.16 
L 245.992463 7.2 
" clip-path="url(#pd890f6f287)" style="fill: none; stroke: #1a1a1a; stroke-opacity: 0.22; stroke-width: 0.5; stroke-linecap: square"/>
     </g>
     <g id="line2d_8">
      <g>
       <use xlink:href="#m5624b2e942" x="245.992463" y="277.16" style="fill: #1a1a1a; stroke: #1a1a1a; stroke-width: 0.8"/>
      </g>
     </g>
     <g id="text_4">
      <!-- 16 -->
      <g style="fill: #1a1a1a" transform="translate(239.629963 291.758437) scale(0.1 -0.1)">
       <defs>
        <path id="DejaVuSans-31" d="M 794 531 
L 1825 531 
L 1825 4091 
L 703 3866 
L 703 4441 
L 1819 4666 
L 2450 4666 
L 2450 531 
L 3481 531 
L 3481 0 
L 794 0 
L 794 531 
z
" transform="scale(0.015625)"/>
        <path id="DejaVuSans-36" d="M 2113 2584 
Q 1688 2584 1439 2293 
Q 1191 2003 1191 1497 
Q 1191 994 1439 701 
Q 1688 409 2113 409 
Q 2538 409 2786 701 
Q 3034 994 3034 1497 
Q 3034 2003 2786 2293 
Q 2538 2584 2113 2584 
z
M 3366 4563 
L 3366 3988 
Q 3128 4100 2886 4159 
Q 2644 4219 2406 4219 
Q 1781 4219 1451 3797 
Q 1122 3375 1075 2522 
Q 1259 2794 1537 2939 
Q 1816 3084 2150 3084 
Q 2853 3084 3261 2657 
Q 3669 2231 3669 1497 
Q 3669 778 3244 343 
Q 2819 -91 2113 -91 
Q 1303 -91 875 529 
Q 447 1150 447 2328 
Q 447 3434 972 4092 
Q 1497 4750 2381 4750 
Q 2619 4750 2861 4703 
Q 3103 4656 3366 4563 
z
" transform="scale(0.015625)"/>
       </defs>
       <use xlink:href="#DejaVuSans-31"/>
       <use xlink:href="#DejaVuSans-36" x="63.623047"/>
      </g>
     </g>
    </g>
    <g id="xtick_5">
     <g id="line2d_9">
      <path d="M 312.802763 277.16 
L 312.802763 7.2 
" clip-path="url(#pd890f6f287)" style="fill: none; stroke: #1a1a1a; stroke-opacity: 0.22; stroke-width: 0.5; stroke-linecap: square"/>
     </g>
     <g id="line2d_10">
      <g>
       <use xlink:href="#m5624b2e942" x="312.802763" y="277.16" style="fill: #1a1a1a; stroke: #1a1a1a; stroke-width: 0.8"/>
      </g>
     </g>
     <g id="text_5">
      <!-- 32 -->
      <g style="fill: #1a1a1a" transform="translate(306.440263 291.758437) scale(0.1 -0.1)">
       <defs>
        <path id="DejaVuSans-33" d="M 2597 2516 
Q 3050 2419 3304 2112 
Q 3559 1806 3559 1356 
Q 3559 666 3084 287 
Q 2609 -91 1734 -91 
Q 1441 -91 1130 -33 
Q 819 25 488 141 
L 488 750 
Q 750 597 1062 519 
Q 1375 441 1716 441 
Q 2309 441 2620 675 
Q 2931 909 2931 1356 
Q 2931 1769 2642 2001 
Q 2353 2234 1838 2234 
L 1294 2234 
L 1294 2753 
L 1863 2753 
Q 2328 2753 2575 2939 
Q 2822 3125 2822 3475 
Q 2822 3834 2567 4026 
Q 2313 4219 1838 4219 
Q 1578 4219 1281 4162 
Q 984 4106 628 3988 
L 628 4550 
Q 988 4650 1302 4700 
Q 1616 4750 1894 4750 
Q 2613 4750 3031 4423 
Q 3450 4097 3450 3541 
Q 3450 3153 3228 2886 
Q 3006 2619 2597 2516 
z
" transform="scale(0.015625)"/>
       </defs>
       <use xlink:href="#DejaVuSans-33"/>
       <use xlink:href="#DejaVuSans-32" x="63.623047"/>
      </g>
     </g>
    </g>
    <g id="xtick_6">
     <g id="line2d_11">
      <path d="M 379.613063 277.16 
L 379.613063 7.2 
" clip-path="url(#pd890f6f287)" style="fill: none; stroke: #1a1a1a; stroke-opacity: 0.22; stroke-width: 0.5; stroke-linecap: square"/>
     </g>
     <g id="line2d_12">
      <g>
       <use xlink:href="#m5624b2e942" x="379.613063" y="277.16" style="fill: #1a1a1a; stroke: #1a1a1a; stroke-width: 0.8"/>
      </g>
     </g>
     <g id="text_6">
      <!-- 64 -->
      <g style="fill: #1a1a1a" transform="translate(373.250563 291.758437) scale(0.1 -0.1)">
       <use xlink:href="#DejaVuSans-36"/>
       <use xlink:href="#DejaVuSans-34" x="63.623047"/>
      </g>
     </g>
    </g>
    <g id="text_7">
     <!-- depth D (train support: D ≤ 8; far checkpoint: D = 64, 8× train) -->
     <g style="fill: #1a1a1a" transform="translate(76.553594 306.676719) scale(0.09 -0.09)">
      <defs>
       <path id="DejaVuSans-64" d="M 2906 2969 
L 2906 4863 
L 3481 4863 
L 3481 0 
L 2906 0 
L 2906 525 
Q 2725 213 2448 61 
Q 2172 -91 1784 -91 
Q 1150 -91 751 415 
Q 353 922 353 1747 
Q 353 2572 751 3078 
Q 1150 3584 1784 3584 
Q 2172 3584 2448 3432 
Q 2725 3281 2906 2969 
z
M 947 1747 
Q 947 1113 1208 752 
Q 1469 391 1925 391 
Q 2381 391 2643 752 
Q 2906 1113 2906 1747 
Q 2906 2381 2643 2742 
Q 2381 3103 1925 3103 
Q 1469 3103 1208 2742 
Q 947 2381 947 1747 
z
" transform="scale(0.015625)"/>
       <path id="DejaVuSans-65" d="M 3597 1894 
L 3597 1613 
L 953 1613 
Q 991 1019 1311 708 
Q 1631 397 2203 397 
Q 2534 397 2845 478 
Q 3156 559 3463 722 
L 3463 178 
Q 3153 47 2828 -22 
Q 2503 -91 2169 -91 
Q 1331 -91 842 396 
Q 353 884 353 1716 
Q 353 2575 817 3079 
Q 1281 3584 2069 3584 
Q 2775 3584 3186 3129 
Q 3597 2675 3597 1894 
z
M 3022 2063 
Q 3016 2534 2758 2815 
Q 2500 3097 2075 3097 
Q 1594 3097 1305 2825 
Q 1016 2553 972 2059 
L 3022 2063 
z
" transform="scale(0.015625)"/>
       <path id="DejaVuSans-70" d="M 1159 525 
L 1159 -1331 
L 581 -1331 
L 581 3500 
L 1159 3500 
L 1159 2969 
Q 1341 3281 1617 3432 
Q 1894 3584 2278 3584 
Q 2916 3584 3314 3078 
Q 3713 2572 3713 1747 
Q 3713 922 3314 415 
Q 2916 -91 2278 -91 
Q 1894 -91 1617 61 
Q 1341 213 1159 525 
z
M 3116 1747 
Q 3116 2381 2855 2742 
Q 2594 3103 2138 3103 
Q 1681 3103 1420 2742 
Q 1159 2381 1159 1747 
Q 1159 1113 1420 752 
Q 1681 391 2138 391 
Q 2594 391 2855 752 
Q 3116 1113 3116 1747 
z
" transform="scale(0.015625)"/>
       <path id="DejaVuSans-74" d="M 1172 4494 
L 1172 3500 
L 2356 3500 
L 2356 3053 
L 1172 3053 
L 1172 1153 
Q 1172 725 1289 603 
Q 1406 481 1766 481 
L 2356 481 
L 2356 0 
L 1766 0 
Q 1100 0 847 248 
Q 594 497 594 1153 
L 594 3053 
L 172 3053 
L 172 3500 
L 594 3500 
L 594 4494 
L 1172 4494 
z
" transform="scale(0.015625)"/>
       <path id="DejaVuSans-68" d="M 3513 2113 
L 3513 0 
L 2938 0 
L 2938 2094 
Q 2938 2591 2744 2837 
Q 2550 3084 2163 3084 
Q 1697 3084 1428 2787 
Q 1159 2491 1159 1978 
L 1159 0 
L 581 0 
L 581 4863 
L 1159 4863 
L 1159 2956 
Q 1366 3272 1645 3428 
Q 1925 3584 2291 3584 
Q 2894 3584 3203 3211 
Q 3513 2838 3513 2113 
z
" transform="scale(0.015625)"/>
       <path id="DejaVuSans-20" transform="scale(0.015625)"/>
       <path id="DejaVuSans-44" d="M 1259 4147 
L 1259 519 
L 2022 519 
Q 2988 519 3436 956 
Q 3884 1394 3884 2338 
Q 3884 3275 3436 3711 
Q 2988 4147 2022 4147 
L 1259 4147 
z
M 628 4666 
L 1925 4666 
Q 3281 4666 3915 4102 
Q 4550 3538 4550 2338 
Q 4550 1131 3912 565 
Q 3275 0 1925 0 
L 628 0 
L 628 4666 
z
" transform="scale(0.015625)"/>
       <path id="DejaVuSans-28" d="M 1984 4856 
Q 1566 4138 1362 3434 
Q 1159 2731 1159 2009 
Q 1159 1288 1364 580 
Q 1569 -128 1984 -844 
L 1484 -844 
Q 1016 -109 783 600 
Q 550 1309 550 2009 
Q 550 2706 781 3412 
Q 1013 4119 1484 4856 
L 1984 4856 
z
" transform="scale(0.015625)"/>
       <path id="DejaVuSans-72" d="M 2631 2963 
Q 2534 3019 2420 3045 
Q 2306 3072 2169 3072 
Q 1681 3072 1420 2755 
Q 1159 2438 1159 1844 
L 1159 0 
L 581 0 
L 581 3500 
L 1159 3500 
L 1159 2956 
Q 1341 3275 1631 3429 
Q 1922 3584 2338 3584 
Q 2397 3584 2469 3576 
Q 2541 3569 2628 3553 
L 2631 2963 
z
" transform="scale(0.015625)"/>
       <path id="DejaVuSans-61" d="M 2194 1759 
Q 1497 1759 1228 1600 
Q 959 1441 959 1056 
Q 959 750 1161 570 
Q 1363 391 1709 391 
Q 2188 391 2477 730 
Q 2766 1069 2766 1631 
L 2766 1759 
L 2194 1759 
z
M 3341 1997 
L 3341 0 
L 2766 0 
L 2766 531 
Q 2569 213 2275 61 
Q 1981 -91 1556 -91 
Q 1019 -91 701 211 
Q 384 513 384 1019 
Q 384 1609 779 1909 
Q 1175 2209 1959 2209 
L 2766 2209 
L 2766 2266 
Q 2766 2663 2505 2880 
Q 2244 3097 1772 3097 
Q 1472 3097 1187 3025 
Q 903 2953 641 2809 
L 641 3341 
Q 956 3463 1253 3523 
Q 1550 3584 1831 3584 
Q 2591 3584 2966 3190 
Q 3341 2797 3341 1997 
z
" transform="scale(0.015625)"/>
       <path id="DejaVuSans-69" d="M 603 3500 
L 1178 3500 
L 1178 0 
L 603 0 
L 603 3500 
z
M 603 4863 
L 1178 4863 
L 1178 4134 
L 603 4134 
L 603 4863 
z
" transform="scale(0.015625)"/>
       <path id="DejaVuSans-6e" d="M 3513 2113 
L 3513 0 
L 2938 0 
L 2938 2094 
Q 2938 2591 2744 2837 
Q 2550 3084 2163 3084 
Q 1697 3084 1428 2787 
Q 1159 2491 1159 1978 
L 1159 0 
L 581 0 
L 581 3500 
L 1159 3500 
L 1159 2956 
Q 1366 3272 1645 3428 
Q 1925 3584 2291 3584 
Q 2894 3584 3203 3211 
Q 3513 2838 3513 2113 
z
" transform="scale(0.015625)"/>
       <path id="DejaVuSans-73" d="M 2834 3397 
L 2834 2853 
Q 2591 2978 2328 3040 
Q 2066 3103 1784 3103 
Q 1356 3103 1142 2972 
Q 928 2841 928 2578 
Q 928 2378 1081 2264 
Q 1234 2150 1697 2047 
L 1894 2003 
Q 2506 1872 2764 1633 
Q 3022 1394 3022 966 
Q 3022 478 2636 193 
Q 2250 -91 1575 -91 
Q 1294 -91 989 -36 
Q 684 19 347 128 
L 347 722 
Q 666 556 975 473 
Q 1284 391 1588 391 
Q 1994 391 2212 530 
Q 2431 669 2431 922 
Q 2431 1156 2273 1281 
Q 2116 1406 1581 1522 
L 1381 1569 
Q 847 1681 609 1914 
Q 372 2147 372 2553 
Q 372 3047 722 3315 
Q 1072 3584 1716 3584 
Q 2034 3584 2315 3537 
Q 2597 3491 2834 3397 
z
" transform="scale(0.015625)"/>
       <path id="DejaVuSans-75" d="M 544 1381 
L 544 3500 
L 1119 3500 
L 1119 1403 
Q 1119 906 1312 657 
Q 1506 409 1894 409 
Q 2359 409 2629 706 
Q 2900 1003 2900 1516 
L 2900 3500 
L 3475 3500 
L 3475 0 
L 2900 0 
L 2900 538 
Q 2691 219 2414 64 
Q 2138 -91 1772 -91 
Q 1169 -91 856 284 
Q 544 659 544 1381 
z
M 1991 3584 
L 1991 3584 
z
" transform="scale(0.015625)"/>
       <path id="DejaVuSans-6f" d="M 1959 3097 
Q 1497 3097 1228 2736 
Q 959 2375 959 1747 
Q 959 1119 1226 758 
Q 1494 397 1959 397 
Q 2419 397 2687 759 
Q 2956 1122 2956 1747 
Q 2956 2369 2687 2733 
Q 2419 3097 1959 3097 
z
M 1959 3584 
Q 2709 3584 3137 3096 
Q 3566 2609 3566 1747 
Q 3566 888 3137 398 
Q 2709 -91 1959 -91 
Q 1206 -91 779 398 
Q 353 888 353 1747 
Q 353 2609 779 3096 
Q 1206 3584 1959 3584 
z
" transform="scale(0.015625)"/>
       <path id="DejaVuSans-3a" d="M 750 794 
L 1409 794 
L 1409 0 
L 750 0 
L 750 794 
z
M 750 3309 
L 1409 3309 
L 1409 2516 
L 750 2516 
L 750 3309 
z
" transform="scale(0.015625)"/>
       <path id="DejaVuSans-2264" d="M 4684 3175 
L 1684 2309 
L 4684 1453 
L 4684 897 
L 678 2047 
L 678 2578 
L 4684 3725 
L 4684 3175 
z
M 678 531 
L 4684 531 
L 4684 0 
L 678 0 
L 678 531 
z
" transform="scale(0.015625)"/>
       <path id="DejaVuSans-3b" d="M 750 3309 
L 1409 3309 
L 1409 2516 
L 750 2516 
L 750 3309 
z
M 750 794 
L 1409 794 
L 1409 256 
L 897 -744 
L 494 -744 
L 750 256 
L 750 794 
z
" transform="scale(0.015625)"/>
       <path id="DejaVuSans-66" d="M 2375 4863 
L 2375 4384 
L 1825 4384 
Q 1516 4384 1395 4259 
Q 1275 4134 1275 3809 
L 1275 3500 
L 2222 3500 
L 2222 3053 
L 1275 3053 
L 1275 0 
L 697 0 
L 697 3053 
L 147 3053 
L 147 3500 
L 697 3500 
L 697 3744 
Q 697 4328 969 4595 
Q 1241 4863 1831 4863 
L 2375 4863 
z
" transform="scale(0.015625)"/>
       <path id="DejaVuSans-63" d="M 3122 3366 
L 3122 2828 
Q 2878 2963 2633 3030 
Q 2388 3097 2138 3097 
Q 1578 3097 1268 2742 
Q 959 2388 959 1747 
Q 959 1106 1268 751 
Q 1578 397 2138 397 
Q 2388 397 2633 464 
Q 2878 531 3122 666 
L 3122 134 
Q 2881 22 2623 -34 
Q 2366 -91 2075 -91 
Q 1284 -91 818 406 
Q 353 903 353 1747 
Q 353 2603 823 3093 
Q 1294 3584 2113 3584 
Q 2378 3584 2631 3529 
Q 2884 3475 3122 3366 
z
" transform="scale(0.015625)"/>
       <path id="DejaVuSans-6b" d="M 581 4863 
L 1159 4863 
L 1159 1991 
L 2875 3500 
L 3609 3500 
L 1753 1863 
L 3688 0 
L 2938 0 
L 1159 1709 
L 1159 0 
L 581 0 
L 581 4863 
z
" transform="scale(0.015625)"/>
       <path id="DejaVuSans-3d" d="M 678 2906 
L 4684 2906 
L 4684 2381 
L 678 2381 
L 678 2906 
z
M 678 1631 
L 4684 1631 
L 4684 1100 
L 678 1100 
L 678 1631 
z
" transform="scale(0.015625)"/>
       <path id="DejaVuSans-2c" d="M 750 794 
L 1409 794 
L 1409 256 
L 897 -744 
L 494 -744 
L 750 256 
L 750 794 
z
" transform="scale(0.015625)"/>
       <path id="DejaVuSans-d7" d="M 4488 3438 
L 3059 2003 
L 4488 575 
L 4116 197 
L 2681 1631 
L 1247 197 
L 878 575 
L 2303 2003 
L 878 3438 
L 1247 3816 
L 2681 2381 
L 4116 3816 
L 4488 3438 
z
" transform="scale(0.015625)"/>
       <path id="DejaVuSans-29" d="M 513 4856 
L 1013 4856 
Q 1481 4119 1714 3412 
Q 1947 2706 1947 2009 
Q 1947 1309 1714 600 
Q 1481 -109 1013 -844 
L 513 -844 
Q 928 -128 1133 580 
Q 1338 1288 1338 2009 
Q 1338 2731 1133 3434 
Q 928 4138 513 4856 
z
" transform="scale(0.015625)"/>
      </defs>
      <use xlink:href="#DejaVuSans-64"/>
      <use xlink:href="#DejaVuSans-65" x="63.476562"/>
      <use xlink:href="#DejaVuSans-70" x="125"/>
      <use xlink:href="#DejaVuSans-74" x="188.476562"/>
      <use xlink:href="#DejaVuSans-68" x="227.685547"/>
      <use xlink:href="#DejaVuSans-20" x="291.064453"/>
      <use xlink:href="#DejaVuSans-44" x="322.851562"/>
      <use xlink:href="#DejaVuSans-20" x="399.853516"/>
      <use xlink:href="#DejaVuSans-28" x="431.640625"/>
      <use xlink:href="#DejaVuSans-74" x="470.654297"/>
      <use xlink:href="#DejaVuSans-72" x="509.863281"/>
      <use xlink:href="#DejaVuSans-61" x="550.976562"/>
      <use xlink:href="#DejaVuSans-69" x="612.255859"/>
      <use xlink:href="#DejaVuSans-6e" x="640.039062"/>
      <use xlink:href="#DejaVuSans-20" x="703.417969"/>
      <use xlink:href="#DejaVuSans-73" x="735.205078"/>
      <use xlink:href="#DejaVuSans-75" x="787.304688"/>
      <use xlink:href="#DejaVuSans-70" x="850.683594"/>
      <use xlink:href="#DejaVuSans-70" x="914.160156"/>
      <use xlink:href="#DejaVuSans-6f" x="977.636719"/>
      <use xlink:href="#DejaVuSans-72" x="1038.818359"/>
      <use xlink:href="#DejaVuSans-74" x="1079.931641"/>
      <use xlink:href="#DejaVuSans-3a" x="1119.140625"/>
      <use xlink:href="#DejaVuSans-20" x="1152.832031"/>
      <use xlink:href="#DejaVuSans-44" x="1184.619141"/>
      <use xlink:href="#DejaVuSans-20" x="1261.621094"/>
      <use xlink:href="#DejaVuSans-2264" x="1293.408203"/>
      <use xlink:href="#DejaVuSans-20" x="1377.197266"/>
      <use xlink:href="#DejaVuSans-38" x="1408.984375"/>
      <use xlink:href="#DejaVuSans-3b" x="1472.607422"/>
      <use xlink:href="#DejaVuSans-20" x="1506.298828"/>
      <use xlink:href="#DejaVuSans-66" x="1538.085938"/>
      <use xlink:href="#DejaVuSans-61" x="1573.291016"/>
      <use xlink:href="#DejaVuSans-72" x="1634.570312"/>
      <use xlink:href="#DejaVuSans-20" x="1675.683594"/>
      <use xlink:href="#DejaVuSans-63" x="1707.470703"/>
      <use xlink:href="#DejaVuSans-68" x="1762.451172"/>
      <use xlink:href="#DejaVuSans-65" x="1825.830078"/>
      <use xlink:href="#DejaVuSans-63" x="1887.353516"/>
      <use xlink:href="#DejaVuSans-6b" x="1942.333984"/>
      <use xlink:href="#DejaVuSans-70" x="2000.244141"/>
      <use xlink:href="#DejaVuSans-6f" x="2063.720703"/>
      <use xlink:href="#DejaVuSans-69" x="2124.902344"/>
      <use xlink:href="#DejaVuSans-6e" x="2152.685547"/>
      <use xlink:href="#DejaVuSans-74" x="2216.064453"/>
      <use xlink:href="#DejaVuSans-3a" x="2255.273438"/>
      <use xlink:href="#DejaVuSans-20" x="2288.964844"/>
      <use xlink:href="#DejaVuSans-44" x="2320.751953"/>
      <use xlink:href="#DejaVuSans-20" x="2397.753906"/>
      <use xlink:href="#DejaVuSans-3d" x="2429.541016"/>
      <use xlink:href="#DejaVuSans-20" x="2513.330078"/>
      <use xlink:href="#DejaVuSans-36" x="2545.117188"/>
      <use xlink:href="#DejaVuSans-34" x="2608.740234"/>
      <use xlink:href="#DejaVuSans-2c" x="2672.363281"/>
      <use xlink:href="#DejaVuSans-20" x="2704.150391"/>
      <use xlink:href="#DejaVuSans-38" x="2735.9375"/>
      <use xlink:href="#DejaVuSans-d7" x="2799.560547"/>
      <use xlink:href="#DejaVuSans-20" x="2883.349609"/>
      <use xlink:href="#DejaVuSans-74" x="2915.136719"/>
      <use xlink:href="#DejaVuSans-72" x="2954.345703"/>
      <use xlink:href="#DejaVuSans-61" x="2995.458984"/>
      <use xlink:href="#DejaVuSans-69" x="3056.738281"/>
      <use xlink:href="#DejaVuSans-6e" x="3084.521484"/>
      <use xlink:href="#DejaVuSans-29" x="3147.900391"/>
     </g>
    </g>
   </g>
   <g id="matplotlib.axis_2">
    <g id="ytick_1">
     <g id="line2d_13">
      <path d="M 45.561563 265.214867 
L 394.361562 265.214867 
" clip-path="url(#pd890f6f287)" style="fill: none; stroke: #1a1a1a; stroke-opacity: 0.22; stroke-width: 0.5; stroke-linecap: square"/>
     </g>
     <g id="line2d_14">
      <defs>
       <path id="me992ba1d1f" d="M 0 0 
L -3.5 0 
" style="stroke: #1a1a1a; stroke-width: 0.8"/>
      </defs>
      <g>
       <use xlink:href="#me992ba1d1f" x="45.561563" y="265.214867" style="fill: #1a1a1a; stroke: #1a1a1a; stroke-width: 0.8"/>
      </g>
     </g>
     <g id="text_8">
      <!-- 0.0 -->
      <g style="fill: #1a1a1a" transform="translate(22.658438 269.014086) scale(0.1 -0.1)">
       <defs>
        <path id="DejaVuSans-30" d="M 2034 4250 
Q 1547 4250 1301 3770 
Q 1056 3291 1056 2328 
Q 1056 1369 1301 889 
Q 1547 409 2034 409 
Q 2525 409 2770 889 
Q 3016 1369 3016 2328 
Q 3016 3291 2770 3770 
Q 2525 4250 2034 4250 
z
M 2034 4750 
Q 2819 4750 3233 4129 
Q 3647 3509 3647 2328 
Q 3647 1150 3233 529 
Q 2819 -91 2034 -91 
Q 1250 -91 836 529 
Q 422 1150 422 2328 
Q 422 3509 836 4129 
Q 1250 4750 2034 4750 
z
" transform="scale(0.015625)"/>
        <path id="DejaVuSans-2e" d="M 684 794 
L 1344 794 
L 1344 0 
L 684 0 
L 684 794 
z
" transform="scale(0.015625)"/>
       </defs>
       <use xlink:href="#DejaVuSans-30"/>
       <use xlink:href="#DejaVuSans-2e" x="63.623047"/>
       <use xlink:href="#DejaVuSans-30" x="95.410156"/>
      </g>
     </g>
    </g>
    <g id="ytick_2">
     <g id="line2d_15">
      <path d="M 45.561563 217.434336 
L 394.361562 217.434336 
" clip-path="url(#pd890f6f287)" style="fill: none; stroke: #1a1a1a; stroke-opacity: 0.22; stroke-width: 0.5; stroke-linecap: square"/>
     </g>
     <g id="line2d_16">
      <g>
       <use xlink:href="#me992ba1d1f" x="45.561563" y="217.434336" style="fill: #1a1a1a; stroke: #1a1a1a; stroke-width: 0.8"/>
      </g>
     </g>
     <g id="text_9">
      <!-- 0.2 -->
      <g style="fill: #1a1a1a" transform="translate(22.658438 221.233555) scale(0.1 -0.1)">
       <use xlink:href="#DejaVuSans-30"/>
       <use xlink:href="#DejaVuSans-2e" x="63.623047"/>
       <use xlink:href="#DejaVuSans-32" x="95.410156"/>
      </g>
     </g>
    </g>
    <g id="ytick_3">
     <g id="line2d_17">
      <path d="M 45.561563 169.653805 
L 394.361562 169.653805 
" clip-path="url(#pd890f6f287)" style="fill: none; stroke: #1a1a1a; stroke-opacity: 0.22; stroke-width: 0.5; stroke-linecap: square"/>
     </g>
     <g id="line2d_18">
      <g>
       <use xlink:href="#me992ba1d1f" x="45.561563" y="169.653805" style="fill: #1a1a1a; stroke: #1a1a1a; stroke-width: 0.8"/>
      </g>
     </g>
     <g id="text_10">
      <!-- 0.4 -->
      <g style="fill: #1a1a1a" transform="translate(22.658438 173.453024) scale(0.1 -0.1)">
       <use xlink:href="#DejaVuSans-30"/>
       <use xlink:href="#DejaVuSans-2e" x="63.623047"/>
       <use xlink:href="#DejaVuSans-34" x="95.410156"/>
      </g>
     </g>
    </g>
    <g id="ytick_4">
     <g id="line2d_19">
      <path d="M 45.561563 121.873274 
L 394.361562 121.873274 
" clip-path="url(#pd890f6f287)" style="fill: none; stroke: #1a1a1a; stroke-opacity: 0.22; stroke-width: 0.5; stroke-linecap: square"/>
     </g>
     <g id="line2d_20">
      <g>
       <use xlink:href="#me992ba1d1f" x="45.561563" y="121.873274" style="fill: #1a1a1a; stroke: #1a1a1a; stroke-width: 0.8"/>
      </g>
     </g>
     <g id="text_11">
      <!-- 0.6 -->
      <g style="fill: #1a1a1a" transform="translate(22.658438 125.672493) scale(0.1 -0.1)">
       <use xlink:href="#DejaVuSans-30"/>
       <use xlink:href="#DejaVuSans-2e" x="63.623047"/>
       <use xlink:href="#DejaVuSans-36" x="95.410156"/>
      </g>
     </g>
    </g>
    <g id="ytick_5">
     <g id="line2d_21">
      <path d="M 45.561563 74.092743 
L 394.361562 74.092743 
" clip-path="url(#pd890f6f287)" style="fill: none; stroke: #1a1a1a; stroke-opacity: 0.22; stroke-width: 0.5; stroke-linecap: square"/>
     </g>
     <g id="line2d_22">
      <g>
       <use xlink:href="#me992ba1d1f" x="45.561563" y="74.092743" style="fill: #1a1a1a; stroke: #1a1a1a; stroke-width: 0.8"/>
      </g>
     </g>
     <g id="text_12">
      <!-- 0.8 -->
      <g style="fill: #1a1a1a" transform="translate(22.658438 77.891962) scale(0.1 -0.1)">
       <use xlink:href="#DejaVuSans-30"/>
       <use xlink:href="#DejaVuSans-2e" x="63.623047"/>
       <use xlink:href="#DejaVuSans-38" x="95.410156"/>
      </g>
     </g>
    </g>
    <g id="ytick_6">
     <g id="line2d_23">
      <path d="M 45.561563 26.312212 
L 394.361562 26.312212 
" clip-path="url(#pd890f6f287)" style="fill: none; stroke: #1a1a1a; stroke-opacity: 0.22; stroke-width: 0.5; stroke-linecap: square"/>
     </g>
     <g id="line2d_24">
      <g>
       <use xlink:href="#me992ba1d1f" x="45.561563" y="26.312212" style="fill: #1a1a1a; stroke: #1a1a1a; stroke-width: 0.8"/>
      </g>
     </g>
     <g id="text_13">
      <!-- 1.0 -->
      <g style="fill: #1a1a1a" transform="translate(22.658438 30.111431) scale(0.1 -0.1)">
       <use xlink:href="#DejaVuSans-31"/>
       <use xlink:href="#DejaVuSans-2e" x="63.623047"/>
       <use xlink:href="#DejaVuSans-30" x="95.410156"/>
      </g>
     </g>
    </g>
    <g id="text_14">
     <!-- crosscheck recovered_frac@0.9 (mean ± 1σ) -->
     <g style="fill: #1a1a1a" transform="translate(14.418516 249.259844) rotate(-90) scale(0.095 -0.095)">
      <defs>
       <path id="DejaVuSans-76" d="M 191 3500 
L 800 3500 
L 1894 563 
L 2988 3500 
L 3597 3500 
L 2284 0 
L 1503 0 
L 191 3500 
z
" transform="scale(0.015625)"/>
       <path id="DejaVuSans-5f" d="M 3263 -1063 
L 3263 -1509 
L -63 -1509 
L -63 -1063 
L 3263 -1063 
z
" transform="scale(0.015625)"/>
       <path id="DejaVuSans-40" d="M 2381 1678 
Q 2381 1231 2603 976 
Q 2825 722 3213 722 
Q 3597 722 3817 978 
Q 4038 1234 4038 1678 
Q 4038 2116 3813 2373 
Q 3588 2631 3206 2631 
Q 2828 2631 2604 2375 
Q 2381 2119 2381 1678 
z
M 4084 744 
Q 3897 503 3655 389 
Q 3413 275 3091 275 
Q 2553 275 2217 664 
Q 1881 1053 1881 1678 
Q 1881 2303 2218 2693 
Q 2556 3084 3091 3084 
Q 3413 3084 3656 2967 
Q 3900 2850 4084 2613 
L 4084 3022 
L 4531 3022 
L 4531 722 
Q 4988 791 5245 1139 
Q 5503 1488 5503 2041 
Q 5503 2375 5404 2669 
Q 5306 2963 5106 3213 
Q 4781 3622 4314 3839 
Q 3847 4056 3297 4056 
Q 2913 4056 2559 3954 
Q 2206 3853 1906 3653 
Q 1416 3334 1139 2817 
Q 863 2300 863 1697 
Q 863 1200 1042 765 
Q 1222 331 1563 0 
Q 1891 -325 2322 -495 
Q 2753 -666 3244 -666 
Q 3647 -666 4036 -530 
Q 4425 -394 4750 -141 
L 5031 -488 
Q 4641 -791 4180 -952 
Q 3719 -1113 3244 -1113 
Q 2666 -1113 2153 -908 
Q 1641 -703 1241 -313 
Q 841 78 631 592 
Q 422 1106 422 1697 
Q 422 2266 634 2781 
Q 847 3297 1241 3688 
Q 1644 4084 2172 4295 
Q 2700 4506 3291 4506 
Q 3953 4506 4520 4234 
Q 5088 3963 5472 3463 
Q 5706 3156 5829 2797 
Q 5953 2438 5953 2053 
Q 5953 1231 5456 756 
Q 4959 281 4084 263 
L 4084 744 
z
" transform="scale(0.015625)"/>
       <path id="DejaVuSans-39" d="M 703 97 
L 703 672 
Q 941 559 1184 500 
Q 1428 441 1663 441 
Q 2288 441 2617 861 
Q 2947 1281 2994 2138 
Q 2813 1869 2534 1725 
Q 2256 1581 1919 1581 
Q 1219 1581 811 2004 
Q 403 2428 403 3163 
Q 403 3881 828 4315 
Q 1253 4750 1959 4750 
Q 2769 4750 3195 4129 
Q 3622 3509 3622 2328 
Q 3622 1225 3098 567 
Q 2575 -91 1691 -91 
Q 1453 -91 1209 -44 
Q 966 3 703 97 
z
M 1959 2075 
Q 2384 2075 2632 2365 
Q 2881 2656 2881 3163 
Q 2881 3666 2632 3958 
Q 2384 4250 1959 4250 
Q 1534 4250 1286 3958 
Q 1038 3666 1038 3163 
Q 1038 2656 1286 2365 
Q 1534 2075 1959 2075 
z
" transform="scale(0.015625)"/>
       <path id="DejaVuSans-6d" d="M 3328 2828 
Q 3544 3216 3844 3400 
Q 4144 3584 4550 3584 
Q 5097 3584 5394 3201 
Q 5691 2819 5691 2113 
L 5691 0 
L 5113 0 
L 5113 2094 
Q 5113 2597 4934 2840 
Q 4756 3084 4391 3084 
Q 3944 3084 3684 2787 
Q 3425 2491 3425 1978 
L 3425 0 
L 2847 0 
L 2847 2094 
Q 2847 2600 2669 2842 
Q 2491 3084 2119 3084 
Q 1678 3084 1418 2786 
Q 1159 2488 1159 1978 
L 1159 0 
L 581 0 
L 581 3500 
L 1159 3500 
L 1159 2956 
Q 1356 3278 1631 3431 
Q 1906 3584 2284 3584 
Q 2666 3584 2933 3390 
Q 3200 3197 3328 2828 
z
" transform="scale(0.015625)"/>
       <path id="DejaVuSans-b1" d="M 2944 4013 
L 2944 2803 
L 4684 2803 
L 4684 2272 
L 2944 2272 
L 2944 1063 
L 2419 1063 
L 2419 2272 
L 678 2272 
L 678 2803 
L 2419 2803 
L 2419 4013 
L 2944 4013 
z
M 678 531 
L 4684 531 
L 4684 0 
L 678 0 
L 678 531 
z
" transform="scale(0.015625)"/>
       <path id="DejaVuSans-3c3" d="M 1959 3044 
Q 1484 3044 1228 2700 
Q 959 2341 959 1747 
Q 959 1119 1226 758 
Q 1494 397 1959 397 
Q 2419 397 2687 759 
Q 2956 1122 2956 1747 
Q 2956 2319 2688 2700 
Q 2441 3044 1959 3044 
z
M 1959 3500 
L 3869 3500 
L 3869 2925 
L 3225 2925 
Q 3566 2438 3566 1747 
Q 3566 888 3138 400 
Q 2709 -91 1959 -91 
Q 1206 -91 781 400 
Q 353 888 353 1747 
Q 353 2613 781 3097 
Q 1134 3500 1959 3500 
z
" transform="scale(0.015625)"/>
      </defs>
      <use xlink:href="#DejaVuSans-63"/>
      <use xlink:href="#DejaVuSans-72" x="54.980469"/>
      <use xlink:href="#DejaVuSans-6f" x="93.84375"/>
      <use xlink:href="#DejaVuSans-73" x="155.025391"/>
      <use xlink:href="#DejaVuSans-73" x="207.125"/>
      <use xlink:href="#DejaVuSans-63" x="259.224609"/>
      <use xlink:href="#DejaVuSans-68" x="314.205078"/>
      <use xlink:href="#DejaVuSans-65" x="377.583984"/>
      <use xlink:href="#DejaVuSans-63" x="439.107422"/>
      <use xlink:href="#DejaVuSans-6b" x="494.087891"/>
      <use xlink:href="#DejaVuSans-20" x="551.998047"/>
      <use xlink:href="#DejaVuSans-72" x="583.785156"/>
      <use xlink:href="#DejaVuSans-65" x="622.648438"/>
      <use xlink:href="#DejaVuSans-63" x="684.171875"/>
      <use xlink:href="#DejaVuSans-6f" x="739.152344"/>
      <use xlink:href="#DejaVuSans-76" x="800.333984"/>
      <use xlink:href="#DejaVuSans-65" x="859.513672"/>
      <use xlink:href="#DejaVuSans-72" x="921.037109"/>
      <use xlink:href="#DejaVuSans-65" x="959.900391"/>
      <use xlink:href="#DejaVuSans-64" x="1021.423828"/>
      <use xlink:href="#DejaVuSans-5f" x="1084.900391"/>
      <use xlink:href="#DejaVuSans-66" x="1134.900391"/>
      <use xlink:href="#DejaVuSans-72" x="1170.105469"/>
      <use xlink:href="#DejaVuSans-61" x="1211.21875"/>
      <use xlink:href="#DejaVuSans-63" x="1272.498047"/>
      <use xlink:href="#DejaVuSans-40" x="1327.478516"/>
      <use xlink:href="#DejaVuSans-30" x="1427.478516"/>
      <use xlink:href="#DejaVuSans-2e" x="1491.101562"/>
      <use xlink:href="#DejaVuSans-39" x="1522.888672"/>
      <use xlink:href="#DejaVuSans-20" x="1586.511719"/>
      <use xlink:href="#DejaVuSans-28" x="1618.298828"/>
      <use xlink:href="#DejaVuSans-6d" x="1657.3125"/>
      <use xlink:href="#DejaVuSans-65" x="1754.724609"/>
      <use xlink:href="#DejaVuSans-61" x="1816.248047"/>
      <use xlink:href="#DejaVuSans-6e" x="1877.527344"/>
      <use xlink:href="#DejaVuSans-20" x="1940.90625"/>
      <use xlink:href="#DejaVuSans-b1" x="1972.693359"/>
      <use xlink:href="#DejaVuSans-20" x="2056.482422"/>
      <use xlink:href="#DejaVuSans-31" x="2088.269531"/>
      <use xlink:href="#DejaVuSans-3c3" x="2151.892578"/>
      <use xlink:href="#DejaVuSans-29" x="2215.271484"/>
     </g>
    </g>
   </g>
   <g id="PolyCollection_1">
    <defs>
     <path id="m82e58c7d50" d="M 84.643083 -289.436225 
L 84.643083 -289.436225 
L 112.371863 -289.436225 
L 133.879975 -289.436225 
L 151.453383 -289.436225 
L 166.311487 -289.436225 
L 179.182163 -289.436225 
L 190.534903 -289.436225 
L 200.690276 -289.436225 
L 218.263683 -289.436225 
L 233.121788 -289.436225 
L 245.992463 -280.477376 
L 267.500576 -280.477376 
L 285.073983 -276.567133 
L 312.802763 -262.559676 
L 351.884284 -223.692779 
L 379.613063 -215.932691 
L 379.613063 -289.436225 
L 379.613063 -289.436225 
L 351.884284 -289.436225 
L 312.802763 -289.436225 
L 285.073983 -289.436225 
L 267.500576 -289.436225 
L 245.992463 -289.436225 
L 233.121788 -289.436225 
L 218.263683 -289.436225 
L 200.690276 -289.436225 
L 190.534903 -289.436225 
L 179.182163 -289.436225 
L 166.311487 -289.436225 
L 151.453383 -289.436225 
L 133.879975 -289.436225 
L 112.371863 -289.436225 
L 84.643083 -289.436225 
z
" style="stroke: #009e73; stroke-opacity: 0.15"/>
    </defs>
    <g clip-path="url(#pd890f6f287)">
     <use xlink:href="#m82e58c7d50" x="0" y="315.748437" style="fill: #009e73; fill-opacity: 0.15; stroke: #009e73; stroke-opacity: 0.15"/>
    </g>
   </g>
   <g id="PolyCollection_2">
    <defs>
     <path id="mb29a3cdb82" d="M 84.643083 -289.436225 
L 84.643083 -289.436225 
L 112.371863 -277.491092 
L 133.879975 -265.54596 
L 151.453383 -193.875163 
L 166.311487 -134.149499 
L 179.182163 -158.039765 
L 190.534903 -181.93003 
L 200.690276 -122.204367 
L 218.263683 -98.314101 
L 233.121788 -86.368968 
L 245.992463 -50.53357 
L 267.500576 -62.478703 
L 285.073983 -50.53357 
L 312.802763 -50.53357 
L 351.884284 -50.53357 
L 379.613063 -50.53357 
L 379.613063 -50.53357 
L 379.613063 -50.53357 
L 351.884284 -50.53357 
L 312.802763 -50.53357 
L 285.073983 -50.53357 
L 267.500576 -62.478703 
L 245.992463 -50.53357 
L 233.121788 -86.368968 
L 218.263683 -98.314101 
L 200.690276 -122.204367 
L 190.534903 -181.93003 
L 179.182163 -158.039765 
L 166.311487 -134.149499 
L 151.453383 -193.875163 
L 133.879975 -265.54596 
L 112.371863 -277.491092 
L 84.643083 -289.436225 
z
" style="stroke: #cc79a7; stroke-opacity: 0.15"/>
    </defs>
    <g clip-path="url(#pd890f6f287)">
     <use xlink:href="#mb29a3cdb82" x="0" y="315.748437" style="fill: #cc79a7; fill-opacity: 0.15; stroke: #cc79a7; stroke-opacity: 0.15"/>
    </g>
   </g>
   <g id="line2d_25">
    <path d="M 185.025582 277.16 
L 185.025582 7.2 
" clip-path="url(#pd890f6f287)" style="fill: none; stroke-dasharray: 0.8,1.32; stroke-dashoffset: 0; stroke: #1a1a1a; stroke-opacity: 0.6; stroke-width: 0.8"/>
   </g>
   <g id="patch_3">
    <path d="M 45.561563 277.16 
L 45.561563 7.2 
" style="fill: none; stroke: #1a1a1a; stroke-linejoin: miter; stroke-linecap: square"/>
   </g>
   <g id="patch_4">
    <path d="M 394.361562 277.16 
L 394.361562 7.2 
" style="fill: none; stroke: #1a1a1a; stroke-linejoin: miter; stroke-linecap: square"/>
   </g>
   <g id="patch_5">
    <path d="M 45.561563 277.16 
L 394.361562 277.16 
" style="fill: none; stroke: #1a1a1a; stroke-linejoin: miter; stroke-linecap: square"/>
   </g>
   <g id="patch_6">
    <path d="M 45.561563 7.2 
L 394.361562 7.2 
" style="fill: none; stroke: #1a1a1a; stroke-linejoin: miter; stroke-linecap: square"/>
   </g>
   <g id="line2d_26">
    <path d="M 84.643083 26.312212 
L 112.371863 26.312212 
L 133.879975 26.312212 
L 151.453383 26.312212 
L 166.311487 26.312212 
L 179.182163 26.312212 
L 190.534903 26.312212 
L 200.690276 26.312212 
L 218.263683 26.312212 
L 233.121788 26.312212 
L 245.992463 29.298496 
L 267.500576 29.298496 
L 285.073983 32.284779 
L 312.802763 35.271062 
L 351.884284 59.161327 
L 379.613063 59.161327 
" clip-path="url(#pd890f6f287)" style="fill: none; stroke: #009e73; stroke-width: 1.8; stroke-linecap: square"/>
    <defs>
     <path id="md8f3c96ef3" d="M 0 2.25 
C 0.596707 2.25 1.169055 2.012926 1.59099 1.59099 
C 2.012926 1.169055 2.25 0.596707 2.25 0 
C 2.25 -0.596707 2.012926 -1.169055 1.59099 -1.59099 
C 1.169055 -2.012926 0.596707 -2.25 0 -2.25 
C -0.596707 -2.25 -1.169055 -2.012926 -1.59099 -1.59099 
C -2.012926 -1.169055 -2.25 -0.596707 -2.25 0 
C -2.25 0.596707 -2.012926 1.169055 -1.59099 1.59099 
C -1.169055 2.012926 -0.596707 2.25 0 2.25 
z
" style="stroke: #009e73"/>
    </defs>
    <g clip-path="url(#pd890f6f287)">
     <use xlink:href="#md8f3c96ef3" x="84.643083" y="26.312212" style="fill: #009e73; stroke: #009e73"/>
     <use xlink:href="#md8f3c96ef3" x="112.371863" y="26.312212" style="fill: #009e73; stroke: #009e73"/>
     <use xlink:href="#md8f3c96ef3" x="133.879975" y="26.312212" style="fill: #009e73; stroke: #009e73"/>
     <use xlink:href="#md8f3c96ef3" x="151.453383" y="26.312212" style="fill: #009e73; stroke: #009e73"/>
     <use xlink:href="#md8f3c96ef3" x="166.311487" y="26.312212" style="fill: #009e73; stroke: #009e73"/>
     <use xlink:href="#md8f3c96ef3" x="179.182163" y="26.312212" style="fill: #009e73; stroke: #009e73"/>
     <use xlink:href="#md8f3c96ef3" x="190.534903" y="26.312212" style="fill: #009e73; stroke: #009e73"/>
     <use xlink:href="#md8f3c96ef3" x="200.690276" y="26.312212" style="fill: #009e73; stroke: #009e73"/>
     <use xlink:href="#md8f3c96ef3" x="218.263683" y="26.312212" style="fill: #009e73; stroke: #009e73"/>
     <use xlink:href="#md8f3c96ef3" x="233.121788" y="26.312212" style="fill: #009e73; stroke: #009e73"/>
     <use xlink:href="#md8f3c96ef3" x="245.992463" y="29.298496" style="fill: #009e73; stroke: #009e73"/>
     <use xlink:href="#md8f3c96ef3" x="267.500576" y="29.298496" style="fill: #009e73; stroke: #009e73"/>
     <use xlink:href="#md8f3c96ef3" x="285.073983" y="32.284779" style="fill: #009e73; stroke: #009e73"/>
     <use xlink:href="#md8f3c96ef3" x="312.802763" y="35.271062" style="fill: #009e73; stroke: #009e73"/>
     <use xlink:href="#md8f3c96ef3" x="351.884284" y="59.161327" style="fill: #009e73; stroke: #009e73"/>
     <use xlink:href="#md8f3c96ef3" x="379.613063" y="59.161327" style="fill: #009e73; stroke: #009e73"/>
    </g>
   </g>
   <g id="line2d_27">
    <path d="M 84.643083 26.312212 
L 112.371863 38.257345 
L 133.879975 50.202478 
L 151.453383 121.873274 
L 166.311487 181.598938 
L 179.182163 157.708673 
L 190.534903 133.818407 
L 200.690276 193.544071 
L 218.263683 217.434336 
L 233.121788 229.379469 
L 245.992463 265.214867 
L 267.500576 253.269735 
L 285.073983 265.214867 
L 312.802763 265.214867 
L 351.884284 265.214867 
L 379.613063 265.214867 
" clip-path="url(#pd890f6f287)" style="fill: none; stroke: #cc79a7; stroke-width: 1.8; stroke-linecap: square"/>
    <defs>
     <path id="m9c5b223adc" d="M -0 3.181981 
L 3.181981 0 
L 0 -3.181981 
L -3.181981 -0 
z
" style="stroke: #cc79a7; stroke-linejoin: miter"/>
    </defs>
    <g clip-path="url(#pd890f6f287)">
     <use xlink:href="#m9c5b223adc" x="84.643083" y="26.312212" style="fill: #cc79a7; stroke: #cc79a7; stroke-linejoin: miter"/>
     <use xlink:href="#m9c5b223adc" x="112.371863" y="38.257345" style="fill: #cc79a7; stroke: #cc79a7; stroke-linejoin: miter"/>
     <use xlink:href="#m9c5b223adc" x="133.879975" y="50.202478" style="fill: #cc79a7; stroke: #cc79a7; stroke-linejoin: miter"/>
     <use xlink:href="#m9c5b223adc" x="151.453383" y="121.873274" style="fill: #cc79a7; stroke: #cc79a7; stroke-linejoin: miter"/>
     <use xlink:href="#m9c5b223adc" x="166.311487" y="181.598938" style="fill: #cc79a7; stroke: #cc79a7; stroke-linejoin: miter"/>
     <use xlink:href="#m9c5b223adc" x="179.182163" y="157.708673" style="fill: #cc79a7; stroke: #cc79a7; stroke-linejoin: miter"/>
     <use xlink:href="#m9c5b223adc" x="190.534903" y="133.818407" style="fill: #cc79a7; stroke: #cc79a7; stroke-linejoin: miter"/>
     <use xlink:href="#m9c5b223adc" x="200.690276" y="193.544071" style="fill: #cc79a7; stroke: #cc79a7; stroke-linejoin: miter"/>
     <use xlink:href="#m9c5b223adc" x="218.263683" y="217.434336" style="fill: #cc79a7; stroke: #cc79a7; stroke-linejoin: miter"/>
     <use xlink:href="#m9c5b223adc" x="233.121788" y="229.379469" style="fill: #cc79a7; stroke: #cc79a7; stroke-linejoin: miter"/>
     <use xlink:href="#m9c5b223adc" x="245.992463" y="265.214867" style="fill: #cc79a7; stroke: #cc79a7; stroke-linejoin: miter"/>
     <use xlink:href="#m9c5b223adc" x="267.500576" y="253.269735" style="fill: #cc79a7; stroke: #cc79a7; stroke-linejoin: miter"/>
     <use xlink:href="#m9c5b223adc" x="285.073983" y="265.214867" style="fill: #cc79a7; stroke: #cc79a7; stroke-linejoin: miter"/>
     <use xlink:href="#m9c5b223adc" x="312.802763" y="265.214867" style="fill: #cc79a7; stroke: #cc79a7; stroke-linejoin: miter"/>
     <use xlink:href="#m9c5b223adc" x="351.884284" y="265.214867" style="fill: #cc79a7; stroke: #cc79a7; stroke-linejoin: miter"/>
     <use xlink:href="#m9c5b223adc" x="379.613063" y="265.214867" style="fill: #cc79a7; stroke: #cc79a7; stroke-linejoin: miter"/>
    </g>
   </g>
   <g id="text_15">
    <!-- train support ends -->
    <g style="fill: #5a5a5a" transform="translate(179.412917 263.907008) rotate(-90) scale(0.075 -0.075)">
     <use xlink:href="#DejaVuSans-74"/>
     <use xlink:href="#DejaVuSans-72" x="39.208984"/>
     <use xlink:href="#DejaVuSans-61" x="80.322266"/>
     <use xlink:href="#DejaVuSans-69" x="141.601562"/>
     <use xlink:href="#DejaVuSans-6e" x="169.384766"/>
     <use xlink:href="#DejaVuSans-20" x="232.763672"/>
     <use xlink:href="#DejaVuSans-73" x="264.550781"/>
     <use xlink:href="#DejaVuSans-75" x="316.650391"/>
     <use xlink:href="#DejaVuSans-70" x="380.029297"/>
     <use xlink:href="#DejaVuSans-70" x="443.505859"/>
     <use xlink:href="#DejaVuSans-6f" x="506.982422"/>
     <use xlink:href="#DejaVuSans-72" x="568.164062"/>
     <use xlink:href="#DejaVuSans-74" x="609.277344"/>
     <use xlink:href="#DejaVuSans-20" x="648.486328"/>
     <use xlink:href="#DejaVuSans-65" x="680.273438"/>
     <use xlink:href="#DejaVuSans-6e" x="741.796875"/>
     <use xlink:href="#DejaVuSans-64" x="805.175781"/>
     <use xlink:href="#DejaVuSans-73" x="868.652344"/>
    </g>
   </g>
   <g id="legend_1">
    <g id="patch_7">
     <path d="M 114.780039 272.91 
L 325.143086 272.91 
Q 326.843086 272.91 326.843086 271.21 
L 326.843086 247.107187 
Q 326.843086 245.407187 325.143086 245.407187 
L 114.780039 245.407187 
Q 113.080039 245.407187 113.080039 247.107187 
L 113.080039 271.21 
Q 113.080039 272.91 114.780039 272.91 
z
" style="fill: #faf5e7; opacity: 0.8; stroke: #1a1a1a; stroke-linejoin: miter"/>
    </g>
    <g id="line2d_28">
     <path d="M 116.480039 252.290859 
L 124.980039 252.290859 
L 133.480039 252.290859 
" style="fill: none; stroke: #009e73; stroke-width: 1.8; stroke-linecap: square"/>
     <g>
      <use xlink:href="#md8f3c96ef3" x="124.980039" y="252.290859" style="fill: #009e73; stroke: #009e73"/>
     </g>
    </g>
    <g id="text_16">
     <!-- seeds {0,2,3,4} (healthy, loss 1e-3-1.2e-2) -->
     <g style="fill: #1a1a1a" transform="translate(140.280039 255.265859) scale(0.085 -0.085)">
      <defs>
       <path id="DejaVuSans-7b" d="M 3272 -594 
L 3272 -1044 
L 3078 -1044 
Q 2300 -1044 2036 -812 
Q 1772 -581 1772 109 
L 1772 856 
Q 1772 1328 1603 1509 
Q 1434 1691 991 1691 
L 800 1691 
L 800 2138 
L 991 2138 
Q 1438 2138 1605 2317 
Q 1772 2497 1772 2963 
L 1772 3713 
Q 1772 4403 2036 4633 
Q 2300 4863 3078 4863 
L 3272 4863 
L 3272 4416 
L 3059 4416 
Q 2619 4416 2484 4278 
Q 2350 4141 2350 3700 
L 2350 2925 
Q 2350 2434 2208 2212 
Q 2066 1991 1722 1913 
Q 2069 1828 2209 1606 
Q 2350 1384 2350 897 
L 2350 122 
Q 2350 -319 2484 -456 
Q 2619 -594 3059 -594 
L 3272 -594 
z
" transform="scale(0.015625)"/>
       <path id="DejaVuSans-7d" d="M 800 -594 
L 1019 -594 
Q 1456 -594 1589 -459 
Q 1722 -325 1722 122 
L 1722 897 
Q 1722 1384 1862 1606 
Q 2003 1828 2350 1913 
Q 2003 1991 1862 2212 
Q 1722 2434 1722 2925 
L 1722 3700 
Q 1722 4144 1589 4280 
Q 1456 4416 1019 4416 
L 800 4416 
L 800 4863 
L 997 4863 
Q 1775 4863 2036 4633 
Q 2297 4403 2297 3713 
L 2297 2963 
Q 2297 2497 2465 2317 
Q 2634 2138 3078 2138 
L 3272 2138 
L 3272 1691 
L 3078 1691 
Q 2634 1691 2465 1509 
Q 2297 1328 2297 856 
L 2297 109 
Q 2297 -581 2036 -812 
Q 1775 -1044 997 -1044 
L 800 -1044 
L 800 -594 
z
" transform="scale(0.015625)"/>
       <path id="DejaVuSans-6c" d="M 603 4863 
L 1178 4863 
L 1178 0 
L 603 0 
L 603 4863 
z
" transform="scale(0.015625)"/>
       <path id="DejaVuSans-79" d="M 2059 -325 
Q 1816 -950 1584 -1140 
Q 1353 -1331 966 -1331 
L 506 -1331 
L 506 -850 
L 844 -850 
Q 1081 -850 1212 -737 
Q 1344 -625 1503 -206 
L 1606 56 
L 191 3500 
L 800 3500 
L 1894 763 
L 2988 3500 
L 3597 3500 
L 2059 -325 
z
" transform="scale(0.015625)"/>
       <path id="DejaVuSans-2d" d="M 313 2009 
L 1997 2009 
L 1997 1497 
L 313 1497 
L 313 2009 
z
" transform="scale(0.015625)"/>
      </defs>
      <use xlink:href="#DejaVuSans-73"/>
      <use xlink:href="#DejaVuSans-65" x="52.099609"/>
      <use xlink:href="#DejaVuSans-65" x="113.623047"/>
      <use xlink:href="#DejaVuSans-64" x="175.146484"/>
      <use xlink:href="#DejaVuSans-73" x="238.623047"/>
      <use xlink:href="#DejaVuSans-20" x="290.722656"/>
      <use xlink:href="#DejaVuSans-7b" x="322.509766"/>
      <use xlink:href="#DejaVuSans-30" x="386.132812"/>
      <use xlink:href="#DejaVuSans-2c" x="449.755859"/>
      <use xlink:href="#DejaVuSans-32" x="481.542969"/>
      <use xlink:href="#DejaVuSans-2c" x="545.166016"/>
      <use xlink:href="#DejaVuSans-33" x="576.953125"/>
      <use xlink:href="#DejaVuSans-2c" x="640.576172"/>
      <use xlink:href="#DejaVuSans-34" x="672.363281"/>
      <use xlink:href="#DejaVuSans-7d" x="735.986328"/>
      <use xlink:href="#DejaVuSans-20" x="799.609375"/>
      <use xlink:href="#DejaVuSans-28" x="831.396484"/>
      <use xlink:href="#DejaVuSans-68" x="870.410156"/>
      <use xlink:href="#DejaVuSans-65" x="933.789062"/>
      <use xlink:href="#DejaVuSans-61" x="995.3125"/>
      <use xlink:href="#DejaVuSans-6c" x="1056.591797"/>
      <use xlink:href="#DejaVuSans-74" x="1084.375"/>
      <use xlink:href="#DejaVuSans-68" x="1123.583984"/>
      <use xlink:href="#DejaVuSans-79" x="1186.962891"/>
      <use xlink:href="#DejaVuSans-2c" x="1246.142578"/>
      <use xlink:href="#DejaVuSans-20" x="1277.929688"/>
      <use xlink:href="#DejaVuSans-6c" x="1309.716797"/>
      <use xlink:href="#DejaVuSans-6f" x="1337.5"/>
      <use xlink:href="#DejaVuSans-73" x="1398.681641"/>
      <use xlink:href="#DejaVuSans-73" x="1450.78125"/>
      <use xlink:href="#DejaVuSans-20" x="1502.880859"/>
      <use xlink:href="#DejaVuSans-31" x="1534.667969"/>
      <use xlink:href="#DejaVuSans-65" x="1598.291016"/>
      <use xlink:href="#DejaVuSans-2d" x="1659.814453"/>
      <use xlink:href="#DejaVuSans-33" x="1695.898438"/>
      <use xlink:href="#DejaVuSans-2d" x="1759.521484"/>
      <use xlink:href="#DejaVuSans-31" x="1795.605469"/>
      <use xlink:href="#DejaVuSans-2e" x="1859.228516"/>
      <use xlink:href="#DejaVuSans-32" x="1891.015625"/>
      <use xlink:href="#DejaVuSans-65" x="1954.638672"/>
      <use xlink:href="#DejaVuSans-2d" x="2016.162109"/>
      <use xlink:href="#DejaVuSans-32" x="2052.246094"/>
      <use xlink:href="#DejaVuSans-29" x="2115.869141"/>
     </g>
    </g>
    <g id="line2d_29">
     <path d="M 116.480039 264.767266 
L 124.980039 264.767266 
L 133.480039 264.767266 
" style="fill: none; stroke: #cc79a7; stroke-width: 1.8; stroke-linecap: square"/>
     <g>
      <use xlink:href="#m9c5b223adc" x="124.980039" y="264.767266" style="fill: #cc79a7; stroke: #cc79a7; stroke-linejoin: miter"/>
     </g>
    </g>
    <g id="text_17">
     <!-- seed 1 (rank-deficient basin, loss 6.4e-3) -->
     <g style="fill: #1a1a1a" transform="translate(140.280039 267.742266) scale(0.085 -0.085)">
      <defs>
       <path id="DejaVuSans-62" d="M 3116 1747 
Q 3116 2381 2855 2742 
Q 2594 3103 2138 3103 
Q 1681 3103 1420 2742 
Q 1159 2381 1159 1747 
Q 1159 1113 1420 752 
Q 1681 391 2138 391 
Q 2594 391 2855 752 
Q 3116 1113 3116 1747 
z
M 1159 2969 
Q 1341 3281 1617 3432 
Q 1894 3584 2278 3584 
Q 2916 3584 3314 3078 
Q 3713 2572 3713 1747 
Q 3713 922 3314 415 
Q 2916 -91 2278 -91 
Q 1894 -91 1617 61 
Q 1341 213 1159 525 
L 1159 0 
L 581 0 
L 581 4863 
L 1159 4863 
L 1159 2969 
z
" transform="scale(0.015625)"/>
      </defs>
      <use xlink:href="#DejaVuSans-73"/>
      <use xlink:href="#DejaVuSans-65" x="52.099609"/>
      <use xlink:href="#DejaVuSans-65" x="113.623047"/>
      <use xlink:href="#DejaVuSans-64" x="175.146484"/>
      <use xlink:href="#DejaVuSans-20" x="238.623047"/>
      <use xlink:href="#DejaVuSans-31" x="270.410156"/>
      <use xlink:href="#DejaVuSans-20" x="334.033203"/>
      <use xlink:href="#DejaVuSans-28" x="365.820312"/>
      <use xlink:href="#DejaVuSans-72" x="404.833984"/>
      <use xlink:href="#DejaVuSans-61" x="445.947266"/>
      <use xlink:href="#DejaVuSans-6e" x="507.226562"/>
      <use xlink:href="#DejaVuSans-6b" x="570.605469"/>
      <use xlink:href="#DejaVuSans-2d" x="628.515625"/>
      <use xlink:href="#DejaVuSans-64" x="664.599609"/>
      <use xlink:href="#DejaVuSans-65" x="728.076172"/>
      <use xlink:href="#DejaVuSans-66" x="789.599609"/>
      <use xlink:href="#DejaVuSans-69" x="824.804688"/>
      <use xlink:href="#DejaVuSans-63" x="852.587891"/>
      <use xlink:href="#DejaVuSans-69" x="907.568359"/>
      <use xlink:href="#DejaVuSans-65" x="935.351562"/>
      <use xlink:href="#DejaVuSans-6e" x="996.875"/>
      <use xlink:href="#DejaVuSans-74" x="1060.253906"/>
      <use xlink:href="#DejaVuSans-20" x="1099.462891"/>
      <use xlink:href="#DejaVuSans-62" x="1131.25"/>
      <use xlink:href="#DejaVuSans-61" x="1194.726562"/>
      <use xlink:href="#DejaVuSans-73" x="1256.005859"/>
      <use xlink:href="#DejaVuSans-69" x="1308.105469"/>
      <use xlink:href="#DejaVuSans-6e" x="1335.888672"/>
      <use xlink:href="#DejaVuSans-2c" x="1399.267578"/>
      <use xlink:href="#DejaVuSans-20" x="1431.054688"/>
      <use xlink:href="#DejaVuSans-6c" x="1462.841797"/>
      <use xlink:href="#DejaVuSans-6f" x="1490.625"/>
      <use xlink:href="#DejaVuSans-73" x="1551.806641"/>
      <use xlink:href="#DejaVuSans-73" x="1603.90625"/>
      <use xlink:href="#DejaVuSans-20" x="1656.005859"/>
      <use xlink:href="#DejaVuSans-36" x="1687.792969"/>
      <use xlink:href="#DejaVuSans-2e" x="1751.416016"/>
      <use xlink:href="#DejaVuSans-34" x="1783.203125"/>
      <use xlink:href="#DejaVuSans-65" x="1846.826172"/>
      <use xlink:href="#DejaVuSans-2d" x="1908.349609"/>
      <use xlink:href="#DejaVuSans-33" x="1944.433594"/>
      <use xlink:href="#DejaVuSans-29" x="2008.056641"/>
     </g>
    </g>
   </g>
  </g>
  <g id="axes_2">
   <g id="patch_8">
    <path d="M 443.361562 277.16 
L 792.161563 277.16 
L 792.161563 7.2 
L 443.361562 7.2 
z
" style="fill: #faf5e7"/>
   </g>
   <g id="line2d_30">
    <path d="M 443.361562 17.33396 
L 792.161563 17.33396 
" clip-path="url(#pe65dc98439)" style="fill: none; stroke-dasharray: 4.44,1.92; stroke-dashoffset: 0; stroke: #1a1a1a; stroke-opacity: 0.7; stroke-width: 1.2"/>
   </g>
   <g id="matplotlib.axis_3">
    <g id="xtick_7">
     <g id="line2d_31">
      <path d="M 468.193848 277.16 
L 468.193848 7.2 
" clip-path="url(#pe65dc98439)" style="fill: none; stroke: #1a1a1a; stroke-opacity: 0.22; stroke-width: 0.5; stroke-linecap: square"/>
     </g>
     <g id="line2d_32">
      <g>
       <use xlink:href="#m5624b2e942" x="468.193848" y="277.16" style="fill: #1a1a1a; stroke: #1a1a1a; stroke-width: 0.8"/>
      </g>
     </g>
     <g id="text_18">
      <!-- 9 -->
      <g style="fill: #1a1a1a" transform="translate(465.012598 291.758437) scale(0.1 -0.1)">
       <use xlink:href="#DejaVuSans-39"/>
      </g>
     </g>
    </g>
    <g id="xtick_8">
     <g id="line2d_33">
      <path d="M 558.564965 277.16 
L 558.564965 7.2 
" clip-path="url(#pe65dc98439)" style="fill: none; stroke: #1a1a1a; stroke-opacity: 0.22; stroke-width: 0.5; stroke-linecap: square"/>
     </g>
     <g id="line2d_34">
      <g>
       <use xlink:href="#m5624b2e942" x="558.564965" y="277.16" style="fill: #1a1a1a; stroke: #1a1a1a; stroke-width: 0.8"/>
      </g>
     </g>
     <g id="text_19">
      <!-- 16 -->
      <g style="fill: #1a1a1a" transform="translate(552.202465 291.758437) scale(0.1 -0.1)">
       <use xlink:href="#DejaVuSans-31"/>
       <use xlink:href="#DejaVuSans-36" x="63.623047"/>
      </g>
     </g>
    </g>
    <g id="xtick_9">
     <g id="line2d_35">
      <path d="M 667.435991 277.16 
L 667.435991 7.2 
" clip-path="url(#pe65dc98439)" style="fill: none; stroke: #1a1a1a; stroke-opacity: 0.22; stroke-width: 0.5; stroke-linecap: square"/>
     </g>
     <g id="line2d_36">
      <g>
       <use xlink:href="#m5624b2e942" x="667.435991" y="277.16" style="fill: #1a1a1a; stroke: #1a1a1a; stroke-width: 0.8"/>
      </g>
     </g>
     <g id="text_20">
      <!-- 32 -->
      <g style="fill: #1a1a1a" transform="translate(661.073491 291.758437) scale(0.1 -0.1)">
       <use xlink:href="#DejaVuSans-33"/>
       <use xlink:href="#DejaVuSans-32" x="63.623047"/>
      </g>
     </g>
    </g>
    <g id="xtick_10">
     <g id="line2d_37">
      <path d="M 776.307017 277.16 
L 776.307017 7.2 
" clip-path="url(#pe65dc98439)" style="fill: none; stroke: #1a1a1a; stroke-opacity: 0.22; stroke-width: 0.5; stroke-linecap: square"/>
     </g>
     <g id="line2d_38">
      <g>
       <use xlink:href="#m5624b2e942" x="776.307017" y="277.16" style="fill: #1a1a1a; stroke: #1a1a1a; stroke-width: 0.8"/>
      </g>
     </g>
     <g id="text_21">
      <!-- 64 -->
      <g style="fill: #1a1a1a" transform="translate(769.944517 291.758437) scale(0.1 -0.1)">
       <use xlink:href="#DejaVuSans-36"/>
       <use xlink:href="#DejaVuSans-34" x="63.623047"/>
      </g>
     </g>
    </g>
    <g id="text_22">
     <!-- depth D (train support: D ≤ 8; far checkpoint: D = 64, 8× train) -->
     <g style="fill: #1a1a1a" transform="translate(474.353594 306.676719) scale(0.09 -0.09)">
      <use xlink:href="#DejaVuSans-64"/>
      <use xlink:href="#DejaVuSans-65" x="63.476562"/>
      <use xlink:href="#DejaVuSans-70" x="125"/>
      <use xlink:href="#DejaVuSans-74" x="188.476562"/>
      <use xlink:href="#DejaVuSans-68" x="227.685547"/>
      <use xlink:href="#DejaVuSans-20" x="291.064453"/>
      <use xlink:href="#DejaVuSans-44" x="322.851562"/>
      <use xlink:href="#DejaVuSans-20" x="399.853516"/>
      <use xlink:href="#DejaVuSans-28" x="431.640625"/>
      <use xlink:href="#DejaVuSans-74" x="470.654297"/>
      <use xlink:href="#DejaVuSans-72" x="509.863281"/>
      <use xlink:href="#DejaVuSans-61" x="550.976562"/>
      <use xlink:href="#DejaVuSans-69" x="612.255859"/>
      <use xlink:href="#DejaVuSans-6e" x="640.039062"/>
      <use xlink:href="#DejaVuSans-20" x="703.417969"/>
      <use xlink:href="#DejaVuSans-73" x="735.205078"/>
      <use xlink:href="#DejaVuSans-75" x="787.304688"/>
      <use xlink:href="#DejaVuSans-70" x="850.683594"/>
      <use xlink:href="#DejaVuSans-70" x="914.160156"/>
      <use xlink:href="#DejaVuSans-6f" x="977.636719"/>
      <use xlink:href="#DejaVuSans-72" x="1038.818359"/>
      <use xlink:href="#DejaVuSans-74" x="1079.931641"/>
      <use xlink:href="#DejaVuSans-3a" x="1119.140625"/>
      <use xlink:href="#DejaVuSans-20" x="1152.832031"/>
      <use xlink:href="#DejaVuSans-44" x="1184.619141"/>
      <use xlink:href="#DejaVuSans-20" x="1261.621094"/>
      <use xlink:href="#DejaVuSans-2264" x="1293.408203"/>
      <use xlink:href="#DejaVuSans-20" x="1377.197266"/>
      <use xlink:href="#DejaVuSans-38" x="1408.984375"/>
      <use xlink:href="#DejaVuSans-3b" x="1472.607422"/>
      <use xlink:href="#DejaVuSans-20" x="1506.298828"/>
      <use xlink:href="#DejaVuSans-66" x="1538.085938"/>
      <use xlink:href="#DejaVuSans-61" x="1573.291016"/>
      <use xlink:href="#DejaVuSans-72" x="1634.570312"/>
      <use xlink:href="#DejaVuSans-20" x="1675.683594"/>
      <use xlink:href="#DejaVuSans-63" x="1707.470703"/>
      <use xlink:href="#DejaVuSans-68" x="1762.451172"/>
      <use xlink:href="#DejaVuSans-65" x="1825.830078"/>
      <use xlink:href="#DejaVuSans-63" x="1887.353516"/>
      <use xlink:href="#DejaVuSans-6b" x="1942.333984"/>
      <use xlink:href="#DejaVuSans-70" x="2000.244141"/>
      <use xlink:href="#DejaVuSans-6f" x="2063.720703"/>
      <use xlink:href="#DejaVuSans-69" x="2124.902344"/>
      <use xlink:href="#DejaVuSans-6e" x="2152.685547"/>
      <use xlink:href="#DejaVuSans-74" x="2216.064453"/>
      <use xlink:href="#DejaVuSans-3a" x="2255.273438"/>
      <use xlink:href="#DejaVuSans-20" x="2288.964844"/>
      <use xlink:href="#DejaVuSans-44" x="2320.751953"/>
      <use xlink:href="#DejaVuSans-20" x="2397.753906"/>
      <use xlink:href="#DejaVuSans-3d" x="2429.541016"/>
      <use xlink:href="#DejaVuSans-20" x="2513.330078"/>
      <use xlink:href="#DejaVuSans-36" x="2545.117188"/>
      <use xlink:href="#DejaVuSans-34" x="2608.740234"/>
      <use xlink:href="#DejaVuSans-2c" x="2672.363281"/>
      <use xlink:href="#DejaVuSans-20" x="2704.150391"/>
      <use xlink:href="#DejaVuSans-38" x="2735.9375"/>
      <use xlink:href="#DejaVuSans-d7" x="2799.560547"/>
      <use xlink:href="#DejaVuSans-20" x="2883.349609"/>
      <use xlink:href="#DejaVuSans-74" x="2915.136719"/>
      <use xlink:href="#DejaVuSans-72" x="2954.345703"/>
      <use xlink:href="#DejaVuSans-61" x="2995.458984"/>
      <use xlink:href="#DejaVuSans-69" x="3056.738281"/>
      <use xlink:href="#DejaVuSans-6e" x="3084.521484"/>
      <use xlink:href="#DejaVuSans-29" x="3147.900391"/>
     </g>
    </g>
   </g>
   <g id="matplotlib.axis_4">
    <g id="ytick_7">
     <g id="line2d_39">
      <path d="M 443.361562 230.894941 
L 792.161563 230.894941 
" clip-path="url(#pe65dc98439)" style="fill: none; stroke: #1a1a1a; stroke-opacity: 0.22; stroke-width: 0.5; stroke-linecap: square"/>
     </g>
     <g id="line2d_40">
      <g>
       <use xlink:href="#me992ba1d1f" x="443.361562" y="230.894941" style="fill: #1a1a1a; stroke: #1a1a1a; stroke-width: 0.8"/>
      </g>
     </g>
     <g id="text_23">
      <!-- 3.2 -->
      <g style="fill: #1a1a1a" transform="translate(420.458438 234.694159) scale(0.1 -0.1)">
       <use xlink:href="#DejaVuSans-33"/>
       <use xlink:href="#DejaVuSans-2e" x="63.623047"/>
       <use xlink:href="#DejaVuSans-32" x="95.410156"/>
      </g>
     </g>
    </g>
    <g id="ytick_8">
     <g id="line2d_41">
      <path d="M 443.361562 177.504695 
L 792.161563 177.504695 
" clip-path="url(#pe65dc98439)" style="fill: none; stroke: #1a1a1a; stroke-opacity: 0.22; stroke-width: 0.5; stroke-linecap: square"/>
     </g>
     <g id="line2d_42">
      <g>
       <use xlink:href="#me992ba1d1f" x="443.361562" y="177.504695" style="fill: #1a1a1a; stroke: #1a1a1a; stroke-width: 0.8"/>
      </g>
     </g>
     <g id="text_24">
      <!-- 3.4 -->
      <g style="fill: #1a1a1a" transform="translate(420.458438 181.303914) scale(0.1 -0.1)">
       <use xlink:href="#DejaVuSans-33"/>
       <use xlink:href="#DejaVuSans-2e" x="63.623047"/>
       <use xlink:href="#DejaVuSans-34" x="95.410156"/>
      </g>
     </g>
    </g>
    <g id="ytick_9">
     <g id="line2d_43">
      <path d="M 443.361562 124.11445 
L 792.161563 124.11445 
" clip-path="url(#pe65dc98439)" style="fill: none; stroke: #1a1a1a; stroke-opacity: 0.22; stroke-width: 0.5; stroke-linecap: square"/>
     </g>
     <g id="line2d_44">
      <g>
       <use xlink:href="#me992ba1d1f" x="443.361562" y="124.11445" style="fill: #1a1a1a; stroke: #1a1a1a; stroke-width: 0.8"/>
      </g>
     </g>
     <g id="text_25">
      <!-- 3.6 -->
      <g style="fill: #1a1a1a" transform="translate(420.458438 127.913669) scale(0.1 -0.1)">
       <use xlink:href="#DejaVuSans-33"/>
       <use xlink:href="#DejaVuSans-2e" x="63.623047"/>
       <use xlink:href="#DejaVuSans-36" x="95.410156"/>
      </g>
     </g>
    </g>
    <g id="ytick_10">
     <g id="line2d_45">
      <path d="M 443.361562 70.724205 
L 792.161563 70.724205 
" clip-path="url(#pe65dc98439)" style="fill: none; stroke: #1a1a1a; stroke-opacity: 0.22; stroke-width: 0.5; stroke-linecap: square"/>
     </g>
     <g id="line2d_46">
      <g>
       <use xlink:href="#me992ba1d1f" x="443.361562" y="70.724205" style="fill: #1a1a1a; stroke: #1a1a1a; stroke-width: 0.8"/>
      </g>
     </g>
     <g id="text_26">
      <!-- 3.8 -->
      <g style="fill: #1a1a1a" transform="translate(420.458438 74.523424) scale(0.1 -0.1)">
       <use xlink:href="#DejaVuSans-33"/>
       <use xlink:href="#DejaVuSans-2e" x="63.623047"/>
       <use xlink:href="#DejaVuSans-38" x="95.410156"/>
      </g>
     </g>
    </g>
    <g id="ytick_11">
     <g id="line2d_47">
      <path d="M 443.361562 17.33396 
L 792.161563 17.33396 
" clip-path="url(#pe65dc98439)" style="fill: none; stroke: #1a1a1a; stroke-opacity: 0.22; stroke-width: 0.5; stroke-linecap: square"/>
     </g>
     <g id="line2d_48">
      <g>
       <use xlink:href="#me992ba1d1f" x="443.361562" y="17.33396" style="fill: #1a1a1a; stroke: #1a1a1a; stroke-width: 0.8"/>
      </g>
     </g>
     <g id="text_27">
      <!-- 4.0 -->
      <g style="fill: #1a1a1a" transform="translate(420.458438 21.133178) scale(0.1 -0.1)">
       <use xlink:href="#DejaVuSans-34"/>
       <use xlink:href="#DejaVuSans-2e" x="63.623047"/>
       <use xlink:href="#DejaVuSans-30" x="95.410156"/>
      </g>
     </g>
    </g>
    <g id="text_28">
     <!-- restricted effective rank (mean ± 1σ) -->
     <g style="fill: #1a1a1a" transform="translate(412.482734 231.049531) rotate(-90) scale(0.095 -0.095)">
      <use xlink:href="#DejaVuSans-72"/>
      <use xlink:href="#DejaVuSans-65" x="38.863281"/>
      <use xlink:href="#DejaVuSans-73" x="100.386719"/>
      <use xlink:href="#DejaVuSans-74" x="152.486328"/>
      <use xlink:href="#DejaVuSans-72" x="191.695312"/>
      <use xlink:href="#DejaVuSans-69" x="232.808594"/>
      <use xlink:href="#DejaVuSans-63" x="260.591797"/>
      <use xlink:href="#DejaVuSans-74" x="315.572266"/>
      <use xlink:href="#DejaVuSans-65" x="354.78125"/>
      <use xlink:href="#DejaVuSans-64" x="416.304688"/>
      <use xlink:href="#DejaVuSans-20" x="479.78125"/>
      <use xlink:href="#DejaVuSans-65" x="511.568359"/>
      <use xlink:href="#DejaVuSans-66" x="573.091797"/>
      <use xlink:href="#DejaVuSans-66" x="608.296875"/>
      <use xlink:href="#DejaVuSans-65" x="643.501953"/>
      <use xlink:href="#DejaVuSans-63" x="705.025391"/>
      <use xlink:href="#DejaVuSans-74" x="760.005859"/>
      <use xlink:href="#DejaVuSans-69" x="799.214844"/>
      <use xlink:href="#DejaVuSans-76" x="826.998047"/>
      <use xlink:href="#DejaVuSans-65" x="886.177734"/>
      <use xlink:href="#DejaVuSans-20" x="947.701172"/>
      <use xlink:href="#DejaVuSans-72" x="979.488281"/>
      <use xlink:href="#DejaVuSans-61" x="1020.601562"/>
      <use xlink:href="#DejaVuSans-6e" x="1081.880859"/>
      <use xlink:href="#DejaVuSans-6b" x="1145.259766"/>
      <use xlink:href="#DejaVuSans-20" x="1203.169922"/>
      <use xlink:href="#DejaVuSans-28" x="1234.957031"/>
      <use xlink:href="#DejaVuSans-6d" x="1273.970703"/>
      <use xlink:href="#DejaVuSans-65" x="1371.382812"/>
      <use xlink:href="#DejaVuSans-61" x="1432.90625"/>
      <use xlink:href="#DejaVuSans-6e" x="1494.185547"/>
      <use xlink:href="#DejaVuSans-20" x="1557.564453"/>
      <use xlink:href="#DejaVuSans-b1" x="1589.351562"/>
      <use xlink:href="#DejaVuSans-20" x="1673.140625"/>
      <use xlink:href="#DejaVuSans-31" x="1704.927734"/>
      <use xlink:href="#DejaVuSans-3c3" x="1768.550781"/>
      <use xlink:href="#DejaVuSans-29" x="1831.929688"/>
     </g>
    </g>
   </g>
   <g id="PolyCollection_3">
    <defs>
     <path id="md2a4f0c46e" d="M 468.193848 -296.277528 
L 468.193848 -291.564944 
L 484.742581 -287.893194 
L 513.379406 -290.479301 
L 537.591497 -288.673426 
L 558.564965 -286.946642 
L 593.613607 -279.379708 
L 622.250432 -273.792601 
L 667.435991 -271.612479 
L 731.121459 -241.506827 
L 776.307017 -240.806956 
L 776.307017 -281.642743 
L 776.307017 -281.642743 
L 731.121459 -289.295472 
L 667.435991 -290.733448 
L 622.250432 -294.197752 
L 593.613607 -294.380707 
L 558.564965 -295.111352 
L 537.591497 -295.180853 
L 513.379406 -295.089541 
L 484.742581 -295.721584 
L 468.193848 -296.277528 
z
" style="stroke: #009e73; stroke-opacity: 0.15"/>
    </defs>
    <g clip-path="url(#pe65dc98439)">
     <use xlink:href="#md2a4f0c46e" x="0" y="315.748437" style="fill: #009e73; fill-opacity: 0.15; stroke: #009e73; stroke-opacity: 0.15"/>
    </g>
   </g>
   <g id="PolyCollection_4">
    <defs>
     <path id="m3f720061b0" d="M 468.193848 -197.315779 
L 468.193848 -197.315779 
L 484.742581 -177.429927 
L 513.379406 -120.631292 
L 537.591497 -132.677022 
L 558.564965 -105.368949 
L 593.613607 -92.140737 
L 622.250432 -106.280171 
L 667.435991 -105.088461 
L 731.121459 -50.859347 
L 776.307017 -57.756742 
L 776.307017 -57.756742 
L 776.307017 -57.756742 
L 731.121459 -50.859347 
L 667.435991 -105.088461 
L 622.250432 -106.280171 
L 593.613607 -92.140737 
L 558.564965 -105.368949 
L 537.591497 -132.677022 
L 513.379406 -120.631292 
L 484.742581 -177.429927 
L 468.193848 -197.315779 
z
" style="stroke: #cc79a7; stroke-opacity: 0.15"/>
    </defs>
    <g clip-path="url(#pe65dc98439)">
     <use xlink:href="#m3f720061b0" x="0" y="315.748437" style="fill: #cc79a7; fill-opacity: 0.15; stroke: #cc79a7; stroke-opacity: 0.15"/>
    </g>
   </g>
   <g id="line2d_49">
    <path d="M 459.216108 277.16 
L 459.216108 7.2 
" clip-path="url(#pe65dc98439)" style="fill: none; stroke-dasharray: 0.8,1.32; stroke-dashoffset: 0; stroke: #1a1a1a; stroke-opacity: 0.6; stroke-width: 0.8"/>
   </g>
   <g id="patch_9">
    <path d="M 443.361562 277.16 
L 443.361562 7.2 
" style="fill: none; stroke: #1a1a1a; stroke-linejoin: miter; stroke-linecap: square"/>
   </g>
   <g id="patch_10">
    <path d="M 792.161563 277.16 
L 792.161563 7.2 
" style="fill: none; stroke: #1a1a1a; stroke-linejoin: miter; stroke-linecap: square"/>
   </g>
   <g id="patch_11">
    <path d="M 443.361562 277.16 
L 792.161563 277.16 
" style="fill: none; stroke: #1a1a1a; stroke-linejoin: miter; stroke-linecap: square"/>
   </g>
   <g id="patch_12">
    <path d="M 443.361562 7.2 
L 792.161563 7.2 
" style="fill: none; stroke: #1a1a1a; stroke-linejoin: miter; stroke-linecap: square"/>
   </g>
   <g id="line2d_50">
    <path d="M 468.193848 21.827201 
L 484.742581 23.941049 
L 513.379406 22.964017 
L 537.591497 23.821298 
L 558.564965 24.719441 
L 593.613607 28.86823 
L 622.250432 31.753261 
L 667.435991 34.575474 
L 731.121459 50.347288 
L 776.307017 54.523588 
" clip-path="url(#pe65dc98439)" style="fill: none; stroke: #009e73; stroke-width: 1.8; stroke-linecap: square"/>
    <g clip-path="url(#pe65dc98439)">
     <use xlink:href="#md8f3c96ef3" x="468.193848" y="21.827201" style="fill: #009e73; stroke: #009e73"/>
     <use xlink:href="#md8f3c96ef3" x="484.742581" y="23.941049" style="fill: #009e73; stroke: #009e73"/>
     <use xlink:href="#md8f3c96ef3" x="513.379406" y="22.964017" style="fill: #009e73; stroke: #009e73"/>
     <use xlink:href="#md8f3c96ef3" x="537.591497" y="23.821298" style="fill: #009e73; stroke: #009e73"/>
     <use xlink:href="#md8f3c96ef3" x="558.564965" y="24.719441" style="fill: #009e73; stroke: #009e73"/>
     <use xlink:href="#md8f3c96ef3" x="593.613607" y="28.86823" style="fill: #009e73; stroke: #009e73"/>
     <use xlink:href="#md8f3c96ef3" x="622.250432" y="31.753261" style="fill: #009e73; stroke: #009e73"/>
     <use xlink:href="#md8f3c96ef3" x="667.435991" y="34.575474" style="fill: #009e73; stroke: #009e73"/>
     <use xlink:href="#md8f3c96ef3" x="731.121459" y="50.347288" style="fill: #009e73; stroke: #009e73"/>
     <use xlink:href="#md8f3c96ef3" x="776.307017" y="54.523588" style="fill: #009e73; stroke: #009e73"/>
    </g>
   </g>
   <g id="line2d_51">
    <path d="M 468.193848 118.432658 
L 484.742581 138.31851 
L 513.379406 195.117146 
L 537.591497 183.071415 
L 558.564965 210.379488 
L 593.613607 223.6077 
L 622.250432 209.468267 
L 667.435991 210.659977 
L 731.121459 264.889091 
L 776.307017 257.991696 
" clip-path="url(#pe65dc98439)" style="fill: none; stroke: #cc79a7; stroke-width: 1.8; stroke-linecap: square"/>
    <g clip-path="url(#pe65dc98439)">
     <use xlink:href="#m9c5b223adc" x="468.193848" y="118.432658" style="fill: #cc79a7; stroke: #cc79a7; stroke-linejoin: miter"/>
     <use xlink:href="#m9c5b223adc" x="484.742581" y="138.31851" style="fill: #cc79a7; stroke: #cc79a7; stroke-linejoin: miter"/>
     <use xlink:href="#m9c5b223adc" x="513.379406" y="195.117146" style="fill: #cc79a7; stroke: #cc79a7; stroke-linejoin: miter"/>
     <use xlink:href="#m9c5b223adc" x="537.591497" y="183.071415" style="fill: #cc79a7; stroke: #cc79a7; stroke-linejoin: miter"/>
     <use xlink:href="#m9c5b223adc" x="558.564965" y="210.379488" style="fill: #cc79a7; stroke: #cc79a7; stroke-linejoin: miter"/>
     <use xlink:href="#m9c5b223adc" x="593.613607" y="223.6077" style="fill: #cc79a7; stroke: #cc79a7; stroke-linejoin: miter"/>
     <use xlink:href="#m9c5b223adc" x="622.250432" y="209.468267" style="fill: #cc79a7; stroke: #cc79a7; stroke-linejoin: miter"/>
     <use xlink:href="#m9c5b223adc" x="667.435991" y="210.659977" style="fill: #cc79a7; stroke: #cc79a7; stroke-linejoin: miter"/>
     <use xlink:href="#m9c5b223adc" x="731.121459" y="264.889091" style="fill: #cc79a7; stroke: #cc79a7; stroke-linejoin: miter"/>
     <use xlink:href="#m9c5b223adc" x="776.307017" y="257.991696" style="fill: #cc79a7; stroke: #cc79a7; stroke-linejoin: miter"/>
    </g>
   </g>
   <g id="text_29">
    <!-- d_min = 4 -->
    <g style="fill: #1a1a1a" transform="translate(738.074313 15.329819) scale(0.085 -0.085)">
     <defs>
      <path id="DejaVuSans-Bold-64" d="M 2919 2988 
L 2919 4863 
L 4044 4863 
L 4044 0 
L 2919 0 
L 2919 506 
Q 2688 197 2409 53 
Q 2131 -91 1766 -91 
Q 1119 -91 703 423 
Q 288 938 288 1747 
Q 288 2556 703 3070 
Q 1119 3584 1766 3584 
Q 2128 3584 2408 3439 
Q 2688 3294 2919 2988 
z
M 2181 722 
Q 2541 722 2730 984 
Q 2919 1247 2919 1747 
Q 2919 2247 2730 2509 
Q 2541 2772 2181 2772 
Q 1825 2772 1636 2509 
Q 1447 2247 1447 1747 
Q 1447 1247 1636 984 
Q 1825 722 2181 722 
z
" transform="scale(0.015625)"/>
      <path id="DejaVuSans-Bold-5f" d="M 3200 -916 
L 3200 -1509 
L 0 -1509 
L 0 -916 
L 3200 -916 
z
" transform="scale(0.015625)"/>
      <path id="DejaVuSans-Bold-6d" d="M 3781 2919 
Q 3994 3244 4286 3414 
Q 4578 3584 4928 3584 
Q 5531 3584 5847 3212 
Q 6163 2841 6163 2131 
L 6163 0 
L 5038 0 
L 5038 1825 
Q 5041 1866 5042 1909 
Q 5044 1953 5044 2034 
Q 5044 2406 4934 2573 
Q 4825 2741 4581 2741 
Q 4263 2741 4089 2478 
Q 3916 2216 3909 1719 
L 3909 0 
L 2784 0 
L 2784 1825 
Q 2784 2406 2684 2573 
Q 2584 2741 2328 2741 
Q 2006 2741 1831 2477 
Q 1656 2213 1656 1722 
L 1656 0 
L 531 0 
L 531 3500 
L 1656 3500 
L 1656 2988 
Q 1863 3284 2130 3434 
Q 2397 3584 2719 3584 
Q 3081 3584 3359 3409 
Q 3638 3234 3781 2919 
z
" transform="scale(0.015625)"/>
      <path id="DejaVuSans-Bold-69" d="M 538 3500 
L 1656 3500 
L 1656 0 
L 538 0 
L 538 3500 
z
M 538 4863 
L 1656 4863 
L 1656 3950 
L 538 3950 
L 538 4863 
z
" transform="scale(0.015625)"/>
      <path id="DejaVuSans-Bold-6e" d="M 4056 2131 
L 4056 0 
L 2931 0 
L 2931 347 
L 2931 1631 
Q 2931 2084 2911 2256 
Q 2891 2428 2841 2509 
Q 2775 2619 2662 2680 
Q 2550 2741 2406 2741 
Q 2056 2741 1856 2470 
Q 1656 2200 1656 1722 
L 1656 0 
L 538 0 
L 538 3500 
L 1656 3500 
L 1656 2988 
Q 1909 3294 2193 3439 
Q 2478 3584 2822 3584 
Q 3428 3584 3742 3212 
Q 4056 2841 4056 2131 
z
" transform="scale(0.015625)"/>
      <path id="DejaVuSans-Bold-20" transform="scale(0.015625)"/>
      <path id="DejaVuSans-Bold-3d" d="M 678 3084 
L 4684 3084 
L 4684 2350 
L 678 2350 
L 678 3084 
z
M 678 1663 
L 4684 1663 
L 4684 922 
L 678 922 
L 678 1663 
z
" transform="scale(0.015625)"/>
      <path id="DejaVuSans-Bold-34" d="M 2356 3675 
L 1038 1722 
L 2356 1722 
L 2356 3675 
z
M 2156 4666 
L 3494 4666 
L 3494 1722 
L 4159 1722 
L 4159 850 
L 3494 850 
L 3494 0 
L 2356 0 
L 2356 850 
L 288 850 
L 288 1881 
L 2156 4666 
z
" transform="scale(0.015625)"/>
     </defs>
     <use xlink:href="#DejaVuSans-Bold-64"/>
     <use xlink:href="#DejaVuSans-Bold-5f" x="71.582031"/>
     <use xlink:href="#DejaVuSans-Bold-6d" x="121.582031"/>
     <use xlink:href="#DejaVuSans-Bold-69" x="225.78125"/>
     <use xlink:href="#DejaVuSans-Bold-6e" x="260.058594"/>
     <use xlink:href="#DejaVuSans-Bold-20" x="331.25"/>
     <use xlink:href="#DejaVuSans-Bold-3d" x="366.064453"/>
     <use xlink:href="#DejaVuSans-Bold-20" x="449.853516"/>
     <use xlink:href="#DejaVuSans-Bold-34" x="484.667969"/>
    </g>
   </g>
   <g id="legend_2">
    <g id="patch_13">
     <path d="M 449.311562 272.91 
L 659.674609 272.91 
Q 661.374609 272.91 661.374609 271.21 
L 661.374609 247.107187 
Q 661.374609 245.407187 659.674609 245.407187 
L 449.311562 245.407187 
Q 447.611562 245.407187 447.611562 247.107187 
L 447.611562 271.21 
Q 447.611562 272.91 449.311562 272.91 
z
" style="fill: #faf5e7; opacity: 0.8; stroke: #1a1a1a; stroke-linejoin: miter"/>
    </g>
    <g id="line2d_52">
     <path d="M 451.011562 252.290859 
L 459.511562 252.290859 
L 468.011562 252.290859 
" style="fill: none; stroke: #009e73; stroke-width: 1.8; stroke-linecap: square"/>
     <g>
      <use xlink:href="#md8f3c96ef3" x="459.511562" y="252.290859" style="fill: #009e73; stroke: #009e73"/>
     </g>
    </g>
    <g id="text_30">
     <!-- seeds {0,2,3,4} (healthy, loss 1e-3-1.2e-2) -->
     <g style="fill: #1a1a1a" transform="translate(474.811562 255.265859) scale(0.085 -0.085)">
      <use xlink:href="#DejaVuSans-73"/>
      <use xlink:href="#DejaVuSans-65" x="52.099609"/>
      <use xlink:href="#DejaVuSans-65" x="113.623047"/>
      <use xlink:href="#DejaVuSans-64" x="175.146484"/>
      <use xlink:href="#DejaVuSans-73" x="238.623047"/>
      <use xlink:href="#DejaVuSans-20" x="290.722656"/>
      <use xlink:href="#DejaVuSans-7b" x="322.509766"/>
      <use xlink:href="#DejaVuSans-30" x="386.132812"/>
      <use xlink:href="#DejaVuSans-2c" x="449.755859"/>
      <use xlink:href="#DejaVuSans-32" x="481.542969"/>
      <use xlink:href="#DejaVuSans-2c" x="545.166016"/>
      <use xlink:href="#DejaVuSans-33" x="576.953125"/>
      <use xlink:href="#DejaVuSans-2c" x="640.576172"/>
      <use xlink:href="#DejaVuSans-34" x="672.363281"/>
      <use xlink:href="#DejaVuSans-7d" x="735.986328"/>
      <use xlink:href="#DejaVuSans-20" x="799.609375"/>
      <use xlink:href="#DejaVuSans-28" x="831.396484"/>
      <use xlink:href="#DejaVuSans-68" x="870.410156"/>
      <use xlink:href="#DejaVuSans-65" x="933.789062"/>
      <use xlink:href="#DejaVuSans-61" x="995.3125"/>
      <use xlink:href="#DejaVuSans-6c" x="1056.591797"/>
      <use xlink:href="#DejaVuSans-74" x="1084.375"/>
      <use xlink:href="#DejaVuSans-68" x="1123.583984"/>
      <use xlink:href="#DejaVuSans-79" x="1186.962891"/>
      <use xlink:href="#DejaVuSans-2c" x="1246.142578"/>
      <use xlink:href="#DejaVuSans-20" x="1277.929688"/>
      <use xlink:href="#DejaVuSans-6c" x="1309.716797"/>
      <use xlink:href="#DejaVuSans-6f" x="1337.5"/>
      <use xlink:href="#DejaVuSans-73" x="1398.681641"/>
      <use xlink:href="#DejaVuSans-73" x="1450.78125"/>
      <use xlink:href="#DejaVuSans-20" x="1502.880859"/>
      <use xlink:href="#DejaVuSans-31" x="1534.667969"/>
      <use xlink:href="#DejaVuSans-65" x="1598.291016"/>
      <use xlink:href="#DejaVuSans-2d" x="1659.814453"/>
      <use xlink:href="#DejaVuSans-33" x="1695.898438"/>
      <use xlink:href="#DejaVuSans-2d" x="1759.521484"/>
      <use xlink:href="#DejaVuSans-31" x="1795.605469"/>
      <use xlink:href="#DejaVuSans-2e" x="1859.228516"/>
      <use xlink:href="#DejaVuSans-32" x="1891.015625"/>
      <use xlink:href="#DejaVuSans-65" x="1954.638672"/>
      <use xlink:href="#DejaVuSans-2d" x="2016.162109"/>
      <use xlink:href="#DejaVuSans-32" x="2052.246094"/>
      <use xlink:href="#DejaVuSans-29" x="2115.869141"/>
     </g>
    </g>
    <g id="line2d_53">
     <path d="M 451.011562 264.767266 
L 459.511562 264.767266 
L 468.011562 264.767266 
" style="fill: none; stroke: #cc79a7; stroke-width: 1.8; stroke-linecap: square"/>
     <g>
      <use xlink:href="#m9c5b223adc" x="459.511562" y="264.767266" style="fill: #cc79a7; stroke: #cc79a7; stroke-linejoin: miter"/>
     </g>
    </g>
    <g id="text_31">
     <!-- seed 1 (rank-deficient basin, loss 6.4e-3) -->
     <g style="fill: #1a1a1a" transform="translate(474.811562 267.742266) scale(0.085 -0.085)">
      <use xlink:href="#DejaVuSans-73"/>
      <use xlink:href="#DejaVuSans-65" x="52.099609"/>
      <use xlink:href="#DejaVuSans-65" x="113.623047"/>
      <use xlink:href="#DejaVuSans-64" x="175.146484"/>
      <use xlink:href="#DejaVuSans-20" x="238.623047"/>
      <use xlink:href="#DejaVuSans-31" x="270.410156"/>
      <use xlink:href="#DejaVuSans-20" x="334.033203"/>
      <use xlink:href="#DejaVuSans-28" x="365.820312"/>
      <use xlink:href="#DejaVuSans-72" x="404.833984"/>
      <use xlink:href="#DejaVuSans-61" x="445.947266"/>
      <use xlink:href="#DejaVuSans-6e" x="507.226562"/>
      <use xlink:href="#DejaVuSans-6b" x="570.605469"/>
      <use xlink:href="#DejaVuSans-2d" x="628.515625"/>
      <use xlink:href="#DejaVuSans-64" x="664.599609"/>
      <use xlink:href="#DejaVuSans-65" x="728.076172"/>
      <use xlink:href="#DejaVuSans-66" x="789.599609"/>
      <use xlink:href="#DejaVuSans-69" x="824.804688"/>
      <use xlink:href="#DejaVuSans-63" x="852.587891"/>
      <use xlink:href="#DejaVuSans-69" x="907.568359"/>
      <use xlink:href="#DejaVuSans-65" x="935.351562"/>
      <use xlink:href="#DejaVuSans-6e" x="996.875"/>
      <use xlink:href="#DejaVuSans-74" x="1060.253906"/>
      <use xlink:href="#DejaVuSans-20" x="1099.462891"/>
      <use xlink:href="#DejaVuSans-62" x="1131.25"/>
      <use xlink:href="#DejaVuSans-61" x="1194.726562"/>
      <use xlink:href="#DejaVuSans-73" x="1256.005859"/>
      <use xlink:href="#DejaVuSans-69" x="1308.105469"/>
      <use xlink:href="#DejaVuSans-6e" x="1335.888672"/>
      <use xlink:href="#DejaVuSans-2c" x="1399.267578"/>
      <use xlink:href="#DejaVuSans-20" x="1431.054688"/>
      <use xlink:href="#DejaVuSans-6c" x="1462.841797"/>
      <use xlink:href="#DejaVuSans-6f" x="1490.625"/>
      <use xlink:href="#DejaVuSans-73" x="1551.806641"/>
      <use xlink:href="#DejaVuSans-73" x="1603.90625"/>
      <use xlink:href="#DejaVuSans-20" x="1656.005859"/>
      <use xlink:href="#DejaVuSans-36" x="1687.792969"/>
      <use xlink:href="#DejaVuSans-2e" x="1751.416016"/>
      <use xlink:href="#DejaVuSans-34" x="1783.203125"/>
      <use xlink:href="#DejaVuSans-65" x="1846.826172"/>
      <use xlink:href="#DejaVuSans-2d" x="1908.349609"/>
      <use xlink:href="#DejaVuSans-33" x="1944.433594"/>
      <use xlink:href="#DejaVuSans-29" x="2008.056641"/>
     </g>
    </g>
   </g>
  </g>
 </g>
 <defs>
  <clipPath id="pd890f6f287">
   <rect x="45.561563" y="7.2" width="348.8" height="269.96"/>
  </clipPath>
  <clipPath id="pe65dc98439">
   <rect x="443.361562" y="7.2" width="348.8" height="269.96"/>
  </clipPath>
 </defs>
</svg>
