<?xml version="1.0" encoding="utf-8" standalone="no"?>
<!DOCTYPE svg PUBLIC "-//W3C//DTD SVG 1.1//EN"
  "http://www.w3.org/Graphics/SVG/1.1/DTD/svg11.dtd">
<svg xmlns:xlink="http://www.w3.org/1999/xlink" width="799.361562pt" height="315.748437pt" viewBox="0 0 799.361562 315.748437" xmlns="http://www.w3.org/2000/svg" version="1.1">
 <metadata>
  <rdf:RDF xmlns:dc="http://purl.org/dc/elements/1.1/" xmlns:cc="http://creativecommons.org/ns#" xmlns:rdf="http://www.w3.org/1999/02/22-rdf-syntax-ns#">
   <cc:Work>
    <dc:type rdf:resource="http://purl.org/dc/dcmitype/StillImage"/>
    <dc:date>2026-07-10T21:55:04.212916</dc:date>
    <dc:format>image/svg+xml</dc:format>
    <dc:creator>
     <cc:Agent>
      <dc:title>Matplotlib v3.9.4, https://matplotlib.org/</dc:title>
     </cc:Agent>
    </dc:creator>
   </cc:Work>
  </rdf:RDF>
 </metadata>
 <defs>
  <style type="text/css">*{stroke-linejoin: round; stroke-linecap: butt}</style>
 </defs>
 <g id="figure_1">
  <g id="patch_1">
   <path d="M 0 315.748437 
L 799.361562 315.748437 
L 799.361562 0 
L 0 0 
z
" style="fill: #faf5e7"/>
  </g>
  <g id="axes_1">
   <g id="patch_2">
    <path d="M 45.561563 277.16 
L 394.406562 277.16 
L 394.406562 7.2 
L 45.561563 7.2 
z
" style="fill: #faf5e7"/>
   </g>
   <g id="matplotlib.axis_1">
    <g id="xtick_1">
     <g id="line2d_1">
      <path d="M 45.561563 277.16 
L 45.561563 7.2 
" clip-path="url(#pfbe404cb9c)" style="fill: none; stroke: #1a1a1a; stroke-opacity: 0.22; stroke-width: 0.5; stroke-linecap: square"/>
     </g>
     <g id="line2d_2">
      <defs>
       <path id="m9ab03baeff" d="M 0 0 
L 0 3.5 
" style="stroke: #1a1a1a; stroke-width: 0.8"/>
      </defs>
      <g>
       <use xlink:href="#m9ab03baeff" x="45.561563" y="277.16" style="fill: #1a1a1a; stroke: #1a1a1a; stroke-width: 0.8"/>
      </g>
     </g>
     <g id="text_1">
      <!-- 2 -->
      <g style="fill: #1a1a1a" transform="translate(42.380313 291.758437) scale(0.1 -0.1)">
       <defs>
        <path id="DejaVuSans-32" d="M 1228 531 
L 3431 531 
L 3431 0 
L 469 0 
L 469 531 
Q 828 903 1448 1529 
Q 2069 2156 2228 2338 
Q 2531 2678 2651 2914 
Q 2772 3150 2772 3378 
Q 2772 3750 2511 3984 
Q 2250 4219 1831 4219 
Q 1534 4219 1204 4116 
Q 875 4013 500 3803 
L 500 4441 
Q 881 4594 1212 4672 
Q 1544 4750 1819 4750 
Q 2544 4750 2975 4387 
Q 3406 4025 3406 3419 
Q 3406 3131 3298 2873 
Q 3191 2616 2906 2266 
Q 2828 2175 2409 1742 
Q 1991 1309 1228 531 
z
" transform="scale(0.015625)"/>
       </defs>
       <use xlink:href="#DejaVuSans-32"/>
      </g>
     </g>
    </g>
    <g id="xtick_2">
     <g id="line2d_3">
      <path d="M 112.647139 277.16 
L 112.647139 7.2 
" clip-path="url(#pfbe404cb9c)" style="fill: none; stroke: #1a1a1a; stroke-opacity: 0.22; stroke-width: 0.5; stroke-linecap: square"/>
     </g>
     <g id="line2d_4">
      <g>
       <use xlink:href="#m9ab03baeff" x="112.647139" y="277.16" style="fill: #1a1a1a; stroke: #1a1a1a; stroke-width: 0.8"/>
      </g>
     </g>
     <g id="text_2">
      <!-- 4 -->
      <g style="fill: #1a1a1a" transform="translate(109.465889 291.758437) scale(0.1 -0.1)">
       <defs>
        <path id="DejaVuSans-34" d="M 2419 4116 
L 825 1625 
L 2419 1625 
L 2419 4116 
z
M 2253 4666 
L 3047 4666 
L 3047 1625 
L 3713 1625 
L 3713 1100 
L 3047 1100 
L 3047 0 
L 2419 0 
L 2419 1100 
L 313 1100 
L 313 1709 
L 2253 4666 
z
" transform="scale(0.015625)"/>
       </defs>
       <use xlink:href="#DejaVuSans-34"/>
      </g>
     </g>
    </g>
    <g id="xtick_3">
     <g id="line2d_5">
      <path d="M 179.732716 277.16 
L 179.732716 7.2 
" clip-path="url(#pfbe404cb9c)" style="fill: none; stroke: #1a1a1a; stroke-opacity: 0.22; stroke-width: 0.5; stroke-linecap: square"/>
     </g>
     <g id="line2d_6">
      <g>
       <use xlink:href="#m9ab03baeff" x="179.732716" y="277.16" style="fill: #1a1a1a; stroke: #1a1a1a; stroke-width: 0.8"/>
      </g>
     </g>
     <g id="text_3">
      <!-- 8 -->
      <g style="fill: #1a1a1a" transform="translate(176.551466 291.758437) scale(0.1 -0.1)">
       <defs>
        <path id="DejaVuSans-38" d="M 2034 2216 
Q 1584 2216 1326 1975 
Q 1069 1734 1069 1313 
Q 1069 891 1326 650 
Q 1584 409 2034 409 
Q 2484 409 2743 651 
Q 3003 894 3003 1313 
Q 3003 1734 2745 1975 
Q 2488 2216 2034 2216 
z
M 1403 2484 
Q 997 2584 770 2862 
Q 544 3141 544 3541 
Q 544 4100 942 4425 
Q 1341 4750 2034 4750 
Q 2731 4750 3128 4425 
Q 3525 4100 3525 3541 
Q 3525 3141 3298 2862 
Q 3072 2584 2669 2484 
Q 3125 2378 3379 2068 
Q 3634 1759 3634 1313 
Q 3634 634 3220 271 
Q 2806 -91 2034 -91 
Q 1263 -91 848 271 
Q 434 634 434 1313 
Q 434 1759 690 2068 
Q 947 2378 1403 2484 
z
M 1172 3481 
Q 1172 3119 1398 2916 
Q 1625 2713 2034 2713 
Q 2441 2713 2670 2916 
Q 2900 3119 2900 3481 
Q 2900 3844 2670 4047 
Q 2441 4250 2034 4250 
Q 1625 4250 1398 4047 
Q 1172 3844 1172 3481 
z
" transform="scale(0.015625)"/>
       </defs>
       <use xlink:href="#DejaVuSans-38"/>
      </g>
     </g>
    </g>
    <g id="xtick_4">
     <g id="line2d_7">
      <path d="M 246.818293 277.16 
L 246.818293 7.2 
" clip-path="url(#pfbe404cb9c)" style="fill: none; stroke: #1a1a1a; stroke-opacity: 0.22; stroke-width: 0.5; stroke-linecap: square"/>
     </g>
     <g id="line2d_8">
      <g>
       <use xlink:href="#m9ab03baeff" x="246.818293" y="277.16" style="fill: #1a1a1a; stroke: #1a1a1a; stroke-width: 0.8"/>
      </g>
     </g>
     <g id="text_4">
      <!-- 16 -->
      <g style="fill: #1a1a1a" transform="translate(240.455793 291.758437) scale(0.1 -0.1)">
       <defs>
        <path id="DejaVuSans-31" d="M 794 531 
L 1825 531 
L 1825 4091 
L 703 3866 
L 703 4441 
L 1819 4666 
L 2450 4666 
L 2450 531 
L 3481 531 
L 3481 0 
L 794 0 
L 794 531 
z
" transform="scale(0.015625)"/>
        <path id="DejaVuSans-36" d="M 2113 2584 
Q 1688 2584 1439 2293 
Q 1191 2003 1191 1497 
Q 1191 994 1439 701 
Q 1688 409 2113 409 
Q 2538 409 2786 701 
Q 3034 994 3034 1497 
Q 3034 2003 2786 2293 
Q 2538 2584 2113 2584 
z
M 3366 4563 
L 3366 3988 
Q 3128 4100 2886 4159 
Q 2644 4219 2406 4219 
Q 1781 4219 1451 3797 
Q 1122 3375 1075 2522 
Q 1259 2794 1537 2939 
Q 1816 3084 2150 3084 
Q 2853 3084 3261 2657 
Q 3669 2231 3669 1497 
Q 3669 778 3244 343 
Q 2819 -91 2113 -91 
Q 1303 -91 875 529 
Q 447 1150 447 2328 
Q 447 3434 972 4092 
Q 1497 4750 2381 4750 
Q 2619 4750 2861 4703 
Q 3103 4656 3366 4563 
z
" transform="scale(0.015625)"/>
       </defs>
       <use xlink:href="#DejaVuSans-31"/>
       <use xlink:href="#DejaVuSans-36" x="63.623047"/>
      </g>
     </g>
    </g>
    <g id="xtick_5">
     <g id="line2d_9">
      <path d="M 313.90387 277.16 
L 313.90387 7.2 
" clip-path="url(#pfbe404cb9c)" style="fill: none; stroke: #1a1a1a; stroke-opacity: 0.22; stroke-width: 0.5; stroke-linecap: square"/>
     </g>
     <g id="line2d_10">
      <g>
       <use xlink:href="#m9ab03baeff" x="313.90387" y="277.16" style="fill: #1a1a1a; stroke: #1a1a1a; stroke-width: 0.8"/>
      </g>
     </g>
     <g id="text_5">
      <!-- 32 -->
      <g style="fill: #1a1a1a" transform="translate(307.54137 291.758437) scale(0.1 -0.1)">
       <defs>
        <path id="DejaVuSans-33" d="M 2597 2516 
Q 3050 2419 3304 2112 
Q 3559 1806 3559 1356 
Q 3559 666 3084 287 
Q 2609 -91 1734 -91 
Q 1441 -91 1130 -33 
Q 819 25 488 141 
L 488 750 
Q 750 597 1062 519 
Q 1375 441 1716 441 
Q 2309 441 2620 675 
Q 2931 909 2931 1356 
Q 2931 1769 2642 2001 
Q 2353 2234 1838 2234 
L 1294 2234 
L 1294 2753 
L 1863 2753 
Q 2328 2753 2575 2939 
Q 2822 3125 2822 3475 
Q 2822 3834 2567 4026 
Q 2313 4219 1838 4219 
Q 1578 4219 1281 4162 
Q 984 4106 628 3988 
L 628 4550 
Q 988 4650 1302 4700 
Q 1616 4750 1894 4750 
Q 2613 4750 3031 4423 
Q 3450 4097 3450 3541 
Q 3450 3153 3228 2886 
Q 3006 2619 2597 2516 
z
" transform="scale(0.015625)"/>
       </defs>
       <use xlink:href="#DejaVuSans-33"/>
       <use xlink:href="#DejaVuSans-32" x="63.623047"/>
      </g>
     </g>
    </g>
    <g id="xtick_6">
     <g id="line2d_11">
      <path d="M 380.989447 277.16 
L 380.989447 7.2 
" clip-path="url(#pfbe404cb9c)" style="fill: none; stroke: #1a1a1a; stroke-opacity: 0.22; stroke-width: 0.5; stroke-linecap: square"/>
     </g>
     <g id="line2d_12">
      <g>
       <use xlink:href="#m9ab03baeff" x="380.989447" y="277.16" style="fill: #1a1a1a; stroke: #1a1a1a; stroke-width: 0.8"/>
      </g>
     </g>
     <g id="text_6">
      <!-- 64 -->
      <g style="fill: #1a1a1a" transform="translate(374.626947 291.758437) scale(0.1 -0.1)">
       <use xlink:href="#DejaVuSans-36"/>
       <use xlink:href="#DejaVuSans-34" x="63.623047"/>
      </g>
     </g>
    </g>
    <g id="text_7">
     <!-- depth D (train support: D ≤ 8; far checkpoint: D = 64, 8× train) -->
     <g style="fill: #1a1a1a" transform="translate(76.576094 306.676719) scale(0.09 -0.09)">
      <defs>
       <path id="DejaVuSans-64" d="M 2906 2969 
L 2906 4863 
L 3481 4863 
L 3481 0 
L 2906 0 
L 2906 525 
Q 2725 213 2448 61 
Q 2172 -91 1784 -91 
Q 1150 -91 751 415 
Q 353 922 353 1747 
Q 353 2572 751 3078 
Q 1150 3584 1784 3584 
Q 2172 3584 2448 3432 
Q 2725 3281 2906 2969 
z
M 947 1747 
Q 947 1113 1208 752 
Q 1469 391 1925 391 
Q 2381 391 2643 752 
Q 2906 1113 2906 1747 
Q 2906 2381 2643 2742 
Q 2381 3103 1925 3103 
Q 1469 3103 1208 2742 
Q 947 2381 947 1747 
z
" transform="scale(0.015625)"/>
       <path id="DejaVuSans-65" d="M 3597 1894 
L 3597 1613 
L 953 1613 
Q 991 1019 1311 708 
Q 1631 397 2203 397 
Q 2534 397 2845 478 
Q 3156 559 3463 722 
L 3463 178 
Q 3153 47 2828 -22 
Q 2503 -91 2169 -91 
Q 1331 -91 842 396 
Q 353 884 353 1716 
Q 353 2575 817 3079 
Q 1281 3584 2069 3584 
Q 2775 3584 3186 3129 
Q 3597 2675 3597 1894 
z
M 3022 2063 
Q 3016 2534 2758 2815 
Q 2500 3097 2075 3097 
Q 1594 3097 1305 2825 
Q 1016 2553 972 2059 
L 3022 2063 
z
" transform="scale(0.015625)"/>
       <path id="DejaVuSans-70" d="M 1159 525 
L 1159 -1331 
L 581 -1331 
L 581 3500 
L 1159 3500 
L 1159 2969 
Q 1341 3281 1617 3432 
Q 1894 3584 2278 3584 
Q 2916 3584 3314 3078 
Q 3713 2572 3713 1747 
Q 3713 922 3314 415 
Q 2916 -91 2278 -91 
Q 1894 -91 1617 61 
Q 1341 213 1159 525 
z
M 3116 1747 
Q 3116 2381 2855 2742 
Q 2594 3103 2138 3103 
Q 1681 3103 1420 2742 
Q 1159 2381 1159 1747 
Q 1159 1113 1420 752 
Q 1681 391 2138 391 
Q 2594 391 2855 752 
Q 3116 1113 3116 1747 
z
" transform="scale(0.015625)"/>
       <path id="DejaVuSans-74" d="M 1172 4494 
L 1172 3500 
L 2356 3500 
L 2356 3053 
L 1172 3053 
L 1172 1153 
Q 1172 725 1289 603 
Q 1406 481 1766 481 
L 2356 481 
L 2356 0 
L 1766 0 
Q 1100 0 847 248 
Q 594 497 594 1153 
L 594 3053 
L 172 3053 
L 172 3500 
L 594 3500 
L 594 4494 
L 1172 4494 
z
" transform="scale(0.015625)"/>
       <path id="DejaVuSans-68" d="M 3513 2113 
L 3513 0 
L 2938 0 
L 2938 2094 
Q 2938 2591 2744 2837 
Q 2550 3084 2163 3084 
Q 1697 3084 1428 2787 
Q 1159 2491 1159 1978 
L 1159 0 
L 581 0 
L 581 4863 
L 1159 4863 
L 1159 2956 
Q 1366 3272 1645 3428 
Q 1925 3584 2291 3584 
Q 2894 3584 3203 3211 
Q 3513 2838 3513 2113 
z
" transform="scale(0.015625)"/>
       <path id="DejaVuSans-20" transform="scale(0.015625)"/>
       <path id="DejaVuSans-44" d="M 1259 4147 
L 1259 519 
L 2022 519 
Q 2988 519 3436 956 
Q 3884 1394 3884 2338 
Q 3884 3275 3436 3711 
Q 2988 4147 2022 4147 
L 1259 4147 
z
M 628 4666 
L 1925 4666 
Q 3281 4666 3915 4102 
Q 4550 3538 4550 2338 
Q 4550 1131 3912 565 
Q 3275 0 1925 0 
L 628 0 
L 628 4666 
z
" transform="scale(0.015625)"/>
       <path id="DejaVuSans-28" d="M 1984 4856 
Q 1566 4138 1362 3434 
Q 1159 2731 1159 2009 
Q 1159 1288 1364 580 
Q 1569 -128 1984 -844 
L 1484 -844 
Q 1016 -109 783 600 
Q 550 1309 550 2009 
Q 550 2706 781 3412 
Q 1013 4119 1484 4856 
L 1984 4856 
z
" transform="scale(0.015625)"/>
       <path id="DejaVuSans-72" d="M 2631 2963 
Q 2534 3019 2420 3045 
Q 2306 3072 2169 3072 
Q 1681 3072 1420 2755 
Q 1159 2438 1159 1844 
L 1159 0 
L 581 0 
L 581 3500 
L 1159 3500 
L 1159 2956 
Q 1341 3275 1631 3429 
Q 1922 3584 2338 3584 
Q 2397 3584 2469 3576 
Q 2541 3569 2628 3553 
L 2631 2963 
z
" transform="scale(0.015625)"/>
       <path id="DejaVuSans-61" d="M 2194 1759 
Q 1497 1759 1228 1600 
Q 959 1441 959 1056 
Q 959 750 1161 570 
Q 1363 391 1709 391 
Q 2188 391 2477 730 
Q 2766 1069 2766 1631 
L 2766 1759 
L 2194 1759 
z
M 3341 1997 
L 3341 0 
L 2766 0 
L 2766 531 
Q 2569 213 2275 61 
Q 1981 -91 1556 -91 
Q 1019 -91 701 211 
Q 384 513 384 1019 
Q 384 1609 779 1909 
Q 1175 2209 1959 2209 
L 2766 2209 
L 2766 2266 
Q 2766 2663 2505 2880 
Q 2244 3097 1772 3097 
Q 1472 3097 1187 3025 
Q 903 2953 641 2809 
L 641 3341 
Q 956 3463 1253 3523 
Q 1550 3584 1831 3584 
Q 2591 3584 2966 3190 
Q 3341 2797 3341 1997 
z
" transform="scale(0.015625)"/>
       <path id="DejaVuSans-69" d="M 603 3500 
L 1178 3500 
L 1178 0 
L 603 0 
L 603 3500 
z
M 603 4863 
L 1178 4863 
L 1178 4134 
L 603 4134 
L 603 4863 
z
" transform="scale(0.015625)"/>
       <path id="DejaVuSans-6e" d="M 3513 2113 
L 3513 0 
L 2938 0 
L 2938 2094 
Q 2938 2591 2744 2837 
Q 2550 3084 2163 3084 
Q 1697 3084 1428 2787 
Q 1159 2491 1159 1978 
L 1159 0 
L 581 0 
L 581 3500 
L 1159 3500 
L 1159 2956 
Q 1366 3272 1645 3428 
Q 1925 3584 2291 3584 
Q 2894 3584 3203 3211 
Q 3513 2838 3513 2113 
z
" transform="scale(0.015625)"/>
       <path id="DejaVuSans-73" d="M 2834 3397 
L 2834 2853 
Q 2591 2978 2328 3040 
Q 2066 3103 1784 3103 
Q 1356 3103 1142 2972 
Q 928 2841 928 2578 
Q 928 2378 1081 2264 
Q 1234 2150 1697 2047 
L 1894 2003 
Q 2506 1872 2764 1633 
Q 3022 1394 3022 966 
Q 3022 478 2636 193 
Q 2250 -91 1575 -91 
Q 1294 -91 989 -36 
Q 684 19 347 128 
L 347 722 
Q 666 556 975 473 
Q 1284 391 1588 391 
Q 1994 391 2212 530 
Q 2431 669 2431 922 
Q 2431 1156 2273 1281 
Q 2116 1406 1581 1522 
L 1381 1569 
Q 847 1681 609 1914 
Q 372 2147 372 2553 
Q 372 3047 722 3315 
Q 1072 3584 1716 3584 
Q 2034 3584 2315 3537 
Q 2597 3491 2834 3397 
z
" transform="scale(0.015625)"/>
       <path id="DejaVuSans-75" d="M 544 1381 
L 544 3500 
L 1119 3500 
L 1119 1403 
Q 1119 906 1312 657 
Q 1506 409 1894 409 
Q 2359 409 2629 706 
Q 2900 1003 2900 1516 
L 2900 3500 
L 3475 3500 
L 3475 0 
L 2900 0 
L 2900 538 
Q 2691 219 2414 64 
Q 2138 -91 1772 -91 
Q 1169 -91 856 284 
Q 544 659 544 1381 
z
M 1991 3584 
L 1991 3584 
z
" transform="scale(0.015625)"/>
       <path id="DejaVuSans-6f" d="M 1959 3097 
Q 1497 3097 1228 2736 
Q 959 2375 959 1747 
Q 959 1119 1226 758 
Q 1494 397 1959 397 
Q 2419 397 2687 759 
Q 2956 1122 2956 1747 
Q 2956 2369 2687 2733 
Q 2419 3097 1959 3097 
z
M 1959 3584 
Q 2709 3584 3137 3096 
Q 3566 2609 3566 1747 
Q 3566 888 3137 398 
Q 2709 -91 1959 -91 
Q 1206 -91 779 398 
Q 353 888 353 1747 
Q 353 2609 779 3096 
Q 1206 3584 1959 3584 
z
" transform="scale(0.015625)"/>
       <path id="DejaVuSans-3a" d="M 750 794 
L 1409 794 
L 1409 0 
L 750 0 
L 750 794 
z
M 750 3309 
L 1409 3309 
L 1409 2516 
L 750 2516 
L 750 3309 
z
" transform="scale(0.015625)"/>
       <path id="DejaVuSans-2264" d="M 4684 3175 
L 1684 2309 
L 4684 1453 
L 4684 897 
L 678 2047 
L 678 2578 
L 4684 3725 
L 4684 3175 
z
M 678 531 
L 4684 531 
L 4684 0 
L 678 0 
L 678 531 
z
" transform="scale(0.015625)"/>
       <path id="DejaVuSans-3b" d="M 750 3309 
L 1409 3309 
L 1409 2516 
L 750 2516 
L 750 3309 
z
M 750 794 
L 1409 794 
L 1409 256 
L 897 -744 
L 494 -744 
L 750 256 
L 750 794 
z
" transform="scale(0.015625)"/>
       <path id="DejaVuSans-66" d="M 2375 4863 
L 2375 4384 
L 1825 4384 
Q 1516 4384 1395 4259 
Q 1275 4134 1275 3809 
L 1275 3500 
L 2222 3500 
L 2222 3053 
L 1275 3053 
L 1275 0 
L 697 0 
L 697 3053 
L 147 3053 
L 147 3500 
L 697 3500 
L 697 3744 
Q 697 4328 969 4595 
Q 1241 4863 1831 4863 
L 2375 4863 
z
" transform="scale(0.015625)"/>
       <path id="DejaVuSans-63" d="M 3122 3366 
L 3122 2828 
Q 2878 2963 2633 3030 
Q 2388 3097 2138 3097 
Q 1578 3097 1268 2742 
Q 959 2388 959 1747 
Q 959 1106 1268 751 
Q 1578 397 2138 397 
Q 2388 397 2633 464 
Q 2878 531 3122 666 
L 3122 134 
Q 2881 22 2623 -34 
Q 2366 -91 2075 -91 
Q 1284 -91 818 406 
Q 353 903 353 1747 
Q 353 2603 823 3093 
Q 1294 3584 2113 3584 
Q 2378 3584 2631 3529 
Q 2884 3475 3122 3366 
z
" transform="scale(0.015625)"/>
       <path id="DejaVuSans-6b" d="M 581 4863 
L 1159 4863 
L 1159 1991 
L 2875 3500 
L 3609 3500 
L 1753 1863 
L 3688 0 
L 2938 0 
L 1159 1709 
L 1159 0 
L 581 0 
L 581 4863 
z
" transform="scale(0.015625)"/>
       <path id="DejaVuSans-3d" d="M 678 2906 
L 4684 2906 
L 4684 2381 
L 678 2381 
L 678 2906 
z
M 678 1631 
L 4684 1631 
L 4684 1100 
L 678 1100 
L 678 1631 
z
" transform="scale(0.015625)"/>
       <path id="DejaVuSans-2c" d="M 750 794 
L 1409 794 
L 1409 256 
L 897 -744 
L 494 -744 
L 750 256 
L 750 794 
z
" transform="scale(0.015625)"/>
       <path id="DejaVuSans-d7" d="M 4488 3438 
L 3059 2003 
L 4488 575 
L 4116 197 
L 2681 1631 
L 1247 197 
L 878 575 
L 2303 2003 
L 878 3438 
L 1247 3816 
L 2681 2381 
L 4116 3816 
L 4488 3438 
z
" transform="scale(0.015625)"/>
       <path id="DejaVuSans-29" d="M 513 4856 
L 1013 4856 
Q 1481 4119 1714 3412 
Q 1947 2706 1947 2009 
Q 1947 1309 1714 600 
Q 1481 -109 1013 -844 
L 513 -844 
Q 928 -128 1133 580 
Q 1338 1288 1338 2009 
Q 1338 2731 1133 3434 
Q 928 4138 513 4856 
z
" transform="scale(0.015625)"/>
      </defs>
      <use xlink:href="#DejaVuSans-64"/>
      <use xlink:href="#DejaVuSans-65" x="63.476562"/>
      <use xlink:href="#DejaVuSans-70" x="125"/>
      <use xlink:href="#DejaVuSans-74" x="188.476562"/>
      <use xlink:href="#DejaVuSans-68" x="227.685547"/>
      <use xlink:href="#DejaVuSans-20" x="291.064453"/>
      <use xlink:href="#DejaVuSans-44" x="322.851562"/>
      <use xlink:href="#DejaVuSans-20" x="399.853516"/>
      <use xlink:href="#DejaVuSans-28" x="431.640625"/>
      <use xlink:href="#DejaVuSans-74" x="470.654297"/>
      <use xlink:href="#DejaVuSans-72" x="509.863281"/>
      <use xlink:href="#DejaVuSans-61" x="550.976562"/>
      <use xlink:href="#DejaVuSans-69" x="612.255859"/>
      <use xlink:href="#DejaVuSans-6e" x="640.039062"/>
      <use xlink:href="#DejaVuSans-20" x="703.417969"/>
      <use xlink:href="#DejaVuSans-73" x="735.205078"/>
      <use xlink:href="#DejaVuSans-75" x="787.304688"/>
      <use xlink:href="#DejaVuSans-70" x="850.683594"/>
      <use xlink:href="#DejaVuSans-70" x="914.160156"/>
      <use xlink:href="#DejaVuSans-6f" x="977.636719"/>
      <use xlink:href="#DejaVuSans-72" x="1038.818359"/>
      <use xlink:href="#DejaVuSans-74" x="1079.931641"/>
      <use xlink:href="#DejaVuSans-3a" x="1119.140625"/>
      <use xlink:href="#DejaVuSans-20" x="1152.832031"/>
      <use xlink:href="#DejaVuSans-44" x="1184.619141"/>
      <use xlink:href="#DejaVuSans-20" x="1261.621094"/>
      <use xlink:href="#DejaVuSans-2264" x="1293.408203"/>
      <use xlink:href="#DejaVuSans-20" x="1377.197266"/>
      <use xlink:href="#DejaVuSans-38" x="1408.984375"/>
      <use xlink:href="#DejaVuSans-3b" x="1472.607422"/>
      <use xlink:href="#DejaVuSans-20" x="1506.298828"/>
      <use xlink:href="#DejaVuSans-66" x="1538.085938"/>
      <use xlink:href="#DejaVuSans-61" x="1573.291016"/>
      <use xlink:href="#DejaVuSans-72" x="1634.570312"/>
      <use xlink:href="#DejaVuSans-20" x="1675.683594"/>
      <use xlink:href="#DejaVuSans-63" x="1707.470703"/>
      <use xlink:href="#DejaVuSans-68" x="1762.451172"/>
      <use xlink:href="#DejaVuSans-65" x="1825.830078"/>
      <use xlink:href="#DejaVuSans-63" x="1887.353516"/>
      <use xlink:href="#DejaVuSans-6b" x="1942.333984"/>
      <use xlink:href="#DejaVuSans-70" x="2000.244141"/>
      <use xlink:href="#DejaVuSans-6f" x="2063.720703"/>
      <use xlink:href="#DejaVuSans-69" x="2124.902344"/>
      <use xlink:href="#DejaVuSans-6e" x="2152.685547"/>
      <use xlink:href="#DejaVuSans-74" x="2216.064453"/>
      <use xlink:href="#DejaVuSans-3a" x="2255.273438"/>
      <use xlink:href="#DejaVuSans-20" x="2288.964844"/>
      <use xlink:href="#DejaVuSans-44" x="2320.751953"/>
      <use xlink:href="#DejaVuSans-20" x="2397.753906"/>
      <use xlink:href="#DejaVuSans-3d" x="2429.541016"/>
      <use xlink:href="#DejaVuSans-20" x="2513.330078"/>
      <use xlink:href="#DejaVuSans-36" x="2545.117188"/>
      <use xlink:href="#DejaVuSans-34" x="2608.740234"/>
      <use xlink:href="#DejaVuSans-2c" x="2672.363281"/>
      <use xlink:href="#DejaVuSans-20" x="2704.150391"/>
      <use xlink:href="#DejaVuSans-38" x="2735.9375"/>
      <use xlink:href="#DejaVuSans-d7" x="2799.560547"/>
      <use xlink:href="#DejaVuSans-20" x="2883.349609"/>
      <use xlink:href="#DejaVuSans-74" x="2915.136719"/>
      <use xlink:href="#DejaVuSans-72" x="2954.345703"/>
      <use xlink:href="#DejaVuSans-61" x="2995.458984"/>
      <use xlink:href="#DejaVuSans-69" x="3056.738281"/>
      <use xlink:href="#DejaVuSans-6e" x="3084.521484"/>
      <use xlink:href="#DejaVuSans-29" x="3147.900391"/>
     </g>
    </g>
   </g>
   <g id="matplotlib.axis_2">
    <g id="ytick_1">
     <g id="line2d_13">
      <path d="M 45.561563 265.214867 
L 394.406562 265.214867 
" clip-path="url(#pfbe404cb9c)" style="fill: none; stroke: #1a1a1a; stroke-opacity: 0.22; stroke-width: 0.5; stroke-linecap: square"/>
     </g>
     <g id="line2d_14">
      <defs>
       <path id="mf4321bac1e" d="M 0 0 
L -3.5 0 
" style="stroke: #1a1a1a; stroke-width: 0.8"/>
      </defs>
      <g>
       <use xlink:href="#mf4321bac1e" x="45.561563" y="265.214867" style="fill: #1a1a1a; stroke: #1a1a1a; stroke-width: 0.8"/>
      </g>
     </g>
     <g id="text_8">
      <!-- 0.0 -->
      <g style="fill: #1a1a1a" transform="translate(22.658438 269.014086) scale(0.1 -0.1)">
       <defs>
        <path id="DejaVuSans-30" d="M 2034 4250 
Q 1547 4250 1301 3770 
Q 1056 3291 1056 2328 
Q 1056 1369 1301 889 
Q 1547 409 2034 409 
Q 2525 409 2770 889 
Q 3016 1369 3016 2328 
Q 3016 3291 2770 3770 
Q 2525 4250 2034 4250 
z
M 2034 4750 
Q 2819 4750 3233 4129 
Q 3647 3509 3647 2328 
Q 3647 1150 3233 529 
Q 2819 -91 2034 -91 
Q 1250 -91 836 529 
Q 422 1150 422 2328 
Q 422 3509 836 4129 
Q 1250 4750 2034 4750 
z
" transform="scale(0.015625)"/>
        <path id="DejaVuSans-2e" d="M 684 794 
L 1344 794 
L 1344 0 
L 684 0 
L 684 794 
z
" transform="scale(0.015625)"/>
       </defs>
       <use xlink:href="#DejaVuSans-30"/>
       <use xlink:href="#DejaVuSans-2e" x="63.623047"/>
       <use xlink:href="#DejaVuSans-30" x="95.410156"/>
      </g>
     </g>
    </g>
    <g id="ytick_2">
     <g id="line2d_15">
      <path d="M 45.561563 217.434336 
L 394.406562 217.434336 
" clip-path="url(#pfbe404cb9c)" style="fill: none; stroke: #1a1a1a; stroke-opacity: 0.22; stroke-width: 0.5; stroke-linecap: square"/>
     </g>
     <g id="line2d_16">
      <g>
       <use xlink:href="#mf4321bac1e" x="45.561563" y="217.434336" style="fill: #1a1a1a; stroke: #1a1a1a; stroke-width: 0.8"/>
      </g>
     </g>
     <g id="text_9">
      <!-- 0.2 -->
      <g style="fill: #1a1a1a" transform="translate(22.658438 221.233555) scale(0.1 -0.1)">
       <use xlink:href="#DejaVuSans-30"/>
       <use xlink:href="#DejaVuSans-2e" x="63.623047"/>
       <use xlink:href="#DejaVuSans-32" x="95.410156"/>
      </g>
     </g>
    </g>
    <g id="ytick_3">
     <g id="line2d_17">
      <path d="M 45.561563 169.653805 
L 394.406562 169.653805 
" clip-path="url(#pfbe404cb9c)" style="fill: none; stroke: #1a1a1a; stroke-opacity: 0.22; stroke-width: 0.5; stroke-linecap: square"/>
     </g>
     <g id="line2d_18">
      <g>
       <use xlink:href="#mf4321bac1e" x="45.561563" y="169.653805" style="fill: #1a1a1a; stroke: #1a1a1a; stroke-width: 0.8"/>
      </g>
     </g>
     <g id="text_10">
      <!-- 0.4 -->
      <g style="fill: #1a1a1a" transform="translate(22.658438 173.453024) scale(0.1 -0.1)">
       <use xlink:href="#DejaVuSans-30"/>
       <use xlink:href="#DejaVuSans-2e" x="63.623047"/>
       <use xlink:href="#DejaVuSans-34" x="95.410156"/>
      </g>
     </g>
    </g>
    <g id="ytick_4">
     <g id="line2d_19">
      <path d="M 45.561563 121.873274 
L 394.406562 121.873274 
" clip-path="url(#pfbe404cb9c)" style="fill: none; stroke: #1a1a1a; stroke-opacity: 0.22; stroke-width: 0.5; stroke-linecap: square"/>
     </g>
     <g id="line2d_20">
      <g>
       <use xlink:href="#mf4321bac1e" x="45.561563" y="121.873274" style="fill: #1a1a1a; stroke: #1a1a1a; stroke-width: 0.8"/>
      </g>
     </g>
     <g id="text_11">
      <!-- 0.6 -->
      <g style="fill: #1a1a1a" transform="translate(22.658438 125.672493) scale(0.1 -0.1)">
       <use xlink:href="#DejaVuSans-30"/>
       <use xlink:href="#DejaVuSans-2e" x="63.623047"/>
       <use xlink:href="#DejaVuSans-36" x="95.410156"/>
      </g>
     </g>
    </g>
    <g id="ytick_5">
     <g id="line2d_21">
      <path d="M 45.561563 74.092743 
L 394.406562 74.092743 
" clip-path="url(#pfbe404cb9c)" style="fill: none; stroke: #1a1a1a; stroke-opacity: 0.22; stroke-width: 0.5; stroke-linecap: square"/>
     </g>
     <g id="line2d_22">
      <g>
       <use xlink:href="#mf4321bac1e" x="45.561563" y="74.092743" style="fill: #1a1a1a; stroke: #1a1a1a; stroke-width: 0.8"/>
      </g>
     </g>
     <g id="text_12">
      <!-- 0.8 -->
      <g style="fill: #1a1a1a" transform="translate(22.658438 77.891962) scale(0.1 -0.1)">
       <use xlink:href="#DejaVuSans-30"/>
       <use xlink:href="#DejaVuSans-2e" x="63.623047"/>
       <use xlink:href="#DejaVuSans-38" x="95.410156"/>
      </g>
     </g>
    </g>
    <g id="ytick_6">
     <g id="line2d_23">
      <path d="M 45.561563 26.312212 
L 394.406562 26.312212 
" clip-path="url(#pfbe404cb9c)" style="fill: none; stroke: #1a1a1a; stroke-opacity: 0.22; stroke-width: 0.5; stroke-linecap: square"/>
     </g>
     <g id="line2d_24">
      <g>
       <use xlink:href="#mf4321bac1e" x="45.561563" y="26.312212" style="fill: #1a1a1a; stroke: #1a1a1a; stroke-width: 0.8"/>
      </g>
     </g>
     <g id="text_13">
      <!-- 1.0 -->
      <g style="fill: #1a1a1a" transform="translate(22.658438 30.111431) scale(0.1 -0.1)">
       <use xlink:href="#DejaVuSans-31"/>
       <use xlink:href="#DejaVuSans-2e" x="63.623047"/>
       <use xlink:href="#DejaVuSans-30" x="95.410156"/>
      </g>
     </g>
    </g>
    <g id="text_14">
     <!-- crosscheck recovered_frac@0.9 (mean ± 1σ) -->
     <g style="fill: #1a1a1a" transform="translate(14.418516 249.259844) rotate(-90) scale(0.095 -0.095)">
      <defs>
       <path id="DejaVuSans-76" d="M 191 3500 
L 800 3500 
L 1894 563 
L 2988 3500 
L 3597 3500 
L 2284 0 
L 1503 0 
L 191 3500 
z
" transform="scale(0.015625)"/>
       <path id="DejaVuSans-5f" d="M 3263 -1063 
L 3263 -1509 
L -63 -1509 
L -63 -1063 
L 3263 -1063 
z
" transform="scale(0.015625)"/>
       <path id="DejaVuSans-40" d="M 2381 1678 
Q 2381 1231 2603 976 
Q 2825 722 3213 722 
Q 3597 722 3817 978 
Q 4038 1234 4038 1678 
Q 4038 2116 3813 2373 
Q 3588 2631 3206 2631 
Q 2828 2631 2604 2375 
Q 2381 2119 2381 1678 
z
M 4084 744 
Q 3897 503 3655 389 
Q 3413 275 3091 275 
Q 2553 275 2217 664 
Q 1881 1053 1881 1678 
Q 1881 2303 2218 2693 
Q 2556 3084 3091 3084 
Q 3413 3084 3656 2967 
Q 3900 2850 4084 2613 
L 4084 3022 
L 4531 3022 
L 4531 722 
Q 4988 791 5245 1139 
Q 5503 1488 5503 2041 
Q 5503 2375 5404 2669 
Q 5306 2963 5106 3213 
Q 4781 3622 4314 3839 
Q 3847 4056 3297 4056 
Q 2913 4056 2559 3954 
Q 2206 3853 1906 3653 
Q 1416 3334 1139 2817 
Q 863 2300 863 1697 
Q 863 1200 1042 765 
Q 1222 331 1563 0 
Q 1891 -325 2322 -495 
Q 2753 -666 3244 -666 
Q 3647 -666 4036 -530 
Q 4425 -394 4750 -141 
L 5031 -488 
Q 4641 -791 4180 -952 
Q 3719 -1113 3244 -1113 
Q 2666 -1113 2153 -908 
Q 1641 -703 1241 -313 
Q 841 78 631 592 
Q 422 1106 422 1697 
Q 422 2266 634 2781 
Q 847 3297 1241 3688 
Q 1644 4084 2172 4295 
Q 2700 4506 3291 4506 
Q 3953 4506 4520 4234 
Q 5088 3963 5472 3463 
Q 5706 3156 5829 2797 
Q 5953 2438 5953 2053 
Q 5953 1231 5456 756 
Q 4959 281 4084 263 
L 4084 744 
z
" transform="scale(0.015625)"/>
       <path id="DejaVuSans-39" d="M 703 97 
L 703 672 
Q 941 559 1184 500 
Q 1428 441 1663 441 
Q 2288 441 2617 861 
Q 2947 1281 2994 2138 
Q 2813 1869 2534 1725 
Q 2256 1581 1919 1581 
Q 1219 1581 811 2004 
Q 403 2428 403 3163 
Q 403 3881 828 4315 
Q 1253 4750 1959 4750 
Q 2769 4750 3195 4129 
Q 3622 3509 3622 2328 
Q 3622 1225 3098 567 
Q 2575 -91 1691 -91 
Q 1453 -91 1209 -44 
Q 966 3 703 97 
z
M 1959 2075 
Q 2384 2075 2632 2365 
Q 2881 2656 2881 3163 
Q 2881 3666 2632 3958 
Q 2384 4250 1959 4250 
Q 1534 4250 1286 3958 
Q 1038 3666 1038 3163 
Q 1038 2656 1286 2365 
Q 1534 2075 1959 2075 
z
" transform="scale(0.015625)"/>
       <path id="DejaVuSans-6d" d="M 3328 2828 
Q 3544 3216 3844 3400 
Q 4144 3584 4550 3584 
Q 5097 3584 5394 3201 
Q 5691 2819 5691 2113 
L 5691 0 
L 5113 0 
L 5113 2094 
Q 5113 2597 4934 2840 
Q 4756 3084 4391 3084 
Q 3944 3084 3684 2787 
Q 3425 2491 3425 1978 
L 3425 0 
L 2847 0 
L 2847 2094 
Q 2847 2600 2669 2842 
Q 2491 3084 2119 3084 
Q 1678 3084 1418 2786 
Q 1159 2488 1159 1978 
L 1159 0 
L 581 0 
L 581 3500 
L 1159 3500 
L 1159 2956 
Q 1356 3278 1631 3431 
Q 1906 3584 2284 3584 
Q 2666 3584 2933 3390 
Q 3200 3197 3328 2828 
z
" transform="scale(0.015625)"/>
       <path id="DejaVuSans-b1" d="M 2944 4013 
L 2944 2803 
L 4684 2803 
L 4684 2272 
L 2944 2272 
L 2944 1063 
L 2419 1063 
L 2419 2272 
L 678 2272 
L 678 2803 
L 2419 2803 
L 2419 4013 
L 2944 4013 
z
M 678 531 
L 4684 531 
L 4684 0 
L 678 0 
L 678 531 
z
" transform="scale(0.015625)"/>
       <path id="DejaVuSans-3c3" d="M 1959 3044 
Q 1484 3044 1228 2700 
Q 959 2341 959 1747 
Q 959 1119 1226 758 
Q 1494 397 1959 397 
Q 2419 397 2687 759 
Q 2956 1122 2956 1747 
Q 2956 2319 2688 2700 
Q 2441 3044 1959 3044 
z
M 1959 3500 
L 3869 3500 
L 3869 2925 
L 3225 2925 
Q 3566 2438 3566 1747 
Q 3566 888 3138 400 
Q 2709 -91 1959 -91 
Q 1206 -91 781 400 
Q 353 888 353 1747 
Q 353 2613 781 3097 
Q 1134 3500 1959 3500 
z
" transform="scale(0.015625)"/>
      </defs>
      <use xlink:href="#DejaVuSans-63"/>
      <use xlink:href="#DejaVuSans-72" x="54.980469"/>
      <use xlink:href="#DejaVuSans-6f" x="93.84375"/>
      <use xlink:href="#DejaVuSans-73" x="155.025391"/>
      <use xlink:href="#DejaVuSans-73" x="207.125"/>
      <use xlink:href="#DejaVuSans-63" x="259.224609"/>
      <use xlink:href="#DejaVuSans-68" x="314.205078"/>
      <use xlink:href="#DejaVuSans-65" x="377.583984"/>
      <use xlink:href="#DejaVuSans-63" x="439.107422"/>
      <use xlink:href="#DejaVuSans-6b" x="494.087891"/>
      <use xlink:href="#DejaVuSans-20" x="551.998047"/>
      <use xlink:href="#DejaVuSans-72" x="583.785156"/>
      <use xlink:href="#DejaVuSans-65" x="622.648438"/>
      <use xlink:href="#DejaVuSans-63" x="684.171875"/>
      <use xlink:href="#DejaVuSans-6f" x="739.152344"/>
      <use xlink:href="#DejaVuSans-76" x="800.333984"/>
      <use xlink:href="#DejaVuSans-65" x="859.513672"/>
      <use xlink:href="#DejaVuSans-72" x="921.037109"/>
      <use xlink:href="#DejaVuSans-65" x="959.900391"/>
      <use xlink:href="#DejaVuSans-64" x="1021.423828"/>
      <use xlink:href="#DejaVuSans-5f" x="1084.900391"/>
      <use xlink:href="#DejaVuSans-66" x="1134.900391"/>
      <use xlink:href="#DejaVuSans-72" x="1170.105469"/>
      <use xlink:href="#DejaVuSans-61" x="1211.21875"/>
      <use xlink:href="#DejaVuSans-63" x="1272.498047"/>
      <use xlink:href="#DejaVuSans-40" x="1327.478516"/>
      <use xlink:href="#DejaVuSans-30" x="1427.478516"/>
      <use xlink:href="#DejaVuSans-2e" x="1491.101562"/>
      <use xlink:href="#DejaVuSans-39" x="1522.888672"/>
      <use xlink:href="#DejaVuSans-20" x="1586.511719"/>
      <use xlink:href="#DejaVuSans-28" x="1618.298828"/>
      <use xlink:href="#DejaVuSans-6d" x="1657.3125"/>
      <use xlink:href="#DejaVuSans-65" x="1754.724609"/>
      <use xlink:href="#DejaVuSans-61" x="1816.248047"/>
      <use xlink:href="#DejaVuSans-6e" x="1877.527344"/>
      <use xlink:href="#DejaVuSans-20" x="1940.90625"/>
      <use xlink:href="#DejaVuSans-b1" x="1972.693359"/>
      <use xlink:href="#DejaVuSans-20" x="2056.482422"/>
      <use xlink:href="#DejaVuSans-31" x="2088.269531"/>
      <use xlink:href="#DejaVuSans-3c3" x="2151.892578"/>
      <use xlink:href="#DejaVuSans-29" x="2215.271484"/>
     </g>
    </g>
   </g>
   <g id="PolyCollection_1">
    <defs>
     <path id="m0ffd53d513" d="M 112.647139 -104.924753 
L 112.647139 -50.53357 
L 134.243871 -50.53357 
L 151.889686 -50.53357 
L 166.80901 -50.53357 
L 179.732716 -50.53357 
L 191.132233 -50.53357 
L 201.329448 -50.53357 
L 218.975263 -50.53357 
L 233.894587 -50.53357 
L 246.818293 -50.53357 
L 268.415025 -50.53357 
L 286.06084 -50.53357 
L 313.90387 -50.53357 
L 353.146417 -50.53357 
L 380.989447 -50.53357 
L 380.989447 -50.53357 
L 380.989447 -50.53357 
L 353.146417 -50.53357 
L 313.90387 -50.53357 
L 286.06084 -50.53357 
L 268.415025 -50.53357 
L 246.818293 -50.53357 
L 233.894587 -50.53357 
L 218.975263 -50.53357 
L 201.329448 -61.411807 
L 191.132233 -50.53357 
L 179.732716 -50.53357 
L 166.80901 -50.53357 
L 151.889686 -74.423836 
L 134.243871 -72.290043 
L 112.647139 -104.924753 
z
" style="stroke: #56b4e9; stroke-opacity: 0.15"/>
    </defs>
    <g clip-path="url(#pfbe404cb9c)">
     <use xlink:href="#m0ffd53d513" x="0" y="315.748437" style="fill: #56b4e9; fill-opacity: 0.15; stroke: #56b4e9; stroke-opacity: 0.15"/>
    </g>
   </g>
   <g id="PolyCollection_2">
    <defs>
     <path id="mfa1d491f7b" d="M 112.647139 -245.833209 
L 112.647139 -137.139064 
L 134.243871 -101.983051 
L 151.889686 -88.188453 
L 166.80901 -57.6154 
L 179.732716 -65.005865 
L 191.132233 -65.679392 
L 201.329448 -62.478703 
L 218.975263 -51.230679 
L 233.894587 -51.158031 
L 246.818293 -50.53357 
L 268.415025 -50.53357 
L 286.06084 -50.53357 
L 313.90387 -50.53357 
L 353.146417 -50.53357 
L 380.989447 -50.53357 
L 380.989447 -50.53357 
L 380.989447 -50.53357 
L 353.146417 -50.53357 
L 313.90387 -50.53357 
L 286.06084 -50.53357 
L 268.415025 -58.264623 
L 246.818293 -50.53357 
L 233.894587 -64.243269 
L 218.975263 -83.282833 
L 201.329448 -110.259234 
L 191.132233 -107.058545 
L 179.732716 -126.844284 
L 166.80901 -158.125015 
L 151.889686 -204.000812 
L 134.243871 -185.428161 
L 112.647139 -245.833209 
z
" style="stroke: #e69f00; stroke-opacity: 0.15"/>
    </defs>
    <g clip-path="url(#pfbe404cb9c)">
     <use xlink:href="#mfa1d491f7b" x="0" y="315.748437" style="fill: #e69f00; fill-opacity: 0.15; stroke: #e69f00; stroke-opacity: 0.15"/>
    </g>
   </g>
   <g id="PolyCollection_3">
    <defs>
     <path id="m9314fc925c" d="M 112.647139 -289.436225 
L 112.647139 -289.436225 
L 134.243871 -289.436225 
L 151.889686 -289.436225 
L 166.80901 -289.436225 
L 179.732716 -289.436225 
L 191.132233 -289.436225 
L 201.329448 -289.436225 
L 218.975263 -289.436225 
L 233.894587 -289.436225 
L 246.818293 -289.436225 
L 268.415025 -289.436225 
L 286.06084 -289.436225 
L 313.90387 -289.436225 
L 353.146417 -289.436225 
L 380.989447 -289.436225 
L 380.989447 -289.436225 
L 380.989447 -289.436225 
L 353.146417 -289.436225 
L 313.90387 -289.436225 
L 286.06084 -289.436225 
L 268.415025 -289.436225 
L 246.818293 -289.436225 
L 233.894587 -289.436225 
L 218.975263 -289.436225 
L 201.329448 -289.436225 
L 191.132233 -289.436225 
L 179.732716 -289.436225 
L 166.80901 -289.436225 
L 151.889686 -289.436225 
L 134.243871 -289.436225 
L 112.647139 -289.436225 
z
" style="stroke: #d55e00; stroke-opacity: 0.15"/>
    </defs>
    <g clip-path="url(#pfbe404cb9c)">
     <use xlink:href="#m9314fc925c" x="0" y="315.748437" style="fill: #d55e00; fill-opacity: 0.15; stroke: #d55e00; stroke-opacity: 0.15"/>
    </g>
   </g>
   <g id="line2d_25">
    <path d="M 185.600212 277.16 
L 185.600212 7.2 
" clip-path="url(#pfbe404cb9c)" style="fill: none; stroke-dasharray: 0.8,1.32; stroke-dashoffset: 0; stroke: #1a1a1a; stroke-opacity: 0.6; stroke-width: 0.8"/>
   </g>
   <g id="patch_3">
    <path d="M 45.561563 277.16 
L 45.561563 7.2 
" style="fill: none; stroke: #1a1a1a; stroke-linejoin: miter; stroke-linecap: square"/>
   </g>
   <g id="patch_4">
    <path d="M 394.406562 277.16 
L 394.406562 7.2 
" style="fill: none; stroke: #1a1a1a; stroke-linejoin: miter; stroke-linecap: square"/>
   </g>
   <g id="patch_5">
    <path d="M 45.561563 277.16 
L 394.406562 277.16 
" style="fill: none; stroke: #1a1a1a; stroke-linejoin: miter; stroke-linecap: square"/>
   </g>
   <g id="patch_6">
    <path d="M 45.561563 7.2 
L 394.406562 7.2 
" style="fill: none; stroke: #1a1a1a; stroke-linejoin: miter; stroke-linecap: square"/>
   </g>
   <g id="line2d_26">
    <path d="M 112.647139 245.306313 
L 134.243871 257.251445 
L 151.889686 253.269735 
L 166.80901 265.214867 
L 179.732716 265.214867 
L 191.132233 265.214867 
L 201.329448 261.233156 
L 218.975263 265.214867 
L 233.894587 265.214867 
L 246.818293 265.214867 
L 268.415025 265.214867 
L 286.06084 265.214867 
L 313.90387 265.214867 
L 353.146417 265.214867 
L 380.989447 265.214867 
" clip-path="url(#pfbe404cb9c)" style="fill: none; stroke: #56b4e9; stroke-width: 1.8; stroke-linecap: square"/>
    <defs>
     <path id="ma30cfa7f3f" d="M 0 -2.25 
L -2.25 2.25 
L 2.25 2.25 
z
" style="stroke: #56b4e9; stroke-linejoin: miter"/>
    </defs>
    <g clip-path="url(#pfbe404cb9c)">
     <use xlink:href="#ma30cfa7f3f" x="112.647139" y="245.306313" style="fill: #56b4e9; stroke: #56b4e9; stroke-linejoin: miter"/>
     <use xlink:href="#ma30cfa7f3f" x="134.243871" y="257.251445" style="fill: #56b4e9; stroke: #56b4e9; stroke-linejoin: miter"/>
     <use xlink:href="#ma30cfa7f3f" x="151.889686" y="253.269735" style="fill: #56b4e9; stroke: #56b4e9; stroke-linejoin: miter"/>
     <use xlink:href="#ma30cfa7f3f" x="166.80901" y="265.214867" style="fill: #56b4e9; stroke: #56b4e9; stroke-linejoin: miter"/>
     <use xlink:href="#ma30cfa7f3f" x="179.732716" y="265.214867" style="fill: #56b4e9; stroke: #56b4e9; stroke-linejoin: miter"/>
     <use xlink:href="#ma30cfa7f3f" x="191.132233" y="265.214867" style="fill: #56b4e9; stroke: #56b4e9; stroke-linejoin: miter"/>
     <use xlink:href="#ma30cfa7f3f" x="201.329448" y="261.233156" style="fill: #56b4e9; stroke: #56b4e9; stroke-linejoin: miter"/>
     <use xlink:href="#ma30cfa7f3f" x="218.975263" y="265.214867" style="fill: #56b4e9; stroke: #56b4e9; stroke-linejoin: miter"/>
     <use xlink:href="#ma30cfa7f3f" x="233.894587" y="265.214867" style="fill: #56b4e9; stroke: #56b4e9; stroke-linejoin: miter"/>
     <use xlink:href="#ma30cfa7f3f" x="246.818293" y="265.214867" style="fill: #56b4e9; stroke: #56b4e9; stroke-linejoin: miter"/>
     <use xlink:href="#ma30cfa7f3f" x="268.415025" y="265.214867" style="fill: #56b4e9; stroke: #56b4e9; stroke-linejoin: miter"/>
     <use xlink:href="#ma30cfa7f3f" x="286.06084" y="265.214867" style="fill: #56b4e9; stroke: #56b4e9; stroke-linejoin: miter"/>
     <use xlink:href="#ma30cfa7f3f" x="313.90387" y="265.214867" style="fill: #56b4e9; stroke: #56b4e9; stroke-linejoin: miter"/>
     <use xlink:href="#ma30cfa7f3f" x="353.146417" y="265.214867" style="fill: #56b4e9; stroke: #56b4e9; stroke-linejoin: miter"/>
     <use xlink:href="#ma30cfa7f3f" x="380.989447" y="265.214867" style="fill: #56b4e9; stroke: #56b4e9; stroke-linejoin: miter"/>
    </g>
   </g>
   <g id="line2d_27">
    <path d="M 112.647139 124.262301 
L 134.243871 172.042832 
L 151.889686 169.653805 
L 166.80901 207.87823 
L 179.732716 219.823363 
L 191.132233 229.379469 
L 201.329448 229.379469 
L 218.975263 248.491681 
L 233.894587 258.047788 
L 246.818293 265.214867 
L 268.415025 262.825841 
L 286.06084 265.214867 
L 313.90387 265.214867 
L 353.146417 265.214867 
L 380.989447 265.214867 
" clip-path="url(#pfbe404cb9c)" style="fill: none; stroke: #e69f00; stroke-width: 1.8; stroke-linecap: square"/>
    <defs>
     <path id="m01651c7536" d="M -2.25 2.25 
L 2.25 2.25 
L 2.25 -2.25 
L -2.25 -2.25 
z
" style="stroke: #e69f00; stroke-linejoin: miter"/>
    </defs>
    <g clip-path="url(#pfbe404cb9c)">
     <use xlink:href="#m01651c7536" x="112.647139" y="124.262301" style="fill: #e69f00; stroke: #e69f00; stroke-linejoin: miter"/>
     <use xlink:href="#m01651c7536" x="134.243871" y="172.042832" style="fill: #e69f00; stroke: #e69f00; stroke-linejoin: miter"/>
     <use xlink:href="#m01651c7536" x="151.889686" y="169.653805" style="fill: #e69f00; stroke: #e69f00; stroke-linejoin: miter"/>
     <use xlink:href="#m01651c7536" x="166.80901" y="207.87823" style="fill: #e69f00; stroke: #e69f00; stroke-linejoin: miter"/>
     <use xlink:href="#m01651c7536" x="179.732716" y="219.823363" style="fill: #e69f00; stroke: #e69f00; stroke-linejoin: miter"/>
     <use xlink:href="#m01651c7536" x="191.132233" y="229.379469" style="fill: #e69f00; stroke: #e69f00; stroke-linejoin: miter"/>
     <use xlink:href="#m01651c7536" x="201.329448" y="229.379469" style="fill: #e69f00; stroke: #e69f00; stroke-linejoin: miter"/>
     <use xlink:href="#m01651c7536" x="218.975263" y="248.491681" style="fill: #e69f00; stroke: #e69f00; stroke-linejoin: miter"/>
     <use xlink:href="#m01651c7536" x="233.894587" y="258.047788" style="fill: #e69f00; stroke: #e69f00; stroke-linejoin: miter"/>
     <use xlink:href="#m01651c7536" x="246.818293" y="265.214867" style="fill: #e69f00; stroke: #e69f00; stroke-linejoin: miter"/>
     <use xlink:href="#m01651c7536" x="268.415025" y="262.825841" style="fill: #e69f00; stroke: #e69f00; stroke-linejoin: miter"/>
     <use xlink:href="#m01651c7536" x="286.06084" y="265.214867" style="fill: #e69f00; stroke: #e69f00; stroke-linejoin: miter"/>
     <use xlink:href="#m01651c7536" x="313.90387" y="265.214867" style="fill: #e69f00; stroke: #e69f00; stroke-linejoin: miter"/>
     <use xlink:href="#m01651c7536" x="353.146417" y="265.214867" style="fill: #e69f00; stroke: #e69f00; stroke-linejoin: miter"/>
     <use xlink:href="#m01651c7536" x="380.989447" y="265.214867" style="fill: #e69f00; stroke: #e69f00; stroke-linejoin: miter"/>
    </g>
   </g>
   <g id="line2d_28">
    <path d="M 112.647139 26.312212 
L 134.243871 26.312212 
L 151.889686 26.312212 
L 166.80901 26.312212 
L 179.732716 26.312212 
L 191.132233 26.312212 
L 201.329448 26.312212 
L 218.975263 26.312212 
L 233.894587 26.312212 
L 246.818293 26.312212 
L 268.415025 26.312212 
L 286.06084 26.312212 
L 313.90387 26.312212 
L 353.146417 26.312212 
L 380.989447 26.312212 
" clip-path="url(#pfbe404cb9c)" style="fill: none; stroke: #d55e00; stroke-width: 1.8; stroke-linecap: square"/>
    <defs>
     <path id="m65542f589f" d="M 0 2.25 
C 0.596707 2.25 1.169055 2.012926 1.59099 1.59099 
C 2.012926 1.169055 2.25 0.596707 2.25 0 
C 2.25 -0.596707 2.012926 -1.169055 1.59099 -1.59099 
C 1.169055 -2.012926 0.596707 -2.25 0 -2.25 
C -0.596707 -2.25 -1.169055 -2.012926 -1.59099 -1.59099 
C -2.012926 -1.169055 -2.25 -0.596707 -2.25 0 
C -2.25 0.596707 -2.012926 1.169055 -1.59099 1.59099 
C -1.169055 2.012926 -0.596707 2.25 0 2.25 
z
" style="stroke: #d55e00"/>
    </defs>
    <g clip-path="url(#pfbe404cb9c)">
     <use xlink:href="#m65542f589f" x="112.647139" y="26.312212" style="fill: #d55e00; stroke: #d55e00"/>
     <use xlink:href="#m65542f589f" x="134.243871" y="26.312212" style="fill: #d55e00; stroke: #d55e00"/>
     <use xlink:href="#m65542f589f" x="151.889686" y="26.312212" style="fill: #d55e00; stroke: #d55e00"/>
     <use xlink:href="#m65542f589f" x="166.80901" y="26.312212" style="fill: #d55e00; stroke: #d55e00"/>
     <use xlink:href="#m65542f589f" x="179.732716" y="26.312212" style="fill: #d55e00; stroke: #d55e00"/>
     <use xlink:href="#m65542f589f" x="191.132233" y="26.312212" style="fill: #d55e00; stroke: #d55e00"/>
     <use xlink:href="#m65542f589f" x="201.329448" y="26.312212" style="fill: #d55e00; stroke: #d55e00"/>
     <use xlink:href="#m65542f589f" x="218.975263" y="26.312212" style="fill: #d55e00; stroke: #d55e00"/>
     <use xlink:href="#m65542f589f" x="233.894587" y="26.312212" style="fill: #d55e00; stroke: #d55e00"/>
     <use xlink:href="#m65542f589f" x="246.818293" y="26.312212" style="fill: #d55e00; stroke: #d55e00"/>
     <use xlink:href="#m65542f589f" x="268.415025" y="26.312212" style="fill: #d55e00; stroke: #d55e00"/>
     <use xlink:href="#m65542f589f" x="286.06084" y="26.312212" style="fill: #d55e00; stroke: #d55e00"/>
     <use xlink:href="#m65542f589f" x="313.90387" y="26.312212" style="fill: #d55e00; stroke: #d55e00"/>
     <use xlink:href="#m65542f589f" x="353.146417" y="26.312212" style="fill: #d55e00; stroke: #d55e00"/>
     <use xlink:href="#m65542f589f" x="380.989447" y="26.312212" style="fill: #d55e00; stroke: #d55e00"/>
    </g>
   </g>
   <g id="text_15">
    <!-- train support ends -->
    <g style="fill: #5a5a5a" transform="translate(179.970848 180.291079) rotate(-90) scale(0.075 -0.075)">
     <use xlink:href="#DejaVuSans-74"/>
     <use xlink:href="#DejaVuSans-72" x="39.208984"/>
     <use xlink:href="#DejaVuSans-61" x="80.322266"/>
     <use xlink:href="#DejaVuSans-69" x="141.601562"/>
     <use xlink:href="#DejaVuSans-6e" x="169.384766"/>
     <use xlink:href="#DejaVuSans-20" x="232.763672"/>
     <use xlink:href="#DejaVuSans-73" x="264.550781"/>
     <use xlink:href="#DejaVuSans-75" x="316.650391"/>
     <use xlink:href="#DejaVuSans-70" x="380.029297"/>
     <use xlink:href="#DejaVuSans-70" x="443.505859"/>
     <use xlink:href="#DejaVuSans-6f" x="506.982422"/>
     <use xlink:href="#DejaVuSans-72" x="568.164062"/>
     <use xlink:href="#DejaVuSans-74" x="609.277344"/>
     <use xlink:href="#DejaVuSans-20" x="648.486328"/>
     <use xlink:href="#DejaVuSans-65" x="680.273438"/>
     <use xlink:href="#DejaVuSans-6e" x="741.796875"/>
     <use xlink:href="#DejaVuSans-64" x="805.175781"/>
     <use xlink:href="#DejaVuSans-73" x="868.652344"/>
    </g>
   </g>
   <g id="legend_1">
    <g id="patch_7">
     <path d="M 202.677109 162.524219 
L 388.456562 162.524219 
Q 390.156562 162.524219 390.156562 160.824219 
L 390.156562 123.535781 
Q 390.156562 121.835781 388.456562 121.835781 
L 202.677109 121.835781 
Q 200.977109 121.835781 200.977109 123.535781 
L 200.977109 160.824219 
Q 200.977109 162.524219 202.677109 162.524219 
z
" style="fill: #faf5e7; opacity: 0.8; stroke: #1a1a1a; stroke-linejoin: miter"/>
    </g>
    <g id="line2d_29">
     <path d="M 204.377109 128.719453 
L 212.877109 128.719453 
L 221.377109 128.719453 
" style="fill: none; stroke: #56b4e9; stroke-width: 1.8; stroke-linecap: square"/>
     <g>
      <use xlink:href="#ma30cfa7f3f" x="212.877109" y="128.719453" style="fill: #56b4e9; stroke: #56b4e9; stroke-linejoin: miter"/>
     </g>
    </g>
    <g id="text_16">
     <!-- n_h=1 (3/3 fail, loss 0.21-0.40) -->
     <g style="fill: #1a1a1a" transform="translate(228.177109 131.694453) scale(0.085 -0.085)">
      <defs>
       <path id="DejaVuSans-2f" d="M 1625 4666 
L 2156 4666 
L 531 -594 
L 0 -594 
L 1625 4666 
z
" transform="scale(0.015625)"/>
       <path id="DejaVuSans-6c" d="M 603 4863 
L 1178 4863 
L 1178 0 
L 603 0 
L 603 4863 
z
" transform="scale(0.015625)"/>
       <path id="DejaVuSans-2d" d="M 313 2009 
L 1997 2009 
L 1997 1497 
L 313 1497 
L 313 2009 
z
" transform="scale(0.015625)"/>
      </defs>
      <use xlink:href="#DejaVuSans-6e"/>
      <use xlink:href="#DejaVuSans-5f" x="63.378906"/>
      <use xlink:href="#DejaVuSans-68" x="113.378906"/>
      <use xlink:href="#DejaVuSans-3d" x="176.757812"/>
      <use xlink:href="#DejaVuSans-31" x="260.546875"/>
      <use xlink:href="#DejaVuSans-20" x="324.169922"/>
      <use xlink:href="#DejaVuSans-28" x="355.957031"/>
      <use xlink:href="#DejaVuSans-33" x="394.970703"/>
      <use xlink:href="#DejaVuSans-2f" x="458.59375"/>
      <use xlink:href="#DejaVuSans-33" x="492.285156"/>
      <use xlink:href="#DejaVuSans-20" x="555.908203"/>
      <use xlink:href="#DejaVuSans-66" x="587.695312"/>
      <use xlink:href="#DejaVuSans-61" x="622.900391"/>
      <use xlink:href="#DejaVuSans-69" x="684.179688"/>
      <use xlink:href="#DejaVuSans-6c" x="711.962891"/>
      <use xlink:href="#DejaVuSans-2c" x="739.746094"/>
      <use xlink:href="#DejaVuSans-20" x="771.533203"/>
      <use xlink:href="#DejaVuSans-6c" x="803.320312"/>
      <use xlink:href="#DejaVuSans-6f" x="831.103516"/>
      <use xlink:href="#DejaVuSans-73" x="892.285156"/>
      <use xlink:href="#DejaVuSans-73" x="944.384766"/>
      <use xlink:href="#DejaVuSans-20" x="996.484375"/>
      <use xlink:href="#DejaVuSans-30" x="1028.271484"/>
      <use xlink:href="#DejaVuSans-2e" x="1091.894531"/>
      <use xlink:href="#DejaVuSans-32" x="1123.681641"/>
      <use xlink:href="#DejaVuSans-31" x="1187.304688"/>
      <use xlink:href="#DejaVuSans-2d" x="1250.927734"/>
      <use xlink:href="#DejaVuSans-30" x="1287.011719"/>
      <use xlink:href="#DejaVuSans-2e" x="1350.634766"/>
      <use xlink:href="#DejaVuSans-34" x="1382.421875"/>
      <use xlink:href="#DejaVuSans-30" x="1446.044922"/>
      <use xlink:href="#DejaVuSans-29" x="1509.667969"/>
     </g>
    </g>
    <g id="line2d_30">
     <path d="M 204.377109 141.432266 
L 212.877109 141.432266 
L 221.377109 141.432266 
" style="fill: none; stroke: #e69f00; stroke-width: 1.8; stroke-linecap: square"/>
     <g>
      <use xlink:href="#m01651c7536" x="212.877109" y="141.432266" style="fill: #e69f00; stroke: #e69f00; stroke-linejoin: miter"/>
     </g>
    </g>
    <g id="text_17">
     <!-- n_h=2 (5/5 fail, loss 0.07-0.29) -->
     <g style="fill: #1a1a1a" transform="translate(228.177109 144.407266) scale(0.085 -0.085)">
      <defs>
       <path id="DejaVuSans-35" d="M 691 4666 
L 3169 4666 
L 3169 4134 
L 1269 4134 
L 1269 2991 
Q 1406 3038 1543 3061 
Q 1681 3084 1819 3084 
Q 2600 3084 3056 2656 
Q 3513 2228 3513 1497 
Q 3513 744 3044 326 
Q 2575 -91 1722 -91 
Q 1428 -91 1123 -41 
Q 819 9 494 109 
L 494 744 
Q 775 591 1075 516 
Q 1375 441 1709 441 
Q 2250 441 2565 725 
Q 2881 1009 2881 1497 
Q 2881 1984 2565 2268 
Q 2250 2553 1709 2553 
Q 1456 2553 1204 2497 
Q 953 2441 691 2322 
L 691 4666 
z
" transform="scale(0.015625)"/>
       <path id="DejaVuSans-37" d="M 525 4666 
L 3525 4666 
L 3525 4397 
L 1831 0 
L 1172 0 
L 2766 4134 
L 525 4134 
L 525 4666 
z
" transform="scale(0.015625)"/>
      </defs>
      <use xlink:href="#DejaVuSans-6e"/>
      <use xlink:href="#DejaVuSans-5f" x="63.378906"/>
      <use xlink:href="#DejaVuSans-68" x="113.378906"/>
      <use xlink:href="#DejaVuSans-3d" x="176.757812"/>
      <use xlink:href="#DejaVuSans-32" x="260.546875"/>
      <use xlink:href="#DejaVuSans-20" x="324.169922"/>
      <use xlink:href="#DejaVuSans-28" x="355.957031"/>
      <use xlink:href="#DejaVuSans-35" x="394.970703"/>
      <use xlink:href="#DejaVuSans-2f" x="458.59375"/>
      <use xlink:href="#DejaVuSans-35" x="492.285156"/>
      <use xlink:href="#DejaVuSans-20" x="555.908203"/>
      <use xlink:href="#DejaVuSans-66" x="587.695312"/>
      <use xlink:href="#DejaVuSans-61" x="622.900391"/>
      <use xlink:href="#DejaVuSans-69" x="684.179688"/>
      <use xlink:href="#DejaVuSans-6c" x="711.962891"/>
      <use xlink:href="#DejaVuSans-2c" x="739.746094"/>
      <use xlink:href="#DejaVuSans-20" x="771.533203"/>
      <use xlink:href="#DejaVuSans-6c" x="803.320312"/>
      <use xlink:href="#DejaVuSans-6f" x="831.103516"/>
      <use xlink:href="#DejaVuSans-73" x="892.285156"/>
      <use xlink:href="#DejaVuSans-73" x="944.384766"/>
      <use xlink:href="#DejaVuSans-20" x="996.484375"/>
      <use xlink:href="#DejaVuSans-30" x="1028.271484"/>
      <use xlink:href="#DejaVuSans-2e" x="1091.894531"/>
      <use xlink:href="#DejaVuSans-30" x="1123.681641"/>
      <use xlink:href="#DejaVuSans-37" x="1187.304688"/>
      <use xlink:href="#DejaVuSans-2d" x="1250.927734"/>
      <use xlink:href="#DejaVuSans-30" x="1287.011719"/>
      <use xlink:href="#DejaVuSans-2e" x="1350.634766"/>
      <use xlink:href="#DejaVuSans-32" x="1382.421875"/>
      <use xlink:href="#DejaVuSans-39" x="1446.044922"/>
      <use xlink:href="#DejaVuSans-29" x="1509.667969"/>
     </g>
    </g>
    <g id="line2d_31">
     <path d="M 204.377109 154.145078 
L 212.877109 154.145078 
L 221.377109 154.145078 
" style="fill: none; stroke: #d55e00; stroke-width: 1.8; stroke-linecap: square"/>
     <g>
      <use xlink:href="#m65542f589f" x="212.877109" y="154.145078" style="fill: #d55e00; stroke: #d55e00"/>
     </g>
    </g>
    <g id="text_18">
     <!-- n_h=4 (3/3 converge, loss 3e-5-8e-5) -->
     <g style="fill: #1a1a1a" transform="translate(228.177109 157.120078) scale(0.085 -0.085)">
      <defs>
       <path id="DejaVuSans-67" d="M 2906 1791 
Q 2906 2416 2648 2759 
Q 2391 3103 1925 3103 
Q 1463 3103 1205 2759 
Q 947 2416 947 1791 
Q 947 1169 1205 825 
Q 1463 481 1925 481 
Q 2391 481 2648 825 
Q 2906 1169 2906 1791 
z
M 3481 434 
Q 3481 -459 3084 -895 
Q 2688 -1331 1869 -1331 
Q 1566 -1331 1297 -1286 
Q 1028 -1241 775 -1147 
L 775 -588 
Q 1028 -725 1275 -790 
Q 1522 -856 1778 -856 
Q 2344 -856 2625 -561 
Q 2906 -266 2906 331 
L 2906 616 
Q 2728 306 2450 153 
Q 2172 0 1784 0 
Q 1141 0 747 490 
Q 353 981 353 1791 
Q 353 2603 747 3093 
Q 1141 3584 1784 3584 
Q 2172 3584 2450 3431 
Q 2728 3278 2906 2969 
L 2906 3500 
L 3481 3500 
L 3481 434 
z
" transform="scale(0.015625)"/>
      </defs>
      <use xlink:href="#DejaVuSans-6e"/>
      <use xlink:href="#DejaVuSans-5f" x="63.378906"/>
      <use xlink:href="#DejaVuSans-68" x="113.378906"/>
      <use xlink:href="#DejaVuSans-3d" x="176.757812"/>
      <use xlink:href="#DejaVuSans-34" x="260.546875"/>
      <use xlink:href="#DejaVuSans-20" x="324.169922"/>
      <use xlink:href="#DejaVuSans-28" x="355.957031"/>
      <use xlink:href="#DejaVuSans-33" x="394.970703"/>
      <use xlink:href="#DejaVuSans-2f" x="458.59375"/>
      <use xlink:href="#DejaVuSans-33" x="492.285156"/>
      <use xlink:href="#DejaVuSans-20" x="555.908203"/>
      <use xlink:href="#DejaVuSans-63" x="587.695312"/>
      <use xlink:href="#DejaVuSans-6f" x="642.675781"/>
      <use xlink:href="#DejaVuSans-6e" x="703.857422"/>
      <use xlink:href="#DejaVuSans-76" x="767.236328"/>
      <use xlink:href="#DejaVuSans-65" x="826.416016"/>
      <use xlink:href="#DejaVuSans-72" x="887.939453"/>
      <use xlink:href="#DejaVuSans-67" x="927.302734"/>
      <use xlink:href="#DejaVuSans-65" x="990.779297"/>
      <use xlink:href="#DejaVuSans-2c" x="1052.302734"/>
      <use xlink:href="#DejaVuSans-20" x="1084.089844"/>
      <use xlink:href="#DejaVuSans-6c" x="1115.876953"/>
      <use xlink:href="#DejaVuSans-6f" x="1143.660156"/>
      <use xlink:href="#DejaVuSans-73" x="1204.841797"/>
      <use xlink:href="#DejaVuSans-73" x="1256.941406"/>
      <use xlink:href="#DejaVuSans-20" x="1309.041016"/>
      <use xlink:href="#DejaVuSans-33" x="1340.828125"/>
      <use xlink:href="#DejaVuSans-65" x="1404.451172"/>
      <use xlink:href="#DejaVuSans-2d" x="1465.974609"/>
      <use xlink:href="#DejaVuSans-35" x="1502.058594"/>
      <use xlink:href="#DejaVuSans-2d" x="1565.681641"/>
      <use xlink:href="#DejaVuSans-38" x="1601.765625"/>
      <use xlink:href="#DejaVuSans-65" x="1665.388672"/>
      <use xlink:href="#DejaVuSans-2d" x="1726.912109"/>
      <use xlink:href="#DejaVuSans-35" x="1762.996094"/>
      <use xlink:href="#DejaVuSans-29" x="1826.619141"/>
     </g>
    </g>
   </g>
  </g>
  <g id="axes_2">
   <g id="patch_8">
    <path d="M 443.316562 277.16 
L 792.161563 277.16 
L 792.161563 7.2 
L 443.316562 7.2 
z
" style="fill: #faf5e7"/>
   </g>
   <g id="line2d_32">
    <path d="M 443.316562 19.747206 
L 792.161563 19.747206 
" clip-path="url(#p7b242aa120)" style="fill: none; stroke-dasharray: 4.44,1.92; stroke-dashoffset: 0; stroke: #1a1a1a; stroke-opacity: 0.7; stroke-width: 1.2"/>
   </g>
   <g id="matplotlib.axis_3">
    <g id="xtick_7">
     <g id="line2d_33">
      <path d="M 468.152052 277.16 
L 468.152052 7.2 
" clip-path="url(#p7b242aa120)" style="fill: none; stroke: #1a1a1a; stroke-opacity: 0.22; stroke-width: 0.5; stroke-linecap: square"/>
     </g>
     <g id="line2d_34">
      <g>
       <use xlink:href="#m9ab03baeff" x="468.152052" y="277.16" style="fill: #1a1a1a; stroke: #1a1a1a; stroke-width: 0.8"/>
      </g>
     </g>
     <g id="text_19">
      <!-- 9 -->
      <g style="fill: #1a1a1a" transform="translate(464.970802 291.758437) scale(0.1 -0.1)">
       <use xlink:href="#DejaVuSans-39"/>
      </g>
     </g>
    </g>
    <g id="xtick_8">
     <g id="line2d_35">
      <path d="M 558.534828 277.16 
L 558.534828 7.2 
" clip-path="url(#p7b242aa120)" style="fill: none; stroke: #1a1a1a; stroke-opacity: 0.22; stroke-width: 0.5; stroke-linecap: square"/>
     </g>
     <g id="line2d_36">
      <g>
       <use xlink:href="#m9ab03baeff" x="558.534828" y="277.16" style="fill: #1a1a1a; stroke: #1a1a1a; stroke-width: 0.8"/>
      </g>
     </g>
     <g id="text_20">
      <!-- 16 -->
      <g style="fill: #1a1a1a" transform="translate(552.172328 291.758437) scale(0.1 -0.1)">
       <use xlink:href="#DejaVuSans-31"/>
       <use xlink:href="#DejaVuSans-36" x="63.623047"/>
      </g>
     </g>
    </g>
    <g id="xtick_9">
     <g id="line2d_37">
      <path d="M 667.4199 277.16 
L 667.4199 7.2 
" clip-path="url(#p7b242aa120)" style="fill: none; stroke: #1a1a1a; stroke-opacity: 0.22; stroke-width: 0.5; stroke-linecap: square"/>
     </g>
     <g id="line2d_38">
      <g>
       <use xlink:href="#m9ab03baeff" x="667.4199" y="277.16" style="fill: #1a1a1a; stroke: #1a1a1a; stroke-width: 0.8"/>
      </g>
     </g>
     <g id="text_21">
      <!-- 32 -->
      <g style="fill: #1a1a1a" transform="translate(661.0574 291.758437) scale(0.1 -0.1)">
       <use xlink:href="#DejaVuSans-33"/>
       <use xlink:href="#DejaVuSans-32" x="63.623047"/>
      </g>
     </g>
    </g>
    <g id="xtick_10">
     <g id="line2d_39">
      <path d="M 776.304972 277.16 
L 776.304972 7.2 
" clip-path="url(#p7b242aa120)" style="fill: none; stroke: #1a1a1a; stroke-opacity: 0.22; stroke-width: 0.5; stroke-linecap: square"/>
     </g>
     <g id="line2d_40">
      <g>
       <use xlink:href="#m9ab03baeff" x="776.304972" y="277.16" style="fill: #1a1a1a; stroke: #1a1a1a; stroke-width: 0.8"/>
      </g>
     </g>
     <g id="text_22">
      <!-- 64 -->
      <g style="fill: #1a1a1a" transform="translate(769.942472 291.758437) scale(0.1 -0.1)">
       <use xlink:href="#DejaVuSans-36"/>
       <use xlink:href="#DejaVuSans-34" x="63.623047"/>
      </g>
     </g>
    </g>
    <g id="text_23">
     <!-- depth D (train support: D ≤ 8; far checkpoint: D = 64, 8× train) -->
     <g style="fill: #1a1a1a" transform="translate(474.331094 306.676719) scale(0.09 -0.09)">
      <use xlink:href="#DejaVuSans-64"/>
      <use xlink:href="#DejaVuSans-65" x="63.476562"/>
      <use xlink:href="#DejaVuSans-70" x="125"/>
      <use xlink:href="#DejaVuSans-74" x="188.476562"/>
      <use xlink:href="#DejaVuSans-68" x="227.685547"/>
      <use xlink:href="#DejaVuSans-20" x="291.064453"/>
      <use xlink:href="#DejaVuSans-44" x="322.851562"/>
      <use xlink:href="#DejaVuSans-20" x="399.853516"/>
      <use xlink:href="#DejaVuSans-28" x="431.640625"/>
      <use xlink:href="#DejaVuSans-74" x="470.654297"/>
      <use xlink:href="#DejaVuSans-72" x="509.863281"/>
      <use xlink:href="#DejaVuSans-61" x="550.976562"/>
      <use xlink:href="#DejaVuSans-69" x="612.255859"/>
      <use xlink:href="#DejaVuSans-6e" x="640.039062"/>
      <use xlink:href="#DejaVuSans-20" x="703.417969"/>
      <use xlink:href="#DejaVuSans-73" x="735.205078"/>
      <use xlink:href="#DejaVuSans-75" x="787.304688"/>
      <use xlink:href="#DejaVuSans-70" x="850.683594"/>
      <use xlink:href="#DejaVuSans-70" x="914.160156"/>
      <use xlink:href="#DejaVuSans-6f" x="977.636719"/>
      <use xlink:href="#DejaVuSans-72" x="1038.818359"/>
      <use xlink:href="#DejaVuSans-74" x="1079.931641"/>
      <use xlink:href="#DejaVuSans-3a" x="1119.140625"/>
      <use xlink:href="#DejaVuSans-20" x="1152.832031"/>
      <use xlink:href="#DejaVuSans-44" x="1184.619141"/>
      <use xlink:href="#DejaVuSans-20" x="1261.621094"/>
      <use xlink:href="#DejaVuSans-2264" x="1293.408203"/>
      <use xlink:href="#DejaVuSans-20" x="1377.197266"/>
      <use xlink:href="#DejaVuSans-38" x="1408.984375"/>
      <use xlink:href="#DejaVuSans-3b" x="1472.607422"/>
      <use xlink:href="#DejaVuSans-20" x="1506.298828"/>
      <use xlink:href="#DejaVuSans-66" x="1538.085938"/>
      <use xlink:href="#DejaVuSans-61" x="1573.291016"/>
      <use xlink:href="#DejaVuSans-72" x="1634.570312"/>
      <use xlink:href="#DejaVuSans-20" x="1675.683594"/>
      <use xlink:href="#DejaVuSans-63" x="1707.470703"/>
      <use xlink:href="#DejaVuSans-68" x="1762.451172"/>
      <use xlink:href="#DejaVuSans-65" x="1825.830078"/>
      <use xlink:href="#DejaVuSans-63" x="1887.353516"/>
      <use xlink:href="#DejaVuSans-6b" x="1942.333984"/>
      <use xlink:href="#DejaVuSans-70" x="2000.244141"/>
      <use xlink:href="#DejaVuSans-6f" x="2063.720703"/>
      <use xlink:href="#DejaVuSans-69" x="2124.902344"/>
      <use xlink:href="#DejaVuSans-6e" x="2152.685547"/>
      <use xlink:href="#DejaVuSans-74" x="2216.064453"/>
      <use xlink:href="#DejaVuSans-3a" x="2255.273438"/>
      <use xlink:href="#DejaVuSans-20" x="2288.964844"/>
      <use xlink:href="#DejaVuSans-44" x="2320.751953"/>
      <use xlink:href="#DejaVuSans-20" x="2397.753906"/>
      <use xlink:href="#DejaVuSans-3d" x="2429.541016"/>
      <use xlink:href="#DejaVuSans-20" x="2513.330078"/>
      <use xlink:href="#DejaVuSans-36" x="2545.117188"/>
      <use xlink:href="#DejaVuSans-34" x="2608.740234"/>
      <use xlink:href="#DejaVuSans-2c" x="2672.363281"/>
      <use xlink:href="#DejaVuSans-20" x="2704.150391"/>
      <use xlink:href="#DejaVuSans-38" x="2735.9375"/>
      <use xlink:href="#DejaVuSans-d7" x="2799.560547"/>
      <use xlink:href="#DejaVuSans-20" x="2883.349609"/>
      <use xlink:href="#DejaVuSans-74" x="2915.136719"/>
      <use xlink:href="#DejaVuSans-72" x="2954.345703"/>
      <use xlink:href="#DejaVuSans-61" x="2995.458984"/>
      <use xlink:href="#DejaVuSans-69" x="3056.738281"/>
      <use xlink:href="#DejaVuSans-6e" x="3084.521484"/>
      <use xlink:href="#DejaVuSans-29" x="3147.900391"/>
     </g>
    </g>
   </g>
   <g id="matplotlib.axis_4">
    <g id="ytick_7">
     <g id="line2d_41">
      <path d="M 443.316562 268.689038 
L 792.161563 268.689038 
" clip-path="url(#p7b242aa120)" style="fill: none; stroke: #1a1a1a; stroke-opacity: 0.22; stroke-width: 0.5; stroke-linecap: square"/>
     </g>
     <g id="line2d_42">
      <g>
       <use xlink:href="#mf4321bac1e" x="443.316562" y="268.689038" style="fill: #1a1a1a; stroke: #1a1a1a; stroke-width: 0.8"/>
      </g>
     </g>
     <g id="text_24">
      <!-- 2.5 -->
      <g style="fill: #1a1a1a" transform="translate(420.413437 272.488257) scale(0.1 -0.1)">
       <use xlink:href="#DejaVuSans-32"/>
       <use xlink:href="#DejaVuSans-2e" x="63.623047"/>
       <use xlink:href="#DejaVuSans-35" x="95.410156"/>
      </g>
     </g>
    </g>
    <g id="ytick_8">
     <g id="line2d_43">
      <path d="M 443.316562 218.900672 
L 792.161563 218.900672 
" clip-path="url(#p7b242aa120)" style="fill: none; stroke: #1a1a1a; stroke-opacity: 0.22; stroke-width: 0.5; stroke-linecap: square"/>
     </g>
     <g id="line2d_44">
      <g>
       <use xlink:href="#mf4321bac1e" x="443.316562" y="218.900672" style="fill: #1a1a1a; stroke: #1a1a1a; stroke-width: 0.8"/>
      </g>
     </g>
     <g id="text_25">
      <!-- 3.0 -->
      <g style="fill: #1a1a1a" transform="translate(420.413437 222.699891) scale(0.1 -0.1)">
       <use xlink:href="#DejaVuSans-33"/>
       <use xlink:href="#DejaVuSans-2e" x="63.623047"/>
       <use xlink:href="#DejaVuSans-30" x="95.410156"/>
      </g>
     </g>
    </g>
    <g id="ytick_9">
     <g id="line2d_45">
      <path d="M 443.316562 169.112305 
L 792.161563 169.112305 
" clip-path="url(#p7b242aa120)" style="fill: none; stroke: #1a1a1a; stroke-opacity: 0.22; stroke-width: 0.5; stroke-linecap: square"/>
     </g>
     <g id="line2d_46">
      <g>
       <use xlink:href="#mf4321bac1e" x="443.316562" y="169.112305" style="fill: #1a1a1a; stroke: #1a1a1a; stroke-width: 0.8"/>
      </g>
     </g>
     <g id="text_26">
      <!-- 3.5 -->
      <g style="fill: #1a1a1a" transform="translate(420.413437 172.911524) scale(0.1 -0.1)">
       <use xlink:href="#DejaVuSans-33"/>
       <use xlink:href="#DejaVuSans-2e" x="63.623047"/>
       <use xlink:href="#DejaVuSans-35" x="95.410156"/>
      </g>
     </g>
    </g>
    <g id="ytick_10">
     <g id="line2d_47">
      <path d="M 443.316562 119.323939 
L 792.161563 119.323939 
" clip-path="url(#p7b242aa120)" style="fill: none; stroke: #1a1a1a; stroke-opacity: 0.22; stroke-width: 0.5; stroke-linecap: square"/>
     </g>
     <g id="line2d_48">
      <g>
       <use xlink:href="#mf4321bac1e" x="443.316562" y="119.323939" style="fill: #1a1a1a; stroke: #1a1a1a; stroke-width: 0.8"/>
      </g>
     </g>
     <g id="text_27">
      <!-- 4.0 -->
      <g style="fill: #1a1a1a" transform="translate(420.413437 123.123158) scale(0.1 -0.1)">
       <use xlink:href="#DejaVuSans-34"/>
       <use xlink:href="#DejaVuSans-2e" x="63.623047"/>
       <use xlink:href="#DejaVuSans-30" x="95.410156"/>
      </g>
     </g>
    </g>
    <g id="ytick_11">
     <g id="line2d_49">
      <path d="M 443.316562 69.535572 
L 792.161563 69.535572 
" clip-path="url(#p7b242aa120)" style="fill: none; stroke: #1a1a1a; stroke-opacity: 0.22; stroke-width: 0.5; stroke-linecap: square"/>
     </g>
     <g id="line2d_50">
      <g>
       <use xlink:href="#mf4321bac1e" x="443.316562" y="69.535572" style="fill: #1a1a1a; stroke: #1a1a1a; stroke-width: 0.8"/>
      </g>
     </g>
     <g id="text_28">
      <!-- 4.5 -->
      <g style="fill: #1a1a1a" transform="translate(420.413437 73.334791) scale(0.1 -0.1)">
       <use xlink:href="#DejaVuSans-34"/>
       <use xlink:href="#DejaVuSans-2e" x="63.623047"/>
       <use xlink:href="#DejaVuSans-35" x="95.410156"/>
      </g>
     </g>
    </g>
    <g id="ytick_12">
     <g id="line2d_51">
      <path d="M 443.316562 19.747206 
L 792.161563 19.747206 
" clip-path="url(#p7b242aa120)" style="fill: none; stroke: #1a1a1a; stroke-opacity: 0.22; stroke-width: 0.5; stroke-linecap: square"/>
     </g>
     <g id="line2d_52">
      <g>
       <use xlink:href="#mf4321bac1e" x="443.316562" y="19.747206" style="fill: #1a1a1a; stroke: #1a1a1a; stroke-width: 0.8"/>
      </g>
     </g>
     <g id="text_29">
      <!-- 5.0 -->
      <g style="fill: #1a1a1a" transform="translate(420.413437 23.546425) scale(0.1 -0.1)">
       <use xlink:href="#DejaVuSans-35"/>
       <use xlink:href="#DejaVuSans-2e" x="63.623047"/>
       <use xlink:href="#DejaVuSans-30" x="95.410156"/>
      </g>
     </g>
    </g>
    <g id="text_30">
     <!-- restricted effective rank (mean ± 1σ) -->
     <g style="fill: #1a1a1a" transform="translate(412.437734 231.049531) rotate(-90) scale(0.095 -0.095)">
      <use xlink:href="#DejaVuSans-72"/>
      <use xlink:href="#DejaVuSans-65" x="38.863281"/>
      <use xlink:href="#DejaVuSans-73" x="100.386719"/>
      <use xlink:href="#DejaVuSans-74" x="152.486328"/>
      <use xlink:href="#DejaVuSans-72" x="191.695312"/>
      <use xlink:href="#DejaVuSans-69" x="232.808594"/>
      <use xlink:href="#DejaVuSans-63" x="260.591797"/>
      <use xlink:href="#DejaVuSans-74" x="315.572266"/>
      <use xlink:href="#DejaVuSans-65" x="354.78125"/>
      <use xlink:href="#DejaVuSans-64" x="416.304688"/>
      <use xlink:href="#DejaVuSans-20" x="479.78125"/>
      <use xlink:href="#DejaVuSans-65" x="511.568359"/>
      <use xlink:href="#DejaVuSans-66" x="573.091797"/>
      <use xlink:href="#DejaVuSans-66" x="608.296875"/>
      <use xlink:href="#DejaVuSans-65" x="643.501953"/>
      <use xlink:href="#DejaVuSans-63" x="705.025391"/>
      <use xlink:href="#DejaVuSans-74" x="760.005859"/>
      <use xlink:href="#DejaVuSans-69" x="799.214844"/>
      <use xlink:href="#DejaVuSans-76" x="826.998047"/>
      <use xlink:href="#DejaVuSans-65" x="886.177734"/>
      <use xlink:href="#DejaVuSans-20" x="947.701172"/>
      <use xlink:href="#DejaVuSans-72" x="979.488281"/>
      <use xlink:href="#DejaVuSans-61" x="1020.601562"/>
      <use xlink:href="#DejaVuSans-6e" x="1081.880859"/>
      <use xlink:href="#DejaVuSans-6b" x="1145.259766"/>
      <use xlink:href="#DejaVuSans-20" x="1203.169922"/>
      <use xlink:href="#DejaVuSans-28" x="1234.957031"/>
      <use xlink:href="#DejaVuSans-6d" x="1273.970703"/>
      <use xlink:href="#DejaVuSans-65" x="1371.382812"/>
      <use xlink:href="#DejaVuSans-61" x="1432.90625"/>
      <use xlink:href="#DejaVuSans-6e" x="1494.185547"/>
      <use xlink:href="#DejaVuSans-20" x="1557.564453"/>
      <use xlink:href="#DejaVuSans-b1" x="1589.351562"/>
      <use xlink:href="#DejaVuSans-20" x="1673.140625"/>
      <use xlink:href="#DejaVuSans-31" x="1704.927734"/>
      <use xlink:href="#DejaVuSans-3c3" x="1768.550781"/>
      <use xlink:href="#DejaVuSans-29" x="1831.929688"/>
     </g>
    </g>
   </g>
   <g id="PolyCollection_4">
    <defs>
     <path id="m66c4011ff6" d="M 468.152052 -258.971559 
L 468.152052 -147.448489 
L 484.702919 -142.643804 
L 513.34344 -138.208207 
L 537.558654 -109.842016 
L 558.534828 -138.341555 
L 593.587991 -115.022058 
L 622.228512 -101.281602 
L 667.4199 -118.110415 
L 731.113584 -126.644482 
L 776.304972 -117.670962 
L 776.304972 -131.859992 
L 776.304972 -131.859992 
L 731.113584 -156.731418 
L 667.4199 -205.798176 
L 622.228512 -192.91333 
L 593.587991 -201.194783 
L 558.534828 -208.593661 
L 537.558654 -226.180153 
L 513.34344 -236.467795 
L 484.702919 -259.801916 
L 468.152052 -258.971559 
z
" style="stroke: #56b4e9; stroke-opacity: 0.15"/>
    </defs>
    <g clip-path="url(#p7b242aa120)">
     <use xlink:href="#m66c4011ff6" x="0" y="315.748437" style="fill: #56b4e9; fill-opacity: 0.15; stroke: #56b4e9; stroke-opacity: 0.15"/>
    </g>
   </g>
   <g id="PolyCollection_5">
    <defs>
     <path id="m89dc51ed05" d="M 468.152052 -224.008218 
L 468.152052 -212.882375 
L 484.702919 -226.740135 
L 513.34344 -199.778692 
L 537.558654 -188.181997 
L 558.534828 -170.150838 
L 593.587991 -163.635688 
L 622.228512 -151.508016 
L 667.4199 -102.697013 
L 731.113584 -85.832114 
L 776.304972 -50.859347 
L 776.304972 -242.026301 
L 776.304972 -242.026301 
L 731.113584 -242.088215 
L 667.4199 -232.628875 
L 622.228512 -222.966061 
L 593.587991 -217.143851 
L 558.534828 -222.068198 
L 537.558654 -216.493229 
L 513.34344 -224.902067 
L 484.702919 -240.131262 
L 468.152052 -224.008218 
z
" style="stroke: #e69f00; stroke-opacity: 0.15"/>
    </defs>
    <g clip-path="url(#p7b242aa120)">
     <use xlink:href="#m89dc51ed05" x="0" y="315.748437" style="fill: #e69f00; fill-opacity: 0.15; stroke: #e69f00; stroke-opacity: 0.15"/>
    </g>
   </g>
   <g id="PolyCollection_6">
    <defs>
     <path id="m393bc2b9dd" d="M 468.152052 -295.986932 
L 468.152052 -295.941934 
L 484.702919 -295.942357 
L 513.34344 -295.946366 
L 537.558654 -295.863784 
L 558.534828 -295.843441 
L 593.587991 -295.877696 
L 622.228512 -295.882051 
L 667.4199 -295.850983 
L 731.113584 -294.659726 
L 776.304972 -294.772124 
L 776.304972 -296.030219 
L 776.304972 -296.030219 
L 731.113584 -296.277528 
L 667.4199 -295.939711 
L 622.228512 -295.97287 
L 593.587991 -295.956301 
L 558.534828 -295.991728 
L 537.558654 -295.962015 
L 513.34344 -295.989148 
L 484.702919 -295.984927 
L 468.152052 -295.986932 
z
" style="stroke: #d55e00; stroke-opacity: 0.15"/>
    </defs>
    <g clip-path="url(#p7b242aa120)">
     <use xlink:href="#m393bc2b9dd" x="0" y="315.748437" style="fill: #d55e00; fill-opacity: 0.15; stroke: #d55e00; stroke-opacity: 0.15"/>
    </g>
   </g>
   <g id="line2d_53">
    <path d="M 459.173153 277.16 
L 459.173153 7.2 
" clip-path="url(#p7b242aa120)" style="fill: none; stroke-dasharray: 0.8,1.32; stroke-dashoffset: 0; stroke: #1a1a1a; stroke-opacity: 0.6; stroke-width: 0.8"/>
   </g>
   <g id="patch_9">
    <path d="M 443.316562 277.16 
L 443.316562 7.2 
" style="fill: none; stroke: #1a1a1a; stroke-linejoin: miter; stroke-linecap: square"/>
   </g>
   <g id="patch_10">
    <path d="M 792.161563 277.16 
L 792.161563 7.2 
" style="fill: none; stroke: #1a1a1a; stroke-linejoin: miter; stroke-linecap: square"/>
   </g>
   <g id="patch_11">
    <path d="M 443.316562 277.16 
L 792.161563 277.16 
" style="fill: none; stroke: #1a1a1a; stroke-linejoin: miter; stroke-linecap: square"/>
   </g>
   <g id="patch_12">
    <path d="M 443.316562 7.2 
L 792.161563 7.2 
" style="fill: none; stroke: #1a1a1a; stroke-linejoin: miter; stroke-linecap: square"/>
   </g>
   <g id="line2d_54">
    <path d="M 468.152052 112.538413 
L 484.702919 114.525578 
L 513.34344 128.410437 
L 537.558654 147.737353 
L 558.534828 142.280829 
L 593.587991 157.640017 
L 622.228512 168.650971 
L 667.4199 153.794142 
L 731.113584 174.060488 
L 776.304972 190.982961 
" clip-path="url(#p7b242aa120)" style="fill: none; stroke: #56b4e9; stroke-width: 1.8; stroke-linecap: square"/>
    <g clip-path="url(#p7b242aa120)">
     <use xlink:href="#ma30cfa7f3f" x="468.152052" y="112.538413" style="fill: #56b4e9; stroke: #56b4e9; stroke-linejoin: miter"/>
     <use xlink:href="#ma30cfa7f3f" x="484.702919" y="114.525578" style="fill: #56b4e9; stroke: #56b4e9; stroke-linejoin: miter"/>
     <use xlink:href="#ma30cfa7f3f" x="513.34344" y="128.410437" style="fill: #56b4e9; stroke: #56b4e9; stroke-linejoin: miter"/>
     <use xlink:href="#ma30cfa7f3f" x="537.558654" y="147.737353" style="fill: #56b4e9; stroke: #56b4e9; stroke-linejoin: miter"/>
     <use xlink:href="#ma30cfa7f3f" x="558.534828" y="142.280829" style="fill: #56b4e9; stroke: #56b4e9; stroke-linejoin: miter"/>
     <use xlink:href="#ma30cfa7f3f" x="593.587991" y="157.640017" style="fill: #56b4e9; stroke: #56b4e9; stroke-linejoin: miter"/>
     <use xlink:href="#ma30cfa7f3f" x="622.228512" y="168.650971" style="fill: #56b4e9; stroke: #56b4e9; stroke-linejoin: miter"/>
     <use xlink:href="#ma30cfa7f3f" x="667.4199" y="153.794142" style="fill: #56b4e9; stroke: #56b4e9; stroke-linejoin: miter"/>
     <use xlink:href="#ma30cfa7f3f" x="731.113584" y="174.060488" style="fill: #56b4e9; stroke: #56b4e9; stroke-linejoin: miter"/>
     <use xlink:href="#ma30cfa7f3f" x="776.304972" y="190.982961" style="fill: #56b4e9; stroke: #56b4e9; stroke-linejoin: miter"/>
    </g>
   </g>
   <g id="line2d_55">
    <path d="M 468.152052 97.303141 
L 484.702919 82.312739 
L 513.34344 103.408058 
L 537.558654 113.410825 
L 558.534828 119.638919 
L 593.587991 125.358668 
L 622.228512 128.511399 
L 667.4199 148.085493 
L 731.113584 151.788273 
L 776.304972 169.305614 
" clip-path="url(#p7b242aa120)" style="fill: none; stroke: #e69f00; stroke-width: 1.8; stroke-linecap: square"/>
    <g clip-path="url(#p7b242aa120)">
     <use xlink:href="#m01651c7536" x="468.152052" y="97.303141" style="fill: #e69f00; stroke: #e69f00; stroke-linejoin: miter"/>
     <use xlink:href="#m01651c7536" x="484.702919" y="82.312739" style="fill: #e69f00; stroke: #e69f00; stroke-linejoin: miter"/>
     <use xlink:href="#m01651c7536" x="513.34344" y="103.408058" style="fill: #e69f00; stroke: #e69f00; stroke-linejoin: miter"/>
     <use xlink:href="#m01651c7536" x="537.558654" y="113.410825" style="fill: #e69f00; stroke: #e69f00; stroke-linejoin: miter"/>
     <use xlink:href="#m01651c7536" x="558.534828" y="119.638919" style="fill: #e69f00; stroke: #e69f00; stroke-linejoin: miter"/>
     <use xlink:href="#m01651c7536" x="593.587991" y="125.358668" style="fill: #e69f00; stroke: #e69f00; stroke-linejoin: miter"/>
     <use xlink:href="#m01651c7536" x="622.228512" y="128.511399" style="fill: #e69f00; stroke: #e69f00; stroke-linejoin: miter"/>
     <use xlink:href="#m01651c7536" x="667.4199" y="148.085493" style="fill: #e69f00; stroke: #e69f00; stroke-linejoin: miter"/>
     <use xlink:href="#m01651c7536" x="731.113584" y="151.788273" style="fill: #e69f00; stroke: #e69f00; stroke-linejoin: miter"/>
     <use xlink:href="#m01651c7536" x="776.304972" y="169.305614" style="fill: #e69f00; stroke: #e69f00; stroke-linejoin: miter"/>
    </g>
   </g>
   <g id="line2d_56">
    <path d="M 468.152052 19.784004 
L 484.702919 19.784796 
L 513.34344 19.780681 
L 537.558654 19.835538 
L 558.534828 19.830853 
L 593.587991 19.831439 
L 622.228512 19.820977 
L 667.4199 19.85309 
L 731.113584 20.27981 
L 776.304972 20.347266 
" clip-path="url(#p7b242aa120)" style="fill: none; stroke: #d55e00; stroke-width: 1.8; stroke-linecap: square"/>
    <g clip-path="url(#p7b242aa120)">
     <use xlink:href="#m65542f589f" x="468.152052" y="19.784004" style="fill: #d55e00; stroke: #d55e00"/>
     <use xlink:href="#m65542f589f" x="484.702919" y="19.784796" style="fill: #d55e00; stroke: #d55e00"/>
     <use xlink:href="#m65542f589f" x="513.34344" y="19.780681" style="fill: #d55e00; stroke: #d55e00"/>
     <use xlink:href="#m65542f589f" x="537.558654" y="19.835538" style="fill: #d55e00; stroke: #d55e00"/>
     <use xlink:href="#m65542f589f" x="558.534828" y="19.830853" style="fill: #d55e00; stroke: #d55e00"/>
     <use xlink:href="#m65542f589f" x="593.587991" y="19.831439" style="fill: #d55e00; stroke: #d55e00"/>
     <use xlink:href="#m65542f589f" x="622.228512" y="19.820977" style="fill: #d55e00; stroke: #d55e00"/>
     <use xlink:href="#m65542f589f" x="667.4199" y="19.85309" style="fill: #d55e00; stroke: #d55e00"/>
     <use xlink:href="#m65542f589f" x="731.113584" y="20.27981" style="fill: #d55e00; stroke: #d55e00"/>
     <use xlink:href="#m65542f589f" x="776.304972" y="20.347266" style="fill: #d55e00; stroke: #d55e00"/>
    </g>
   </g>
   <g id="text_31">
    <!-- d_min = 5 -->
    <g style="fill: #1a1a1a" transform="translate(738.073413 17.743065) scale(0.085 -0.085)">
     <defs>
      <path id="DejaVuSans-Bold-64" d="M 2919 2988 
L 2919 4863 
L 4044 4863 
L 4044 0 
L 2919 0 
L 2919 506 
Q 2688 197 2409 53 
Q 2131 -91 1766 -91 
Q 1119 -91 703 423 
Q 288 938 288 1747 
Q 288 2556 703 3070 
Q 1119 3584 1766 3584 
Q 2128 3584 2408 3439 
Q 2688 3294 2919 2988 
z
M 2181 722 
Q 2541 722 2730 984 
Q 2919 1247 2919 1747 
Q 2919 2247 2730 2509 
Q 2541 2772 2181 2772 
Q 1825 2772 1636 2509 
Q 1447 2247 1447 1747 
Q 1447 1247 1636 984 
Q 1825 722 2181 722 
z
" transform="scale(0.015625)"/>
      <path id="DejaVuSans-Bold-5f" d="M 3200 -916 
L 3200 -1509 
L 0 -1509 
L 0 -916 
L 3200 -916 
z
" transform="scale(0.015625)"/>
      <path id="DejaVuSans-Bold-6d" d="M 3781 2919 
Q 3994 3244 4286 3414 
Q 4578 3584 4928 3584 
Q 5531 3584 5847 3212 
Q 6163 2841 6163 2131 
L 6163 0 
L 5038 0 
L 5038 1825 
Q 5041 1866 5042 1909 
Q 5044 1953 5044 2034 
Q 5044 2406 4934 2573 
Q 4825 2741 4581 2741 
Q 4263 2741 4089 2478 
Q 3916 2216 3909 1719 
L 3909 0 
L 2784 0 
L 2784 1825 
Q 2784 2406 2684 2573 
Q 2584 2741 2328 2741 
Q 2006 2741 1831 2477 
Q 1656 2213 1656 1722 
L 1656 0 
L 531 0 
L 531 3500 
L 1656 3500 
L 1656 2988 
Q 1863 3284 2130 3434 
Q 2397 3584 2719 3584 
Q 3081 3584 3359 3409 
Q 3638 3234 3781 2919 
z
" transform="scale(0.015625)"/>
      <path id="DejaVuSans-Bold-69" d="M 538 3500 
L 1656 3500 
L 1656 0 
L 538 0 
L 538 3500 
z
M 538 4863 
L 1656 4863 
L 1656 3950 
L 538 3950 
L 538 4863 
z
" transform="scale(0.015625)"/>
      <path id="DejaVuSans-Bold-6e" d="M 4056 2131 
L 4056 0 
L 2931 0 
L 2931 347 
L 2931 1631 
Q 2931 2084 2911 2256 
Q 2891 2428 2841 2509 
Q 2775 2619 2662 2680 
Q 2550 2741 2406 2741 
Q 2056 2741 1856 2470 
Q 1656 2200 1656 1722 
L 1656 0 
L 538 0 
L 538 3500 
L 1656 3500 
L 1656 2988 
Q 1909 3294 2193 3439 
Q 2478 3584 2822 3584 
Q 3428 3584 3742 3212 
Q 4056 2841 4056 2131 
z
" transform="scale(0.015625)"/>
      <path id="DejaVuSans-Bold-20" transform="scale(0.015625)"/>
      <path id="DejaVuSans-Bold-3d" d="M 678 3084 
L 4684 3084 
L 4684 2350 
L 678 2350 
L 678 3084 
z
M 678 1663 
L 4684 1663 
L 4684 922 
L 678 922 
L 678 1663 
z
" transform="scale(0.015625)"/>
      <path id="DejaVuSans-Bold-35" d="M 678 4666 
L 3669 4666 
L 3669 3781 
L 1638 3781 
L 1638 3059 
Q 1775 3097 1914 3117 
Q 2053 3138 2203 3138 
Q 3056 3138 3531 2711 
Q 4006 2284 4006 1522 
Q 4006 766 3489 337 
Q 2972 -91 2053 -91 
Q 1656 -91 1267 -14 
Q 878 63 494 219 
L 494 1166 
Q 875 947 1217 837 
Q 1559 728 1863 728 
Q 2300 728 2551 942 
Q 2803 1156 2803 1522 
Q 2803 1891 2551 2103 
Q 2300 2316 1863 2316 
Q 1603 2316 1309 2248 
Q 1016 2181 678 2041 
L 678 4666 
z
" transform="scale(0.015625)"/>
     </defs>
     <use xlink:href="#DejaVuSans-Bold-64"/>
     <use xlink:href="#DejaVuSans-Bold-5f" x="71.582031"/>
     <use xlink:href="#DejaVuSans-Bold-6d" x="121.582031"/>
     <use xlink:href="#DejaVuSans-Bold-69" x="225.78125"/>
     <use xlink:href="#DejaVuSans-Bold-6e" x="260.058594"/>
     <use xlink:href="#DejaVuSans-Bold-20" x="331.25"/>
     <use xlink:href="#DejaVuSans-Bold-3d" x="366.064453"/>
     <use xlink:href="#DejaVuSans-Bold-20" x="449.853516"/>
     <use xlink:href="#DejaVuSans-Bold-35" x="484.667969"/>
    </g>
   </g>
   <g id="legend_2">
    <g id="patch_13">
     <path d="M 449.266562 272.91 
L 635.046016 272.91 
Q 636.746016 272.91 636.746016 271.21 
L 636.746016 233.921562 
Q 636.746016 232.221562 635.046016 232.221562 
L 449.266562 232.221562 
Q 447.566562 232.221562 447.566562 233.921562 
L 447.566562 271.21 
Q 447.566562 272.91 449.266562 272.91 
z
" style="fill: #faf5e7; opacity: 0.8; stroke: #1a1a1a; stroke-linejoin: miter"/>
    </g>
    <g id="line2d_57">
     <path d="M 450.966562 239.105234 
L 459.466562 239.105234 
L 467.966562 239.105234 
" style="fill: none; stroke: #56b4e9; stroke-width: 1.8; stroke-linecap: square"/>
     <g>
      <use xlink:href="#ma30cfa7f3f" x="459.466562" y="239.105234" style="fill: #56b4e9; stroke: #56b4e9; stroke-linejoin: miter"/>
     </g>
    </g>
    <g id="text_32">
     <!-- n_h=1 (3/3 fail, loss 0.21-0.40) -->
     <g style="fill: #1a1a1a" transform="translate(474.766562 242.080234) scale(0.085 -0.085)">
      <use xlink:href="#DejaVuSans-6e"/>
      <use xlink:href="#DejaVuSans-5f" x="63.378906"/>
      <use xlink:href="#DejaVuSans-68" x="113.378906"/>
      <use xlink:href="#DejaVuSans-3d" x="176.757812"/>
      <use xlink:href="#DejaVuSans-31" x="260.546875"/>
      <use xlink:href="#DejaVuSans-20" x="324.169922"/>
      <use xlink:href="#DejaVuSans-28" x="355.957031"/>
      <use xlink:href="#DejaVuSans-33" x="394.970703"/>
      <use xlink:href="#DejaVuSans-2f" x="458.59375"/>
      <use xlink:href="#DejaVuSans-33" x="492.285156"/>
      <use xlink:href="#DejaVuSans-20" x="555.908203"/>
      <use xlink:href="#DejaVuSans-66" x="587.695312"/>
      <use xlink:href="#DejaVuSans-61" x="622.900391"/>
      <use xlink:href="#DejaVuSans-69" x="684.179688"/>
      <use xlink:href="#DejaVuSans-6c" x="711.962891"/>
      <use xlink:href="#DejaVuSans-2c" x="739.746094"/>
      <use xlink:href="#DejaVuSans-20" x="771.533203"/>
      <use xlink:href="#DejaVuSans-6c" x="803.320312"/>
      <use xlink:href="#DejaVuSans-6f" x="831.103516"/>
      <use xlink:href="#DejaVuSans-73" x="892.285156"/>
      <use xlink:href="#DejaVuSans-73" x="944.384766"/>
      <use xlink:href="#DejaVuSans-20" x="996.484375"/>
      <use xlink:href="#DejaVuSans-30" x="1028.271484"/>
      <use xlink:href="#DejaVuSans-2e" x="1091.894531"/>
      <use xlink:href="#DejaVuSans-32" x="1123.681641"/>
      <use xlink:href="#DejaVuSans-31" x="1187.304688"/>
      <use xlink:href="#DejaVuSans-2d" x="1250.927734"/>
      <use xlink:href="#DejaVuSans-30" x="1287.011719"/>
      <use xlink:href="#DejaVuSans-2e" x="1350.634766"/>
      <use xlink:href="#DejaVuSans-34" x="1382.421875"/>
      <use xlink:href="#DejaVuSans-30" x="1446.044922"/>
      <use xlink:href="#DejaVuSans-29" x="1509.667969"/>
     </g>
    </g>
    <g id="line2d_58">
     <path d="M 450.966562 251.818047 
L 459.466562 251.818047 
L 467.966562 251.818047 
" style="fill: none; stroke: #e69f00; stroke-width: 1.8; stroke-linecap: square"/>
     <g>
      <use xlink:href="#m01651c7536" x="459.466562" y="251.818047" style="fill: #e69f00; stroke: #e69f00; stroke-linejoin: miter"/>
     </g>
    </g>
    <g id="text_33">
     <!-- n_h=2 (5/5 fail, loss 0.07-0.29) -->
     <g style="fill: #1a1a1a" transform="translate(474.766562 254.793047) scale(0.085 -0.085)">
      <use xlink:href="#DejaVuSans-6e"/>
      <use xlink:href="#DejaVuSans-5f" x="63.378906"/>
      <use xlink:href="#DejaVuSans-68" x="113.378906"/>
      <use xlink:href="#DejaVuSans-3d" x="176.757812"/>
      <use xlink:href="#DejaVuSans-32" x="260.546875"/>
      <use xlink:href="#DejaVuSans-20" x="324.169922"/>
      <use xlink:href="#DejaVuSans-28" x="355.957031"/>
      <use xlink:href="#DejaVuSans-35" x="394.970703"/>
      <use xlink:href="#DejaVuSans-2f" x="458.59375"/>
      <use xlink:href="#DejaVuSans-35" x="492.285156"/>
      <use xlink:href="#DejaVuSans-20" x="555.908203"/>
      <use xlink:href="#DejaVuSans-66" x="587.695312"/>
      <use xlink:href="#DejaVuSans-61" x="622.900391"/>
      <use xlink:href="#DejaVuSans-69" x="684.179688"/>
      <use xlink:href="#DejaVuSans-6c" x="711.962891"/>
      <use xlink:href="#DejaVuSans-2c" x="739.746094"/>
      <use xlink:href="#DejaVuSans-20" x="771.533203"/>
      <use xlink:href="#DejaVuSans-6c" x="803.320312"/>
      <use xlink:href="#DejaVuSans-6f" x="831.103516"/>
      <use xlink:href="#DejaVuSans-73" x="892.285156"/>
      <use xlink:href="#DejaVuSans-73" x="944.384766"/>
      <use xlink:href="#DejaVuSans-20" x="996.484375"/>
      <use xlink:href="#DejaVuSans-30" x="1028.271484"/>
      <use xlink:href="#DejaVuSans-2e" x="1091.894531"/>
      <use xlink:href="#DejaVuSans-30" x="1123.681641"/>
      <use xlink:href="#DejaVuSans-37" x="1187.304688"/>
      <use xlink:href="#DejaVuSans-2d" x="1250.927734"/>
      <use xlink:href="#DejaVuSans-30" x="1287.011719"/>
      <use xlink:href="#DejaVuSans-2e" x="1350.634766"/>
      <use xlink:href="#DejaVuSans-32" x="1382.421875"/>
      <use xlink:href="#DejaVuSans-39" x="1446.044922"/>
      <use xlink:href="#DejaVuSans-29" x="1509.667969"/>
     </g>
    </g>
    <g id="line2d_59">
     <path d="M 450.966562 264.530859 
L 459.466562 264.530859 
L 467.966562 264.530859 
" style="fill: none; stroke: #d55e00; stroke-width: 1.8; stroke-linecap: square"/>
     <g>
      <use xlink:href="#m65542f589f" x="459.466562" y="264.530859" style="fill: #d55e00; stroke: #d55e00"/>
     </g>
    </g>
    <g id="text_34">
     <!-- n_h=4 (3/3 converge, loss 3e-5-8e-5) -->
     <g style="fill: #1a1a1a" transform="translate(474.766562 267.505859) scale(0.085 -0.085)">
      <use xlink:href="#DejaVuSans-6e"/>
      <use xlink:href="#DejaVuSans-5f" x="63.378906"/>
      <use xlink:href="#DejaVuSans-68" x="113.378906"/>
      <use xlink:href="#DejaVuSans-3d" x="176.757812"/>
      <use xlink:href="#DejaVuSans-34" x="260.546875"/>
      <use xlink:href="#DejaVuSans-20" x="324.169922"/>
      <use xlink:href="#DejaVuSans-28" x="355.957031"/>
      <use xlink:href="#DejaVuSans-33" x="394.970703"/>
      <use xlink:href="#DejaVuSans-2f" x="458.59375"/>
      <use xlink:href="#DejaVuSans-33" x="492.285156"/>
      <use xlink:href="#DejaVuSans-20" x="555.908203"/>
      <use xlink:href="#DejaVuSans-63" x="587.695312"/>
      <use xlink:href="#DejaVuSans-6f" x="642.675781"/>
      <use xlink:href="#DejaVuSans-6e" x="703.857422"/>
      <use xlink:href="#DejaVuSans-76" x="767.236328"/>
      <use xlink:href="#DejaVuSans-65" x="826.416016"/>
      <use xlink:href="#DejaVuSans-72" x="887.939453"/>
      <use xlink:href="#DejaVuSans-67" x="927.302734"/>
      <use xlink:href="#DejaVuSans-65" x="990.779297"/>
      <use xlink:href="#DejaVuSans-2c" x="1052.302734"/>
      <use xlink:href="#DejaVuSans-20" x="1084.089844"/>
      <use xlink:href="#DejaVuSans-6c" x="1115.876953"/>
      <use xlink:href="#DejaVuSans-6f" x="1143.660156"/>
      <use xlink:href="#DejaVuSans-73" x="1204.841797"/>
      <use xlink:href="#DejaVuSans-73" x="1256.941406"/>
      <use xlink:href="#DejaVuSans-20" x="1309.041016"/>
      <use xlink:href="#DejaVuSans-33" x="1340.828125"/>
      <use xlink:href="#DejaVuSans-65" x="1404.451172"/>
      <use xlink:href="#DejaVuSans-2d" x="1465.974609"/>
      <use xlink:href="#DejaVuSans-35" x="1502.058594"/>
      <use xlink:href="#DejaVuSans-2d" x="1565.681641"/>
      <use xlink:href="#DejaVuSans-38" x="1601.765625"/>
      <use xlink:href="#DejaVuSans-65" x="1665.388672"/>
      <use xlink:href="#DejaVuSans-2d" x="1726.912109"/>
      <use xlink:href="#DejaVuSans-35" x="1762.996094"/>
      <use xlink:href="#DejaVuSans-29" x="1826.619141"/>
     </g>
    </g>
   </g>
  </g>
 </g>
 <defs>
  <clipPath id="pfbe404cb9c">
   <rect x="45.561563" y="7.2" width="348.845" height="269.96"/>
  </clipPath>
  <clipPath id="p7b242aa120">
   <rect x="443.316562" y="7.2" width="348.845" height="269.96"/>
  </clipPath>
 </defs>
</svg>
