<?xml version="1.0" encoding="utf-8" standalone="no"?>
<!DOCTYPE svg PUBLIC "-//W3C//DTD SVG 1.1//EN"
  "http://www.w3.org/Graphics/SVG/1.1/DTD/svg11.dtd">
<svg xmlns:xlink="http://www.w3.org/1999/xlink" width="669.761563pt" height="296.955pt" viewBox="0 0 669.761563 296.955" xmlns="http://www.w3.org/2000/svg" version="1.1">
 <metadata>
  <rdf:RDF xmlns:dc="http://purl.org/dc/elements/1.1/" xmlns:cc="http://creativecommons.org/ns#" xmlns:rdf="http://www.w3.org/1999/02/22-rdf-syntax-ns#">
   <cc:Work>
    <dc:type rdf:resource="http://purl.org/dc/dcmitype/StillImage"/>
    <dc:date>2026-07-09T17:46:45.794829</dc:date>
    <dc:format>image/svg+xml</dc:format>
    <dc:creator>
     <cc:Agent>
      <dc:title>Matplotlib v3.9.4, https://matplotlib.org/</dc:title>
     </cc:Agent>
    </dc:creator>
   </cc:Work>
  </rdf:RDF>
 </metadata>
 <defs>
  <style type="text/css">*{stroke-linejoin: round; stroke-linecap: butt}</style>
 </defs>
 <g id="figure_1">
  <g id="patch_1">
   <path d="M 0 296.955 
L 669.761563 296.955 
L 669.761563 0 
L 0 0 
z
" style="fill: #faf5e7"/>
  </g>
  <g id="axes_1">
   <g id="patch_2">
    <path d="M 47.561563 257.096 
L 329.561563 257.096 
L 329.561563 7.2 
L 47.561563 7.2 
z
" style="fill: #faf5e7"/>
   </g>
   <g id="matplotlib.axis_1">
    <g id="xtick_1">
     <g id="line2d_1">
      <defs>
       <path id="mdf087e1615" d="M 0 0 
L 0 3.5 
" style="stroke: #1a1a1a; stroke-width: 0.8"/>
      </defs>
      <g>
       <use xlink:href="#mdf087e1615" x="89.960164" y="257.096" style="fill: #1a1a1a; stroke: #1a1a1a; stroke-width: 0.8"/>
      </g>
     </g>
     <g id="text_1">
      <!-- fast-weight -->
      <g style="fill: #1a1a1a" transform="translate(67.519539 270.17475) scale(0.08 -0.08)">
       <defs>
        <path id="DejaVuSans-66" d="M 2375 4863 
L 2375 4384 
L 1825 4384 
Q 1516 4384 1395 4259 
Q 1275 4134 1275 3809 
L 1275 3500 
L 2222 3500 
L 2222 3053 
L 1275 3053 
L 1275 0 
L 697 0 
L 697 3053 
L 147 3053 
L 147 3500 
L 697 3500 
L 697 3744 
Q 697 4328 969 4595 
Q 1241 4863 1831 4863 
L 2375 4863 
z
" transform="scale(0.015625)"/>
        <path id="DejaVuSans-61" d="M 2194 1759 
Q 1497 1759 1228 1600 
Q 959 1441 959 1056 
Q 959 750 1161 570 
Q 1363 391 1709 391 
Q 2188 391 2477 730 
Q 2766 1069 2766 1631 
L 2766 1759 
L 2194 1759 
z
M 3341 1997 
L 3341 0 
L 2766 0 
L 2766 531 
Q 2569 213 2275 61 
Q 1981 -91 1556 -91 
Q 1019 -91 701 211 
Q 384 513 384 1019 
Q 384 1609 779 1909 
Q 1175 2209 1959 2209 
L 2766 2209 
L 2766 2266 
Q 2766 2663 2505 2880 
Q 2244 3097 1772 3097 
Q 1472 3097 1187 3025 
Q 903 2953 641 2809 
L 641 3341 
Q 956 3463 1253 3523 
Q 1550 3584 1831 3584 
Q 2591 3584 2966 3190 
Q 3341 2797 3341 1997 
z
" transform="scale(0.015625)"/>
        <path id="DejaVuSans-73" d="M 2834 3397 
L 2834 2853 
Q 2591 2978 2328 3040 
Q 2066 3103 1784 3103 
Q 1356 3103 1142 2972 
Q 928 2841 928 2578 
Q 928 2378 1081 2264 
Q 1234 2150 1697 2047 
L 1894 2003 
Q 2506 1872 2764 1633 
Q 3022 1394 3022 966 
Q 3022 478 2636 193 
Q 2250 -91 1575 -91 
Q 1294 -91 989 -36 
Q 684 19 347 128 
L 347 722 
Q 666 556 975 473 
Q 1284 391 1588 391 
Q 1994 391 2212 530 
Q 2431 669 2431 922 
Q 2431 1156 2273 1281 
Q 2116 1406 1581 1522 
L 1381 1569 
Q 847 1681 609 1914 
Q 372 2147 372 2553 
Q 372 3047 722 3315 
Q 1072 3584 1716 3584 
Q 2034 3584 2315 3537 
Q 2597 3491 2834 3397 
z
" transform="scale(0.015625)"/>
        <path id="DejaVuSans-74" d="M 1172 4494 
L 1172 3500 
L 2356 3500 
L 2356 3053 
L 1172 3053 
L 1172 1153 
Q 1172 725 1289 603 
Q 1406 481 1766 481 
L 2356 481 
L 2356 0 
L 1766 0 
Q 1100 0 847 248 
Q 594 497 594 1153 
L 594 3053 
L 172 3053 
L 172 3500 
L 594 3500 
L 594 4494 
L 1172 4494 
z
" transform="scale(0.015625)"/>
        <path id="DejaVuSans-2d" d="M 313 2009 
L 1997 2009 
L 1997 1497 
L 313 1497 
L 313 2009 
z
" transform="scale(0.015625)"/>
        <path id="DejaVuSans-77" d="M 269 3500 
L 844 3500 
L 1563 769 
L 2278 3500 
L 2956 3500 
L 3675 769 
L 4391 3500 
L 4966 3500 
L 4050 0 
L 3372 0 
L 2619 2869 
L 1863 0 
L 1184 0 
L 269 3500 
z
" transform="scale(0.015625)"/>
        <path id="DejaVuSans-65" d="M 3597 1894 
L 3597 1613 
L 953 1613 
Q 991 1019 1311 708 
Q 1631 397 2203 397 
Q 2534 397 2845 478 
Q 3156 559 3463 722 
L 3463 178 
Q 3153 47 2828 -22 
Q 2503 -91 2169 -91 
Q 1331 -91 842 396 
Q 353 884 353 1716 
Q 353 2575 817 3079 
Q 1281 3584 2069 3584 
Q 2775 3584 3186 3129 
Q 3597 2675 3597 1894 
z
M 3022 2063 
Q 3016 2534 2758 2815 
Q 2500 3097 2075 3097 
Q 1594 3097 1305 2825 
Q 1016 2553 972 2059 
L 3022 2063 
z
" transform="scale(0.015625)"/>
        <path id="DejaVuSans-69" d="M 603 3500 
L 1178 3500 
L 1178 0 
L 603 0 
L 603 3500 
z
M 603 4863 
L 1178 4863 
L 1178 4134 
L 603 4134 
L 603 4863 
z
" transform="scale(0.015625)"/>
        <path id="DejaVuSans-67" d="M 2906 1791 
Q 2906 2416 2648 2759 
Q 2391 3103 1925 3103 
Q 1463 3103 1205 2759 
Q 947 2416 947 1791 
Q 947 1169 1205 825 
Q 1463 481 1925 481 
Q 2391 481 2648 825 
Q 2906 1169 2906 1791 
z
M 3481 434 
Q 3481 -459 3084 -895 
Q 2688 -1331 1869 -1331 
Q 1566 -1331 1297 -1286 
Q 1028 -1241 775 -1147 
L 775 -588 
Q 1028 -725 1275 -790 
Q 1522 -856 1778 -856 
Q 2344 -856 2625 -561 
Q 2906 -266 2906 331 
L 2906 616 
Q 2728 306 2450 153 
Q 2172 0 1784 0 
Q 1141 0 747 490 
Q 353 981 353 1791 
Q 353 2603 747 3093 
Q 1141 3584 1784 3584 
Q 2172 3584 2450 3431 
Q 2728 3278 2906 2969 
L 2906 3500 
L 3481 3500 
L 3481 434 
z
" transform="scale(0.015625)"/>
        <path id="DejaVuSans-68" d="M 3513 2113 
L 3513 0 
L 2938 0 
L 2938 2094 
Q 2938 2591 2744 2837 
Q 2550 3084 2163 3084 
Q 1697 3084 1428 2787 
Q 1159 2491 1159 1978 
L 1159 0 
L 581 0 
L 581 4863 
L 1159 4863 
L 1159 2956 
Q 1366 3272 1645 3428 
Q 1925 3584 2291 3584 
Q 2894 3584 3203 3211 
Q 3513 2838 3513 2113 
z
" transform="scale(0.015625)"/>
       </defs>
       <use xlink:href="#DejaVuSans-66"/>
       <use xlink:href="#DejaVuSans-61" x="35.205078"/>
       <use xlink:href="#DejaVuSans-73" x="96.484375"/>
       <use xlink:href="#DejaVuSans-74" x="148.583984"/>
       <use xlink:href="#DejaVuSans-2d" x="187.792969"/>
       <use xlink:href="#DejaVuSans-77" x="223.876953"/>
       <use xlink:href="#DejaVuSans-65" x="305.664062"/>
       <use xlink:href="#DejaVuSans-69" x="367.1875"/>
       <use xlink:href="#DejaVuSans-67" x="394.970703"/>
       <use xlink:href="#DejaVuSans-68" x="458.447266"/>
       <use xlink:href="#DejaVuSans-74" x="521.826172"/>
      </g>
      <!-- contender -->
      <g style="fill: #1a1a1a" transform="translate(69.568914 279.133) scale(0.08 -0.08)">
       <defs>
        <path id="DejaVuSans-63" d="M 3122 3366 
L 3122 2828 
Q 2878 2963 2633 3030 
Q 2388 3097 2138 3097 
Q 1578 3097 1268 2742 
Q 959 2388 959 1747 
Q 959 1106 1268 751 
Q 1578 397 2138 397 
Q 2388 397 2633 464 
Q 2878 531 3122 666 
L 3122 134 
Q 2881 22 2623 -34 
Q 2366 -91 2075 -91 
Q 1284 -91 818 406 
Q 353 903 353 1747 
Q 353 2603 823 3093 
Q 1294 3584 2113 3584 
Q 2378 3584 2631 3529 
Q 2884 3475 3122 3366 
z
" transform="scale(0.015625)"/>
        <path id="DejaVuSans-6f" d="M 1959 3097 
Q 1497 3097 1228 2736 
Q 959 2375 959 1747 
Q 959 1119 1226 758 
Q 1494 397 1959 397 
Q 2419 397 2687 759 
Q 2956 1122 2956 1747 
Q 2956 2369 2687 2733 
Q 2419 3097 1959 3097 
z
M 1959 3584 
Q 2709 3584 3137 3096 
Q 3566 2609 3566 1747 
Q 3566 888 3137 398 
Q 2709 -91 1959 -91 
Q 1206 -91 779 398 
Q 353 888 353 1747 
Q 353 2609 779 3096 
Q 1206 3584 1959 3584 
z
" transform="scale(0.015625)"/>
        <path id="DejaVuSans-6e" d="M 3513 2113 
L 3513 0 
L 2938 0 
L 2938 2094 
Q 2938 2591 2744 2837 
Q 2550 3084 2163 3084 
Q 1697 3084 1428 2787 
Q 1159 2491 1159 1978 
L 1159 0 
L 581 0 
L 581 3500 
L 1159 3500 
L 1159 2956 
Q 1366 3272 1645 3428 
Q 1925 3584 2291 3584 
Q 2894 3584 3203 3211 
Q 3513 2838 3513 2113 
z
" transform="scale(0.015625)"/>
        <path id="DejaVuSans-64" d="M 2906 2969 
L 2906 4863 
L 3481 4863 
L 3481 0 
L 2906 0 
L 2906 525 
Q 2725 213 2448 61 
Q 2172 -91 1784 -91 
Q 1150 -91 751 415 
Q 353 922 353 1747 
Q 353 2572 751 3078 
Q 1150 3584 1784 3584 
Q 2172 3584 2448 3432 
Q 2725 3281 2906 2969 
z
M 947 1747 
Q 947 1113 1208 752 
Q 1469 391 1925 391 
Q 2381 391 2643 752 
Q 2906 1113 2906 1747 
Q 2906 2381 2643 2742 
Q 2381 3103 1925 3103 
Q 1469 3103 1208 2742 
Q 947 2381 947 1747 
z
" transform="scale(0.015625)"/>
        <path id="DejaVuSans-72" d="M 2631 2963 
Q 2534 3019 2420 3045 
Q 2306 3072 2169 3072 
Q 1681 3072 1420 2755 
Q 1159 2438 1159 1844 
L 1159 0 
L 581 0 
L 581 3500 
L 1159 3500 
L 1159 2956 
Q 1341 3275 1631 3429 
Q 1922 3584 2338 3584 
Q 2397 3584 2469 3576 
Q 2541 3569 2628 3553 
L 2631 2963 
z
" transform="scale(0.015625)"/>
       </defs>
       <use xlink:href="#DejaVuSans-63"/>
       <use xlink:href="#DejaVuSans-6f" x="54.980469"/>
       <use xlink:href="#DejaVuSans-6e" x="116.162109"/>
       <use xlink:href="#DejaVuSans-74" x="179.541016"/>
       <use xlink:href="#DejaVuSans-65" x="218.75"/>
       <use xlink:href="#DejaVuSans-6e" x="280.273438"/>
       <use xlink:href="#DejaVuSans-64" x="343.652344"/>
       <use xlink:href="#DejaVuSans-65" x="407.128906"/>
       <use xlink:href="#DejaVuSans-72" x="468.652344"/>
      </g>
     </g>
    </g>
    <g id="xtick_2">
     <g id="line2d_2">
      <g>
       <use xlink:href="#mdf087e1615" x="188.561563" y="257.096" style="fill: #1a1a1a; stroke: #1a1a1a; stroke-width: 0.8"/>
      </g>
     </g>
     <g id="text_2">
      <!-- flat-vector -->
      <g style="fill: #1a1a1a" transform="translate(167.996563 270.17475) scale(0.08 -0.08)">
       <defs>
        <path id="DejaVuSans-6c" d="M 603 4863 
L 1178 4863 
L 1178 0 
L 603 0 
L 603 4863 
z
" transform="scale(0.015625)"/>
        <path id="DejaVuSans-76" d="M 191 3500 
L 800 3500 
L 1894 563 
L 2988 3500 
L 3597 3500 
L 2284 0 
L 1503 0 
L 191 3500 
z
" transform="scale(0.015625)"/>
       </defs>
       <use xlink:href="#DejaVuSans-66"/>
       <use xlink:href="#DejaVuSans-6c" x="35.205078"/>
       <use xlink:href="#DejaVuSans-61" x="62.988281"/>
       <use xlink:href="#DejaVuSans-74" x="124.267578"/>
       <use xlink:href="#DejaVuSans-2d" x="163.476562"/>
       <use xlink:href="#DejaVuSans-76" x="196.935547"/>
       <use xlink:href="#DejaVuSans-65" x="256.115234"/>
       <use xlink:href="#DejaVuSans-63" x="317.638672"/>
       <use xlink:href="#DejaVuSans-74" x="372.619141"/>
       <use xlink:href="#DejaVuSans-6f" x="411.828125"/>
       <use xlink:href="#DejaVuSans-72" x="473.009766"/>
      </g>
      <!-- ablation -->
      <g style="fill: #1a1a1a" transform="translate(172.346563 279.133) scale(0.08 -0.08)">
       <defs>
        <path id="DejaVuSans-62" d="M 3116 1747 
Q 3116 2381 2855 2742 
Q 2594 3103 2138 3103 
Q 1681 3103 1420 2742 
Q 1159 2381 1159 1747 
Q 1159 1113 1420 752 
Q 1681 391 2138 391 
Q 2594 391 2855 752 
Q 3116 1113 3116 1747 
z
M 1159 2969 
Q 1341 3281 1617 3432 
Q 1894 3584 2278 3584 
Q 2916 3584 3314 3078 
Q 3713 2572 3713 1747 
Q 3713 922 3314 415 
Q 2916 -91 2278 -91 
Q 1894 -91 1617 61 
Q 1341 213 1159 525 
L 1159 0 
L 581 0 
L 581 4863 
L 1159 4863 
L 1159 2969 
z
" transform="scale(0.015625)"/>
       </defs>
       <use xlink:href="#DejaVuSans-61"/>
       <use xlink:href="#DejaVuSans-62" x="61.279297"/>
       <use xlink:href="#DejaVuSans-6c" x="124.755859"/>
       <use xlink:href="#DejaVuSans-61" x="152.539062"/>
       <use xlink:href="#DejaVuSans-74" x="213.818359"/>
       <use xlink:href="#DejaVuSans-69" x="253.027344"/>
       <use xlink:href="#DejaVuSans-6f" x="280.810547"/>
       <use xlink:href="#DejaVuSans-6e" x="341.992188"/>
      </g>
      <!-- (param-matched) -->
      <g style="fill: #1a1a1a" transform="translate(153.364063 288.09125) scale(0.08 -0.08)">
       <defs>
        <path id="DejaVuSans-28" d="M 1984 4856 
Q 1566 4138 1362 3434 
Q 1159 2731 1159 2009 
Q 1159 1288 1364 580 
Q 1569 -128 1984 -844 
L 1484 -844 
Q 1016 -109 783 600 
Q 550 1309 550 2009 
Q 550 2706 781 3412 
Q 1013 4119 1484 4856 
L 1984 4856 
z
" transform="scale(0.015625)"/>
        <path id="DejaVuSans-70" d="M 1159 525 
L 1159 -1331 
L 581 -1331 
L 581 3500 
L 1159 3500 
L 1159 2969 
Q 1341 3281 1617 3432 
Q 1894 3584 2278 3584 
Q 2916 3584 3314 3078 
Q 3713 2572 3713 1747 
Q 3713 922 3314 415 
Q 2916 -91 2278 -91 
Q 1894 -91 1617 61 
Q 1341 213 1159 525 
z
M 3116 1747 
Q 3116 2381 2855 2742 
Q 2594 3103 2138 3103 
Q 1681 3103 1420 2742 
Q 1159 2381 1159 1747 
Q 1159 1113 1420 752 
Q 1681 391 2138 391 
Q 2594 391 2855 752 
Q 3116 1113 3116 1747 
z
" transform="scale(0.015625)"/>
        <path id="DejaVuSans-6d" d="M 3328 2828 
Q 3544 3216 3844 3400 
Q 4144 3584 4550 3584 
Q 5097 3584 5394 3201 
Q 5691 2819 5691 2113 
L 5691 0 
L 5113 0 
L 5113 2094 
Q 5113 2597 4934 2840 
Q 4756 3084 4391 3084 
Q 3944 3084 3684 2787 
Q 3425 2491 3425 1978 
L 3425 0 
L 2847 0 
L 2847 2094 
Q 2847 2600 2669 2842 
Q 2491 3084 2119 3084 
Q 1678 3084 1418 2786 
Q 1159 2488 1159 1978 
L 1159 0 
L 581 0 
L 581 3500 
L 1159 3500 
L 1159 2956 
Q 1356 3278 1631 3431 
Q 1906 3584 2284 3584 
Q 2666 3584 2933 3390 
Q 3200 3197 3328 2828 
z
" transform="scale(0.015625)"/>
        <path id="DejaVuSans-29" d="M 513 4856 
L 1013 4856 
Q 1481 4119 1714 3412 
Q 1947 2706 1947 2009 
Q 1947 1309 1714 600 
Q 1481 -109 1013 -844 
L 513 -844 
Q 928 -128 1133 580 
Q 1338 1288 1338 2009 
Q 1338 2731 1133 3434 
Q 928 4138 513 4856 
z
" transform="scale(0.015625)"/>
       </defs>
       <use xlink:href="#DejaVuSans-28"/>
       <use xlink:href="#DejaVuSans-70" x="39.013672"/>
       <use xlink:href="#DejaVuSans-61" x="102.490234"/>
       <use xlink:href="#DejaVuSans-72" x="163.769531"/>
       <use xlink:href="#DejaVuSans-61" x="204.882812"/>
       <use xlink:href="#DejaVuSans-6d" x="266.162109"/>
       <use xlink:href="#DejaVuSans-2d" x="363.574219"/>
       <use xlink:href="#DejaVuSans-6d" x="399.658203"/>
       <use xlink:href="#DejaVuSans-61" x="497.070312"/>
       <use xlink:href="#DejaVuSans-74" x="558.349609"/>
       <use xlink:href="#DejaVuSans-63" x="597.558594"/>
       <use xlink:href="#DejaVuSans-68" x="652.539062"/>
       <use xlink:href="#DejaVuSans-65" x="715.917969"/>
       <use xlink:href="#DejaVuSans-64" x="777.441406"/>
       <use xlink:href="#DejaVuSans-29" x="840.917969"/>
      </g>
     </g>
    </g>
    <g id="xtick_3">
     <g id="line2d_3">
      <g>
       <use xlink:href="#mdf087e1615" x="287.162961" y="257.096" style="fill: #1a1a1a; stroke: #1a1a1a; stroke-width: 0.8"/>
      </g>
     </g>
     <g id="text_3">
      <!-- transformer -->
      <g style="fill: #1a1a1a" transform="translate(263.448586 270.17475) scale(0.08 -0.08)">
       <use xlink:href="#DejaVuSans-74"/>
       <use xlink:href="#DejaVuSans-72" x="39.208984"/>
       <use xlink:href="#DejaVuSans-61" x="80.322266"/>
       <use xlink:href="#DejaVuSans-6e" x="141.601562"/>
       <use xlink:href="#DejaVuSans-73" x="204.980469"/>
       <use xlink:href="#DejaVuSans-66" x="257.080078"/>
       <use xlink:href="#DejaVuSans-6f" x="292.285156"/>
       <use xlink:href="#DejaVuSans-72" x="353.466797"/>
       <use xlink:href="#DejaVuSans-6d" x="392.830078"/>
       <use xlink:href="#DejaVuSans-65" x="490.242188"/>
       <use xlink:href="#DejaVuSans-72" x="551.765625"/>
      </g>
      <!-- (FLOP/data- -->
      <g style="fill: #1a1a1a" transform="translate(263.856711 279.133) scale(0.08 -0.08)">
       <defs>
        <path id="DejaVuSans-46" d="M 628 4666 
L 3309 4666 
L 3309 4134 
L 1259 4134 
L 1259 2759 
L 3109 2759 
L 3109 2228 
L 1259 2228 
L 1259 0 
L 628 0 
L 628 4666 
z
" transform="scale(0.015625)"/>
        <path id="DejaVuSans-4c" d="M 628 4666 
L 1259 4666 
L 1259 531 
L 3531 531 
L 3531 0 
L 628 0 
L 628 4666 
z
" transform="scale(0.015625)"/>
        <path id="DejaVuSans-4f" d="M 2522 4238 
Q 1834 4238 1429 3725 
Q 1025 3213 1025 2328 
Q 1025 1447 1429 934 
Q 1834 422 2522 422 
Q 3209 422 3611 934 
Q 4013 1447 4013 2328 
Q 4013 3213 3611 3725 
Q 3209 4238 2522 4238 
z
M 2522 4750 
Q 3503 4750 4090 4092 
Q 4678 3434 4678 2328 
Q 4678 1225 4090 567 
Q 3503 -91 2522 -91 
Q 1538 -91 948 565 
Q 359 1222 359 2328 
Q 359 3434 948 4092 
Q 1538 4750 2522 4750 
z
" transform="scale(0.015625)"/>
        <path id="DejaVuSans-50" d="M 1259 4147 
L 1259 2394 
L 2053 2394 
Q 2494 2394 2734 2622 
Q 2975 2850 2975 3272 
Q 2975 3691 2734 3919 
Q 2494 4147 2053 4147 
L 1259 4147 
z
M 628 4666 
L 2053 4666 
Q 2838 4666 3239 4311 
Q 3641 3956 3641 3272 
Q 3641 2581 3239 2228 
Q 2838 1875 2053 1875 
L 1259 1875 
L 1259 0 
L 628 0 
L 628 4666 
z
" transform="scale(0.015625)"/>
        <path id="DejaVuSans-2f" d="M 1625 4666 
L 2156 4666 
L 531 -594 
L 0 -594 
L 1625 4666 
z
" transform="scale(0.015625)"/>
       </defs>
       <use xlink:href="#DejaVuSans-28"/>
       <use xlink:href="#DejaVuSans-46" x="39.013672"/>
       <use xlink:href="#DejaVuSans-4c" x="96.533203"/>
       <use xlink:href="#DejaVuSans-4f" x="148.621094"/>
       <use xlink:href="#DejaVuSans-50" x="227.332031"/>
       <use xlink:href="#DejaVuSans-2f" x="287.634766"/>
       <use xlink:href="#DejaVuSans-64" x="321.326172"/>
       <use xlink:href="#DejaVuSans-61" x="384.802734"/>
       <use xlink:href="#DejaVuSans-74" x="446.082031"/>
       <use xlink:href="#DejaVuSans-61" x="485.291016"/>
       <use xlink:href="#DejaVuSans-2d" x="546.570312"/>
      </g>
      <!-- matched) -->
      <g style="fill: #1a1a1a" transform="translate(267.951711 288.09125) scale(0.08 -0.08)">
       <use xlink:href="#DejaVuSans-6d"/>
       <use xlink:href="#DejaVuSans-61" x="97.412109"/>
       <use xlink:href="#DejaVuSans-74" x="158.691406"/>
       <use xlink:href="#DejaVuSans-63" x="197.900391"/>
       <use xlink:href="#DejaVuSans-68" x="252.880859"/>
       <use xlink:href="#DejaVuSans-65" x="316.259766"/>
       <use xlink:href="#DejaVuSans-64" x="377.783203"/>
       <use xlink:href="#DejaVuSans-29" x="441.259766"/>
      </g>
     </g>
    </g>
   </g>
   <g id="matplotlib.axis_2">
    <g id="ytick_1">
     <g id="line2d_4">
      <path d="M 47.561563 257.096 
L 329.561563 257.096 
" clip-path="url(#p920692b651)" style="fill: none; stroke: #1a1a1a; stroke-opacity: 0.22; stroke-width: 0.5; stroke-linecap: square"/>
     </g>
     <g id="line2d_5">
      <defs>
       <path id="m95e4e149d9" d="M 0 0 
L -3.5 0 
" style="stroke: #1a1a1a; stroke-width: 0.8"/>
      </defs>
      <g>
       <use xlink:href="#m95e4e149d9" x="47.561563" y="257.096" style="fill: #1a1a1a; stroke: #1a1a1a; stroke-width: 0.8"/>
      </g>
     </g>
     <g id="text_4">
      <!-- 0.0 -->
      <g style="fill: #1a1a1a" transform="translate(24.658438 260.895219) scale(0.1 -0.1)">
       <defs>
        <path id="DejaVuSans-30" d="M 2034 4250 
Q 1547 4250 1301 3770 
Q 1056 3291 1056 2328 
Q 1056 1369 1301 889 
Q 1547 409 2034 409 
Q 2525 409 2770 889 
Q 3016 1369 3016 2328 
Q 3016 3291 2770 3770 
Q 2525 4250 2034 4250 
z
M 2034 4750 
Q 2819 4750 3233 4129 
Q 3647 3509 3647 2328 
Q 3647 1150 3233 529 
Q 2819 -91 2034 -91 
Q 1250 -91 836 529 
Q 422 1150 422 2328 
Q 422 3509 836 4129 
Q 1250 4750 2034 4750 
z
" transform="scale(0.015625)"/>
        <path id="DejaVuSans-2e" d="M 684 794 
L 1344 794 
L 1344 0 
L 684 0 
L 684 794 
z
" transform="scale(0.015625)"/>
       </defs>
       <use xlink:href="#DejaVuSans-30"/>
       <use xlink:href="#DejaVuSans-2e" x="63.623047"/>
       <use xlink:href="#DejaVuSans-30" x="95.410156"/>
      </g>
     </g>
    </g>
    <g id="ytick_2">
     <g id="line2d_6">
      <path d="M 47.561563 211.243523 
L 329.561563 211.243523 
" clip-path="url(#p920692b651)" style="fill: none; stroke: #1a1a1a; stroke-opacity: 0.22; stroke-width: 0.5; stroke-linecap: square"/>
     </g>
     <g id="line2d_7">
      <g>
       <use xlink:href="#m95e4e149d9" x="47.561563" y="211.243523" style="fill: #1a1a1a; stroke: #1a1a1a; stroke-width: 0.8"/>
      </g>
     </g>
     <g id="text_5">
      <!-- 0.2 -->
      <g style="fill: #1a1a1a" transform="translate(24.658438 215.042742) scale(0.1 -0.1)">
       <defs>
        <path id="DejaVuSans-32" d="M 1228 531 
L 3431 531 
L 3431 0 
L 469 0 
L 469 531 
Q 828 903 1448 1529 
Q 2069 2156 2228 2338 
Q 2531 2678 2651 2914 
Q 2772 3150 2772 3378 
Q 2772 3750 2511 3984 
Q 2250 4219 1831 4219 
Q 1534 4219 1204 4116 
Q 875 4013 500 3803 
L 500 4441 
Q 881 4594 1212 4672 
Q 1544 4750 1819 4750 
Q 2544 4750 2975 4387 
Q 3406 4025 3406 3419 
Q 3406 3131 3298 2873 
Q 3191 2616 2906 2266 
Q 2828 2175 2409 1742 
Q 1991 1309 1228 531 
z
" transform="scale(0.015625)"/>
       </defs>
       <use xlink:href="#DejaVuSans-30"/>
       <use xlink:href="#DejaVuSans-2e" x="63.623047"/>
       <use xlink:href="#DejaVuSans-32" x="95.410156"/>
      </g>
     </g>
    </g>
    <g id="ytick_3">
     <g id="line2d_8">
      <path d="M 47.561563 165.391046 
L 329.561563 165.391046 
" clip-path="url(#p920692b651)" style="fill: none; stroke: #1a1a1a; stroke-opacity: 0.22; stroke-width: 0.5; stroke-linecap: square"/>
     </g>
     <g id="line2d_9">
      <g>
       <use xlink:href="#m95e4e149d9" x="47.561563" y="165.391046" style="fill: #1a1a1a; stroke: #1a1a1a; stroke-width: 0.8"/>
      </g>
     </g>
     <g id="text_6">
      <!-- 0.4 -->
      <g style="fill: #1a1a1a" transform="translate(24.658438 169.190265) scale(0.1 -0.1)">
       <defs>
        <path id="DejaVuSans-34" d="M 2419 4116 
L 825 1625 
L 2419 1625 
L 2419 4116 
z
M 2253 4666 
L 3047 4666 
L 3047 1625 
L 3713 1625 
L 3713 1100 
L 3047 1100 
L 3047 0 
L 2419 0 
L 2419 1100 
L 313 1100 
L 313 1709 
L 2253 4666 
z
" transform="scale(0.015625)"/>
       </defs>
       <use xlink:href="#DejaVuSans-30"/>
       <use xlink:href="#DejaVuSans-2e" x="63.623047"/>
       <use xlink:href="#DejaVuSans-34" x="95.410156"/>
      </g>
     </g>
    </g>
    <g id="ytick_4">
     <g id="line2d_10">
      <path d="M 47.561563 119.538569 
L 329.561563 119.538569 
" clip-path="url(#p920692b651)" style="fill: none; stroke: #1a1a1a; stroke-opacity: 0.22; stroke-width: 0.5; stroke-linecap: square"/>
     </g>
     <g id="line2d_11">
      <g>
       <use xlink:href="#m95e4e149d9" x="47.561563" y="119.538569" style="fill: #1a1a1a; stroke: #1a1a1a; stroke-width: 0.8"/>
      </g>
     </g>
     <g id="text_7">
      <!-- 0.6 -->
      <g style="fill: #1a1a1a" transform="translate(24.658438 123.337788) scale(0.1 -0.1)">
       <defs>
        <path id="DejaVuSans-36" d="M 2113 2584 
Q 1688 2584 1439 2293 
Q 1191 2003 1191 1497 
Q 1191 994 1439 701 
Q 1688 409 2113 409 
Q 2538 409 2786 701 
Q 3034 994 3034 1497 
Q 3034 2003 2786 2293 
Q 2538 2584 2113 2584 
z
M 3366 4563 
L 3366 3988 
Q 3128 4100 2886 4159 
Q 2644 4219 2406 4219 
Q 1781 4219 1451 3797 
Q 1122 3375 1075 2522 
Q 1259 2794 1537 2939 
Q 1816 3084 2150 3084 
Q 2853 3084 3261 2657 
Q 3669 2231 3669 1497 
Q 3669 778 3244 343 
Q 2819 -91 2113 -91 
Q 1303 -91 875 529 
Q 447 1150 447 2328 
Q 447 3434 972 4092 
Q 1497 4750 2381 4750 
Q 2619 4750 2861 4703 
Q 3103 4656 3366 4563 
z
" transform="scale(0.015625)"/>
       </defs>
       <use xlink:href="#DejaVuSans-30"/>
       <use xlink:href="#DejaVuSans-2e" x="63.623047"/>
       <use xlink:href="#DejaVuSans-36" x="95.410156"/>
      </g>
     </g>
    </g>
    <g id="ytick_5">
     <g id="line2d_12">
      <path d="M 47.561563 73.686092 
L 329.561563 73.686092 
" clip-path="url(#p920692b651)" style="fill: none; stroke: #1a1a1a; stroke-opacity: 0.22; stroke-width: 0.5; stroke-linecap: square"/>
     </g>
     <g id="line2d_13">
      <g>
       <use xlink:href="#m95e4e149d9" x="47.561563" y="73.686092" style="fill: #1a1a1a; stroke: #1a1a1a; stroke-width: 0.8"/>
      </g>
     </g>
     <g id="text_8">
      <!-- 0.8 -->
      <g style="fill: #1a1a1a" transform="translate(24.658438 77.48531) scale(0.1 -0.1)">
       <defs>
        <path id="DejaVuSans-38" d="M 2034 2216 
Q 1584 2216 1326 1975 
Q 1069 1734 1069 1313 
Q 1069 891 1326 650 
Q 1584 409 2034 409 
Q 2484 409 2743 651 
Q 3003 894 3003 1313 
Q 3003 1734 2745 1975 
Q 2488 2216 2034 2216 
z
M 1403 2484 
Q 997 2584 770 2862 
Q 544 3141 544 3541 
Q 544 4100 942 4425 
Q 1341 4750 2034 4750 
Q 2731 4750 3128 4425 
Q 3525 4100 3525 3541 
Q 3525 3141 3298 2862 
Q 3072 2584 2669 2484 
Q 3125 2378 3379 2068 
Q 3634 1759 3634 1313 
Q 3634 634 3220 271 
Q 2806 -91 2034 -91 
Q 1263 -91 848 271 
Q 434 634 434 1313 
Q 434 1759 690 2068 
Q 947 2378 1403 2484 
z
M 1172 3481 
Q 1172 3119 1398 2916 
Q 1625 2713 2034 2713 
Q 2441 2713 2670 2916 
Q 2900 3119 2900 3481 
Q 2900 3844 2670 4047 
Q 2441 4250 2034 4250 
Q 1625 4250 1398 4047 
Q 1172 3844 1172 3481 
z
" transform="scale(0.015625)"/>
       </defs>
       <use xlink:href="#DejaVuSans-30"/>
       <use xlink:href="#DejaVuSans-2e" x="63.623047"/>
       <use xlink:href="#DejaVuSans-38" x="95.410156"/>
      </g>
     </g>
    </g>
    <g id="ytick_6">
     <g id="line2d_14">
      <path d="M 47.561563 27.833615 
L 329.561563 27.833615 
" clip-path="url(#p920692b651)" style="fill: none; stroke: #1a1a1a; stroke-opacity: 0.22; stroke-width: 0.5; stroke-linecap: square"/>
     </g>
     <g id="line2d_15">
      <g>
       <use xlink:href="#m95e4e149d9" x="47.561563" y="27.833615" style="fill: #1a1a1a; stroke: #1a1a1a; stroke-width: 0.8"/>
      </g>
     </g>
     <g id="text_9">
      <!-- 1.0 -->
      <g style="fill: #1a1a1a" transform="translate(24.658438 31.632833) scale(0.1 -0.1)">
       <defs>
        <path id="DejaVuSans-31" d="M 794 531 
L 1825 531 
L 1825 4091 
L 703 3866 
L 703 4441 
L 1819 4666 
L 2450 4666 
L 2450 531 
L 3481 531 
L 3481 0 
L 794 0 
L 794 531 
z
" transform="scale(0.015625)"/>
       </defs>
       <use xlink:href="#DejaVuSans-31"/>
       <use xlink:href="#DejaVuSans-2e" x="63.623047"/>
       <use xlink:href="#DejaVuSans-30" x="95.410156"/>
      </g>
     </g>
    </g>
    <g id="text_10">
     <!-- recall acc_A (K=32, top-1) -->
     <g style="fill: #1a1a1a" transform="translate(14.418516 194.241633) rotate(-90) scale(0.095 -0.095)">
      <defs>
       <path id="DejaVuSans-20" transform="scale(0.015625)"/>
       <path id="DejaVuSans-5f" d="M 3263 -1063 
L 3263 -1509 
L -63 -1509 
L -63 -1063 
L 3263 -1063 
z
" transform="scale(0.015625)"/>
       <path id="DejaVuSans-41" d="M 2188 4044 
L 1331 1722 
L 3047 1722 
L 2188 4044 
z
M 1831 4666 
L 2547 4666 
L 4325 0 
L 3669 0 
L 3244 1197 
L 1141 1197 
L 716 0 
L 50 0 
L 1831 4666 
z
" transform="scale(0.015625)"/>
       <path id="DejaVuSans-4b" d="M 628 4666 
L 1259 4666 
L 1259 2694 
L 3353 4666 
L 4166 4666 
L 1850 2491 
L 4331 0 
L 3500 0 
L 1259 2247 
L 1259 0 
L 628 0 
L 628 4666 
z
" transform="scale(0.015625)"/>
       <path id="DejaVuSans-3d" d="M 678 2906 
L 4684 2906 
L 4684 2381 
L 678 2381 
L 678 2906 
z
M 678 1631 
L 4684 1631 
L 4684 1100 
L 678 1100 
L 678 1631 
z
" transform="scale(0.015625)"/>
       <path id="DejaVuSans-33" d="M 2597 2516 
Q 3050 2419 3304 2112 
Q 3559 1806 3559 1356 
Q 3559 666 3084 287 
Q 2609 -91 1734 -91 
Q 1441 -91 1130 -33 
Q 819 25 488 141 
L 488 750 
Q 750 597 1062 519 
Q 1375 441 1716 441 
Q 2309 441 2620 675 
Q 2931 909 2931 1356 
Q 2931 1769 2642 2001 
Q 2353 2234 1838 2234 
L 1294 2234 
L 1294 2753 
L 1863 2753 
Q 2328 2753 2575 2939 
Q 2822 3125 2822 3475 
Q 2822 3834 2567 4026 
Q 2313 4219 1838 4219 
Q 1578 4219 1281 4162 
Q 984 4106 628 3988 
L 628 4550 
Q 988 4650 1302 4700 
Q 1616 4750 1894 4750 
Q 2613 4750 3031 4423 
Q 3450 4097 3450 3541 
Q 3450 3153 3228 2886 
Q 3006 2619 2597 2516 
z
" transform="scale(0.015625)"/>
       <path id="DejaVuSans-2c" d="M 750 794 
L 1409 794 
L 1409 256 
L 897 -744 
L 494 -744 
L 750 256 
L 750 794 
z
" transform="scale(0.015625)"/>
      </defs>
      <use xlink:href="#DejaVuSans-72"/>
      <use xlink:href="#DejaVuSans-65" x="38.863281"/>
      <use xlink:href="#DejaVuSans-63" x="100.386719"/>
      <use xlink:href="#DejaVuSans-61" x="155.367188"/>
      <use xlink:href="#DejaVuSans-6c" x="216.646484"/>
      <use xlink:href="#DejaVuSans-6c" x="244.429688"/>
      <use xlink:href="#DejaVuSans-20" x="272.212891"/>
      <use xlink:href="#DejaVuSans-61" x="304"/>
      <use xlink:href="#DejaVuSans-63" x="365.279297"/>
      <use xlink:href="#DejaVuSans-63" x="420.259766"/>
      <use xlink:href="#DejaVuSans-5f" x="475.240234"/>
      <use xlink:href="#DejaVuSans-41" x="525.240234"/>
      <use xlink:href="#DejaVuSans-20" x="593.648438"/>
      <use xlink:href="#DejaVuSans-28" x="625.435547"/>
      <use xlink:href="#DejaVuSans-4b" x="664.449219"/>
      <use xlink:href="#DejaVuSans-3d" x="730.025391"/>
      <use xlink:href="#DejaVuSans-33" x="813.814453"/>
      <use xlink:href="#DejaVuSans-32" x="877.4375"/>
      <use xlink:href="#DejaVuSans-2c" x="941.060547"/>
      <use xlink:href="#DejaVuSans-20" x="972.847656"/>
      <use xlink:href="#DejaVuSans-74" x="1004.634766"/>
      <use xlink:href="#DejaVuSans-6f" x="1043.84375"/>
      <use xlink:href="#DejaVuSans-70" x="1105.025391"/>
      <use xlink:href="#DejaVuSans-2d" x="1168.501953"/>
      <use xlink:href="#DejaVuSans-31" x="1204.585938"/>
      <use xlink:href="#DejaVuSans-29" x="1268.208984"/>
     </g>
    </g>
   </g>
   <g id="line2d_16">
    <path d="M 47.561563 249.93155 
L 329.561563 249.93155 
" clip-path="url(#p920692b651)" style="fill: none; stroke-dasharray: 0.9,1.485; stroke-dashoffset: 0; stroke: #1a1a1a; stroke-opacity: 0.7; stroke-width: 0.9"/>
   </g>
   <g id="line2d_17">
    <path d="M 47.561563 235.602651 
L 329.561563 235.602651 
" clip-path="url(#p920692b651)" style="fill: none; stroke-dasharray: 3.33,1.44; stroke-dashoffset: 0; stroke: #1a1a1a; stroke-opacity: 0.7; stroke-width: 0.9"/>
   </g>
   <g id="patch_3">
    <path d="M 47.561563 257.096 
L 47.561563 7.2 
" style="fill: none; stroke: #1a1a1a; stroke-linejoin: miter; stroke-linecap: square"/>
   </g>
   <g id="patch_4">
    <path d="M 329.561563 257.096 
L 329.561563 7.2 
" style="fill: none; stroke: #1a1a1a; stroke-linejoin: miter; stroke-linecap: square"/>
   </g>
   <g id="patch_5">
    <path d="M 47.561563 257.096 
L 329.561563 257.096 
" style="fill: none; stroke: #1a1a1a; stroke-linejoin: miter; stroke-linecap: square"/>
   </g>
   <g id="patch_6">
    <path d="M 47.561563 7.2 
L 329.561563 7.2 
" style="fill: none; stroke: #1a1a1a; stroke-linejoin: miter; stroke-linecap: square"/>
   </g>
   <g id="patch_7">
    <path d="M 60.379744 257.096 
L 119.540583 257.096 
L 119.540583 28.057504 
L 60.379744 28.057504 
z
" clip-path="url(#p920692b651)" style="fill: #d55e00; opacity: 0.9; stroke: #1a1a1a; stroke-linejoin: miter"/>
   </g>
   <g id="patch_8">
    <path d="M 158.981143 257.096 
L 218.141982 257.096 
L 218.141982 246.853076 
L 158.981143 246.853076 
z
" clip-path="url(#p920692b651)" style="fill: #0072b2; opacity: 0.9; stroke: #1a1a1a; stroke-linejoin: miter"/>
   </g>
   <g id="patch_9">
    <path d="M 257.582542 257.096 
L 316.743381 257.096 
L 316.743381 250.323356 
L 257.582542 250.323356 
z
" clip-path="url(#p920692b651)" style="fill: #56b4e9; opacity: 0.9; stroke: #1a1a1a; stroke-linejoin: miter"/>
   </g>
   <g id="text_11">
    <!-- 0.999 -->
    <g style="fill: #1a1a1a" transform="translate(75.726805 23.057504) scale(0.09 -0.09)">
     <defs>
      <path id="DejaVuSans-Bold-30" d="M 2944 2338 
Q 2944 3213 2780 3570 
Q 2616 3928 2228 3928 
Q 1841 3928 1675 3570 
Q 1509 3213 1509 2338 
Q 1509 1453 1675 1090 
Q 1841 728 2228 728 
Q 2613 728 2778 1090 
Q 2944 1453 2944 2338 
z
M 4147 2328 
Q 4147 1169 3647 539 
Q 3147 -91 2228 -91 
Q 1306 -91 806 539 
Q 306 1169 306 2328 
Q 306 3491 806 4120 
Q 1306 4750 2228 4750 
Q 3147 4750 3647 4120 
Q 4147 3491 4147 2328 
z
" transform="scale(0.015625)"/>
      <path id="DejaVuSans-Bold-2e" d="M 653 1209 
L 1778 1209 
L 1778 0 
L 653 0 
L 653 1209 
z
" transform="scale(0.015625)"/>
      <path id="DejaVuSans-Bold-39" d="M 641 103 
L 641 966 
Q 928 831 1190 764 
Q 1453 697 1709 697 
Q 2247 697 2547 995 
Q 2847 1294 2900 1881 
Q 2688 1725 2447 1647 
Q 2206 1569 1925 1569 
Q 1209 1569 770 1986 
Q 331 2403 331 3084 
Q 331 3838 820 4291 
Q 1309 4744 2131 4744 
Q 3044 4744 3544 4128 
Q 4044 3513 4044 2388 
Q 4044 1231 3459 570 
Q 2875 -91 1856 -91 
Q 1528 -91 1228 -42 
Q 928 6 641 103 
z
M 2125 2350 
Q 2441 2350 2600 2554 
Q 2759 2759 2759 3169 
Q 2759 3575 2600 3781 
Q 2441 3988 2125 3988 
Q 1809 3988 1650 3781 
Q 1491 3575 1491 3169 
Q 1491 2759 1650 2554 
Q 1809 2350 2125 2350 
z
" transform="scale(0.015625)"/>
     </defs>
     <use xlink:href="#DejaVuSans-Bold-30"/>
     <use xlink:href="#DejaVuSans-Bold-2e" x="69.580078"/>
     <use xlink:href="#DejaVuSans-Bold-39" x="107.568359"/>
     <use xlink:href="#DejaVuSans-Bold-39" x="177.148438"/>
     <use xlink:href="#DejaVuSans-Bold-39" x="246.728516"/>
    </g>
   </g>
   <g id="text_12">
    <!-- 0.045 -->
    <g style="fill: #1a1a1a" transform="translate(174.328203 241.853076) scale(0.09 -0.09)">
     <defs>
      <path id="DejaVuSans-Bold-34" d="M 2356 3675 
L 1038 1722 
L 2356 1722 
L 2356 3675 
z
M 2156 4666 
L 3494 4666 
L 3494 1722 
L 4159 1722 
L 4159 850 
L 3494 850 
L 3494 0 
L 2356 0 
L 2356 850 
L 288 850 
L 288 1881 
L 2156 4666 
z
" transform="scale(0.015625)"/>
      <path id="DejaVuSans-Bold-35" d="M 678 4666 
L 3669 4666 
L 3669 3781 
L 1638 3781 
L 1638 3059 
Q 1775 3097 1914 3117 
Q 2053 3138 2203 3138 
Q 3056 3138 3531 2711 
Q 4006 2284 4006 1522 
Q 4006 766 3489 337 
Q 2972 -91 2053 -91 
Q 1656 -91 1267 -14 
Q 878 63 494 219 
L 494 1166 
Q 875 947 1217 837 
Q 1559 728 1863 728 
Q 2300 728 2551 942 
Q 2803 1156 2803 1522 
Q 2803 1891 2551 2103 
Q 2300 2316 1863 2316 
Q 1603 2316 1309 2248 
Q 1016 2181 678 2041 
L 678 4666 
z
" transform="scale(0.015625)"/>
     </defs>
     <use xlink:href="#DejaVuSans-Bold-30"/>
     <use xlink:href="#DejaVuSans-Bold-2e" x="69.580078"/>
     <use xlink:href="#DejaVuSans-Bold-30" x="107.568359"/>
     <use xlink:href="#DejaVuSans-Bold-34" x="177.148438"/>
     <use xlink:href="#DejaVuSans-Bold-35" x="246.728516"/>
    </g>
   </g>
   <g id="text_13">
    <!-- 0.030 -->
    <g style="fill: #1a1a1a" transform="translate(272.929602 245.323356) scale(0.09 -0.09)">
     <defs>
      <path id="DejaVuSans-Bold-33" d="M 2981 2516 
Q 3453 2394 3698 2092 
Q 3944 1791 3944 1325 
Q 3944 631 3412 270 
Q 2881 -91 1863 -91 
Q 1503 -91 1142 -33 
Q 781 25 428 141 
L 428 1069 
Q 766 900 1098 814 
Q 1431 728 1753 728 
Q 2231 728 2486 893 
Q 2741 1059 2741 1369 
Q 2741 1688 2480 1852 
Q 2219 2016 1709 2016 
L 1228 2016 
L 1228 2791 
L 1734 2791 
Q 2188 2791 2409 2933 
Q 2631 3075 2631 3366 
Q 2631 3634 2415 3781 
Q 2200 3928 1806 3928 
Q 1516 3928 1219 3862 
Q 922 3797 628 3669 
L 628 4550 
Q 984 4650 1334 4700 
Q 1684 4750 2022 4750 
Q 2931 4750 3382 4451 
Q 3834 4153 3834 3553 
Q 3834 3144 3618 2883 
Q 3403 2622 2981 2516 
z
" transform="scale(0.015625)"/>
     </defs>
     <use xlink:href="#DejaVuSans-Bold-30"/>
     <use xlink:href="#DejaVuSans-Bold-2e" x="69.580078"/>
     <use xlink:href="#DejaVuSans-Bold-30" x="107.568359"/>
     <use xlink:href="#DejaVuSans-Bold-33" x="177.148438"/>
     <use xlink:href="#DejaVuSans-Bold-30" x="246.728516"/>
    </g>
   </g>
  </g>
  <g id="axes_2">
   <g id="patch_10">
    <path d="M 380.561563 257.096 
L 662.561563 257.096 
L 662.561563 7.2 
L 380.561563 7.2 
z
" style="fill: #faf5e7"/>
   </g>
   <g id="matplotlib.axis_3">
    <g id="xtick_4">
     <g id="line2d_18">
      <g>
       <use xlink:href="#mdf087e1615" x="422.960164" y="257.096" style="fill: #1a1a1a; stroke: #1a1a1a; stroke-width: 0.8"/>
      </g>
     </g>
     <g id="text_14">
      <!-- both states -->
      <g style="fill: #1a1a1a" transform="translate(400.382664 270.17475) scale(0.08 -0.08)">
       <use xlink:href="#DejaVuSans-62"/>
       <use xlink:href="#DejaVuSans-6f" x="63.476562"/>
       <use xlink:href="#DejaVuSans-74" x="124.658203"/>
       <use xlink:href="#DejaVuSans-68" x="163.867188"/>
       <use xlink:href="#DejaVuSans-20" x="227.246094"/>
       <use xlink:href="#DejaVuSans-73" x="259.033203"/>
       <use xlink:href="#DejaVuSans-74" x="311.132812"/>
       <use xlink:href="#DejaVuSans-61" x="350.341797"/>
       <use xlink:href="#DejaVuSans-74" x="411.621094"/>
       <use xlink:href="#DejaVuSans-65" x="450.830078"/>
       <use xlink:href="#DejaVuSans-73" x="512.353516"/>
      </g>
      <!-- intact -->
      <g style="fill: #1a1a1a" transform="translate(411.527039 279.133) scale(0.08 -0.08)">
       <use xlink:href="#DejaVuSans-69"/>
       <use xlink:href="#DejaVuSans-6e" x="27.783203"/>
       <use xlink:href="#DejaVuSans-74" x="91.162109"/>
       <use xlink:href="#DejaVuSans-61" x="130.371094"/>
       <use xlink:href="#DejaVuSans-63" x="191.650391"/>
       <use xlink:href="#DejaVuSans-74" x="246.630859"/>
      </g>
     </g>
    </g>
    <g id="xtick_5">
     <g id="line2d_19">
      <g>
       <use xlink:href="#mdf087e1615" x="521.561563" y="257.096" style="fill: #1a1a1a; stroke: #1a1a1a; stroke-width: 0.8"/>
      </g>
     </g>
     <g id="text_15">
      <!-- S0 zeroed -->
      <g style="fill: #1a1a1a" transform="translate(501.642813 270.17475) scale(0.08 -0.08)">
       <defs>
        <path id="DejaVuSans-53" d="M 3425 4513 
L 3425 3897 
Q 3066 4069 2747 4153 
Q 2428 4238 2131 4238 
Q 1616 4238 1336 4038 
Q 1056 3838 1056 3469 
Q 1056 3159 1242 3001 
Q 1428 2844 1947 2747 
L 2328 2669 
Q 3034 2534 3370 2195 
Q 3706 1856 3706 1288 
Q 3706 609 3251 259 
Q 2797 -91 1919 -91 
Q 1588 -91 1214 -16 
Q 841 59 441 206 
L 441 856 
Q 825 641 1194 531 
Q 1563 422 1919 422 
Q 2459 422 2753 634 
Q 3047 847 3047 1241 
Q 3047 1584 2836 1778 
Q 2625 1972 2144 2069 
L 1759 2144 
Q 1053 2284 737 2584 
Q 422 2884 422 3419 
Q 422 4038 858 4394 
Q 1294 4750 2059 4750 
Q 2388 4750 2728 4690 
Q 3069 4631 3425 4513 
z
" transform="scale(0.015625)"/>
        <path id="DejaVuSans-7a" d="M 353 3500 
L 3084 3500 
L 3084 2975 
L 922 459 
L 3084 459 
L 3084 0 
L 275 0 
L 275 525 
L 2438 3041 
L 353 3041 
L 353 3500 
z
" transform="scale(0.015625)"/>
       </defs>
       <use xlink:href="#DejaVuSans-53"/>
       <use xlink:href="#DejaVuSans-30" x="63.476562"/>
       <use xlink:href="#DejaVuSans-20" x="127.099609"/>
       <use xlink:href="#DejaVuSans-7a" x="158.886719"/>
       <use xlink:href="#DejaVuSans-65" x="211.376953"/>
       <use xlink:href="#DejaVuSans-72" x="272.900391"/>
       <use xlink:href="#DejaVuSans-6f" x="311.763672"/>
       <use xlink:href="#DejaVuSans-65" x="372.945312"/>
       <use xlink:href="#DejaVuSans-64" x="434.46875"/>
      </g>
      <!-- (block 0) -->
      <g style="fill: #1a1a1a" transform="translate(504.010313 279.133) scale(0.08 -0.08)">
       <defs>
        <path id="DejaVuSans-6b" d="M 581 4863 
L 1159 4863 
L 1159 1991 
L 2875 3500 
L 3609 3500 
L 1753 1863 
L 3688 0 
L 2938 0 
L 1159 1709 
L 1159 0 
L 581 0 
L 581 4863 
z
" transform="scale(0.015625)"/>
       </defs>
       <use xlink:href="#DejaVuSans-28"/>
       <use xlink:href="#DejaVuSans-62" x="39.013672"/>
       <use xlink:href="#DejaVuSans-6c" x="102.490234"/>
       <use xlink:href="#DejaVuSans-6f" x="130.273438"/>
       <use xlink:href="#DejaVuSans-63" x="191.455078"/>
       <use xlink:href="#DejaVuSans-6b" x="246.435547"/>
       <use xlink:href="#DejaVuSans-20" x="304.345703"/>
       <use xlink:href="#DejaVuSans-30" x="336.132812"/>
       <use xlink:href="#DejaVuSans-29" x="399.755859"/>
      </g>
     </g>
    </g>
    <g id="xtick_6">
     <g id="line2d_20">
      <g>
       <use xlink:href="#mdf087e1615" x="620.162961" y="257.096" style="fill: #1a1a1a; stroke: #1a1a1a; stroke-width: 0.8"/>
      </g>
     </g>
     <g id="text_16">
      <!-- S1 zeroed -->
      <g style="fill: #1a1a1a" transform="translate(600.244211 270.17475) scale(0.08 -0.08)">
       <use xlink:href="#DejaVuSans-53"/>
       <use xlink:href="#DejaVuSans-31" x="63.476562"/>
       <use xlink:href="#DejaVuSans-20" x="127.099609"/>
       <use xlink:href="#DejaVuSans-7a" x="158.886719"/>
       <use xlink:href="#DejaVuSans-65" x="211.376953"/>
       <use xlink:href="#DejaVuSans-72" x="272.900391"/>
       <use xlink:href="#DejaVuSans-6f" x="311.763672"/>
       <use xlink:href="#DejaVuSans-65" x="372.945312"/>
       <use xlink:href="#DejaVuSans-64" x="434.46875"/>
      </g>
      <!-- (block 1) -->
      <g style="fill: #1a1a1a" transform="translate(602.611711 279.133) scale(0.08 -0.08)">
       <use xlink:href="#DejaVuSans-28"/>
       <use xlink:href="#DejaVuSans-62" x="39.013672"/>
       <use xlink:href="#DejaVuSans-6c" x="102.490234"/>
       <use xlink:href="#DejaVuSans-6f" x="130.273438"/>
       <use xlink:href="#DejaVuSans-63" x="191.455078"/>
       <use xlink:href="#DejaVuSans-6b" x="246.435547"/>
       <use xlink:href="#DejaVuSans-20" x="304.345703"/>
       <use xlink:href="#DejaVuSans-31" x="336.132812"/>
       <use xlink:href="#DejaVuSans-29" x="399.755859"/>
      </g>
     </g>
    </g>
   </g>
   <g id="matplotlib.axis_4">
    <g id="ytick_7">
     <g id="line2d_21">
      <path d="M 380.561563 257.096 
L 662.561563 257.096 
" clip-path="url(#p3483c74045)" style="fill: none; stroke: #1a1a1a; stroke-opacity: 0.22; stroke-width: 0.5; stroke-linecap: square"/>
     </g>
     <g id="line2d_22">
      <g>
       <use xlink:href="#m95e4e149d9" x="380.561563" y="257.096" style="fill: #1a1a1a; stroke: #1a1a1a; stroke-width: 0.8"/>
      </g>
     </g>
     <g id="text_17">
      <!-- 0.0 -->
      <g style="fill: #1a1a1a" transform="translate(357.658438 260.895219) scale(0.1 -0.1)">
       <use xlink:href="#DejaVuSans-30"/>
       <use xlink:href="#DejaVuSans-2e" x="63.623047"/>
       <use xlink:href="#DejaVuSans-30" x="95.410156"/>
      </g>
     </g>
    </g>
    <g id="ytick_8">
     <g id="line2d_23">
      <path d="M 380.561563 211.243523 
L 662.561563 211.243523 
" clip-path="url(#p3483c74045)" style="fill: none; stroke: #1a1a1a; stroke-opacity: 0.22; stroke-width: 0.5; stroke-linecap: square"/>
     </g>
     <g id="line2d_24">
      <g>
       <use xlink:href="#m95e4e149d9" x="380.561563" y="211.243523" style="fill: #1a1a1a; stroke: #1a1a1a; stroke-width: 0.8"/>
      </g>
     </g>
     <g id="text_18">
      <!-- 0.2 -->
      <g style="fill: #1a1a1a" transform="translate(357.658438 215.042742) scale(0.1 -0.1)">
       <use xlink:href="#DejaVuSans-30"/>
       <use xlink:href="#DejaVuSans-2e" x="63.623047"/>
       <use xlink:href="#DejaVuSans-32" x="95.410156"/>
      </g>
     </g>
    </g>
    <g id="ytick_9">
     <g id="line2d_25">
      <path d="M 380.561563 165.391046 
L 662.561563 165.391046 
" clip-path="url(#p3483c74045)" style="fill: none; stroke: #1a1a1a; stroke-opacity: 0.22; stroke-width: 0.5; stroke-linecap: square"/>
     </g>
     <g id="line2d_26">
      <g>
       <use xlink:href="#m95e4e149d9" x="380.561563" y="165.391046" style="fill: #1a1a1a; stroke: #1a1a1a; stroke-width: 0.8"/>
      </g>
     </g>
     <g id="text_19">
      <!-- 0.4 -->
      <g style="fill: #1a1a1a" transform="translate(357.658438 169.190265) scale(0.1 -0.1)">
       <use xlink:href="#DejaVuSans-30"/>
       <use xlink:href="#DejaVuSans-2e" x="63.623047"/>
       <use xlink:href="#DejaVuSans-34" x="95.410156"/>
      </g>
     </g>
    </g>
    <g id="ytick_10">
     <g id="line2d_27">
      <path d="M 380.561563 119.538569 
L 662.561563 119.538569 
" clip-path="url(#p3483c74045)" style="fill: none; stroke: #1a1a1a; stroke-opacity: 0.22; stroke-width: 0.5; stroke-linecap: square"/>
     </g>
     <g id="line2d_28">
      <g>
       <use xlink:href="#m95e4e149d9" x="380.561563" y="119.538569" style="fill: #1a1a1a; stroke: #1a1a1a; stroke-width: 0.8"/>
      </g>
     </g>
     <g id="text_20">
      <!-- 0.6 -->
      <g style="fill: #1a1a1a" transform="translate(357.658438 123.337788) scale(0.1 -0.1)">
       <use xlink:href="#DejaVuSans-30"/>
       <use xlink:href="#DejaVuSans-2e" x="63.623047"/>
       <use xlink:href="#DejaVuSans-36" x="95.410156"/>
      </g>
     </g>
    </g>
    <g id="ytick_11">
     <g id="line2d_29">
      <path d="M 380.561563 73.686092 
L 662.561563 73.686092 
" clip-path="url(#p3483c74045)" style="fill: none; stroke: #1a1a1a; stroke-opacity: 0.22; stroke-width: 0.5; stroke-linecap: square"/>
     </g>
     <g id="line2d_30">
      <g>
       <use xlink:href="#m95e4e149d9" x="380.561563" y="73.686092" style="fill: #1a1a1a; stroke: #1a1a1a; stroke-width: 0.8"/>
      </g>
     </g>
     <g id="text_21">
      <!-- 0.8 -->
      <g style="fill: #1a1a1a" transform="translate(357.658438 77.48531) scale(0.1 -0.1)">
       <use xlink:href="#DejaVuSans-30"/>
       <use xlink:href="#DejaVuSans-2e" x="63.623047"/>
       <use xlink:href="#DejaVuSans-38" x="95.410156"/>
      </g>
     </g>
    </g>
    <g id="ytick_12">
     <g id="line2d_31">
      <path d="M 380.561563 27.833615 
L 662.561563 27.833615 
" clip-path="url(#p3483c74045)" style="fill: none; stroke: #1a1a1a; stroke-opacity: 0.22; stroke-width: 0.5; stroke-linecap: square"/>
     </g>
     <g id="line2d_32">
      <g>
       <use xlink:href="#m95e4e149d9" x="380.561563" y="27.833615" style="fill: #1a1a1a; stroke: #1a1a1a; stroke-width: 0.8"/>
      </g>
     </g>
     <g id="text_22">
      <!-- 1.0 -->
      <g style="fill: #1a1a1a" transform="translate(357.658438 31.632833) scale(0.1 -0.1)">
       <use xlink:href="#DejaVuSans-31"/>
       <use xlink:href="#DejaVuSans-2e" x="63.623047"/>
       <use xlink:href="#DejaVuSans-30" x="95.410156"/>
      </g>
     </g>
    </g>
    <g id="text_23">
     <!-- contender recall acc_A -->
     <g style="fill: #1a1a1a" transform="translate(347.418516 186.070891) rotate(-90) scale(0.095 -0.095)">
      <use xlink:href="#DejaVuSans-63"/>
      <use xlink:href="#DejaVuSans-6f" x="54.980469"/>
      <use xlink:href="#DejaVuSans-6e" x="116.162109"/>
      <use xlink:href="#DejaVuSans-74" x="179.541016"/>
      <use xlink:href="#DejaVuSans-65" x="218.75"/>
      <use xlink:href="#DejaVuSans-6e" x="280.273438"/>
      <use xlink:href="#DejaVuSans-64" x="343.652344"/>
      <use xlink:href="#DejaVuSans-65" x="407.128906"/>
      <use xlink:href="#DejaVuSans-72" x="468.652344"/>
      <use xlink:href="#DejaVuSans-20" x="509.765625"/>
      <use xlink:href="#DejaVuSans-72" x="541.552734"/>
      <use xlink:href="#DejaVuSans-65" x="580.416016"/>
      <use xlink:href="#DejaVuSans-63" x="641.939453"/>
      <use xlink:href="#DejaVuSans-61" x="696.919922"/>
      <use xlink:href="#DejaVuSans-6c" x="758.199219"/>
      <use xlink:href="#DejaVuSans-6c" x="785.982422"/>
      <use xlink:href="#DejaVuSans-20" x="813.765625"/>
      <use xlink:href="#DejaVuSans-61" x="845.552734"/>
      <use xlink:href="#DejaVuSans-63" x="906.832031"/>
      <use xlink:href="#DejaVuSans-63" x="961.8125"/>
      <use xlink:href="#DejaVuSans-5f" x="1016.792969"/>
      <use xlink:href="#DejaVuSans-41" x="1066.792969"/>
     </g>
    </g>
   </g>
   <g id="line2d_33">
    <path d="M 380.561563 249.93155 
L 662.561563 249.93155 
" clip-path="url(#p3483c74045)" style="fill: none; stroke-dasharray: 0.9,1.485; stroke-dashoffset: 0; stroke: #1a1a1a; stroke-opacity: 0.7; stroke-width: 0.9"/>
   </g>
   <g id="patch_11">
    <path d="M 380.561563 257.096 
L 380.561563 7.2 
" style="fill: none; stroke: #1a1a1a; stroke-linejoin: miter; stroke-linecap: square"/>
   </g>
   <g id="patch_12">
    <path d="M 662.561563 257.096 
L 662.561563 7.2 
" style="fill: none; stroke: #1a1a1a; stroke-linejoin: miter; stroke-linecap: square"/>
   </g>
   <g id="patch_13">
    <path d="M 380.561563 257.096 
L 662.561563 257.096 
" style="fill: none; stroke: #1a1a1a; stroke-linejoin: miter; stroke-linecap: square"/>
   </g>
   <g id="patch_14">
    <path d="M 380.561563 7.2 
L 662.561563 7.2 
" style="fill: none; stroke: #1a1a1a; stroke-linejoin: miter; stroke-linecap: square"/>
   </g>
   <g id="patch_15">
    <path d="M 393.379744 257.096 
L 452.540583 257.096 
L 452.540583 28.057504 
L 393.379744 28.057504 
z
" clip-path="url(#p3483c74045)" style="fill: #d55e00; opacity: 0.9; stroke: #1a1a1a; stroke-linejoin: miter"/>
   </g>
   <g id="patch_16">
    <path d="M 491.981143 257.096 
L 551.141982 257.096 
L 551.141982 250.547245 
L 491.981143 250.547245 
z
" clip-path="url(#p3483c74045)" style="fill: #d55e00; opacity: 0.9; stroke: #1a1a1a; stroke-linejoin: miter"/>
   </g>
   <g id="patch_17">
    <path d="M 590.582542 257.096 
L 649.743381 257.096 
L 649.743381 28.057504 
L 590.582542 28.057504 
z
" clip-path="url(#p3483c74045)" style="fill: #d55e00; opacity: 0.9; stroke: #1a1a1a; stroke-linejoin: miter"/>
   </g>
   <g id="text_24">
    <!-- 0.999 -->
    <g style="fill: #1a1a1a" transform="translate(408.726805 23.057504) scale(0.09 -0.09)">
     <use xlink:href="#DejaVuSans-Bold-30"/>
     <use xlink:href="#DejaVuSans-Bold-2e" x="69.580078"/>
     <use xlink:href="#DejaVuSans-Bold-39" x="107.568359"/>
     <use xlink:href="#DejaVuSans-Bold-39" x="177.148438"/>
     <use xlink:href="#DejaVuSans-Bold-39" x="246.728516"/>
    </g>
   </g>
   <g id="text_25">
    <!-- 0.029 -->
    <g style="fill: #1a1a1a" transform="translate(507.328203 245.547245) scale(0.09 -0.09)">
     <defs>
      <path id="DejaVuSans-Bold-32" d="M 1844 884 
L 3897 884 
L 3897 0 
L 506 0 
L 506 884 
L 2209 2388 
Q 2438 2594 2547 2791 
Q 2656 2988 2656 3200 
Q 2656 3528 2436 3728 
Q 2216 3928 1850 3928 
Q 1569 3928 1234 3808 
Q 900 3688 519 3450 
L 519 4475 
Q 925 4609 1322 4679 
Q 1719 4750 2100 4750 
Q 2938 4750 3402 4381 
Q 3866 4013 3866 3353 
Q 3866 2972 3669 2642 
Q 3472 2313 2841 1759 
L 1844 884 
z
" transform="scale(0.015625)"/>
     </defs>
     <use xlink:href="#DejaVuSans-Bold-30"/>
     <use xlink:href="#DejaVuSans-Bold-2e" x="69.580078"/>
     <use xlink:href="#DejaVuSans-Bold-30" x="107.568359"/>
     <use xlink:href="#DejaVuSans-Bold-32" x="177.148438"/>
     <use xlink:href="#DejaVuSans-Bold-39" x="246.728516"/>
    </g>
   </g>
   <g id="text_26">
    <!-- 0.999 -->
    <g style="fill: #1a1a1a" transform="translate(605.929602 23.057504) scale(0.09 -0.09)">
     <use xlink:href="#DejaVuSans-Bold-30"/>
     <use xlink:href="#DejaVuSans-Bold-2e" x="69.580078"/>
     <use xlink:href="#DejaVuSans-Bold-39" x="107.568359"/>
     <use xlink:href="#DejaVuSans-Bold-39" x="177.148438"/>
     <use xlink:href="#DejaVuSans-Bold-39" x="246.728516"/>
    </g>
   </g>
  </g>
 </g>
 <defs>
  <clipPath id="p920692b651">
   <rect x="47.561563" y="7.2" width="282" height="249.896"/>
  </clipPath>
  <clipPath id="p3483c74045">
   <rect x="380.561563" y="7.2" width="282" height="249.896"/>
  </clipPath>
 </defs>
</svg>
