<?xml version="1.0" encoding="utf-8" standalone="no"?>
<!DOCTYPE svg PUBLIC "-//W3C//DTD SVG 1.1//EN"
  "http://www.w3.org/Graphics/SVG/1.1/DTD/svg11.dtd">
<svg xmlns:xlink="http://www.w3.org/1999/xlink" width="610.775781pt" height="373.59625pt" viewBox="0 0 610.775781 373.59625" xmlns="http://www.w3.org/2000/svg" version="1.1">
 <metadata>
  <rdf:RDF xmlns:dc="http://purl.org/dc/elements/1.1/" xmlns:cc="http://creativecommons.org/ns#" xmlns:rdf="http://www.w3.org/1999/02/22-rdf-syntax-ns#">
   <cc:Work>
    <dc:type rdf:resource="http://purl.org/dc/dcmitype/StillImage"/>
    <dc:date>2026-07-11T13:44:38.408457</dc:date>
    <dc:format>image/svg+xml</dc:format>
    <dc:creator>
     <cc:Agent>
      <dc:title>Matplotlib v3.9.4, https://matplotlib.org/</dc:title>
     </cc:Agent>
    </dc:creator>
   </cc:Work>
  </rdf:RDF>
 </metadata>
 <defs>
  <style type="text/css">*{stroke-linejoin: round; stroke-linecap: butt}</style>
 </defs>
 <g id="figure_1">
  <g id="patch_1">
   <path d="M 0 373.59625 
L 610.775781 373.59625 
L 610.775781 0 
L 0 0 
z
" style="fill: #faf5e7"/>
  </g>
  <g id="axes_1">
   <g id="patch_2">
    <path d="M 47.762031 332.04 
L 603.575781 332.04 
L 603.575781 7.2 
L 47.762031 7.2 
z
" style="fill: #faf5e7"/>
   </g>
   <g id="line2d_1">
    <path d="M 309.534548 332.04 
L 309.534548 7.2 
" clip-path="url(#p975afe3324)" style="fill: none; stroke-dasharray: 3.33,1.44; stroke-dashoffset: 0; stroke: #1a1a1a; stroke-opacity: 0.7; stroke-width: 0.9"/>
   </g>
   <g id="line2d_2">
    <path d="M 47.762031 180.821379 
L 603.575781 180.821379 
" clip-path="url(#p975afe3324)" style="fill: none; stroke-dasharray: 0.9,1.485; stroke-dashoffset: 0; stroke: #5a5a5a; stroke-opacity: 0.8; stroke-width: 0.9"/>
   </g>
   <g id="line2d_3">
    <path d="M 236.144919 332.04 
L 236.144919 7.2 
" clip-path="url(#p975afe3324)" style="fill: none; stroke-dasharray: 0.7,1.155; stroke-dashoffset: 0; stroke: #5a5a5a; stroke-opacity: 0.5; stroke-width: 0.7"/>
   </g>
   <g id="matplotlib.axis_1">
    <g id="xtick_1">
     <g id="line2d_4">
      <defs>
       <path id="me2ed98286a" d="M 0 0 
L 0 3.5 
" style="stroke: #1a1a1a; stroke-width: 0.8"/>
      </defs>
      <g>
       <use xlink:href="#me2ed98286a" x="62.647942" y="332.04" style="fill: #1a1a1a; stroke: #1a1a1a; stroke-width: 0.8"/>
      </g>
     </g>
     <g id="text_1">
      <!-- 5 -->
      <g style="fill: #1a1a1a" transform="translate(59.625754 346.258516) scale(0.095 -0.095)">
       <defs>
        <path id="DejaVuSans-35" d="M 691 4666 
L 3169 4666 
L 3169 4134 
L 1269 4134 
L 1269 2991 
Q 1406 3038 1543 3061 
Q 1681 3084 1819 3084 
Q 2600 3084 3056 2656 
Q 3513 2228 3513 1497 
Q 3513 744 3044 326 
Q 2575 -91 1722 -91 
Q 1428 -91 1123 -41 
Q 819 9 494 109 
L 494 744 
Q 775 591 1075 516 
Q 1375 441 1709 441 
Q 2250 441 2565 725 
Q 2881 1009 2881 1497 
Q 2881 1984 2565 2268 
Q 2250 2553 1709 2553 
Q 1456 2553 1204 2497 
Q 953 2441 691 2322 
L 691 4666 
z
" transform="scale(0.015625)"/>
       </defs>
       <use xlink:href="#DejaVuSans-35"/>
      </g>
     </g>
    </g>
    <g id="xtick_2">
     <g id="line2d_5">
      <g>
       <use xlink:href="#me2ed98286a" x="156.954965" y="332.04" style="fill: #1a1a1a; stroke: #1a1a1a; stroke-width: 0.8"/>
      </g>
     </g>
     <g id="text_2">
      <!-- 13 -->
      <g style="fill: #1a1a1a" transform="translate(150.91059 346.258516) scale(0.095 -0.095)">
       <defs>
        <path id="DejaVuSans-31" d="M 794 531 
L 1825 531 
L 1825 4091 
L 703 3866 
L 703 4441 
L 1819 4666 
L 2450 4666 
L 2450 531 
L 3481 531 
L 3481 0 
L 794 0 
L 794 531 
z
" transform="scale(0.015625)"/>
        <path id="DejaVuSans-33" d="M 2597 2516 
Q 3050 2419 3304 2112 
Q 3559 1806 3559 1356 
Q 3559 666 3084 287 
Q 2609 -91 1734 -91 
Q 1441 -91 1130 -33 
Q 819 25 488 141 
L 488 750 
Q 750 597 1062 519 
Q 1375 441 1716 441 
Q 2309 441 2620 675 
Q 2931 909 2931 1356 
Q 2931 1769 2642 2001 
Q 2353 2234 1838 2234 
L 1294 2234 
L 1294 2753 
L 1863 2753 
Q 2328 2753 2575 2939 
Q 2822 3125 2822 3475 
Q 2822 3834 2567 4026 
Q 2313 4219 1838 4219 
Q 1578 4219 1281 4162 
Q 984 4106 628 3988 
L 628 4550 
Q 988 4650 1302 4700 
Q 1616 4750 1894 4750 
Q 2613 4750 3031 4423 
Q 3450 4097 3450 3541 
Q 3450 3153 3228 2886 
Q 3006 2619 2597 2516 
z
" transform="scale(0.015625)"/>
       </defs>
       <use xlink:href="#DejaVuSans-31"/>
       <use xlink:href="#DejaVuSans-33" x="63.623047"/>
      </g>
     </g>
    </g>
    <g id="xtick_3">
     <g id="line2d_6">
      <g>
       <use xlink:href="#me2ed98286a" x="204.287846" y="332.04" style="fill: #1a1a1a; stroke: #1a1a1a; stroke-width: 0.8"/>
      </g>
     </g>
     <g id="text_3">
      <!-- 21 -->
      <g style="fill: #1a1a1a" transform="translate(198.243471 346.258516) scale(0.095 -0.095)">
       <defs>
        <path id="DejaVuSans-32" d="M 1228 531 
L 3431 531 
L 3431 0 
L 469 0 
L 469 531 
Q 828 903 1448 1529 
Q 2069 2156 2228 2338 
Q 2531 2678 2651 2914 
Q 2772 3150 2772 3378 
Q 2772 3750 2511 3984 
Q 2250 4219 1831 4219 
Q 1534 4219 1204 4116 
Q 875 4013 500 3803 
L 500 4441 
Q 881 4594 1212 4672 
Q 1544 4750 1819 4750 
Q 2544 4750 2975 4387 
Q 3406 4025 3406 3419 
Q 3406 3131 3298 2873 
Q 3191 2616 2906 2266 
Q 2828 2175 2409 1742 
Q 1991 1309 1228 531 
z
" transform="scale(0.015625)"/>
       </defs>
       <use xlink:href="#DejaVuSans-32"/>
       <use xlink:href="#DejaVuSans-31" x="63.623047"/>
      </g>
     </g>
    </g>
    <g id="xtick_4">
     <g id="line2d_7">
      <g>
       <use xlink:href="#me2ed98286a" x="236.144919" y="332.04" style="fill: #1a1a1a; stroke: #1a1a1a; stroke-width: 0.8"/>
      </g>
     </g>
     <g id="text_4">
      <!-- 29 -->
      <g style="fill: #1a1a1a" transform="translate(230.100544 346.258516) scale(0.095 -0.095)">
       <defs>
        <path id="DejaVuSans-39" d="M 703 97 
L 703 672 
Q 941 559 1184 500 
Q 1428 441 1663 441 
Q 2288 441 2617 861 
Q 2947 1281 2994 2138 
Q 2813 1869 2534 1725 
Q 2256 1581 1919 1581 
Q 1219 1581 811 2004 
Q 403 2428 403 3163 
Q 403 3881 828 4315 
Q 1253 4750 1959 4750 
Q 2769 4750 3195 4129 
Q 3622 3509 3622 2328 
Q 3622 1225 3098 567 
Q 2575 -91 1691 -91 
Q 1453 -91 1209 -44 
Q 966 3 703 97 
z
M 1959 2075 
Q 2384 2075 2632 2365 
Q 2881 2656 2881 3163 
Q 2881 3666 2632 3958 
Q 2384 4250 1959 4250 
Q 1534 4250 1286 3958 
Q 1038 3666 1038 3163 
Q 1038 2656 1286 2365 
Q 1534 2075 1959 2075 
z
" transform="scale(0.015625)"/>
       </defs>
       <use xlink:href="#DejaVuSans-32"/>
       <use xlink:href="#DejaVuSans-39" x="63.623047"/>
      </g>
     </g>
    </g>
    <g id="xtick_5">
     <g id="line2d_8">
      <g>
       <use xlink:href="#me2ed98286a" x="309.534548" y="332.04" style="fill: #1a1a1a; stroke: #1a1a1a; stroke-width: 0.8"/>
      </g>
     </g>
     <g id="text_5">
      <!-- 61 -->
      <g style="fill: #1a1a1a" transform="translate(303.490173 346.258516) scale(0.095 -0.095)">
       <defs>
        <path id="DejaVuSans-36" d="M 2113 2584 
Q 1688 2584 1439 2293 
Q 1191 2003 1191 1497 
Q 1191 994 1439 701 
Q 1688 409 2113 409 
Q 2538 409 2786 701 
Q 3034 994 3034 1497 
Q 3034 2003 2786 2293 
Q 2538 2584 2113 2584 
z
M 3366 4563 
L 3366 3988 
Q 3128 4100 2886 4159 
Q 2644 4219 2406 4219 
Q 1781 4219 1451 3797 
Q 1122 3375 1075 2522 
Q 1259 2794 1537 2939 
Q 1816 3084 2150 3084 
Q 2853 3084 3261 2657 
Q 3669 2231 3669 1497 
Q 3669 778 3244 343 
Q 2819 -91 2113 -91 
Q 1303 -91 875 529 
Q 447 1150 447 2328 
Q 447 3434 972 4092 
Q 1497 4750 2381 4750 
Q 2619 4750 2861 4703 
Q 3103 4656 3366 4563 
z
" transform="scale(0.015625)"/>
       </defs>
       <use xlink:href="#DejaVuSans-36"/>
       <use xlink:href="#DejaVuSans-31" x="63.623047"/>
      </g>
     </g>
    </g>
    <g id="xtick_6">
     <g id="line2d_9">
      <g>
       <use xlink:href="#me2ed98286a" x="380.344395" y="332.04" style="fill: #1a1a1a; stroke: #1a1a1a; stroke-width: 0.8"/>
      </g>
     </g>
     <g id="text_6">
      <!-- 125 -->
      <g style="fill: #1a1a1a" transform="translate(371.277832 346.258516) scale(0.095 -0.095)">
       <use xlink:href="#DejaVuSans-31"/>
       <use xlink:href="#DejaVuSans-32" x="63.623047"/>
       <use xlink:href="#DejaVuSans-35" x="127.246094"/>
      </g>
     </g>
    </g>
    <g id="xtick_7">
     <g id="line2d_10">
      <g>
       <use xlink:href="#me2ed98286a" x="449.933928" y="332.04" style="fill: #1a1a1a; stroke: #1a1a1a; stroke-width: 0.8"/>
      </g>
     </g>
     <g id="text_7">
      <!-- 253 -->
      <g style="fill: #1a1a1a" transform="translate(440.867365 346.258516) scale(0.095 -0.095)">
       <use xlink:href="#DejaVuSans-32"/>
       <use xlink:href="#DejaVuSans-35" x="63.623047"/>
       <use xlink:href="#DejaVuSans-33" x="127.246094"/>
      </g>
     </g>
    </g>
    <g id="xtick_8">
     <g id="line2d_11">
      <g>
       <use xlink:href="#me2ed98286a" x="518.929573" y="332.04" style="fill: #1a1a1a; stroke: #1a1a1a; stroke-width: 0.8"/>
      </g>
     </g>
     <g id="text_8">
      <!-- 509 -->
      <g style="fill: #1a1a1a" transform="translate(509.86301 346.258516) scale(0.095 -0.095)">
       <defs>
        <path id="DejaVuSans-30" d="M 2034 4250 
Q 1547 4250 1301 3770 
Q 1056 3291 1056 2328 
Q 1056 1369 1301 889 
Q 1547 409 2034 409 
Q 2525 409 2770 889 
Q 3016 1369 3016 2328 
Q 3016 3291 2770 3770 
Q 2525 4250 2034 4250 
z
M 2034 4750 
Q 2819 4750 3233 4129 
Q 3647 3509 3647 2328 
Q 3647 1150 3233 529 
Q 2819 -91 2034 -91 
Q 1250 -91 836 529 
Q 422 1150 422 2328 
Q 422 3509 836 4129 
Q 1250 4750 2034 4750 
z
" transform="scale(0.015625)"/>
       </defs>
       <use xlink:href="#DejaVuSans-35"/>
       <use xlink:href="#DejaVuSans-30" x="63.623047"/>
       <use xlink:href="#DejaVuSans-39" x="127.246094"/>
      </g>
     </g>
    </g>
    <g id="xtick_9">
     <g id="line2d_12">
      <g>
       <use xlink:href="#me2ed98286a" x="587.632211" y="332.04" style="fill: #1a1a1a; stroke: #1a1a1a; stroke-width: 0.8"/>
      </g>
     </g>
     <g id="text_9">
      <!-- 1021 -->
      <g style="fill: #1a1a1a" transform="translate(575.543461 346.258516) scale(0.095 -0.095)">
       <use xlink:href="#DejaVuSans-31"/>
       <use xlink:href="#DejaVuSans-30" x="63.623047"/>
       <use xlink:href="#DejaVuSans-32" x="127.246094"/>
       <use xlink:href="#DejaVuSans-31" x="190.869141"/>
      </g>
     </g>
    </g>
    <g id="text_10">
     <!-- composition depth h (query hop count, log scale) -->
     <g style="fill: #1a1a1a" transform="translate(196.235898 364.212578) scale(0.105 -0.105)">
      <defs>
       <path id="DejaVuSans-63" d="M 3122 3366 
L 3122 2828 
Q 2878 2963 2633 3030 
Q 2388 3097 2138 3097 
Q 1578 3097 1268 2742 
Q 959 2388 959 1747 
Q 959 1106 1268 751 
Q 1578 397 2138 397 
Q 2388 397 2633 464 
Q 2878 531 3122 666 
L 3122 134 
Q 2881 22 2623 -34 
Q 2366 -91 2075 -91 
Q 1284 -91 818 406 
Q 353 903 353 1747 
Q 353 2603 823 3093 
Q 1294 3584 2113 3584 
Q 2378 3584 2631 3529 
Q 2884 3475 3122 3366 
z
" transform="scale(0.015625)"/>
       <path id="DejaVuSans-6f" d="M 1959 3097 
Q 1497 3097 1228 2736 
Q 959 2375 959 1747 
Q 959 1119 1226 758 
Q 1494 397 1959 397 
Q 2419 397 2687 759 
Q 2956 1122 2956 1747 
Q 2956 2369 2687 2733 
Q 2419 3097 1959 3097 
z
M 1959 3584 
Q 2709 3584 3137 3096 
Q 3566 2609 3566 1747 
Q 3566 888 3137 398 
Q 2709 -91 1959 -91 
Q 1206 -91 779 398 
Q 353 888 353 1747 
Q 353 2609 779 3096 
Q 1206 3584 1959 3584 
z
" transform="scale(0.015625)"/>
       <path id="DejaVuSans-6d" d="M 3328 2828 
Q 3544 3216 3844 3400 
Q 4144 3584 4550 3584 
Q 5097 3584 5394 3201 
Q 5691 2819 5691 2113 
L 5691 0 
L 5113 0 
L 5113 2094 
Q 5113 2597 4934 2840 
Q 4756 3084 4391 3084 
Q 3944 3084 3684 2787 
Q 3425 2491 3425 1978 
L 3425 0 
L 2847 0 
L 2847 2094 
Q 2847 2600 2669 2842 
Q 2491 3084 2119 3084 
Q 1678 3084 1418 2786 
Q 1159 2488 1159 1978 
L 1159 0 
L 581 0 
L 581 3500 
L 1159 3500 
L 1159 2956 
Q 1356 3278 1631 3431 
Q 1906 3584 2284 3584 
Q 2666 3584 2933 3390 
Q 3200 3197 3328 2828 
z
" transform="scale(0.015625)"/>
       <path id="DejaVuSans-70" d="M 1159 525 
L 1159 -1331 
L 581 -1331 
L 581 3500 
L 1159 3500 
L 1159 2969 
Q 1341 3281 1617 3432 
Q 1894 3584 2278 3584 
Q 2916 3584 3314 3078 
Q 3713 2572 3713 1747 
Q 3713 922 3314 415 
Q 2916 -91 2278 -91 
Q 1894 -91 1617 61 
Q 1341 213 1159 525 
z
M 3116 1747 
Q 3116 2381 2855 2742 
Q 2594 3103 2138 3103 
Q 1681 3103 1420 2742 
Q 1159 2381 1159 1747 
Q 1159 1113 1420 752 
Q 1681 391 2138 391 
Q 2594 391 2855 752 
Q 3116 1113 3116 1747 
z
" transform="scale(0.015625)"/>
       <path id="DejaVuSans-73" d="M 2834 3397 
L 2834 2853 
Q 2591 2978 2328 3040 
Q 2066 3103 1784 3103 
Q 1356 3103 1142 2972 
Q 928 2841 928 2578 
Q 928 2378 1081 2264 
Q 1234 2150 1697 2047 
L 1894 2003 
Q 2506 1872 2764 1633 
Q 3022 1394 3022 966 
Q 3022 478 2636 193 
Q 2250 -91 1575 -91 
Q 1294 -91 989 -36 
Q 684 19 347 128 
L 347 722 
Q 666 556 975 473 
Q 1284 391 1588 391 
Q 1994 391 2212 530 
Q 2431 669 2431 922 
Q 2431 1156 2273 1281 
Q 2116 1406 1581 1522 
L 1381 1569 
Q 847 1681 609 1914 
Q 372 2147 372 2553 
Q 372 3047 722 3315 
Q 1072 3584 1716 3584 
Q 2034 3584 2315 3537 
Q 2597 3491 2834 3397 
z
" transform="scale(0.015625)"/>
       <path id="DejaVuSans-69" d="M 603 3500 
L 1178 3500 
L 1178 0 
L 603 0 
L 603 3500 
z
M 603 4863 
L 1178 4863 
L 1178 4134 
L 603 4134 
L 603 4863 
z
" transform="scale(0.015625)"/>
       <path id="DejaVuSans-74" d="M 1172 4494 
L 1172 3500 
L 2356 3500 
L 2356 3053 
L 1172 3053 
L 1172 1153 
Q 1172 725 1289 603 
Q 1406 481 1766 481 
L 2356 481 
L 2356 0 
L 1766 0 
Q 1100 0 847 248 
Q 594 497 594 1153 
L 594 3053 
L 172 3053 
L 172 3500 
L 594 3500 
L 594 4494 
L 1172 4494 
z
" transform="scale(0.015625)"/>
       <path id="DejaVuSans-6e" d="M 3513 2113 
L 3513 0 
L 2938 0 
L 2938 2094 
Q 2938 2591 2744 2837 
Q 2550 3084 2163 3084 
Q 1697 3084 1428 2787 
Q 1159 2491 1159 1978 
L 1159 0 
L 581 0 
L 581 3500 
L 1159 3500 
L 1159 2956 
Q 1366 3272 1645 3428 
Q 1925 3584 2291 3584 
Q 2894 3584 3203 3211 
Q 3513 2838 3513 2113 
z
" transform="scale(0.015625)"/>
       <path id="DejaVuSans-20" transform="scale(0.015625)"/>
       <path id="DejaVuSans-64" d="M 2906 2969 
L 2906 4863 
L 3481 4863 
L 3481 0 
L 2906 0 
L 2906 525 
Q 2725 213 2448 61 
Q 2172 -91 1784 -91 
Q 1150 -91 751 415 
Q 353 922 353 1747 
Q 353 2572 751 3078 
Q 1150 3584 1784 3584 
Q 2172 3584 2448 3432 
Q 2725 3281 2906 2969 
z
M 947 1747 
Q 947 1113 1208 752 
Q 1469 391 1925 391 
Q 2381 391 2643 752 
Q 2906 1113 2906 1747 
Q 2906 2381 2643 2742 
Q 2381 3103 1925 3103 
Q 1469 3103 1208 2742 
Q 947 2381 947 1747 
z
" transform="scale(0.015625)"/>
       <path id="DejaVuSans-65" d="M 3597 1894 
L 3597 1613 
L 953 1613 
Q 991 1019 1311 708 
Q 1631 397 2203 397 
Q 2534 397 2845 478 
Q 3156 559 3463 722 
L 3463 178 
Q 3153 47 2828 -22 
Q 2503 -91 2169 -91 
Q 1331 -91 842 396 
Q 353 884 353 1716 
Q 353 2575 817 3079 
Q 1281 3584 2069 3584 
Q 2775 3584 3186 3129 
Q 3597 2675 3597 1894 
z
M 3022 2063 
Q 3016 2534 2758 2815 
Q 2500 3097 2075 3097 
Q 1594 3097 1305 2825 
Q 1016 2553 972 2059 
L 3022 2063 
z
" transform="scale(0.015625)"/>
       <path id="DejaVuSans-68" d="M 3513 2113 
L 3513 0 
L 2938 0 
L 2938 2094 
Q 2938 2591 2744 2837 
Q 2550 3084 2163 3084 
Q 1697 3084 1428 2787 
Q 1159 2491 1159 1978 
L 1159 0 
L 581 0 
L 581 4863 
L 1159 4863 
L 1159 2956 
Q 1366 3272 1645 3428 
Q 1925 3584 2291 3584 
Q 2894 3584 3203 3211 
Q 3513 2838 3513 2113 
z
" transform="scale(0.015625)"/>
       <path id="DejaVuSans-28" d="M 1984 4856 
Q 1566 4138 1362 3434 
Q 1159 2731 1159 2009 
Q 1159 1288 1364 580 
Q 1569 -128 1984 -844 
L 1484 -844 
Q 1016 -109 783 600 
Q 550 1309 550 2009 
Q 550 2706 781 3412 
Q 1013 4119 1484 4856 
L 1984 4856 
z
" transform="scale(0.015625)"/>
       <path id="DejaVuSans-71" d="M 947 1747 
Q 947 1113 1208 752 
Q 1469 391 1925 391 
Q 2381 391 2643 752 
Q 2906 1113 2906 1747 
Q 2906 2381 2643 2742 
Q 2381 3103 1925 3103 
Q 1469 3103 1208 2742 
Q 947 2381 947 1747 
z
M 2906 525 
Q 2725 213 2448 61 
Q 2172 -91 1784 -91 
Q 1150 -91 751 415 
Q 353 922 353 1747 
Q 353 2572 751 3078 
Q 1150 3584 1784 3584 
Q 2172 3584 2448 3432 
Q 2725 3281 2906 2969 
L 2906 3500 
L 3481 3500 
L 3481 -1331 
L 2906 -1331 
L 2906 525 
z
" transform="scale(0.015625)"/>
       <path id="DejaVuSans-75" d="M 544 1381 
L 544 3500 
L 1119 3500 
L 1119 1403 
Q 1119 906 1312 657 
Q 1506 409 1894 409 
Q 2359 409 2629 706 
Q 2900 1003 2900 1516 
L 2900 3500 
L 3475 3500 
L 3475 0 
L 2900 0 
L 2900 538 
Q 2691 219 2414 64 
Q 2138 -91 1772 -91 
Q 1169 -91 856 284 
Q 544 659 544 1381 
z
M 1991 3584 
L 1991 3584 
z
" transform="scale(0.015625)"/>
       <path id="DejaVuSans-72" d="M 2631 2963 
Q 2534 3019 2420 3045 
Q 2306 3072 2169 3072 
Q 1681 3072 1420 2755 
Q 1159 2438 1159 1844 
L 1159 0 
L 581 0 
L 581 3500 
L 1159 3500 
L 1159 2956 
Q 1341 3275 1631 3429 
Q 1922 3584 2338 3584 
Q 2397 3584 2469 3576 
Q 2541 3569 2628 3553 
L 2631 2963 
z
" transform="scale(0.015625)"/>
       <path id="DejaVuSans-79" d="M 2059 -325 
Q 1816 -950 1584 -1140 
Q 1353 -1331 966 -1331 
L 506 -1331 
L 506 -850 
L 844 -850 
Q 1081 -850 1212 -737 
Q 1344 -625 1503 -206 
L 1606 56 
L 191 3500 
L 800 3500 
L 1894 763 
L 2988 3500 
L 3597 3500 
L 2059 -325 
z
" transform="scale(0.015625)"/>
       <path id="DejaVuSans-2c" d="M 750 794 
L 1409 794 
L 1409 256 
L 897 -744 
L 494 -744 
L 750 256 
L 750 794 
z
" transform="scale(0.015625)"/>
       <path id="DejaVuSans-6c" d="M 603 4863 
L 1178 4863 
L 1178 0 
L 603 0 
L 603 4863 
z
" transform="scale(0.015625)"/>
       <path id="DejaVuSans-67" d="M 2906 1791 
Q 2906 2416 2648 2759 
Q 2391 3103 1925 3103 
Q 1463 3103 1205 2759 
Q 947 2416 947 1791 
Q 947 1169 1205 825 
Q 1463 481 1925 481 
Q 2391 481 2648 825 
Q 2906 1169 2906 1791 
z
M 3481 434 
Q 3481 -459 3084 -895 
Q 2688 -1331 1869 -1331 
Q 1566 -1331 1297 -1286 
Q 1028 -1241 775 -1147 
L 775 -588 
Q 1028 -725 1275 -790 
Q 1522 -856 1778 -856 
Q 2344 -856 2625 -561 
Q 2906 -266 2906 331 
L 2906 616 
Q 2728 306 2450 153 
Q 2172 0 1784 0 
Q 1141 0 747 490 
Q 353 981 353 1791 
Q 353 2603 747 3093 
Q 1141 3584 1784 3584 
Q 2172 3584 2450 3431 
Q 2728 3278 2906 2969 
L 2906 3500 
L 3481 3500 
L 3481 434 
z
" transform="scale(0.015625)"/>
       <path id="DejaVuSans-61" d="M 2194 1759 
Q 1497 1759 1228 1600 
Q 959 1441 959 1056 
Q 959 750 1161 570 
Q 1363 391 1709 391 
Q 2188 391 2477 730 
Q 2766 1069 2766 1631 
L 2766 1759 
L 2194 1759 
z
M 3341 1997 
L 3341 0 
L 2766 0 
L 2766 531 
Q 2569 213 2275 61 
Q 1981 -91 1556 -91 
Q 1019 -91 701 211 
Q 384 513 384 1019 
Q 384 1609 779 1909 
Q 1175 2209 1959 2209 
L 2766 2209 
L 2766 2266 
Q 2766 2663 2505 2880 
Q 2244 3097 1772 3097 
Q 1472 3097 1187 3025 
Q 903 2953 641 2809 
L 641 3341 
Q 956 3463 1253 3523 
Q 1550 3584 1831 3584 
Q 2591 3584 2966 3190 
Q 3341 2797 3341 1997 
z
" transform="scale(0.015625)"/>
       <path id="DejaVuSans-29" d="M 513 4856 
L 1013 4856 
Q 1481 4119 1714 3412 
Q 1947 2706 1947 2009 
Q 1947 1309 1714 600 
Q 1481 -109 1013 -844 
L 513 -844 
Q 928 -128 1133 580 
Q 1338 1288 1338 2009 
Q 1338 2731 1133 3434 
Q 928 4138 513 4856 
z
" transform="scale(0.015625)"/>
      </defs>
      <use xlink:href="#DejaVuSans-63"/>
      <use xlink:href="#DejaVuSans-6f" x="54.980469"/>
      <use xlink:href="#DejaVuSans-6d" x="116.162109"/>
      <use xlink:href="#DejaVuSans-70" x="213.574219"/>
      <use xlink:href="#DejaVuSans-6f" x="277.050781"/>
      <use xlink:href="#DejaVuSans-73" x="338.232422"/>
      <use xlink:href="#DejaVuSans-69" x="390.332031"/>
      <use xlink:href="#DejaVuSans-74" x="418.115234"/>
      <use xlink:href="#DejaVuSans-69" x="457.324219"/>
      <use xlink:href="#DejaVuSans-6f" x="485.107422"/>
      <use xlink:href="#DejaVuSans-6e" x="546.289062"/>
      <use xlink:href="#DejaVuSans-20" x="609.667969"/>
      <use xlink:href="#DejaVuSans-64" x="641.455078"/>
      <use xlink:href="#DejaVuSans-65" x="704.931641"/>
      <use xlink:href="#DejaVuSans-70" x="766.455078"/>
      <use xlink:href="#DejaVuSans-74" x="829.931641"/>
      <use xlink:href="#DejaVuSans-68" x="869.140625"/>
      <use xlink:href="#DejaVuSans-20" x="932.519531"/>
      <use xlink:href="#DejaVuSans-68" x="964.306641"/>
      <use xlink:href="#DejaVuSans-20" x="1027.685547"/>
      <use xlink:href="#DejaVuSans-28" x="1059.472656"/>
      <use xlink:href="#DejaVuSans-71" x="1098.486328"/>
      <use xlink:href="#DejaVuSans-75" x="1161.962891"/>
      <use xlink:href="#DejaVuSans-65" x="1225.341797"/>
      <use xlink:href="#DejaVuSans-72" x="1286.865234"/>
      <use xlink:href="#DejaVuSans-79" x="1327.978516"/>
      <use xlink:href="#DejaVuSans-20" x="1387.158203"/>
      <use xlink:href="#DejaVuSans-68" x="1418.945312"/>
      <use xlink:href="#DejaVuSans-6f" x="1482.324219"/>
      <use xlink:href="#DejaVuSans-70" x="1543.505859"/>
      <use xlink:href="#DejaVuSans-20" x="1606.982422"/>
      <use xlink:href="#DejaVuSans-63" x="1638.769531"/>
      <use xlink:href="#DejaVuSans-6f" x="1693.75"/>
      <use xlink:href="#DejaVuSans-75" x="1754.931641"/>
      <use xlink:href="#DejaVuSans-6e" x="1818.310547"/>
      <use xlink:href="#DejaVuSans-74" x="1881.689453"/>
      <use xlink:href="#DejaVuSans-2c" x="1920.898438"/>
      <use xlink:href="#DejaVuSans-20" x="1952.685547"/>
      <use xlink:href="#DejaVuSans-6c" x="1984.472656"/>
      <use xlink:href="#DejaVuSans-6f" x="2012.255859"/>
      <use xlink:href="#DejaVuSans-67" x="2073.4375"/>
      <use xlink:href="#DejaVuSans-20" x="2136.914062"/>
      <use xlink:href="#DejaVuSans-73" x="2168.701172"/>
      <use xlink:href="#DejaVuSans-63" x="2220.800781"/>
      <use xlink:href="#DejaVuSans-61" x="2275.78125"/>
      <use xlink:href="#DejaVuSans-6c" x="2337.060547"/>
      <use xlink:href="#DejaVuSans-65" x="2364.84375"/>
      <use xlink:href="#DejaVuSans-29" x="2426.367188"/>
     </g>
    </g>
   </g>
   <g id="matplotlib.axis_2">
    <g id="ytick_1">
     <g id="line2d_13">
      <path d="M 47.762031 320.838621 
L 603.575781 320.838621 
" clip-path="url(#p975afe3324)" style="fill: none; stroke: #1a1a1a; stroke-opacity: 0.22; stroke-width: 0.5; stroke-linecap: square"/>
     </g>
     <g id="line2d_14">
      <defs>
       <path id="md37a83fcb7" d="M 0 0 
L -3.5 0 
" style="stroke: #1a1a1a; stroke-width: 0.8"/>
      </defs>
      <g>
       <use xlink:href="#md37a83fcb7" x="47.762031" y="320.838621" style="fill: #1a1a1a; stroke: #1a1a1a; stroke-width: 0.8"/>
      </g>
     </g>
     <g id="text_11">
      <!-- 0.0 -->
      <g style="fill: #1a1a1a" transform="translate(25.654063 324.447879) scale(0.095 -0.095)">
       <defs>
        <path id="DejaVuSans-2e" d="M 684 794 
L 1344 794 
L 1344 0 
L 684 0 
L 684 794 
z
" transform="scale(0.015625)"/>
       </defs>
       <use xlink:href="#DejaVuSans-30"/>
       <use xlink:href="#DejaVuSans-2e" x="63.623047"/>
       <use xlink:href="#DejaVuSans-30" x="95.410156"/>
      </g>
     </g>
    </g>
    <g id="ytick_2">
     <g id="line2d_15">
      <path d="M 47.762031 264.831724 
L 603.575781 264.831724 
" clip-path="url(#p975afe3324)" style="fill: none; stroke: #1a1a1a; stroke-opacity: 0.22; stroke-width: 0.5; stroke-linecap: square"/>
     </g>
     <g id="line2d_16">
      <g>
       <use xlink:href="#md37a83fcb7" x="47.762031" y="264.831724" style="fill: #1a1a1a; stroke: #1a1a1a; stroke-width: 0.8"/>
      </g>
     </g>
     <g id="text_12">
      <!-- 0.2 -->
      <g style="fill: #1a1a1a" transform="translate(25.654063 268.440982) scale(0.095 -0.095)">
       <use xlink:href="#DejaVuSans-30"/>
       <use xlink:href="#DejaVuSans-2e" x="63.623047"/>
       <use xlink:href="#DejaVuSans-32" x="95.410156"/>
      </g>
     </g>
    </g>
    <g id="ytick_3">
     <g id="line2d_17">
      <path d="M 47.762031 208.824828 
L 603.575781 208.824828 
" clip-path="url(#p975afe3324)" style="fill: none; stroke: #1a1a1a; stroke-opacity: 0.22; stroke-width: 0.5; stroke-linecap: square"/>
     </g>
     <g id="line2d_18">
      <g>
       <use xlink:href="#md37a83fcb7" x="47.762031" y="208.824828" style="fill: #1a1a1a; stroke: #1a1a1a; stroke-width: 0.8"/>
      </g>
     </g>
     <g id="text_13">
      <!-- 0.4 -->
      <g style="fill: #1a1a1a" transform="translate(25.654063 212.434085) scale(0.095 -0.095)">
       <defs>
        <path id="DejaVuSans-34" d="M 2419 4116 
L 825 1625 
L 2419 1625 
L 2419 4116 
z
M 2253 4666 
L 3047 4666 
L 3047 1625 
L 3713 1625 
L 3713 1100 
L 3047 1100 
L 3047 0 
L 2419 0 
L 2419 1100 
L 313 1100 
L 313 1709 
L 2253 4666 
z
" transform="scale(0.015625)"/>
       </defs>
       <use xlink:href="#DejaVuSans-30"/>
       <use xlink:href="#DejaVuSans-2e" x="63.623047"/>
       <use xlink:href="#DejaVuSans-34" x="95.410156"/>
      </g>
     </g>
    </g>
    <g id="ytick_4">
     <g id="line2d_19">
      <path d="M 47.762031 152.817931 
L 603.575781 152.817931 
" clip-path="url(#p975afe3324)" style="fill: none; stroke: #1a1a1a; stroke-opacity: 0.22; stroke-width: 0.5; stroke-linecap: square"/>
     </g>
     <g id="line2d_20">
      <g>
       <use xlink:href="#md37a83fcb7" x="47.762031" y="152.817931" style="fill: #1a1a1a; stroke: #1a1a1a; stroke-width: 0.8"/>
      </g>
     </g>
     <g id="text_14">
      <!-- 0.6 -->
      <g style="fill: #1a1a1a" transform="translate(25.654063 156.427189) scale(0.095 -0.095)">
       <use xlink:href="#DejaVuSans-30"/>
       <use xlink:href="#DejaVuSans-2e" x="63.623047"/>
       <use xlink:href="#DejaVuSans-36" x="95.410156"/>
      </g>
     </g>
    </g>
    <g id="ytick_5">
     <g id="line2d_21">
      <path d="M 47.762031 96.811034 
L 603.575781 96.811034 
" clip-path="url(#p975afe3324)" style="fill: none; stroke: #1a1a1a; stroke-opacity: 0.22; stroke-width: 0.5; stroke-linecap: square"/>
     </g>
     <g id="line2d_22">
      <g>
       <use xlink:href="#md37a83fcb7" x="47.762031" y="96.811034" style="fill: #1a1a1a; stroke: #1a1a1a; stroke-width: 0.8"/>
      </g>
     </g>
     <g id="text_15">
      <!-- 0.8 -->
      <g style="fill: #1a1a1a" transform="translate(25.654063 100.420292) scale(0.095 -0.095)">
       <defs>
        <path id="DejaVuSans-38" d="M 2034 2216 
Q 1584 2216 1326 1975 
Q 1069 1734 1069 1313 
Q 1069 891 1326 650 
Q 1584 409 2034 409 
Q 2484 409 2743 651 
Q 3003 894 3003 1313 
Q 3003 1734 2745 1975 
Q 2488 2216 2034 2216 
z
M 1403 2484 
Q 997 2584 770 2862 
Q 544 3141 544 3541 
Q 544 4100 942 4425 
Q 1341 4750 2034 4750 
Q 2731 4750 3128 4425 
Q 3525 4100 3525 3541 
Q 3525 3141 3298 2862 
Q 3072 2584 2669 2484 
Q 3125 2378 3379 2068 
Q 3634 1759 3634 1313 
Q 3634 634 3220 271 
Q 2806 -91 2034 -91 
Q 1263 -91 848 271 
Q 434 634 434 1313 
Q 434 1759 690 2068 
Q 947 2378 1403 2484 
z
M 1172 3481 
Q 1172 3119 1398 2916 
Q 1625 2713 2034 2713 
Q 2441 2713 2670 2916 
Q 2900 3119 2900 3481 
Q 2900 3844 2670 4047 
Q 2441 4250 2034 4250 
Q 1625 4250 1398 4047 
Q 1172 3844 1172 3481 
z
" transform="scale(0.015625)"/>
       </defs>
       <use xlink:href="#DejaVuSans-30"/>
       <use xlink:href="#DejaVuSans-2e" x="63.623047"/>
       <use xlink:href="#DejaVuSans-38" x="95.410156"/>
      </g>
     </g>
    </g>
    <g id="ytick_6">
     <g id="line2d_23">
      <path d="M 47.762031 40.804138 
L 603.575781 40.804138 
" clip-path="url(#p975afe3324)" style="fill: none; stroke: #1a1a1a; stroke-opacity: 0.22; stroke-width: 0.5; stroke-linecap: square"/>
     </g>
     <g id="line2d_24">
      <g>
       <use xlink:href="#md37a83fcb7" x="47.762031" y="40.804138" style="fill: #1a1a1a; stroke: #1a1a1a; stroke-width: 0.8"/>
      </g>
     </g>
     <g id="text_16">
      <!-- 1.0 -->
      <g style="fill: #1a1a1a" transform="translate(25.654063 44.413396) scale(0.095 -0.095)">
       <use xlink:href="#DejaVuSans-31"/>
       <use xlink:href="#DejaVuSans-2e" x="63.623047"/>
       <use xlink:href="#DejaVuSans-30" x="95.410156"/>
      </g>
     </g>
    </g>
    <g id="text_17">
     <!-- median recovered_frac@0.9 (5 seeds) -->
     <g style="fill: #1a1a1a" transform="translate(15.178359 269.651367) rotate(-90) scale(0.105 -0.105)">
      <defs>
       <path id="DejaVuSans-76" d="M 191 3500 
L 800 3500 
L 1894 563 
L 2988 3500 
L 3597 3500 
L 2284 0 
L 1503 0 
L 191 3500 
z
" transform="scale(0.015625)"/>
       <path id="DejaVuSans-5f" d="M 3263 -1063 
L 3263 -1509 
L -63 -1509 
L -63 -1063 
L 3263 -1063 
z
" transform="scale(0.015625)"/>
       <path id="DejaVuSans-66" d="M 2375 4863 
L 2375 4384 
L 1825 4384 
Q 1516 4384 1395 4259 
Q 1275 4134 1275 3809 
L 1275 3500 
L 2222 3500 
L 2222 3053 
L 1275 3053 
L 1275 0 
L 697 0 
L 697 3053 
L 147 3053 
L 147 3500 
L 697 3500 
L 697 3744 
Q 697 4328 969 4595 
Q 1241 4863 1831 4863 
L 2375 4863 
z
" transform="scale(0.015625)"/>
       <path id="DejaVuSans-40" d="M 2381 1678 
Q 2381 1231 2603 976 
Q 2825 722 3213 722 
Q 3597 722 3817 978 
Q 4038 1234 4038 1678 
Q 4038 2116 3813 2373 
Q 3588 2631 3206 2631 
Q 2828 2631 2604 2375 
Q 2381 2119 2381 1678 
z
M 4084 744 
Q 3897 503 3655 389 
Q 3413 275 3091 275 
Q 2553 275 2217 664 
Q 1881 1053 1881 1678 
Q 1881 2303 2218 2693 
Q 2556 3084 3091 3084 
Q 3413 3084 3656 2967 
Q 3900 2850 4084 2613 
L 4084 3022 
L 4531 3022 
L 4531 722 
Q 4988 791 5245 1139 
Q 5503 1488 5503 2041 
Q 5503 2375 5404 2669 
Q 5306 2963 5106 3213 
Q 4781 3622 4314 3839 
Q 3847 4056 3297 4056 
Q 2913 4056 2559 3954 
Q 2206 3853 1906 3653 
Q 1416 3334 1139 2817 
Q 863 2300 863 1697 
Q 863 1200 1042 765 
Q 1222 331 1563 0 
Q 1891 -325 2322 -495 
Q 2753 -666 3244 -666 
Q 3647 -666 4036 -530 
Q 4425 -394 4750 -141 
L 5031 -488 
Q 4641 -791 4180 -952 
Q 3719 -1113 3244 -1113 
Q 2666 -1113 2153 -908 
Q 1641 -703 1241 -313 
Q 841 78 631 592 
Q 422 1106 422 1697 
Q 422 2266 634 2781 
Q 847 3297 1241 3688 
Q 1644 4084 2172 4295 
Q 2700 4506 3291 4506 
Q 3953 4506 4520 4234 
Q 5088 3963 5472 3463 
Q 5706 3156 5829 2797 
Q 5953 2438 5953 2053 
Q 5953 1231 5456 756 
Q 4959 281 4084 263 
L 4084 744 
z
" transform="scale(0.015625)"/>
      </defs>
      <use xlink:href="#DejaVuSans-6d"/>
      <use xlink:href="#DejaVuSans-65" x="97.412109"/>
      <use xlink:href="#DejaVuSans-64" x="158.935547"/>
      <use xlink:href="#DejaVuSans-69" x="222.412109"/>
      <use xlink:href="#DejaVuSans-61" x="250.195312"/>
      <use xlink:href="#DejaVuSans-6e" x="311.474609"/>
      <use xlink:href="#DejaVuSans-20" x="374.853516"/>
      <use xlink:href="#DejaVuSans-72" x="406.640625"/>
      <use xlink:href="#DejaVuSans-65" x="445.503906"/>
      <use xlink:href="#DejaVuSans-63" x="507.027344"/>
      <use xlink:href="#DejaVuSans-6f" x="562.007812"/>
      <use xlink:href="#DejaVuSans-76" x="623.189453"/>
      <use xlink:href="#DejaVuSans-65" x="682.369141"/>
      <use xlink:href="#DejaVuSans-72" x="743.892578"/>
      <use xlink:href="#DejaVuSans-65" x="782.755859"/>
      <use xlink:href="#DejaVuSans-64" x="844.279297"/>
      <use xlink:href="#DejaVuSans-5f" x="907.755859"/>
      <use xlink:href="#DejaVuSans-66" x="957.755859"/>
      <use xlink:href="#DejaVuSans-72" x="992.960938"/>
      <use xlink:href="#DejaVuSans-61" x="1034.074219"/>
      <use xlink:href="#DejaVuSans-63" x="1095.353516"/>
      <use xlink:href="#DejaVuSans-40" x="1150.333984"/>
      <use xlink:href="#DejaVuSans-30" x="1250.333984"/>
      <use xlink:href="#DejaVuSans-2e" x="1313.957031"/>
      <use xlink:href="#DejaVuSans-39" x="1345.744141"/>
      <use xlink:href="#DejaVuSans-20" x="1409.367188"/>
      <use xlink:href="#DejaVuSans-28" x="1441.154297"/>
      <use xlink:href="#DejaVuSans-35" x="1480.167969"/>
      <use xlink:href="#DejaVuSans-20" x="1543.791016"/>
      <use xlink:href="#DejaVuSans-73" x="1575.578125"/>
      <use xlink:href="#DejaVuSans-65" x="1627.677734"/>
      <use xlink:href="#DejaVuSans-65" x="1689.201172"/>
      <use xlink:href="#DejaVuSans-64" x="1750.724609"/>
      <use xlink:href="#DejaVuSans-73" x="1814.201172"/>
      <use xlink:href="#DejaVuSans-29" x="1866.300781"/>
     </g>
    </g>
   </g>
   <g id="patch_3">
    <path d="M 47.762031 332.04 
L 47.762031 7.2 
" style="fill: none; stroke: #1a1a1a; stroke-linejoin: miter; stroke-linecap: square"/>
   </g>
   <g id="patch_4">
    <path d="M 603.575781 332.04 
L 603.575781 7.2 
" style="fill: none; stroke: #1a1a1a; stroke-linejoin: miter; stroke-linecap: square"/>
   </g>
   <g id="patch_5">
    <path d="M 47.762031 332.04 
L 603.575781 332.04 
" style="fill: none; stroke: #1a1a1a; stroke-linejoin: miter; stroke-linecap: square"/>
   </g>
   <g id="patch_6">
    <path d="M 47.762031 7.2 
L 603.575781 7.2 
" style="fill: none; stroke: #1a1a1a; stroke-linejoin: miter; stroke-linecap: square"/>
   </g>
   <g id="line2d_25">
    <path d="M 62.647942 40.804138 
L 156.954965 40.804138 
L 204.287846 40.804138 
L 236.144919 40.804138 
L 309.534548 40.804138 
L 380.344395 86.456732 
L 449.933928 305.678062 
L 518.929573 320.838621 
L 587.632211 320.838621 
" clip-path="url(#p975afe3324)" style="fill: none"/>
    <defs>
     <path id="m53c209fdb8" d="M 0 1.6 
C 0.424325 1.6 0.831328 1.431414 1.131371 1.131371 
C 1.431414 0.831328 1.6 0.424325 1.6 0 
C 1.6 -0.424325 1.431414 -0.831328 1.131371 -1.131371 
C 0.831328 -1.431414 0.424325 -1.6 0 -1.6 
C -0.424325 -1.6 -0.831328 -1.431414 -1.131371 -1.131371 
C -1.431414 -0.831328 -1.6 -0.424325 -1.6 0 
C -1.6 0.424325 -1.431414 0.831328 -1.131371 1.131371 
C -0.831328 1.431414 -0.424325 1.6 0 1.6 
z
" style="stroke: #d55e00; stroke-opacity: 0.35"/>
    </defs>
    <g clip-path="url(#p975afe3324)">
     <use xlink:href="#m53c209fdb8" x="62.647942" y="40.804138" style="fill: #d55e00; fill-opacity: 0.35; stroke: #d55e00; stroke-opacity: 0.35"/>
     <use xlink:href="#m53c209fdb8" x="156.954965" y="40.804138" style="fill: #d55e00; fill-opacity: 0.35; stroke: #d55e00; stroke-opacity: 0.35"/>
     <use xlink:href="#m53c209fdb8" x="204.287846" y="40.804138" style="fill: #d55e00; fill-opacity: 0.35; stroke: #d55e00; stroke-opacity: 0.35"/>
     <use xlink:href="#m53c209fdb8" x="236.144919" y="40.804138" style="fill: #d55e00; fill-opacity: 0.35; stroke: #d55e00; stroke-opacity: 0.35"/>
     <use xlink:href="#m53c209fdb8" x="309.534548" y="40.804138" style="fill: #d55e00; fill-opacity: 0.35; stroke: #d55e00; stroke-opacity: 0.35"/>
     <use xlink:href="#m53c209fdb8" x="380.344395" y="86.456732" style="fill: #d55e00; fill-opacity: 0.35; stroke: #d55e00; stroke-opacity: 0.35"/>
     <use xlink:href="#m53c209fdb8" x="449.933928" y="305.678062" style="fill: #d55e00; fill-opacity: 0.35; stroke: #d55e00; stroke-opacity: 0.35"/>
     <use xlink:href="#m53c209fdb8" x="518.929573" y="320.838621" style="fill: #d55e00; fill-opacity: 0.35; stroke: #d55e00; stroke-opacity: 0.35"/>
     <use xlink:href="#m53c209fdb8" x="587.632211" y="320.838621" style="fill: #d55e00; fill-opacity: 0.35; stroke: #d55e00; stroke-opacity: 0.35"/>
    </g>
   </g>
   <g id="line2d_26">
    <path d="M 62.647942 40.804138 
L 156.954965 40.804138 
L 204.287846 40.804138 
L 236.144919 40.804138 
L 309.534548 40.804138 
L 380.344395 40.975057 
L 449.933928 176.377473 
L 518.929573 318.121001 
L 587.632211 320.838621 
" clip-path="url(#p975afe3324)" style="fill: none"/>
    <g clip-path="url(#p975afe3324)">
     <use xlink:href="#m53c209fdb8" x="62.647942" y="40.804138" style="fill: #d55e00; fill-opacity: 0.35; stroke: #d55e00; stroke-opacity: 0.35"/>
     <use xlink:href="#m53c209fdb8" x="156.954965" y="40.804138" style="fill: #d55e00; fill-opacity: 0.35; stroke: #d55e00; stroke-opacity: 0.35"/>
     <use xlink:href="#m53c209fdb8" x="204.287846" y="40.804138" style="fill: #d55e00; fill-opacity: 0.35; stroke: #d55e00; stroke-opacity: 0.35"/>
     <use xlink:href="#m53c209fdb8" x="236.144919" y="40.804138" style="fill: #d55e00; fill-opacity: 0.35; stroke: #d55e00; stroke-opacity: 0.35"/>
     <use xlink:href="#m53c209fdb8" x="309.534548" y="40.804138" style="fill: #d55e00; fill-opacity: 0.35; stroke: #d55e00; stroke-opacity: 0.35"/>
     <use xlink:href="#m53c209fdb8" x="380.344395" y="40.975057" style="fill: #d55e00; fill-opacity: 0.35; stroke: #d55e00; stroke-opacity: 0.35"/>
     <use xlink:href="#m53c209fdb8" x="449.933928" y="176.377473" style="fill: #d55e00; fill-opacity: 0.35; stroke: #d55e00; stroke-opacity: 0.35"/>
     <use xlink:href="#m53c209fdb8" x="518.929573" y="318.121001" style="fill: #d55e00; fill-opacity: 0.35; stroke: #d55e00; stroke-opacity: 0.35"/>
     <use xlink:href="#m53c209fdb8" x="587.632211" y="320.838621" style="fill: #d55e00; fill-opacity: 0.35; stroke: #d55e00; stroke-opacity: 0.35"/>
    </g>
   </g>
   <g id="line2d_27">
    <path d="M 62.647942 40.804138 
L 156.954965 40.804138 
L 204.287846 40.804138 
L 236.144919 40.804138 
L 309.534548 40.804138 
L 380.344395 40.804138 
L 449.933928 129.06696 
L 518.929573 313.779646 
L 587.632211 320.838621 
" clip-path="url(#p975afe3324)" style="fill: none"/>
    <g clip-path="url(#p975afe3324)">
     <use xlink:href="#m53c209fdb8" x="62.647942" y="40.804138" style="fill: #d55e00; fill-opacity: 0.35; stroke: #d55e00; stroke-opacity: 0.35"/>
     <use xlink:href="#m53c209fdb8" x="156.954965" y="40.804138" style="fill: #d55e00; fill-opacity: 0.35; stroke: #d55e00; stroke-opacity: 0.35"/>
     <use xlink:href="#m53c209fdb8" x="204.287846" y="40.804138" style="fill: #d55e00; fill-opacity: 0.35; stroke: #d55e00; stroke-opacity: 0.35"/>
     <use xlink:href="#m53c209fdb8" x="236.144919" y="40.804138" style="fill: #d55e00; fill-opacity: 0.35; stroke: #d55e00; stroke-opacity: 0.35"/>
     <use xlink:href="#m53c209fdb8" x="309.534548" y="40.804138" style="fill: #d55e00; fill-opacity: 0.35; stroke: #d55e00; stroke-opacity: 0.35"/>
     <use xlink:href="#m53c209fdb8" x="380.344395" y="40.804138" style="fill: #d55e00; fill-opacity: 0.35; stroke: #d55e00; stroke-opacity: 0.35"/>
     <use xlink:href="#m53c209fdb8" x="449.933928" y="129.06696" style="fill: #d55e00; fill-opacity: 0.35; stroke: #d55e00; stroke-opacity: 0.35"/>
     <use xlink:href="#m53c209fdb8" x="518.929573" y="313.779646" style="fill: #d55e00; fill-opacity: 0.35; stroke: #d55e00; stroke-opacity: 0.35"/>
     <use xlink:href="#m53c209fdb8" x="587.632211" y="320.838621" style="fill: #d55e00; fill-opacity: 0.35; stroke: #d55e00; stroke-opacity: 0.35"/>
    </g>
   </g>
   <g id="line2d_28">
    <path d="M 62.647942 40.804138 
L 156.954965 40.804138 
L 204.287846 40.804138 
L 236.144919 40.804138 
L 309.534548 42.171494 
L 380.344395 206.049095 
L 449.933928 318.411564 
L 518.929573 320.838621 
L 587.632211 320.838621 
" clip-path="url(#p975afe3324)" style="fill: none"/>
    <g clip-path="url(#p975afe3324)">
     <use xlink:href="#m53c209fdb8" x="62.647942" y="40.804138" style="fill: #d55e00; fill-opacity: 0.35; stroke: #d55e00; stroke-opacity: 0.35"/>
     <use xlink:href="#m53c209fdb8" x="156.954965" y="40.804138" style="fill: #d55e00; fill-opacity: 0.35; stroke: #d55e00; stroke-opacity: 0.35"/>
     <use xlink:href="#m53c209fdb8" x="204.287846" y="40.804138" style="fill: #d55e00; fill-opacity: 0.35; stroke: #d55e00; stroke-opacity: 0.35"/>
     <use xlink:href="#m53c209fdb8" x="236.144919" y="40.804138" style="fill: #d55e00; fill-opacity: 0.35; stroke: #d55e00; stroke-opacity: 0.35"/>
     <use xlink:href="#m53c209fdb8" x="309.534548" y="42.171494" style="fill: #d55e00; fill-opacity: 0.35; stroke: #d55e00; stroke-opacity: 0.35"/>
     <use xlink:href="#m53c209fdb8" x="380.344395" y="206.049095" style="fill: #d55e00; fill-opacity: 0.35; stroke: #d55e00; stroke-opacity: 0.35"/>
     <use xlink:href="#m53c209fdb8" x="449.933928" y="318.411564" style="fill: #d55e00; fill-opacity: 0.35; stroke: #d55e00; stroke-opacity: 0.35"/>
     <use xlink:href="#m53c209fdb8" x="518.929573" y="320.838621" style="fill: #d55e00; fill-opacity: 0.35; stroke: #d55e00; stroke-opacity: 0.35"/>
     <use xlink:href="#m53c209fdb8" x="587.632211" y="320.838621" style="fill: #d55e00; fill-opacity: 0.35; stroke: #d55e00; stroke-opacity: 0.35"/>
    </g>
   </g>
   <g id="line2d_29">
    <path d="M 62.647942 40.804138 
L 156.954965 40.804138 
L 204.287846 40.804138 
L 236.144919 40.804138 
L 309.534548 40.804138 
L 380.344395 40.804138 
L 449.933928 119.102354 
L 518.929573 318.855955 
L 587.632211 320.838621 
" clip-path="url(#p975afe3324)" style="fill: none"/>
    <g clip-path="url(#p975afe3324)">
     <use xlink:href="#m53c209fdb8" x="62.647942" y="40.804138" style="fill: #d55e00; fill-opacity: 0.35; stroke: #d55e00; stroke-opacity: 0.35"/>
     <use xlink:href="#m53c209fdb8" x="156.954965" y="40.804138" style="fill: #d55e00; fill-opacity: 0.35; stroke: #d55e00; stroke-opacity: 0.35"/>
     <use xlink:href="#m53c209fdb8" x="204.287846" y="40.804138" style="fill: #d55e00; fill-opacity: 0.35; stroke: #d55e00; stroke-opacity: 0.35"/>
     <use xlink:href="#m53c209fdb8" x="236.144919" y="40.804138" style="fill: #d55e00; fill-opacity: 0.35; stroke: #d55e00; stroke-opacity: 0.35"/>
     <use xlink:href="#m53c209fdb8" x="309.534548" y="40.804138" style="fill: #d55e00; fill-opacity: 0.35; stroke: #d55e00; stroke-opacity: 0.35"/>
     <use xlink:href="#m53c209fdb8" x="380.344395" y="40.804138" style="fill: #d55e00; fill-opacity: 0.35; stroke: #d55e00; stroke-opacity: 0.35"/>
     <use xlink:href="#m53c209fdb8" x="449.933928" y="119.102354" style="fill: #d55e00; fill-opacity: 0.35; stroke: #d55e00; stroke-opacity: 0.35"/>
     <use xlink:href="#m53c209fdb8" x="518.929573" y="318.855955" style="fill: #d55e00; fill-opacity: 0.35; stroke: #d55e00; stroke-opacity: 0.35"/>
     <use xlink:href="#m53c209fdb8" x="587.632211" y="320.838621" style="fill: #d55e00; fill-opacity: 0.35; stroke: #d55e00; stroke-opacity: 0.35"/>
    </g>
   </g>
   <g id="line2d_30">
    <path d="M 62.647942 60.699166 
L 156.954965 111.274241 
L 204.287846 149.816585 
L 236.144919 184.034666 
L 309.534548 284.535322 
L 380.344395 318.514116 
L 449.933928 320.701885 
L 518.929573 320.838621 
L 587.632211 320.838621 
" clip-path="url(#p975afe3324)" style="fill: none"/>
    <defs>
     <path id="mc69d9b0ba0" d="M -1.6 1.6 
L 1.6 1.6 
L 1.6 -1.6 
L -1.6 -1.6 
z
" style="stroke: #0072b2; stroke-opacity: 0.35; stroke-linejoin: miter"/>
    </defs>
    <g clip-path="url(#p975afe3324)">
     <use xlink:href="#mc69d9b0ba0" x="62.647942" y="60.699166" style="fill: #0072b2; fill-opacity: 0.35; stroke: #0072b2; stroke-opacity: 0.35; stroke-linejoin: miter"/>
     <use xlink:href="#mc69d9b0ba0" x="156.954965" y="111.274241" style="fill: #0072b2; fill-opacity: 0.35; stroke: #0072b2; stroke-opacity: 0.35; stroke-linejoin: miter"/>
     <use xlink:href="#mc69d9b0ba0" x="204.287846" y="149.816585" style="fill: #0072b2; fill-opacity: 0.35; stroke: #0072b2; stroke-opacity: 0.35; stroke-linejoin: miter"/>
     <use xlink:href="#mc69d9b0ba0" x="236.144919" y="184.034666" style="fill: #0072b2; fill-opacity: 0.35; stroke: #0072b2; stroke-opacity: 0.35; stroke-linejoin: miter"/>
     <use xlink:href="#mc69d9b0ba0" x="309.534548" y="284.535322" style="fill: #0072b2; fill-opacity: 0.35; stroke: #0072b2; stroke-opacity: 0.35; stroke-linejoin: miter"/>
     <use xlink:href="#mc69d9b0ba0" x="380.344395" y="318.514116" style="fill: #0072b2; fill-opacity: 0.35; stroke: #0072b2; stroke-opacity: 0.35; stroke-linejoin: miter"/>
     <use xlink:href="#mc69d9b0ba0" x="449.933928" y="320.701885" style="fill: #0072b2; fill-opacity: 0.35; stroke: #0072b2; stroke-opacity: 0.35; stroke-linejoin: miter"/>
     <use xlink:href="#mc69d9b0ba0" x="518.929573" y="320.838621" style="fill: #0072b2; fill-opacity: 0.35; stroke: #0072b2; stroke-opacity: 0.35; stroke-linejoin: miter"/>
     <use xlink:href="#mc69d9b0ba0" x="587.632211" y="320.838621" style="fill: #0072b2; fill-opacity: 0.35; stroke: #0072b2; stroke-opacity: 0.35; stroke-linejoin: miter"/>
    </g>
   </g>
   <g id="line2d_31">
    <path d="M 62.647942 63.775717 
L 156.954965 64.68159 
L 204.287846 68.287991 
L 236.144919 68.407635 
L 309.534548 93.498615 
L 380.344395 228.388272 
L 449.933928 315.454657 
L 518.929573 320.838621 
L 587.632211 320.838621 
" clip-path="url(#p975afe3324)" style="fill: none"/>
    <g clip-path="url(#p975afe3324)">
     <use xlink:href="#mc69d9b0ba0" x="62.647942" y="63.775717" style="fill: #0072b2; fill-opacity: 0.35; stroke: #0072b2; stroke-opacity: 0.35; stroke-linejoin: miter"/>
     <use xlink:href="#mc69d9b0ba0" x="156.954965" y="64.68159" style="fill: #0072b2; fill-opacity: 0.35; stroke: #0072b2; stroke-opacity: 0.35; stroke-linejoin: miter"/>
     <use xlink:href="#mc69d9b0ba0" x="204.287846" y="68.287991" style="fill: #0072b2; fill-opacity: 0.35; stroke: #0072b2; stroke-opacity: 0.35; stroke-linejoin: miter"/>
     <use xlink:href="#mc69d9b0ba0" x="236.144919" y="68.407635" style="fill: #0072b2; fill-opacity: 0.35; stroke: #0072b2; stroke-opacity: 0.35; stroke-linejoin: miter"/>
     <use xlink:href="#mc69d9b0ba0" x="309.534548" y="93.498615" style="fill: #0072b2; fill-opacity: 0.35; stroke: #0072b2; stroke-opacity: 0.35; stroke-linejoin: miter"/>
     <use xlink:href="#mc69d9b0ba0" x="380.344395" y="228.388272" style="fill: #0072b2; fill-opacity: 0.35; stroke: #0072b2; stroke-opacity: 0.35; stroke-linejoin: miter"/>
     <use xlink:href="#mc69d9b0ba0" x="449.933928" y="315.454657" style="fill: #0072b2; fill-opacity: 0.35; stroke: #0072b2; stroke-opacity: 0.35; stroke-linejoin: miter"/>
     <use xlink:href="#mc69d9b0ba0" x="518.929573" y="320.838621" style="fill: #0072b2; fill-opacity: 0.35; stroke: #0072b2; stroke-opacity: 0.35; stroke-linejoin: miter"/>
     <use xlink:href="#mc69d9b0ba0" x="587.632211" y="320.838621" style="fill: #0072b2; fill-opacity: 0.35; stroke: #0072b2; stroke-opacity: 0.35; stroke-linejoin: miter"/>
    </g>
   </g>
   <g id="line2d_32">
    <path d="M 62.647942 62.237441 
L 156.954965 117.085504 
L 204.287846 153.474262 
L 236.144919 184.735435 
L 309.534548 276.519198 
L 380.344395 317.010024 
L 449.933928 320.753161 
L 518.929573 320.838621 
L 587.632211 320.838621 
" clip-path="url(#p975afe3324)" style="fill: none"/>
    <g clip-path="url(#p975afe3324)">
     <use xlink:href="#mc69d9b0ba0" x="62.647942" y="62.237441" style="fill: #0072b2; fill-opacity: 0.35; stroke: #0072b2; stroke-opacity: 0.35; stroke-linejoin: miter"/>
     <use xlink:href="#mc69d9b0ba0" x="156.954965" y="117.085504" style="fill: #0072b2; fill-opacity: 0.35; stroke: #0072b2; stroke-opacity: 0.35; stroke-linejoin: miter"/>
     <use xlink:href="#mc69d9b0ba0" x="204.287846" y="153.474262" style="fill: #0072b2; fill-opacity: 0.35; stroke: #0072b2; stroke-opacity: 0.35; stroke-linejoin: miter"/>
     <use xlink:href="#mc69d9b0ba0" x="236.144919" y="184.735435" style="fill: #0072b2; fill-opacity: 0.35; stroke: #0072b2; stroke-opacity: 0.35; stroke-linejoin: miter"/>
     <use xlink:href="#mc69d9b0ba0" x="309.534548" y="276.519198" style="fill: #0072b2; fill-opacity: 0.35; stroke: #0072b2; stroke-opacity: 0.35; stroke-linejoin: miter"/>
     <use xlink:href="#mc69d9b0ba0" x="380.344395" y="317.010024" style="fill: #0072b2; fill-opacity: 0.35; stroke: #0072b2; stroke-opacity: 0.35; stroke-linejoin: miter"/>
     <use xlink:href="#mc69d9b0ba0" x="449.933928" y="320.753161" style="fill: #0072b2; fill-opacity: 0.35; stroke: #0072b2; stroke-opacity: 0.35; stroke-linejoin: miter"/>
     <use xlink:href="#mc69d9b0ba0" x="518.929573" y="320.838621" style="fill: #0072b2; fill-opacity: 0.35; stroke: #0072b2; stroke-opacity: 0.35; stroke-linejoin: miter"/>
     <use xlink:href="#mc69d9b0ba0" x="587.632211" y="320.838621" style="fill: #0072b2; fill-opacity: 0.35; stroke: #0072b2; stroke-opacity: 0.35; stroke-linejoin: miter"/>
    </g>
   </g>
   <g id="line2d_33">
    <path d="M 62.647942 65.006337 
L 156.954965 64.06628 
L 204.287846 65.433636 
L 236.144919 66.219865 
L 309.534548 75.261506 
L 380.344395 139.099933 
L 449.933928 297.405559 
L 518.929573 320.291678 
L 587.632211 320.838621 
" clip-path="url(#p975afe3324)" style="fill: none"/>
    <g clip-path="url(#p975afe3324)">
     <use xlink:href="#mc69d9b0ba0" x="62.647942" y="65.006337" style="fill: #0072b2; fill-opacity: 0.35; stroke: #0072b2; stroke-opacity: 0.35; stroke-linejoin: miter"/>
     <use xlink:href="#mc69d9b0ba0" x="156.954965" y="64.06628" style="fill: #0072b2; fill-opacity: 0.35; stroke: #0072b2; stroke-opacity: 0.35; stroke-linejoin: miter"/>
     <use xlink:href="#mc69d9b0ba0" x="204.287846" y="65.433636" style="fill: #0072b2; fill-opacity: 0.35; stroke: #0072b2; stroke-opacity: 0.35; stroke-linejoin: miter"/>
     <use xlink:href="#mc69d9b0ba0" x="236.144919" y="66.219865" style="fill: #0072b2; fill-opacity: 0.35; stroke: #0072b2; stroke-opacity: 0.35; stroke-linejoin: miter"/>
     <use xlink:href="#mc69d9b0ba0" x="309.534548" y="75.261506" style="fill: #0072b2; fill-opacity: 0.35; stroke: #0072b2; stroke-opacity: 0.35; stroke-linejoin: miter"/>
     <use xlink:href="#mc69d9b0ba0" x="380.344395" y="139.099933" style="fill: #0072b2; fill-opacity: 0.35; stroke: #0072b2; stroke-opacity: 0.35; stroke-linejoin: miter"/>
     <use xlink:href="#mc69d9b0ba0" x="449.933928" y="297.405559" style="fill: #0072b2; fill-opacity: 0.35; stroke: #0072b2; stroke-opacity: 0.35; stroke-linejoin: miter"/>
     <use xlink:href="#mc69d9b0ba0" x="518.929573" y="320.291678" style="fill: #0072b2; fill-opacity: 0.35; stroke: #0072b2; stroke-opacity: 0.35; stroke-linejoin: miter"/>
     <use xlink:href="#mc69d9b0ba0" x="587.632211" y="320.838621" style="fill: #0072b2; fill-opacity: 0.35; stroke: #0072b2; stroke-opacity: 0.35; stroke-linejoin: miter"/>
    </g>
   </g>
   <g id="line2d_34">
    <path d="M 62.647942 61.365752 
L 156.954965 113.256907 
L 204.287846 156.892652 
L 236.144919 190.239043 
L 309.534548 281.322036 
L 380.344395 318.257736 
L 449.933928 320.650609 
L 518.929573 320.838621 
L 587.632211 320.838621 
" clip-path="url(#p975afe3324)" style="fill: none"/>
    <g clip-path="url(#p975afe3324)">
     <use xlink:href="#mc69d9b0ba0" x="62.647942" y="61.365752" style="fill: #0072b2; fill-opacity: 0.35; stroke: #0072b2; stroke-opacity: 0.35; stroke-linejoin: miter"/>
     <use xlink:href="#mc69d9b0ba0" x="156.954965" y="113.256907" style="fill: #0072b2; fill-opacity: 0.35; stroke: #0072b2; stroke-opacity: 0.35; stroke-linejoin: miter"/>
     <use xlink:href="#mc69d9b0ba0" x="204.287846" y="156.892652" style="fill: #0072b2; fill-opacity: 0.35; stroke: #0072b2; stroke-opacity: 0.35; stroke-linejoin: miter"/>
     <use xlink:href="#mc69d9b0ba0" x="236.144919" y="190.239043" style="fill: #0072b2; fill-opacity: 0.35; stroke: #0072b2; stroke-opacity: 0.35; stroke-linejoin: miter"/>
     <use xlink:href="#mc69d9b0ba0" x="309.534548" y="281.322036" style="fill: #0072b2; fill-opacity: 0.35; stroke: #0072b2; stroke-opacity: 0.35; stroke-linejoin: miter"/>
     <use xlink:href="#mc69d9b0ba0" x="380.344395" y="318.257736" style="fill: #0072b2; fill-opacity: 0.35; stroke: #0072b2; stroke-opacity: 0.35; stroke-linejoin: miter"/>
     <use xlink:href="#mc69d9b0ba0" x="449.933928" y="320.650609" style="fill: #0072b2; fill-opacity: 0.35; stroke: #0072b2; stroke-opacity: 0.35; stroke-linejoin: miter"/>
     <use xlink:href="#mc69d9b0ba0" x="518.929573" y="320.838621" style="fill: #0072b2; fill-opacity: 0.35; stroke: #0072b2; stroke-opacity: 0.35; stroke-linejoin: miter"/>
     <use xlink:href="#mc69d9b0ba0" x="587.632211" y="320.838621" style="fill: #0072b2; fill-opacity: 0.35; stroke: #0072b2; stroke-opacity: 0.35; stroke-linejoin: miter"/>
    </g>
   </g>
   <g id="line2d_35">
    <path d="M 62.647942 320.838621 
L 156.954965 320.838621 
L 204.287846 320.838621 
L 236.144919 320.838621 
L 309.534548 320.838621 
L 380.344395 320.838621 
L 449.933928 320.838621 
L 518.929573 320.838621 
L 587.632211 320.838621 
" clip-path="url(#p975afe3324)" style="fill: none"/>
    <defs>
     <path id="m1c3117f677" d="M 0 -1.6 
L -1.6 1.6 
L 1.6 1.6 
z
" style="stroke: #56b4e9; stroke-opacity: 0.35; stroke-linejoin: miter"/>
    </defs>
    <g clip-path="url(#p975afe3324)">
     <use xlink:href="#m1c3117f677" x="62.647942" y="320.838621" style="fill: #56b4e9; fill-opacity: 0.35; stroke: #56b4e9; stroke-opacity: 0.35; stroke-linejoin: miter"/>
     <use xlink:href="#m1c3117f677" x="156.954965" y="320.838621" style="fill: #56b4e9; fill-opacity: 0.35; stroke: #56b4e9; stroke-opacity: 0.35; stroke-linejoin: miter"/>
     <use xlink:href="#m1c3117f677" x="204.287846" y="320.838621" style="fill: #56b4e9; fill-opacity: 0.35; stroke: #56b4e9; stroke-opacity: 0.35; stroke-linejoin: miter"/>
     <use xlink:href="#m1c3117f677" x="236.144919" y="320.838621" style="fill: #56b4e9; fill-opacity: 0.35; stroke: #56b4e9; stroke-opacity: 0.35; stroke-linejoin: miter"/>
     <use xlink:href="#m1c3117f677" x="309.534548" y="320.838621" style="fill: #56b4e9; fill-opacity: 0.35; stroke: #56b4e9; stroke-opacity: 0.35; stroke-linejoin: miter"/>
     <use xlink:href="#m1c3117f677" x="380.344395" y="320.838621" style="fill: #56b4e9; fill-opacity: 0.35; stroke: #56b4e9; stroke-opacity: 0.35; stroke-linejoin: miter"/>
     <use xlink:href="#m1c3117f677" x="449.933928" y="320.838621" style="fill: #56b4e9; fill-opacity: 0.35; stroke: #56b4e9; stroke-opacity: 0.35; stroke-linejoin: miter"/>
     <use xlink:href="#m1c3117f677" x="518.929573" y="320.838621" style="fill: #56b4e9; fill-opacity: 0.35; stroke: #56b4e9; stroke-opacity: 0.35; stroke-linejoin: miter"/>
     <use xlink:href="#m1c3117f677" x="587.632211" y="320.838621" style="fill: #56b4e9; fill-opacity: 0.35; stroke: #56b4e9; stroke-opacity: 0.35; stroke-linejoin: miter"/>
    </g>
   </g>
   <g id="line2d_36">
    <path d="M 62.647942 320.838621 
L 156.954965 320.838621 
L 204.287846 320.838621 
L 236.144919 320.838621 
L 309.534548 320.838621 
L 380.344395 320.838621 
L 449.933928 320.838621 
L 518.929573 320.838621 
L 587.632211 320.838621 
" clip-path="url(#p975afe3324)" style="fill: none"/>
    <g clip-path="url(#p975afe3324)">
     <use xlink:href="#m1c3117f677" x="62.647942" y="320.838621" style="fill: #56b4e9; fill-opacity: 0.35; stroke: #56b4e9; stroke-opacity: 0.35; stroke-linejoin: miter"/>
     <use xlink:href="#m1c3117f677" x="156.954965" y="320.838621" style="fill: #56b4e9; fill-opacity: 0.35; stroke: #56b4e9; stroke-opacity: 0.35; stroke-linejoin: miter"/>
     <use xlink:href="#m1c3117f677" x="204.287846" y="320.838621" style="fill: #56b4e9; fill-opacity: 0.35; stroke: #56b4e9; stroke-opacity: 0.35; stroke-linejoin: miter"/>
     <use xlink:href="#m1c3117f677" x="236.144919" y="320.838621" style="fill: #56b4e9; fill-opacity: 0.35; stroke: #56b4e9; stroke-opacity: 0.35; stroke-linejoin: miter"/>
     <use xlink:href="#m1c3117f677" x="309.534548" y="320.838621" style="fill: #56b4e9; fill-opacity: 0.35; stroke: #56b4e9; stroke-opacity: 0.35; stroke-linejoin: miter"/>
     <use xlink:href="#m1c3117f677" x="380.344395" y="320.838621" style="fill: #56b4e9; fill-opacity: 0.35; stroke: #56b4e9; stroke-opacity: 0.35; stroke-linejoin: miter"/>
     <use xlink:href="#m1c3117f677" x="449.933928" y="320.838621" style="fill: #56b4e9; fill-opacity: 0.35; stroke: #56b4e9; stroke-opacity: 0.35; stroke-linejoin: miter"/>
     <use xlink:href="#m1c3117f677" x="518.929573" y="320.838621" style="fill: #56b4e9; fill-opacity: 0.35; stroke: #56b4e9; stroke-opacity: 0.35; stroke-linejoin: miter"/>
     <use xlink:href="#m1c3117f677" x="587.632211" y="320.838621" style="fill: #56b4e9; fill-opacity: 0.35; stroke: #56b4e9; stroke-opacity: 0.35; stroke-linejoin: miter"/>
    </g>
   </g>
   <g id="line2d_37">
    <path d="M 62.647942 320.838621 
L 156.954965 320.838621 
L 204.287846 320.838621 
L 236.144919 320.838621 
L 309.534548 320.838621 
L 380.344395 320.838621 
L 449.933928 320.838621 
L 518.929573 320.838621 
L 587.632211 320.838621 
" clip-path="url(#p975afe3324)" style="fill: none"/>
    <g clip-path="url(#p975afe3324)">
     <use xlink:href="#m1c3117f677" x="62.647942" y="320.838621" style="fill: #56b4e9; fill-opacity: 0.35; stroke: #56b4e9; stroke-opacity: 0.35; stroke-linejoin: miter"/>
     <use xlink:href="#m1c3117f677" x="156.954965" y="320.838621" style="fill: #56b4e9; fill-opacity: 0.35; stroke: #56b4e9; stroke-opacity: 0.35; stroke-linejoin: miter"/>
     <use xlink:href="#m1c3117f677" x="204.287846" y="320.838621" style="fill: #56b4e9; fill-opacity: 0.35; stroke: #56b4e9; stroke-opacity: 0.35; stroke-linejoin: miter"/>
     <use xlink:href="#m1c3117f677" x="236.144919" y="320.838621" style="fill: #56b4e9; fill-opacity: 0.35; stroke: #56b4e9; stroke-opacity: 0.35; stroke-linejoin: miter"/>
     <use xlink:href="#m1c3117f677" x="309.534548" y="320.838621" style="fill: #56b4e9; fill-opacity: 0.35; stroke: #56b4e9; stroke-opacity: 0.35; stroke-linejoin: miter"/>
     <use xlink:href="#m1c3117f677" x="380.344395" y="320.838621" style="fill: #56b4e9; fill-opacity: 0.35; stroke: #56b4e9; stroke-opacity: 0.35; stroke-linejoin: miter"/>
     <use xlink:href="#m1c3117f677" x="449.933928" y="320.838621" style="fill: #56b4e9; fill-opacity: 0.35; stroke: #56b4e9; stroke-opacity: 0.35; stroke-linejoin: miter"/>
     <use xlink:href="#m1c3117f677" x="518.929573" y="320.838621" style="fill: #56b4e9; fill-opacity: 0.35; stroke: #56b4e9; stroke-opacity: 0.35; stroke-linejoin: miter"/>
     <use xlink:href="#m1c3117f677" x="587.632211" y="320.838621" style="fill: #56b4e9; fill-opacity: 0.35; stroke: #56b4e9; stroke-opacity: 0.35; stroke-linejoin: miter"/>
    </g>
   </g>
   <g id="line2d_38">
    <path d="M 62.647942 320.838621 
L 156.954965 320.838621 
L 204.287846 320.838621 
L 236.144919 320.838621 
L 309.534548 320.838621 
L 380.344395 320.838621 
L 449.933928 320.838621 
L 518.929573 320.838621 
L 587.632211 320.838621 
" clip-path="url(#p975afe3324)" style="fill: none"/>
    <g clip-path="url(#p975afe3324)">
     <use xlink:href="#m1c3117f677" x="62.647942" y="320.838621" style="fill: #56b4e9; fill-opacity: 0.35; stroke: #56b4e9; stroke-opacity: 0.35; stroke-linejoin: miter"/>
     <use xlink:href="#m1c3117f677" x="156.954965" y="320.838621" style="fill: #56b4e9; fill-opacity: 0.35; stroke: #56b4e9; stroke-opacity: 0.35; stroke-linejoin: miter"/>
     <use xlink:href="#m1c3117f677" x="204.287846" y="320.838621" style="fill: #56b4e9; fill-opacity: 0.35; stroke: #56b4e9; stroke-opacity: 0.35; stroke-linejoin: miter"/>
     <use xlink:href="#m1c3117f677" x="236.144919" y="320.838621" style="fill: #56b4e9; fill-opacity: 0.35; stroke: #56b4e9; stroke-opacity: 0.35; stroke-linejoin: miter"/>
     <use xlink:href="#m1c3117f677" x="309.534548" y="320.838621" style="fill: #56b4e9; fill-opacity: 0.35; stroke: #56b4e9; stroke-opacity: 0.35; stroke-linejoin: miter"/>
     <use xlink:href="#m1c3117f677" x="380.344395" y="320.838621" style="fill: #56b4e9; fill-opacity: 0.35; stroke: #56b4e9; stroke-opacity: 0.35; stroke-linejoin: miter"/>
     <use xlink:href="#m1c3117f677" x="449.933928" y="320.838621" style="fill: #56b4e9; fill-opacity: 0.35; stroke: #56b4e9; stroke-opacity: 0.35; stroke-linejoin: miter"/>
     <use xlink:href="#m1c3117f677" x="518.929573" y="320.838621" style="fill: #56b4e9; fill-opacity: 0.35; stroke: #56b4e9; stroke-opacity: 0.35; stroke-linejoin: miter"/>
     <use xlink:href="#m1c3117f677" x="587.632211" y="320.838621" style="fill: #56b4e9; fill-opacity: 0.35; stroke: #56b4e9; stroke-opacity: 0.35; stroke-linejoin: miter"/>
    </g>
   </g>
   <g id="line2d_39">
    <path d="M 62.647942 320.838621 
L 156.954965 320.838621 
L 204.287846 320.838621 
L 236.144919 320.838621 
L 309.534548 320.838621 
L 380.344395 320.838621 
L 449.933928 320.838621 
L 518.929573 320.838621 
L 587.632211 320.838621 
" clip-path="url(#p975afe3324)" style="fill: none"/>
    <g clip-path="url(#p975afe3324)">
     <use xlink:href="#m1c3117f677" x="62.647942" y="320.838621" style="fill: #56b4e9; fill-opacity: 0.35; stroke: #56b4e9; stroke-opacity: 0.35; stroke-linejoin: miter"/>
     <use xlink:href="#m1c3117f677" x="156.954965" y="320.838621" style="fill: #56b4e9; fill-opacity: 0.35; stroke: #56b4e9; stroke-opacity: 0.35; stroke-linejoin: miter"/>
     <use xlink:href="#m1c3117f677" x="204.287846" y="320.838621" style="fill: #56b4e9; fill-opacity: 0.35; stroke: #56b4e9; stroke-opacity: 0.35; stroke-linejoin: miter"/>
     <use xlink:href="#m1c3117f677" x="236.144919" y="320.838621" style="fill: #56b4e9; fill-opacity: 0.35; stroke: #56b4e9; stroke-opacity: 0.35; stroke-linejoin: miter"/>
     <use xlink:href="#m1c3117f677" x="309.534548" y="320.838621" style="fill: #56b4e9; fill-opacity: 0.35; stroke: #56b4e9; stroke-opacity: 0.35; stroke-linejoin: miter"/>
     <use xlink:href="#m1c3117f677" x="380.344395" y="320.838621" style="fill: #56b4e9; fill-opacity: 0.35; stroke: #56b4e9; stroke-opacity: 0.35; stroke-linejoin: miter"/>
     <use xlink:href="#m1c3117f677" x="449.933928" y="320.838621" style="fill: #56b4e9; fill-opacity: 0.35; stroke: #56b4e9; stroke-opacity: 0.35; stroke-linejoin: miter"/>
     <use xlink:href="#m1c3117f677" x="518.929573" y="320.838621" style="fill: #56b4e9; fill-opacity: 0.35; stroke: #56b4e9; stroke-opacity: 0.35; stroke-linejoin: miter"/>
     <use xlink:href="#m1c3117f677" x="587.632211" y="320.838621" style="fill: #56b4e9; fill-opacity: 0.35; stroke: #56b4e9; stroke-opacity: 0.35; stroke-linejoin: miter"/>
    </g>
   </g>
   <g id="text_18">
    <!-- h* = 61 -->
    <g style="fill: #1a1a1a" transform="translate(317.534548 144.661663) scale(0.09 -0.09)">
     <defs>
      <path id="DejaVuSans-2a" d="M 3009 3897 
L 1888 3291 
L 3009 2681 
L 2828 2375 
L 1778 3009 
L 1778 1831 
L 1422 1831 
L 1422 3009 
L 372 2375 
L 191 2681 
L 1313 3291 
L 191 3897 
L 372 4206 
L 1422 3572 
L 1422 4750 
L 1778 4750 
L 1778 3572 
L 2828 4206 
L 3009 3897 
z
" transform="scale(0.015625)"/>
      <path id="DejaVuSans-3d" d="M 678 2906 
L 4684 2906 
L 4684 2381 
L 678 2381 
L 678 2906 
z
M 678 1631 
L 4684 1631 
L 4684 1100 
L 678 1100 
L 678 1631 
z
" transform="scale(0.015625)"/>
     </defs>
     <use xlink:href="#DejaVuSans-68"/>
     <use xlink:href="#DejaVuSans-2a" x="63.378906"/>
     <use xlink:href="#DejaVuSans-20" x="113.378906"/>
     <use xlink:href="#DejaVuSans-3d" x="145.166016"/>
     <use xlink:href="#DejaVuSans-20" x="228.955078"/>
     <use xlink:href="#DejaVuSans-36" x="260.742188"/>
     <use xlink:href="#DejaVuSans-31" x="324.365234"/>
    </g>
    <!-- (pre-registered O(h)-failure regime) -->
    <g style="fill: #1a1a1a" transform="translate(317.534548 154.739695) scale(0.09 -0.09)">
     <defs>
      <path id="DejaVuSans-2d" d="M 313 2009 
L 1997 2009 
L 1997 1497 
L 313 1497 
L 313 2009 
z
" transform="scale(0.015625)"/>
      <path id="DejaVuSans-4f" d="M 2522 4238 
Q 1834 4238 1429 3725 
Q 1025 3213 1025 2328 
Q 1025 1447 1429 934 
Q 1834 422 2522 422 
Q 3209 422 3611 934 
Q 4013 1447 4013 2328 
Q 4013 3213 3611 3725 
Q 3209 4238 2522 4238 
z
M 2522 4750 
Q 3503 4750 4090 4092 
Q 4678 3434 4678 2328 
Q 4678 1225 4090 567 
Q 3503 -91 2522 -91 
Q 1538 -91 948 565 
Q 359 1222 359 2328 
Q 359 3434 948 4092 
Q 1538 4750 2522 4750 
z
" transform="scale(0.015625)"/>
     </defs>
     <use xlink:href="#DejaVuSans-28"/>
     <use xlink:href="#DejaVuSans-70" x="39.013672"/>
     <use xlink:href="#DejaVuSans-72" x="102.490234"/>
     <use xlink:href="#DejaVuSans-65" x="141.353516"/>
     <use xlink:href="#DejaVuSans-2d" x="202.876953"/>
     <use xlink:href="#DejaVuSans-72" x="238.960938"/>
     <use xlink:href="#DejaVuSans-65" x="277.824219"/>
     <use xlink:href="#DejaVuSans-67" x="339.347656"/>
     <use xlink:href="#DejaVuSans-69" x="402.824219"/>
     <use xlink:href="#DejaVuSans-73" x="430.607422"/>
     <use xlink:href="#DejaVuSans-74" x="482.707031"/>
     <use xlink:href="#DejaVuSans-65" x="521.916016"/>
     <use xlink:href="#DejaVuSans-72" x="583.439453"/>
     <use xlink:href="#DejaVuSans-65" x="622.302734"/>
     <use xlink:href="#DejaVuSans-64" x="683.826172"/>
     <use xlink:href="#DejaVuSans-20" x="747.302734"/>
     <use xlink:href="#DejaVuSans-4f" x="779.089844"/>
     <use xlink:href="#DejaVuSans-28" x="857.800781"/>
     <use xlink:href="#DejaVuSans-68" x="896.814453"/>
     <use xlink:href="#DejaVuSans-29" x="960.193359"/>
     <use xlink:href="#DejaVuSans-2d" x="999.207031"/>
     <use xlink:href="#DejaVuSans-66" x="1035.291016"/>
     <use xlink:href="#DejaVuSans-61" x="1070.496094"/>
     <use xlink:href="#DejaVuSans-69" x="1131.775391"/>
     <use xlink:href="#DejaVuSans-6c" x="1159.558594"/>
     <use xlink:href="#DejaVuSans-75" x="1187.341797"/>
     <use xlink:href="#DejaVuSans-72" x="1250.720703"/>
     <use xlink:href="#DejaVuSans-65" x="1289.583984"/>
     <use xlink:href="#DejaVuSans-20" x="1351.107422"/>
     <use xlink:href="#DejaVuSans-72" x="1382.894531"/>
     <use xlink:href="#DejaVuSans-65" x="1421.757812"/>
     <use xlink:href="#DejaVuSans-67" x="1483.28125"/>
     <use xlink:href="#DejaVuSans-69" x="1546.757812"/>
     <use xlink:href="#DejaVuSans-6d" x="1574.541016"/>
     <use xlink:href="#DejaVuSans-65" x="1671.953125"/>
     <use xlink:href="#DejaVuSans-29" x="1733.476562"/>
    </g>
   </g>
   <g id="text_19">
    <!-- P2 bar (below 0.5 at h=29) -->
    <g style="fill: #5a5a5a" transform="translate(80.642706 179.053645) scale(0.085 -0.085)">
     <defs>
      <path id="DejaVuSans-50" d="M 1259 4147 
L 1259 2394 
L 2053 2394 
Q 2494 2394 2734 2622 
Q 2975 2850 2975 3272 
Q 2975 3691 2734 3919 
Q 2494 4147 2053 4147 
L 1259 4147 
z
M 628 4666 
L 2053 4666 
Q 2838 4666 3239 4311 
Q 3641 3956 3641 3272 
Q 3641 2581 3239 2228 
Q 2838 1875 2053 1875 
L 1259 1875 
L 1259 0 
L 628 0 
L 628 4666 
z
" transform="scale(0.015625)"/>
      <path id="DejaVuSans-62" d="M 3116 1747 
Q 3116 2381 2855 2742 
Q 2594 3103 2138 3103 
Q 1681 3103 1420 2742 
Q 1159 2381 1159 1747 
Q 1159 1113 1420 752 
Q 1681 391 2138 391 
Q 2594 391 2855 752 
Q 3116 1113 3116 1747 
z
M 1159 2969 
Q 1341 3281 1617 3432 
Q 1894 3584 2278 3584 
Q 2916 3584 3314 3078 
Q 3713 2572 3713 1747 
Q 3713 922 3314 415 
Q 2916 -91 2278 -91 
Q 1894 -91 1617 61 
Q 1341 213 1159 525 
L 1159 0 
L 581 0 
L 581 4863 
L 1159 4863 
L 1159 2969 
z
" transform="scale(0.015625)"/>
      <path id="DejaVuSans-77" d="M 269 3500 
L 844 3500 
L 1563 769 
L 2278 3500 
L 2956 3500 
L 3675 769 
L 4391 3500 
L 4966 3500 
L 4050 0 
L 3372 0 
L 2619 2869 
L 1863 0 
L 1184 0 
L 269 3500 
z
" transform="scale(0.015625)"/>
     </defs>
     <use xlink:href="#DejaVuSans-50"/>
     <use xlink:href="#DejaVuSans-32" x="60.302734"/>
     <use xlink:href="#DejaVuSans-20" x="123.925781"/>
     <use xlink:href="#DejaVuSans-62" x="155.712891"/>
     <use xlink:href="#DejaVuSans-61" x="219.189453"/>
     <use xlink:href="#DejaVuSans-72" x="280.46875"/>
     <use xlink:href="#DejaVuSans-20" x="321.582031"/>
     <use xlink:href="#DejaVuSans-28" x="353.369141"/>
     <use xlink:href="#DejaVuSans-62" x="392.382812"/>
     <use xlink:href="#DejaVuSans-65" x="455.859375"/>
     <use xlink:href="#DejaVuSans-6c" x="517.382812"/>
     <use xlink:href="#DejaVuSans-6f" x="545.166016"/>
     <use xlink:href="#DejaVuSans-77" x="606.347656"/>
     <use xlink:href="#DejaVuSans-20" x="688.134766"/>
     <use xlink:href="#DejaVuSans-30" x="719.921875"/>
     <use xlink:href="#DejaVuSans-2e" x="783.544922"/>
     <use xlink:href="#DejaVuSans-35" x="815.332031"/>
     <use xlink:href="#DejaVuSans-20" x="878.955078"/>
     <use xlink:href="#DejaVuSans-61" x="910.742188"/>
     <use xlink:href="#DejaVuSans-74" x="972.021484"/>
     <use xlink:href="#DejaVuSans-20" x="1011.230469"/>
     <use xlink:href="#DejaVuSans-68" x="1043.017578"/>
     <use xlink:href="#DejaVuSans-3d" x="1106.396484"/>
     <use xlink:href="#DejaVuSans-32" x="1190.185547"/>
     <use xlink:href="#DejaVuSans-39" x="1253.808594"/>
     <use xlink:href="#DejaVuSans-29" x="1317.431641"/>
    </g>
   </g>
   <g id="text_20">
    <!-- NCR: median 1.0 at h*, 5/5 seeds hold -->
    <g style="fill: #d55e00" transform="translate(353.25804 30.4274) scale(0.095 -0.095)">
     <defs>
      <path id="DejaVuSans-Bold-4e" d="M 588 4666 
L 1931 4666 
L 3628 1466 
L 3628 4666 
L 4769 4666 
L 4769 0 
L 3425 0 
L 1728 3200 
L 1728 0 
L 588 0 
L 588 4666 
z
" transform="scale(0.015625)"/>
      <path id="DejaVuSans-Bold-43" d="M 4288 256 
Q 3956 84 3597 -3 
Q 3238 -91 2847 -91 
Q 1681 -91 1000 561 
Q 319 1213 319 2328 
Q 319 3447 1000 4098 
Q 1681 4750 2847 4750 
Q 3238 4750 3597 4662 
Q 3956 4575 4288 4403 
L 4288 3438 
Q 3953 3666 3628 3772 
Q 3303 3878 2944 3878 
Q 2300 3878 1931 3465 
Q 1563 3053 1563 2328 
Q 1563 1606 1931 1193 
Q 2300 781 2944 781 
Q 3303 781 3628 887 
Q 3953 994 4288 1222 
L 4288 256 
z
" transform="scale(0.015625)"/>
      <path id="DejaVuSans-Bold-52" d="M 2297 2597 
Q 2675 2597 2839 2737 
Q 3003 2878 3003 3200 
Q 3003 3519 2839 3656 
Q 2675 3794 2297 3794 
L 1791 3794 
L 1791 2597 
L 2297 2597 
z
M 1791 1766 
L 1791 0 
L 588 0 
L 588 4666 
L 2425 4666 
Q 3347 4666 3776 4356 
Q 4206 4047 4206 3378 
Q 4206 2916 3982 2619 
Q 3759 2322 3309 2181 
Q 3556 2125 3751 1926 
Q 3947 1728 4147 1325 
L 4800 0 
L 3519 0 
L 2950 1159 
Q 2778 1509 2601 1637 
Q 2425 1766 2131 1766 
L 1791 1766 
z
" transform="scale(0.015625)"/>
      <path id="DejaVuSans-Bold-3a" d="M 716 3500 
L 1844 3500 
L 1844 2291 
L 716 2291 
L 716 3500 
z
M 716 1209 
L 1844 1209 
L 1844 0 
L 716 0 
L 716 1209 
z
" transform="scale(0.015625)"/>
      <path id="DejaVuSans-Bold-20" transform="scale(0.015625)"/>
      <path id="DejaVuSans-Bold-6d" d="M 3781 2919 
Q 3994 3244 4286 3414 
Q 4578 3584 4928 3584 
Q 5531 3584 5847 3212 
Q 6163 2841 6163 2131 
L 6163 0 
L 5038 0 
L 5038 1825 
Q 5041 1866 5042 1909 
Q 5044 1953 5044 2034 
Q 5044 2406 4934 2573 
Q 4825 2741 4581 2741 
Q 4263 2741 4089 2478 
Q 3916 2216 3909 1719 
L 3909 0 
L 2784 0 
L 2784 1825 
Q 2784 2406 2684 2573 
Q 2584 2741 2328 2741 
Q 2006 2741 1831 2477 
Q 1656 2213 1656 1722 
L 1656 0 
L 531 0 
L 531 3500 
L 1656 3500 
L 1656 2988 
Q 1863 3284 2130 3434 
Q 2397 3584 2719 3584 
Q 3081 3584 3359 3409 
Q 3638 3234 3781 2919 
z
" transform="scale(0.015625)"/>
      <path id="DejaVuSans-Bold-65" d="M 4031 1759 
L 4031 1441 
L 1416 1441 
Q 1456 1047 1700 850 
Q 1944 653 2381 653 
Q 2734 653 3104 758 
Q 3475 863 3866 1075 
L 3866 213 
Q 3469 63 3072 -14 
Q 2675 -91 2278 -91 
Q 1328 -91 801 392 
Q 275 875 275 1747 
Q 275 2603 792 3093 
Q 1309 3584 2216 3584 
Q 3041 3584 3536 3087 
Q 4031 2591 4031 1759 
z
M 2881 2131 
Q 2881 2450 2695 2645 
Q 2509 2841 2209 2841 
Q 1884 2841 1681 2658 
Q 1478 2475 1428 2131 
L 2881 2131 
z
" transform="scale(0.015625)"/>
      <path id="DejaVuSans-Bold-64" d="M 2919 2988 
L 2919 4863 
L 4044 4863 
L 4044 0 
L 2919 0 
L 2919 506 
Q 2688 197 2409 53 
Q 2131 -91 1766 -91 
Q 1119 -91 703 423 
Q 288 938 288 1747 
Q 288 2556 703 3070 
Q 1119 3584 1766 3584 
Q 2128 3584 2408 3439 
Q 2688 3294 2919 2988 
z
M 2181 722 
Q 2541 722 2730 984 
Q 2919 1247 2919 1747 
Q 2919 2247 2730 2509 
Q 2541 2772 2181 2772 
Q 1825 2772 1636 2509 
Q 1447 2247 1447 1747 
Q 1447 1247 1636 984 
Q 1825 722 2181 722 
z
" transform="scale(0.015625)"/>
      <path id="DejaVuSans-Bold-69" d="M 538 3500 
L 1656 3500 
L 1656 0 
L 538 0 
L 538 3500 
z
M 538 4863 
L 1656 4863 
L 1656 3950 
L 538 3950 
L 538 4863 
z
" transform="scale(0.015625)"/>
      <path id="DejaVuSans-Bold-61" d="M 2106 1575 
Q 1756 1575 1579 1456 
Q 1403 1338 1403 1106 
Q 1403 894 1545 773 
Q 1688 653 1941 653 
Q 2256 653 2472 879 
Q 2688 1106 2688 1447 
L 2688 1575 
L 2106 1575 
z
M 3816 1997 
L 3816 0 
L 2688 0 
L 2688 519 
Q 2463 200 2181 54 
Q 1900 -91 1497 -91 
Q 953 -91 614 226 
Q 275 544 275 1050 
Q 275 1666 698 1953 
Q 1122 2241 2028 2241 
L 2688 2241 
L 2688 2328 
Q 2688 2594 2478 2717 
Q 2269 2841 1825 2841 
Q 1466 2841 1156 2769 
Q 847 2697 581 2553 
L 581 3406 
Q 941 3494 1303 3539 
Q 1666 3584 2028 3584 
Q 2975 3584 3395 3211 
Q 3816 2838 3816 1997 
z
" transform="scale(0.015625)"/>
      <path id="DejaVuSans-Bold-6e" d="M 4056 2131 
L 4056 0 
L 2931 0 
L 2931 347 
L 2931 1631 
Q 2931 2084 2911 2256 
Q 2891 2428 2841 2509 
Q 2775 2619 2662 2680 
Q 2550 2741 2406 2741 
Q 2056 2741 1856 2470 
Q 1656 2200 1656 1722 
L 1656 0 
L 538 0 
L 538 3500 
L 1656 3500 
L 1656 2988 
Q 1909 3294 2193 3439 
Q 2478 3584 2822 3584 
Q 3428 3584 3742 3212 
Q 4056 2841 4056 2131 
z
" transform="scale(0.015625)"/>
      <path id="DejaVuSans-Bold-31" d="M 750 831 
L 1813 831 
L 1813 3847 
L 722 3622 
L 722 4441 
L 1806 4666 
L 2950 4666 
L 2950 831 
L 4013 831 
L 4013 0 
L 750 0 
L 750 831 
z
" transform="scale(0.015625)"/>
      <path id="DejaVuSans-Bold-2e" d="M 653 1209 
L 1778 1209 
L 1778 0 
L 653 0 
L 653 1209 
z
" transform="scale(0.015625)"/>
      <path id="DejaVuSans-Bold-30" d="M 2944 2338 
Q 2944 3213 2780 3570 
Q 2616 3928 2228 3928 
Q 1841 3928 1675 3570 
Q 1509 3213 1509 2338 
Q 1509 1453 1675 1090 
Q 1841 728 2228 728 
Q 2613 728 2778 1090 
Q 2944 1453 2944 2338 
z
M 4147 2328 
Q 4147 1169 3647 539 
Q 3147 -91 2228 -91 
Q 1306 -91 806 539 
Q 306 1169 306 2328 
Q 306 3491 806 4120 
Q 1306 4750 2228 4750 
Q 3147 4750 3647 4120 
Q 4147 3491 4147 2328 
z
" transform="scale(0.015625)"/>
      <path id="DejaVuSans-Bold-74" d="M 1759 4494 
L 1759 3500 
L 2913 3500 
L 2913 2700 
L 1759 2700 
L 1759 1216 
Q 1759 972 1856 886 
Q 1953 800 2241 800 
L 2816 800 
L 2816 0 
L 1856 0 
Q 1194 0 917 276 
Q 641 553 641 1216 
L 641 2700 
L 84 2700 
L 84 3500 
L 641 3500 
L 641 4494 
L 1759 4494 
z
" transform="scale(0.015625)"/>
      <path id="DejaVuSans-Bold-68" d="M 4056 2131 
L 4056 0 
L 2931 0 
L 2931 347 
L 2931 1625 
Q 2931 2084 2911 2256 
Q 2891 2428 2841 2509 
Q 2775 2619 2662 2680 
Q 2550 2741 2406 2741 
Q 2056 2741 1856 2470 
Q 1656 2200 1656 1722 
L 1656 0 
L 538 0 
L 538 4863 
L 1656 4863 
L 1656 2988 
Q 1909 3294 2193 3439 
Q 2478 3584 2822 3584 
Q 3428 3584 3742 3212 
Q 4056 2841 4056 2131 
z
" transform="scale(0.015625)"/>
      <path id="DejaVuSans-Bold-2a" d="M 3219 3803 
L 2188 3263 
L 3219 2719 
L 2981 2278 
L 1941 2853 
L 1941 1778 
L 1409 1778 
L 1409 2853 
L 366 2278 
L 128 2719 
L 1172 3263 
L 128 3803 
L 366 4244 
L 1409 3675 
L 1409 4750 
L 1941 4750 
L 1941 3675 
L 2981 4244 
L 3219 3803 
z
" transform="scale(0.015625)"/>
      <path id="DejaVuSans-Bold-2c" d="M 653 1209 
L 1778 1209 
L 1778 256 
L 1006 -909 
L 341 -909 
L 653 256 
L 653 1209 
z
" transform="scale(0.015625)"/>
      <path id="DejaVuSans-Bold-35" d="M 678 4666 
L 3669 4666 
L 3669 3781 
L 1638 3781 
L 1638 3059 
Q 1775 3097 1914 3117 
Q 2053 3138 2203 3138 
Q 3056 3138 3531 2711 
Q 4006 2284 4006 1522 
Q 4006 766 3489 337 
Q 2972 -91 2053 -91 
Q 1656 -91 1267 -14 
Q 878 63 494 219 
L 494 1166 
Q 875 947 1217 837 
Q 1559 728 1863 728 
Q 2300 728 2551 942 
Q 2803 1156 2803 1522 
Q 2803 1891 2551 2103 
Q 2300 2316 1863 2316 
Q 1603 2316 1309 2248 
Q 1016 2181 678 2041 
L 678 4666 
z
" transform="scale(0.015625)"/>
      <path id="DejaVuSans-Bold-2f" d="M 1644 4666 
L 2338 4666 
L 691 -594 
L 0 -594 
L 1644 4666 
z
" transform="scale(0.015625)"/>
      <path id="DejaVuSans-Bold-73" d="M 3272 3391 
L 3272 2541 
Q 2913 2691 2578 2766 
Q 2244 2841 1947 2841 
Q 1628 2841 1473 2761 
Q 1319 2681 1319 2516 
Q 1319 2381 1436 2309 
Q 1553 2238 1856 2203 
L 2053 2175 
Q 2913 2066 3209 1816 
Q 3506 1566 3506 1031 
Q 3506 472 3093 190 
Q 2681 -91 1863 -91 
Q 1516 -91 1145 -36 
Q 775 19 384 128 
L 384 978 
Q 719 816 1070 734 
Q 1422 653 1784 653 
Q 2113 653 2278 743 
Q 2444 834 2444 1013 
Q 2444 1163 2330 1236 
Q 2216 1309 1875 1350 
L 1678 1375 
Q 931 1469 631 1722 
Q 331 1975 331 2491 
Q 331 3047 712 3315 
Q 1094 3584 1881 3584 
Q 2191 3584 2531 3537 
Q 2872 3491 3272 3391 
z
" transform="scale(0.015625)"/>
      <path id="DejaVuSans-Bold-6f" d="M 2203 2784 
Q 1831 2784 1636 2517 
Q 1441 2250 1441 1747 
Q 1441 1244 1636 976 
Q 1831 709 2203 709 
Q 2569 709 2762 976 
Q 2956 1244 2956 1747 
Q 2956 2250 2762 2517 
Q 2569 2784 2203 2784 
z
M 2203 3584 
Q 3106 3584 3614 3096 
Q 4122 2609 4122 1747 
Q 4122 884 3614 396 
Q 3106 -91 2203 -91 
Q 1297 -91 786 396 
Q 275 884 275 1747 
Q 275 2609 786 3096 
Q 1297 3584 2203 3584 
z
" transform="scale(0.015625)"/>
      <path id="DejaVuSans-Bold-6c" d="M 538 4863 
L 1656 4863 
L 1656 0 
L 538 0 
L 538 4863 
z
" transform="scale(0.015625)"/>
     </defs>
     <use xlink:href="#DejaVuSans-Bold-4e"/>
     <use xlink:href="#DejaVuSans-Bold-43" x="83.691406"/>
     <use xlink:href="#DejaVuSans-Bold-52" x="157.080078"/>
     <use xlink:href="#DejaVuSans-Bold-3a" x="234.082031"/>
     <use xlink:href="#DejaVuSans-Bold-20" x="274.072266"/>
     <use xlink:href="#DejaVuSans-Bold-6d" x="308.886719"/>
     <use xlink:href="#DejaVuSans-Bold-65" x="413.085938"/>
     <use xlink:href="#DejaVuSans-Bold-64" x="480.908203"/>
     <use xlink:href="#DejaVuSans-Bold-69" x="552.490234"/>
     <use xlink:href="#DejaVuSans-Bold-61" x="586.767578"/>
     <use xlink:href="#DejaVuSans-Bold-6e" x="654.248047"/>
     <use xlink:href="#DejaVuSans-Bold-20" x="725.439453"/>
     <use xlink:href="#DejaVuSans-Bold-31" x="760.253906"/>
     <use xlink:href="#DejaVuSans-Bold-2e" x="829.833984"/>
     <use xlink:href="#DejaVuSans-Bold-30" x="867.822266"/>
     <use xlink:href="#DejaVuSans-Bold-20" x="937.402344"/>
     <use xlink:href="#DejaVuSans-Bold-61" x="972.216797"/>
     <use xlink:href="#DejaVuSans-Bold-74" x="1039.697266"/>
     <use xlink:href="#DejaVuSans-Bold-20" x="1087.5"/>
     <use xlink:href="#DejaVuSans-Bold-68" x="1122.314453"/>
     <use xlink:href="#DejaVuSans-Bold-2a" x="1193.505859"/>
     <use xlink:href="#DejaVuSans-Bold-2c" x="1245.800781"/>
     <use xlink:href="#DejaVuSans-Bold-20" x="1283.789062"/>
     <use xlink:href="#DejaVuSans-Bold-35" x="1318.603516"/>
     <use xlink:href="#DejaVuSans-Bold-2f" x="1388.183594"/>
     <use xlink:href="#DejaVuSans-Bold-35" x="1424.707031"/>
     <use xlink:href="#DejaVuSans-Bold-20" x="1494.287109"/>
     <use xlink:href="#DejaVuSans-Bold-73" x="1529.101562"/>
     <use xlink:href="#DejaVuSans-Bold-65" x="1588.623047"/>
     <use xlink:href="#DejaVuSans-Bold-65" x="1656.445312"/>
     <use xlink:href="#DejaVuSans-Bold-64" x="1724.267578"/>
     <use xlink:href="#DejaVuSans-Bold-73" x="1795.849609"/>
     <use xlink:href="#DejaVuSans-Bold-20" x="1855.371094"/>
     <use xlink:href="#DejaVuSans-Bold-68" x="1890.185547"/>
     <use xlink:href="#DejaVuSans-Bold-6f" x="1961.376953"/>
     <use xlink:href="#DejaVuSans-Bold-6c" x="2030.078125"/>
     <use xlink:href="#DejaVuSans-Bold-64" x="2064.355469"/>
    </g>
   </g>
   <g id="text_21">
    <!-- fwm: 0.158 at h* -->
    <g style="fill: #0072b2" transform="translate(317.534548 289.431766) scale(0.09 -0.09)">
     <defs>
      <path id="DejaVuSans-3a" d="M 750 794 
L 1409 794 
L 1409 0 
L 750 0 
L 750 794 
z
M 750 3309 
L 1409 3309 
L 1409 2516 
L 750 2516 
L 750 3309 
z
" transform="scale(0.015625)"/>
     </defs>
     <use xlink:href="#DejaVuSans-66"/>
     <use xlink:href="#DejaVuSans-77" x="33.455078"/>
     <use xlink:href="#DejaVuSans-6d" x="115.242188"/>
     <use xlink:href="#DejaVuSans-3a" x="212.654297"/>
     <use xlink:href="#DejaVuSans-20" x="246.345703"/>
     <use xlink:href="#DejaVuSans-30" x="278.132812"/>
     <use xlink:href="#DejaVuSans-2e" x="341.755859"/>
     <use xlink:href="#DejaVuSans-31" x="373.542969"/>
     <use xlink:href="#DejaVuSans-35" x="437.166016"/>
     <use xlink:href="#DejaVuSans-38" x="500.789062"/>
     <use xlink:href="#DejaVuSans-20" x="564.412109"/>
     <use xlink:href="#DejaVuSans-61" x="596.199219"/>
     <use xlink:href="#DejaVuSans-74" x="657.478516"/>
     <use xlink:href="#DejaVuSans-20" x="696.6875"/>
     <use xlink:href="#DejaVuSans-68" x="728.474609"/>
     <use xlink:href="#DejaVuSans-2a" x="791.853516"/>
    </g>
   </g>
   <g id="text_22">
    <!-- loopedvec: 0.0 -->
    <g style="fill: #56b4e9" transform="translate(466.751366 292.086802) scale(0.09 -0.09)">
     <use xlink:href="#DejaVuSans-6c"/>
     <use xlink:href="#DejaVuSans-6f" x="27.783203"/>
     <use xlink:href="#DejaVuSans-6f" x="88.964844"/>
     <use xlink:href="#DejaVuSans-70" x="150.146484"/>
     <use xlink:href="#DejaVuSans-65" x="213.623047"/>
     <use xlink:href="#DejaVuSans-64" x="275.146484"/>
     <use xlink:href="#DejaVuSans-76" x="338.623047"/>
     <use xlink:href="#DejaVuSans-65" x="397.802734"/>
     <use xlink:href="#DejaVuSans-63" x="459.326172"/>
     <use xlink:href="#DejaVuSans-3a" x="514.306641"/>
     <use xlink:href="#DejaVuSans-20" x="547.998047"/>
     <use xlink:href="#DejaVuSans-30" x="579.785156"/>
     <use xlink:href="#DejaVuSans-2e" x="643.408203"/>
     <use xlink:href="#DejaVuSans-30" x="675.195312"/>
    </g>
    <!-- everywhere on the ladder -->
    <g style="fill: #56b4e9" transform="translate(466.751366 302.164833) scale(0.09 -0.09)">
     <use xlink:href="#DejaVuSans-65"/>
     <use xlink:href="#DejaVuSans-76" x="61.523438"/>
     <use xlink:href="#DejaVuSans-65" x="120.703125"/>
     <use xlink:href="#DejaVuSans-72" x="182.226562"/>
     <use xlink:href="#DejaVuSans-79" x="223.339844"/>
     <use xlink:href="#DejaVuSans-77" x="282.519531"/>
     <use xlink:href="#DejaVuSans-68" x="364.306641"/>
     <use xlink:href="#DejaVuSans-65" x="427.685547"/>
     <use xlink:href="#DejaVuSans-72" x="489.208984"/>
     <use xlink:href="#DejaVuSans-65" x="528.072266"/>
     <use xlink:href="#DejaVuSans-20" x="589.595703"/>
     <use xlink:href="#DejaVuSans-6f" x="621.382812"/>
     <use xlink:href="#DejaVuSans-6e" x="682.564453"/>
     <use xlink:href="#DejaVuSans-20" x="745.943359"/>
     <use xlink:href="#DejaVuSans-74" x="777.730469"/>
     <use xlink:href="#DejaVuSans-68" x="816.939453"/>
     <use xlink:href="#DejaVuSans-65" x="880.318359"/>
     <use xlink:href="#DejaVuSans-20" x="941.841797"/>
     <use xlink:href="#DejaVuSans-6c" x="973.628906"/>
     <use xlink:href="#DejaVuSans-61" x="1001.412109"/>
     <use xlink:href="#DejaVuSans-64" x="1062.691406"/>
     <use xlink:href="#DejaVuSans-64" x="1126.167969"/>
     <use xlink:href="#DejaVuSans-65" x="1189.644531"/>
     <use xlink:href="#DejaVuSans-72" x="1251.167969"/>
    </g>
   </g>
   <g id="line2d_40">
    <path d="M 62.647942 40.804138 
L 156.954965 40.804138 
L 204.287846 40.804138 
L 236.144919 40.804138 
L 309.534548 40.804138 
L 380.344395 40.975057 
L 449.933928 176.377473 
L 518.929573 318.855955 
L 587.632211 320.838621 
" clip-path="url(#p975afe3324)" style="fill: none; stroke: #d55e00; stroke-width: 2.2; stroke-linecap: square"/>
    <defs>
     <path id="m9267153255" d="M 0 3.5 
C 0.928211 3.5 1.81853 3.131218 2.474874 2.474874 
C 3.131218 1.81853 3.5 0.928211 3.5 0 
C 3.5 -0.928211 3.131218 -1.81853 2.474874 -2.474874 
C 1.81853 -3.131218 0.928211 -3.5 0 -3.5 
C -0.928211 -3.5 -1.81853 -3.131218 -2.474874 -2.474874 
C -3.131218 -1.81853 -3.5 -0.928211 -3.5 0 
C -3.5 0.928211 -3.131218 1.81853 -2.474874 2.474874 
C -1.81853 3.131218 -0.928211 3.5 0 3.5 
z
" style="stroke: #1a1a1a; stroke-width: 0.6"/>
    </defs>
    <g clip-path="url(#p975afe3324)">
     <use xlink:href="#m9267153255" x="62.647942" y="40.804138" style="fill: #d55e00; stroke: #1a1a1a; stroke-width: 0.6"/>
     <use xlink:href="#m9267153255" x="156.954965" y="40.804138" style="fill: #d55e00; stroke: #1a1a1a; stroke-width: 0.6"/>
     <use xlink:href="#m9267153255" x="204.287846" y="40.804138" style="fill: #d55e00; stroke: #1a1a1a; stroke-width: 0.6"/>
     <use xlink:href="#m9267153255" x="236.144919" y="40.804138" style="fill: #d55e00; stroke: #1a1a1a; stroke-width: 0.6"/>
     <use xlink:href="#m9267153255" x="309.534548" y="40.804138" style="fill: #d55e00; stroke: #1a1a1a; stroke-width: 0.6"/>
     <use xlink:href="#m9267153255" x="380.344395" y="40.975057" style="fill: #d55e00; stroke: #1a1a1a; stroke-width: 0.6"/>
     <use xlink:href="#m9267153255" x="449.933928" y="176.377473" style="fill: #d55e00; stroke: #1a1a1a; stroke-width: 0.6"/>
     <use xlink:href="#m9267153255" x="518.929573" y="318.855955" style="fill: #d55e00; stroke: #1a1a1a; stroke-width: 0.6"/>
     <use xlink:href="#m9267153255" x="587.632211" y="320.838621" style="fill: #d55e00; stroke: #1a1a1a; stroke-width: 0.6"/>
    </g>
   </g>
   <g id="line2d_41">
    <path d="M 62.647942 62.237441 
L 156.954965 111.274241 
L 204.287846 149.816585 
L 236.144919 184.034666 
L 309.534548 276.519198 
L 380.344395 317.010024 
L 449.933928 320.650609 
L 518.929573 320.838621 
L 587.632211 320.838621 
" clip-path="url(#p975afe3324)" style="fill: none; stroke: #0072b2; stroke-width: 2.2; stroke-linecap: square"/>
    <defs>
     <path id="me43f72ed5a" d="M -3.5 3.5 
L 3.5 3.5 
L 3.5 -3.5 
L -3.5 -3.5 
z
" style="stroke: #1a1a1a; stroke-width: 0.6; stroke-linejoin: miter"/>
    </defs>
    <g clip-path="url(#p975afe3324)">
     <use xlink:href="#me43f72ed5a" x="62.647942" y="62.237441" style="fill: #0072b2; stroke: #1a1a1a; stroke-width: 0.6; stroke-linejoin: miter"/>
     <use xlink:href="#me43f72ed5a" x="156.954965" y="111.274241" style="fill: #0072b2; stroke: #1a1a1a; stroke-width: 0.6; stroke-linejoin: miter"/>
     <use xlink:href="#me43f72ed5a" x="204.287846" y="149.816585" style="fill: #0072b2; stroke: #1a1a1a; stroke-width: 0.6; stroke-linejoin: miter"/>
     <use xlink:href="#me43f72ed5a" x="236.144919" y="184.034666" style="fill: #0072b2; stroke: #1a1a1a; stroke-width: 0.6; stroke-linejoin: miter"/>
     <use xlink:href="#me43f72ed5a" x="309.534548" y="276.519198" style="fill: #0072b2; stroke: #1a1a1a; stroke-width: 0.6; stroke-linejoin: miter"/>
     <use xlink:href="#me43f72ed5a" x="380.344395" y="317.010024" style="fill: #0072b2; stroke: #1a1a1a; stroke-width: 0.6; stroke-linejoin: miter"/>
     <use xlink:href="#me43f72ed5a" x="449.933928" y="320.650609" style="fill: #0072b2; stroke: #1a1a1a; stroke-width: 0.6; stroke-linejoin: miter"/>
     <use xlink:href="#me43f72ed5a" x="518.929573" y="320.838621" style="fill: #0072b2; stroke: #1a1a1a; stroke-width: 0.6; stroke-linejoin: miter"/>
     <use xlink:href="#me43f72ed5a" x="587.632211" y="320.838621" style="fill: #0072b2; stroke: #1a1a1a; stroke-width: 0.6; stroke-linejoin: miter"/>
    </g>
   </g>
   <g id="line2d_42">
    <path d="M 62.647942 320.838621 
L 156.954965 320.838621 
L 204.287846 320.838621 
L 236.144919 320.838621 
L 309.534548 320.838621 
L 380.344395 320.838621 
L 449.933928 320.838621 
L 518.929573 320.838621 
L 587.632211 320.838621 
" clip-path="url(#p975afe3324)" style="fill: none; stroke: #56b4e9; stroke-width: 2.2; stroke-linecap: square"/>
    <defs>
     <path id="md6ad773ce7" d="M 0 -3.5 
L -3.5 3.5 
L 3.5 3.5 
z
" style="stroke: #1a1a1a; stroke-width: 0.6; stroke-linejoin: miter"/>
    </defs>
    <g clip-path="url(#p975afe3324)">
     <use xlink:href="#md6ad773ce7" x="62.647942" y="320.838621" style="fill: #56b4e9; stroke: #1a1a1a; stroke-width: 0.6; stroke-linejoin: miter"/>
     <use xlink:href="#md6ad773ce7" x="156.954965" y="320.838621" style="fill: #56b4e9; stroke: #1a1a1a; stroke-width: 0.6; stroke-linejoin: miter"/>
     <use xlink:href="#md6ad773ce7" x="204.287846" y="320.838621" style="fill: #56b4e9; stroke: #1a1a1a; stroke-width: 0.6; stroke-linejoin: miter"/>
     <use xlink:href="#md6ad773ce7" x="236.144919" y="320.838621" style="fill: #56b4e9; stroke: #1a1a1a; stroke-width: 0.6; stroke-linejoin: miter"/>
     <use xlink:href="#md6ad773ce7" x="309.534548" y="320.838621" style="fill: #56b4e9; stroke: #1a1a1a; stroke-width: 0.6; stroke-linejoin: miter"/>
     <use xlink:href="#md6ad773ce7" x="380.344395" y="320.838621" style="fill: #56b4e9; stroke: #1a1a1a; stroke-width: 0.6; stroke-linejoin: miter"/>
     <use xlink:href="#md6ad773ce7" x="449.933928" y="320.838621" style="fill: #56b4e9; stroke: #1a1a1a; stroke-width: 0.6; stroke-linejoin: miter"/>
     <use xlink:href="#md6ad773ce7" x="518.929573" y="320.838621" style="fill: #56b4e9; stroke: #1a1a1a; stroke-width: 0.6; stroke-linejoin: miter"/>
     <use xlink:href="#md6ad773ce7" x="587.632211" y="320.838621" style="fill: #56b4e9; stroke: #1a1a1a; stroke-width: 0.6; stroke-linejoin: miter"/>
    </g>
   </g>
   <g id="legend_1">
    <g id="line2d_43">
     <path d="M 55.862031 298.994456 
L 64.862031 298.994456 
L 73.862031 298.994456 
" style="fill: none; stroke: #d55e00; stroke-width: 2.2; stroke-linecap: square"/>
     <g>
      <use xlink:href="#m9267153255" x="64.862031" y="298.994456" style="fill: #d55e00; stroke: #1a1a1a; stroke-width: 0.6"/>
     </g>
    </g>
    <g id="text_23">
     <!-- NCR (O(log h) repeated-squaring read) -->
     <g style="fill: #1a1a1a" transform="translate(81.062031 302.144456) scale(0.09 -0.09)">
      <defs>
       <path id="DejaVuSans-4e" d="M 628 4666 
L 1478 4666 
L 3547 763 
L 3547 4666 
L 4159 4666 
L 4159 0 
L 3309 0 
L 1241 3903 
L 1241 0 
L 628 0 
L 628 4666 
z
" transform="scale(0.015625)"/>
       <path id="DejaVuSans-43" d="M 4122 4306 
L 4122 3641 
Q 3803 3938 3442 4084 
Q 3081 4231 2675 4231 
Q 1875 4231 1450 3742 
Q 1025 3253 1025 2328 
Q 1025 1406 1450 917 
Q 1875 428 2675 428 
Q 3081 428 3442 575 
Q 3803 722 4122 1019 
L 4122 359 
Q 3791 134 3420 21 
Q 3050 -91 2638 -91 
Q 1578 -91 968 557 
Q 359 1206 359 2328 
Q 359 3453 968 4101 
Q 1578 4750 2638 4750 
Q 3056 4750 3426 4639 
Q 3797 4528 4122 4306 
z
" transform="scale(0.015625)"/>
       <path id="DejaVuSans-52" d="M 2841 2188 
Q 3044 2119 3236 1894 
Q 3428 1669 3622 1275 
L 4263 0 
L 3584 0 
L 2988 1197 
Q 2756 1666 2539 1819 
Q 2322 1972 1947 1972 
L 1259 1972 
L 1259 0 
L 628 0 
L 628 4666 
L 2053 4666 
Q 2853 4666 3247 4331 
Q 3641 3997 3641 3322 
Q 3641 2881 3436 2590 
Q 3231 2300 2841 2188 
z
M 1259 4147 
L 1259 2491 
L 2053 2491 
Q 2509 2491 2742 2702 
Q 2975 2913 2975 3322 
Q 2975 3731 2742 3939 
Q 2509 4147 2053 4147 
L 1259 4147 
z
" transform="scale(0.015625)"/>
      </defs>
      <use xlink:href="#DejaVuSans-4e"/>
      <use xlink:href="#DejaVuSans-43" x="74.804688"/>
      <use xlink:href="#DejaVuSans-52" x="144.628906"/>
      <use xlink:href="#DejaVuSans-20" x="214.111328"/>
      <use xlink:href="#DejaVuSans-28" x="245.898438"/>
      <use xlink:href="#DejaVuSans-4f" x="284.912109"/>
      <use xlink:href="#DejaVuSans-28" x="363.623047"/>
      <use xlink:href="#DejaVuSans-6c" x="402.636719"/>
      <use xlink:href="#DejaVuSans-6f" x="430.419922"/>
      <use xlink:href="#DejaVuSans-67" x="491.601562"/>
      <use xlink:href="#DejaVuSans-20" x="555.078125"/>
      <use xlink:href="#DejaVuSans-68" x="586.865234"/>
      <use xlink:href="#DejaVuSans-29" x="650.244141"/>
      <use xlink:href="#DejaVuSans-20" x="689.257812"/>
      <use xlink:href="#DejaVuSans-72" x="721.044922"/>
      <use xlink:href="#DejaVuSans-65" x="759.908203"/>
      <use xlink:href="#DejaVuSans-70" x="821.431641"/>
      <use xlink:href="#DejaVuSans-65" x="884.908203"/>
      <use xlink:href="#DejaVuSans-61" x="946.431641"/>
      <use xlink:href="#DejaVuSans-74" x="1007.710938"/>
      <use xlink:href="#DejaVuSans-65" x="1046.919922"/>
      <use xlink:href="#DejaVuSans-64" x="1108.443359"/>
      <use xlink:href="#DejaVuSans-2d" x="1171.919922"/>
      <use xlink:href="#DejaVuSans-73" x="1208.003906"/>
      <use xlink:href="#DejaVuSans-71" x="1260.103516"/>
      <use xlink:href="#DejaVuSans-75" x="1323.580078"/>
      <use xlink:href="#DejaVuSans-61" x="1386.958984"/>
      <use xlink:href="#DejaVuSans-72" x="1448.238281"/>
      <use xlink:href="#DejaVuSans-69" x="1489.351562"/>
      <use xlink:href="#DejaVuSans-6e" x="1517.134766"/>
      <use xlink:href="#DejaVuSans-67" x="1580.513672"/>
      <use xlink:href="#DejaVuSans-20" x="1643.990234"/>
      <use xlink:href="#DejaVuSans-72" x="1675.777344"/>
      <use xlink:href="#DejaVuSans-65" x="1714.640625"/>
      <use xlink:href="#DejaVuSans-61" x="1776.164062"/>
      <use xlink:href="#DejaVuSans-64" x="1837.443359"/>
      <use xlink:href="#DejaVuSans-29" x="1900.919922"/>
     </g>
    </g>
    <g id="line2d_44">
     <path d="M 55.862031 312.204769 
L 64.862031 312.204769 
L 73.862031 312.204769 
" style="fill: none; stroke: #0072b2; stroke-width: 2.2; stroke-linecap: square"/>
     <g>
      <use xlink:href="#me43f72ed5a" x="64.862031" y="312.204769" style="fill: #0072b2; stroke: #1a1a1a; stroke-width: 0.6; stroke-linejoin: miter"/>
     </g>
    </g>
    <g id="text_24">
     <!-- fast-weight memory baseline -->
     <g style="fill: #1a1a1a" transform="translate(81.062031 315.354769) scale(0.09 -0.09)">
      <use xlink:href="#DejaVuSans-66"/>
      <use xlink:href="#DejaVuSans-61" x="35.205078"/>
      <use xlink:href="#DejaVuSans-73" x="96.484375"/>
      <use xlink:href="#DejaVuSans-74" x="148.583984"/>
      <use xlink:href="#DejaVuSans-2d" x="187.792969"/>
      <use xlink:href="#DejaVuSans-77" x="223.876953"/>
      <use xlink:href="#DejaVuSans-65" x="305.664062"/>
      <use xlink:href="#DejaVuSans-69" x="367.1875"/>
      <use xlink:href="#DejaVuSans-67" x="394.970703"/>
      <use xlink:href="#DejaVuSans-68" x="458.447266"/>
      <use xlink:href="#DejaVuSans-74" x="521.826172"/>
      <use xlink:href="#DejaVuSans-20" x="561.035156"/>
      <use xlink:href="#DejaVuSans-6d" x="592.822266"/>
      <use xlink:href="#DejaVuSans-65" x="690.234375"/>
      <use xlink:href="#DejaVuSans-6d" x="751.757812"/>
      <use xlink:href="#DejaVuSans-6f" x="849.169922"/>
      <use xlink:href="#DejaVuSans-72" x="910.351562"/>
      <use xlink:href="#DejaVuSans-79" x="951.464844"/>
      <use xlink:href="#DejaVuSans-20" x="1010.644531"/>
      <use xlink:href="#DejaVuSans-62" x="1042.431641"/>
      <use xlink:href="#DejaVuSans-61" x="1105.908203"/>
      <use xlink:href="#DejaVuSans-73" x="1167.1875"/>
      <use xlink:href="#DejaVuSans-65" x="1219.287109"/>
      <use xlink:href="#DejaVuSans-6c" x="1280.810547"/>
      <use xlink:href="#DejaVuSans-69" x="1308.59375"/>
      <use xlink:href="#DejaVuSans-6e" x="1336.376953"/>
      <use xlink:href="#DejaVuSans-65" x="1399.755859"/>
     </g>
    </g>
    <g id="line2d_45">
     <path d="M 55.862031 325.415081 
L 64.862031 325.415081 
L 73.862031 325.415081 
" style="fill: none; stroke: #56b4e9; stroke-width: 2.2; stroke-linecap: square"/>
     <g>
      <use xlink:href="#md6ad773ce7" x="64.862031" y="325.415081" style="fill: #56b4e9; stroke: #1a1a1a; stroke-width: 0.6; stroke-linejoin: miter"/>
     </g>
    </g>
    <g id="text_25">
     <!-- LoopedVec baseline -->
     <g style="fill: #1a1a1a" transform="translate(81.062031 328.565081) scale(0.09 -0.09)">
      <defs>
       <path id="DejaVuSans-4c" d="M 628 4666 
L 1259 4666 
L 1259 531 
L 3531 531 
L 3531 0 
L 628 0 
L 628 4666 
z
" transform="scale(0.015625)"/>
       <path id="DejaVuSans-56" d="M 1831 0 
L 50 4666 
L 709 4666 
L 2188 738 
L 3669 4666 
L 4325 4666 
L 2547 0 
L 1831 0 
z
" transform="scale(0.015625)"/>
      </defs>
      <use xlink:href="#DejaVuSans-4c"/>
      <use xlink:href="#DejaVuSans-6f" x="53.962891"/>
      <use xlink:href="#DejaVuSans-6f" x="115.144531"/>
      <use xlink:href="#DejaVuSans-70" x="176.326172"/>
      <use xlink:href="#DejaVuSans-65" x="239.802734"/>
      <use xlink:href="#DejaVuSans-64" x="301.326172"/>
      <use xlink:href="#DejaVuSans-56" x="364.802734"/>
      <use xlink:href="#DejaVuSans-65" x="425.460938"/>
      <use xlink:href="#DejaVuSans-63" x="486.984375"/>
      <use xlink:href="#DejaVuSans-20" x="541.964844"/>
      <use xlink:href="#DejaVuSans-62" x="573.751953"/>
      <use xlink:href="#DejaVuSans-61" x="637.228516"/>
      <use xlink:href="#DejaVuSans-73" x="698.507812"/>
      <use xlink:href="#DejaVuSans-65" x="750.607422"/>
      <use xlink:href="#DejaVuSans-6c" x="812.130859"/>
      <use xlink:href="#DejaVuSans-69" x="839.914062"/>
      <use xlink:href="#DejaVuSans-6e" x="867.697266"/>
      <use xlink:href="#DejaVuSans-65" x="931.076172"/>
     </g>
    </g>
   </g>
  </g>
 </g>
 <defs>
  <clipPath id="p975afe3324">
   <rect x="47.762031" y="7.2" width="555.81375" height="324.84"/>
  </clipPath>
 </defs>
</svg>
