<?xml version="1.0" encoding="utf-8" standalone="no"?>
<!DOCTYPE svg PUBLIC "-//W3C//DTD SVG 1.1//EN"
  "http://www.w3.org/Graphics/SVG/1.1/DTD/svg11.dtd">
<svg xmlns:xlink="http://www.w3.org/1999/xlink" width="567.599042pt" height="351.99625pt" viewBox="0 0 567.599042 351.99625" xmlns="http://www.w3.org/2000/svg" version="1.1">
 <metadata>
  <rdf:RDF xmlns:dc="http://purl.org/dc/elements/1.1/" xmlns:cc="http://creativecommons.org/ns#" xmlns:rdf="http://www.w3.org/1999/02/22-rdf-syntax-ns#">
   <cc:Work>
    <dc:type rdf:resource="http://purl.org/dc/dcmitype/StillImage"/>
    <dc:date>2026-07-11T21:21:20.415156</dc:date>
    <dc:format>image/svg+xml</dc:format>
    <dc:creator>
     <cc:Agent>
      <dc:title>Matplotlib v3.9.4, https://matplotlib.org/</dc:title>
     </cc:Agent>
    </dc:creator>
   </cc:Work>
  </rdf:RDF>
 </metadata>
 <defs>
  <style type="text/css">*{stroke-linejoin: round; stroke-linecap: butt}</style>
 </defs>
 <g id="figure_1">
  <g id="patch_1">
   <path d="M 0 351.99625 
L 567.599042 351.99625 
L 567.599042 0 
L 0 0 
z
" style="fill: #faf5e7"/>
  </g>
  <g id="axes_1">
   <g id="patch_2">
    <path d="M 54.687031 310.44 
L 551.60412 310.44 
L 551.60412 7.2 
L 54.687031 7.2 
z
" style="fill: #faf5e7"/>
   </g>
   <g id="patch_3">
    <path d="M 104.37874 310.44 
L 107.484472 310.44 
L 107.484472 7.2 
L 104.37874 7.2 
z
" clip-path="url(#pd5e8a27f39)" style="fill: #d55e00; opacity: 0.1; stroke: #d55e00; stroke-linejoin: miter"/>
   </g>
   <g id="matplotlib.axis_1">
    <g id="xtick_1">
     <g id="line2d_1">
      <path d="M 54.687031 310.44 
L 54.687031 7.2 
" clip-path="url(#pd5e8a27f39)" style="fill: none; stroke: #1a1a1a; stroke-opacity: 0.22; stroke-width: 0.5; stroke-linecap: square"/>
     </g>
     <g id="line2d_2">
      <defs>
       <path id="m7027b681a1" d="M 0 0 
L 0 3.5 
" style="stroke: #1a1a1a; stroke-width: 0.8"/>
      </defs>
      <g>
       <use xlink:href="#m7027b681a1" x="54.687031" y="310.44" style="fill: #1a1a1a; stroke: #1a1a1a; stroke-width: 0.8"/>
      </g>
     </g>
     <g id="text_1">
      <!-- 0 -->
      <g style="fill: #1a1a1a" transform="translate(51.664844 324.658516) scale(0.095 -0.095)">
       <defs>
        <path id="DejaVuSans-30" d="M 2034 4250 
Q 1547 4250 1301 3770 
Q 1056 3291 1056 2328 
Q 1056 1369 1301 889 
Q 1547 409 2034 409 
Q 2525 409 2770 889 
Q 3016 1369 3016 2328 
Q 3016 3291 2770 3770 
Q 2525 4250 2034 4250 
z
M 2034 4750 
Q 2819 4750 3233 4129 
Q 3647 3509 3647 2328 
Q 3647 1150 3233 529 
Q 2819 -91 2034 -91 
Q 1250 -91 836 529 
Q 422 1150 422 2328 
Q 422 3509 836 4129 
Q 1250 4750 2034 4750 
z
" transform="scale(0.015625)"/>
       </defs>
       <use xlink:href="#DejaVuSans-30"/>
      </g>
     </g>
    </g>
    <g id="xtick_2">
     <g id="line2d_3">
      <path d="M 116.801667 310.44 
L 116.801667 7.2 
" clip-path="url(#pd5e8a27f39)" style="fill: none; stroke: #1a1a1a; stroke-opacity: 0.22; stroke-width: 0.5; stroke-linecap: square"/>
     </g>
     <g id="line2d_4">
      <g>
       <use xlink:href="#m7027b681a1" x="116.801667" y="310.44" style="fill: #1a1a1a; stroke: #1a1a1a; stroke-width: 0.8"/>
      </g>
     </g>
     <g id="text_2">
      <!-- 10k -->
      <g style="fill: #1a1a1a" transform="translate(108.006746 324.658516) scale(0.095 -0.095)">
       <defs>
        <path id="DejaVuSans-31" d="M 794 531 
L 1825 531 
L 1825 4091 
L 703 3866 
L 703 4441 
L 1819 4666 
L 2450 4666 
L 2450 531 
L 3481 531 
L 3481 0 
L 794 0 
L 794 531 
z
" transform="scale(0.015625)"/>
        <path id="DejaVuSans-6b" d="M 581 4863 
L 1159 4863 
L 1159 1991 
L 2875 3500 
L 3609 3500 
L 1753 1863 
L 3688 0 
L 2938 0 
L 1159 1709 
L 1159 0 
L 581 0 
L 581 4863 
z
" transform="scale(0.015625)"/>
       </defs>
       <use xlink:href="#DejaVuSans-31"/>
       <use xlink:href="#DejaVuSans-30" x="63.623047"/>
       <use xlink:href="#DejaVuSans-6b" x="127.246094"/>
      </g>
     </g>
    </g>
    <g id="xtick_3">
     <g id="line2d_5">
      <path d="M 178.916304 310.44 
L 178.916304 7.2 
" clip-path="url(#pd5e8a27f39)" style="fill: none; stroke: #1a1a1a; stroke-opacity: 0.22; stroke-width: 0.5; stroke-linecap: square"/>
     </g>
     <g id="line2d_6">
      <g>
       <use xlink:href="#m7027b681a1" x="178.916304" y="310.44" style="fill: #1a1a1a; stroke: #1a1a1a; stroke-width: 0.8"/>
      </g>
     </g>
     <g id="text_3">
      <!-- 20k -->
      <g style="fill: #1a1a1a" transform="translate(170.121382 324.658516) scale(0.095 -0.095)">
       <defs>
        <path id="DejaVuSans-32" d="M 1228 531 
L 3431 531 
L 3431 0 
L 469 0 
L 469 531 
Q 828 903 1448 1529 
Q 2069 2156 2228 2338 
Q 2531 2678 2651 2914 
Q 2772 3150 2772 3378 
Q 2772 3750 2511 3984 
Q 2250 4219 1831 4219 
Q 1534 4219 1204 4116 
Q 875 4013 500 3803 
L 500 4441 
Q 881 4594 1212 4672 
Q 1544 4750 1819 4750 
Q 2544 4750 2975 4387 
Q 3406 4025 3406 3419 
Q 3406 3131 3298 2873 
Q 3191 2616 2906 2266 
Q 2828 2175 2409 1742 
Q 1991 1309 1228 531 
z
" transform="scale(0.015625)"/>
       </defs>
       <use xlink:href="#DejaVuSans-32"/>
       <use xlink:href="#DejaVuSans-30" x="63.623047"/>
       <use xlink:href="#DejaVuSans-6b" x="127.246094"/>
      </g>
     </g>
    </g>
    <g id="xtick_4">
     <g id="line2d_7">
      <path d="M 241.03094 310.44 
L 241.03094 7.2 
" clip-path="url(#pd5e8a27f39)" style="fill: none; stroke: #1a1a1a; stroke-opacity: 0.22; stroke-width: 0.5; stroke-linecap: square"/>
     </g>
     <g id="line2d_8">
      <g>
       <use xlink:href="#m7027b681a1" x="241.03094" y="310.44" style="fill: #1a1a1a; stroke: #1a1a1a; stroke-width: 0.8"/>
      </g>
     </g>
     <g id="text_4">
      <!-- 30k -->
      <g style="fill: #1a1a1a" transform="translate(232.236018 324.658516) scale(0.095 -0.095)">
       <defs>
        <path id="DejaVuSans-33" d="M 2597 2516 
Q 3050 2419 3304 2112 
Q 3559 1806 3559 1356 
Q 3559 666 3084 287 
Q 2609 -91 1734 -91 
Q 1441 -91 1130 -33 
Q 819 25 488 141 
L 488 750 
Q 750 597 1062 519 
Q 1375 441 1716 441 
Q 2309 441 2620 675 
Q 2931 909 2931 1356 
Q 2931 1769 2642 2001 
Q 2353 2234 1838 2234 
L 1294 2234 
L 1294 2753 
L 1863 2753 
Q 2328 2753 2575 2939 
Q 2822 3125 2822 3475 
Q 2822 3834 2567 4026 
Q 2313 4219 1838 4219 
Q 1578 4219 1281 4162 
Q 984 4106 628 3988 
L 628 4550 
Q 988 4650 1302 4700 
Q 1616 4750 1894 4750 
Q 2613 4750 3031 4423 
Q 3450 4097 3450 3541 
Q 3450 3153 3228 2886 
Q 3006 2619 2597 2516 
z
" transform="scale(0.015625)"/>
       </defs>
       <use xlink:href="#DejaVuSans-33"/>
       <use xlink:href="#DejaVuSans-30" x="63.623047"/>
       <use xlink:href="#DejaVuSans-6b" x="127.246094"/>
      </g>
     </g>
    </g>
    <g id="xtick_5">
     <g id="line2d_9">
      <path d="M 303.145576 310.44 
L 303.145576 7.2 
" clip-path="url(#pd5e8a27f39)" style="fill: none; stroke: #1a1a1a; stroke-opacity: 0.22; stroke-width: 0.5; stroke-linecap: square"/>
     </g>
     <g id="line2d_10">
      <g>
       <use xlink:href="#m7027b681a1" x="303.145576" y="310.44" style="fill: #1a1a1a; stroke: #1a1a1a; stroke-width: 0.8"/>
      </g>
     </g>
     <g id="text_5">
      <!-- 40k -->
      <g style="fill: #1a1a1a" transform="translate(294.350654 324.658516) scale(0.095 -0.095)">
       <defs>
        <path id="DejaVuSans-34" d="M 2419 4116 
L 825 1625 
L 2419 1625 
L 2419 4116 
z
M 2253 4666 
L 3047 4666 
L 3047 1625 
L 3713 1625 
L 3713 1100 
L 3047 1100 
L 3047 0 
L 2419 0 
L 2419 1100 
L 313 1100 
L 313 1709 
L 2253 4666 
z
" transform="scale(0.015625)"/>
       </defs>
       <use xlink:href="#DejaVuSans-34"/>
       <use xlink:href="#DejaVuSans-30" x="63.623047"/>
       <use xlink:href="#DejaVuSans-6b" x="127.246094"/>
      </g>
     </g>
    </g>
    <g id="xtick_6">
     <g id="line2d_11">
      <path d="M 365.260212 310.44 
L 365.260212 7.2 
" clip-path="url(#pd5e8a27f39)" style="fill: none; stroke: #1a1a1a; stroke-opacity: 0.22; stroke-width: 0.5; stroke-linecap: square"/>
     </g>
     <g id="line2d_12">
      <g>
       <use xlink:href="#m7027b681a1" x="365.260212" y="310.44" style="fill: #1a1a1a; stroke: #1a1a1a; stroke-width: 0.8"/>
      </g>
     </g>
     <g id="text_6">
      <!-- 50k -->
      <g style="fill: #1a1a1a" transform="translate(356.46529 324.658516) scale(0.095 -0.095)">
       <defs>
        <path id="DejaVuSans-35" d="M 691 4666 
L 3169 4666 
L 3169 4134 
L 1269 4134 
L 1269 2991 
Q 1406 3038 1543 3061 
Q 1681 3084 1819 3084 
Q 2600 3084 3056 2656 
Q 3513 2228 3513 1497 
Q 3513 744 3044 326 
Q 2575 -91 1722 -91 
Q 1428 -91 1123 -41 
Q 819 9 494 109 
L 494 744 
Q 775 591 1075 516 
Q 1375 441 1709 441 
Q 2250 441 2565 725 
Q 2881 1009 2881 1497 
Q 2881 1984 2565 2268 
Q 2250 2553 1709 2553 
Q 1456 2553 1204 2497 
Q 953 2441 691 2322 
L 691 4666 
z
" transform="scale(0.015625)"/>
       </defs>
       <use xlink:href="#DejaVuSans-35"/>
       <use xlink:href="#DejaVuSans-30" x="63.623047"/>
       <use xlink:href="#DejaVuSans-6b" x="127.246094"/>
      </g>
     </g>
    </g>
    <g id="xtick_7">
     <g id="line2d_13">
      <path d="M 427.374848 310.44 
L 427.374848 7.2 
" clip-path="url(#pd5e8a27f39)" style="fill: none; stroke: #1a1a1a; stroke-opacity: 0.22; stroke-width: 0.5; stroke-linecap: square"/>
     </g>
     <g id="line2d_14">
      <g>
       <use xlink:href="#m7027b681a1" x="427.374848" y="310.44" style="fill: #1a1a1a; stroke: #1a1a1a; stroke-width: 0.8"/>
      </g>
     </g>
     <g id="text_7">
      <!-- 60k -->
      <g style="fill: #1a1a1a" transform="translate(418.579926 324.658516) scale(0.095 -0.095)">
       <defs>
        <path id="DejaVuSans-36" d="M 2113 2584 
Q 1688 2584 1439 2293 
Q 1191 2003 1191 1497 
Q 1191 994 1439 701 
Q 1688 409 2113 409 
Q 2538 409 2786 701 
Q 3034 994 3034 1497 
Q 3034 2003 2786 2293 
Q 2538 2584 2113 2584 
z
M 3366 4563 
L 3366 3988 
Q 3128 4100 2886 4159 
Q 2644 4219 2406 4219 
Q 1781 4219 1451 3797 
Q 1122 3375 1075 2522 
Q 1259 2794 1537 2939 
Q 1816 3084 2150 3084 
Q 2853 3084 3261 2657 
Q 3669 2231 3669 1497 
Q 3669 778 3244 343 
Q 2819 -91 2113 -91 
Q 1303 -91 875 529 
Q 447 1150 447 2328 
Q 447 3434 972 4092 
Q 1497 4750 2381 4750 
Q 2619 4750 2861 4703 
Q 3103 4656 3366 4563 
z
" transform="scale(0.015625)"/>
       </defs>
       <use xlink:href="#DejaVuSans-36"/>
       <use xlink:href="#DejaVuSans-30" x="63.623047"/>
       <use xlink:href="#DejaVuSans-6b" x="127.246094"/>
      </g>
     </g>
    </g>
    <g id="xtick_8">
     <g id="line2d_15">
      <path d="M 489.489484 310.44 
L 489.489484 7.2 
" clip-path="url(#pd5e8a27f39)" style="fill: none; stroke: #1a1a1a; stroke-opacity: 0.22; stroke-width: 0.5; stroke-linecap: square"/>
     </g>
     <g id="line2d_16">
      <g>
       <use xlink:href="#m7027b681a1" x="489.489484" y="310.44" style="fill: #1a1a1a; stroke: #1a1a1a; stroke-width: 0.8"/>
      </g>
     </g>
     <g id="text_8">
      <!-- 70k -->
      <g style="fill: #1a1a1a" transform="translate(480.694562 324.658516) scale(0.095 -0.095)">
       <defs>
        <path id="DejaVuSans-37" d="M 525 4666 
L 3525 4666 
L 3525 4397 
L 1831 0 
L 1172 0 
L 2766 4134 
L 525 4134 
L 525 4666 
z
" transform="scale(0.015625)"/>
       </defs>
       <use xlink:href="#DejaVuSans-37"/>
       <use xlink:href="#DejaVuSans-30" x="63.623047"/>
       <use xlink:href="#DejaVuSans-6b" x="127.246094"/>
      </g>
     </g>
    </g>
    <g id="xtick_9">
     <g id="line2d_17">
      <path d="M 551.60412 310.44 
L 551.60412 7.2 
" clip-path="url(#pd5e8a27f39)" style="fill: none; stroke: #1a1a1a; stroke-opacity: 0.22; stroke-width: 0.5; stroke-linecap: square"/>
     </g>
     <g id="line2d_18">
      <g>
       <use xlink:href="#m7027b681a1" x="551.60412" y="310.44" style="fill: #1a1a1a; stroke: #1a1a1a; stroke-width: 0.8"/>
      </g>
     </g>
     <g id="text_9">
      <!-- 80k -->
      <g style="fill: #1a1a1a" transform="translate(542.809198 324.658516) scale(0.095 -0.095)">
       <defs>
        <path id="DejaVuSans-38" d="M 2034 2216 
Q 1584 2216 1326 1975 
Q 1069 1734 1069 1313 
Q 1069 891 1326 650 
Q 1584 409 2034 409 
Q 2484 409 2743 651 
Q 3003 894 3003 1313 
Q 3003 1734 2745 1975 
Q 2488 2216 2034 2216 
z
M 1403 2484 
Q 997 2584 770 2862 
Q 544 3141 544 3541 
Q 544 4100 942 4425 
Q 1341 4750 2034 4750 
Q 2731 4750 3128 4425 
Q 3525 4100 3525 3541 
Q 3525 3141 3298 2862 
Q 3072 2584 2669 2484 
Q 3125 2378 3379 2068 
Q 3634 1759 3634 1313 
Q 3634 634 3220 271 
Q 2806 -91 2034 -91 
Q 1263 -91 848 271 
Q 434 634 434 1313 
Q 434 1759 690 2068 
Q 947 2378 1403 2484 
z
M 1172 3481 
Q 1172 3119 1398 2916 
Q 1625 2713 2034 2713 
Q 2441 2713 2670 2916 
Q 2900 3119 2900 3481 
Q 2900 3844 2670 4047 
Q 2441 4250 2034 4250 
Q 1625 4250 1398 4047 
Q 1172 3844 1172 3481 
z
" transform="scale(0.015625)"/>
       </defs>
       <use xlink:href="#DejaVuSans-38"/>
       <use xlink:href="#DejaVuSans-30" x="63.623047"/>
       <use xlink:href="#DejaVuSans-6b" x="127.246094"/>
      </g>
     </g>
    </g>
    <g id="text_10">
     <!-- optimizer step (proven 256-batch / 80K-step budget) -->
     <g style="fill: #1a1a1a" transform="translate(164.709638 342.612578) scale(0.105 -0.105)">
      <defs>
       <path id="DejaVuSans-6f" d="M 1959 3097 
Q 1497 3097 1228 2736 
Q 959 2375 959 1747 
Q 959 1119 1226 758 
Q 1494 397 1959 397 
Q 2419 397 2687 759 
Q 2956 1122 2956 1747 
Q 2956 2369 2687 2733 
Q 2419 3097 1959 3097 
z
M 1959 3584 
Q 2709 3584 3137 3096 
Q 3566 2609 3566 1747 
Q 3566 888 3137 398 
Q 2709 -91 1959 -91 
Q 1206 -91 779 398 
Q 353 888 353 1747 
Q 353 2609 779 3096 
Q 1206 3584 1959 3584 
z
" transform="scale(0.015625)"/>
       <path id="DejaVuSans-70" d="M 1159 525 
L 1159 -1331 
L 581 -1331 
L 581 3500 
L 1159 3500 
L 1159 2969 
Q 1341 3281 1617 3432 
Q 1894 3584 2278 3584 
Q 2916 3584 3314 3078 
Q 3713 2572 3713 1747 
Q 3713 922 3314 415 
Q 2916 -91 2278 -91 
Q 1894 -91 1617 61 
Q 1341 213 1159 525 
z
M 3116 1747 
Q 3116 2381 2855 2742 
Q 2594 3103 2138 3103 
Q 1681 3103 1420 2742 
Q 1159 2381 1159 1747 
Q 1159 1113 1420 752 
Q 1681 391 2138 391 
Q 2594 391 2855 752 
Q 3116 1113 3116 1747 
z
" transform="scale(0.015625)"/>
       <path id="DejaVuSans-74" d="M 1172 4494 
L 1172 3500 
L 2356 3500 
L 2356 3053 
L 1172 3053 
L 1172 1153 
Q 1172 725 1289 603 
Q 1406 481 1766 481 
L 2356 481 
L 2356 0 
L 1766 0 
Q 1100 0 847 248 
Q 594 497 594 1153 
L 594 3053 
L 172 3053 
L 172 3500 
L 594 3500 
L 594 4494 
L 1172 4494 
z
" transform="scale(0.015625)"/>
       <path id="DejaVuSans-69" d="M 603 3500 
L 1178 3500 
L 1178 0 
L 603 0 
L 603 3500 
z
M 603 4863 
L 1178 4863 
L 1178 4134 
L 603 4134 
L 603 4863 
z
" transform="scale(0.015625)"/>
       <path id="DejaVuSans-6d" d="M 3328 2828 
Q 3544 3216 3844 3400 
Q 4144 3584 4550 3584 
Q 5097 3584 5394 3201 
Q 5691 2819 5691 2113 
L 5691 0 
L 5113 0 
L 5113 2094 
Q 5113 2597 4934 2840 
Q 4756 3084 4391 3084 
Q 3944 3084 3684 2787 
Q 3425 2491 3425 1978 
L 3425 0 
L 2847 0 
L 2847 2094 
Q 2847 2600 2669 2842 
Q 2491 3084 2119 3084 
Q 1678 3084 1418 2786 
Q 1159 2488 1159 1978 
L 1159 0 
L 581 0 
L 581 3500 
L 1159 3500 
L 1159 2956 
Q 1356 3278 1631 3431 
Q 1906 3584 2284 3584 
Q 2666 3584 2933 3390 
Q 3200 3197 3328 2828 
z
" transform="scale(0.015625)"/>
       <path id="DejaVuSans-7a" d="M 353 3500 
L 3084 3500 
L 3084 2975 
L 922 459 
L 3084 459 
L 3084 0 
L 275 0 
L 275 525 
L 2438 3041 
L 353 3041 
L 353 3500 
z
" transform="scale(0.015625)"/>
       <path id="DejaVuSans-65" d="M 3597 1894 
L 3597 1613 
L 953 1613 
Q 991 1019 1311 708 
Q 1631 397 2203 397 
Q 2534 397 2845 478 
Q 3156 559 3463 722 
L 3463 178 
Q 3153 47 2828 -22 
Q 2503 -91 2169 -91 
Q 1331 -91 842 396 
Q 353 884 353 1716 
Q 353 2575 817 3079 
Q 1281 3584 2069 3584 
Q 2775 3584 3186 3129 
Q 3597 2675 3597 1894 
z
M 3022 2063 
Q 3016 2534 2758 2815 
Q 2500 3097 2075 3097 
Q 1594 3097 1305 2825 
Q 1016 2553 972 2059 
L 3022 2063 
z
" transform="scale(0.015625)"/>
       <path id="DejaVuSans-72" d="M 2631 2963 
Q 2534 3019 2420 3045 
Q 2306 3072 2169 3072 
Q 1681 3072 1420 2755 
Q 1159 2438 1159 1844 
L 1159 0 
L 581 0 
L 581 3500 
L 1159 3500 
L 1159 2956 
Q 1341 3275 1631 3429 
Q 1922 3584 2338 3584 
Q 2397 3584 2469 3576 
Q 2541 3569 2628 3553 
L 2631 2963 
z
" transform="scale(0.015625)"/>
       <path id="DejaVuSans-20" transform="scale(0.015625)"/>
       <path id="DejaVuSans-73" d="M 2834 3397 
L 2834 2853 
Q 2591 2978 2328 3040 
Q 2066 3103 1784 3103 
Q 1356 3103 1142 2972 
Q 928 2841 928 2578 
Q 928 2378 1081 2264 
Q 1234 2150 1697 2047 
L 1894 2003 
Q 2506 1872 2764 1633 
Q 3022 1394 3022 966 
Q 3022 478 2636 193 
Q 2250 -91 1575 -91 
Q 1294 -91 989 -36 
Q 684 19 347 128 
L 347 722 
Q 666 556 975 473 
Q 1284 391 1588 391 
Q 1994 391 2212 530 
Q 2431 669 2431 922 
Q 2431 1156 2273 1281 
Q 2116 1406 1581 1522 
L 1381 1569 
Q 847 1681 609 1914 
Q 372 2147 372 2553 
Q 372 3047 722 3315 
Q 1072 3584 1716 3584 
Q 2034 3584 2315 3537 
Q 2597 3491 2834 3397 
z
" transform="scale(0.015625)"/>
       <path id="DejaVuSans-28" d="M 1984 4856 
Q 1566 4138 1362 3434 
Q 1159 2731 1159 2009 
Q 1159 1288 1364 580 
Q 1569 -128 1984 -844 
L 1484 -844 
Q 1016 -109 783 600 
Q 550 1309 550 2009 
Q 550 2706 781 3412 
Q 1013 4119 1484 4856 
L 1984 4856 
z
" transform="scale(0.015625)"/>
       <path id="DejaVuSans-76" d="M 191 3500 
L 800 3500 
L 1894 563 
L 2988 3500 
L 3597 3500 
L 2284 0 
L 1503 0 
L 191 3500 
z
" transform="scale(0.015625)"/>
       <path id="DejaVuSans-6e" d="M 3513 2113 
L 3513 0 
L 2938 0 
L 2938 2094 
Q 2938 2591 2744 2837 
Q 2550 3084 2163 3084 
Q 1697 3084 1428 2787 
Q 1159 2491 1159 1978 
L 1159 0 
L 581 0 
L 581 3500 
L 1159 3500 
L 1159 2956 
Q 1366 3272 1645 3428 
Q 1925 3584 2291 3584 
Q 2894 3584 3203 3211 
Q 3513 2838 3513 2113 
z
" transform="scale(0.015625)"/>
       <path id="DejaVuSans-2d" d="M 313 2009 
L 1997 2009 
L 1997 1497 
L 313 1497 
L 313 2009 
z
" transform="scale(0.015625)"/>
       <path id="DejaVuSans-62" d="M 3116 1747 
Q 3116 2381 2855 2742 
Q 2594 3103 2138 3103 
Q 1681 3103 1420 2742 
Q 1159 2381 1159 1747 
Q 1159 1113 1420 752 
Q 1681 391 2138 391 
Q 2594 391 2855 752 
Q 3116 1113 3116 1747 
z
M 1159 2969 
Q 1341 3281 1617 3432 
Q 1894 3584 2278 3584 
Q 2916 3584 3314 3078 
Q 3713 2572 3713 1747 
Q 3713 922 3314 415 
Q 2916 -91 2278 -91 
Q 1894 -91 1617 61 
Q 1341 213 1159 525 
L 1159 0 
L 581 0 
L 581 4863 
L 1159 4863 
L 1159 2969 
z
" transform="scale(0.015625)"/>
       <path id="DejaVuSans-61" d="M 2194 1759 
Q 1497 1759 1228 1600 
Q 959 1441 959 1056 
Q 959 750 1161 570 
Q 1363 391 1709 391 
Q 2188 391 2477 730 
Q 2766 1069 2766 1631 
L 2766 1759 
L 2194 1759 
z
M 3341 1997 
L 3341 0 
L 2766 0 
L 2766 531 
Q 2569 213 2275 61 
Q 1981 -91 1556 -91 
Q 1019 -91 701 211 
Q 384 513 384 1019 
Q 384 1609 779 1909 
Q 1175 2209 1959 2209 
L 2766 2209 
L 2766 2266 
Q 2766 2663 2505 2880 
Q 2244 3097 1772 3097 
Q 1472 3097 1187 3025 
Q 903 2953 641 2809 
L 641 3341 
Q 956 3463 1253 3523 
Q 1550 3584 1831 3584 
Q 2591 3584 2966 3190 
Q 3341 2797 3341 1997 
z
" transform="scale(0.015625)"/>
       <path id="DejaVuSans-63" d="M 3122 3366 
L 3122 2828 
Q 2878 2963 2633 3030 
Q 2388 3097 2138 3097 
Q 1578 3097 1268 2742 
Q 959 2388 959 1747 
Q 959 1106 1268 751 
Q 1578 397 2138 397 
Q 2388 397 2633 464 
Q 2878 531 3122 666 
L 3122 134 
Q 2881 22 2623 -34 
Q 2366 -91 2075 -91 
Q 1284 -91 818 406 
Q 353 903 353 1747 
Q 353 2603 823 3093 
Q 1294 3584 2113 3584 
Q 2378 3584 2631 3529 
Q 2884 3475 3122 3366 
z
" transform="scale(0.015625)"/>
       <path id="DejaVuSans-68" d="M 3513 2113 
L 3513 0 
L 2938 0 
L 2938 2094 
Q 2938 2591 2744 2837 
Q 2550 3084 2163 3084 
Q 1697 3084 1428 2787 
Q 1159 2491 1159 1978 
L 1159 0 
L 581 0 
L 581 4863 
L 1159 4863 
L 1159 2956 
Q 1366 3272 1645 3428 
Q 1925 3584 2291 3584 
Q 2894 3584 3203 3211 
Q 3513 2838 3513 2113 
z
" transform="scale(0.015625)"/>
       <path id="DejaVuSans-2f" d="M 1625 4666 
L 2156 4666 
L 531 -594 
L 0 -594 
L 1625 4666 
z
" transform="scale(0.015625)"/>
       <path id="DejaVuSans-4b" d="M 628 4666 
L 1259 4666 
L 1259 2694 
L 3353 4666 
L 4166 4666 
L 1850 2491 
L 4331 0 
L 3500 0 
L 1259 2247 
L 1259 0 
L 628 0 
L 628 4666 
z
" transform="scale(0.015625)"/>
       <path id="DejaVuSans-75" d="M 544 1381 
L 544 3500 
L 1119 3500 
L 1119 1403 
Q 1119 906 1312 657 
Q 1506 409 1894 409 
Q 2359 409 2629 706 
Q 2900 1003 2900 1516 
L 2900 3500 
L 3475 3500 
L 3475 0 
L 2900 0 
L 2900 538 
Q 2691 219 2414 64 
Q 2138 -91 1772 -91 
Q 1169 -91 856 284 
Q 544 659 544 1381 
z
M 1991 3584 
L 1991 3584 
z
" transform="scale(0.015625)"/>
       <path id="DejaVuSans-64" d="M 2906 2969 
L 2906 4863 
L 3481 4863 
L 3481 0 
L 2906 0 
L 2906 525 
Q 2725 213 2448 61 
Q 2172 -91 1784 -91 
Q 1150 -91 751 415 
Q 353 922 353 1747 
Q 353 2572 751 3078 
Q 1150 3584 1784 3584 
Q 2172 3584 2448 3432 
Q 2725 3281 2906 2969 
z
M 947 1747 
Q 947 1113 1208 752 
Q 1469 391 1925 391 
Q 2381 391 2643 752 
Q 2906 1113 2906 1747 
Q 2906 2381 2643 2742 
Q 2381 3103 1925 3103 
Q 1469 3103 1208 2742 
Q 947 2381 947 1747 
z
" transform="scale(0.015625)"/>
       <path id="DejaVuSans-67" d="M 2906 1791 
Q 2906 2416 2648 2759 
Q 2391 3103 1925 3103 
Q 1463 3103 1205 2759 
Q 947 2416 947 1791 
Q 947 1169 1205 825 
Q 1463 481 1925 481 
Q 2391 481 2648 825 
Q 2906 1169 2906 1791 
z
M 3481 434 
Q 3481 -459 3084 -895 
Q 2688 -1331 1869 -1331 
Q 1566 -1331 1297 -1286 
Q 1028 -1241 775 -1147 
L 775 -588 
Q 1028 -725 1275 -790 
Q 1522 -856 1778 -856 
Q 2344 -856 2625 -561 
Q 2906 -266 2906 331 
L 2906 616 
Q 2728 306 2450 153 
Q 2172 0 1784 0 
Q 1141 0 747 490 
Q 353 981 353 1791 
Q 353 2603 747 3093 
Q 1141 3584 1784 3584 
Q 2172 3584 2450 3431 
Q 2728 3278 2906 2969 
L 2906 3500 
L 3481 3500 
L 3481 434 
z
" transform="scale(0.015625)"/>
       <path id="DejaVuSans-29" d="M 513 4856 
L 1013 4856 
Q 1481 4119 1714 3412 
Q 1947 2706 1947 2009 
Q 1947 1309 1714 600 
Q 1481 -109 1013 -844 
L 513 -844 
Q 928 -128 1133 580 
Q 1338 1288 1338 2009 
Q 1338 2731 1133 3434 
Q 928 4138 513 4856 
z
" transform="scale(0.015625)"/>
      </defs>
      <use xlink:href="#DejaVuSans-6f"/>
      <use xlink:href="#DejaVuSans-70" x="61.181641"/>
      <use xlink:href="#DejaVuSans-74" x="124.658203"/>
      <use xlink:href="#DejaVuSans-69" x="163.867188"/>
      <use xlink:href="#DejaVuSans-6d" x="191.650391"/>
      <use xlink:href="#DejaVuSans-69" x="289.0625"/>
      <use xlink:href="#DejaVuSans-7a" x="316.845703"/>
      <use xlink:href="#DejaVuSans-65" x="369.335938"/>
      <use xlink:href="#DejaVuSans-72" x="430.859375"/>
      <use xlink:href="#DejaVuSans-20" x="471.972656"/>
      <use xlink:href="#DejaVuSans-73" x="503.759766"/>
      <use xlink:href="#DejaVuSans-74" x="555.859375"/>
      <use xlink:href="#DejaVuSans-65" x="595.068359"/>
      <use xlink:href="#DejaVuSans-70" x="656.591797"/>
      <use xlink:href="#DejaVuSans-20" x="720.068359"/>
      <use xlink:href="#DejaVuSans-28" x="751.855469"/>
      <use xlink:href="#DejaVuSans-70" x="790.869141"/>
      <use xlink:href="#DejaVuSans-72" x="854.345703"/>
      <use xlink:href="#DejaVuSans-6f" x="893.208984"/>
      <use xlink:href="#DejaVuSans-76" x="954.390625"/>
      <use xlink:href="#DejaVuSans-65" x="1013.570312"/>
      <use xlink:href="#DejaVuSans-6e" x="1075.09375"/>
      <use xlink:href="#DejaVuSans-20" x="1138.472656"/>
      <use xlink:href="#DejaVuSans-32" x="1170.259766"/>
      <use xlink:href="#DejaVuSans-35" x="1233.882812"/>
      <use xlink:href="#DejaVuSans-36" x="1297.505859"/>
      <use xlink:href="#DejaVuSans-2d" x="1361.128906"/>
      <use xlink:href="#DejaVuSans-62" x="1397.212891"/>
      <use xlink:href="#DejaVuSans-61" x="1460.689453"/>
      <use xlink:href="#DejaVuSans-74" x="1521.96875"/>
      <use xlink:href="#DejaVuSans-63" x="1561.177734"/>
      <use xlink:href="#DejaVuSans-68" x="1616.158203"/>
      <use xlink:href="#DejaVuSans-20" x="1679.537109"/>
      <use xlink:href="#DejaVuSans-2f" x="1711.324219"/>
      <use xlink:href="#DejaVuSans-20" x="1745.015625"/>
      <use xlink:href="#DejaVuSans-38" x="1776.802734"/>
      <use xlink:href="#DejaVuSans-30" x="1840.425781"/>
      <use xlink:href="#DejaVuSans-4b" x="1904.048828"/>
      <use xlink:href="#DejaVuSans-2d" x="1959.125"/>
      <use xlink:href="#DejaVuSans-73" x="1995.208984"/>
      <use xlink:href="#DejaVuSans-74" x="2047.308594"/>
      <use xlink:href="#DejaVuSans-65" x="2086.517578"/>
      <use xlink:href="#DejaVuSans-70" x="2148.041016"/>
      <use xlink:href="#DejaVuSans-20" x="2211.517578"/>
      <use xlink:href="#DejaVuSans-62" x="2243.304688"/>
      <use xlink:href="#DejaVuSans-75" x="2306.78125"/>
      <use xlink:href="#DejaVuSans-64" x="2370.160156"/>
      <use xlink:href="#DejaVuSans-67" x="2433.636719"/>
      <use xlink:href="#DejaVuSans-65" x="2497.113281"/>
      <use xlink:href="#DejaVuSans-74" x="2558.636719"/>
      <use xlink:href="#DejaVuSans-29" x="2597.845703"/>
     </g>
    </g>
   </g>
   <g id="matplotlib.axis_2">
    <g id="ytick_1">
     <g id="line2d_19">
      <path d="M 54.687031 255.502716 
L 551.60412 255.502716 
" clip-path="url(#pd5e8a27f39)" style="fill: none; stroke: #1a1a1a; stroke-opacity: 0.22; stroke-width: 0.5; stroke-linecap: square"/>
     </g>
     <g id="line2d_20">
      <defs>
       <path id="m93b1b1ea16" d="M 0 0 
L -3.5 0 
" style="stroke: #1a1a1a; stroke-width: 0.8"/>
      </defs>
      <g>
       <use xlink:href="#m93b1b1ea16" x="54.687031" y="255.502716" style="fill: #1a1a1a; stroke: #1a1a1a; stroke-width: 0.8"/>
      </g>
     </g>
     <g id="text_11">
      <!-- $\mathdefault{10^{-2}}$ -->
      <g style="fill: #1a1a1a" transform="translate(25.362031 259.111974) scale(0.095 -0.095)">
       <defs>
        <path id="DejaVuSans-2212" d="M 678 2272 
L 4684 2272 
L 4684 1741 
L 678 1741 
L 678 2272 
z
" transform="scale(0.015625)"/>
       </defs>
       <use xlink:href="#DejaVuSans-31" transform="translate(0 0.765625)"/>
       <use xlink:href="#DejaVuSans-30" transform="translate(63.623047 0.765625)"/>
       <use xlink:href="#DejaVuSans-2212" transform="translate(128.203125 39.046875) scale(0.7)"/>
       <use xlink:href="#DejaVuSans-32" transform="translate(186.855469 39.046875) scale(0.7)"/>
      </g>
     </g>
    </g>
    <g id="ytick_2">
     <g id="line2d_21">
      <path d="M 54.687031 135.008235 
L 551.60412 135.008235 
" clip-path="url(#pd5e8a27f39)" style="fill: none; stroke: #1a1a1a; stroke-opacity: 0.22; stroke-width: 0.5; stroke-linecap: square"/>
     </g>
     <g id="line2d_22">
      <g>
       <use xlink:href="#m93b1b1ea16" x="54.687031" y="135.008235" style="fill: #1a1a1a; stroke: #1a1a1a; stroke-width: 0.8"/>
      </g>
     </g>
     <g id="text_12">
      <!-- $\mathdefault{10^{-1}}$ -->
      <g style="fill: #1a1a1a" transform="translate(25.362031 138.617493) scale(0.095 -0.095)">
       <use xlink:href="#DejaVuSans-31" transform="translate(0 0.684375)"/>
       <use xlink:href="#DejaVuSans-30" transform="translate(63.623047 0.684375)"/>
       <use xlink:href="#DejaVuSans-2212" transform="translate(128.203125 38.965625) scale(0.7)"/>
       <use xlink:href="#DejaVuSans-31" transform="translate(186.855469 38.965625) scale(0.7)"/>
      </g>
     </g>
    </g>
    <g id="ytick_3">
     <g id="line2d_23">
      <path d="M 54.687031 14.513755 
L 551.60412 14.513755 
" clip-path="url(#pd5e8a27f39)" style="fill: none; stroke: #1a1a1a; stroke-opacity: 0.22; stroke-width: 0.5; stroke-linecap: square"/>
     </g>
     <g id="line2d_24">
      <g>
       <use xlink:href="#m93b1b1ea16" x="54.687031" y="14.513755" style="fill: #1a1a1a; stroke: #1a1a1a; stroke-width: 0.8"/>
      </g>
     </g>
     <g id="text_13">
      <!-- $\mathdefault{10^{0}}$ -->
      <g style="fill: #1a1a1a" transform="translate(30.967031 18.123013) scale(0.095 -0.095)">
       <use xlink:href="#DejaVuSans-31" transform="translate(0 0.765625)"/>
       <use xlink:href="#DejaVuSans-30" transform="translate(63.623047 0.765625)"/>
       <use xlink:href="#DejaVuSans-30" transform="translate(128.203125 39.046875) scale(0.7)"/>
      </g>
     </g>
    </g>
    <g id="ytick_4">
     <g id="line2d_25">
      <path d="M 54.687031 303.45229 
L 551.60412 303.45229 
" clip-path="url(#pd5e8a27f39)" style="fill: none; stroke: #1a1a1a; stroke-opacity: 0.12; stroke-width: 0.3; stroke-linecap: square"/>
     </g>
     <g id="line2d_26">
      <defs>
       <path id="m4b8d064283" d="M 0 0 
L -2 0 
" style="stroke: #1a1a1a; stroke-width: 0.6"/>
      </defs>
      <g>
       <use xlink:href="#m4b8d064283" x="54.687031" y="303.45229" style="fill: #1a1a1a; stroke: #1a1a1a; stroke-width: 0.6"/>
      </g>
     </g>
    </g>
    <g id="ytick_5">
     <g id="line2d_27">
      <path d="M 54.687031 291.775169 
L 551.60412 291.775169 
" clip-path="url(#pd5e8a27f39)" style="fill: none; stroke: #1a1a1a; stroke-opacity: 0.12; stroke-width: 0.3; stroke-linecap: square"/>
     </g>
     <g id="line2d_28">
      <g>
       <use xlink:href="#m4b8d064283" x="54.687031" y="291.775169" style="fill: #1a1a1a; stroke: #1a1a1a; stroke-width: 0.6"/>
      </g>
     </g>
    </g>
    <g id="ytick_6">
     <g id="line2d_29">
      <path d="M 54.687031 282.234266 
L 551.60412 282.234266 
" clip-path="url(#pd5e8a27f39)" style="fill: none; stroke: #1a1a1a; stroke-opacity: 0.12; stroke-width: 0.3; stroke-linecap: square"/>
     </g>
     <g id="line2d_30">
      <g>
       <use xlink:href="#m4b8d064283" x="54.687031" y="282.234266" style="fill: #1a1a1a; stroke: #1a1a1a; stroke-width: 0.6"/>
      </g>
     </g>
    </g>
    <g id="ytick_7">
     <g id="line2d_31">
      <path d="M 54.687031 274.167547 
L 551.60412 274.167547 
" clip-path="url(#pd5e8a27f39)" style="fill: none; stroke: #1a1a1a; stroke-opacity: 0.12; stroke-width: 0.3; stroke-linecap: square"/>
     </g>
     <g id="line2d_32">
      <g>
       <use xlink:href="#m4b8d064283" x="54.687031" y="274.167547" style="fill: #1a1a1a; stroke: #1a1a1a; stroke-width: 0.6"/>
      </g>
     </g>
    </g>
    <g id="ytick_8">
     <g id="line2d_33">
      <path d="M 54.687031 267.179838 
L 551.60412 267.179838 
" clip-path="url(#pd5e8a27f39)" style="fill: none; stroke: #1a1a1a; stroke-opacity: 0.12; stroke-width: 0.3; stroke-linecap: square"/>
     </g>
     <g id="line2d_34">
      <g>
       <use xlink:href="#m4b8d064283" x="54.687031" y="267.179838" style="fill: #1a1a1a; stroke: #1a1a1a; stroke-width: 0.6"/>
      </g>
     </g>
    </g>
    <g id="ytick_9">
     <g id="line2d_35">
      <path d="M 54.687031 261.016241 
L 551.60412 261.016241 
" clip-path="url(#pd5e8a27f39)" style="fill: none; stroke: #1a1a1a; stroke-opacity: 0.12; stroke-width: 0.3; stroke-linecap: square"/>
     </g>
     <g id="line2d_36">
      <g>
       <use xlink:href="#m4b8d064283" x="54.687031" y="261.016241" style="fill: #1a1a1a; stroke: #1a1a1a; stroke-width: 0.6"/>
      </g>
     </g>
    </g>
    <g id="ytick_10">
     <g id="line2d_37">
      <path d="M 54.687031 219.230263 
L 551.60412 219.230263 
" clip-path="url(#pd5e8a27f39)" style="fill: none; stroke: #1a1a1a; stroke-opacity: 0.12; stroke-width: 0.3; stroke-linecap: square"/>
     </g>
     <g id="line2d_38">
      <g>
       <use xlink:href="#m4b8d064283" x="54.687031" y="219.230263" style="fill: #1a1a1a; stroke: #1a1a1a; stroke-width: 0.6"/>
      </g>
     </g>
    </g>
    <g id="ytick_11">
     <g id="line2d_39">
      <path d="M 54.687031 198.012238 
L 551.60412 198.012238 
" clip-path="url(#pd5e8a27f39)" style="fill: none; stroke: #1a1a1a; stroke-opacity: 0.12; stroke-width: 0.3; stroke-linecap: square"/>
     </g>
     <g id="line2d_40">
      <g>
       <use xlink:href="#m4b8d064283" x="54.687031" y="198.012238" style="fill: #1a1a1a; stroke: #1a1a1a; stroke-width: 0.6"/>
      </g>
     </g>
    </g>
    <g id="ytick_12">
     <g id="line2d_41">
      <path d="M 54.687031 182.95781 
L 551.60412 182.95781 
" clip-path="url(#pd5e8a27f39)" style="fill: none; stroke: #1a1a1a; stroke-opacity: 0.12; stroke-width: 0.3; stroke-linecap: square"/>
     </g>
     <g id="line2d_42">
      <g>
       <use xlink:href="#m4b8d064283" x="54.687031" y="182.95781" style="fill: #1a1a1a; stroke: #1a1a1a; stroke-width: 0.6"/>
      </g>
     </g>
    </g>
    <g id="ytick_13">
     <g id="line2d_43">
      <path d="M 54.687031 171.280688 
L 551.60412 171.280688 
" clip-path="url(#pd5e8a27f39)" style="fill: none; stroke: #1a1a1a; stroke-opacity: 0.12; stroke-width: 0.3; stroke-linecap: square"/>
     </g>
     <g id="line2d_44">
      <g>
       <use xlink:href="#m4b8d064283" x="54.687031" y="171.280688" style="fill: #1a1a1a; stroke: #1a1a1a; stroke-width: 0.6"/>
      </g>
     </g>
    </g>
    <g id="ytick_14">
     <g id="line2d_45">
      <path d="M 54.687031 161.739785 
L 551.60412 161.739785 
" clip-path="url(#pd5e8a27f39)" style="fill: none; stroke: #1a1a1a; stroke-opacity: 0.12; stroke-width: 0.3; stroke-linecap: square"/>
     </g>
     <g id="line2d_46">
      <g>
       <use xlink:href="#m4b8d064283" x="54.687031" y="161.739785" style="fill: #1a1a1a; stroke: #1a1a1a; stroke-width: 0.6"/>
      </g>
     </g>
    </g>
    <g id="ytick_15">
     <g id="line2d_47">
      <path d="M 54.687031 153.673066 
L 551.60412 153.673066 
" clip-path="url(#pd5e8a27f39)" style="fill: none; stroke: #1a1a1a; stroke-opacity: 0.12; stroke-width: 0.3; stroke-linecap: square"/>
     </g>
     <g id="line2d_48">
      <g>
       <use xlink:href="#m4b8d064283" x="54.687031" y="153.673066" style="fill: #1a1a1a; stroke: #1a1a1a; stroke-width: 0.6"/>
      </g>
     </g>
    </g>
    <g id="ytick_16">
     <g id="line2d_49">
      <path d="M 54.687031 146.685357 
L 551.60412 146.685357 
" clip-path="url(#pd5e8a27f39)" style="fill: none; stroke: #1a1a1a; stroke-opacity: 0.12; stroke-width: 0.3; stroke-linecap: square"/>
     </g>
     <g id="line2d_50">
      <g>
       <use xlink:href="#m4b8d064283" x="54.687031" y="146.685357" style="fill: #1a1a1a; stroke: #1a1a1a; stroke-width: 0.6"/>
      </g>
     </g>
    </g>
    <g id="ytick_17">
     <g id="line2d_51">
      <path d="M 54.687031 140.52176 
L 551.60412 140.52176 
" clip-path="url(#pd5e8a27f39)" style="fill: none; stroke: #1a1a1a; stroke-opacity: 0.12; stroke-width: 0.3; stroke-linecap: square"/>
     </g>
     <g id="line2d_52">
      <g>
       <use xlink:href="#m4b8d064283" x="54.687031" y="140.52176" style="fill: #1a1a1a; stroke: #1a1a1a; stroke-width: 0.6"/>
      </g>
     </g>
    </g>
    <g id="ytick_18">
     <g id="line2d_53">
      <path d="M 54.687031 98.735782 
L 551.60412 98.735782 
" clip-path="url(#pd5e8a27f39)" style="fill: none; stroke: #1a1a1a; stroke-opacity: 0.12; stroke-width: 0.3; stroke-linecap: square"/>
     </g>
     <g id="line2d_54">
      <g>
       <use xlink:href="#m4b8d064283" x="54.687031" y="98.735782" style="fill: #1a1a1a; stroke: #1a1a1a; stroke-width: 0.6"/>
      </g>
     </g>
    </g>
    <g id="ytick_19">
     <g id="line2d_55">
      <path d="M 54.687031 77.517758 
L 551.60412 77.517758 
" clip-path="url(#pd5e8a27f39)" style="fill: none; stroke: #1a1a1a; stroke-opacity: 0.12; stroke-width: 0.3; stroke-linecap: square"/>
     </g>
     <g id="line2d_56">
      <g>
       <use xlink:href="#m4b8d064283" x="54.687031" y="77.517758" style="fill: #1a1a1a; stroke: #1a1a1a; stroke-width: 0.6"/>
      </g>
     </g>
    </g>
    <g id="ytick_20">
     <g id="line2d_57">
      <path d="M 54.687031 62.463329 
L 551.60412 62.463329 
" clip-path="url(#pd5e8a27f39)" style="fill: none; stroke: #1a1a1a; stroke-opacity: 0.12; stroke-width: 0.3; stroke-linecap: square"/>
     </g>
     <g id="line2d_58">
      <g>
       <use xlink:href="#m4b8d064283" x="54.687031" y="62.463329" style="fill: #1a1a1a; stroke: #1a1a1a; stroke-width: 0.6"/>
      </g>
     </g>
    </g>
    <g id="ytick_21">
     <g id="line2d_59">
      <path d="M 54.687031 50.786208 
L 551.60412 50.786208 
" clip-path="url(#pd5e8a27f39)" style="fill: none; stroke: #1a1a1a; stroke-opacity: 0.12; stroke-width: 0.3; stroke-linecap: square"/>
     </g>
     <g id="line2d_60">
      <g>
       <use xlink:href="#m4b8d064283" x="54.687031" y="50.786208" style="fill: #1a1a1a; stroke: #1a1a1a; stroke-width: 0.6"/>
      </g>
     </g>
    </g>
    <g id="ytick_22">
     <g id="line2d_61">
      <path d="M 54.687031 41.245305 
L 551.60412 41.245305 
" clip-path="url(#pd5e8a27f39)" style="fill: none; stroke: #1a1a1a; stroke-opacity: 0.12; stroke-width: 0.3; stroke-linecap: square"/>
     </g>
     <g id="line2d_62">
      <g>
       <use xlink:href="#m4b8d064283" x="54.687031" y="41.245305" style="fill: #1a1a1a; stroke: #1a1a1a; stroke-width: 0.6"/>
      </g>
     </g>
    </g>
    <g id="ytick_23">
     <g id="line2d_63">
      <path d="M 54.687031 33.178586 
L 551.60412 33.178586 
" clip-path="url(#pd5e8a27f39)" style="fill: none; stroke: #1a1a1a; stroke-opacity: 0.12; stroke-width: 0.3; stroke-linecap: square"/>
     </g>
     <g id="line2d_64">
      <g>
       <use xlink:href="#m4b8d064283" x="54.687031" y="33.178586" style="fill: #1a1a1a; stroke: #1a1a1a; stroke-width: 0.6"/>
      </g>
     </g>
    </g>
    <g id="ytick_24">
     <g id="line2d_65">
      <path d="M 54.687031 26.190876 
L 551.60412 26.190876 
" clip-path="url(#pd5e8a27f39)" style="fill: none; stroke: #1a1a1a; stroke-opacity: 0.12; stroke-width: 0.3; stroke-linecap: square"/>
     </g>
     <g id="line2d_66">
      <g>
       <use xlink:href="#m4b8d064283" x="54.687031" y="26.190876" style="fill: #1a1a1a; stroke: #1a1a1a; stroke-width: 0.6"/>
      </g>
     </g>
    </g>
    <g id="ytick_25">
     <g id="line2d_67">
      <path d="M 54.687031 20.02728 
L 551.60412 20.02728 
" clip-path="url(#pd5e8a27f39)" style="fill: none; stroke: #1a1a1a; stroke-opacity: 0.12; stroke-width: 0.3; stroke-linecap: square"/>
     </g>
     <g id="line2d_68">
      <g>
       <use xlink:href="#m4b8d064283" x="54.687031" y="20.02728" style="fill: #1a1a1a; stroke: #1a1a1a; stroke-width: 0.6"/>
      </g>
     </g>
    </g>
    <g id="text_14">
     <!-- train loss (log scale) -->
     <g style="fill: #1a1a1a" transform="translate(15.178359 211.813828) rotate(-90) scale(0.105 -0.105)">
      <defs>
       <path id="DejaVuSans-6c" d="M 603 4863 
L 1178 4863 
L 1178 0 
L 603 0 
L 603 4863 
z
" transform="scale(0.015625)"/>
      </defs>
      <use xlink:href="#DejaVuSans-74"/>
      <use xlink:href="#DejaVuSans-72" x="39.208984"/>
      <use xlink:href="#DejaVuSans-61" x="80.322266"/>
      <use xlink:href="#DejaVuSans-69" x="141.601562"/>
      <use xlink:href="#DejaVuSans-6e" x="169.384766"/>
      <use xlink:href="#DejaVuSans-20" x="232.763672"/>
      <use xlink:href="#DejaVuSans-6c" x="264.550781"/>
      <use xlink:href="#DejaVuSans-6f" x="292.333984"/>
      <use xlink:href="#DejaVuSans-73" x="353.515625"/>
      <use xlink:href="#DejaVuSans-73" x="405.615234"/>
      <use xlink:href="#DejaVuSans-20" x="457.714844"/>
      <use xlink:href="#DejaVuSans-28" x="489.501953"/>
      <use xlink:href="#DejaVuSans-6c" x="528.515625"/>
      <use xlink:href="#DejaVuSans-6f" x="556.298828"/>
      <use xlink:href="#DejaVuSans-67" x="617.480469"/>
      <use xlink:href="#DejaVuSans-20" x="680.957031"/>
      <use xlink:href="#DejaVuSans-73" x="712.744141"/>
      <use xlink:href="#DejaVuSans-63" x="764.84375"/>
      <use xlink:href="#DejaVuSans-61" x="819.824219"/>
      <use xlink:href="#DejaVuSans-6c" x="881.103516"/>
      <use xlink:href="#DejaVuSans-65" x="908.886719"/>
      <use xlink:href="#DejaVuSans-29" x="970.410156"/>
     </g>
    </g>
   </g>
   <g id="patch_4">
    <path d="M 54.687031 310.44 
L 54.687031 7.2 
" style="fill: none; stroke: #1a1a1a; stroke-linejoin: miter; stroke-linecap: square"/>
   </g>
   <g id="patch_5">
    <path d="M 551.60412 310.44 
L 551.60412 7.2 
" style="fill: none; stroke: #1a1a1a; stroke-linejoin: miter; stroke-linecap: square"/>
   </g>
   <g id="patch_6">
    <path d="M 54.687031 310.44 
L 551.60412 310.44 
" style="fill: none; stroke: #1a1a1a; stroke-linejoin: miter; stroke-linecap: square"/>
   </g>
   <g id="patch_7">
    <path d="M 54.687031 7.2 
L 551.60412 7.2 
" style="fill: none; stroke: #1a1a1a; stroke-linejoin: miter; stroke-linecap: square"/>
   </g>
   <g id="line2d_69">
    <path d="M 54.693243 14.454812 
L 57.792763 14.698877 
L 60.898495 14.765135 
L 64.004227 14.336167 
L 67.109958 14.86752 
L 70.21569 14.595702 
L 73.321422 14.965746 
L 76.427154 14.410153 
L 79.532886 14.314822 
L 82.638618 13.949571 
L 85.744349 13.820182 
L 88.850081 14.011518 
L 91.955813 14.348503 
L 95.061545 14.316481 
L 98.167277 14.580378 
L 101.273008 13.815824 
L 104.37874 14.608281 
L 107.484472 14.020404 
L 110.590204 14.58625 
L 113.695936 14.0659 
L 116.801667 15.054011 
L 119.907399 14.49306 
L 123.013131 14.472611 
L 126.118863 14.656221 
L 129.224595 14.138755 
L 132.330326 14.14853 
L 135.436058 14.86146 
L 138.54179 14.50466 
L 141.647522 14.541444 
L 144.753254 14.703707 
L 147.858985 14.685863 
L 150.964717 15.155161 
L 154.070449 14.501161 
L 157.176181 14.706249 
L 160.281913 14.626561 
L 163.387644 14.33733 
L 166.493376 14.501716 
L 169.599108 14.508041 
L 172.70484 15.147239 
L 175.810572 14.168295 
L 178.916304 14.513293 
L 185.127767 14.282137 
L 188.233499 14.49866 
L 191.339231 14.387508 
L 194.444963 14.972715 
L 197.550694 14.25527 
L 200.656426 14.991346 
L 203.762158 14.948615 
L 209.973622 14.255984 
L 213.079353 14.830666 
L 216.185085 14.841453 
L 219.290817 14.563029 
L 222.396549 14.575678 
L 225.502281 15.177278 
L 228.608012 14.545963 
L 231.713744 15.094066 
L 234.819476 14.373551 
L 237.925208 14.544091 
L 241.03094 14.512289 
L 244.136671 14.880705 
L 247.242403 14.987103 
L 253.453867 14.525999 
L 256.559599 14.926566 
L 259.66533 14.707038 
L 262.771062 14.193989 
L 265.876794 14.139938 
L 268.982526 14.818941 
L 272.088258 14.282659 
L 275.19399 14.474007 
L 278.299721 15.028389 
L 281.405453 14.898967 
L 287.616917 15.252204 
L 290.722649 15.677848 
L 293.82838 15.154858 
L 296.934112 15.241029 
L 300.039844 15.070675 
L 306.251308 15.410397 
L 309.357039 15.015101 
L 312.462771 15.593034 
L 315.568503 15.027224 
L 318.674235 15.719239 
L 321.779967 15.440381 
L 324.885698 15.369243 
L 327.99143 15.558138 
L 331.097162 15.90366 
L 334.202894 15.465891 
L 340.414357 15.235289 
L 343.520089 16.423459 
L 346.625821 15.949561 
L 349.731553 16.234076 
L 352.837285 16.717225 
L 362.15448 16.457114 
L 365.260212 16.837128 
L 368.365944 16.312698 
L 371.471676 16.55388 
L 374.577407 16.25986 
L 377.683139 16.600258 
L 383.894603 16.563555 
L 387.000335 17.248755 
L 390.106066 16.405559 
L 393.211798 16.851953 
L 396.31753 16.980728 
L 399.423262 16.814422 
L 402.528994 16.484611 
L 405.634725 15.810284 
L 408.740457 16.976268 
L 411.846189 16.329975 
L 414.951921 16.080007 
L 418.057653 16.340801 
L 421.163384 16.755904 
L 424.269116 17.338826 
L 430.48058 16.795446 
L 433.586312 16.330899 
L 436.692043 16.819347 
L 439.797775 16.868508 
L 442.903507 17.23961 
L 446.009239 16.822655 
L 449.114971 17.211838 
L 452.220703 16.897277 
L 455.326434 17.40529 
L 458.432166 17.164069 
L 461.537898 17.50823 
L 467.749362 17.096055 
L 470.855093 17.544649 
L 473.960825 16.817564 
L 477.066557 16.924062 
L 480.172289 16.810579 
L 483.278021 17.315135 
L 489.489484 17.914848 
L 492.595216 17.117982 
L 495.700948 17.491411 
L 498.80668 18.526647 
L 505.018143 18.10119 
L 511.229607 18.795288 
L 514.335339 19.280276 
L 517.44107 19.178418 
L 523.652534 19.943752 
L 529.863998 19.949015 
L 532.969729 19.792703 
L 539.181193 20.926119 
L 542.286925 20.192022 
L 545.392657 20.605399 
L 548.498389 21.516438 
L 551.60412 20.973918 
L 551.60412 20.973918 
" clip-path="url(#pd5e8a27f39)" style="fill: none; stroke: #0072b2; stroke-opacity: 0.95; stroke-width: 1.8; stroke-linecap: square"/>
   </g>
   <g id="line2d_70">
    <path d="M 54.693243 14.454812 
L 57.792763 14.384521 
L 60.898495 15.089521 
L 64.004227 15.217295 
L 67.109958 14.774544 
L 73.321422 14.95802 
L 76.427154 13.952286 
L 79.532886 14.883079 
L 85.744349 14.253837 
L 88.850081 14.730905 
L 91.955813 15.047046 
L 95.061545 14.497475 
L 98.167277 14.627064 
L 101.273008 14.222052 
L 104.37874 14.776691 
L 107.484472 14.914064 
L 110.590204 14.214975 
L 113.695936 14.504273 
L 116.801667 13.997532 
L 119.907399 14.616346 
L 123.013131 14.577954 
L 129.224595 14.275803 
L 132.330326 13.641677 
L 135.436058 14.448575 
L 141.647522 14.170923 
L 144.753254 14.55145 
L 147.858985 15.174195 
L 150.964717 14.349996 
L 154.070449 14.836557 
L 157.176181 14.400018 
L 160.281913 14.248629 
L 163.387644 14.630052 
L 166.493376 14.106279 
L 169.599108 15.295574 
L 172.70484 14.677336 
L 175.810572 14.837527 
L 178.916304 14.876226 
L 182.022035 14.801641 
L 185.127767 14.333114 
L 188.233499 14.932288 
L 197.550694 14.344642 
L 200.656426 14.400105 
L 203.762158 15.118713 
L 206.86789 14.609149 
L 209.973622 14.836535 
L 216.185085 14.604437 
L 219.290817 14.606537 
L 222.396549 14.811126 
L 225.502281 14.321528 
L 228.608012 15.084677 
L 234.819476 14.2772 
L 237.925208 15.038552 
L 241.03094 15.008734 
L 244.136671 14.598851 
L 247.242403 14.647649 
L 250.348135 14.183239 
L 253.453867 14.615749 
L 256.559599 14.695371 
L 259.66533 14.564471 
L 262.771062 14.946438 
L 265.876794 14.214584 
L 268.982526 14.966013 
L 272.088258 14.360606 
L 278.299721 14.959737 
L 281.405453 14.542462 
L 284.511185 14.409487 
L 287.616917 14.133986 
L 293.82838 14.880714 
L 296.934112 14.601907 
L 300.039844 14.654888 
L 303.145576 14.936089 
L 306.251308 14.490772 
L 309.357039 14.942608 
L 312.462771 14.173092 
L 315.568503 15.295159 
L 318.674235 14.05645 
L 321.779967 14.835945 
L 324.885698 15.028679 
L 327.99143 14.588339 
L 334.202894 15.427591 
L 337.308626 14.307197 
L 340.414357 15.48698 
L 346.625821 15.346563 
L 349.731553 14.593706 
L 352.837285 15.220877 
L 355.943016 15.240469 
L 359.048748 15.457931 
L 362.15448 14.802698 
L 365.260212 15.274685 
L 368.365944 14.840763 
L 371.471676 15.492246 
L 374.577407 15.458246 
L 377.683139 15.201772 
L 380.788871 15.164429 
L 383.894603 14.597651 
L 387.000335 15.576237 
L 390.106066 15.645637 
L 393.211798 15.064872 
L 396.31753 15.920242 
L 399.423262 14.983994 
L 402.528994 14.505976 
L 405.634725 14.921904 
L 408.740457 14.997447 
L 411.846189 14.735272 
L 414.951921 15.286447 
L 418.057653 14.92378 
L 421.163384 15.023195 
L 424.269116 15.299646 
L 427.374848 14.857953 
L 430.48058 15.573942 
L 433.586312 15.326018 
L 436.692043 15.420825 
L 439.797775 15.677724 
L 442.903507 15.565174 
L 446.009239 14.979028 
L 452.220703 15.673179 
L 455.326434 14.80942 
L 458.432166 15.62563 
L 461.537898 15.588799 
L 467.749362 15.075537 
L 470.855093 14.892897 
L 473.960825 14.535138 
L 477.066557 15.017416 
L 483.278021 14.991715 
L 486.383752 15.197534 
L 489.489484 15.547661 
L 492.595216 15.483901 
L 495.700948 15.841599 
L 498.80668 15.178706 
L 501.912411 15.060951 
L 505.018143 15.47775 
L 508.123875 14.698235 
L 511.229607 14.862213 
L 514.335339 14.286317 
L 517.44107 14.929056 
L 520.546802 15.333736 
L 523.652534 15.195682 
L 526.758266 16.07377 
L 529.863998 15.287444 
L 532.969729 15.602797 
L 536.075461 15.489586 
L 539.181193 14.591953 
L 542.286925 15.608998 
L 548.498389 15.201282 
L 551.60412 15.470227 
L 551.60412 15.470227 
" clip-path="url(#pd5e8a27f39)" style="fill: none; stroke: #56b4e9; stroke-opacity: 0.95; stroke-width: 1.8; stroke-linecap: square"/>
   </g>
   <g id="line2d_71">
    <path d="M 54.693243 14.682937 
L 57.792763 14.243087 
L 64.004227 14.711903 
L 67.109958 14.466765 
L 70.21569 14.78737 
L 73.321422 14.395375 
L 76.427154 14.132153 
L 79.532886 14.583189 
L 82.638618 15.153386 
L 85.744349 13.844172 
L 88.850081 14.851448 
L 91.955813 14.546466 
L 98.167277 14.431824 
L 101.273008 14.680816 
L 104.37874 14.627051 
L 107.484472 14.775441 
L 116.801667 14.740277 
L 123.013131 14.008238 
L 126.118863 14.621641 
L 129.224595 14.023636 
L 132.330326 14.851369 
L 135.436058 14.556929 
L 138.54179 15.27987 
L 141.647522 14.932665 
L 144.753254 15.405961 
L 147.858985 14.036956 
L 150.964717 13.739685 
L 154.070449 14.862072 
L 160.281913 14.631378 
L 163.387644 14.254432 
L 166.493376 14.613281 
L 172.70484 14.822929 
L 175.810572 14.54994 
L 178.916304 14.516915 
L 182.022035 14.257058 
L 185.127767 14.656809 
L 188.233499 14.673153 
L 191.339231 14.290765 
L 194.444963 14.22526 
L 197.550694 14.463736 
L 203.762158 14.563544 
L 209.973622 14.373837 
L 213.079353 14.770535 
L 216.185085 14.525755 
L 219.290817 15.137361 
L 222.396549 14.335869 
L 225.502281 14.408067 
L 228.608012 15.297338 
L 231.713744 14.575403 
L 234.819476 14.291224 
L 237.925208 14.256959 
L 241.03094 15.021608 
L 244.136671 14.734338 
L 247.242403 14.81064 
L 250.348135 14.561624 
L 253.453867 14.679736 
L 256.559599 14.268817 
L 259.66533 14.638815 
L 262.771062 14.27997 
L 265.876794 14.446431 
L 268.982526 14.80969 
L 272.088258 14.581296 
L 275.19399 15.443229 
L 281.405453 14.844808 
L 284.511185 14.295063 
L 287.616917 15.223668 
L 293.82838 14.448911 
L 296.934112 14.581877 
L 300.039844 14.995948 
L 303.145576 14.568964 
L 306.251308 14.597736 
L 309.357039 15.091309 
L 312.462771 15.248263 
L 315.568503 14.557487 
L 318.674235 15.045398 
L 321.779967 14.093053 
L 324.885698 14.75468 
L 327.99143 14.287653 
L 331.097162 14.694802 
L 334.202894 14.505939 
L 337.308626 14.916082 
L 340.414357 14.597717 
L 343.520089 15.278987 
L 349.731553 14.732528 
L 352.837285 14.88318 
L 355.943016 14.864459 
L 359.048748 15.28181 
L 362.15448 14.582748 
L 365.260212 15.313142 
L 368.365944 14.660396 
L 371.471676 14.611356 
L 377.683139 15.150033 
L 380.788871 15.219707 
L 383.894603 15.566679 
L 387.000335 14.978744 
L 390.106066 15.637949 
L 393.211798 15.587679 
L 396.31753 14.910739 
L 402.528994 14.696457 
L 405.634725 15.146349 
L 408.740457 15.032387 
L 411.846189 15.243208 
L 414.951921 14.934048 
L 418.057653 15.203848 
L 421.163384 15.665134 
L 424.269116 15.539279 
L 427.374848 14.723029 
L 430.48058 15.073702 
L 433.586312 15.078582 
L 436.692043 15.536855 
L 439.797775 15.537526 
L 442.903507 15.325892 
L 446.009239 15.426096 
L 452.220703 15.091293 
L 455.326434 15.225543 
L 458.432166 14.991035 
L 461.537898 15.243325 
L 464.64363 15.164221 
L 467.749362 15.638201 
L 470.855093 15.187116 
L 473.960825 15.779359 
L 477.066557 15.381144 
L 483.278021 15.066142 
L 486.383752 15.843717 
L 489.489484 15.918915 
L 492.595216 15.450424 
L 495.700948 15.24348 
L 498.80668 15.291655 
L 501.912411 15.5301 
L 505.018143 16.122982 
L 508.123875 15.324891 
L 511.229607 15.827626 
L 514.335339 14.82933 
L 517.44107 16.140145 
L 520.546802 15.327758 
L 523.652534 15.38121 
L 526.758266 14.997951 
L 529.863998 15.363974 
L 532.969729 15.209509 
L 539.181193 15.328892 
L 542.286925 15.657409 
L 548.498389 15.063904 
L 551.60412 15.243869 
L 551.60412 15.243869 
" clip-path="url(#pd5e8a27f39)" style="fill: none; stroke: #cc79a7; stroke-opacity: 0.95; stroke-width: 1.8; stroke-linecap: square"/>
   </g>
   <g id="patch_8">
    <path d="M 201.725657 93.438946 
Q 154.724655 116.539958 108.927717 139.04917 
" style="fill: none; stroke: #d55e00; stroke-width: 1.2; stroke-linecap: round"/>
    <path d="M 112.952546 139.076631 
L 108.927717 139.04917 
L 111.364583 135.845784 
" style="fill: none; stroke: #d55e00; stroke-width: 1.2; stroke-linecap: round"/>
   </g>
   <g id="text_15">
    <!-- earlyln transitions -->
    <g style="fill: #d55e00" transform="translate(169.599108 78.537426) scale(0.09 -0.09)">
     <defs>
      <path id="DejaVuSans-Bold-65" d="M 4031 1759 
L 4031 1441 
L 1416 1441 
Q 1456 1047 1700 850 
Q 1944 653 2381 653 
Q 2734 653 3104 758 
Q 3475 863 3866 1075 
L 3866 213 
Q 3469 63 3072 -14 
Q 2675 -91 2278 -91 
Q 1328 -91 801 392 
Q 275 875 275 1747 
Q 275 2603 792 3093 
Q 1309 3584 2216 3584 
Q 3041 3584 3536 3087 
Q 4031 2591 4031 1759 
z
M 2881 2131 
Q 2881 2450 2695 2645 
Q 2509 2841 2209 2841 
Q 1884 2841 1681 2658 
Q 1478 2475 1428 2131 
L 2881 2131 
z
" transform="scale(0.015625)"/>
      <path id="DejaVuSans-Bold-61" d="M 2106 1575 
Q 1756 1575 1579 1456 
Q 1403 1338 1403 1106 
Q 1403 894 1545 773 
Q 1688 653 1941 653 
Q 2256 653 2472 879 
Q 2688 1106 2688 1447 
L 2688 1575 
L 2106 1575 
z
M 3816 1997 
L 3816 0 
L 2688 0 
L 2688 519 
Q 2463 200 2181 54 
Q 1900 -91 1497 -91 
Q 953 -91 614 226 
Q 275 544 275 1050 
Q 275 1666 698 1953 
Q 1122 2241 2028 2241 
L 2688 2241 
L 2688 2328 
Q 2688 2594 2478 2717 
Q 2269 2841 1825 2841 
Q 1466 2841 1156 2769 
Q 847 2697 581 2553 
L 581 3406 
Q 941 3494 1303 3539 
Q 1666 3584 2028 3584 
Q 2975 3584 3395 3211 
Q 3816 2838 3816 1997 
z
" transform="scale(0.015625)"/>
      <path id="DejaVuSans-Bold-72" d="M 3138 2547 
Q 2991 2616 2845 2648 
Q 2700 2681 2553 2681 
Q 2122 2681 1889 2404 
Q 1656 2128 1656 1613 
L 1656 0 
L 538 0 
L 538 3500 
L 1656 3500 
L 1656 2925 
Q 1872 3269 2151 3426 
Q 2431 3584 2822 3584 
Q 2878 3584 2943 3579 
Q 3009 3575 3134 3559 
L 3138 2547 
z
" transform="scale(0.015625)"/>
      <path id="DejaVuSans-Bold-6c" d="M 538 4863 
L 1656 4863 
L 1656 0 
L 538 0 
L 538 4863 
z
" transform="scale(0.015625)"/>
      <path id="DejaVuSans-Bold-79" d="M 78 3500 
L 1197 3500 
L 2138 1125 
L 2938 3500 
L 4056 3500 
L 2584 -331 
Q 2363 -916 2067 -1148 
Q 1772 -1381 1288 -1381 
L 641 -1381 
L 641 -647 
L 991 -647 
Q 1275 -647 1404 -556 
Q 1534 -466 1606 -231 
L 1638 -134 
L 78 3500 
z
" transform="scale(0.015625)"/>
      <path id="DejaVuSans-Bold-6e" d="M 4056 2131 
L 4056 0 
L 2931 0 
L 2931 347 
L 2931 1631 
Q 2931 2084 2911 2256 
Q 2891 2428 2841 2509 
Q 2775 2619 2662 2680 
Q 2550 2741 2406 2741 
Q 2056 2741 1856 2470 
Q 1656 2200 1656 1722 
L 1656 0 
L 538 0 
L 538 3500 
L 1656 3500 
L 1656 2988 
Q 1909 3294 2193 3439 
Q 2478 3584 2822 3584 
Q 3428 3584 3742 3212 
Q 4056 2841 4056 2131 
z
" transform="scale(0.015625)"/>
      <path id="DejaVuSans-Bold-20" transform="scale(0.015625)"/>
      <path id="DejaVuSans-Bold-74" d="M 1759 4494 
L 1759 3500 
L 2913 3500 
L 2913 2700 
L 1759 2700 
L 1759 1216 
Q 1759 972 1856 886 
Q 1953 800 2241 800 
L 2816 800 
L 2816 0 
L 1856 0 
Q 1194 0 917 276 
Q 641 553 641 1216 
L 641 2700 
L 84 2700 
L 84 3500 
L 641 3500 
L 641 4494 
L 1759 4494 
z
" transform="scale(0.015625)"/>
      <path id="DejaVuSans-Bold-73" d="M 3272 3391 
L 3272 2541 
Q 2913 2691 2578 2766 
Q 2244 2841 1947 2841 
Q 1628 2841 1473 2761 
Q 1319 2681 1319 2516 
Q 1319 2381 1436 2309 
Q 1553 2238 1856 2203 
L 2053 2175 
Q 2913 2066 3209 1816 
Q 3506 1566 3506 1031 
Q 3506 472 3093 190 
Q 2681 -91 1863 -91 
Q 1516 -91 1145 -36 
Q 775 19 384 128 
L 384 978 
Q 719 816 1070 734 
Q 1422 653 1784 653 
Q 2113 653 2278 743 
Q 2444 834 2444 1013 
Q 2444 1163 2330 1236 
Q 2216 1309 1875 1350 
L 1678 1375 
Q 931 1469 631 1722 
Q 331 1975 331 2491 
Q 331 3047 712 3315 
Q 1094 3584 1881 3584 
Q 2191 3584 2531 3537 
Q 2872 3491 3272 3391 
z
" transform="scale(0.015625)"/>
      <path id="DejaVuSans-Bold-69" d="M 538 3500 
L 1656 3500 
L 1656 0 
L 538 0 
L 538 3500 
z
M 538 4863 
L 1656 4863 
L 1656 3950 
L 538 3950 
L 538 4863 
z
" transform="scale(0.015625)"/>
      <path id="DejaVuSans-Bold-6f" d="M 2203 2784 
Q 1831 2784 1636 2517 
Q 1441 2250 1441 1747 
Q 1441 1244 1636 976 
Q 1831 709 2203 709 
Q 2569 709 2762 976 
Q 2956 1244 2956 1747 
Q 2956 2250 2762 2517 
Q 2569 2784 2203 2784 
z
M 2203 3584 
Q 3106 3584 3614 3096 
Q 4122 2609 4122 1747 
Q 4122 884 3614 396 
Q 3106 -91 2203 -91 
Q 1297 -91 786 396 
Q 275 884 275 1747 
Q 275 2609 786 3096 
Q 1297 3584 2203 3584 
z
" transform="scale(0.015625)"/>
     </defs>
     <use xlink:href="#DejaVuSans-Bold-65"/>
     <use xlink:href="#DejaVuSans-Bold-61" x="67.822266"/>
     <use xlink:href="#DejaVuSans-Bold-72" x="135.302734"/>
     <use xlink:href="#DejaVuSans-Bold-6c" x="184.619141"/>
     <use xlink:href="#DejaVuSans-Bold-79" x="218.896484"/>
     <use xlink:href="#DejaVuSans-Bold-6c" x="284.082031"/>
     <use xlink:href="#DejaVuSans-Bold-6e" x="318.359375"/>
     <use xlink:href="#DejaVuSans-Bold-20" x="389.550781"/>
     <use xlink:href="#DejaVuSans-Bold-74" x="424.365234"/>
     <use xlink:href="#DejaVuSans-Bold-72" x="472.167969"/>
     <use xlink:href="#DejaVuSans-Bold-61" x="521.484375"/>
     <use xlink:href="#DejaVuSans-Bold-6e" x="588.964844"/>
     <use xlink:href="#DejaVuSans-Bold-73" x="660.15625"/>
     <use xlink:href="#DejaVuSans-Bold-69" x="719.677734"/>
     <use xlink:href="#DejaVuSans-Bold-74" x="753.955078"/>
     <use xlink:href="#DejaVuSans-Bold-69" x="801.757812"/>
     <use xlink:href="#DejaVuSans-Bold-6f" x="836.035156"/>
     <use xlink:href="#DejaVuSans-Bold-6e" x="904.736328"/>
     <use xlink:href="#DejaVuSans-Bold-73" x="975.927734"/>
    </g>
    <!-- here (step 8000–8500) -->
    <g style="fill: #d55e00" transform="translate(169.599108 88.68577) scale(0.09 -0.09)">
     <defs>
      <path id="DejaVuSans-Bold-68" d="M 4056 2131 
L 4056 0 
L 2931 0 
L 2931 347 
L 2931 1625 
Q 2931 2084 2911 2256 
Q 2891 2428 2841 2509 
Q 2775 2619 2662 2680 
Q 2550 2741 2406 2741 
Q 2056 2741 1856 2470 
Q 1656 2200 1656 1722 
L 1656 0 
L 538 0 
L 538 4863 
L 1656 4863 
L 1656 2988 
Q 1909 3294 2193 3439 
Q 2478 3584 2822 3584 
Q 3428 3584 3742 3212 
Q 4056 2841 4056 2131 
z
" transform="scale(0.015625)"/>
      <path id="DejaVuSans-Bold-28" d="M 2413 -844 
L 1484 -844 
Q 1006 -72 778 623 
Q 550 1319 550 2003 
Q 550 2688 779 3389 
Q 1009 4091 1484 4856 
L 2413 4856 
Q 2013 4116 1813 3408 
Q 1613 2700 1613 2009 
Q 1613 1319 1811 609 
Q 2009 -100 2413 -844 
z
" transform="scale(0.015625)"/>
      <path id="DejaVuSans-Bold-70" d="M 1656 506 
L 1656 -1331 
L 538 -1331 
L 538 3500 
L 1656 3500 
L 1656 2988 
Q 1888 3294 2169 3439 
Q 2450 3584 2816 3584 
Q 3463 3584 3878 3070 
Q 4294 2556 4294 1747 
Q 4294 938 3878 423 
Q 3463 -91 2816 -91 
Q 2450 -91 2169 54 
Q 1888 200 1656 506 
z
M 2400 2772 
Q 2041 2772 1848 2508 
Q 1656 2244 1656 1747 
Q 1656 1250 1848 986 
Q 2041 722 2400 722 
Q 2759 722 2948 984 
Q 3138 1247 3138 1747 
Q 3138 2247 2948 2509 
Q 2759 2772 2400 2772 
z
" transform="scale(0.015625)"/>
      <path id="DejaVuSans-Bold-38" d="M 2228 2088 
Q 1891 2088 1709 1903 
Q 1528 1719 1528 1375 
Q 1528 1031 1709 848 
Q 1891 666 2228 666 
Q 2563 666 2741 848 
Q 2919 1031 2919 1375 
Q 2919 1722 2741 1905 
Q 2563 2088 2228 2088 
z
M 1350 2484 
Q 925 2613 709 2878 
Q 494 3144 494 3541 
Q 494 4131 934 4440 
Q 1375 4750 2228 4750 
Q 3075 4750 3515 4442 
Q 3956 4134 3956 3541 
Q 3956 3144 3739 2878 
Q 3522 2613 3097 2484 
Q 3572 2353 3814 2058 
Q 4056 1763 4056 1313 
Q 4056 619 3595 264 
Q 3134 -91 2228 -91 
Q 1319 -91 855 264 
Q 391 619 391 1313 
Q 391 1763 633 2058 
Q 875 2353 1350 2484 
z
M 1631 3419 
Q 1631 3141 1786 2991 
Q 1941 2841 2228 2841 
Q 2509 2841 2662 2991 
Q 2816 3141 2816 3419 
Q 2816 3697 2662 3845 
Q 2509 3994 2228 3994 
Q 1941 3994 1786 3844 
Q 1631 3694 1631 3419 
z
" transform="scale(0.015625)"/>
      <path id="DejaVuSans-Bold-30" d="M 2944 2338 
Q 2944 3213 2780 3570 
Q 2616 3928 2228 3928 
Q 1841 3928 1675 3570 
Q 1509 3213 1509 2338 
Q 1509 1453 1675 1090 
Q 1841 728 2228 728 
Q 2613 728 2778 1090 
Q 2944 1453 2944 2338 
z
M 4147 2328 
Q 4147 1169 3647 539 
Q 3147 -91 2228 -91 
Q 1306 -91 806 539 
Q 306 1169 306 2328 
Q 306 3491 806 4120 
Q 1306 4750 2228 4750 
Q 3147 4750 3647 4120 
Q 4147 3491 4147 2328 
z
" transform="scale(0.015625)"/>
      <path id="DejaVuSans-Bold-2013" d="M 344 2156 
L 2856 2156 
L 2856 1350 
L 344 1350 
L 344 2156 
z
" transform="scale(0.015625)"/>
      <path id="DejaVuSans-Bold-35" d="M 678 4666 
L 3669 4666 
L 3669 3781 
L 1638 3781 
L 1638 3059 
Q 1775 3097 1914 3117 
Q 2053 3138 2203 3138 
Q 3056 3138 3531 2711 
Q 4006 2284 4006 1522 
Q 4006 766 3489 337 
Q 2972 -91 2053 -91 
Q 1656 -91 1267 -14 
Q 878 63 494 219 
L 494 1166 
Q 875 947 1217 837 
Q 1559 728 1863 728 
Q 2300 728 2551 942 
Q 2803 1156 2803 1522 
Q 2803 1891 2551 2103 
Q 2300 2316 1863 2316 
Q 1603 2316 1309 2248 
Q 1016 2181 678 2041 
L 678 4666 
z
" transform="scale(0.015625)"/>
      <path id="DejaVuSans-Bold-29" d="M 513 -844 
Q 913 -100 1113 609 
Q 1313 1319 1313 2009 
Q 1313 2700 1113 3408 
Q 913 4116 513 4856 
L 1441 4856 
Q 1916 4091 2145 3389 
Q 2375 2688 2375 2003 
Q 2375 1319 2147 623 
Q 1919 -72 1441 -844 
L 513 -844 
z
" transform="scale(0.015625)"/>
     </defs>
     <use xlink:href="#DejaVuSans-Bold-68"/>
     <use xlink:href="#DejaVuSans-Bold-65" x="71.191406"/>
     <use xlink:href="#DejaVuSans-Bold-72" x="139.013672"/>
     <use xlink:href="#DejaVuSans-Bold-65" x="188.330078"/>
     <use xlink:href="#DejaVuSans-Bold-20" x="256.152344"/>
     <use xlink:href="#DejaVuSans-Bold-28" x="290.966797"/>
     <use xlink:href="#DejaVuSans-Bold-73" x="336.669922"/>
     <use xlink:href="#DejaVuSans-Bold-74" x="396.191406"/>
     <use xlink:href="#DejaVuSans-Bold-65" x="443.994141"/>
     <use xlink:href="#DejaVuSans-Bold-70" x="511.816406"/>
     <use xlink:href="#DejaVuSans-Bold-20" x="583.398438"/>
     <use xlink:href="#DejaVuSans-Bold-38" x="618.212891"/>
     <use xlink:href="#DejaVuSans-Bold-30" x="687.792969"/>
     <use xlink:href="#DejaVuSans-Bold-30" x="757.373047"/>
     <use xlink:href="#DejaVuSans-Bold-30" x="826.953125"/>
     <use xlink:href="#DejaVuSans-Bold-2013" x="896.533203"/>
     <use xlink:href="#DejaVuSans-Bold-38" x="946.533203"/>
     <use xlink:href="#DejaVuSans-Bold-35" x="1016.113281"/>
     <use xlink:href="#DejaVuSans-Bold-30" x="1085.693359"/>
     <use xlink:href="#DejaVuSans-Bold-30" x="1155.273438"/>
     <use xlink:href="#DejaVuSans-Bold-29" x="1224.853516"/>
    </g>
   </g>
   <g id="line2d_72">
    <path d="M 54.693243 14.73281 
L 57.792763 15.571784 
L 60.898495 21.000441 
L 64.004227 25.988179 
L 70.21569 32.444107 
L 73.321422 33.721567 
L 76.427154 35.571736 
L 79.532886 36.852985 
L 98.167277 37.686839 
L 101.273008 39.61323 
L 104.37874 53.266742 
L 107.484472 159.680578 
L 110.590204 178.172752 
L 113.695936 193.16483 
L 116.801667 206.541338 
L 119.907399 203.652973 
L 123.013131 210.703105 
L 126.118863 208.888856 
L 129.224595 219.518375 
L 132.330326 220.308074 
L 135.436058 220.943951 
L 138.54179 224.342082 
L 141.647522 230.783052 
L 144.753254 231.833419 
L 147.858985 232.510843 
L 150.964717 239.243747 
L 154.070449 247.638021 
L 157.176181 247.94461 
L 160.281913 247.066802 
L 163.387644 261.578944 
L 166.493376 262.593418 
L 169.599108 269.398167 
L 172.70484 268.605703 
L 175.810572 257.860755 
L 178.916304 270.463704 
L 182.022035 269.113794 
L 185.127767 278.589198 
L 188.233499 259.662512 
L 191.339231 275.552104 
L 194.444963 280.210756 
L 197.550694 271.521303 
L 200.656426 294.854688 
L 203.762158 297.425053 
L 206.86789 298.391559 
L 209.973622 300.537423 
L 213.079353 308.009396 
L 216.185085 308.804889 
L 219.290817 310.92729 
L 222.396549 323.295736 
L 225.502281 322.657059 
L 228.608012 317.586042 
L 231.713744 318.959538 
L 234.819476 321.507121 
L 237.925208 325.470897 
L 241.03094 324.532759 
L 244.136671 314.458339 
L 247.242403 318.750209 
L 250.348135 305.277935 
L 253.453867 314.550802 
L 256.559599 324.199012 
L 259.66533 322.481772 
L 262.771062 306.855022 
L 265.876794 300.468141 
L 268.982526 306.384472 
L 272.088258 273.588165 
L 275.19399 294.359488 
L 278.299721 288.62262 
L 281.405453 296.841095 
L 284.511185 293.144812 
L 287.616917 281.997384 
L 290.722649 276.181785 
L 293.82838 272.596394 
L 296.934112 229.574408 
L 300.039844 196.642166 
L 303.145576 129.144454 
L 306.251308 164.214766 
L 309.357039 181.497622 
L 312.462771 183.422482 
L 315.568503 191.649494 
L 318.674235 190.057442 
L 321.779967 189.99648 
L 324.885698 194.22868 
L 327.99143 192.939096 
L 331.097162 205.145819 
L 334.202894 207.298295 
L 337.308626 204.611877 
L 340.414357 207.698869 
L 343.520089 209.217284 
L 346.625821 215.122927 
L 349.731553 223.286819 
L 352.837285 225.670329 
L 355.943016 224.533305 
L 359.048748 221.364134 
L 362.15448 225.875685 
L 365.260212 222.04349 
L 368.365944 235.547289 
L 374.577407 231.581036 
L 377.683139 228.370389 
L 380.788871 230.556775 
L 383.894603 239.783527 
L 387.000335 245.873666 
L 390.106066 239.49927 
L 393.211798 240.366058 
L 396.31753 253.959936 
L 399.423262 234.035804 
L 402.528994 239.934576 
L 405.634725 238.99083 
L 408.740457 244.862411 
L 411.846189 251.853284 
L 414.951921 243.828888 
L 418.057653 255.35886 
L 421.163384 257.865976 
L 424.269116 243.945806 
L 427.374848 253.575821 
L 430.48058 256.106352 
L 433.586312 259.499984 
L 436.692043 251.519525 
L 439.797775 253.868555 
L 442.903507 259.802514 
L 446.009239 264.471888 
L 449.114971 268.701549 
L 452.220703 250.197763 
L 455.326434 257.22414 
L 458.432166 271.400289 
L 461.537898 267.856254 
L 464.64363 280.031017 
L 467.749362 273.466678 
L 470.855093 260.599577 
L 473.960825 275.111981 
L 477.066557 249.461165 
L 480.172289 262.814977 
L 483.278021 259.287305 
L 486.383752 278.476344 
L 489.489484 272.834326 
L 492.595216 265.27324 
L 495.700948 269.112985 
L 498.80668 278.243656 
L 501.912411 257.749609 
L 505.018143 274.143273 
L 508.123875 277.580265 
L 511.229607 246.920465 
L 514.335339 273.381015 
L 517.44107 266.099274 
L 520.546802 265.83033 
L 526.758266 277.860677 
L 529.863998 279.405761 
L 532.969729 280.329924 
L 536.075461 270.980188 
L 539.181193 296.846593 
L 545.392657 284.608622 
L 548.498389 299.12367 
L 551.60412 289.699071 
L 551.60412 289.699071 
" clip-path="url(#pd5e8a27f39)" style="fill: none; stroke: #d55e00; stroke-opacity: 0.95; stroke-width: 2.4; stroke-linecap: square"/>
   </g>
   <g id="legend_1">
    <g id="patch_9">
     <path d="M 321.69037 68.5755 
L 545.16412 68.5755 
Q 547.00412 68.5755 547.00412 66.7355 
L 547.00412 13.64 
Q 547.00412 11.8 545.16412 11.8 
L 321.69037 11.8 
Q 319.85037 11.8 319.85037 13.64 
L 319.85037 66.7355 
Q 319.85037 68.5755 321.69037 68.5755 
z
" style="fill: #faf5e7; opacity: 0.96; stroke: #1a1a1a; stroke-linejoin: miter"/>
    </g>
    <g id="line2d_73">
     <path d="M 323.53037 19.250562 
L 332.73037 19.250562 
L 341.93037 19.250562 
" style="fill: none; stroke: #d55e00; stroke-opacity: 0.95; stroke-width: 2.4; stroke-linecap: square"/>
    </g>
    <g id="text_16">
     <!-- earlyln — RECOVERED (final loss 0.0052) -->
     <g style="fill: #1a1a1a" transform="translate(349.29037 22.470562) scale(0.092 -0.092)">
      <defs>
       <path id="DejaVuSans-79" d="M 2059 -325 
Q 1816 -950 1584 -1140 
Q 1353 -1331 966 -1331 
L 506 -1331 
L 506 -850 
L 844 -850 
Q 1081 -850 1212 -737 
Q 1344 -625 1503 -206 
L 1606 56 
L 191 3500 
L 800 3500 
L 1894 763 
L 2988 3500 
L 3597 3500 
L 2059 -325 
z
" transform="scale(0.015625)"/>
       <path id="DejaVuSans-2014" d="M 313 1978 
L 6088 1978 
L 6088 1528 
L 313 1528 
L 313 1978 
z
" transform="scale(0.015625)"/>
       <path id="DejaVuSans-52" d="M 2841 2188 
Q 3044 2119 3236 1894 
Q 3428 1669 3622 1275 
L 4263 0 
L 3584 0 
L 2988 1197 
Q 2756 1666 2539 1819 
Q 2322 1972 1947 1972 
L 1259 1972 
L 1259 0 
L 628 0 
L 628 4666 
L 2053 4666 
Q 2853 4666 3247 4331 
Q 3641 3997 3641 3322 
Q 3641 2881 3436 2590 
Q 3231 2300 2841 2188 
z
M 1259 4147 
L 1259 2491 
L 2053 2491 
Q 2509 2491 2742 2702 
Q 2975 2913 2975 3322 
Q 2975 3731 2742 3939 
Q 2509 4147 2053 4147 
L 1259 4147 
z
" transform="scale(0.015625)"/>
       <path id="DejaVuSans-45" d="M 628 4666 
L 3578 4666 
L 3578 4134 
L 1259 4134 
L 1259 2753 
L 3481 2753 
L 3481 2222 
L 1259 2222 
L 1259 531 
L 3634 531 
L 3634 0 
L 628 0 
L 628 4666 
z
" transform="scale(0.015625)"/>
       <path id="DejaVuSans-43" d="M 4122 4306 
L 4122 3641 
Q 3803 3938 3442 4084 
Q 3081 4231 2675 4231 
Q 1875 4231 1450 3742 
Q 1025 3253 1025 2328 
Q 1025 1406 1450 917 
Q 1875 428 2675 428 
Q 3081 428 3442 575 
Q 3803 722 4122 1019 
L 4122 359 
Q 3791 134 3420 21 
Q 3050 -91 2638 -91 
Q 1578 -91 968 557 
Q 359 1206 359 2328 
Q 359 3453 968 4101 
Q 1578 4750 2638 4750 
Q 3056 4750 3426 4639 
Q 3797 4528 4122 4306 
z
" transform="scale(0.015625)"/>
       <path id="DejaVuSans-4f" d="M 2522 4238 
Q 1834 4238 1429 3725 
Q 1025 3213 1025 2328 
Q 1025 1447 1429 934 
Q 1834 422 2522 422 
Q 3209 422 3611 934 
Q 4013 1447 4013 2328 
Q 4013 3213 3611 3725 
Q 3209 4238 2522 4238 
z
M 2522 4750 
Q 3503 4750 4090 4092 
Q 4678 3434 4678 2328 
Q 4678 1225 4090 567 
Q 3503 -91 2522 -91 
Q 1538 -91 948 565 
Q 359 1222 359 2328 
Q 359 3434 948 4092 
Q 1538 4750 2522 4750 
z
" transform="scale(0.015625)"/>
       <path id="DejaVuSans-56" d="M 1831 0 
L 50 4666 
L 709 4666 
L 2188 738 
L 3669 4666 
L 4325 4666 
L 2547 0 
L 1831 0 
z
" transform="scale(0.015625)"/>
       <path id="DejaVuSans-44" d="M 1259 4147 
L 1259 519 
L 2022 519 
Q 2988 519 3436 956 
Q 3884 1394 3884 2338 
Q 3884 3275 3436 3711 
Q 2988 4147 2022 4147 
L 1259 4147 
z
M 628 4666 
L 1925 4666 
Q 3281 4666 3915 4102 
Q 4550 3538 4550 2338 
Q 4550 1131 3912 565 
Q 3275 0 1925 0 
L 628 0 
L 628 4666 
z
" transform="scale(0.015625)"/>
       <path id="DejaVuSans-66" d="M 2375 4863 
L 2375 4384 
L 1825 4384 
Q 1516 4384 1395 4259 
Q 1275 4134 1275 3809 
L 1275 3500 
L 2222 3500 
L 2222 3053 
L 1275 3053 
L 1275 0 
L 697 0 
L 697 3053 
L 147 3053 
L 147 3500 
L 697 3500 
L 697 3744 
Q 697 4328 969 4595 
Q 1241 4863 1831 4863 
L 2375 4863 
z
" transform="scale(0.015625)"/>
       <path id="DejaVuSans-2e" d="M 684 794 
L 1344 794 
L 1344 0 
L 684 0 
L 684 794 
z
" transform="scale(0.015625)"/>
      </defs>
      <use xlink:href="#DejaVuSans-65"/>
      <use xlink:href="#DejaVuSans-61" x="61.523438"/>
      <use xlink:href="#DejaVuSans-72" x="122.802734"/>
      <use xlink:href="#DejaVuSans-6c" x="163.916016"/>
      <use xlink:href="#DejaVuSans-79" x="191.699219"/>
      <use xlink:href="#DejaVuSans-6c" x="250.878906"/>
      <use xlink:href="#DejaVuSans-6e" x="278.662109"/>
      <use xlink:href="#DejaVuSans-20" x="342.041016"/>
      <use xlink:href="#DejaVuSans-2014" x="373.828125"/>
      <use xlink:href="#DejaVuSans-20" x="473.828125"/>
      <use xlink:href="#DejaVuSans-52" x="505.615234"/>
      <use xlink:href="#DejaVuSans-45" x="575.097656"/>
      <use xlink:href="#DejaVuSans-43" x="638.28125"/>
      <use xlink:href="#DejaVuSans-4f" x="708.105469"/>
      <use xlink:href="#DejaVuSans-56" x="785.066406"/>
      <use xlink:href="#DejaVuSans-45" x="853.474609"/>
      <use xlink:href="#DejaVuSans-52" x="916.658203"/>
      <use xlink:href="#DejaVuSans-45" x="986.140625"/>
      <use xlink:href="#DejaVuSans-44" x="1049.324219"/>
      <use xlink:href="#DejaVuSans-20" x="1126.326172"/>
      <use xlink:href="#DejaVuSans-28" x="1158.113281"/>
      <use xlink:href="#DejaVuSans-66" x="1197.126953"/>
      <use xlink:href="#DejaVuSans-69" x="1232.332031"/>
      <use xlink:href="#DejaVuSans-6e" x="1260.115234"/>
      <use xlink:href="#DejaVuSans-61" x="1323.494141"/>
      <use xlink:href="#DejaVuSans-6c" x="1384.773438"/>
      <use xlink:href="#DejaVuSans-20" x="1412.556641"/>
      <use xlink:href="#DejaVuSans-6c" x="1444.34375"/>
      <use xlink:href="#DejaVuSans-6f" x="1472.126953"/>
      <use xlink:href="#DejaVuSans-73" x="1533.308594"/>
      <use xlink:href="#DejaVuSans-73" x="1585.408203"/>
      <use xlink:href="#DejaVuSans-20" x="1637.507812"/>
      <use xlink:href="#DejaVuSans-30" x="1669.294922"/>
      <use xlink:href="#DejaVuSans-2e" x="1732.917969"/>
      <use xlink:href="#DejaVuSans-30" x="1764.705078"/>
      <use xlink:href="#DejaVuSans-30" x="1828.328125"/>
      <use xlink:href="#DejaVuSans-35" x="1891.951172"/>
      <use xlink:href="#DejaVuSans-32" x="1955.574219"/>
      <use xlink:href="#DejaVuSans-29" x="2019.197266"/>
     </g>
    </g>
    <g id="line2d_74">
     <path d="M 323.53037 32.754437 
L 332.73037 32.754437 
L 341.93037 32.754437 
" style="fill: none; stroke: #0072b2; stroke-opacity: 0.95; stroke-width: 1.8; stroke-linecap: square"/>
    </g>
    <g id="text_17">
     <!-- baseline (control) — FAIL (final loss 0.884) -->
     <g style="fill: #1a1a1a" transform="translate(349.29037 35.974437) scale(0.092 -0.092)">
      <defs>
       <path id="DejaVuSans-46" d="M 628 4666 
L 3309 4666 
L 3309 4134 
L 1259 4134 
L 1259 2759 
L 3109 2759 
L 3109 2228 
L 1259 2228 
L 1259 0 
L 628 0 
L 628 4666 
z
" transform="scale(0.015625)"/>
       <path id="DejaVuSans-41" d="M 2188 4044 
L 1331 1722 
L 3047 1722 
L 2188 4044 
z
M 1831 4666 
L 2547 4666 
L 4325 0 
L 3669 0 
L 3244 1197 
L 1141 1197 
L 716 0 
L 50 0 
L 1831 4666 
z
" transform="scale(0.015625)"/>
       <path id="DejaVuSans-49" d="M 628 4666 
L 1259 4666 
L 1259 0 
L 628 0 
L 628 4666 
z
" transform="scale(0.015625)"/>
       <path id="DejaVuSans-4c" d="M 628 4666 
L 1259 4666 
L 1259 531 
L 3531 531 
L 3531 0 
L 628 0 
L 628 4666 
z
" transform="scale(0.015625)"/>
      </defs>
      <use xlink:href="#DejaVuSans-62"/>
      <use xlink:href="#DejaVuSans-61" x="63.476562"/>
      <use xlink:href="#DejaVuSans-73" x="124.755859"/>
      <use xlink:href="#DejaVuSans-65" x="176.855469"/>
      <use xlink:href="#DejaVuSans-6c" x="238.378906"/>
      <use xlink:href="#DejaVuSans-69" x="266.162109"/>
      <use xlink:href="#DejaVuSans-6e" x="293.945312"/>
      <use xlink:href="#DejaVuSans-65" x="357.324219"/>
      <use xlink:href="#DejaVuSans-20" x="418.847656"/>
      <use xlink:href="#DejaVuSans-28" x="450.634766"/>
      <use xlink:href="#DejaVuSans-63" x="489.648438"/>
      <use xlink:href="#DejaVuSans-6f" x="544.628906"/>
      <use xlink:href="#DejaVuSans-6e" x="605.810547"/>
      <use xlink:href="#DejaVuSans-74" x="669.189453"/>
      <use xlink:href="#DejaVuSans-72" x="708.398438"/>
      <use xlink:href="#DejaVuSans-6f" x="747.261719"/>
      <use xlink:href="#DejaVuSans-6c" x="808.443359"/>
      <use xlink:href="#DejaVuSans-29" x="836.226562"/>
      <use xlink:href="#DejaVuSans-20" x="875.240234"/>
      <use xlink:href="#DejaVuSans-2014" x="907.027344"/>
      <use xlink:href="#DejaVuSans-20" x="1007.027344"/>
      <use xlink:href="#DejaVuSans-46" x="1038.814453"/>
      <use xlink:href="#DejaVuSans-41" x="1087.208984"/>
      <use xlink:href="#DejaVuSans-49" x="1155.617188"/>
      <use xlink:href="#DejaVuSans-4c" x="1185.109375"/>
      <use xlink:href="#DejaVuSans-20" x="1240.822266"/>
      <use xlink:href="#DejaVuSans-28" x="1272.609375"/>
      <use xlink:href="#DejaVuSans-66" x="1311.623047"/>
      <use xlink:href="#DejaVuSans-69" x="1346.828125"/>
      <use xlink:href="#DejaVuSans-6e" x="1374.611328"/>
      <use xlink:href="#DejaVuSans-61" x="1437.990234"/>
      <use xlink:href="#DejaVuSans-6c" x="1499.269531"/>
      <use xlink:href="#DejaVuSans-20" x="1527.052734"/>
      <use xlink:href="#DejaVuSans-6c" x="1558.839844"/>
      <use xlink:href="#DejaVuSans-6f" x="1586.623047"/>
      <use xlink:href="#DejaVuSans-73" x="1647.804688"/>
      <use xlink:href="#DejaVuSans-73" x="1699.904297"/>
      <use xlink:href="#DejaVuSans-20" x="1752.003906"/>
      <use xlink:href="#DejaVuSans-30" x="1783.791016"/>
      <use xlink:href="#DejaVuSans-2e" x="1847.414062"/>
      <use xlink:href="#DejaVuSans-38" x="1879.201172"/>
      <use xlink:href="#DejaVuSans-38" x="1942.824219"/>
      <use xlink:href="#DejaVuSans-34" x="2006.447266"/>
      <use xlink:href="#DejaVuSans-29" x="2070.070312"/>
     </g>
    </g>
    <g id="line2d_75">
     <path d="M 323.53037 46.258312 
L 332.73037 46.258312 
L 341.93037 46.258312 
" style="fill: none; stroke: #56b4e9; stroke-opacity: 0.95; stroke-width: 1.8; stroke-linecap: square"/>
    </g>
    <g id="text_18">
     <!-- warmup — FAIL (final loss 0.982) -->
     <g style="fill: #1a1a1a" transform="translate(349.29037 49.478312) scale(0.092 -0.092)">
      <defs>
       <path id="DejaVuSans-77" d="M 269 3500 
L 844 3500 
L 1563 769 
L 2278 3500 
L 2956 3500 
L 3675 769 
L 4391 3500 
L 4966 3500 
L 4050 0 
L 3372 0 
L 2619 2869 
L 1863 0 
L 1184 0 
L 269 3500 
z
" transform="scale(0.015625)"/>
       <path id="DejaVuSans-39" d="M 703 97 
L 703 672 
Q 941 559 1184 500 
Q 1428 441 1663 441 
Q 2288 441 2617 861 
Q 2947 1281 2994 2138 
Q 2813 1869 2534 1725 
Q 2256 1581 1919 1581 
Q 1219 1581 811 2004 
Q 403 2428 403 3163 
Q 403 3881 828 4315 
Q 1253 4750 1959 4750 
Q 2769 4750 3195 4129 
Q 3622 3509 3622 2328 
Q 3622 1225 3098 567 
Q 2575 -91 1691 -91 
Q 1453 -91 1209 -44 
Q 966 3 703 97 
z
M 1959 2075 
Q 2384 2075 2632 2365 
Q 2881 2656 2881 3163 
Q 2881 3666 2632 3958 
Q 2384 4250 1959 4250 
Q 1534 4250 1286 3958 
Q 1038 3666 1038 3163 
Q 1038 2656 1286 2365 
Q 1534 2075 1959 2075 
z
" transform="scale(0.015625)"/>
      </defs>
      <use xlink:href="#DejaVuSans-77"/>
      <use xlink:href="#DejaVuSans-61" x="81.787109"/>
      <use xlink:href="#DejaVuSans-72" x="143.066406"/>
      <use xlink:href="#DejaVuSans-6d" x="182.429688"/>
      <use xlink:href="#DejaVuSans-75" x="279.841797"/>
      <use xlink:href="#DejaVuSans-70" x="343.220703"/>
      <use xlink:href="#DejaVuSans-20" x="406.697266"/>
      <use xlink:href="#DejaVuSans-2014" x="438.484375"/>
      <use xlink:href="#DejaVuSans-20" x="538.484375"/>
      <use xlink:href="#DejaVuSans-46" x="570.271484"/>
      <use xlink:href="#DejaVuSans-41" x="618.666016"/>
      <use xlink:href="#DejaVuSans-49" x="687.074219"/>
      <use xlink:href="#DejaVuSans-4c" x="716.566406"/>
      <use xlink:href="#DejaVuSans-20" x="772.279297"/>
      <use xlink:href="#DejaVuSans-28" x="804.066406"/>
      <use xlink:href="#DejaVuSans-66" x="843.080078"/>
      <use xlink:href="#DejaVuSans-69" x="878.285156"/>
      <use xlink:href="#DejaVuSans-6e" x="906.068359"/>
      <use xlink:href="#DejaVuSans-61" x="969.447266"/>
      <use xlink:href="#DejaVuSans-6c" x="1030.726562"/>
      <use xlink:href="#DejaVuSans-20" x="1058.509766"/>
      <use xlink:href="#DejaVuSans-6c" x="1090.296875"/>
      <use xlink:href="#DejaVuSans-6f" x="1118.080078"/>
      <use xlink:href="#DejaVuSans-73" x="1179.261719"/>
      <use xlink:href="#DejaVuSans-73" x="1231.361328"/>
      <use xlink:href="#DejaVuSans-20" x="1283.460938"/>
      <use xlink:href="#DejaVuSans-30" x="1315.248047"/>
      <use xlink:href="#DejaVuSans-2e" x="1378.871094"/>
      <use xlink:href="#DejaVuSans-39" x="1410.658203"/>
      <use xlink:href="#DejaVuSans-38" x="1474.28125"/>
      <use xlink:href="#DejaVuSans-32" x="1537.904297"/>
      <use xlink:href="#DejaVuSans-29" x="1601.527344"/>
     </g>
    </g>
    <g id="line2d_76">
     <path d="M 323.53037 59.762187 
L 332.73037 59.762187 
L 341.93037 59.762187 
" style="fill: none; stroke: #cc79a7; stroke-opacity: 0.95; stroke-width: 1.8; stroke-linecap: square"/>
    </g>
    <g id="text_19">
     <!-- curriculum — FAIL (final loss 0.986) -->
     <g style="fill: #1a1a1a" transform="translate(349.29037 62.982187) scale(0.092 -0.092)">
      <use xlink:href="#DejaVuSans-63"/>
      <use xlink:href="#DejaVuSans-75" x="54.980469"/>
      <use xlink:href="#DejaVuSans-72" x="118.359375"/>
      <use xlink:href="#DejaVuSans-72" x="157.722656"/>
      <use xlink:href="#DejaVuSans-69" x="198.835938"/>
      <use xlink:href="#DejaVuSans-63" x="226.619141"/>
      <use xlink:href="#DejaVuSans-75" x="281.599609"/>
      <use xlink:href="#DejaVuSans-6c" x="344.978516"/>
      <use xlink:href="#DejaVuSans-75" x="372.761719"/>
      <use xlink:href="#DejaVuSans-6d" x="436.140625"/>
      <use xlink:href="#DejaVuSans-20" x="533.552734"/>
      <use xlink:href="#DejaVuSans-2014" x="565.339844"/>
      <use xlink:href="#DejaVuSans-20" x="665.339844"/>
      <use xlink:href="#DejaVuSans-46" x="697.126953"/>
      <use xlink:href="#DejaVuSans-41" x="745.521484"/>
      <use xlink:href="#DejaVuSans-49" x="813.929688"/>
      <use xlink:href="#DejaVuSans-4c" x="843.421875"/>
      <use xlink:href="#DejaVuSans-20" x="899.134766"/>
      <use xlink:href="#DejaVuSans-28" x="930.921875"/>
      <use xlink:href="#DejaVuSans-66" x="969.935547"/>
      <use xlink:href="#DejaVuSans-69" x="1005.140625"/>
      <use xlink:href="#DejaVuSans-6e" x="1032.923828"/>
      <use xlink:href="#DejaVuSans-61" x="1096.302734"/>
      <use xlink:href="#DejaVuSans-6c" x="1157.582031"/>
      <use xlink:href="#DejaVuSans-20" x="1185.365234"/>
      <use xlink:href="#DejaVuSans-6c" x="1217.152344"/>
      <use xlink:href="#DejaVuSans-6f" x="1244.935547"/>
      <use xlink:href="#DejaVuSans-73" x="1306.117188"/>
      <use xlink:href="#DejaVuSans-73" x="1358.216797"/>
      <use xlink:href="#DejaVuSans-20" x="1410.316406"/>
      <use xlink:href="#DejaVuSans-30" x="1442.103516"/>
      <use xlink:href="#DejaVuSans-2e" x="1505.726562"/>
      <use xlink:href="#DejaVuSans-39" x="1537.513672"/>
      <use xlink:href="#DejaVuSans-38" x="1601.136719"/>
      <use xlink:href="#DejaVuSans-36" x="1664.759766"/>
      <use xlink:href="#DejaVuSans-29" x="1728.382812"/>
     </g>
    </g>
   </g>
  </g>
 </g>
 <defs>
  <clipPath id="pd5e8a27f39">
   <rect x="54.687031" y="7.2" width="496.917089" height="303.24"/>
  </clipPath>
 </defs>
</svg>
