<?xml version="1.0" encoding="utf-8" standalone="no"?>
<!DOCTYPE svg PUBLIC "-//W3C//DTD SVG 1.1//EN"
  "http://www.w3.org/Graphics/SVG/1.1/DTD/svg11.dtd">
<svg xmlns:xlink="http://www.w3.org/1999/xlink" width="760.542375pt" height="331.204594pt" viewBox="0 0 760.542375 331.204594" xmlns="http://www.w3.org/2000/svg" version="1.1">
 <metadata>
  <rdf:RDF xmlns:dc="http://purl.org/dc/elements/1.1/" xmlns:cc="http://creativecommons.org/ns#" xmlns:rdf="http://www.w3.org/1999/02/22-rdf-syntax-ns#">
   <cc:Work>
    <dc:type rdf:resource="http://purl.org/dc/dcmitype/StillImage"/>
    <dc:date>2026-07-11T21:23:34.584058</dc:date>
    <dc:format>image/svg+xml</dc:format>
    <dc:creator>
     <cc:Agent>
      <dc:title>Matplotlib v3.9.4, https://matplotlib.org/</dc:title>
     </cc:Agent>
    </dc:creator>
   </cc:Work>
  </rdf:RDF>
 </metadata>
 <defs>
  <style type="text/css">*{stroke-linejoin: round; stroke-linecap: butt}</style>
 </defs>
 <g id="figure_1">
  <g id="patch_1">
   <path d="M 0 331.204594 
L 760.542375 331.204594 
L 760.542375 0 
L 0 0 
z
" style="fill: #faf5e7"/>
  </g>
  <g id="axes_1">
   <g id="patch_2">
    <path d="M 104.272 261.768 
L 535.392 261.768 
L 535.392 7.2 
L 104.272 7.2 
z
" style="fill: #faf5e7"/>
   </g>
   <g id="matplotlib.axis_1">
    <g id="xtick_1">
     <g id="line2d_1">
      <path d="M 195.558643 261.768 
L 195.558643 7.2 
" clip-path="url(#pff092d748d)" style="fill: none; stroke: #1a1a1a; stroke-opacity: 0.25; stroke-width: 0.5; stroke-linecap: square"/>
     </g>
     <g id="line2d_2">
      <defs>
       <path id="m59249df199" d="M 0 0 
L 0 3.5 
" style="stroke: #1a1a1a; stroke-width: 0.8"/>
      </defs>
      <g>
       <use xlink:href="#m59249df199" x="195.558643" y="261.768" style="fill: #1a1a1a; stroke: #1a1a1a; stroke-width: 0.8"/>
      </g>
     </g>
     <g id="text_1">
      <!-- $\mathdefault{10^{3}}$ -->
      <g style="fill: #1a1a1a" transform="translate(186.758643 276.366437) scale(0.1 -0.1)">
       <defs>
        <path id="DejaVuSans-31" d="M 794 531 
L 1825 531 
L 1825 4091 
L 703 3866 
L 703 4441 
L 1819 4666 
L 2450 4666 
L 2450 531 
L 3481 531 
L 3481 0 
L 794 0 
L 794 531 
z
" transform="scale(0.015625)"/>
        <path id="DejaVuSans-30" d="M 2034 4250 
Q 1547 4250 1301 3770 
Q 1056 3291 1056 2328 
Q 1056 1369 1301 889 
Q 1547 409 2034 409 
Q 2525 409 2770 889 
Q 3016 1369 3016 2328 
Q 3016 3291 2770 3770 
Q 2525 4250 2034 4250 
z
M 2034 4750 
Q 2819 4750 3233 4129 
Q 3647 3509 3647 2328 
Q 3647 1150 3233 529 
Q 2819 -91 2034 -91 
Q 1250 -91 836 529 
Q 422 1150 422 2328 
Q 422 3509 836 4129 
Q 1250 4750 2034 4750 
z
" transform="scale(0.015625)"/>
        <path id="DejaVuSans-33" d="M 2597 2516 
Q 3050 2419 3304 2112 
Q 3559 1806 3559 1356 
Q 3559 666 3084 287 
Q 2609 -91 1734 -91 
Q 1441 -91 1130 -33 
Q 819 25 488 141 
L 488 750 
Q 750 597 1062 519 
Q 1375 441 1716 441 
Q 2309 441 2620 675 
Q 2931 909 2931 1356 
Q 2931 1769 2642 2001 
Q 2353 2234 1838 2234 
L 1294 2234 
L 1294 2753 
L 1863 2753 
Q 2328 2753 2575 2939 
Q 2822 3125 2822 3475 
Q 2822 3834 2567 4026 
Q 2313 4219 1838 4219 
Q 1578 4219 1281 4162 
Q 984 4106 628 3988 
L 628 4550 
Q 988 4650 1302 4700 
Q 1616 4750 1894 4750 
Q 2613 4750 3031 4423 
Q 3450 4097 3450 3541 
Q 3450 3153 3228 2886 
Q 3006 2619 2597 2516 
z
" transform="scale(0.015625)"/>
       </defs>
       <use xlink:href="#DejaVuSans-31" transform="translate(0 0.765625)"/>
       <use xlink:href="#DejaVuSans-30" transform="translate(63.623047 0.765625)"/>
       <use xlink:href="#DejaVuSans-33" transform="translate(128.203125 39.046875) scale(0.7)"/>
      </g>
     </g>
    </g>
    <g id="xtick_2">
     <g id="line2d_3">
      <path d="M 326.160304 261.768 
L 326.160304 7.2 
" clip-path="url(#pff092d748d)" style="fill: none; stroke: #1a1a1a; stroke-opacity: 0.25; stroke-width: 0.5; stroke-linecap: square"/>
     </g>
     <g id="line2d_4">
      <g>
       <use xlink:href="#m59249df199" x="326.160304" y="261.768" style="fill: #1a1a1a; stroke: #1a1a1a; stroke-width: 0.8"/>
      </g>
     </g>
     <g id="text_2">
      <!-- $\mathdefault{10^{4}}$ -->
      <g style="fill: #1a1a1a" transform="translate(317.360304 276.366437) scale(0.1 -0.1)">
       <defs>
        <path id="DejaVuSans-34" d="M 2419 4116 
L 825 1625 
L 2419 1625 
L 2419 4116 
z
M 2253 4666 
L 3047 4666 
L 3047 1625 
L 3713 1625 
L 3713 1100 
L 3047 1100 
L 3047 0 
L 2419 0 
L 2419 1100 
L 313 1100 
L 313 1709 
L 2253 4666 
z
" transform="scale(0.015625)"/>
       </defs>
       <use xlink:href="#DejaVuSans-31" transform="translate(0 0.684375)"/>
       <use xlink:href="#DejaVuSans-30" transform="translate(63.623047 0.684375)"/>
       <use xlink:href="#DejaVuSans-34" transform="translate(128.203125 38.965625) scale(0.7)"/>
      </g>
     </g>
    </g>
    <g id="xtick_3">
     <g id="line2d_5">
      <path d="M 456.761965 261.768 
L 456.761965 7.2 
" clip-path="url(#pff092d748d)" style="fill: none; stroke: #1a1a1a; stroke-opacity: 0.25; stroke-width: 0.5; stroke-linecap: square"/>
     </g>
     <g id="line2d_6">
      <g>
       <use xlink:href="#m59249df199" x="456.761965" y="261.768" style="fill: #1a1a1a; stroke: #1a1a1a; stroke-width: 0.8"/>
      </g>
     </g>
     <g id="text_3">
      <!-- $\mathdefault{10^{5}}$ -->
      <g style="fill: #1a1a1a" transform="translate(447.961965 276.366437) scale(0.1 -0.1)">
       <defs>
        <path id="DejaVuSans-35" d="M 691 4666 
L 3169 4666 
L 3169 4134 
L 1269 4134 
L 1269 2991 
Q 1406 3038 1543 3061 
Q 1681 3084 1819 3084 
Q 2600 3084 3056 2656 
Q 3513 2228 3513 1497 
Q 3513 744 3044 326 
Q 2575 -91 1722 -91 
Q 1428 -91 1123 -41 
Q 819 9 494 109 
L 494 744 
Q 775 591 1075 516 
Q 1375 441 1709 441 
Q 2250 441 2565 725 
Q 2881 1009 2881 1497 
Q 2881 1984 2565 2268 
Q 2250 2553 1709 2553 
Q 1456 2553 1204 2497 
Q 953 2441 691 2322 
L 691 4666 
z
" transform="scale(0.015625)"/>
       </defs>
       <use xlink:href="#DejaVuSans-31" transform="translate(0 0.684375)"/>
       <use xlink:href="#DejaVuSans-30" transform="translate(63.623047 0.684375)"/>
       <use xlink:href="#DejaVuSans-35" transform="translate(128.203125 38.965625) scale(0.7)"/>
      </g>
     </g>
    </g>
    <g id="xtick_4">
     <g id="line2d_7">
      <defs>
       <path id="m9ef9fe24f5" d="M 0 0 
L 0 2 
" style="stroke: #1a1a1a; stroke-width: 0.6"/>
      </defs>
      <g>
       <use xlink:href="#m9ef9fe24f5" x="104.272" y="261.768" style="fill: #1a1a1a; stroke: #1a1a1a; stroke-width: 0.6"/>
      </g>
     </g>
    </g>
    <g id="xtick_5">
     <g id="line2d_8">
      <g>
       <use xlink:href="#m9ef9fe24f5" x="127.269811" y="261.768" style="fill: #1a1a1a; stroke: #1a1a1a; stroke-width: 0.6"/>
      </g>
     </g>
    </g>
    <g id="xtick_6">
     <g id="line2d_9">
      <g>
       <use xlink:href="#m9ef9fe24f5" x="143.587017" y="261.768" style="fill: #1a1a1a; stroke: #1a1a1a; stroke-width: 0.6"/>
      </g>
     </g>
    </g>
    <g id="xtick_7">
     <g id="line2d_10">
      <g>
       <use xlink:href="#m9ef9fe24f5" x="156.243626" y="261.768" style="fill: #1a1a1a; stroke: #1a1a1a; stroke-width: 0.6"/>
      </g>
     </g>
    </g>
    <g id="xtick_8">
     <g id="line2d_11">
      <g>
       <use xlink:href="#m9ef9fe24f5" x="166.584828" y="261.768" style="fill: #1a1a1a; stroke: #1a1a1a; stroke-width: 0.6"/>
      </g>
     </g>
    </g>
    <g id="xtick_9">
     <g id="line2d_12">
      <g>
       <use xlink:href="#m9ef9fe24f5" x="175.32819" y="261.768" style="fill: #1a1a1a; stroke: #1a1a1a; stroke-width: 0.6"/>
      </g>
     </g>
    </g>
    <g id="xtick_10">
     <g id="line2d_13">
      <g>
       <use xlink:href="#m9ef9fe24f5" x="182.902035" y="261.768" style="fill: #1a1a1a; stroke: #1a1a1a; stroke-width: 0.6"/>
      </g>
     </g>
    </g>
    <g id="xtick_11">
     <g id="line2d_14">
      <g>
       <use xlink:href="#m9ef9fe24f5" x="189.582639" y="261.768" style="fill: #1a1a1a; stroke: #1a1a1a; stroke-width: 0.6"/>
      </g>
     </g>
    </g>
    <g id="xtick_12">
     <g id="line2d_15">
      <g>
       <use xlink:href="#m9ef9fe24f5" x="234.873661" y="261.768" style="fill: #1a1a1a; stroke: #1a1a1a; stroke-width: 0.6"/>
      </g>
     </g>
    </g>
    <g id="xtick_13">
     <g id="line2d_16">
      <g>
       <use xlink:href="#m9ef9fe24f5" x="257.871472" y="261.768" style="fill: #1a1a1a; stroke: #1a1a1a; stroke-width: 0.6"/>
      </g>
     </g>
    </g>
    <g id="xtick_14">
     <g id="line2d_17">
      <g>
       <use xlink:href="#m9ef9fe24f5" x="274.188678" y="261.768" style="fill: #1a1a1a; stroke: #1a1a1a; stroke-width: 0.6"/>
      </g>
     </g>
    </g>
    <g id="xtick_15">
     <g id="line2d_18">
      <g>
       <use xlink:href="#m9ef9fe24f5" x="286.845287" y="261.768" style="fill: #1a1a1a; stroke: #1a1a1a; stroke-width: 0.6"/>
      </g>
     </g>
    </g>
    <g id="xtick_16">
     <g id="line2d_19">
      <g>
       <use xlink:href="#m9ef9fe24f5" x="297.186489" y="261.768" style="fill: #1a1a1a; stroke: #1a1a1a; stroke-width: 0.6"/>
      </g>
     </g>
    </g>
    <g id="xtick_17">
     <g id="line2d_20">
      <g>
       <use xlink:href="#m9ef9fe24f5" x="305.929851" y="261.768" style="fill: #1a1a1a; stroke: #1a1a1a; stroke-width: 0.6"/>
      </g>
     </g>
    </g>
    <g id="xtick_18">
     <g id="line2d_21">
      <g>
       <use xlink:href="#m9ef9fe24f5" x="313.503696" y="261.768" style="fill: #1a1a1a; stroke: #1a1a1a; stroke-width: 0.6"/>
      </g>
     </g>
    </g>
    <g id="xtick_19">
     <g id="line2d_22">
      <g>
       <use xlink:href="#m9ef9fe24f5" x="320.1843" y="261.768" style="fill: #1a1a1a; stroke: #1a1a1a; stroke-width: 0.6"/>
      </g>
     </g>
    </g>
    <g id="xtick_20">
     <g id="line2d_23">
      <g>
       <use xlink:href="#m9ef9fe24f5" x="365.475322" y="261.768" style="fill: #1a1a1a; stroke: #1a1a1a; stroke-width: 0.6"/>
      </g>
     </g>
    </g>
    <g id="xtick_21">
     <g id="line2d_24">
      <g>
       <use xlink:href="#m9ef9fe24f5" x="388.473133" y="261.768" style="fill: #1a1a1a; stroke: #1a1a1a; stroke-width: 0.6"/>
      </g>
     </g>
    </g>
    <g id="xtick_22">
     <g id="line2d_25">
      <g>
       <use xlink:href="#m9ef9fe24f5" x="404.790339" y="261.768" style="fill: #1a1a1a; stroke: #1a1a1a; stroke-width: 0.6"/>
      </g>
     </g>
    </g>
    <g id="xtick_23">
     <g id="line2d_26">
      <g>
       <use xlink:href="#m9ef9fe24f5" x="417.446948" y="261.768" style="fill: #1a1a1a; stroke: #1a1a1a; stroke-width: 0.6"/>
      </g>
     </g>
    </g>
    <g id="xtick_24">
     <g id="line2d_27">
      <g>
       <use xlink:href="#m9ef9fe24f5" x="427.78815" y="261.768" style="fill: #1a1a1a; stroke: #1a1a1a; stroke-width: 0.6"/>
      </g>
     </g>
    </g>
    <g id="xtick_25">
     <g id="line2d_28">
      <g>
       <use xlink:href="#m9ef9fe24f5" x="436.531512" y="261.768" style="fill: #1a1a1a; stroke: #1a1a1a; stroke-width: 0.6"/>
      </g>
     </g>
    </g>
    <g id="xtick_26">
     <g id="line2d_29">
      <g>
       <use xlink:href="#m9ef9fe24f5" x="444.105357" y="261.768" style="fill: #1a1a1a; stroke: #1a1a1a; stroke-width: 0.6"/>
      </g>
     </g>
    </g>
    <g id="xtick_27">
     <g id="line2d_30">
      <g>
       <use xlink:href="#m9ef9fe24f5" x="450.785961" y="261.768" style="fill: #1a1a1a; stroke: #1a1a1a; stroke-width: 0.6"/>
      </g>
     </g>
    </g>
    <g id="xtick_28">
     <g id="line2d_31">
      <g>
       <use xlink:href="#m9ef9fe24f5" x="496.076983" y="261.768" style="fill: #1a1a1a; stroke: #1a1a1a; stroke-width: 0.6"/>
      </g>
     </g>
    </g>
    <g id="xtick_29">
     <g id="line2d_32">
      <g>
       <use xlink:href="#m9ef9fe24f5" x="519.074793" y="261.768" style="fill: #1a1a1a; stroke: #1a1a1a; stroke-width: 0.6"/>
      </g>
     </g>
    </g>
    <g id="xtick_30">
     <g id="line2d_33">
      <g>
       <use xlink:href="#m9ef9fe24f5" x="535.392" y="261.768" style="fill: #1a1a1a; stroke: #1a1a1a; stroke-width: 0.6"/>
      </g>
     </g>
    </g>
    <g id="text_4">
     <!-- parameters per projection (d = 16, log scale) -->
     <g style="fill: #1a1a1a" transform="translate(206.708562 294.044562) scale(0.1 -0.1)">
      <defs>
       <path id="DejaVuSans-70" d="M 1159 525 
L 1159 -1331 
L 581 -1331 
L 581 3500 
L 1159 3500 
L 1159 2969 
Q 1341 3281 1617 3432 
Q 1894 3584 2278 3584 
Q 2916 3584 3314 3078 
Q 3713 2572 3713 1747 
Q 3713 922 3314 415 
Q 2916 -91 2278 -91 
Q 1894 -91 1617 61 
Q 1341 213 1159 525 
z
M 3116 1747 
Q 3116 2381 2855 2742 
Q 2594 3103 2138 3103 
Q 1681 3103 1420 2742 
Q 1159 2381 1159 1747 
Q 1159 1113 1420 752 
Q 1681 391 2138 391 
Q 2594 391 2855 752 
Q 3116 1113 3116 1747 
z
" transform="scale(0.015625)"/>
       <path id="DejaVuSans-61" d="M 2194 1759 
Q 1497 1759 1228 1600 
Q 959 1441 959 1056 
Q 959 750 1161 570 
Q 1363 391 1709 391 
Q 2188 391 2477 730 
Q 2766 1069 2766 1631 
L 2766 1759 
L 2194 1759 
z
M 3341 1997 
L 3341 0 
L 2766 0 
L 2766 531 
Q 2569 213 2275 61 
Q 1981 -91 1556 -91 
Q 1019 -91 701 211 
Q 384 513 384 1019 
Q 384 1609 779 1909 
Q 1175 2209 1959 2209 
L 2766 2209 
L 2766 2266 
Q 2766 2663 2505 2880 
Q 2244 3097 1772 3097 
Q 1472 3097 1187 3025 
Q 903 2953 641 2809 
L 641 3341 
Q 956 3463 1253 3523 
Q 1550 3584 1831 3584 
Q 2591 3584 2966 3190 
Q 3341 2797 3341 1997 
z
" transform="scale(0.015625)"/>
       <path id="DejaVuSans-72" d="M 2631 2963 
Q 2534 3019 2420 3045 
Q 2306 3072 2169 3072 
Q 1681 3072 1420 2755 
Q 1159 2438 1159 1844 
L 1159 0 
L 581 0 
L 581 3500 
L 1159 3500 
L 1159 2956 
Q 1341 3275 1631 3429 
Q 1922 3584 2338 3584 
Q 2397 3584 2469 3576 
Q 2541 3569 2628 3553 
L 2631 2963 
z
" transform="scale(0.015625)"/>
       <path id="DejaVuSans-6d" d="M 3328 2828 
Q 3544 3216 3844 3400 
Q 4144 3584 4550 3584 
Q 5097 3584 5394 3201 
Q 5691 2819 5691 2113 
L 5691 0 
L 5113 0 
L 5113 2094 
Q 5113 2597 4934 2840 
Q 4756 3084 4391 3084 
Q 3944 3084 3684 2787 
Q 3425 2491 3425 1978 
L 3425 0 
L 2847 0 
L 2847 2094 
Q 2847 2600 2669 2842 
Q 2491 3084 2119 3084 
Q 1678 3084 1418 2786 
Q 1159 2488 1159 1978 
L 1159 0 
L 581 0 
L 581 3500 
L 1159 3500 
L 1159 2956 
Q 1356 3278 1631 3431 
Q 1906 3584 2284 3584 
Q 2666 3584 2933 3390 
Q 3200 3197 3328 2828 
z
" transform="scale(0.015625)"/>
       <path id="DejaVuSans-65" d="M 3597 1894 
L 3597 1613 
L 953 1613 
Q 991 1019 1311 708 
Q 1631 397 2203 397 
Q 2534 397 2845 478 
Q 3156 559 3463 722 
L 3463 178 
Q 3153 47 2828 -22 
Q 2503 -91 2169 -91 
Q 1331 -91 842 396 
Q 353 884 353 1716 
Q 353 2575 817 3079 
Q 1281 3584 2069 3584 
Q 2775 3584 3186 3129 
Q 3597 2675 3597 1894 
z
M 3022 2063 
Q 3016 2534 2758 2815 
Q 2500 3097 2075 3097 
Q 1594 3097 1305 2825 
Q 1016 2553 972 2059 
L 3022 2063 
z
" transform="scale(0.015625)"/>
       <path id="DejaVuSans-74" d="M 1172 4494 
L 1172 3500 
L 2356 3500 
L 2356 3053 
L 1172 3053 
L 1172 1153 
Q 1172 725 1289 603 
Q 1406 481 1766 481 
L 2356 481 
L 2356 0 
L 1766 0 
Q 1100 0 847 248 
Q 594 497 594 1153 
L 594 3053 
L 172 3053 
L 172 3500 
L 594 3500 
L 594 4494 
L 1172 4494 
z
" transform="scale(0.015625)"/>
       <path id="DejaVuSans-73" d="M 2834 3397 
L 2834 2853 
Q 2591 2978 2328 3040 
Q 2066 3103 1784 3103 
Q 1356 3103 1142 2972 
Q 928 2841 928 2578 
Q 928 2378 1081 2264 
Q 1234 2150 1697 2047 
L 1894 2003 
Q 2506 1872 2764 1633 
Q 3022 1394 3022 966 
Q 3022 478 2636 193 
Q 2250 -91 1575 -91 
Q 1294 -91 989 -36 
Q 684 19 347 128 
L 347 722 
Q 666 556 975 473 
Q 1284 391 1588 391 
Q 1994 391 2212 530 
Q 2431 669 2431 922 
Q 2431 1156 2273 1281 
Q 2116 1406 1581 1522 
L 1381 1569 
Q 847 1681 609 1914 
Q 372 2147 372 2553 
Q 372 3047 722 3315 
Q 1072 3584 1716 3584 
Q 2034 3584 2315 3537 
Q 2597 3491 2834 3397 
z
" transform="scale(0.015625)"/>
       <path id="DejaVuSans-20" transform="scale(0.015625)"/>
       <path id="DejaVuSans-6f" d="M 1959 3097 
Q 1497 3097 1228 2736 
Q 959 2375 959 1747 
Q 959 1119 1226 758 
Q 1494 397 1959 397 
Q 2419 397 2687 759 
Q 2956 1122 2956 1747 
Q 2956 2369 2687 2733 
Q 2419 3097 1959 3097 
z
M 1959 3584 
Q 2709 3584 3137 3096 
Q 3566 2609 3566 1747 
Q 3566 888 3137 398 
Q 2709 -91 1959 -91 
Q 1206 -91 779 398 
Q 353 888 353 1747 
Q 353 2609 779 3096 
Q 1206 3584 1959 3584 
z
" transform="scale(0.015625)"/>
       <path id="DejaVuSans-6a" d="M 603 3500 
L 1178 3500 
L 1178 -63 
Q 1178 -731 923 -1031 
Q 669 -1331 103 -1331 
L -116 -1331 
L -116 -844 
L 38 -844 
Q 366 -844 484 -692 
Q 603 -541 603 -63 
L 603 3500 
z
M 603 4863 
L 1178 4863 
L 1178 4134 
L 603 4134 
L 603 4863 
z
" transform="scale(0.015625)"/>
       <path id="DejaVuSans-63" d="M 3122 3366 
L 3122 2828 
Q 2878 2963 2633 3030 
Q 2388 3097 2138 3097 
Q 1578 3097 1268 2742 
Q 959 2388 959 1747 
Q 959 1106 1268 751 
Q 1578 397 2138 397 
Q 2388 397 2633 464 
Q 2878 531 3122 666 
L 3122 134 
Q 2881 22 2623 -34 
Q 2366 -91 2075 -91 
Q 1284 -91 818 406 
Q 353 903 353 1747 
Q 353 2603 823 3093 
Q 1294 3584 2113 3584 
Q 2378 3584 2631 3529 
Q 2884 3475 3122 3366 
z
" transform="scale(0.015625)"/>
       <path id="DejaVuSans-69" d="M 603 3500 
L 1178 3500 
L 1178 0 
L 603 0 
L 603 3500 
z
M 603 4863 
L 1178 4863 
L 1178 4134 
L 603 4134 
L 603 4863 
z
" transform="scale(0.015625)"/>
       <path id="DejaVuSans-6e" d="M 3513 2113 
L 3513 0 
L 2938 0 
L 2938 2094 
Q 2938 2591 2744 2837 
Q 2550 3084 2163 3084 
Q 1697 3084 1428 2787 
Q 1159 2491 1159 1978 
L 1159 0 
L 581 0 
L 581 3500 
L 1159 3500 
L 1159 2956 
Q 1366 3272 1645 3428 
Q 1925 3584 2291 3584 
Q 2894 3584 3203 3211 
Q 3513 2838 3513 2113 
z
" transform="scale(0.015625)"/>
       <path id="DejaVuSans-28" d="M 1984 4856 
Q 1566 4138 1362 3434 
Q 1159 2731 1159 2009 
Q 1159 1288 1364 580 
Q 1569 -128 1984 -844 
L 1484 -844 
Q 1016 -109 783 600 
Q 550 1309 550 2009 
Q 550 2706 781 3412 
Q 1013 4119 1484 4856 
L 1984 4856 
z
" transform="scale(0.015625)"/>
       <path id="DejaVuSans-64" d="M 2906 2969 
L 2906 4863 
L 3481 4863 
L 3481 0 
L 2906 0 
L 2906 525 
Q 2725 213 2448 61 
Q 2172 -91 1784 -91 
Q 1150 -91 751 415 
Q 353 922 353 1747 
Q 353 2572 751 3078 
Q 1150 3584 1784 3584 
Q 2172 3584 2448 3432 
Q 2725 3281 2906 2969 
z
M 947 1747 
Q 947 1113 1208 752 
Q 1469 391 1925 391 
Q 2381 391 2643 752 
Q 2906 1113 2906 1747 
Q 2906 2381 2643 2742 
Q 2381 3103 1925 3103 
Q 1469 3103 1208 2742 
Q 947 2381 947 1747 
z
" transform="scale(0.015625)"/>
       <path id="DejaVuSans-3d" d="M 678 2906 
L 4684 2906 
L 4684 2381 
L 678 2381 
L 678 2906 
z
M 678 1631 
L 4684 1631 
L 4684 1100 
L 678 1100 
L 678 1631 
z
" transform="scale(0.015625)"/>
       <path id="DejaVuSans-36" d="M 2113 2584 
Q 1688 2584 1439 2293 
Q 1191 2003 1191 1497 
Q 1191 994 1439 701 
Q 1688 409 2113 409 
Q 2538 409 2786 701 
Q 3034 994 3034 1497 
Q 3034 2003 2786 2293 
Q 2538 2584 2113 2584 
z
M 3366 4563 
L 3366 3988 
Q 3128 4100 2886 4159 
Q 2644 4219 2406 4219 
Q 1781 4219 1451 3797 
Q 1122 3375 1075 2522 
Q 1259 2794 1537 2939 
Q 1816 3084 2150 3084 
Q 2853 3084 3261 2657 
Q 3669 2231 3669 1497 
Q 3669 778 3244 343 
Q 2819 -91 2113 -91 
Q 1303 -91 875 529 
Q 447 1150 447 2328 
Q 447 3434 972 4092 
Q 1497 4750 2381 4750 
Q 2619 4750 2861 4703 
Q 3103 4656 3366 4563 
z
" transform="scale(0.015625)"/>
       <path id="DejaVuSans-2c" d="M 750 794 
L 1409 794 
L 1409 256 
L 897 -744 
L 494 -744 
L 750 256 
L 750 794 
z
" transform="scale(0.015625)"/>
       <path id="DejaVuSans-6c" d="M 603 4863 
L 1178 4863 
L 1178 0 
L 603 0 
L 603 4863 
z
" transform="scale(0.015625)"/>
       <path id="DejaVuSans-67" d="M 2906 1791 
Q 2906 2416 2648 2759 
Q 2391 3103 1925 3103 
Q 1463 3103 1205 2759 
Q 947 2416 947 1791 
Q 947 1169 1205 825 
Q 1463 481 1925 481 
Q 2391 481 2648 825 
Q 2906 1169 2906 1791 
z
M 3481 434 
Q 3481 -459 3084 -895 
Q 2688 -1331 1869 -1331 
Q 1566 -1331 1297 -1286 
Q 1028 -1241 775 -1147 
L 775 -588 
Q 1028 -725 1275 -790 
Q 1522 -856 1778 -856 
Q 2344 -856 2625 -561 
Q 2906 -266 2906 331 
L 2906 616 
Q 2728 306 2450 153 
Q 2172 0 1784 0 
Q 1141 0 747 490 
Q 353 981 353 1791 
Q 353 2603 747 3093 
Q 1141 3584 1784 3584 
Q 2172 3584 2450 3431 
Q 2728 3278 2906 2969 
L 2906 3500 
L 3481 3500 
L 3481 434 
z
" transform="scale(0.015625)"/>
       <path id="DejaVuSans-29" d="M 513 4856 
L 1013 4856 
Q 1481 4119 1714 3412 
Q 1947 2706 1947 2009 
Q 1947 1309 1714 600 
Q 1481 -109 1013 -844 
L 513 -844 
Q 928 -128 1133 580 
Q 1338 1288 1338 2009 
Q 1338 2731 1133 3434 
Q 928 4138 513 4856 
z
" transform="scale(0.015625)"/>
      </defs>
      <use xlink:href="#DejaVuSans-70"/>
      <use xlink:href="#DejaVuSans-61" x="63.476562"/>
      <use xlink:href="#DejaVuSans-72" x="124.755859"/>
      <use xlink:href="#DejaVuSans-61" x="165.869141"/>
      <use xlink:href="#DejaVuSans-6d" x="227.148438"/>
      <use xlink:href="#DejaVuSans-65" x="324.560547"/>
      <use xlink:href="#DejaVuSans-74" x="386.083984"/>
      <use xlink:href="#DejaVuSans-65" x="425.292969"/>
      <use xlink:href="#DejaVuSans-72" x="486.816406"/>
      <use xlink:href="#DejaVuSans-73" x="527.929688"/>
      <use xlink:href="#DejaVuSans-20" x="580.029297"/>
      <use xlink:href="#DejaVuSans-70" x="611.816406"/>
      <use xlink:href="#DejaVuSans-65" x="675.292969"/>
      <use xlink:href="#DejaVuSans-72" x="736.816406"/>
      <use xlink:href="#DejaVuSans-20" x="777.929688"/>
      <use xlink:href="#DejaVuSans-70" x="809.716797"/>
      <use xlink:href="#DejaVuSans-72" x="873.193359"/>
      <use xlink:href="#DejaVuSans-6f" x="912.056641"/>
      <use xlink:href="#DejaVuSans-6a" x="973.238281"/>
      <use xlink:href="#DejaVuSans-65" x="1001.021484"/>
      <use xlink:href="#DejaVuSans-63" x="1062.544922"/>
      <use xlink:href="#DejaVuSans-74" x="1117.525391"/>
      <use xlink:href="#DejaVuSans-69" x="1156.734375"/>
      <use xlink:href="#DejaVuSans-6f" x="1184.517578"/>
      <use xlink:href="#DejaVuSans-6e" x="1245.699219"/>
      <use xlink:href="#DejaVuSans-20" x="1309.078125"/>
      <use xlink:href="#DejaVuSans-28" x="1340.865234"/>
      <use xlink:href="#DejaVuSans-64" x="1379.878906"/>
      <use xlink:href="#DejaVuSans-20" x="1443.355469"/>
      <use xlink:href="#DejaVuSans-3d" x="1475.142578"/>
      <use xlink:href="#DejaVuSans-20" x="1558.931641"/>
      <use xlink:href="#DejaVuSans-31" x="1590.71875"/>
      <use xlink:href="#DejaVuSans-36" x="1654.341797"/>
      <use xlink:href="#DejaVuSans-2c" x="1717.964844"/>
      <use xlink:href="#DejaVuSans-20" x="1749.751953"/>
      <use xlink:href="#DejaVuSans-6c" x="1781.539062"/>
      <use xlink:href="#DejaVuSans-6f" x="1809.322266"/>
      <use xlink:href="#DejaVuSans-67" x="1870.503906"/>
      <use xlink:href="#DejaVuSans-20" x="1933.980469"/>
      <use xlink:href="#DejaVuSans-73" x="1965.767578"/>
      <use xlink:href="#DejaVuSans-63" x="2017.867188"/>
      <use xlink:href="#DejaVuSans-61" x="2072.847656"/>
      <use xlink:href="#DejaVuSans-6c" x="2134.126953"/>
      <use xlink:href="#DejaVuSans-65" x="2161.910156"/>
      <use xlink:href="#DejaVuSans-29" x="2223.433594"/>
     </g>
    </g>
   </g>
   <g id="matplotlib.axis_2">
    <g id="ytick_1">
     <g id="line2d_34">
      <defs>
       <path id="mf91f6a8e0c" d="M 0 0 
L -3.5 0 
" style="stroke: #1a1a1a; stroke-width: 0.8"/>
      </defs>
      <g>
       <use xlink:href="#mf91f6a8e0c" x="104.272" y="38.589475" style="fill: #1a1a1a; stroke: #1a1a1a; stroke-width: 0.8"/>
      </g>
     </g>
     <g id="text_5">
      <!-- Flatten -&gt; Linear -->
      <g style="fill: #1a1a1a" transform="translate(25.521375 37.705607) scale(0.085 -0.085)">
       <defs>
        <path id="DejaVuSans-46" d="M 628 4666 
L 3309 4666 
L 3309 4134 
L 1259 4134 
L 1259 2759 
L 3109 2759 
L 3109 2228 
L 1259 2228 
L 1259 0 
L 628 0 
L 628 4666 
z
" transform="scale(0.015625)"/>
        <path id="DejaVuSans-2d" d="M 313 2009 
L 1997 2009 
L 1997 1497 
L 313 1497 
L 313 2009 
z
" transform="scale(0.015625)"/>
        <path id="DejaVuSans-3e" d="M 678 3150 
L 678 3719 
L 4684 2266 
L 4684 1747 
L 678 294 
L 678 863 
L 3897 2003 
L 678 3150 
z
" transform="scale(0.015625)"/>
        <path id="DejaVuSans-4c" d="M 628 4666 
L 1259 4666 
L 1259 531 
L 3531 531 
L 3531 0 
L 628 0 
L 628 4666 
z
" transform="scale(0.015625)"/>
       </defs>
       <use xlink:href="#DejaVuSans-46"/>
       <use xlink:href="#DejaVuSans-6c" x="57.519531"/>
       <use xlink:href="#DejaVuSans-61" x="85.302734"/>
       <use xlink:href="#DejaVuSans-74" x="146.582031"/>
       <use xlink:href="#DejaVuSans-74" x="185.791016"/>
       <use xlink:href="#DejaVuSans-65" x="225"/>
       <use xlink:href="#DejaVuSans-6e" x="286.523438"/>
       <use xlink:href="#DejaVuSans-20" x="349.902344"/>
       <use xlink:href="#DejaVuSans-2d" x="381.689453"/>
       <use xlink:href="#DejaVuSans-3e" x="417.773438"/>
       <use xlink:href="#DejaVuSans-20" x="501.5625"/>
       <use xlink:href="#DejaVuSans-4c" x="533.349609"/>
       <use xlink:href="#DejaVuSans-69" x="589.0625"/>
       <use xlink:href="#DejaVuSans-6e" x="616.845703"/>
       <use xlink:href="#DejaVuSans-65" x="680.224609"/>
       <use xlink:href="#DejaVuSans-61" x="741.748047"/>
       <use xlink:href="#DejaVuSans-72" x="803.027344"/>
      </g>
      <!-- (d^2 x d^2) -->
      <g style="fill: #1a1a1a" transform="translate(44.351531 47.223748) scale(0.085 -0.085)">
       <defs>
        <path id="DejaVuSans-5e" d="M 2988 4666 
L 4684 2925 
L 4056 2925 
L 2681 4159 
L 1306 2925 
L 678 2925 
L 2375 4666 
L 2988 4666 
z
" transform="scale(0.015625)"/>
        <path id="DejaVuSans-32" d="M 1228 531 
L 3431 531 
L 3431 0 
L 469 0 
L 469 531 
Q 828 903 1448 1529 
Q 2069 2156 2228 2338 
Q 2531 2678 2651 2914 
Q 2772 3150 2772 3378 
Q 2772 3750 2511 3984 
Q 2250 4219 1831 4219 
Q 1534 4219 1204 4116 
Q 875 4013 500 3803 
L 500 4441 
Q 881 4594 1212 4672 
Q 1544 4750 1819 4750 
Q 2544 4750 2975 4387 
Q 3406 4025 3406 3419 
Q 3406 3131 3298 2873 
Q 3191 2616 2906 2266 
Q 2828 2175 2409 1742 
Q 1991 1309 1228 531 
z
" transform="scale(0.015625)"/>
        <path id="DejaVuSans-78" d="M 3513 3500 
L 2247 1797 
L 3578 0 
L 2900 0 
L 1881 1375 
L 863 0 
L 184 0 
L 1544 1831 
L 300 3500 
L 978 3500 
L 1906 2253 
L 2834 3500 
L 3513 3500 
z
" transform="scale(0.015625)"/>
       </defs>
       <use xlink:href="#DejaVuSans-28"/>
       <use xlink:href="#DejaVuSans-64" x="39.013672"/>
       <use xlink:href="#DejaVuSans-5e" x="102.490234"/>
       <use xlink:href="#DejaVuSans-32" x="186.279297"/>
       <use xlink:href="#DejaVuSans-20" x="249.902344"/>
       <use xlink:href="#DejaVuSans-78" x="281.689453"/>
       <use xlink:href="#DejaVuSans-20" x="340.869141"/>
       <use xlink:href="#DejaVuSans-64" x="372.65625"/>
       <use xlink:href="#DejaVuSans-5e" x="436.132812"/>
       <use xlink:href="#DejaVuSans-32" x="519.921875"/>
       <use xlink:href="#DejaVuSans-29" x="583.544922"/>
      </g>
     </g>
    </g>
    <g id="ytick_2">
     <g id="line2d_35">
      <g>
       <use xlink:href="#mf91f6a8e0c" x="104.272" y="102.519158" style="fill: #1a1a1a; stroke: #1a1a1a; stroke-width: 0.8"/>
      </g>
     </g>
     <g id="text_6">
      <!-- Kronecker K=8 -->
      <g style="fill: #1a1a1a" transform="translate(33.758406 101.635291) scale(0.085 -0.085)">
       <defs>
        <path id="DejaVuSans-4b" d="M 628 4666 
L 1259 4666 
L 1259 2694 
L 3353 4666 
L 4166 4666 
L 1850 2491 
L 4331 0 
L 3500 0 
L 1259 2247 
L 1259 0 
L 628 0 
L 628 4666 
z
" transform="scale(0.015625)"/>
        <path id="DejaVuSans-6b" d="M 581 4863 
L 1159 4863 
L 1159 1991 
L 2875 3500 
L 3609 3500 
L 1753 1863 
L 3688 0 
L 2938 0 
L 1159 1709 
L 1159 0 
L 581 0 
L 581 4863 
z
" transform="scale(0.015625)"/>
        <path id="DejaVuSans-38" d="M 2034 2216 
Q 1584 2216 1326 1975 
Q 1069 1734 1069 1313 
Q 1069 891 1326 650 
Q 1584 409 2034 409 
Q 2484 409 2743 651 
Q 3003 894 3003 1313 
Q 3003 1734 2745 1975 
Q 2488 2216 2034 2216 
z
M 1403 2484 
Q 997 2584 770 2862 
Q 544 3141 544 3541 
Q 544 4100 942 4425 
Q 1341 4750 2034 4750 
Q 2731 4750 3128 4425 
Q 3525 4100 3525 3541 
Q 3525 3141 3298 2862 
Q 3072 2584 2669 2484 
Q 3125 2378 3379 2068 
Q 3634 1759 3634 1313 
Q 3634 634 3220 271 
Q 2806 -91 2034 -91 
Q 1263 -91 848 271 
Q 434 634 434 1313 
Q 434 1759 690 2068 
Q 947 2378 1403 2484 
z
M 1172 3481 
Q 1172 3119 1398 2916 
Q 1625 2713 2034 2713 
Q 2441 2713 2670 2916 
Q 2900 3119 2900 3481 
Q 2900 3844 2670 4047 
Q 2441 4250 2034 4250 
Q 1625 4250 1398 4047 
Q 1172 3844 1172 3481 
z
" transform="scale(0.015625)"/>
       </defs>
       <use xlink:href="#DejaVuSans-4b"/>
       <use xlink:href="#DejaVuSans-72" x="65.576172"/>
       <use xlink:href="#DejaVuSans-6f" x="104.439453"/>
       <use xlink:href="#DejaVuSans-6e" x="165.621094"/>
       <use xlink:href="#DejaVuSans-65" x="229"/>
       <use xlink:href="#DejaVuSans-63" x="290.523438"/>
       <use xlink:href="#DejaVuSans-6b" x="345.503906"/>
       <use xlink:href="#DejaVuSans-65" x="399.789062"/>
       <use xlink:href="#DejaVuSans-72" x="461.3125"/>
       <use xlink:href="#DejaVuSans-20" x="502.425781"/>
       <use xlink:href="#DejaVuSans-4b" x="534.212891"/>
       <use xlink:href="#DejaVuSans-3d" x="599.789062"/>
       <use xlink:href="#DejaVuSans-38" x="683.578125"/>
      </g>
      <!-- (8 x A_k @ M @ B_k) -->
      <g style="fill: #1a1a1a" transform="translate(9.667547 111.153432) scale(0.085 -0.085)">
       <defs>
        <path id="DejaVuSans-41" d="M 2188 4044 
L 1331 1722 
L 3047 1722 
L 2188 4044 
z
M 1831 4666 
L 2547 4666 
L 4325 0 
L 3669 0 
L 3244 1197 
L 1141 1197 
L 716 0 
L 50 0 
L 1831 4666 
z
" transform="scale(0.015625)"/>
        <path id="DejaVuSans-5f" d="M 3263 -1063 
L 3263 -1509 
L -63 -1509 
L -63 -1063 
L 3263 -1063 
z
" transform="scale(0.015625)"/>
        <path id="DejaVuSans-40" d="M 2381 1678 
Q 2381 1231 2603 976 
Q 2825 722 3213 722 
Q 3597 722 3817 978 
Q 4038 1234 4038 1678 
Q 4038 2116 3813 2373 
Q 3588 2631 3206 2631 
Q 2828 2631 2604 2375 
Q 2381 2119 2381 1678 
z
M 4084 744 
Q 3897 503 3655 389 
Q 3413 275 3091 275 
Q 2553 275 2217 664 
Q 1881 1053 1881 1678 
Q 1881 2303 2218 2693 
Q 2556 3084 3091 3084 
Q 3413 3084 3656 2967 
Q 3900 2850 4084 2613 
L 4084 3022 
L 4531 3022 
L 4531 722 
Q 4988 791 5245 1139 
Q 5503 1488 5503 2041 
Q 5503 2375 5404 2669 
Q 5306 2963 5106 3213 
Q 4781 3622 4314 3839 
Q 3847 4056 3297 4056 
Q 2913 4056 2559 3954 
Q 2206 3853 1906 3653 
Q 1416 3334 1139 2817 
Q 863 2300 863 1697 
Q 863 1200 1042 765 
Q 1222 331 1563 0 
Q 1891 -325 2322 -495 
Q 2753 -666 3244 -666 
Q 3647 -666 4036 -530 
Q 4425 -394 4750 -141 
L 5031 -488 
Q 4641 -791 4180 -952 
Q 3719 -1113 3244 -1113 
Q 2666 -1113 2153 -908 
Q 1641 -703 1241 -313 
Q 841 78 631 592 
Q 422 1106 422 1697 
Q 422 2266 634 2781 
Q 847 3297 1241 3688 
Q 1644 4084 2172 4295 
Q 2700 4506 3291 4506 
Q 3953 4506 4520 4234 
Q 5088 3963 5472 3463 
Q 5706 3156 5829 2797 
Q 5953 2438 5953 2053 
Q 5953 1231 5456 756 
Q 4959 281 4084 263 
L 4084 744 
z
" transform="scale(0.015625)"/>
        <path id="DejaVuSans-4d" d="M 628 4666 
L 1569 4666 
L 2759 1491 
L 3956 4666 
L 4897 4666 
L 4897 0 
L 4281 0 
L 4281 4097 
L 3078 897 
L 2444 897 
L 1241 4097 
L 1241 0 
L 628 0 
L 628 4666 
z
" transform="scale(0.015625)"/>
        <path id="DejaVuSans-42" d="M 1259 2228 
L 1259 519 
L 2272 519 
Q 2781 519 3026 730 
Q 3272 941 3272 1375 
Q 3272 1813 3026 2020 
Q 2781 2228 2272 2228 
L 1259 2228 
z
M 1259 4147 
L 1259 2741 
L 2194 2741 
Q 2656 2741 2882 2914 
Q 3109 3088 3109 3444 
Q 3109 3797 2882 3972 
Q 2656 4147 2194 4147 
L 1259 4147 
z
M 628 4666 
L 2241 4666 
Q 2963 4666 3353 4366 
Q 3744 4066 3744 3513 
Q 3744 3084 3544 2831 
Q 3344 2578 2956 2516 
Q 3422 2416 3680 2098 
Q 3938 1781 3938 1306 
Q 3938 681 3513 340 
Q 3088 0 2303 0 
L 628 0 
L 628 4666 
z
" transform="scale(0.015625)"/>
       </defs>
       <use xlink:href="#DejaVuSans-28"/>
       <use xlink:href="#DejaVuSans-38" x="39.013672"/>
       <use xlink:href="#DejaVuSans-20" x="102.636719"/>
       <use xlink:href="#DejaVuSans-78" x="134.423828"/>
       <use xlink:href="#DejaVuSans-20" x="193.603516"/>
       <use xlink:href="#DejaVuSans-41" x="225.390625"/>
       <use xlink:href="#DejaVuSans-5f" x="293.798828"/>
       <use xlink:href="#DejaVuSans-6b" x="343.798828"/>
       <use xlink:href="#DejaVuSans-20" x="401.708984"/>
       <use xlink:href="#DejaVuSans-40" x="433.496094"/>
       <use xlink:href="#DejaVuSans-20" x="533.496094"/>
       <use xlink:href="#DejaVuSans-4d" x="565.283203"/>
       <use xlink:href="#DejaVuSans-20" x="651.5625"/>
       <use xlink:href="#DejaVuSans-40" x="683.349609"/>
       <use xlink:href="#DejaVuSans-20" x="783.349609"/>
       <use xlink:href="#DejaVuSans-42" x="815.136719"/>
       <use xlink:href="#DejaVuSans-5f" x="883.740234"/>
       <use xlink:href="#DejaVuSans-6b" x="933.740234"/>
       <use xlink:href="#DejaVuSans-29" x="991.650391"/>
      </g>
     </g>
    </g>
    <g id="ytick_3">
     <g id="line2d_36">
      <g>
       <use xlink:href="#mf91f6a8e0c" x="104.272" y="166.448842" style="fill: #1a1a1a; stroke: #1a1a1a; stroke-width: 0.8"/>
      </g>
     </g>
     <g id="text_7">
      <!-- Kronecker K=4 -->
      <g style="fill: #1a1a1a" transform="translate(33.758406 165.564975) scale(0.085 -0.085)">
       <use xlink:href="#DejaVuSans-4b"/>
       <use xlink:href="#DejaVuSans-72" x="65.576172"/>
       <use xlink:href="#DejaVuSans-6f" x="104.439453"/>
       <use xlink:href="#DejaVuSans-6e" x="165.621094"/>
       <use xlink:href="#DejaVuSans-65" x="229"/>
       <use xlink:href="#DejaVuSans-63" x="290.523438"/>
       <use xlink:href="#DejaVuSans-6b" x="345.503906"/>
       <use xlink:href="#DejaVuSans-65" x="399.789062"/>
       <use xlink:href="#DejaVuSans-72" x="461.3125"/>
       <use xlink:href="#DejaVuSans-20" x="502.425781"/>
       <use xlink:href="#DejaVuSans-4b" x="534.212891"/>
       <use xlink:href="#DejaVuSans-3d" x="599.789062"/>
       <use xlink:href="#DejaVuSans-34" x="683.578125"/>
      </g>
      <!-- (4 x A_k @ M @ B_k) -->
      <g style="fill: #1a1a1a" transform="translate(9.667547 175.083115) scale(0.085 -0.085)">
       <use xlink:href="#DejaVuSans-28"/>
       <use xlink:href="#DejaVuSans-34" x="39.013672"/>
       <use xlink:href="#DejaVuSans-20" x="102.636719"/>
       <use xlink:href="#DejaVuSans-78" x="134.423828"/>
       <use xlink:href="#DejaVuSans-20" x="193.603516"/>
       <use xlink:href="#DejaVuSans-41" x="225.390625"/>
       <use xlink:href="#DejaVuSans-5f" x="293.798828"/>
       <use xlink:href="#DejaVuSans-6b" x="343.798828"/>
       <use xlink:href="#DejaVuSans-20" x="401.708984"/>
       <use xlink:href="#DejaVuSans-40" x="433.496094"/>
       <use xlink:href="#DejaVuSans-20" x="533.496094"/>
       <use xlink:href="#DejaVuSans-4d" x="565.283203"/>
       <use xlink:href="#DejaVuSans-20" x="651.5625"/>
       <use xlink:href="#DejaVuSans-40" x="683.349609"/>
       <use xlink:href="#DejaVuSans-20" x="783.349609"/>
       <use xlink:href="#DejaVuSans-42" x="815.136719"/>
       <use xlink:href="#DejaVuSans-5f" x="883.740234"/>
       <use xlink:href="#DejaVuSans-6b" x="933.740234"/>
       <use xlink:href="#DejaVuSans-29" x="991.650391"/>
      </g>
     </g>
    </g>
    <g id="ytick_4">
     <g id="line2d_37">
      <g>
       <use xlink:href="#mf91f6a8e0c" x="104.272" y="230.378525" style="fill: #1a1a1a; stroke: #1a1a1a; stroke-width: 0.8"/>
      </g>
     </g>
     <g id="text_8">
      <!-- RowThenCol bilinear -->
      <g style="fill: #1a1a1a" transform="translate(10.400672 229.494658) scale(0.085 -0.085)">
       <defs>
        <path id="DejaVuSans-52" d="M 2841 2188 
Q 3044 2119 3236 1894 
Q 3428 1669 3622 1275 
L 4263 0 
L 3584 0 
L 2988 1197 
Q 2756 1666 2539 1819 
Q 2322 1972 1947 1972 
L 1259 1972 
L 1259 0 
L 628 0 
L 628 4666 
L 2053 4666 
Q 2853 4666 3247 4331 
Q 3641 3997 3641 3322 
Q 3641 2881 3436 2590 
Q 3231 2300 2841 2188 
z
M 1259 4147 
L 1259 2491 
L 2053 2491 
Q 2509 2491 2742 2702 
Q 2975 2913 2975 3322 
Q 2975 3731 2742 3939 
Q 2509 4147 2053 4147 
L 1259 4147 
z
" transform="scale(0.015625)"/>
        <path id="DejaVuSans-77" d="M 269 3500 
L 844 3500 
L 1563 769 
L 2278 3500 
L 2956 3500 
L 3675 769 
L 4391 3500 
L 4966 3500 
L 4050 0 
L 3372 0 
L 2619 2869 
L 1863 0 
L 1184 0 
L 269 3500 
z
" transform="scale(0.015625)"/>
        <path id="DejaVuSans-54" d="M -19 4666 
L 3928 4666 
L 3928 4134 
L 2272 4134 
L 2272 0 
L 1638 0 
L 1638 4134 
L -19 4134 
L -19 4666 
z
" transform="scale(0.015625)"/>
        <path id="DejaVuSans-68" d="M 3513 2113 
L 3513 0 
L 2938 0 
L 2938 2094 
Q 2938 2591 2744 2837 
Q 2550 3084 2163 3084 
Q 1697 3084 1428 2787 
Q 1159 2491 1159 1978 
L 1159 0 
L 581 0 
L 581 4863 
L 1159 4863 
L 1159 2956 
Q 1366 3272 1645 3428 
Q 1925 3584 2291 3584 
Q 2894 3584 3203 3211 
Q 3513 2838 3513 2113 
z
" transform="scale(0.015625)"/>
        <path id="DejaVuSans-43" d="M 4122 4306 
L 4122 3641 
Q 3803 3938 3442 4084 
Q 3081 4231 2675 4231 
Q 1875 4231 1450 3742 
Q 1025 3253 1025 2328 
Q 1025 1406 1450 917 
Q 1875 428 2675 428 
Q 3081 428 3442 575 
Q 3803 722 4122 1019 
L 4122 359 
Q 3791 134 3420 21 
Q 3050 -91 2638 -91 
Q 1578 -91 968 557 
Q 359 1206 359 2328 
Q 359 3453 968 4101 
Q 1578 4750 2638 4750 
Q 3056 4750 3426 4639 
Q 3797 4528 4122 4306 
z
" transform="scale(0.015625)"/>
        <path id="DejaVuSans-62" d="M 3116 1747 
Q 3116 2381 2855 2742 
Q 2594 3103 2138 3103 
Q 1681 3103 1420 2742 
Q 1159 2381 1159 1747 
Q 1159 1113 1420 752 
Q 1681 391 2138 391 
Q 2594 391 2855 752 
Q 3116 1113 3116 1747 
z
M 1159 2969 
Q 1341 3281 1617 3432 
Q 1894 3584 2278 3584 
Q 2916 3584 3314 3078 
Q 3713 2572 3713 1747 
Q 3713 922 3314 415 
Q 2916 -91 2278 -91 
Q 1894 -91 1617 61 
Q 1341 213 1159 525 
L 1159 0 
L 581 0 
L 581 4863 
L 1159 4863 
L 1159 2969 
z
" transform="scale(0.015625)"/>
       </defs>
       <use xlink:href="#DejaVuSans-52"/>
       <use xlink:href="#DejaVuSans-6f" x="64.982422"/>
       <use xlink:href="#DejaVuSans-77" x="126.164062"/>
       <use xlink:href="#DejaVuSans-54" x="207.951172"/>
       <use xlink:href="#DejaVuSans-68" x="269.035156"/>
       <use xlink:href="#DejaVuSans-65" x="332.414062"/>
       <use xlink:href="#DejaVuSans-6e" x="393.9375"/>
       <use xlink:href="#DejaVuSans-43" x="457.316406"/>
       <use xlink:href="#DejaVuSans-6f" x="527.140625"/>
       <use xlink:href="#DejaVuSans-6c" x="588.322266"/>
       <use xlink:href="#DejaVuSans-20" x="616.105469"/>
       <use xlink:href="#DejaVuSans-62" x="647.892578"/>
       <use xlink:href="#DejaVuSans-69" x="711.369141"/>
       <use xlink:href="#DejaVuSans-6c" x="739.152344"/>
       <use xlink:href="#DejaVuSans-69" x="766.935547"/>
       <use xlink:href="#DejaVuSans-6e" x="794.71875"/>
       <use xlink:href="#DejaVuSans-65" x="858.097656"/>
       <use xlink:href="#DejaVuSans-61" x="919.621094"/>
       <use xlink:href="#DejaVuSans-72" x="980.900391"/>
      </g>
      <!-- silu(A @ M) @ B -->
      <g style="fill: #1a1a1a" transform="translate(29.315828 239.012799) scale(0.085 -0.085)">
       <defs>
        <path id="DejaVuSans-75" d="M 544 1381 
L 544 3500 
L 1119 3500 
L 1119 1403 
Q 1119 906 1312 657 
Q 1506 409 1894 409 
Q 2359 409 2629 706 
Q 2900 1003 2900 1516 
L 2900 3500 
L 3475 3500 
L 3475 0 
L 2900 0 
L 2900 538 
Q 2691 219 2414 64 
Q 2138 -91 1772 -91 
Q 1169 -91 856 284 
Q 544 659 544 1381 
z
M 1991 3584 
L 1991 3584 
z
" transform="scale(0.015625)"/>
       </defs>
       <use xlink:href="#DejaVuSans-73"/>
       <use xlink:href="#DejaVuSans-69" x="52.099609"/>
       <use xlink:href="#DejaVuSans-6c" x="79.882812"/>
       <use xlink:href="#DejaVuSans-75" x="107.666016"/>
       <use xlink:href="#DejaVuSans-28" x="171.044922"/>
       <use xlink:href="#DejaVuSans-41" x="210.058594"/>
       <use xlink:href="#DejaVuSans-20" x="278.466797"/>
       <use xlink:href="#DejaVuSans-40" x="310.253906"/>
       <use xlink:href="#DejaVuSans-20" x="410.253906"/>
       <use xlink:href="#DejaVuSans-4d" x="442.041016"/>
       <use xlink:href="#DejaVuSans-29" x="528.320312"/>
       <use xlink:href="#DejaVuSans-20" x="567.333984"/>
       <use xlink:href="#DejaVuSans-40" x="599.121094"/>
       <use xlink:href="#DejaVuSans-20" x="699.121094"/>
       <use xlink:href="#DejaVuSans-42" x="730.908203"/>
      </g>
     </g>
    </g>
   </g>
   <g id="patch_3">
    <path d="M 104.272 261.768 
L 104.272 7.2 
" style="fill: none; stroke: #1a1a1a; stroke-linejoin: miter; stroke-linecap: square"/>
   </g>
   <g id="patch_4">
    <path d="M 104.272 261.768 
L 535.392 261.768 
" style="fill: none; stroke: #1a1a1a; stroke-linejoin: miter; stroke-linecap: square"/>
   </g>
   <g id="patch_5">
    <path d="M -130797.907204 58.407677 
L 432.793939 58.407677 
L 432.793939 18.771273 
L -130797.907204 18.771273 
z
" clip-path="url(#pff092d748d)" style="fill: #5a5a5a; stroke: #1a1a1a; stroke-linejoin: miter"/>
   </g>
   <g id="patch_6">
    <path d="M -130797.907204 122.33736 
L 275.53387 122.33736 
L 275.53387 82.700956 
L -130797.907204 82.700956 
z
" clip-path="url(#pff092d748d)" style="fill: #e69f00; stroke: #1a1a1a; stroke-linejoin: miter"/>
   </g>
   <g id="patch_7">
    <path d="M -130797.907204 186.267044 
L 236.218852 186.267044 
L 236.218852 146.63064 
L -130797.907204 146.63064 
z
" clip-path="url(#pff092d748d)" style="fill: #e69f00; stroke: #1a1a1a; stroke-linejoin: miter"/>
   </g>
   <g id="patch_8">
    <path d="M -130797.907204 250.196727 
L 157.588818 250.196727 
L 157.588818 210.560323 
L -130797.907204 210.560323 
z
" clip-path="url(#pff092d748d)" style="fill: #d55e00; stroke: #1a1a1a; stroke-linejoin: miter"/>
   </g>
   <g id="text_9">
    <!-- 65,536 -->
    <g style="fill: #1a1a1a" transform="translate(438.793939 41.072912) scale(0.09 -0.09)">
     <defs>
      <path id="DejaVuSans-Bold-36" d="M 2316 2303 
Q 2000 2303 1842 2098 
Q 1684 1894 1684 1484 
Q 1684 1075 1842 870 
Q 2000 666 2316 666 
Q 2634 666 2792 870 
Q 2950 1075 2950 1484 
Q 2950 1894 2792 2098 
Q 2634 2303 2316 2303 
z
M 3803 4544 
L 3803 3681 
Q 3506 3822 3243 3889 
Q 2981 3956 2731 3956 
Q 2194 3956 1894 3657 
Q 1594 3359 1544 2772 
Q 1750 2925 1990 3001 
Q 2231 3078 2516 3078 
Q 3231 3078 3670 2659 
Q 4109 2241 4109 1563 
Q 4109 813 3618 361 
Q 3128 -91 2303 -91 
Q 1394 -91 895 523 
Q 397 1138 397 2266 
Q 397 3422 980 4083 
Q 1563 4744 2578 4744 
Q 2900 4744 3203 4694 
Q 3506 4644 3803 4544 
z
" transform="scale(0.015625)"/>
      <path id="DejaVuSans-Bold-35" d="M 678 4666 
L 3669 4666 
L 3669 3781 
L 1638 3781 
L 1638 3059 
Q 1775 3097 1914 3117 
Q 2053 3138 2203 3138 
Q 3056 3138 3531 2711 
Q 4006 2284 4006 1522 
Q 4006 766 3489 337 
Q 2972 -91 2053 -91 
Q 1656 -91 1267 -14 
Q 878 63 494 219 
L 494 1166 
Q 875 947 1217 837 
Q 1559 728 1863 728 
Q 2300 728 2551 942 
Q 2803 1156 2803 1522 
Q 2803 1891 2551 2103 
Q 2300 2316 1863 2316 
Q 1603 2316 1309 2248 
Q 1016 2181 678 2041 
L 678 4666 
z
" transform="scale(0.015625)"/>
      <path id="DejaVuSans-Bold-2c" d="M 653 1209 
L 1778 1209 
L 1778 256 
L 1006 -909 
L 341 -909 
L 653 256 
L 653 1209 
z
" transform="scale(0.015625)"/>
      <path id="DejaVuSans-Bold-33" d="M 2981 2516 
Q 3453 2394 3698 2092 
Q 3944 1791 3944 1325 
Q 3944 631 3412 270 
Q 2881 -91 1863 -91 
Q 1503 -91 1142 -33 
Q 781 25 428 141 
L 428 1069 
Q 766 900 1098 814 
Q 1431 728 1753 728 
Q 2231 728 2486 893 
Q 2741 1059 2741 1369 
Q 2741 1688 2480 1852 
Q 2219 2016 1709 2016 
L 1228 2016 
L 1228 2791 
L 1734 2791 
Q 2188 2791 2409 2933 
Q 2631 3075 2631 3366 
Q 2631 3634 2415 3781 
Q 2200 3928 1806 3928 
Q 1516 3928 1219 3862 
Q 922 3797 628 3669 
L 628 4550 
Q 984 4650 1334 4700 
Q 1684 4750 2022 4750 
Q 2931 4750 3382 4451 
Q 3834 4153 3834 3553 
Q 3834 3144 3618 2883 
Q 3403 2622 2981 2516 
z
" transform="scale(0.015625)"/>
     </defs>
     <use xlink:href="#DejaVuSans-Bold-36"/>
     <use xlink:href="#DejaVuSans-Bold-35" x="69.580078"/>
     <use xlink:href="#DejaVuSans-Bold-2c" x="139.160156"/>
     <use xlink:href="#DejaVuSans-Bold-35" x="177.148438"/>
     <use xlink:href="#DejaVuSans-Bold-33" x="246.728516"/>
     <use xlink:href="#DejaVuSans-Bold-36" x="316.308594"/>
    </g>
   </g>
   <g id="text_10">
    <!-- baseline -->
    <g style="fill: #5a5a5a" transform="translate(438.793939 51.659006) scale(0.075 -0.075)">
     <defs>
      <path id="DejaVuSans-Oblique-62" d="M 3169 2138 
Q 3169 2591 2961 2847 
Q 2753 3103 2388 3103 
Q 2122 3103 1889 2973 
Q 1656 2844 1484 2597 
Q 1303 2338 1198 1995 
Q 1094 1653 1094 1313 
Q 1094 881 1298 636 
Q 1503 391 1863 391 
Q 2134 391 2365 517 
Q 2597 644 2772 891 
Q 2950 1147 3059 1487 
Q 3169 1828 3169 2138 
z
M 1381 2969 
Q 1594 3256 1914 3420 
Q 2234 3584 2584 3584 
Q 3122 3584 3439 3221 
Q 3756 2859 3756 2241 
Q 3756 1734 3570 1259 
Q 3384 784 3041 416 
Q 2816 172 2522 40 
Q 2228 -91 1906 -91 
Q 1566 -91 1316 65 
Q 1066 222 909 531 
L 806 0 
L 231 0 
L 1178 4863 
L 1753 4863 
L 1381 2969 
z
" transform="scale(0.015625)"/>
      <path id="DejaVuSans-Oblique-61" d="M 3438 1997 
L 3047 0 
L 2472 0 
L 2578 531 
Q 2325 219 2001 64 
Q 1678 -91 1281 -91 
Q 834 -91 548 182 
Q 263 456 263 884 
Q 263 1497 752 1853 
Q 1241 2209 2100 2209 
L 2900 2209 
L 2931 2363 
Q 2938 2388 2941 2417 
Q 2944 2447 2944 2509 
Q 2944 2788 2717 2942 
Q 2491 3097 2081 3097 
Q 1800 3097 1504 3025 
Q 1209 2953 897 2809 
L 997 3341 
Q 1322 3463 1633 3523 
Q 1944 3584 2234 3584 
Q 2853 3584 3176 3315 
Q 3500 3047 3500 2534 
Q 3500 2431 3484 2292 
Q 3469 2153 3438 1997 
z
M 2816 1759 
L 2241 1759 
Q 1534 1759 1195 1570 
Q 856 1381 856 984 
Q 856 709 1029 553 
Q 1203 397 1509 397 
Q 1978 397 2328 733 
Q 2678 1069 2791 1631 
L 2816 1759 
z
" transform="scale(0.015625)"/>
      <path id="DejaVuSans-Oblique-73" d="M 3200 3397 
L 3091 2853 
Q 2863 2978 2609 3040 
Q 2356 3103 2088 3103 
Q 1634 3103 1373 2948 
Q 1113 2794 1113 2528 
Q 1113 2219 1719 2053 
Q 1766 2041 1788 2034 
L 1972 1978 
Q 2547 1819 2739 1644 
Q 2931 1469 2931 1166 
Q 2931 609 2489 259 
Q 2047 -91 1331 -91 
Q 1053 -91 747 -37 
Q 441 16 72 128 
L 184 722 
Q 500 559 806 475 
Q 1113 391 1394 391 
Q 1816 391 2080 572 
Q 2344 753 2344 1031 
Q 2344 1331 1650 1516 
L 1591 1531 
L 1394 1581 
Q 956 1697 753 1886 
Q 550 2075 550 2369 
Q 550 2928 970 3256 
Q 1391 3584 2113 3584 
Q 2397 3584 2667 3537 
Q 2938 3491 3200 3397 
z
" transform="scale(0.015625)"/>
      <path id="DejaVuSans-Oblique-65" d="M 3078 2063 
Q 3088 2113 3092 2166 
Q 3097 2219 3097 2272 
Q 3097 2653 2873 2875 
Q 2650 3097 2266 3097 
Q 1838 3097 1509 2826 
Q 1181 2556 1013 2059 
L 3078 2063 
z
M 3578 1613 
L 903 1613 
Q 884 1494 878 1425 
Q 872 1356 872 1306 
Q 872 872 1139 634 
Q 1406 397 1894 397 
Q 2269 397 2603 481 
Q 2938 566 3225 728 
L 3116 159 
Q 2806 34 2476 -28 
Q 2147 -91 1806 -91 
Q 1078 -91 686 257 
Q 294 606 294 1247 
Q 294 1794 489 2264 
Q 684 2734 1063 3103 
Q 1306 3334 1642 3459 
Q 1978 3584 2356 3584 
Q 2950 3584 3301 3228 
Q 3653 2872 3653 2272 
Q 3653 2128 3634 1964 
Q 3616 1800 3578 1613 
z
" transform="scale(0.015625)"/>
      <path id="DejaVuSans-Oblique-6c" d="M 1172 4863 
L 1747 4863 
L 800 0 
L 225 0 
L 1172 4863 
z
" transform="scale(0.015625)"/>
      <path id="DejaVuSans-Oblique-69" d="M 1172 4863 
L 1747 4863 
L 1606 4134 
L 1031 4134 
L 1172 4863 
z
M 909 3500 
L 1484 3500 
L 800 0 
L 225 0 
L 909 3500 
z
" transform="scale(0.015625)"/>
      <path id="DejaVuSans-Oblique-6e" d="M 3566 2113 
L 3156 0 
L 2578 0 
L 2988 2091 
Q 3016 2238 3031 2350 
Q 3047 2463 3047 2528 
Q 3047 2791 2881 2937 
Q 2716 3084 2419 3084 
Q 1956 3084 1622 2776 
Q 1288 2469 1184 1941 
L 800 0 
L 225 0 
L 903 3500 
L 1478 3500 
L 1363 2950 
Q 1603 3253 1940 3418 
Q 2278 3584 2650 3584 
Q 3113 3584 3367 3334 
Q 3622 3084 3622 2631 
Q 3622 2519 3608 2391 
Q 3594 2263 3566 2113 
z
" transform="scale(0.015625)"/>
     </defs>
     <use xlink:href="#DejaVuSans-Oblique-62"/>
     <use xlink:href="#DejaVuSans-Oblique-61" x="63.476562"/>
     <use xlink:href="#DejaVuSans-Oblique-73" x="124.755859"/>
     <use xlink:href="#DejaVuSans-Oblique-65" x="176.855469"/>
     <use xlink:href="#DejaVuSans-Oblique-6c" x="238.378906"/>
     <use xlink:href="#DejaVuSans-Oblique-69" x="266.162109"/>
     <use xlink:href="#DejaVuSans-Oblique-6e" x="293.945312"/>
     <use xlink:href="#DejaVuSans-Oblique-65" x="357.324219"/>
    </g>
   </g>
   <g id="text_11">
    <!-- 4,096 -->
    <g style="fill: #1a1a1a" transform="translate(281.53387 105.002596) scale(0.09 -0.09)">
     <defs>
      <path id="DejaVuSans-Bold-34" d="M 2356 3675 
L 1038 1722 
L 2356 1722 
L 2356 3675 
z
M 2156 4666 
L 3494 4666 
L 3494 1722 
L 4159 1722 
L 4159 850 
L 3494 850 
L 3494 0 
L 2356 0 
L 2356 850 
L 288 850 
L 288 1881 
L 2156 4666 
z
" transform="scale(0.015625)"/>
      <path id="DejaVuSans-Bold-30" d="M 2944 2338 
Q 2944 3213 2780 3570 
Q 2616 3928 2228 3928 
Q 1841 3928 1675 3570 
Q 1509 3213 1509 2338 
Q 1509 1453 1675 1090 
Q 1841 728 2228 728 
Q 2613 728 2778 1090 
Q 2944 1453 2944 2338 
z
M 4147 2328 
Q 4147 1169 3647 539 
Q 3147 -91 2228 -91 
Q 1306 -91 806 539 
Q 306 1169 306 2328 
Q 306 3491 806 4120 
Q 1306 4750 2228 4750 
Q 3147 4750 3647 4120 
Q 4147 3491 4147 2328 
z
" transform="scale(0.015625)"/>
      <path id="DejaVuSans-Bold-39" d="M 641 103 
L 641 966 
Q 928 831 1190 764 
Q 1453 697 1709 697 
Q 2247 697 2547 995 
Q 2847 1294 2900 1881 
Q 2688 1725 2447 1647 
Q 2206 1569 1925 1569 
Q 1209 1569 770 1986 
Q 331 2403 331 3084 
Q 331 3838 820 4291 
Q 1309 4744 2131 4744 
Q 3044 4744 3544 4128 
Q 4044 3513 4044 2388 
Q 4044 1231 3459 570 
Q 2875 -91 1856 -91 
Q 1528 -91 1228 -42 
Q 928 6 641 103 
z
M 2125 2350 
Q 2441 2350 2600 2554 
Q 2759 2759 2759 3169 
Q 2759 3575 2600 3781 
Q 2441 3988 2125 3988 
Q 1809 3988 1650 3781 
Q 1491 3575 1491 3169 
Q 1491 2759 1650 2554 
Q 1809 2350 2125 2350 
z
" transform="scale(0.015625)"/>
     </defs>
     <use xlink:href="#DejaVuSans-Bold-34"/>
     <use xlink:href="#DejaVuSans-Bold-2c" x="69.580078"/>
     <use xlink:href="#DejaVuSans-Bold-30" x="107.568359"/>
     <use xlink:href="#DejaVuSans-Bold-39" x="177.148438"/>
     <use xlink:href="#DejaVuSans-Bold-36" x="246.728516"/>
    </g>
   </g>
   <g id="text_12">
    <!-- 16x fewer -->
    <g style="fill: #5a5a5a" transform="translate(281.53387 115.588689) scale(0.075 -0.075)">
     <defs>
      <path id="DejaVuSans-Oblique-31" d="M 416 531 
L 1447 531 
L 2144 4122 
L 978 3897 
L 1088 4441 
L 2247 4666 
L 2881 4666 
L 2075 531 
L 3103 531 
L 3003 0 
L 313 0 
L 416 531 
z
" transform="scale(0.015625)"/>
      <path id="DejaVuSans-Oblique-36" d="M 2938 1728 
Q 2938 2125 2734 2354 
Q 2531 2584 2181 2584 
Q 1697 2584 1367 2211 
Q 1038 1838 1038 1288 
Q 1038 875 1239 642 
Q 1441 409 1797 409 
Q 2284 409 2611 792 
Q 2938 1175 2938 1728 
z
M 3788 4556 
L 3681 3981 
Q 3500 4100 3265 4162 
Q 3031 4225 2766 4225 
Q 2119 4225 1726 3819 
Q 1334 3413 1141 2547 
Q 1369 2813 1670 2948 
Q 1972 3084 2322 3084 
Q 2894 3084 3233 2754 
Q 3572 2425 3572 1869 
Q 3572 1413 3405 1020 
Q 3238 628 2919 331 
Q 2700 128 2409 18 
Q 2119 -91 1791 -91 
Q 1147 -91 775 318 
Q 403 728 403 1441 
Q 403 2103 573 2717 
Q 744 3331 1050 3781 
Q 1372 4256 1830 4503 
Q 2288 4750 2841 4750 
Q 3084 4750 3321 4701 
Q 3559 4653 3788 4556 
z
" transform="scale(0.015625)"/>
      <path id="DejaVuSans-Oblique-78" d="M 3841 3500 
L 2234 1784 
L 3219 0 
L 2559 0 
L 1819 1388 
L 531 0 
L -166 0 
L 1556 1844 
L 641 3500 
L 1300 3500 
L 1972 2234 
L 3144 3500 
L 3841 3500 
z
" transform="scale(0.015625)"/>
      <path id="DejaVuSans-Oblique-20" transform="scale(0.015625)"/>
      <path id="DejaVuSans-Oblique-66" d="M 3059 4863 
L 2969 4384 
L 2419 4384 
Q 2106 4384 1964 4261 
Q 1822 4138 1753 3809 
L 1691 3500 
L 2638 3500 
L 2553 3053 
L 1606 3053 
L 1013 0 
L 434 0 
L 1031 3053 
L 481 3053 
L 563 3500 
L 1113 3500 
L 1159 3744 
Q 1278 4363 1576 4613 
Q 1875 4863 2516 4863 
L 3059 4863 
z
" transform="scale(0.015625)"/>
      <path id="DejaVuSans-Oblique-77" d="M 544 3500 
L 1113 3500 
L 1259 684 
L 2566 3500 
L 3231 3500 
L 3425 684 
L 4666 3500 
L 5241 3500 
L 3641 0 
L 2969 0 
L 2797 2900 
L 1459 0 
L 781 0 
L 544 3500 
z
" transform="scale(0.015625)"/>
      <path id="DejaVuSans-Oblique-72" d="M 2853 2969 
Q 2766 3016 2653 3041 
Q 2541 3066 2413 3066 
Q 1953 3066 1609 2717 
Q 1266 2369 1153 1784 
L 800 0 
L 225 0 
L 909 3500 
L 1484 3500 
L 1375 2956 
Q 1603 3259 1920 3421 
Q 2238 3584 2597 3584 
Q 2691 3584 2781 3573 
Q 2872 3563 2963 3538 
L 2853 2969 
z
" transform="scale(0.015625)"/>
     </defs>
     <use xlink:href="#DejaVuSans-Oblique-31"/>
     <use xlink:href="#DejaVuSans-Oblique-36" x="63.623047"/>
     <use xlink:href="#DejaVuSans-Oblique-78" x="127.246094"/>
     <use xlink:href="#DejaVuSans-Oblique-20" x="186.425781"/>
     <use xlink:href="#DejaVuSans-Oblique-66" x="218.212891"/>
     <use xlink:href="#DejaVuSans-Oblique-65" x="253.417969"/>
     <use xlink:href="#DejaVuSans-Oblique-77" x="314.941406"/>
     <use xlink:href="#DejaVuSans-Oblique-65" x="396.728516"/>
     <use xlink:href="#DejaVuSans-Oblique-72" x="458.251953"/>
    </g>
   </g>
   <g id="text_13">
    <!-- 2,048 -->
    <g style="fill: #1a1a1a" transform="translate(242.218852 168.932279) scale(0.09 -0.09)">
     <defs>
      <path id="DejaVuSans-Bold-32" d="M 1844 884 
L 3897 884 
L 3897 0 
L 506 0 
L 506 884 
L 2209 2388 
Q 2438 2594 2547 2791 
Q 2656 2988 2656 3200 
Q 2656 3528 2436 3728 
Q 2216 3928 1850 3928 
Q 1569 3928 1234 3808 
Q 900 3688 519 3450 
L 519 4475 
Q 925 4609 1322 4679 
Q 1719 4750 2100 4750 
Q 2938 4750 3402 4381 
Q 3866 4013 3866 3353 
Q 3866 2972 3669 2642 
Q 3472 2313 2841 1759 
L 1844 884 
z
" transform="scale(0.015625)"/>
      <path id="DejaVuSans-Bold-38" d="M 2228 2088 
Q 1891 2088 1709 1903 
Q 1528 1719 1528 1375 
Q 1528 1031 1709 848 
Q 1891 666 2228 666 
Q 2563 666 2741 848 
Q 2919 1031 2919 1375 
Q 2919 1722 2741 1905 
Q 2563 2088 2228 2088 
z
M 1350 2484 
Q 925 2613 709 2878 
Q 494 3144 494 3541 
Q 494 4131 934 4440 
Q 1375 4750 2228 4750 
Q 3075 4750 3515 4442 
Q 3956 4134 3956 3541 
Q 3956 3144 3739 2878 
Q 3522 2613 3097 2484 
Q 3572 2353 3814 2058 
Q 4056 1763 4056 1313 
Q 4056 619 3595 264 
Q 3134 -91 2228 -91 
Q 1319 -91 855 264 
Q 391 619 391 1313 
Q 391 1763 633 2058 
Q 875 2353 1350 2484 
z
M 1631 3419 
Q 1631 3141 1786 2991 
Q 1941 2841 2228 2841 
Q 2509 2841 2662 2991 
Q 2816 3141 2816 3419 
Q 2816 3697 2662 3845 
Q 2509 3994 2228 3994 
Q 1941 3994 1786 3844 
Q 1631 3694 1631 3419 
z
" transform="scale(0.015625)"/>
     </defs>
     <use xlink:href="#DejaVuSans-Bold-32"/>
     <use xlink:href="#DejaVuSans-Bold-2c" x="69.580078"/>
     <use xlink:href="#DejaVuSans-Bold-30" x="107.568359"/>
     <use xlink:href="#DejaVuSans-Bold-34" x="177.148438"/>
     <use xlink:href="#DejaVuSans-Bold-38" x="246.728516"/>
    </g>
   </g>
   <g id="text_14">
    <!-- 32x fewer -->
    <g style="fill: #5a5a5a" transform="translate(242.218852 179.518373) scale(0.075 -0.075)">
     <defs>
      <path id="DejaVuSans-Oblique-33" d="M 1013 4550 
Q 1356 4650 1679 4700 
Q 2003 4750 2316 4750 
Q 2934 4750 3296 4475 
Q 3659 4200 3659 3738 
Q 3659 3284 3373 2959 
Q 3088 2634 2584 2516 
Q 2978 2403 3162 2165 
Q 3347 1928 3347 1538 
Q 3347 1163 3167 834 
Q 2988 506 2650 269 
Q 2394 88 2037 -1 
Q 1681 -91 1216 -91 
Q 922 -91 622 -33 
Q 322 25 13 141 
L 128 738 
Q 422 575 720 495 
Q 1019 416 1331 416 
Q 1947 416 2330 733 
Q 2713 1050 2713 1556 
Q 2713 1881 2469 2057 
Q 2225 2234 1772 2234 
L 1228 2234 
L 1325 2747 
L 1900 2747 
Q 2419 2747 2717 2984 
Q 3016 3222 3016 3628 
Q 3016 3922 2797 4083 
Q 2578 4244 2181 4244 
Q 1881 4244 1567 4180 
Q 1253 4116 916 3988 
L 1013 4550 
z
" transform="scale(0.015625)"/>
      <path id="DejaVuSans-Oblique-32" d="M 2950 2253 
L 934 525 
L 3163 525 
L 3053 0 
L 25 0 
L 128 531 
L 2234 2338 
Q 2656 2703 2832 2979 
Q 3009 3256 3009 3547 
Q 3009 3850 2796 4040 
Q 2584 4231 2241 4231 
Q 1944 4231 1581 4125 
Q 1219 4019 806 3816 
L 922 4441 
Q 1309 4594 1662 4672 
Q 2016 4750 2316 4750 
Q 2928 4750 3301 4425 
Q 3675 4100 3675 3572 
Q 3675 3216 3497 2892 
Q 3319 2569 2950 2253 
z
" transform="scale(0.015625)"/>
     </defs>
     <use xlink:href="#DejaVuSans-Oblique-33"/>
     <use xlink:href="#DejaVuSans-Oblique-32" x="63.623047"/>
     <use xlink:href="#DejaVuSans-Oblique-78" x="127.246094"/>
     <use xlink:href="#DejaVuSans-Oblique-20" x="186.425781"/>
     <use xlink:href="#DejaVuSans-Oblique-66" x="218.212891"/>
     <use xlink:href="#DejaVuSans-Oblique-65" x="253.417969"/>
     <use xlink:href="#DejaVuSans-Oblique-77" x="314.941406"/>
     <use xlink:href="#DejaVuSans-Oblique-65" x="396.728516"/>
     <use xlink:href="#DejaVuSans-Oblique-72" x="458.251953"/>
    </g>
   </g>
   <g id="text_15">
    <!-- 512 -->
    <g style="fill: #1a1a1a" transform="translate(163.588818 232.861963) scale(0.09 -0.09)">
     <defs>
      <path id="DejaVuSans-Bold-31" d="M 750 831 
L 1813 831 
L 1813 3847 
L 722 3622 
L 722 4441 
L 1806 4666 
L 2950 4666 
L 2950 831 
L 4013 831 
L 4013 0 
L 750 0 
L 750 831 
z
" transform="scale(0.015625)"/>
     </defs>
     <use xlink:href="#DejaVuSans-Bold-35"/>
     <use xlink:href="#DejaVuSans-Bold-31" x="69.580078"/>
     <use xlink:href="#DejaVuSans-Bold-32" x="139.160156"/>
    </g>
   </g>
   <g id="text_16">
    <!-- 128x fewer -->
    <g style="fill: #5a5a5a" transform="translate(163.588818 243.448057) scale(0.075 -0.075)">
     <defs>
      <path id="DejaVuSans-Oblique-38" d="M 2847 1416 
Q 2847 1769 2600 1992 
Q 2353 2216 1953 2216 
Q 1466 2216 1148 1923 
Q 831 1631 831 1184 
Q 831 828 1073 618 
Q 1316 409 1728 409 
Q 2219 409 2533 693 
Q 2847 978 2847 1416 
z
M 3169 3591 
Q 3169 3888 2950 4069 
Q 2731 4250 2369 4250 
Q 1941 4250 1664 4009 
Q 1388 3769 1388 3406 
Q 1388 3094 1605 2903 
Q 1822 2713 2181 2713 
Q 2613 2713 2891 2961 
Q 3169 3209 3169 3591 
z
M 2741 2456 
Q 3094 2322 3281 2050 
Q 3469 1778 3469 1394 
Q 3469 747 2969 328 
Q 2469 -91 1678 -91 
Q 1006 -91 609 239 
Q 213 569 213 1119 
Q 213 1619 553 2008 
Q 894 2397 1441 2503 
Q 1113 2616 941 2852 
Q 769 3088 769 3425 
Q 769 3991 1239 4370 
Q 1709 4750 2431 4750 
Q 3034 4750 3414 4442 
Q 3794 4134 3794 3659 
Q 3794 3247 3511 2923 
Q 3228 2600 2741 2456 
z
" transform="scale(0.015625)"/>
     </defs>
     <use xlink:href="#DejaVuSans-Oblique-31"/>
     <use xlink:href="#DejaVuSans-Oblique-32" x="63.623047"/>
     <use xlink:href="#DejaVuSans-Oblique-38" x="127.246094"/>
     <use xlink:href="#DejaVuSans-Oblique-78" x="190.869141"/>
     <use xlink:href="#DejaVuSans-Oblique-20" x="250.048828"/>
     <use xlink:href="#DejaVuSans-Oblique-66" x="281.835938"/>
     <use xlink:href="#DejaVuSans-Oblique-65" x="317.041016"/>
     <use xlink:href="#DejaVuSans-Oblique-77" x="378.564453"/>
     <use xlink:href="#DejaVuSans-Oblique-65" x="460.351562"/>
     <use xlink:href="#DejaVuSans-Oblique-72" x="521.875"/>
    </g>
   </g>
  </g>
  <g id="text_17">
   <!-- closed-form arithmetic at d=16 (params = d^4 flattened, 2*K*d^2 Kronecker-K, 2*d^2 RowThenCol) — not an experimental measurement. Cross-checked against the published table in research/matrix-native-projections.md. -->
   <g style="fill: #5a5a5a" transform="translate(7.2 322.632) scale(0.066 -0.066)">
    <defs>
     <path id="DejaVuSans-Oblique-63" d="M 3431 3366 
L 3316 2797 
Q 3109 2947 2876 3022 
Q 2644 3097 2394 3097 
Q 2119 3097 1870 3000 
Q 1622 2903 1453 2725 
Q 1184 2453 1037 2087 
Q 891 1722 891 1331 
Q 891 859 1127 628 
Q 1363 397 1844 397 
Q 2081 397 2348 469 
Q 2616 541 2906 684 
L 2797 116 
Q 2547 13 2283 -39 
Q 2019 -91 1741 -91 
Q 1044 -91 669 257 
Q 294 606 294 1253 
Q 294 1797 489 2255 
Q 684 2713 1069 3078 
Q 1331 3328 1684 3456 
Q 2038 3584 2456 3584 
Q 2700 3584 2940 3529 
Q 3181 3475 3431 3366 
z
" transform="scale(0.015625)"/>
     <path id="DejaVuSans-Oblique-6f" d="M 1625 -91 
Q 1009 -91 651 289 
Q 294 669 294 1325 
Q 294 1706 417 2101 
Q 541 2497 738 2766 
Q 1047 3184 1428 3384 
Q 1809 3584 2291 3584 
Q 2888 3584 3255 3212 
Q 3622 2841 3622 2241 
Q 3622 1825 3500 1412 
Q 3378 1000 3181 728 
Q 2875 309 2494 109 
Q 2113 -91 1625 -91 
z
M 891 1344 
Q 891 869 1089 633 
Q 1288 397 1691 397 
Q 2269 397 2648 901 
Q 3028 1406 3028 2181 
Q 3028 2634 2825 2865 
Q 2622 3097 2228 3097 
Q 1903 3097 1650 2945 
Q 1397 2794 1197 2484 
Q 1050 2253 970 1956 
Q 891 1659 891 1344 
z
" transform="scale(0.015625)"/>
     <path id="DejaVuSans-Oblique-64" d="M 2675 525 
Q 2444 222 2128 65 
Q 1813 -91 1428 -91 
Q 903 -91 598 267 
Q 294 625 294 1247 
Q 294 1766 478 2236 
Q 663 2706 1013 3078 
Q 1244 3325 1534 3454 
Q 1825 3584 2144 3584 
Q 2481 3584 2739 3421 
Q 2997 3259 3138 2956 
L 3513 4863 
L 4091 4863 
L 3144 0 
L 2566 0 
L 2675 525 
z
M 891 1350 
Q 891 897 1095 644 
Q 1300 391 1663 391 
Q 1931 391 2161 520 
Q 2391 650 2566 903 
Q 2750 1166 2856 1509 
Q 2963 1853 2963 2188 
Q 2963 2622 2758 2865 
Q 2553 3109 2194 3109 
Q 1922 3109 1687 2981 
Q 1453 2853 1288 2613 
Q 1106 2353 998 2009 
Q 891 1666 891 1350 
z
" transform="scale(0.015625)"/>
     <path id="DejaVuSans-Oblique-2d" d="M 391 2009 
L 2075 2009 
L 1978 1497 
L 288 1497 
L 391 2009 
z
" transform="scale(0.015625)"/>
     <path id="DejaVuSans-Oblique-6d" d="M 5747 2113 
L 5338 0 
L 4763 0 
L 5166 2094 
Q 5191 2228 5203 2325 
Q 5216 2422 5216 2491 
Q 5216 2772 5059 2928 
Q 4903 3084 4622 3084 
Q 4203 3084 3875 2770 
Q 3547 2456 3450 1953 
L 3066 0 
L 2491 0 
L 2900 2094 
Q 2925 2209 2937 2307 
Q 2950 2406 2950 2484 
Q 2950 2769 2794 2926 
Q 2638 3084 2363 3084 
Q 1938 3084 1609 2770 
Q 1281 2456 1184 1953 
L 800 0 
L 225 0 
L 909 3500 
L 1484 3500 
L 1375 2956 
Q 1609 3263 1923 3423 
Q 2238 3584 2597 3584 
Q 2978 3584 3223 3384 
Q 3469 3184 3519 2828 
Q 3781 3197 4126 3390 
Q 4472 3584 4856 3584 
Q 5306 3584 5551 3325 
Q 5797 3066 5797 2591 
Q 5797 2488 5784 2364 
Q 5772 2241 5747 2113 
z
" transform="scale(0.015625)"/>
     <path id="DejaVuSans-Oblique-74" d="M 2706 3500 
L 2619 3053 
L 1472 3053 
L 1100 1153 
Q 1081 1047 1072 975 
Q 1063 903 1063 863 
Q 1063 663 1183 572 
Q 1303 481 1569 481 
L 2150 481 
L 2053 0 
L 1503 0 
Q 991 0 739 200 
Q 488 400 488 806 
Q 488 878 497 964 
Q 506 1050 525 1153 
L 897 3053 
L 409 3053 
L 500 3500 
L 978 3500 
L 1172 4494 
L 1747 4494 
L 1556 3500 
L 2706 3500 
z
" transform="scale(0.015625)"/>
     <path id="DejaVuSans-Oblique-68" d="M 3566 2113 
L 3156 0 
L 2578 0 
L 2988 2091 
Q 3016 2238 3031 2350 
Q 3047 2463 3047 2528 
Q 3047 2791 2881 2937 
Q 2716 3084 2419 3084 
Q 1956 3084 1617 2771 
Q 1278 2459 1178 1941 
L 800 0 
L 225 0 
L 1172 4863 
L 1747 4863 
L 1375 2950 
Q 1594 3244 1934 3414 
Q 2275 3584 2650 3584 
Q 3113 3584 3367 3334 
Q 3622 3084 3622 2631 
Q 3622 2519 3608 2391 
Q 3594 2263 3566 2113 
z
" transform="scale(0.015625)"/>
     <path id="DejaVuSans-Oblique-3d" d="M 678 2906 
L 4684 2906 
L 4684 2381 
L 678 2381 
L 678 2906 
z
M 678 1631 
L 4684 1631 
L 4684 1100 
L 678 1100 
L 678 1631 
z
" transform="scale(0.015625)"/>
     <path id="DejaVuSans-Oblique-28" d="M 2731 4856 
Q 1903 3822 1495 2892 
Q 1088 1963 1088 1100 
Q 1088 606 1206 120 
Q 1325 -366 1563 -844 
L 1063 -844 
Q 775 -306 634 201 
Q 494 709 494 1197 
Q 494 2125 923 3036 
Q 1353 3947 2222 4856 
L 2731 4856 
z
" transform="scale(0.015625)"/>
     <path id="DejaVuSans-Oblique-70" d="M 3175 2156 
Q 3175 2616 2975 2859 
Q 2775 3103 2400 3103 
Q 2144 3103 1911 2972 
Q 1678 2841 1497 2591 
Q 1319 2344 1212 1994 
Q 1106 1644 1106 1300 
Q 1106 863 1306 627 
Q 1506 391 1875 391 
Q 2147 391 2380 519 
Q 2613 647 2778 891 
Q 2956 1147 3065 1494 
Q 3175 1841 3175 2156 
z
M 1394 2969 
Q 1625 3272 1939 3428 
Q 2253 3584 2638 3584 
Q 3175 3584 3472 3232 
Q 3769 2881 3769 2247 
Q 3769 1728 3584 1258 
Q 3400 788 3053 416 
Q 2822 169 2531 39 
Q 2241 -91 1919 -91 
Q 1547 -91 1294 64 
Q 1041 219 916 525 
L 556 -1331 
L -19 -1331 
L 922 3500 
L 1497 3500 
L 1394 2969 
z
" transform="scale(0.015625)"/>
     <path id="DejaVuSans-Oblique-5e" d="M 2988 4666 
L 4684 2925 
L 4056 2925 
L 2681 4159 
L 1306 2925 
L 678 2925 
L 2375 4666 
L 2988 4666 
z
" transform="scale(0.015625)"/>
     <path id="DejaVuSans-Oblique-34" d="M 2753 4666 
L 3547 4666 
L 2950 1625 
L 3616 1625 
L 3513 1100 
L 2847 1100 
L 2638 0 
L 2009 0 
L 2222 1100 
L 116 1100 
L 238 1709 
L 2753 4666 
z
M 2809 4116 
L 728 1625 
L 2322 1625 
L 2809 4116 
z
" transform="scale(0.015625)"/>
     <path id="DejaVuSans-Oblique-2c" d="M 575 794 
L 1234 794 
L 1131 256 
L 422 -744 
L 19 -744 
L 469 256 
L 575 794 
z
" transform="scale(0.015625)"/>
     <path id="DejaVuSans-Oblique-2a" d="M 3009 3897 
L 1888 3291 
L 3009 2681 
L 2828 2375 
L 1778 3009 
L 1778 1831 
L 1422 1831 
L 1422 3009 
L 372 2375 
L 191 2681 
L 1313 3291 
L 191 3897 
L 372 4206 
L 1422 3572 
L 1422 4750 
L 1778 4750 
L 1778 3572 
L 2828 4206 
L 3009 3897 
z
" transform="scale(0.015625)"/>
     <path id="DejaVuSans-Oblique-4b" d="M 1081 4666 
L 1716 4666 
L 1331 2700 
L 3781 4666 
L 4622 4666 
L 1850 2438 
L 3878 0 
L 3109 0 
L 1247 2272 
L 806 0 
L 172 0 
L 1081 4666 
z
" transform="scale(0.015625)"/>
     <path id="DejaVuSans-Oblique-6b" d="M 1172 4863 
L 1747 4863 
L 1197 2028 
L 3169 3500 
L 3916 3500 
L 1716 1825 
L 3322 0 
L 2625 0 
L 1131 1709 
L 800 0 
L 225 0 
L 1172 4863 
z
" transform="scale(0.015625)"/>
     <path id="DejaVuSans-Oblique-52" d="M 1613 4147 
L 1294 2491 
L 2106 2491 
Q 2584 2491 2879 2755 
Q 3175 3019 3175 3444 
Q 3175 3784 2976 3965 
Q 2778 4147 2406 4147 
L 1613 4147 
z
M 2772 2241 
Q 2972 2194 3105 2009 
Q 3238 1825 3413 1275 
L 3809 0 
L 3144 0 
L 2778 1197 
Q 2638 1659 2453 1815 
Q 2269 1972 1888 1972 
L 1191 1972 
L 806 0 
L 172 0 
L 1081 4666 
L 2503 4666 
Q 3150 4666 3495 4373 
Q 3841 4081 3841 3531 
Q 3841 3044 3547 2687 
Q 3253 2331 2772 2241 
z
" transform="scale(0.015625)"/>
     <path id="DejaVuSans-Oblique-54" d="M 378 4666 
L 4325 4666 
L 4225 4134 
L 2559 4134 
L 1759 0 
L 1125 0 
L 1925 4134 
L 275 4134 
L 378 4666 
z
" transform="scale(0.015625)"/>
     <path id="DejaVuSans-Oblique-43" d="M 4447 4306 
L 4319 3641 
Q 4019 3944 3683 4091 
Q 3347 4238 2956 4238 
Q 2422 4238 2017 3981 
Q 1613 3725 1319 3200 
Q 1131 2863 1032 2486 
Q 934 2109 934 1728 
Q 934 1091 1264 756 
Q 1594 422 2222 422 
Q 2656 422 3056 561 
Q 3456 700 3834 978 
L 3688 231 
Q 3316 72 2936 -9 
Q 2556 -91 2175 -91 
Q 1278 -91 773 396 
Q 269 884 269 1753 
Q 269 2309 461 2846 
Q 653 3384 1013 3828 
Q 1394 4300 1883 4525 
Q 2372 4750 3022 4750 
Q 3422 4750 3780 4639 
Q 4138 4528 4447 4306 
z
" transform="scale(0.015625)"/>
     <path id="DejaVuSans-Oblique-29" d="M -397 -844 
Q 434 191 840 1120 
Q 1247 2050 1247 2913 
Q 1247 3406 1130 3892 
Q 1013 4378 775 4856 
L 1275 4856 
Q 1563 4316 1703 3812 
Q 1844 3309 1844 2822 
Q 1844 1891 1411 973 
Q 978 56 116 -844 
L -397 -844 
z
" transform="scale(0.015625)"/>
     <path id="DejaVuSans-Oblique-2014" d="M 356 1978 
L 6131 1978 
L 6044 1528 
L 269 1528 
L 356 1978 
z
" transform="scale(0.015625)"/>
     <path id="DejaVuSans-Oblique-75" d="M 428 1388 
L 838 3500 
L 1416 3500 
L 1006 1409 
Q 975 1256 961 1147 
Q 947 1038 947 966 
Q 947 700 1109 554 
Q 1272 409 1569 409 
Q 2031 409 2368 721 
Q 2706 1034 2809 1563 
L 3194 3500 
L 3769 3500 
L 3091 0 
L 2516 0 
L 2631 550 
Q 2388 244 2052 76 
Q 1716 -91 1338 -91 
Q 878 -91 622 161 
Q 366 413 366 863 
Q 366 956 381 1097 
Q 397 1238 428 1388 
z
" transform="scale(0.015625)"/>
     <path id="DejaVuSans-Oblique-2e" d="M 525 794 
L 1184 794 
L 1031 0 
L 372 0 
L 525 794 
z
" transform="scale(0.015625)"/>
     <path id="DejaVuSans-Oblique-67" d="M 3816 3500 
L 3219 434 
Q 3047 -456 2561 -893 
Q 2075 -1331 1253 -1331 
Q 950 -1331 690 -1286 
Q 431 -1241 206 -1147 
L 313 -588 
Q 525 -725 762 -790 
Q 1000 -856 1269 -856 
Q 1816 -856 2167 -557 
Q 2519 -259 2631 300 
L 2681 563 
Q 2441 288 2122 144 
Q 1803 0 1434 0 
Q 903 0 598 351 
Q 294 703 294 1319 
Q 294 1803 478 2267 
Q 663 2731 997 3091 
Q 1219 3328 1514 3456 
Q 1809 3584 2131 3584 
Q 2484 3584 2746 3420 
Q 3009 3256 3138 2956 
L 3238 3500 
L 3816 3500 
z
M 2950 2216 
Q 2950 2641 2750 2872 
Q 2550 3103 2181 3103 
Q 1953 3103 1747 3012 
Q 1541 2922 1394 2759 
Q 1156 2491 1023 2127 
Q 891 1763 891 1375 
Q 891 944 1092 712 
Q 1294 481 1672 481 
Q 2219 481 2584 976 
Q 2950 1472 2950 2216 
z
" transform="scale(0.015625)"/>
     <path id="DejaVuSans-Oblique-2f" d="M 2175 4666 
L 2731 4666 
L 84 -594 
L -469 -594 
L 2175 4666 
z
" transform="scale(0.015625)"/>
     <path id="DejaVuSans-Oblique-76" d="M 459 3500 
L 1069 3500 
L 1581 525 
L 3256 3500 
L 3866 3500 
L 1875 0 
L 1100 0 
L 459 3500 
z
" transform="scale(0.015625)"/>
     <path id="DejaVuSans-Oblique-6a" d="M 928 3500 
L 1503 3500 
L 813 -63 
L 809 -78 
Q 694 -675 544 -897 
Q 403 -1106 132 -1218 
Q -138 -1331 -506 -1331 
L -722 -1331 
L -628 -844 
L -481 -844 
Q -144 -844 -1 -703 
Q 141 -563 238 -63 
L 928 3500 
z
M 1197 4863 
L 1772 4863 
L 1631 4134 
L 1056 4134 
L 1197 4863 
z
" transform="scale(0.015625)"/>
    </defs>
    <use xlink:href="#DejaVuSans-Oblique-63"/>
    <use xlink:href="#DejaVuSans-Oblique-6c" x="54.980469"/>
    <use xlink:href="#DejaVuSans-Oblique-6f" x="82.763672"/>
    <use xlink:href="#DejaVuSans-Oblique-73" x="143.945312"/>
    <use xlink:href="#DejaVuSans-Oblique-65" x="196.044922"/>
    <use xlink:href="#DejaVuSans-Oblique-64" x="257.568359"/>
    <use xlink:href="#DejaVuSans-Oblique-2d" x="321.044922"/>
    <use xlink:href="#DejaVuSans-Oblique-66" x="357.128906"/>
    <use xlink:href="#DejaVuSans-Oblique-6f" x="392.333984"/>
    <use xlink:href="#DejaVuSans-Oblique-72" x="453.515625"/>
    <use xlink:href="#DejaVuSans-Oblique-6d" x="494.628906"/>
    <use xlink:href="#DejaVuSans-Oblique-20" x="592.041016"/>
    <use xlink:href="#DejaVuSans-Oblique-61" x="623.828125"/>
    <use xlink:href="#DejaVuSans-Oblique-72" x="685.107422"/>
    <use xlink:href="#DejaVuSans-Oblique-69" x="726.220703"/>
    <use xlink:href="#DejaVuSans-Oblique-74" x="754.003906"/>
    <use xlink:href="#DejaVuSans-Oblique-68" x="793.212891"/>
    <use xlink:href="#DejaVuSans-Oblique-6d" x="856.591797"/>
    <use xlink:href="#DejaVuSans-Oblique-65" x="954.003906"/>
    <use xlink:href="#DejaVuSans-Oblique-74" x="1015.527344"/>
    <use xlink:href="#DejaVuSans-Oblique-69" x="1054.736328"/>
    <use xlink:href="#DejaVuSans-Oblique-63" x="1082.519531"/>
    <use xlink:href="#DejaVuSans-Oblique-20" x="1137.5"/>
    <use xlink:href="#DejaVuSans-Oblique-61" x="1169.287109"/>
    <use xlink:href="#DejaVuSans-Oblique-74" x="1230.566406"/>
    <use xlink:href="#DejaVuSans-Oblique-20" x="1269.775391"/>
    <use xlink:href="#DejaVuSans-Oblique-64" x="1301.5625"/>
    <use xlink:href="#DejaVuSans-Oblique-3d" x="1365.039062"/>
    <use xlink:href="#DejaVuSans-Oblique-31" x="1448.828125"/>
    <use xlink:href="#DejaVuSans-Oblique-36" x="1512.451172"/>
    <use xlink:href="#DejaVuSans-Oblique-20" x="1576.074219"/>
    <use xlink:href="#DejaVuSans-Oblique-28" x="1607.861328"/>
    <use xlink:href="#DejaVuSans-Oblique-70" x="1646.875"/>
    <use xlink:href="#DejaVuSans-Oblique-61" x="1710.351562"/>
    <use xlink:href="#DejaVuSans-Oblique-72" x="1771.630859"/>
    <use xlink:href="#DejaVuSans-Oblique-61" x="1812.744141"/>
    <use xlink:href="#DejaVuSans-Oblique-6d" x="1874.023438"/>
    <use xlink:href="#DejaVuSans-Oblique-73" x="1971.435547"/>
    <use xlink:href="#DejaVuSans-Oblique-20" x="2023.535156"/>
    <use xlink:href="#DejaVuSans-Oblique-3d" x="2055.322266"/>
    <use xlink:href="#DejaVuSans-Oblique-20" x="2139.111328"/>
    <use xlink:href="#DejaVuSans-Oblique-64" x="2170.898438"/>
    <use xlink:href="#DejaVuSans-Oblique-5e" x="2234.375"/>
    <use xlink:href="#DejaVuSans-Oblique-34" x="2318.164062"/>
    <use xlink:href="#DejaVuSans-Oblique-20" x="2381.787109"/>
    <use xlink:href="#DejaVuSans-Oblique-66" x="2413.574219"/>
    <use xlink:href="#DejaVuSans-Oblique-6c" x="2448.779297"/>
    <use xlink:href="#DejaVuSans-Oblique-61" x="2476.5625"/>
    <use xlink:href="#DejaVuSans-Oblique-74" x="2537.841797"/>
    <use xlink:href="#DejaVuSans-Oblique-74" x="2577.050781"/>
    <use xlink:href="#DejaVuSans-Oblique-65" x="2616.259766"/>
    <use xlink:href="#DejaVuSans-Oblique-6e" x="2677.783203"/>
    <use xlink:href="#DejaVuSans-Oblique-65" x="2741.162109"/>
    <use xlink:href="#DejaVuSans-Oblique-64" x="2802.685547"/>
    <use xlink:href="#DejaVuSans-Oblique-2c" x="2866.162109"/>
    <use xlink:href="#DejaVuSans-Oblique-20" x="2897.949219"/>
    <use xlink:href="#DejaVuSans-Oblique-32" x="2929.736328"/>
    <use xlink:href="#DejaVuSans-Oblique-2a" x="2993.359375"/>
    <use xlink:href="#DejaVuSans-Oblique-4b" x="3043.359375"/>
    <use xlink:href="#DejaVuSans-Oblique-2a" x="3108.935547"/>
    <use xlink:href="#DejaVuSans-Oblique-64" x="3158.935547"/>
    <use xlink:href="#DejaVuSans-Oblique-5e" x="3222.412109"/>
    <use xlink:href="#DejaVuSans-Oblique-32" x="3306.201172"/>
    <use xlink:href="#DejaVuSans-Oblique-20" x="3369.824219"/>
    <use xlink:href="#DejaVuSans-Oblique-4b" x="3401.611328"/>
    <use xlink:href="#DejaVuSans-Oblique-72" x="3467.1875"/>
    <use xlink:href="#DejaVuSans-Oblique-6f" x="3508.300781"/>
    <use xlink:href="#DejaVuSans-Oblique-6e" x="3569.482422"/>
    <use xlink:href="#DejaVuSans-Oblique-65" x="3632.861328"/>
    <use xlink:href="#DejaVuSans-Oblique-63" x="3694.384766"/>
    <use xlink:href="#DejaVuSans-Oblique-6b" x="3749.365234"/>
    <use xlink:href="#DejaVuSans-Oblique-65" x="3807.275391"/>
    <use xlink:href="#DejaVuSans-Oblique-72" x="3868.798828"/>
    <use xlink:href="#DejaVuSans-Oblique-2d" x="3904.412109"/>
    <use xlink:href="#DejaVuSans-Oblique-4b" x="3940.496094"/>
    <use xlink:href="#DejaVuSans-Oblique-2c" x="4006.072266"/>
    <use xlink:href="#DejaVuSans-Oblique-20" x="4037.859375"/>
    <use xlink:href="#DejaVuSans-Oblique-32" x="4069.646484"/>
    <use xlink:href="#DejaVuSans-Oblique-2a" x="4133.269531"/>
    <use xlink:href="#DejaVuSans-Oblique-64" x="4183.269531"/>
    <use xlink:href="#DejaVuSans-Oblique-5e" x="4246.746094"/>
    <use xlink:href="#DejaVuSans-Oblique-32" x="4330.535156"/>
    <use xlink:href="#DejaVuSans-Oblique-20" x="4394.158203"/>
    <use xlink:href="#DejaVuSans-Oblique-52" x="4425.945312"/>
    <use xlink:href="#DejaVuSans-Oblique-6f" x="4495.427734"/>
    <use xlink:href="#DejaVuSans-Oblique-77" x="4556.609375"/>
    <use xlink:href="#DejaVuSans-Oblique-54" x="4638.396484"/>
    <use xlink:href="#DejaVuSans-Oblique-68" x="4699.480469"/>
    <use xlink:href="#DejaVuSans-Oblique-65" x="4762.859375"/>
    <use xlink:href="#DejaVuSans-Oblique-6e" x="4824.382812"/>
    <use xlink:href="#DejaVuSans-Oblique-43" x="4887.761719"/>
    <use xlink:href="#DejaVuSans-Oblique-6f" x="4957.585938"/>
    <use xlink:href="#DejaVuSans-Oblique-6c" x="5018.767578"/>
    <use xlink:href="#DejaVuSans-Oblique-29" x="5046.550781"/>
    <use xlink:href="#DejaVuSans-Oblique-20" x="5085.564453"/>
    <use xlink:href="#DejaVuSans-Oblique-2014" x="5117.351562"/>
    <use xlink:href="#DejaVuSans-Oblique-20" x="5217.351562"/>
    <use xlink:href="#DejaVuSans-Oblique-6e" x="5249.138672"/>
    <use xlink:href="#DejaVuSans-Oblique-6f" x="5312.517578"/>
    <use xlink:href="#DejaVuSans-Oblique-74" x="5373.699219"/>
    <use xlink:href="#DejaVuSans-Oblique-20" x="5412.908203"/>
    <use xlink:href="#DejaVuSans-Oblique-61" x="5444.695312"/>
    <use xlink:href="#DejaVuSans-Oblique-6e" x="5505.974609"/>
    <use xlink:href="#DejaVuSans-Oblique-20" x="5569.353516"/>
    <use xlink:href="#DejaVuSans-Oblique-65" x="5601.140625"/>
    <use xlink:href="#DejaVuSans-Oblique-78" x="5662.664062"/>
    <use xlink:href="#DejaVuSans-Oblique-70" x="5721.84375"/>
    <use xlink:href="#DejaVuSans-Oblique-65" x="5785.320312"/>
    <use xlink:href="#DejaVuSans-Oblique-72" x="5846.84375"/>
    <use xlink:href="#DejaVuSans-Oblique-69" x="5887.957031"/>
    <use xlink:href="#DejaVuSans-Oblique-6d" x="5915.740234"/>
    <use xlink:href="#DejaVuSans-Oblique-65" x="6013.152344"/>
    <use xlink:href="#DejaVuSans-Oblique-6e" x="6074.675781"/>
    <use xlink:href="#DejaVuSans-Oblique-74" x="6138.054688"/>
    <use xlink:href="#DejaVuSans-Oblique-61" x="6177.263672"/>
    <use xlink:href="#DejaVuSans-Oblique-6c" x="6238.542969"/>
    <use xlink:href="#DejaVuSans-Oblique-20" x="6266.326172"/>
    <use xlink:href="#DejaVuSans-Oblique-6d" x="6298.113281"/>
    <use xlink:href="#DejaVuSans-Oblique-65" x="6395.525391"/>
    <use xlink:href="#DejaVuSans-Oblique-61" x="6457.048828"/>
    <use xlink:href="#DejaVuSans-Oblique-73" x="6518.328125"/>
    <use xlink:href="#DejaVuSans-Oblique-75" x="6570.427734"/>
    <use xlink:href="#DejaVuSans-Oblique-72" x="6633.806641"/>
    <use xlink:href="#DejaVuSans-Oblique-65" x="6674.919922"/>
    <use xlink:href="#DejaVuSans-Oblique-6d" x="6736.443359"/>
    <use xlink:href="#DejaVuSans-Oblique-65" x="6833.855469"/>
    <use xlink:href="#DejaVuSans-Oblique-6e" x="6895.378906"/>
    <use xlink:href="#DejaVuSans-Oblique-74" x="6958.757812"/>
    <use xlink:href="#DejaVuSans-Oblique-2e" x="6997.966797"/>
    <use xlink:href="#DejaVuSans-Oblique-20" x="7029.753906"/>
    <use xlink:href="#DejaVuSans-Oblique-43" x="7061.541016"/>
    <use xlink:href="#DejaVuSans-Oblique-72" x="7131.365234"/>
    <use xlink:href="#DejaVuSans-Oblique-6f" x="7172.478516"/>
    <use xlink:href="#DejaVuSans-Oblique-73" x="7233.660156"/>
    <use xlink:href="#DejaVuSans-Oblique-73" x="7285.759766"/>
    <use xlink:href="#DejaVuSans-Oblique-2d" x="7337.859375"/>
    <use xlink:href="#DejaVuSans-Oblique-63" x="7373.943359"/>
    <use xlink:href="#DejaVuSans-Oblique-68" x="7428.923828"/>
    <use xlink:href="#DejaVuSans-Oblique-65" x="7492.302734"/>
    <use xlink:href="#DejaVuSans-Oblique-63" x="7553.826172"/>
    <use xlink:href="#DejaVuSans-Oblique-6b" x="7608.806641"/>
    <use xlink:href="#DejaVuSans-Oblique-65" x="7666.716797"/>
    <use xlink:href="#DejaVuSans-Oblique-64" x="7728.240234"/>
    <use xlink:href="#DejaVuSans-Oblique-20" x="7791.716797"/>
    <use xlink:href="#DejaVuSans-Oblique-61" x="7823.503906"/>
    <use xlink:href="#DejaVuSans-Oblique-67" x="7884.783203"/>
    <use xlink:href="#DejaVuSans-Oblique-61" x="7948.259766"/>
    <use xlink:href="#DejaVuSans-Oblique-69" x="8009.539062"/>
    <use xlink:href="#DejaVuSans-Oblique-6e" x="8037.322266"/>
    <use xlink:href="#DejaVuSans-Oblique-73" x="8100.701172"/>
    <use xlink:href="#DejaVuSans-Oblique-74" x="8152.800781"/>
    <use xlink:href="#DejaVuSans-Oblique-20" x="8192.009766"/>
    <use xlink:href="#DejaVuSans-Oblique-74" x="8223.796875"/>
    <use xlink:href="#DejaVuSans-Oblique-68" x="8263.005859"/>
    <use xlink:href="#DejaVuSans-Oblique-65" x="8326.384766"/>
    <use xlink:href="#DejaVuSans-Oblique-20" x="8387.908203"/>
    <use xlink:href="#DejaVuSans-Oblique-70" x="8419.695312"/>
    <use xlink:href="#DejaVuSans-Oblique-75" x="8483.171875"/>
    <use xlink:href="#DejaVuSans-Oblique-62" x="8546.550781"/>
    <use xlink:href="#DejaVuSans-Oblique-6c" x="8610.027344"/>
    <use xlink:href="#DejaVuSans-Oblique-69" x="8637.810547"/>
    <use xlink:href="#DejaVuSans-Oblique-73" x="8665.59375"/>
    <use xlink:href="#DejaVuSans-Oblique-68" x="8717.693359"/>
    <use xlink:href="#DejaVuSans-Oblique-65" x="8781.072266"/>
    <use xlink:href="#DejaVuSans-Oblique-64" x="8842.595703"/>
    <use xlink:href="#DejaVuSans-Oblique-20" x="8906.072266"/>
    <use xlink:href="#DejaVuSans-Oblique-74" x="8937.859375"/>
    <use xlink:href="#DejaVuSans-Oblique-61" x="8977.068359"/>
    <use xlink:href="#DejaVuSans-Oblique-62" x="9038.347656"/>
    <use xlink:href="#DejaVuSans-Oblique-6c" x="9101.824219"/>
    <use xlink:href="#DejaVuSans-Oblique-65" x="9129.607422"/>
    <use xlink:href="#DejaVuSans-Oblique-20" x="9191.130859"/>
    <use xlink:href="#DejaVuSans-Oblique-69" x="9222.917969"/>
    <use xlink:href="#DejaVuSans-Oblique-6e" x="9250.701172"/>
    <use xlink:href="#DejaVuSans-Oblique-20" x="9314.080078"/>
    <use xlink:href="#DejaVuSans-Oblique-72" x="9345.867188"/>
    <use xlink:href="#DejaVuSans-Oblique-65" x="9386.980469"/>
    <use xlink:href="#DejaVuSans-Oblique-73" x="9448.503906"/>
    <use xlink:href="#DejaVuSans-Oblique-65" x="9500.603516"/>
    <use xlink:href="#DejaVuSans-Oblique-61" x="9562.126953"/>
    <use xlink:href="#DejaVuSans-Oblique-72" x="9623.40625"/>
    <use xlink:href="#DejaVuSans-Oblique-63" x="9664.519531"/>
    <use xlink:href="#DejaVuSans-Oblique-68" x="9719.5"/>
    <use xlink:href="#DejaVuSans-Oblique-2f" x="9782.878906"/>
    <use xlink:href="#DejaVuSans-Oblique-6d" x="9816.570312"/>
    <use xlink:href="#DejaVuSans-Oblique-61" x="9913.982422"/>
    <use xlink:href="#DejaVuSans-Oblique-74" x="9975.261719"/>
    <use xlink:href="#DejaVuSans-Oblique-72" x="10014.470703"/>
    <use xlink:href="#DejaVuSans-Oblique-69" x="10055.583984"/>
    <use xlink:href="#DejaVuSans-Oblique-78" x="10083.367188"/>
    <use xlink:href="#DejaVuSans-Oblique-2d" x="10142.546875"/>
    <use xlink:href="#DejaVuSans-Oblique-6e" x="10178.630859"/>
    <use xlink:href="#DejaVuSans-Oblique-61" x="10242.009766"/>
    <use xlink:href="#DejaVuSans-Oblique-74" x="10303.289062"/>
    <use xlink:href="#DejaVuSans-Oblique-69" x="10342.498047"/>
    <use xlink:href="#DejaVuSans-Oblique-76" x="10370.28125"/>
    <use xlink:href="#DejaVuSans-Oblique-65" x="10429.460938"/>
    <use xlink:href="#DejaVuSans-Oblique-2d" x="10490.984375"/>
    <use xlink:href="#DejaVuSans-Oblique-70" x="10527.068359"/>
    <use xlink:href="#DejaVuSans-Oblique-72" x="10590.544922"/>
    <use xlink:href="#DejaVuSans-Oblique-6f" x="10631.658203"/>
    <use xlink:href="#DejaVuSans-Oblique-6a" x="10692.839844"/>
    <use xlink:href="#DejaVuSans-Oblique-65" x="10720.623047"/>
    <use xlink:href="#DejaVuSans-Oblique-63" x="10782.146484"/>
    <use xlink:href="#DejaVuSans-Oblique-74" x="10837.126953"/>
    <use xlink:href="#DejaVuSans-Oblique-69" x="10876.335938"/>
    <use xlink:href="#DejaVuSans-Oblique-6f" x="10904.119141"/>
    <use xlink:href="#DejaVuSans-Oblique-6e" x="10965.300781"/>
    <use xlink:href="#DejaVuSans-Oblique-73" x="11028.679688"/>
    <use xlink:href="#DejaVuSans-Oblique-2e" x="11080.779297"/>
    <use xlink:href="#DejaVuSans-Oblique-6d" x="11112.566406"/>
    <use xlink:href="#DejaVuSans-Oblique-64" x="11209.978516"/>
    <use xlink:href="#DejaVuSans-Oblique-2e" x="11273.455078"/>
   </g>
  </g>
 </g>
 <defs>
  <clipPath id="pff092d748d">
   <rect x="104.272" y="7.2" width="431.12" height="254.568"/>
  </clipPath>
 </defs>
</svg>
