<?xml version="1.0" encoding="utf-8" standalone="no"?>
<!DOCTYPE svg PUBLIC "-//W3C//DTD SVG 1.1//EN"
  "http://www.w3.org/Graphics/SVG/1.1/DTD/svg11.dtd">
<svg xmlns:xlink="http://www.w3.org/1999/xlink" width="510.770625pt" height="323.373125pt" viewBox="0 0 510.770625 323.373125" xmlns="http://www.w3.org/2000/svg" version="1.1">
 <metadata>
  <rdf:RDF xmlns:dc="http://purl.org/dc/elements/1.1/" xmlns:cc="http://creativecommons.org/ns#" xmlns:rdf="http://www.w3.org/1999/02/22-rdf-syntax-ns#">
   <cc:Work>
    <dc:type rdf:resource="http://purl.org/dc/dcmitype/StillImage"/>
    <dc:date>2026-07-09T17:46:45.469484</dc:date>
    <dc:format>image/svg+xml</dc:format>
    <dc:creator>
     <cc:Agent>
      <dc:title>Matplotlib v3.9.4, https://matplotlib.org/</dc:title>
     </cc:Agent>
    </dc:creator>
   </cc:Work>
  </rdf:RDF>
 </metadata>
 <defs>
  <style type="text/css">*{stroke-linejoin: round; stroke-linecap: butt}</style>
 </defs>
 <g id="figure_1">
  <g id="patch_1">
   <path d="M 0 323.373125 
L 510.770625 323.373125 
L 510.770625 0 
L 0 0 
z
" style="fill: #faf5e7"/>
  </g>
  <g id="axes_1">
   <g id="patch_2">
    <path d="M 38.240625 281.53875 
L 503.570625 281.53875 
L 503.570625 7.2 
L 38.240625 7.2 
z
" style="fill: #faf5e7"/>
   </g>
   <g id="PolyCollection_1">
    <defs>
     <path id="m69cd556748" d="M 49.873875 -91.313328 
L 49.873875 -41.344484 
L 54.104148 -42.591479 
L 58.33442 -43.838473 
L 62.564693 -45.085467 
L 66.794966 -46.332462 
L 71.025239 -47.579456 
L 75.255511 -48.82645 
L 79.485784 -50.073445 
L 83.716057 -51.320439 
L 87.94633 -52.567433 
L 92.176602 -53.814428 
L 96.406875 -55.061422 
L 100.637148 -56.308416 
L 104.86742 -57.555411 
L 109.097693 -58.802405 
L 113.327966 -60.049399 
L 117.558239 -61.296393 
L 121.788511 -62.543388 
L 126.018784 -63.790382 
L 130.249057 -65.037376 
L 134.47933 -66.284371 
L 138.709602 -67.531365 
L 142.939875 -68.778359 
L 147.170148 -70.025354 
L 151.40042 -71.272348 
L 155.630693 -72.519342 
L 159.860966 -73.766337 
L 164.091239 -75.013331 
L 168.321511 -76.260325 
L 172.551784 -77.50732 
L 176.782057 -78.754314 
L 181.01233 -80.001308 
L 185.242602 -81.248303 
L 189.472875 -82.495297 
L 193.703148 -83.742291 
L 197.93342 -84.989286 
L 202.163693 -86.23628 
L 206.393966 -87.483274 
L 210.624239 -88.730268 
L 214.854511 -89.977263 
L 219.084784 -91.224257 
L 223.315057 -92.471251 
L 227.54533 -93.718246 
L 231.775602 -94.96524 
L 236.005875 -96.212234 
L 240.236148 -97.459229 
L 244.46642 -98.706223 
L 248.696693 -99.953217 
L 252.926966 -101.200212 
L 257.157239 -102.447206 
L 261.387511 -103.6942 
L 265.617784 -104.941195 
L 269.848057 -106.188189 
L 274.07833 -107.435183 
L 278.308602 -108.682178 
L 282.538875 -109.929172 
L 286.769148 -111.176166 
L 290.99942 -112.423161 
L 295.229693 -113.670155 
L 299.459966 -114.917149 
L 303.690239 -116.164143 
L 307.920511 -117.411138 
L 312.150784 -118.658132 
L 316.381057 -119.905126 
L 320.61133 -121.152121 
L 324.841602 -122.399115 
L 329.071875 -123.646109 
L 333.302148 -124.893104 
L 337.53242 -126.140098 
L 341.762693 -127.387092 
L 345.992966 -128.634087 
L 350.223239 -129.881081 
L 354.453511 -131.128075 
L 358.683784 -132.37507 
L 362.914057 -133.622064 
L 367.14433 -134.869058 
L 371.374602 -136.116053 
L 375.604875 -137.363047 
L 379.835148 -138.610041 
L 384.06542 -139.857036 
L 388.295693 -141.10403 
L 392.525966 -142.351024 
L 396.756239 -143.598018 
L 400.986511 -144.845013 
L 405.216784 -146.092007 
L 409.447057 -147.339001 
L 413.67733 -148.585996 
L 417.907602 -149.83299 
L 422.137875 -151.079984 
L 426.368148 -152.326979 
L 430.59842 -153.573973 
L 434.828693 -154.820967 
L 439.058966 -156.067962 
L 443.289239 -157.314956 
L 447.519511 -158.56195 
L 451.749784 -159.808945 
L 455.980057 -161.055939 
L 460.21033 -162.302933 
L 464.440602 -163.549928 
L 468.670875 -164.796922 
L 468.670875 -320.582141 
L 468.670875 -320.582141 
L 464.440602 -318.266294 
L 460.21033 -315.950447 
L 455.980057 -313.634601 
L 451.749784 -311.318754 
L 447.519511 -309.002908 
L 443.289239 -306.687061 
L 439.058966 -304.371214 
L 434.828693 -302.055368 
L 430.59842 -299.739521 
L 426.368148 -297.423675 
L 422.137875 -295.107828 
L 417.907602 -292.791982 
L 413.67733 -290.476135 
L 409.447057 -288.160288 
L 405.216784 -285.844442 
L 400.986511 -283.528595 
L 396.756239 -281.212749 
L 392.525966 -278.896902 
L 388.295693 -276.581055 
L 384.06542 -274.265209 
L 379.835148 -271.949362 
L 375.604875 -269.633516 
L 371.374602 -267.317669 
L 367.14433 -265.001822 
L 362.914057 -262.685976 
L 358.683784 -260.370129 
L 354.453511 -258.054283 
L 350.223239 -255.738436 
L 345.992966 -253.422589 
L 341.762693 -251.106743 
L 337.53242 -248.790896 
L 333.302148 -246.47505 
L 329.071875 -244.159203 
L 324.841602 -241.843357 
L 320.61133 -239.52751 
L 316.381057 -237.211663 
L 312.150784 -234.895817 
L 307.920511 -232.57997 
L 303.690239 -230.264124 
L 299.459966 -227.948277 
L 295.229693 -225.63243 
L 290.99942 -223.316584 
L 286.769148 -221.000737 
L 282.538875 -218.684891 
L 278.308602 -216.369044 
L 274.07833 -214.053197 
L 269.848057 -211.737351 
L 265.617784 -209.421504 
L 261.387511 -207.105658 
L 257.157239 -204.789811 
L 252.926966 -202.473964 
L 248.696693 -200.158118 
L 244.46642 -197.842271 
L 240.236148 -195.526425 
L 236.005875 -193.210578 
L 231.775602 -190.894732 
L 227.54533 -188.578885 
L 223.315057 -186.263038 
L 219.084784 -183.947192 
L 214.854511 -181.631345 
L 210.624239 -179.315499 
L 206.393966 -176.999652 
L 202.163693 -174.683805 
L 197.93342 -172.367959 
L 193.703148 -170.052112 
L 189.472875 -167.736266 
L 185.242602 -165.420419 
L 181.01233 -163.104572 
L 176.782057 -160.788726 
L 172.551784 -158.472879 
L 168.321511 -156.157033 
L 164.091239 -153.841186 
L 159.860966 -151.525339 
L 155.630693 -149.209493 
L 151.40042 -146.893646 
L 147.170148 -144.5778 
L 142.939875 -142.261953 
L 138.709602 -139.946107 
L 134.47933 -137.63026 
L 130.249057 -135.314413 
L 126.018784 -132.998567 
L 121.788511 -130.68272 
L 117.558239 -128.366874 
L 113.327966 -126.051027 
L 109.097693 -123.73518 
L 104.86742 -121.419334 
L 100.637148 -119.103487 
L 96.406875 -116.787641 
L 92.176602 -114.471794 
L 87.94633 -112.155947 
L 83.716057 -109.840101 
L 79.485784 -107.524254 
L 75.255511 -105.208408 
L 71.025239 -102.892561 
L 66.794966 -100.576714 
L 62.564693 -98.260868 
L 58.33442 -95.945021 
L 54.104148 -93.629175 
L 49.873875 -91.313328 
z
" style="stroke: #56b4e9; stroke-opacity: 0.18"/>
    </defs>
    <g clip-path="url(#pf1427ba5fd)">
     <use xlink:href="#m69cd556748" x="0" y="323.373125" style="fill: #56b4e9; fill-opacity: 0.18; stroke: #56b4e9; stroke-opacity: 0.18"/>
    </g>
   </g>
   <g id="line2d_1">
    <path d="M 49.873875 257.044219 
L 54.104148 255.262798 
L 58.33442 253.481378 
L 62.564693 251.699957 
L 66.794966 249.918537 
L 71.025239 248.137116 
L 75.255511 246.355696 
L 79.485784 244.574276 
L 83.716057 242.792855 
L 87.94633 241.011435 
L 92.176602 239.230014 
L 96.406875 237.448594 
L 100.637148 235.667173 
L 104.86742 233.885753 
L 109.097693 232.104332 
L 113.327966 230.322912 
L 117.558239 228.541491 
L 121.788511 226.760071 
L 126.018784 224.978651 
L 130.249057 223.19723 
L 134.47933 221.41581 
L 138.709602 219.634389 
L 142.939875 217.852969 
L 147.170148 216.071548 
L 151.40042 214.290128 
L 155.630693 212.508707 
L 159.860966 210.727287 
L 164.091239 208.945866 
L 168.321511 207.164446 
L 172.551784 205.383026 
L 176.782057 203.601605 
L 181.01233 201.820185 
L 185.242602 200.038764 
L 189.472875 198.257344 
L 193.703148 196.475923 
L 197.93342 194.694503 
L 202.163693 192.913082 
L 206.393966 191.131662 
L 210.624239 189.350241 
L 214.854511 187.568821 
L 219.084784 185.787401 
L 223.315057 184.00598 
L 227.54533 182.22456 
L 231.775602 180.443139 
L 236.005875 178.661719 
L 240.236148 176.880298 
L 244.46642 175.098878 
L 248.696693 173.317457 
L 252.926966 171.536037 
L 257.157239 169.754616 
L 261.387511 167.973196 
L 265.617784 166.191776 
L 269.848057 164.410355 
L 274.07833 162.628935 
L 278.308602 160.847514 
L 282.538875 159.066094 
L 286.769148 157.284673 
L 290.99942 155.503253 
L 295.229693 153.721832 
L 299.459966 151.940412 
L 303.690239 150.158991 
L 307.920511 148.377571 
L 312.150784 146.596151 
L 316.381057 144.81473 
L 320.61133 143.03331 
L 324.841602 141.251889 
L 329.071875 139.470469 
L 333.302148 137.689048 
L 337.53242 135.907628 
L 341.762693 134.126207 
L 345.992966 132.344787 
L 350.223239 130.563366 
L 354.453511 128.781946 
L 358.683784 127.000526 
L 362.914057 125.219105 
L 367.14433 123.437685 
L 371.374602 121.656264 
L 375.604875 119.874844 
L 379.835148 118.093423 
L 384.06542 116.312003 
L 388.295693 114.530582 
L 392.525966 112.749162 
L 396.756239 110.967741 
L 400.986511 109.186321 
L 405.216784 107.404901 
L 409.447057 105.62348 
L 413.67733 103.84206 
L 417.907602 102.060639 
L 422.137875 100.279219 
L 426.368148 98.497798 
L 430.59842 96.716378 
L 434.828693 94.934957 
L 439.058966 93.153537 
L 443.289239 91.372116 
L 447.519511 89.590696 
L 451.749784 87.809276 
L 455.980057 86.027855 
L 460.21033 84.246435 
L 464.440602 82.465014 
L 468.670875 80.683594 
" clip-path="url(#pf1427ba5fd)" style="fill: none; stroke-dasharray: 0.9,1.485; stroke-dashoffset: 0; stroke: #1a1a1a; stroke-opacity: 0.6; stroke-width: 0.9"/>
   </g>
   <g id="matplotlib.axis_1">
    <g id="xtick_1">
     <g id="line2d_2">
      <path d="M 84.773625 281.53875 
L 84.773625 7.2 
" clip-path="url(#pf1427ba5fd)" style="fill: none; stroke: #1a1a1a; stroke-opacity: 0.22; stroke-width: 0.5; stroke-linecap: square"/>
     </g>
     <g id="line2d_3">
      <defs>
       <path id="mf19b1c7bd2" d="M 0 0 
L 0 3.5 
" style="stroke: #1a1a1a; stroke-width: 0.8"/>
      </defs>
      <g>
       <use xlink:href="#mf19b1c7bd2" x="84.773625" y="281.53875" style="fill: #1a1a1a; stroke: #1a1a1a; stroke-width: 0.8"/>
      </g>
     </g>
     <g id="text_1">
      <!-- 2 -->
      <g style="fill: #1a1a1a" transform="translate(81.592375 296.137187) scale(0.1 -0.1)">
       <defs>
        <path id="DejaVuSans-32" d="M 1228 531 
L 3431 531 
L 3431 0 
L 469 0 
L 469 531 
Q 828 903 1448 1529 
Q 2069 2156 2228 2338 
Q 2531 2678 2651 2914 
Q 2772 3150 2772 3378 
Q 2772 3750 2511 3984 
Q 2250 4219 1831 4219 
Q 1534 4219 1204 4116 
Q 875 4013 500 3803 
L 500 4441 
Q 881 4594 1212 4672 
Q 1544 4750 1819 4750 
Q 2544 4750 2975 4387 
Q 3406 4025 3406 3419 
Q 3406 3131 3298 2873 
Q 3191 2616 2906 2266 
Q 2828 2175 2409 1742 
Q 1991 1309 1228 531 
z
" transform="scale(0.015625)"/>
       </defs>
       <use xlink:href="#DejaVuSans-32"/>
      </g>
     </g>
    </g>
    <g id="xtick_2">
     <g id="line2d_4">
      <path d="M 201.106125 281.53875 
L 201.106125 7.2 
" clip-path="url(#pf1427ba5fd)" style="fill: none; stroke: #1a1a1a; stroke-opacity: 0.22; stroke-width: 0.5; stroke-linecap: square"/>
     </g>
     <g id="line2d_5">
      <g>
       <use xlink:href="#mf19b1c7bd2" x="201.106125" y="281.53875" style="fill: #1a1a1a; stroke: #1a1a1a; stroke-width: 0.8"/>
      </g>
     </g>
     <g id="text_2">
      <!-- 3 -->
      <g style="fill: #1a1a1a" transform="translate(197.924875 296.137187) scale(0.1 -0.1)">
       <defs>
        <path id="DejaVuSans-33" d="M 2597 2516 
Q 3050 2419 3304 2112 
Q 3559 1806 3559 1356 
Q 3559 666 3084 287 
Q 2609 -91 1734 -91 
Q 1441 -91 1130 -33 
Q 819 25 488 141 
L 488 750 
Q 750 597 1062 519 
Q 1375 441 1716 441 
Q 2309 441 2620 675 
Q 2931 909 2931 1356 
Q 2931 1769 2642 2001 
Q 2353 2234 1838 2234 
L 1294 2234 
L 1294 2753 
L 1863 2753 
Q 2328 2753 2575 2939 
Q 2822 3125 2822 3475 
Q 2822 3834 2567 4026 
Q 2313 4219 1838 4219 
Q 1578 4219 1281 4162 
Q 984 4106 628 3988 
L 628 4550 
Q 988 4650 1302 4700 
Q 1616 4750 1894 4750 
Q 2613 4750 3031 4423 
Q 3450 4097 3450 3541 
Q 3450 3153 3228 2886 
Q 3006 2619 2597 2516 
z
" transform="scale(0.015625)"/>
       </defs>
       <use xlink:href="#DejaVuSans-33"/>
      </g>
     </g>
    </g>
    <g id="xtick_3">
     <g id="line2d_6">
      <path d="M 317.438625 281.53875 
L 317.438625 7.2 
" clip-path="url(#pf1427ba5fd)" style="fill: none; stroke: #1a1a1a; stroke-opacity: 0.22; stroke-width: 0.5; stroke-linecap: square"/>
     </g>
     <g id="line2d_7">
      <g>
       <use xlink:href="#mf19b1c7bd2" x="317.438625" y="281.53875" style="fill: #1a1a1a; stroke: #1a1a1a; stroke-width: 0.8"/>
      </g>
     </g>
     <g id="text_3">
      <!-- 4 -->
      <g style="fill: #1a1a1a" transform="translate(314.257375 296.137187) scale(0.1 -0.1)">
       <defs>
        <path id="DejaVuSans-34" d="M 2419 4116 
L 825 1625 
L 2419 1625 
L 2419 4116 
z
M 2253 4666 
L 3047 4666 
L 3047 1625 
L 3713 1625 
L 3713 1100 
L 3047 1100 
L 3047 0 
L 2419 0 
L 2419 1100 
L 313 1100 
L 313 1709 
L 2253 4666 
z
" transform="scale(0.015625)"/>
       </defs>
       <use xlink:href="#DejaVuSans-34"/>
      </g>
     </g>
    </g>
    <g id="xtick_4">
     <g id="line2d_8">
      <path d="M 433.771125 281.53875 
L 433.771125 7.2 
" clip-path="url(#pf1427ba5fd)" style="fill: none; stroke: #1a1a1a; stroke-opacity: 0.22; stroke-width: 0.5; stroke-linecap: square"/>
     </g>
     <g id="line2d_9">
      <g>
       <use xlink:href="#mf19b1c7bd2" x="433.771125" y="281.53875" style="fill: #1a1a1a; stroke: #1a1a1a; stroke-width: 0.8"/>
      </g>
     </g>
     <g id="text_4">
      <!-- 5 -->
      <g style="fill: #1a1a1a" transform="translate(430.589875 296.137187) scale(0.1 -0.1)">
       <defs>
        <path id="DejaVuSans-35" d="M 691 4666 
L 3169 4666 
L 3169 4134 
L 1269 4134 
L 1269 2991 
Q 1406 3038 1543 3061 
Q 1681 3084 1819 3084 
Q 2600 3084 3056 2656 
Q 3513 2228 3513 1497 
Q 3513 744 3044 326 
Q 2575 -91 1722 -91 
Q 1428 -91 1123 -41 
Q 819 9 494 109 
L 494 744 
Q 775 591 1075 516 
Q 1375 441 1709 441 
Q 2250 441 2565 725 
Q 2881 1009 2881 1497 
Q 2881 1984 2565 2268 
Q 2250 2553 1709 2553 
Q 1456 2553 1204 2497 
Q 953 2441 691 2322 
L 691 4666 
z
" transform="scale(0.015625)"/>
       </defs>
       <use xlink:href="#DejaVuSans-35"/>
      </g>
     </g>
    </g>
    <g id="text_5">
     <!-- d_min(G) — minimum faithful representation dimension -->
     <g style="fill: #1a1a1a" transform="translate(131.129844 313.815312) scale(0.1 -0.1)">
      <defs>
       <path id="DejaVuSans-64" d="M 2906 2969 
L 2906 4863 
L 3481 4863 
L 3481 0 
L 2906 0 
L 2906 525 
Q 2725 213 2448 61 
Q 2172 -91 1784 -91 
Q 1150 -91 751 415 
Q 353 922 353 1747 
Q 353 2572 751 3078 
Q 1150 3584 1784 3584 
Q 2172 3584 2448 3432 
Q 2725 3281 2906 2969 
z
M 947 1747 
Q 947 1113 1208 752 
Q 1469 391 1925 391 
Q 2381 391 2643 752 
Q 2906 1113 2906 1747 
Q 2906 2381 2643 2742 
Q 2381 3103 1925 3103 
Q 1469 3103 1208 2742 
Q 947 2381 947 1747 
z
" transform="scale(0.015625)"/>
       <path id="DejaVuSans-5f" d="M 3263 -1063 
L 3263 -1509 
L -63 -1509 
L -63 -1063 
L 3263 -1063 
z
" transform="scale(0.015625)"/>
       <path id="DejaVuSans-6d" d="M 3328 2828 
Q 3544 3216 3844 3400 
Q 4144 3584 4550 3584 
Q 5097 3584 5394 3201 
Q 5691 2819 5691 2113 
L 5691 0 
L 5113 0 
L 5113 2094 
Q 5113 2597 4934 2840 
Q 4756 3084 4391 3084 
Q 3944 3084 3684 2787 
Q 3425 2491 3425 1978 
L 3425 0 
L 2847 0 
L 2847 2094 
Q 2847 2600 2669 2842 
Q 2491 3084 2119 3084 
Q 1678 3084 1418 2786 
Q 1159 2488 1159 1978 
L 1159 0 
L 581 0 
L 581 3500 
L 1159 3500 
L 1159 2956 
Q 1356 3278 1631 3431 
Q 1906 3584 2284 3584 
Q 2666 3584 2933 3390 
Q 3200 3197 3328 2828 
z
" transform="scale(0.015625)"/>
       <path id="DejaVuSans-69" d="M 603 3500 
L 1178 3500 
L 1178 0 
L 603 0 
L 603 3500 
z
M 603 4863 
L 1178 4863 
L 1178 4134 
L 603 4134 
L 603 4863 
z
" transform="scale(0.015625)"/>
       <path id="DejaVuSans-6e" d="M 3513 2113 
L 3513 0 
L 2938 0 
L 2938 2094 
Q 2938 2591 2744 2837 
Q 2550 3084 2163 3084 
Q 1697 3084 1428 2787 
Q 1159 2491 1159 1978 
L 1159 0 
L 581 0 
L 581 3500 
L 1159 3500 
L 1159 2956 
Q 1366 3272 1645 3428 
Q 1925 3584 2291 3584 
Q 2894 3584 3203 3211 
Q 3513 2838 3513 2113 
z
" transform="scale(0.015625)"/>
       <path id="DejaVuSans-28" d="M 1984 4856 
Q 1566 4138 1362 3434 
Q 1159 2731 1159 2009 
Q 1159 1288 1364 580 
Q 1569 -128 1984 -844 
L 1484 -844 
Q 1016 -109 783 600 
Q 550 1309 550 2009 
Q 550 2706 781 3412 
Q 1013 4119 1484 4856 
L 1984 4856 
z
" transform="scale(0.015625)"/>
       <path id="DejaVuSans-47" d="M 3809 666 
L 3809 1919 
L 2778 1919 
L 2778 2438 
L 4434 2438 
L 4434 434 
Q 4069 175 3628 42 
Q 3188 -91 2688 -91 
Q 1594 -91 976 548 
Q 359 1188 359 2328 
Q 359 3472 976 4111 
Q 1594 4750 2688 4750 
Q 3144 4750 3555 4637 
Q 3966 4525 4313 4306 
L 4313 3634 
Q 3963 3931 3569 4081 
Q 3175 4231 2741 4231 
Q 1884 4231 1454 3753 
Q 1025 3275 1025 2328 
Q 1025 1384 1454 906 
Q 1884 428 2741 428 
Q 3075 428 3337 486 
Q 3600 544 3809 666 
z
" transform="scale(0.015625)"/>
       <path id="DejaVuSans-29" d="M 513 4856 
L 1013 4856 
Q 1481 4119 1714 3412 
Q 1947 2706 1947 2009 
Q 1947 1309 1714 600 
Q 1481 -109 1013 -844 
L 513 -844 
Q 928 -128 1133 580 
Q 1338 1288 1338 2009 
Q 1338 2731 1133 3434 
Q 928 4138 513 4856 
z
" transform="scale(0.015625)"/>
       <path id="DejaVuSans-20" transform="scale(0.015625)"/>
       <path id="DejaVuSans-2014" d="M 313 1978 
L 6088 1978 
L 6088 1528 
L 313 1528 
L 313 1978 
z
" transform="scale(0.015625)"/>
       <path id="DejaVuSans-75" d="M 544 1381 
L 544 3500 
L 1119 3500 
L 1119 1403 
Q 1119 906 1312 657 
Q 1506 409 1894 409 
Q 2359 409 2629 706 
Q 2900 1003 2900 1516 
L 2900 3500 
L 3475 3500 
L 3475 0 
L 2900 0 
L 2900 538 
Q 2691 219 2414 64 
Q 2138 -91 1772 -91 
Q 1169 -91 856 284 
Q 544 659 544 1381 
z
M 1991 3584 
L 1991 3584 
z
" transform="scale(0.015625)"/>
       <path id="DejaVuSans-66" d="M 2375 4863 
L 2375 4384 
L 1825 4384 
Q 1516 4384 1395 4259 
Q 1275 4134 1275 3809 
L 1275 3500 
L 2222 3500 
L 2222 3053 
L 1275 3053 
L 1275 0 
L 697 0 
L 697 3053 
L 147 3053 
L 147 3500 
L 697 3500 
L 697 3744 
Q 697 4328 969 4595 
Q 1241 4863 1831 4863 
L 2375 4863 
z
" transform="scale(0.015625)"/>
       <path id="DejaVuSans-61" d="M 2194 1759 
Q 1497 1759 1228 1600 
Q 959 1441 959 1056 
Q 959 750 1161 570 
Q 1363 391 1709 391 
Q 2188 391 2477 730 
Q 2766 1069 2766 1631 
L 2766 1759 
L 2194 1759 
z
M 3341 1997 
L 3341 0 
L 2766 0 
L 2766 531 
Q 2569 213 2275 61 
Q 1981 -91 1556 -91 
Q 1019 -91 701 211 
Q 384 513 384 1019 
Q 384 1609 779 1909 
Q 1175 2209 1959 2209 
L 2766 2209 
L 2766 2266 
Q 2766 2663 2505 2880 
Q 2244 3097 1772 3097 
Q 1472 3097 1187 3025 
Q 903 2953 641 2809 
L 641 3341 
Q 956 3463 1253 3523 
Q 1550 3584 1831 3584 
Q 2591 3584 2966 3190 
Q 3341 2797 3341 1997 
z
" transform="scale(0.015625)"/>
       <path id="DejaVuSans-74" d="M 1172 4494 
L 1172 3500 
L 2356 3500 
L 2356 3053 
L 1172 3053 
L 1172 1153 
Q 1172 725 1289 603 
Q 1406 481 1766 481 
L 2356 481 
L 2356 0 
L 1766 0 
Q 1100 0 847 248 
Q 594 497 594 1153 
L 594 3053 
L 172 3053 
L 172 3500 
L 594 3500 
L 594 4494 
L 1172 4494 
z
" transform="scale(0.015625)"/>
       <path id="DejaVuSans-68" d="M 3513 2113 
L 3513 0 
L 2938 0 
L 2938 2094 
Q 2938 2591 2744 2837 
Q 2550 3084 2163 3084 
Q 1697 3084 1428 2787 
Q 1159 2491 1159 1978 
L 1159 0 
L 581 0 
L 581 4863 
L 1159 4863 
L 1159 2956 
Q 1366 3272 1645 3428 
Q 1925 3584 2291 3584 
Q 2894 3584 3203 3211 
Q 3513 2838 3513 2113 
z
" transform="scale(0.015625)"/>
       <path id="DejaVuSans-6c" d="M 603 4863 
L 1178 4863 
L 1178 0 
L 603 0 
L 603 4863 
z
" transform="scale(0.015625)"/>
       <path id="DejaVuSans-72" d="M 2631 2963 
Q 2534 3019 2420 3045 
Q 2306 3072 2169 3072 
Q 1681 3072 1420 2755 
Q 1159 2438 1159 1844 
L 1159 0 
L 581 0 
L 581 3500 
L 1159 3500 
L 1159 2956 
Q 1341 3275 1631 3429 
Q 1922 3584 2338 3584 
Q 2397 3584 2469 3576 
Q 2541 3569 2628 3553 
L 2631 2963 
z
" transform="scale(0.015625)"/>
       <path id="DejaVuSans-65" d="M 3597 1894 
L 3597 1613 
L 953 1613 
Q 991 1019 1311 708 
Q 1631 397 2203 397 
Q 2534 397 2845 478 
Q 3156 559 3463 722 
L 3463 178 
Q 3153 47 2828 -22 
Q 2503 -91 2169 -91 
Q 1331 -91 842 396 
Q 353 884 353 1716 
Q 353 2575 817 3079 
Q 1281 3584 2069 3584 
Q 2775 3584 3186 3129 
Q 3597 2675 3597 1894 
z
M 3022 2063 
Q 3016 2534 2758 2815 
Q 2500 3097 2075 3097 
Q 1594 3097 1305 2825 
Q 1016 2553 972 2059 
L 3022 2063 
z
" transform="scale(0.015625)"/>
       <path id="DejaVuSans-70" d="M 1159 525 
L 1159 -1331 
L 581 -1331 
L 581 3500 
L 1159 3500 
L 1159 2969 
Q 1341 3281 1617 3432 
Q 1894 3584 2278 3584 
Q 2916 3584 3314 3078 
Q 3713 2572 3713 1747 
Q 3713 922 3314 415 
Q 2916 -91 2278 -91 
Q 1894 -91 1617 61 
Q 1341 213 1159 525 
z
M 3116 1747 
Q 3116 2381 2855 2742 
Q 2594 3103 2138 3103 
Q 1681 3103 1420 2742 
Q 1159 2381 1159 1747 
Q 1159 1113 1420 752 
Q 1681 391 2138 391 
Q 2594 391 2855 752 
Q 3116 1113 3116 1747 
z
" transform="scale(0.015625)"/>
       <path id="DejaVuSans-73" d="M 2834 3397 
L 2834 2853 
Q 2591 2978 2328 3040 
Q 2066 3103 1784 3103 
Q 1356 3103 1142 2972 
Q 928 2841 928 2578 
Q 928 2378 1081 2264 
Q 1234 2150 1697 2047 
L 1894 2003 
Q 2506 1872 2764 1633 
Q 3022 1394 3022 966 
Q 3022 478 2636 193 
Q 2250 -91 1575 -91 
Q 1294 -91 989 -36 
Q 684 19 347 128 
L 347 722 
Q 666 556 975 473 
Q 1284 391 1588 391 
Q 1994 391 2212 530 
Q 2431 669 2431 922 
Q 2431 1156 2273 1281 
Q 2116 1406 1581 1522 
L 1381 1569 
Q 847 1681 609 1914 
Q 372 2147 372 2553 
Q 372 3047 722 3315 
Q 1072 3584 1716 3584 
Q 2034 3584 2315 3537 
Q 2597 3491 2834 3397 
z
" transform="scale(0.015625)"/>
       <path id="DejaVuSans-6f" d="M 1959 3097 
Q 1497 3097 1228 2736 
Q 959 2375 959 1747 
Q 959 1119 1226 758 
Q 1494 397 1959 397 
Q 2419 397 2687 759 
Q 2956 1122 2956 1747 
Q 2956 2369 2687 2733 
Q 2419 3097 1959 3097 
z
M 1959 3584 
Q 2709 3584 3137 3096 
Q 3566 2609 3566 1747 
Q 3566 888 3137 398 
Q 2709 -91 1959 -91 
Q 1206 -91 779 398 
Q 353 888 353 1747 
Q 353 2609 779 3096 
Q 1206 3584 1959 3584 
z
" transform="scale(0.015625)"/>
      </defs>
      <use xlink:href="#DejaVuSans-64"/>
      <use xlink:href="#DejaVuSans-5f" x="63.476562"/>
      <use xlink:href="#DejaVuSans-6d" x="113.476562"/>
      <use xlink:href="#DejaVuSans-69" x="210.888672"/>
      <use xlink:href="#DejaVuSans-6e" x="238.671875"/>
      <use xlink:href="#DejaVuSans-28" x="302.050781"/>
      <use xlink:href="#DejaVuSans-47" x="341.064453"/>
      <use xlink:href="#DejaVuSans-29" x="418.554688"/>
      <use xlink:href="#DejaVuSans-20" x="457.568359"/>
      <use xlink:href="#DejaVuSans-2014" x="489.355469"/>
      <use xlink:href="#DejaVuSans-20" x="589.355469"/>
      <use xlink:href="#DejaVuSans-6d" x="621.142578"/>
      <use xlink:href="#DejaVuSans-69" x="718.554688"/>
      <use xlink:href="#DejaVuSans-6e" x="746.337891"/>
      <use xlink:href="#DejaVuSans-69" x="809.716797"/>
      <use xlink:href="#DejaVuSans-6d" x="837.5"/>
      <use xlink:href="#DejaVuSans-75" x="934.912109"/>
      <use xlink:href="#DejaVuSans-6d" x="998.291016"/>
      <use xlink:href="#DejaVuSans-20" x="1095.703125"/>
      <use xlink:href="#DejaVuSans-66" x="1127.490234"/>
      <use xlink:href="#DejaVuSans-61" x="1162.695312"/>
      <use xlink:href="#DejaVuSans-69" x="1223.974609"/>
      <use xlink:href="#DejaVuSans-74" x="1251.757812"/>
      <use xlink:href="#DejaVuSans-68" x="1290.966797"/>
      <use xlink:href="#DejaVuSans-66" x="1354.345703"/>
      <use xlink:href="#DejaVuSans-75" x="1389.550781"/>
      <use xlink:href="#DejaVuSans-6c" x="1452.929688"/>
      <use xlink:href="#DejaVuSans-20" x="1480.712891"/>
      <use xlink:href="#DejaVuSans-72" x="1512.5"/>
      <use xlink:href="#DejaVuSans-65" x="1551.363281"/>
      <use xlink:href="#DejaVuSans-70" x="1612.886719"/>
      <use xlink:href="#DejaVuSans-72" x="1676.363281"/>
      <use xlink:href="#DejaVuSans-65" x="1715.226562"/>
      <use xlink:href="#DejaVuSans-73" x="1776.75"/>
      <use xlink:href="#DejaVuSans-65" x="1828.849609"/>
      <use xlink:href="#DejaVuSans-6e" x="1890.373047"/>
      <use xlink:href="#DejaVuSans-74" x="1953.751953"/>
      <use xlink:href="#DejaVuSans-61" x="1992.960938"/>
      <use xlink:href="#DejaVuSans-74" x="2054.240234"/>
      <use xlink:href="#DejaVuSans-69" x="2093.449219"/>
      <use xlink:href="#DejaVuSans-6f" x="2121.232422"/>
      <use xlink:href="#DejaVuSans-6e" x="2182.414062"/>
      <use xlink:href="#DejaVuSans-20" x="2245.792969"/>
      <use xlink:href="#DejaVuSans-64" x="2277.580078"/>
      <use xlink:href="#DejaVuSans-69" x="2341.056641"/>
      <use xlink:href="#DejaVuSans-6d" x="2368.839844"/>
      <use xlink:href="#DejaVuSans-65" x="2466.251953"/>
      <use xlink:href="#DejaVuSans-6e" x="2527.775391"/>
      <use xlink:href="#DejaVuSans-73" x="2591.154297"/>
      <use xlink:href="#DejaVuSans-69" x="2643.253906"/>
      <use xlink:href="#DejaVuSans-6f" x="2671.037109"/>
      <use xlink:href="#DejaVuSans-6e" x="2732.21875"/>
     </g>
    </g>
   </g>
   <g id="matplotlib.axis_2">
    <g id="ytick_1">
     <g id="line2d_10">
      <path d="M 38.240625 242.3475 
L 503.570625 242.3475 
" clip-path="url(#pf1427ba5fd)" style="fill: none; stroke: #1a1a1a; stroke-opacity: 0.22; stroke-width: 0.5; stroke-linecap: square"/>
     </g>
     <g id="line2d_11">
      <defs>
       <path id="m9c860c47a9" d="M 0 0 
L -3.5 0 
" style="stroke: #1a1a1a; stroke-width: 0.8"/>
      </defs>
      <g>
       <use xlink:href="#m9c860c47a9" x="38.240625" y="242.3475" style="fill: #1a1a1a; stroke: #1a1a1a; stroke-width: 0.8"/>
      </g>
     </g>
     <g id="text_6">
      <!-- 2 -->
      <g style="fill: #1a1a1a" transform="translate(24.878125 246.146719) scale(0.1 -0.1)">
       <use xlink:href="#DejaVuSans-32"/>
      </g>
     </g>
    </g>
    <g id="ytick_2">
     <g id="line2d_12">
      <path d="M 38.240625 193.358437 
L 503.570625 193.358437 
" clip-path="url(#pf1427ba5fd)" style="fill: none; stroke: #1a1a1a; stroke-opacity: 0.22; stroke-width: 0.5; stroke-linecap: square"/>
     </g>
     <g id="line2d_13">
      <g>
       <use xlink:href="#m9c860c47a9" x="38.240625" y="193.358437" style="fill: #1a1a1a; stroke: #1a1a1a; stroke-width: 0.8"/>
      </g>
     </g>
     <g id="text_7">
      <!-- 3 -->
      <g style="fill: #1a1a1a" transform="translate(24.878125 197.157656) scale(0.1 -0.1)">
       <use xlink:href="#DejaVuSans-33"/>
      </g>
     </g>
    </g>
    <g id="ytick_3">
     <g id="line2d_14">
      <path d="M 38.240625 144.369375 
L 503.570625 144.369375 
" clip-path="url(#pf1427ba5fd)" style="fill: none; stroke: #1a1a1a; stroke-opacity: 0.22; stroke-width: 0.5; stroke-linecap: square"/>
     </g>
     <g id="line2d_15">
      <g>
       <use xlink:href="#m9c860c47a9" x="38.240625" y="144.369375" style="fill: #1a1a1a; stroke: #1a1a1a; stroke-width: 0.8"/>
      </g>
     </g>
     <g id="text_8">
      <!-- 4 -->
      <g style="fill: #1a1a1a" transform="translate(24.878125 148.168594) scale(0.1 -0.1)">
       <use xlink:href="#DejaVuSans-34"/>
      </g>
     </g>
    </g>
    <g id="ytick_4">
     <g id="line2d_16">
      <path d="M 38.240625 95.380312 
L 503.570625 95.380312 
" clip-path="url(#pf1427ba5fd)" style="fill: none; stroke: #1a1a1a; stroke-opacity: 0.22; stroke-width: 0.5; stroke-linecap: square"/>
     </g>
     <g id="line2d_17">
      <g>
       <use xlink:href="#m9c860c47a9" x="38.240625" y="95.380312" style="fill: #1a1a1a; stroke: #1a1a1a; stroke-width: 0.8"/>
      </g>
     </g>
     <g id="text_9">
      <!-- 5 -->
      <g style="fill: #1a1a1a" transform="translate(24.878125 99.179531) scale(0.1 -0.1)">
       <use xlink:href="#DejaVuSans-35"/>
      </g>
     </g>
    </g>
    <g id="ytick_5">
     <g id="line2d_18">
      <path d="M 38.240625 46.39125 
L 503.570625 46.39125 
" clip-path="url(#pf1427ba5fd)" style="fill: none; stroke: #1a1a1a; stroke-opacity: 0.22; stroke-width: 0.5; stroke-linecap: square"/>
     </g>
     <g id="line2d_19">
      <g>
       <use xlink:href="#m9c860c47a9" x="38.240625" y="46.39125" style="fill: #1a1a1a; stroke: #1a1a1a; stroke-width: 0.8"/>
      </g>
     </g>
     <g id="text_10">
      <!-- 6 -->
      <g style="fill: #1a1a1a" transform="translate(24.878125 50.190469) scale(0.1 -0.1)">
       <defs>
        <path id="DejaVuSans-36" d="M 2113 2584 
Q 1688 2584 1439 2293 
Q 1191 2003 1191 1497 
Q 1191 994 1439 701 
Q 1688 409 2113 409 
Q 2538 409 2786 701 
Q 3034 994 3034 1497 
Q 3034 2003 2786 2293 
Q 2538 2584 2113 2584 
z
M 3366 4563 
L 3366 3988 
Q 3128 4100 2886 4159 
Q 2644 4219 2406 4219 
Q 1781 4219 1451 3797 
Q 1122 3375 1075 2522 
Q 1259 2794 1537 2939 
Q 1816 3084 2150 3084 
Q 2853 3084 3261 2657 
Q 3669 2231 3669 1497 
Q 3669 778 3244 343 
Q 2819 -91 2113 -91 
Q 1303 -91 875 529 
Q 447 1150 447 2328 
Q 447 3434 972 4092 
Q 1497 4750 2381 4750 
Q 2619 4750 2861 4703 
Q 3103 4656 3366 4563 
z
" transform="scale(0.015625)"/>
       </defs>
       <use xlink:href="#DejaVuSans-36"/>
      </g>
     </g>
    </g>
    <g id="text_11">
     <!-- restricted effective rank (unconstrained arm) -->
     <g style="fill: #1a1a1a" transform="translate(14.798438 257.317812) rotate(-90) scale(0.1 -0.1)">
      <defs>
       <path id="DejaVuSans-63" d="M 3122 3366 
L 3122 2828 
Q 2878 2963 2633 3030 
Q 2388 3097 2138 3097 
Q 1578 3097 1268 2742 
Q 959 2388 959 1747 
Q 959 1106 1268 751 
Q 1578 397 2138 397 
Q 2388 397 2633 464 
Q 2878 531 3122 666 
L 3122 134 
Q 2881 22 2623 -34 
Q 2366 -91 2075 -91 
Q 1284 -91 818 406 
Q 353 903 353 1747 
Q 353 2603 823 3093 
Q 1294 3584 2113 3584 
Q 2378 3584 2631 3529 
Q 2884 3475 3122 3366 
z
" transform="scale(0.015625)"/>
       <path id="DejaVuSans-76" d="M 191 3500 
L 800 3500 
L 1894 563 
L 2988 3500 
L 3597 3500 
L 2284 0 
L 1503 0 
L 191 3500 
z
" transform="scale(0.015625)"/>
       <path id="DejaVuSans-6b" d="M 581 4863 
L 1159 4863 
L 1159 1991 
L 2875 3500 
L 3609 3500 
L 1753 1863 
L 3688 0 
L 2938 0 
L 1159 1709 
L 1159 0 
L 581 0 
L 581 4863 
z
" transform="scale(0.015625)"/>
      </defs>
      <use xlink:href="#DejaVuSans-72"/>
      <use xlink:href="#DejaVuSans-65" x="38.863281"/>
      <use xlink:href="#DejaVuSans-73" x="100.386719"/>
      <use xlink:href="#DejaVuSans-74" x="152.486328"/>
      <use xlink:href="#DejaVuSans-72" x="191.695312"/>
      <use xlink:href="#DejaVuSans-69" x="232.808594"/>
      <use xlink:href="#DejaVuSans-63" x="260.591797"/>
      <use xlink:href="#DejaVuSans-74" x="315.572266"/>
      <use xlink:href="#DejaVuSans-65" x="354.78125"/>
      <use xlink:href="#DejaVuSans-64" x="416.304688"/>
      <use xlink:href="#DejaVuSans-20" x="479.78125"/>
      <use xlink:href="#DejaVuSans-65" x="511.568359"/>
      <use xlink:href="#DejaVuSans-66" x="573.091797"/>
      <use xlink:href="#DejaVuSans-66" x="608.296875"/>
      <use xlink:href="#DejaVuSans-65" x="643.501953"/>
      <use xlink:href="#DejaVuSans-63" x="705.025391"/>
      <use xlink:href="#DejaVuSans-74" x="760.005859"/>
      <use xlink:href="#DejaVuSans-69" x="799.214844"/>
      <use xlink:href="#DejaVuSans-76" x="826.998047"/>
      <use xlink:href="#DejaVuSans-65" x="886.177734"/>
      <use xlink:href="#DejaVuSans-20" x="947.701172"/>
      <use xlink:href="#DejaVuSans-72" x="979.488281"/>
      <use xlink:href="#DejaVuSans-61" x="1020.601562"/>
      <use xlink:href="#DejaVuSans-6e" x="1081.880859"/>
      <use xlink:href="#DejaVuSans-6b" x="1145.259766"/>
      <use xlink:href="#DejaVuSans-20" x="1203.169922"/>
      <use xlink:href="#DejaVuSans-28" x="1234.957031"/>
      <use xlink:href="#DejaVuSans-75" x="1273.970703"/>
      <use xlink:href="#DejaVuSans-6e" x="1337.349609"/>
      <use xlink:href="#DejaVuSans-63" x="1400.728516"/>
      <use xlink:href="#DejaVuSans-6f" x="1455.708984"/>
      <use xlink:href="#DejaVuSans-6e" x="1516.890625"/>
      <use xlink:href="#DejaVuSans-73" x="1580.269531"/>
      <use xlink:href="#DejaVuSans-74" x="1632.369141"/>
      <use xlink:href="#DejaVuSans-72" x="1671.578125"/>
      <use xlink:href="#DejaVuSans-61" x="1712.691406"/>
      <use xlink:href="#DejaVuSans-69" x="1773.970703"/>
      <use xlink:href="#DejaVuSans-6e" x="1801.753906"/>
      <use xlink:href="#DejaVuSans-65" x="1865.132812"/>
      <use xlink:href="#DejaVuSans-64" x="1926.65625"/>
      <use xlink:href="#DejaVuSans-20" x="1990.132812"/>
      <use xlink:href="#DejaVuSans-61" x="2021.919922"/>
      <use xlink:href="#DejaVuSans-72" x="2083.199219"/>
      <use xlink:href="#DejaVuSans-6d" x="2122.5625"/>
      <use xlink:href="#DejaVuSans-29" x="2219.974609"/>
     </g>
    </g>
   </g>
   <g id="patch_3">
    <path d="M 38.240625 281.53875 
L 38.240625 7.2 
" style="fill: none; stroke: #1a1a1a; stroke-linejoin: miter; stroke-linecap: square"/>
   </g>
   <g id="patch_4">
    <path d="M 503.570625 281.53875 
L 503.570625 7.2 
" style="fill: none; stroke: #1a1a1a; stroke-linejoin: miter; stroke-linecap: square"/>
   </g>
   <g id="patch_5">
    <path d="M 38.240625 281.53875 
L 503.570625 281.53875 
" style="fill: none; stroke: #1a1a1a; stroke-linejoin: miter; stroke-linecap: square"/>
   </g>
   <g id="patch_6">
    <path d="M 38.240625 7.2 
L 503.570625 7.2 
" style="fill: none; stroke: #1a1a1a; stroke-linejoin: miter; stroke-linecap: square"/>
   </g>
   <g id="text_12">
    <!-- rank = d_min -->
    <g style="fill: #5a5a5a" transform="translate(407.28877 83.703639) rotate(-33) scale(0.085 -0.085)">
     <defs>
      <path id="DejaVuSans-3d" d="M 678 2906 
L 4684 2906 
L 4684 2381 
L 678 2381 
L 678 2906 
z
M 678 1631 
L 4684 1631 
L 4684 1100 
L 678 1100 
L 678 1631 
z
" transform="scale(0.015625)"/>
     </defs>
     <use xlink:href="#DejaVuSans-72"/>
     <use xlink:href="#DejaVuSans-61" x="41.113281"/>
     <use xlink:href="#DejaVuSans-6e" x="102.392578"/>
     <use xlink:href="#DejaVuSans-6b" x="165.771484"/>
     <use xlink:href="#DejaVuSans-20" x="223.681641"/>
     <use xlink:href="#DejaVuSans-3d" x="255.46875"/>
     <use xlink:href="#DejaVuSans-20" x="339.257812"/>
     <use xlink:href="#DejaVuSans-64" x="371.044922"/>
     <use xlink:href="#DejaVuSans-5f" x="434.521484"/>
     <use xlink:href="#DejaVuSans-6d" x="484.521484"/>
     <use xlink:href="#DejaVuSans-69" x="581.933594"/>
     <use xlink:href="#DejaVuSans-6e" x="609.716797"/>
    </g>
   </g>
   <g id="text_13">
    <!-- pre-registered band -->
    <g style="fill: #5a5a5a" transform="translate(67.32375 203.016031) scale(0.08 -0.08)">
     <defs>
      <path id="DejaVuSans-2d" d="M 313 2009 
L 1997 2009 
L 1997 1497 
L 313 1497 
L 313 2009 
z
" transform="scale(0.015625)"/>
      <path id="DejaVuSans-67" d="M 2906 1791 
Q 2906 2416 2648 2759 
Q 2391 3103 1925 3103 
Q 1463 3103 1205 2759 
Q 947 2416 947 1791 
Q 947 1169 1205 825 
Q 1463 481 1925 481 
Q 2391 481 2648 825 
Q 2906 1169 2906 1791 
z
M 3481 434 
Q 3481 -459 3084 -895 
Q 2688 -1331 1869 -1331 
Q 1566 -1331 1297 -1286 
Q 1028 -1241 775 -1147 
L 775 -588 
Q 1028 -725 1275 -790 
Q 1522 -856 1778 -856 
Q 2344 -856 2625 -561 
Q 2906 -266 2906 331 
L 2906 616 
Q 2728 306 2450 153 
Q 2172 0 1784 0 
Q 1141 0 747 490 
Q 353 981 353 1791 
Q 353 2603 747 3093 
Q 1141 3584 1784 3584 
Q 2172 3584 2450 3431 
Q 2728 3278 2906 2969 
L 2906 3500 
L 3481 3500 
L 3481 434 
z
" transform="scale(0.015625)"/>
      <path id="DejaVuSans-62" d="M 3116 1747 
Q 3116 2381 2855 2742 
Q 2594 3103 2138 3103 
Q 1681 3103 1420 2742 
Q 1159 2381 1159 1747 
Q 1159 1113 1420 752 
Q 1681 391 2138 391 
Q 2594 391 2855 752 
Q 3116 1113 3116 1747 
z
M 1159 2969 
Q 1341 3281 1617 3432 
Q 1894 3584 2278 3584 
Q 2916 3584 3314 3078 
Q 3713 2572 3713 1747 
Q 3713 922 3314 415 
Q 2916 -91 2278 -91 
Q 1894 -91 1617 61 
Q 1341 213 1159 525 
L 1159 0 
L 581 0 
L 581 4863 
L 1159 4863 
L 1159 2969 
z
" transform="scale(0.015625)"/>
     </defs>
     <use xlink:href="#DejaVuSans-70"/>
     <use xlink:href="#DejaVuSans-72" x="63.476562"/>
     <use xlink:href="#DejaVuSans-65" x="102.339844"/>
     <use xlink:href="#DejaVuSans-2d" x="163.863281"/>
     <use xlink:href="#DejaVuSans-72" x="199.947266"/>
     <use xlink:href="#DejaVuSans-65" x="238.810547"/>
     <use xlink:href="#DejaVuSans-67" x="300.333984"/>
     <use xlink:href="#DejaVuSans-69" x="363.810547"/>
     <use xlink:href="#DejaVuSans-73" x="391.59375"/>
     <use xlink:href="#DejaVuSans-74" x="443.693359"/>
     <use xlink:href="#DejaVuSans-65" x="482.902344"/>
     <use xlink:href="#DejaVuSans-72" x="544.425781"/>
     <use xlink:href="#DejaVuSans-65" x="583.289062"/>
     <use xlink:href="#DejaVuSans-64" x="644.8125"/>
     <use xlink:href="#DejaVuSans-20" x="708.289062"/>
     <use xlink:href="#DejaVuSans-62" x="740.076172"/>
     <use xlink:href="#DejaVuSans-61" x="803.552734"/>
     <use xlink:href="#DejaVuSans-6e" x="864.832031"/>
     <use xlink:href="#DejaVuSans-64" x="928.210938"/>
    </g>
    <!-- [0.7, 1.3] x d_min -->
    <g style="fill: #5a5a5a" transform="translate(67.32375 211.974281) scale(0.08 -0.08)">
     <defs>
      <path id="DejaVuSans-5b" d="M 550 4863 
L 1875 4863 
L 1875 4416 
L 1125 4416 
L 1125 -397 
L 1875 -397 
L 1875 -844 
L 550 -844 
L 550 4863 
z
" transform="scale(0.015625)"/>
      <path id="DejaVuSans-30" d="M 2034 4250 
Q 1547 4250 1301 3770 
Q 1056 3291 1056 2328 
Q 1056 1369 1301 889 
Q 1547 409 2034 409 
Q 2525 409 2770 889 
Q 3016 1369 3016 2328 
Q 3016 3291 2770 3770 
Q 2525 4250 2034 4250 
z
M 2034 4750 
Q 2819 4750 3233 4129 
Q 3647 3509 3647 2328 
Q 3647 1150 3233 529 
Q 2819 -91 2034 -91 
Q 1250 -91 836 529 
Q 422 1150 422 2328 
Q 422 3509 836 4129 
Q 1250 4750 2034 4750 
z
" transform="scale(0.015625)"/>
      <path id="DejaVuSans-2e" d="M 684 794 
L 1344 794 
L 1344 0 
L 684 0 
L 684 794 
z
" transform="scale(0.015625)"/>
      <path id="DejaVuSans-37" d="M 525 4666 
L 3525 4666 
L 3525 4397 
L 1831 0 
L 1172 0 
L 2766 4134 
L 525 4134 
L 525 4666 
z
" transform="scale(0.015625)"/>
      <path id="DejaVuSans-2c" d="M 750 794 
L 1409 794 
L 1409 256 
L 897 -744 
L 494 -744 
L 750 256 
L 750 794 
z
" transform="scale(0.015625)"/>
      <path id="DejaVuSans-31" d="M 794 531 
L 1825 531 
L 1825 4091 
L 703 3866 
L 703 4441 
L 1819 4666 
L 2450 4666 
L 2450 531 
L 3481 531 
L 3481 0 
L 794 0 
L 794 531 
z
" transform="scale(0.015625)"/>
      <path id="DejaVuSans-5d" d="M 1947 4863 
L 1947 -844 
L 622 -844 
L 622 -397 
L 1369 -397 
L 1369 4416 
L 622 4416 
L 622 4863 
L 1947 4863 
z
" transform="scale(0.015625)"/>
      <path id="DejaVuSans-78" d="M 3513 3500 
L 2247 1797 
L 3578 0 
L 2900 0 
L 1881 1375 
L 863 0 
L 184 0 
L 1544 1831 
L 300 3500 
L 978 3500 
L 1906 2253 
L 2834 3500 
L 3513 3500 
z
" transform="scale(0.015625)"/>
     </defs>
     <use xlink:href="#DejaVuSans-5b"/>
     <use xlink:href="#DejaVuSans-30" x="39.013672"/>
     <use xlink:href="#DejaVuSans-2e" x="102.636719"/>
     <use xlink:href="#DejaVuSans-37" x="134.423828"/>
     <use xlink:href="#DejaVuSans-2c" x="198.046875"/>
     <use xlink:href="#DejaVuSans-20" x="229.833984"/>
     <use xlink:href="#DejaVuSans-31" x="261.621094"/>
     <use xlink:href="#DejaVuSans-2e" x="325.244141"/>
     <use xlink:href="#DejaVuSans-33" x="357.03125"/>
     <use xlink:href="#DejaVuSans-5d" x="420.654297"/>
     <use xlink:href="#DejaVuSans-20" x="459.667969"/>
     <use xlink:href="#DejaVuSans-78" x="491.455078"/>
     <use xlink:href="#DejaVuSans-20" x="550.634766"/>
     <use xlink:href="#DejaVuSans-64" x="582.421875"/>
     <use xlink:href="#DejaVuSans-5f" x="645.898438"/>
     <use xlink:href="#DejaVuSans-6d" x="695.898438"/>
     <use xlink:href="#DejaVuSans-69" x="793.310547"/>
     <use xlink:href="#DejaVuSans-6e" x="821.09375"/>
    </g>
   </g>
   <g id="text_14">
    <!-- S3 (n=3) -->
    <g style="fill: #0072b2" transform="translate(92.773625 236.600521) scale(0.085 -0.085)">
     <defs>
      <path id="DejaVuSans-Bold-53" d="M 3834 4519 
L 3834 3531 
Q 3450 3703 3084 3790 
Q 2719 3878 2394 3878 
Q 1963 3878 1756 3759 
Q 1550 3641 1550 3391 
Q 1550 3203 1689 3098 
Q 1828 2994 2194 2919 
L 2706 2816 
Q 3484 2659 3812 2340 
Q 4141 2022 4141 1434 
Q 4141 663 3683 286 
Q 3225 -91 2284 -91 
Q 1841 -91 1394 -6 
Q 947 78 500 244 
L 500 1259 
Q 947 1022 1364 901 
Q 1781 781 2169 781 
Q 2563 781 2772 912 
Q 2981 1044 2981 1288 
Q 2981 1506 2839 1625 
Q 2697 1744 2272 1838 
L 1806 1941 
Q 1106 2091 782 2419 
Q 459 2747 459 3303 
Q 459 4000 909 4375 
Q 1359 4750 2203 4750 
Q 2588 4750 2994 4692 
Q 3400 4634 3834 4519 
z
" transform="scale(0.015625)"/>
      <path id="DejaVuSans-Bold-33" d="M 2981 2516 
Q 3453 2394 3698 2092 
Q 3944 1791 3944 1325 
Q 3944 631 3412 270 
Q 2881 -91 1863 -91 
Q 1503 -91 1142 -33 
Q 781 25 428 141 
L 428 1069 
Q 766 900 1098 814 
Q 1431 728 1753 728 
Q 2231 728 2486 893 
Q 2741 1059 2741 1369 
Q 2741 1688 2480 1852 
Q 2219 2016 1709 2016 
L 1228 2016 
L 1228 2791 
L 1734 2791 
Q 2188 2791 2409 2933 
Q 2631 3075 2631 3366 
Q 2631 3634 2415 3781 
Q 2200 3928 1806 3928 
Q 1516 3928 1219 3862 
Q 922 3797 628 3669 
L 628 4550 
Q 984 4650 1334 4700 
Q 1684 4750 2022 4750 
Q 2931 4750 3382 4451 
Q 3834 4153 3834 3553 
Q 3834 3144 3618 2883 
Q 3403 2622 2981 2516 
z
" transform="scale(0.015625)"/>
      <path id="DejaVuSans-Bold-20" transform="scale(0.015625)"/>
      <path id="DejaVuSans-Bold-28" d="M 2413 -844 
L 1484 -844 
Q 1006 -72 778 623 
Q 550 1319 550 2003 
Q 550 2688 779 3389 
Q 1009 4091 1484 4856 
L 2413 4856 
Q 2013 4116 1813 3408 
Q 1613 2700 1613 2009 
Q 1613 1319 1811 609 
Q 2009 -100 2413 -844 
z
" transform="scale(0.015625)"/>
      <path id="DejaVuSans-Bold-6e" d="M 4056 2131 
L 4056 0 
L 2931 0 
L 2931 347 
L 2931 1631 
Q 2931 2084 2911 2256 
Q 2891 2428 2841 2509 
Q 2775 2619 2662 2680 
Q 2550 2741 2406 2741 
Q 2056 2741 1856 2470 
Q 1656 2200 1656 1722 
L 1656 0 
L 538 0 
L 538 3500 
L 1656 3500 
L 1656 2988 
Q 1909 3294 2193 3439 
Q 2478 3584 2822 3584 
Q 3428 3584 3742 3212 
Q 4056 2841 4056 2131 
z
" transform="scale(0.015625)"/>
      <path id="DejaVuSans-Bold-3d" d="M 678 3084 
L 4684 3084 
L 4684 2350 
L 678 2350 
L 678 3084 
z
M 678 1663 
L 4684 1663 
L 4684 922 
L 678 922 
L 678 1663 
z
" transform="scale(0.015625)"/>
      <path id="DejaVuSans-Bold-29" d="M 513 -844 
Q 913 -100 1113 609 
Q 1313 1319 1313 2009 
Q 1313 2700 1113 3408 
Q 913 4116 513 4856 
L 1441 4856 
Q 1916 4091 2145 3389 
Q 2375 2688 2375 2003 
Q 2375 1319 2147 623 
Q 1919 -72 1441 -844 
L 513 -844 
z
" transform="scale(0.015625)"/>
     </defs>
     <use xlink:href="#DejaVuSans-Bold-53"/>
     <use xlink:href="#DejaVuSans-Bold-33" x="72.021484"/>
     <use xlink:href="#DejaVuSans-Bold-20" x="141.601562"/>
     <use xlink:href="#DejaVuSans-Bold-28" x="176.416016"/>
     <use xlink:href="#DejaVuSans-Bold-6e" x="222.119141"/>
     <use xlink:href="#DejaVuSans-Bold-3d" x="293.310547"/>
     <use xlink:href="#DejaVuSans-Bold-33" x="377.099609"/>
     <use xlink:href="#DejaVuSans-Bold-29" x="446.679688"/>
    </g>
   </g>
   <g id="text_15">
    <!-- S4 (n=5) -->
    <g style="fill: #0072b2" transform="translate(200.96285 188.855781) scale(0.085 -0.085)">
     <defs>
      <path id="DejaVuSans-Bold-34" d="M 2356 3675 
L 1038 1722 
L 2356 1722 
L 2356 3675 
z
M 2156 4666 
L 3494 4666 
L 3494 1722 
L 4159 1722 
L 4159 850 
L 3494 850 
L 3494 0 
L 2356 0 
L 2356 850 
L 288 850 
L 288 1881 
L 2156 4666 
z
" transform="scale(0.015625)"/>
      <path id="DejaVuSans-Bold-35" d="M 678 4666 
L 3669 4666 
L 3669 3781 
L 1638 3781 
L 1638 3059 
Q 1775 3097 1914 3117 
Q 2053 3138 2203 3138 
Q 3056 3138 3531 2711 
Q 4006 2284 4006 1522 
Q 4006 766 3489 337 
Q 2972 -91 2053 -91 
Q 1656 -91 1267 -14 
Q 878 63 494 219 
L 494 1166 
Q 875 947 1217 837 
Q 1559 728 1863 728 
Q 2300 728 2551 942 
Q 2803 1156 2803 1522 
Q 2803 1891 2551 2103 
Q 2300 2316 1863 2316 
Q 1603 2316 1309 2248 
Q 1016 2181 678 2041 
L 678 4666 
z
" transform="scale(0.015625)"/>
     </defs>
     <use xlink:href="#DejaVuSans-Bold-53"/>
     <use xlink:href="#DejaVuSans-Bold-34" x="72.021484"/>
     <use xlink:href="#DejaVuSans-Bold-20" x="141.601562"/>
     <use xlink:href="#DejaVuSans-Bold-28" x="176.416016"/>
     <use xlink:href="#DejaVuSans-Bold-6e" x="222.119141"/>
     <use xlink:href="#DejaVuSans-Bold-3d" x="293.310547"/>
     <use xlink:href="#DejaVuSans-Bold-35" x="377.099609"/>
     <use xlink:href="#DejaVuSans-Bold-29" x="446.679688"/>
    </g>
   </g>
   <g id="text_16">
    <!-- A5 (n=5) -->
    <g style="fill: #d55e00" transform="translate(217.2494 220.032575) scale(0.085 -0.085)">
     <defs>
      <path id="DejaVuSans-Bold-41" d="M 3419 850 
L 1538 850 
L 1241 0 
L 31 0 
L 1759 4666 
L 3194 4666 
L 4922 0 
L 3713 0 
L 3419 850 
z
M 1838 1716 
L 3116 1716 
L 2478 3572 
L 1838 1716 
z
" transform="scale(0.015625)"/>
     </defs>
     <use xlink:href="#DejaVuSans-Bold-41"/>
     <use xlink:href="#DejaVuSans-Bold-35" x="77.392578"/>
     <use xlink:href="#DejaVuSans-Bold-20" x="146.972656"/>
     <use xlink:href="#DejaVuSans-Bold-28" x="181.787109"/>
     <use xlink:href="#DejaVuSans-Bold-6e" x="227.490234"/>
     <use xlink:href="#DejaVuSans-Bold-3d" x="298.681641"/>
     <use xlink:href="#DejaVuSans-Bold-35" x="382.470703"/>
     <use xlink:href="#DejaVuSans-Bold-29" x="452.050781"/>
    </g>
   </g>
   <g id="text_17">
    <!-- S5 (n=3) -->
    <g style="fill: #d55e00" transform="translate(325.438625 152.62347) scale(0.085 -0.085)">
     <use xlink:href="#DejaVuSans-Bold-53"/>
     <use xlink:href="#DejaVuSans-Bold-35" x="72.021484"/>
     <use xlink:href="#DejaVuSans-Bold-20" x="141.601562"/>
     <use xlink:href="#DejaVuSans-Bold-28" x="176.416016"/>
     <use xlink:href="#DejaVuSans-Bold-6e" x="222.119141"/>
     <use xlink:href="#DejaVuSans-Bold-3d" x="293.310547"/>
     <use xlink:href="#DejaVuSans-Bold-33" x="377.099609"/>
     <use xlink:href="#DejaVuSans-Bold-29" x="446.679688"/>
    </g>
   </g>
   <g id="text_18">
    <!-- A6 (n=3) -->
    <g style="fill: #d55e00" transform="translate(441.771125 96.560387) scale(0.085 -0.085)">
     <defs>
      <path id="DejaVuSans-Bold-36" d="M 2316 2303 
Q 2000 2303 1842 2098 
Q 1684 1894 1684 1484 
Q 1684 1075 1842 870 
Q 2000 666 2316 666 
Q 2634 666 2792 870 
Q 2950 1075 2950 1484 
Q 2950 1894 2792 2098 
Q 2634 2303 2316 2303 
z
M 3803 4544 
L 3803 3681 
Q 3506 3822 3243 3889 
Q 2981 3956 2731 3956 
Q 2194 3956 1894 3657 
Q 1594 3359 1544 2772 
Q 1750 2925 1990 3001 
Q 2231 3078 2516 3078 
Q 3231 3078 3670 2659 
Q 4109 2241 4109 1563 
Q 4109 813 3618 361 
Q 3128 -91 2303 -91 
Q 1394 -91 895 523 
Q 397 1138 397 2266 
Q 397 3422 980 4083 
Q 1563 4744 2578 4744 
Q 2900 4744 3203 4694 
Q 3506 4644 3803 4544 
z
" transform="scale(0.015625)"/>
     </defs>
     <use xlink:href="#DejaVuSans-Bold-41"/>
     <use xlink:href="#DejaVuSans-Bold-36" x="77.392578"/>
     <use xlink:href="#DejaVuSans-Bold-20" x="146.972656"/>
     <use xlink:href="#DejaVuSans-Bold-28" x="181.787109"/>
     <use xlink:href="#DejaVuSans-Bold-6e" x="227.490234"/>
     <use xlink:href="#DejaVuSans-Bold-3d" x="298.681641"/>
     <use xlink:href="#DejaVuSans-Bold-33" x="382.470703"/>
     <use xlink:href="#DejaVuSans-Bold-29" x="452.050781"/>
    </g>
   </g>
   <g id="PathCollection_1">
    <defs>
     <path id="m6cebd6bb8e" d="M 0 2.236068 
C 0.593012 2.236068 1.161816 2.000462 1.581139 1.581139 
C 2.000462 1.161816 2.236068 0.593012 2.236068 0 
C 2.236068 -0.593012 2.000462 -1.161816 1.581139 -1.581139 
C 1.161816 -2.000462 0.593012 -2.236068 0 -2.236068 
C -0.593012 -2.236068 -1.161816 -2.000462 -1.581139 -1.581139 
C -2.000462 -1.161816 -2.236068 -0.593012 -2.236068 0 
C -2.236068 0.593012 -2.000462 1.161816 -1.581139 1.581139 
C -1.161816 2.000462 -0.593012 2.236068 0 2.236068 
z
" style="stroke: #0072b2; stroke-width: 1.1"/>
    </defs>
    <g clip-path="url(#pf1427ba5fd)">
     <use xlink:href="#m6cebd6bb8e" x="84.773625" y="251.7534" style="fill: #faf5e7; stroke: #0072b2; stroke-width: 1.1"/>
     <use xlink:href="#m6cebd6bb8e" x="84.773625" y="247.001461" style="fill: #faf5e7; stroke: #0072b2; stroke-width: 1.1"/>
     <use xlink:href="#m6cebd6bb8e" x="84.773625" y="246.315614" style="fill: #faf5e7; stroke: #0072b2; stroke-width: 1.1"/>
    </g>
   </g>
   <g id="PathCollection_2">
    <g clip-path="url(#pf1427ba5fd)">
     <use xlink:href="#m6cebd6bb8e" x="192.96285" y="197.081606" style="fill: #faf5e7; stroke: #0072b2; stroke-width: 1.1"/>
     <use xlink:href="#m6cebd6bb8e" x="192.96285" y="200.804775" style="fill: #faf5e7; stroke: #0072b2; stroke-width: 1.1"/>
     <use xlink:href="#m6cebd6bb8e" x="192.96285" y="199.041169" style="fill: #faf5e7; stroke: #0072b2; stroke-width: 1.1"/>
     <use xlink:href="#m6cebd6bb8e" x="192.96285" y="202.715348" style="fill: #faf5e7; stroke: #0072b2; stroke-width: 1.1"/>
     <use xlink:href="#m6cebd6bb8e" x="192.96285" y="203.499173" style="fill: #faf5e7; stroke: #0072b2; stroke-width: 1.1"/>
    </g>
   </g>
   <g id="PathCollection_3">
    <defs>
     <path id="m261ba68590" d="M 0 2.236068 
C 0.593012 2.236068 1.161816 2.000462 1.581139 1.581139 
C 2.000462 1.161816 2.236068 0.593012 2.236068 0 
C 2.236068 -0.593012 2.000462 -1.161816 1.581139 -1.581139 
C 1.161816 -2.000462 0.593012 -2.236068 0 -2.236068 
C -0.593012 -2.236068 -1.161816 -2.000462 -1.581139 -1.581139 
C -2.000462 -1.161816 -2.236068 -0.593012 -2.236068 0 
C -2.236068 0.593012 -2.000462 1.161816 -1.581139 1.581139 
C -1.161816 2.000462 -0.593012 2.236068 0 2.236068 
z
" style="stroke: #d55e00; stroke-width: 1.1"/>
    </defs>
    <g clip-path="url(#pf1427ba5fd)">
     <use xlink:href="#m261ba68590" x="209.2494" y="199.139147" style="fill: #faf5e7; stroke: #d55e00; stroke-width: 1.1"/>
     <use xlink:href="#m261ba68590" x="209.2494" y="197.522508" style="fill: #faf5e7; stroke: #d55e00; stroke-width: 1.1"/>
     <use xlink:href="#m261ba68590" x="209.2494" y="204.331987" style="fill: #faf5e7; stroke: #d55e00; stroke-width: 1.1"/>
     <use xlink:href="#m261ba68590" x="209.2494" y="203.891086" style="fill: #faf5e7; stroke: #d55e00; stroke-width: 1.1"/>
     <use xlink:href="#m261ba68590" x="209.2494" y="202.960294" style="fill: #faf5e7; stroke: #d55e00; stroke-width: 1.1"/>
    </g>
   </g>
   <g id="PathCollection_4">
    <g clip-path="url(#pf1427ba5fd)">
     <use xlink:href="#m261ba68590" x="317.438625" y="163.720055" style="fill: #faf5e7; stroke: #d55e00; stroke-width: 1.1"/>
     <use xlink:href="#m261ba68590" x="317.438625" y="161.417569" style="fill: #faf5e7; stroke: #d55e00; stroke-width: 1.1"/>
     <use xlink:href="#m261ba68590" x="317.438625" y="168.031092" style="fill: #faf5e7; stroke: #d55e00; stroke-width: 1.1"/>
    </g>
   </g>
   <g id="PathCollection_5">
    <g clip-path="url(#pf1427ba5fd)">
     <use xlink:href="#m261ba68590" x="433.771125" y="109.63613" style="fill: #faf5e7; stroke: #d55e00; stroke-width: 1.1"/>
     <use xlink:href="#m261ba68590" x="433.771125" y="107.725556" style="fill: #faf5e7; stroke: #d55e00; stroke-width: 1.1"/>
     <use xlink:href="#m261ba68590" x="433.771125" y="107.627578" style="fill: #faf5e7; stroke: #d55e00; stroke-width: 1.1"/>
    </g>
   </g>
   <g id="LineCollection_1">
    <path d="M 84.773625 251.312498 
L 84.773625 245.424013 
" clip-path="url(#pf1427ba5fd)" style="fill: none; stroke: #1a1a1a; stroke-width: 1.1"/>
   </g>
   <g id="line2d_20">
    <defs>
     <path id="m20f14d3f0f" d="M 4 0 
L -4 -0 
" style="stroke: #1a1a1a; stroke-width: 0.7"/>
    </defs>
    <g clip-path="url(#pf1427ba5fd)">
     <use xlink:href="#m20f14d3f0f" x="84.773625" y="251.312498" style="fill: #1a1a1a; stroke: #1a1a1a; stroke-width: 0.7"/>
    </g>
   </g>
   <g id="line2d_21">
    <g clip-path="url(#pf1427ba5fd)">
     <use xlink:href="#m20f14d3f0f" x="84.773625" y="245.424013" style="fill: #1a1a1a; stroke: #1a1a1a; stroke-width: 0.7"/>
    </g>
   </g>
   <g id="LineCollection_2">
    <path d="M 192.96285 203.249329 
L 192.96285 197.997702 
" clip-path="url(#pf1427ba5fd)" style="fill: none; stroke: #1a1a1a; stroke-width: 1.1"/>
   </g>
   <g id="line2d_22">
    <g clip-path="url(#pf1427ba5fd)">
     <use xlink:href="#m20f14d3f0f" x="192.96285" y="203.249329" style="fill: #1a1a1a; stroke: #1a1a1a; stroke-width: 0.7"/>
    </g>
   </g>
   <g id="line2d_23">
    <g clip-path="url(#pf1427ba5fd)">
     <use xlink:href="#m20f14d3f0f" x="192.96285" y="197.997702" style="fill: #1a1a1a; stroke: #1a1a1a; stroke-width: 0.7"/>
    </g>
   </g>
   <g id="LineCollection_3">
    <path d="M 209.2494 204.625922 
L 209.2494 198.521885 
" clip-path="url(#pf1427ba5fd)" style="fill: none; stroke: #1a1a1a; stroke-width: 1.1"/>
   </g>
   <g id="line2d_24">
    <g clip-path="url(#pf1427ba5fd)">
     <use xlink:href="#m20f14d3f0f" x="209.2494" y="204.625922" style="fill: #1a1a1a; stroke: #1a1a1a; stroke-width: 0.7"/>
    </g>
   </g>
   <g id="line2d_25">
    <g clip-path="url(#pf1427ba5fd)">
     <use xlink:href="#m20f14d3f0f" x="209.2494" y="198.521885" style="fill: #1a1a1a; stroke: #1a1a1a; stroke-width: 0.7"/>
    </g>
   </g>
   <g id="LineCollection_4">
    <path d="M 317.438625 167.761652 
L 317.438625 161.020757 
" clip-path="url(#pf1427ba5fd)" style="fill: none; stroke: #1a1a1a; stroke-width: 1.1"/>
   </g>
   <g id="line2d_26">
    <g clip-path="url(#pf1427ba5fd)">
     <use xlink:href="#m20f14d3f0f" x="317.438625" y="167.761652" style="fill: #1a1a1a; stroke: #1a1a1a; stroke-width: 0.7"/>
    </g>
   </g>
   <g id="line2d_27">
    <g clip-path="url(#pf1427ba5fd)">
     <use xlink:href="#m20f14d3f0f" x="317.438625" y="161.020757" style="fill: #1a1a1a; stroke: #1a1a1a; stroke-width: 0.7"/>
    </g>
   </g>
   <g id="LineCollection_5">
    <path d="M 433.771125 109.459769 
L 433.771125 107.196474 
" clip-path="url(#pf1427ba5fd)" style="fill: none; stroke: #1a1a1a; stroke-width: 1.1"/>
   </g>
   <g id="line2d_28">
    <g clip-path="url(#pf1427ba5fd)">
     <use xlink:href="#m20f14d3f0f" x="433.771125" y="109.459769" style="fill: #1a1a1a; stroke: #1a1a1a; stroke-width: 0.7"/>
    </g>
   </g>
   <g id="line2d_29">
    <g clip-path="url(#pf1427ba5fd)">
     <use xlink:href="#m20f14d3f0f" x="433.771125" y="107.196474" style="fill: #1a1a1a; stroke: #1a1a1a; stroke-width: 0.7"/>
    </g>
   </g>
   <g id="legend_1">
    <g id="patch_7">
     <path d="M 44.190625 38.952812 
L 153.034453 38.952812 
Q 154.734453 38.952812 154.734453 37.252812 
L 154.734453 13.15 
Q 154.734453 11.45 153.034453 11.45 
L 44.190625 11.45 
Q 42.490625 11.45 42.490625 13.15 
L 42.490625 37.252812 
Q 42.490625 38.952812 44.190625 38.952812 
z
" style="fill: #faf5e7; opacity: 0.8; stroke: #1a1a1a; stroke-linejoin: miter"/>
    </g>
    <g id="line2d_30">
     <defs>
      <path id="mb515656cd8" d="M -0 4.242641 
L 4.242641 0 
L 0 -4.242641 
L -4.242641 -0 
z
" style="stroke: #1a1a1a; stroke-linejoin: miter"/>
     </defs>
     <g>
      <use xlink:href="#mb515656cd8" x="54.390625" y="18.333672" style="fill: #0072b2; stroke: #1a1a1a; stroke-linejoin: miter"/>
     </g>
    </g>
    <g id="text_19">
     <!-- solvable group -->
     <g style="fill: #1a1a1a" transform="translate(69.690625 21.308672) scale(0.085 -0.085)">
      <use xlink:href="#DejaVuSans-73"/>
      <use xlink:href="#DejaVuSans-6f" x="52.099609"/>
      <use xlink:href="#DejaVuSans-6c" x="113.28125"/>
      <use xlink:href="#DejaVuSans-76" x="141.064453"/>
      <use xlink:href="#DejaVuSans-61" x="200.244141"/>
      <use xlink:href="#DejaVuSans-62" x="261.523438"/>
      <use xlink:href="#DejaVuSans-6c" x="325"/>
      <use xlink:href="#DejaVuSans-65" x="352.783203"/>
      <use xlink:href="#DejaVuSans-20" x="414.306641"/>
      <use xlink:href="#DejaVuSans-67" x="446.09375"/>
      <use xlink:href="#DejaVuSans-72" x="509.570312"/>
      <use xlink:href="#DejaVuSans-6f" x="548.433594"/>
      <use xlink:href="#DejaVuSans-75" x="609.615234"/>
      <use xlink:href="#DejaVuSans-70" x="672.994141"/>
     </g>
    </g>
    <g id="line2d_31">
     <defs>
      <path id="m516b3b8d71" d="M -0 4.242641 
L 4.242641 0 
L 0 -4.242641 
L -4.242641 -0 
z
" style="stroke: #1a1a1a; stroke-linejoin: miter"/>
     </defs>
     <g>
      <use xlink:href="#m516b3b8d71" x="54.390625" y="30.810078" style="fill: #d55e00; stroke: #1a1a1a; stroke-linejoin: miter"/>
     </g>
    </g>
    <g id="text_20">
     <!-- non-solvable group -->
     <g style="fill: #1a1a1a" transform="translate(69.690625 33.785078) scale(0.085 -0.085)">
      <use xlink:href="#DejaVuSans-6e"/>
      <use xlink:href="#DejaVuSans-6f" x="63.378906"/>
      <use xlink:href="#DejaVuSans-6e" x="124.560547"/>
      <use xlink:href="#DejaVuSans-2d" x="187.939453"/>
      <use xlink:href="#DejaVuSans-73" x="224.023438"/>
      <use xlink:href="#DejaVuSans-6f" x="276.123047"/>
      <use xlink:href="#DejaVuSans-6c" x="337.304688"/>
      <use xlink:href="#DejaVuSans-76" x="365.087891"/>
      <use xlink:href="#DejaVuSans-61" x="424.267578"/>
      <use xlink:href="#DejaVuSans-62" x="485.546875"/>
      <use xlink:href="#DejaVuSans-6c" x="549.023438"/>
      <use xlink:href="#DejaVuSans-65" x="576.806641"/>
      <use xlink:href="#DejaVuSans-20" x="638.330078"/>
      <use xlink:href="#DejaVuSans-67" x="670.117188"/>
      <use xlink:href="#DejaVuSans-72" x="733.59375"/>
      <use xlink:href="#DejaVuSans-6f" x="772.457031"/>
      <use xlink:href="#DejaVuSans-75" x="833.638672"/>
      <use xlink:href="#DejaVuSans-70" x="897.017578"/>
     </g>
    </g>
   </g>
   <g id="line2d_32">
    <defs>
     <path id="m3aabba8c4f" d="M -0 4.949747 
L 4.949747 0 
L 0 -4.949747 
L -4.949747 -0 
z
" style="stroke: #1a1a1a; stroke-width: 0.7; stroke-linejoin: miter"/>
    </defs>
    <g clip-path="url(#pf1427ba5fd)">
     <use xlink:href="#m3aabba8c4f" x="84.773625" y="248.368256" style="fill: #0072b2; stroke: #1a1a1a; stroke-width: 0.7; stroke-linejoin: miter"/>
    </g>
   </g>
   <g id="line2d_33">
    <g clip-path="url(#pf1427ba5fd)">
     <use xlink:href="#m3aabba8c4f" x="192.96285" y="200.623515" style="fill: #0072b2; stroke: #1a1a1a; stroke-width: 0.7; stroke-linejoin: miter"/>
    </g>
   </g>
   <g id="line2d_34">
    <defs>
     <path id="mcadf03c946" d="M -0 4.949747 
L 4.949747 0 
L 0 -4.949747 
L -4.949747 -0 
z
" style="stroke: #1a1a1a; stroke-width: 0.7; stroke-linejoin: miter"/>
    </defs>
    <g clip-path="url(#pf1427ba5fd)">
     <use xlink:href="#mcadf03c946" x="209.2494" y="201.573903" style="fill: #d55e00; stroke: #1a1a1a; stroke-width: 0.7; stroke-linejoin: miter"/>
    </g>
   </g>
   <g id="line2d_35">
    <g clip-path="url(#pf1427ba5fd)">
     <use xlink:href="#mcadf03c946" x="317.438625" y="164.391205" style="fill: #d55e00; stroke: #1a1a1a; stroke-width: 0.7; stroke-linejoin: miter"/>
    </g>
   </g>
   <g id="line2d_36">
    <g clip-path="url(#pf1427ba5fd)">
     <use xlink:href="#mcadf03c946" x="433.771125" y="108.328122" style="fill: #d55e00; stroke: #1a1a1a; stroke-width: 0.7; stroke-linejoin: miter"/>
    </g>
   </g>
  </g>
 </g>
 <defs>
  <clipPath id="pf1427ba5fd">
   <rect x="38.240625" y="7.2" width="465.33" height="274.33875"/>
  </clipPath>
 </defs>
</svg>
