<?xml version="1.0" encoding="utf-8" standalone="no"?>
<!DOCTYPE svg PUBLIC "-//W3C//DTD SVG 1.1//EN"
  "http://www.w3.org/Graphics/SVG/1.1/DTD/svg11.dtd">
<svg xmlns:xlink="http://www.w3.org/1999/xlink" width="683.897344pt" height="221.237468pt" viewBox="0 0 683.897344 221.237468" xmlns="http://www.w3.org/2000/svg" version="1.1">
 <metadata>
  <rdf:RDF xmlns:dc="http://purl.org/dc/elements/1.1/" xmlns:cc="http://creativecommons.org/ns#" xmlns:rdf="http://www.w3.org/1999/02/22-rdf-syntax-ns#">
   <cc:Work>
    <dc:type rdf:resource="http://purl.org/dc/dcmitype/StillImage"/>
    <dc:date>2026-07-09T17:46:45.381444</dc:date>
    <dc:format>image/svg+xml</dc:format>
    <dc:creator>
     <cc:Agent>
      <dc:title>Matplotlib v3.9.4, https://matplotlib.org/</dc:title>
     </cc:Agent>
    </dc:creator>
   </cc:Work>
  </rdf:RDF>
 </metadata>
 <defs>
  <style type="text/css">*{stroke-linejoin: round; stroke-linecap: butt}</style>
 </defs>
 <g id="figure_1">
  <g id="patch_1">
   <path d="M 0 221.237468 
L 683.897344 221.237468 
L 683.897344 0 
L 0 0 
z
" style="fill: #faf5e7"/>
  </g>
  <g id="axes_1">
   <g id="patch_2">
    <path d="M 43.297344 186.10075 
L 158.537344 186.10075 
L 158.537344 7.695416 
L 43.297344 7.695416 
z
" style="fill: #faf5e7"/>
   </g>
   <g id="line2d_1">
    <path d="M 43.297344 70.880639 
L 158.537344 70.880639 
" clip-path="url(#p7b25d4572c)" style="fill: none; stroke-dasharray: 3.33,1.44; stroke-dashoffset: 0; stroke: #1a1a1a; stroke-opacity: 0.55; stroke-width: 0.9"/>
   </g>
   <g id="matplotlib.axis_1">
    <g id="xtick_1">
     <g id="line2d_2">
      <path d="M 48.535526 186.10075 
L 48.535526 7.695416 
" clip-path="url(#p7b25d4572c)" style="fill: none; stroke: #1a1a1a; stroke-opacity: 0.22; stroke-width: 0.5; stroke-linecap: square"/>
     </g>
     <g id="line2d_3">
      <defs>
       <path id="m7430789b8b" d="M 0 0 
L 0 3.5 
" style="stroke: #1a1a1a; stroke-width: 0.8"/>
      </defs>
      <g>
       <use xlink:href="#m7430789b8b" x="48.535526" y="186.10075" style="fill: #1a1a1a; stroke: #1a1a1a; stroke-width: 0.8"/>
      </g>
     </g>
     <g id="text_1">
      <!-- 1 -->
      <g style="fill: #1a1a1a" transform="translate(45.672401 199.939343) scale(0.09 -0.09)">
       <defs>
        <path id="DejaVuSans-31" d="M 794 531 
L 1825 531 
L 1825 4091 
L 703 3866 
L 703 4441 
L 1819 4666 
L 2450 4666 
L 2450 531 
L 3481 531 
L 3481 0 
L 794 0 
L 794 531 
z
" transform="scale(0.015625)"/>
       </defs>
       <use xlink:href="#DejaVuSans-31"/>
      </g>
     </g>
    </g>
    <g id="xtick_2">
     <g id="line2d_4">
      <path d="M 100.917344 186.10075 
L 100.917344 7.695416 
" clip-path="url(#p7b25d4572c)" style="fill: none; stroke: #1a1a1a; stroke-opacity: 0.22; stroke-width: 0.5; stroke-linecap: square"/>
     </g>
     <g id="line2d_5">
      <g>
       <use xlink:href="#m7430789b8b" x="100.917344" y="186.10075" style="fill: #1a1a1a; stroke: #1a1a1a; stroke-width: 0.8"/>
      </g>
     </g>
     <g id="text_2">
      <!-- 2 -->
      <g style="fill: #1a1a1a" transform="translate(98.054219 199.939343) scale(0.09 -0.09)">
       <defs>
        <path id="DejaVuSans-32" d="M 1228 531 
L 3431 531 
L 3431 0 
L 469 0 
L 469 531 
Q 828 903 1448 1529 
Q 2069 2156 2228 2338 
Q 2531 2678 2651 2914 
Q 2772 3150 2772 3378 
Q 2772 3750 2511 3984 
Q 2250 4219 1831 4219 
Q 1534 4219 1204 4116 
Q 875 4013 500 3803 
L 500 4441 
Q 881 4594 1212 4672 
Q 1544 4750 1819 4750 
Q 2544 4750 2975 4387 
Q 3406 4025 3406 3419 
Q 3406 3131 3298 2873 
Q 3191 2616 2906 2266 
Q 2828 2175 2409 1742 
Q 1991 1309 1228 531 
z
" transform="scale(0.015625)"/>
       </defs>
       <use xlink:href="#DejaVuSans-32"/>
      </g>
     </g>
    </g>
    <g id="xtick_3">
     <g id="line2d_6">
      <path d="M 153.299162 186.10075 
L 153.299162 7.695416 
" clip-path="url(#p7b25d4572c)" style="fill: none; stroke: #1a1a1a; stroke-opacity: 0.22; stroke-width: 0.5; stroke-linecap: square"/>
     </g>
     <g id="line2d_7">
      <g>
       <use xlink:href="#m7430789b8b" x="153.299162" y="186.10075" style="fill: #1a1a1a; stroke: #1a1a1a; stroke-width: 0.8"/>
      </g>
     </g>
     <g id="text_3">
      <!-- 3 -->
      <g style="fill: #1a1a1a" transform="translate(150.436037 199.939343) scale(0.09 -0.09)">
       <defs>
        <path id="DejaVuSans-33" d="M 2597 2516 
Q 3050 2419 3304 2112 
Q 3559 1806 3559 1356 
Q 3559 666 3084 287 
Q 2609 -91 1734 -91 
Q 1441 -91 1130 -33 
Q 819 25 488 141 
L 488 750 
Q 750 597 1062 519 
Q 1375 441 1716 441 
Q 2309 441 2620 675 
Q 2931 909 2931 1356 
Q 2931 1769 2642 2001 
Q 2353 2234 1838 2234 
L 1294 2234 
L 1294 2753 
L 1863 2753 
Q 2328 2753 2575 2939 
Q 2822 3125 2822 3475 
Q 2822 3834 2567 4026 
Q 2313 4219 1838 4219 
Q 1578 4219 1281 4162 
Q 984 4106 628 3988 
L 628 4550 
Q 988 4650 1302 4700 
Q 1616 4750 1894 4750 
Q 2613 4750 3031 4423 
Q 3450 4097 3450 3541 
Q 3450 3153 3228 2886 
Q 3006 2619 2597 2516 
z
" transform="scale(0.015625)"/>
       </defs>
       <use xlink:href="#DejaVuSans-33"/>
      </g>
     </g>
    </g>
    <g id="text_4">
     <!-- forced rank k -->
     <g style="fill: #1a1a1a" transform="translate(72.850742 212.269734) scale(0.085 -0.085)">
      <defs>
       <path id="DejaVuSans-66" d="M 2375 4863 
L 2375 4384 
L 1825 4384 
Q 1516 4384 1395 4259 
Q 1275 4134 1275 3809 
L 1275 3500 
L 2222 3500 
L 2222 3053 
L 1275 3053 
L 1275 0 
L 697 0 
L 697 3053 
L 147 3053 
L 147 3500 
L 697 3500 
L 697 3744 
Q 697 4328 969 4595 
Q 1241 4863 1831 4863 
L 2375 4863 
z
" transform="scale(0.015625)"/>
       <path id="DejaVuSans-6f" d="M 1959 3097 
Q 1497 3097 1228 2736 
Q 959 2375 959 1747 
Q 959 1119 1226 758 
Q 1494 397 1959 397 
Q 2419 397 2687 759 
Q 2956 1122 2956 1747 
Q 2956 2369 2687 2733 
Q 2419 3097 1959 3097 
z
M 1959 3584 
Q 2709 3584 3137 3096 
Q 3566 2609 3566 1747 
Q 3566 888 3137 398 
Q 2709 -91 1959 -91 
Q 1206 -91 779 398 
Q 353 888 353 1747 
Q 353 2609 779 3096 
Q 1206 3584 1959 3584 
z
" transform="scale(0.015625)"/>
       <path id="DejaVuSans-72" d="M 2631 2963 
Q 2534 3019 2420 3045 
Q 2306 3072 2169 3072 
Q 1681 3072 1420 2755 
Q 1159 2438 1159 1844 
L 1159 0 
L 581 0 
L 581 3500 
L 1159 3500 
L 1159 2956 
Q 1341 3275 1631 3429 
Q 1922 3584 2338 3584 
Q 2397 3584 2469 3576 
Q 2541 3569 2628 3553 
L 2631 2963 
z
" transform="scale(0.015625)"/>
       <path id="DejaVuSans-63" d="M 3122 3366 
L 3122 2828 
Q 2878 2963 2633 3030 
Q 2388 3097 2138 3097 
Q 1578 3097 1268 2742 
Q 959 2388 959 1747 
Q 959 1106 1268 751 
Q 1578 397 2138 397 
Q 2388 397 2633 464 
Q 2878 531 3122 666 
L 3122 134 
Q 2881 22 2623 -34 
Q 2366 -91 2075 -91 
Q 1284 -91 818 406 
Q 353 903 353 1747 
Q 353 2603 823 3093 
Q 1294 3584 2113 3584 
Q 2378 3584 2631 3529 
Q 2884 3475 3122 3366 
z
" transform="scale(0.015625)"/>
       <path id="DejaVuSans-65" d="M 3597 1894 
L 3597 1613 
L 953 1613 
Q 991 1019 1311 708 
Q 1631 397 2203 397 
Q 2534 397 2845 478 
Q 3156 559 3463 722 
L 3463 178 
Q 3153 47 2828 -22 
Q 2503 -91 2169 -91 
Q 1331 -91 842 396 
Q 353 884 353 1716 
Q 353 2575 817 3079 
Q 1281 3584 2069 3584 
Q 2775 3584 3186 3129 
Q 3597 2675 3597 1894 
z
M 3022 2063 
Q 3016 2534 2758 2815 
Q 2500 3097 2075 3097 
Q 1594 3097 1305 2825 
Q 1016 2553 972 2059 
L 3022 2063 
z
" transform="scale(0.015625)"/>
       <path id="DejaVuSans-64" d="M 2906 2969 
L 2906 4863 
L 3481 4863 
L 3481 0 
L 2906 0 
L 2906 525 
Q 2725 213 2448 61 
Q 2172 -91 1784 -91 
Q 1150 -91 751 415 
Q 353 922 353 1747 
Q 353 2572 751 3078 
Q 1150 3584 1784 3584 
Q 2172 3584 2448 3432 
Q 2725 3281 2906 2969 
z
M 947 1747 
Q 947 1113 1208 752 
Q 1469 391 1925 391 
Q 2381 391 2643 752 
Q 2906 1113 2906 1747 
Q 2906 2381 2643 2742 
Q 2381 3103 1925 3103 
Q 1469 3103 1208 2742 
Q 947 2381 947 1747 
z
" transform="scale(0.015625)"/>
       <path id="DejaVuSans-20" transform="scale(0.015625)"/>
       <path id="DejaVuSans-61" d="M 2194 1759 
Q 1497 1759 1228 1600 
Q 959 1441 959 1056 
Q 959 750 1161 570 
Q 1363 391 1709 391 
Q 2188 391 2477 730 
Q 2766 1069 2766 1631 
L 2766 1759 
L 2194 1759 
z
M 3341 1997 
L 3341 0 
L 2766 0 
L 2766 531 
Q 2569 213 2275 61 
Q 1981 -91 1556 -91 
Q 1019 -91 701 211 
Q 384 513 384 1019 
Q 384 1609 779 1909 
Q 1175 2209 1959 2209 
L 2766 2209 
L 2766 2266 
Q 2766 2663 2505 2880 
Q 2244 3097 1772 3097 
Q 1472 3097 1187 3025 
Q 903 2953 641 2809 
L 641 3341 
Q 956 3463 1253 3523 
Q 1550 3584 1831 3584 
Q 2591 3584 2966 3190 
Q 3341 2797 3341 1997 
z
" transform="scale(0.015625)"/>
       <path id="DejaVuSans-6e" d="M 3513 2113 
L 3513 0 
L 2938 0 
L 2938 2094 
Q 2938 2591 2744 2837 
Q 2550 3084 2163 3084 
Q 1697 3084 1428 2787 
Q 1159 2491 1159 1978 
L 1159 0 
L 581 0 
L 581 3500 
L 1159 3500 
L 1159 2956 
Q 1366 3272 1645 3428 
Q 1925 3584 2291 3584 
Q 2894 3584 3203 3211 
Q 3513 2838 3513 2113 
z
" transform="scale(0.015625)"/>
       <path id="DejaVuSans-6b" d="M 581 4863 
L 1159 4863 
L 1159 1991 
L 2875 3500 
L 3609 3500 
L 1753 1863 
L 3688 0 
L 2938 0 
L 1159 1709 
L 1159 0 
L 581 0 
L 581 4863 
z
" transform="scale(0.015625)"/>
      </defs>
      <use xlink:href="#DejaVuSans-66"/>
      <use xlink:href="#DejaVuSans-6f" x="35.205078"/>
      <use xlink:href="#DejaVuSans-72" x="96.386719"/>
      <use xlink:href="#DejaVuSans-63" x="135.25"/>
      <use xlink:href="#DejaVuSans-65" x="190.230469"/>
      <use xlink:href="#DejaVuSans-64" x="251.753906"/>
      <use xlink:href="#DejaVuSans-20" x="315.230469"/>
      <use xlink:href="#DejaVuSans-72" x="347.017578"/>
      <use xlink:href="#DejaVuSans-61" x="388.130859"/>
      <use xlink:href="#DejaVuSans-6e" x="449.410156"/>
      <use xlink:href="#DejaVuSans-6b" x="512.789062"/>
      <use xlink:href="#DejaVuSans-20" x="570.699219"/>
      <use xlink:href="#DejaVuSans-6b" x="602.486328"/>
     </g>
    </g>
   </g>
   <g id="matplotlib.axis_2">
    <g id="ytick_1">
     <g id="line2d_8">
      <path d="M 43.297344 176.189342 
L 158.537344 176.189342 
" clip-path="url(#p7b25d4572c)" style="fill: none; stroke: #1a1a1a; stroke-opacity: 0.22; stroke-width: 0.5; stroke-linecap: square"/>
     </g>
     <g id="line2d_9">
      <defs>
       <path id="m85c79da39b" d="M 0 0 
L -3.5 0 
" style="stroke: #1a1a1a; stroke-width: 0.8"/>
      </defs>
      <g>
       <use xlink:href="#m85c79da39b" x="43.297344" y="176.189342" style="fill: #1a1a1a; stroke: #1a1a1a; stroke-width: 0.8"/>
      </g>
     </g>
     <g id="text_5">
      <!-- 0.0 -->
      <g style="fill: #1a1a1a" transform="translate(20.394219 179.988561) scale(0.1 -0.1)">
       <defs>
        <path id="DejaVuSans-30" d="M 2034 4250 
Q 1547 4250 1301 3770 
Q 1056 3291 1056 2328 
Q 1056 1369 1301 889 
Q 1547 409 2034 409 
Q 2525 409 2770 889 
Q 3016 1369 3016 2328 
Q 3016 3291 2770 3770 
Q 2525 4250 2034 4250 
z
M 2034 4750 
Q 2819 4750 3233 4129 
Q 3647 3509 3647 2328 
Q 3647 1150 3233 529 
Q 2819 -91 2034 -91 
Q 1250 -91 836 529 
Q 422 1150 422 2328 
Q 422 3509 836 4129 
Q 1250 4750 2034 4750 
z
" transform="scale(0.015625)"/>
        <path id="DejaVuSans-2e" d="M 684 794 
L 1344 794 
L 1344 0 
L 684 0 
L 684 794 
z
" transform="scale(0.015625)"/>
       </defs>
       <use xlink:href="#DejaVuSans-30"/>
       <use xlink:href="#DejaVuSans-2e" x="63.623047"/>
       <use xlink:href="#DejaVuSans-30" x="95.410156"/>
      </g>
     </g>
    </g>
    <g id="ytick_2">
     <g id="line2d_10">
      <path d="M 43.297344 143.151318 
L 158.537344 143.151318 
" clip-path="url(#p7b25d4572c)" style="fill: none; stroke: #1a1a1a; stroke-opacity: 0.22; stroke-width: 0.5; stroke-linecap: square"/>
     </g>
     <g id="line2d_11">
      <g>
       <use xlink:href="#m85c79da39b" x="43.297344" y="143.151318" style="fill: #1a1a1a; stroke: #1a1a1a; stroke-width: 0.8"/>
      </g>
     </g>
     <g id="text_6">
      <!-- 0.2 -->
      <g style="fill: #1a1a1a" transform="translate(20.394219 146.950536) scale(0.1 -0.1)">
       <use xlink:href="#DejaVuSans-30"/>
       <use xlink:href="#DejaVuSans-2e" x="63.623047"/>
       <use xlink:href="#DejaVuSans-32" x="95.410156"/>
      </g>
     </g>
    </g>
    <g id="ytick_3">
     <g id="line2d_12">
      <path d="M 43.297344 110.113293 
L 158.537344 110.113293 
" clip-path="url(#p7b25d4572c)" style="fill: none; stroke: #1a1a1a; stroke-opacity: 0.22; stroke-width: 0.5; stroke-linecap: square"/>
     </g>
     <g id="line2d_13">
      <g>
       <use xlink:href="#m85c79da39b" x="43.297344" y="110.113293" style="fill: #1a1a1a; stroke: #1a1a1a; stroke-width: 0.8"/>
      </g>
     </g>
     <g id="text_7">
      <!-- 0.4 -->
      <g style="fill: #1a1a1a" transform="translate(20.394219 113.912512) scale(0.1 -0.1)">
       <defs>
        <path id="DejaVuSans-34" d="M 2419 4116 
L 825 1625 
L 2419 1625 
L 2419 4116 
z
M 2253 4666 
L 3047 4666 
L 3047 1625 
L 3713 1625 
L 3713 1100 
L 3047 1100 
L 3047 0 
L 2419 0 
L 2419 1100 
L 313 1100 
L 313 1709 
L 2253 4666 
z
" transform="scale(0.015625)"/>
       </defs>
       <use xlink:href="#DejaVuSans-30"/>
       <use xlink:href="#DejaVuSans-2e" x="63.623047"/>
       <use xlink:href="#DejaVuSans-34" x="95.410156"/>
      </g>
     </g>
    </g>
    <g id="ytick_4">
     <g id="line2d_14">
      <path d="M 43.297344 77.075268 
L 158.537344 77.075268 
" clip-path="url(#p7b25d4572c)" style="fill: none; stroke: #1a1a1a; stroke-opacity: 0.22; stroke-width: 0.5; stroke-linecap: square"/>
     </g>
     <g id="line2d_15">
      <g>
       <use xlink:href="#m85c79da39b" x="43.297344" y="77.075268" style="fill: #1a1a1a; stroke: #1a1a1a; stroke-width: 0.8"/>
      </g>
     </g>
     <g id="text_8">
      <!-- 0.6 -->
      <g style="fill: #1a1a1a" transform="translate(20.394219 80.874487) scale(0.1 -0.1)">
       <defs>
        <path id="DejaVuSans-36" d="M 2113 2584 
Q 1688 2584 1439 2293 
Q 1191 2003 1191 1497 
Q 1191 994 1439 701 
Q 1688 409 2113 409 
Q 2538 409 2786 701 
Q 3034 994 3034 1497 
Q 3034 2003 2786 2293 
Q 2538 2584 2113 2584 
z
M 3366 4563 
L 3366 3988 
Q 3128 4100 2886 4159 
Q 2644 4219 2406 4219 
Q 1781 4219 1451 3797 
Q 1122 3375 1075 2522 
Q 1259 2794 1537 2939 
Q 1816 3084 2150 3084 
Q 2853 3084 3261 2657 
Q 3669 2231 3669 1497 
Q 3669 778 3244 343 
Q 2819 -91 2113 -91 
Q 1303 -91 875 529 
Q 447 1150 447 2328 
Q 447 3434 972 4092 
Q 1497 4750 2381 4750 
Q 2619 4750 2861 4703 
Q 3103 4656 3366 4563 
z
" transform="scale(0.015625)"/>
       </defs>
       <use xlink:href="#DejaVuSans-30"/>
       <use xlink:href="#DejaVuSans-2e" x="63.623047"/>
       <use xlink:href="#DejaVuSans-36" x="95.410156"/>
      </g>
     </g>
    </g>
    <g id="ytick_5">
     <g id="line2d_16">
      <path d="M 43.297344 44.037243 
L 158.537344 44.037243 
" clip-path="url(#p7b25d4572c)" style="fill: none; stroke: #1a1a1a; stroke-opacity: 0.22; stroke-width: 0.5; stroke-linecap: square"/>
     </g>
     <g id="line2d_17">
      <g>
       <use xlink:href="#m85c79da39b" x="43.297344" y="44.037243" style="fill: #1a1a1a; stroke: #1a1a1a; stroke-width: 0.8"/>
      </g>
     </g>
     <g id="text_9">
      <!-- 0.8 -->
      <g style="fill: #1a1a1a" transform="translate(20.394219 47.836462) scale(0.1 -0.1)">
       <defs>
        <path id="DejaVuSans-38" d="M 2034 2216 
Q 1584 2216 1326 1975 
Q 1069 1734 1069 1313 
Q 1069 891 1326 650 
Q 1584 409 2034 409 
Q 2484 409 2743 651 
Q 3003 894 3003 1313 
Q 3003 1734 2745 1975 
Q 2488 2216 2034 2216 
z
M 1403 2484 
Q 997 2584 770 2862 
Q 544 3141 544 3541 
Q 544 4100 942 4425 
Q 1341 4750 2034 4750 
Q 2731 4750 3128 4425 
Q 3525 4100 3525 3541 
Q 3525 3141 3298 2862 
Q 3072 2584 2669 2484 
Q 3125 2378 3379 2068 
Q 3634 1759 3634 1313 
Q 3634 634 3220 271 
Q 2806 -91 2034 -91 
Q 1263 -91 848 271 
Q 434 634 434 1313 
Q 434 1759 690 2068 
Q 947 2378 1403 2484 
z
M 1172 3481 
Q 1172 3119 1398 2916 
Q 1625 2713 2034 2713 
Q 2441 2713 2670 2916 
Q 2900 3119 2900 3481 
Q 2900 3844 2670 4047 
Q 2441 4250 2034 4250 
Q 1625 4250 1398 4047 
Q 1172 3844 1172 3481 
z
" transform="scale(0.015625)"/>
       </defs>
       <use xlink:href="#DejaVuSans-30"/>
       <use xlink:href="#DejaVuSans-2e" x="63.623047"/>
       <use xlink:href="#DejaVuSans-38" x="95.410156"/>
      </g>
     </g>
    </g>
    <g id="ytick_6">
     <g id="line2d_18">
      <path d="M 43.297344 10.999219 
L 158.537344 10.999219 
" clip-path="url(#p7b25d4572c)" style="fill: none; stroke: #1a1a1a; stroke-opacity: 0.22; stroke-width: 0.5; stroke-linecap: square"/>
     </g>
     <g id="line2d_19">
      <g>
       <use xlink:href="#m85c79da39b" x="43.297344" y="10.999219" style="fill: #1a1a1a; stroke: #1a1a1a; stroke-width: 0.8"/>
      </g>
     </g>
     <g id="text_10">
      <!-- 1.0 -->
      <g style="fill: #1a1a1a" transform="translate(20.394219 14.798438) scale(0.1 -0.1)">
       <use xlink:href="#DejaVuSans-31"/>
       <use xlink:href="#DejaVuSans-2e" x="63.623047"/>
       <use xlink:href="#DejaVuSans-30" x="95.410156"/>
      </g>
     </g>
    </g>
    <g id="text_11">
     <!-- crosscheck rec@0.9 (xrec90) -->
     <g style="fill: #1a1a1a" transform="translate(14.418516 165.764177) rotate(-90) scale(0.095 -0.095)">
      <defs>
       <path id="DejaVuSans-73" d="M 2834 3397 
L 2834 2853 
Q 2591 2978 2328 3040 
Q 2066 3103 1784 3103 
Q 1356 3103 1142 2972 
Q 928 2841 928 2578 
Q 928 2378 1081 2264 
Q 1234 2150 1697 2047 
L 1894 2003 
Q 2506 1872 2764 1633 
Q 3022 1394 3022 966 
Q 3022 478 2636 193 
Q 2250 -91 1575 -91 
Q 1294 -91 989 -36 
Q 684 19 347 128 
L 347 722 
Q 666 556 975 473 
Q 1284 391 1588 391 
Q 1994 391 2212 530 
Q 2431 669 2431 922 
Q 2431 1156 2273 1281 
Q 2116 1406 1581 1522 
L 1381 1569 
Q 847 1681 609 1914 
Q 372 2147 372 2553 
Q 372 3047 722 3315 
Q 1072 3584 1716 3584 
Q 2034 3584 2315 3537 
Q 2597 3491 2834 3397 
z
" transform="scale(0.015625)"/>
       <path id="DejaVuSans-68" d="M 3513 2113 
L 3513 0 
L 2938 0 
L 2938 2094 
Q 2938 2591 2744 2837 
Q 2550 3084 2163 3084 
Q 1697 3084 1428 2787 
Q 1159 2491 1159 1978 
L 1159 0 
L 581 0 
L 581 4863 
L 1159 4863 
L 1159 2956 
Q 1366 3272 1645 3428 
Q 1925 3584 2291 3584 
Q 2894 3584 3203 3211 
Q 3513 2838 3513 2113 
z
" transform="scale(0.015625)"/>
       <path id="DejaVuSans-40" d="M 2381 1678 
Q 2381 1231 2603 976 
Q 2825 722 3213 722 
Q 3597 722 3817 978 
Q 4038 1234 4038 1678 
Q 4038 2116 3813 2373 
Q 3588 2631 3206 2631 
Q 2828 2631 2604 2375 
Q 2381 2119 2381 1678 
z
M 4084 744 
Q 3897 503 3655 389 
Q 3413 275 3091 275 
Q 2553 275 2217 664 
Q 1881 1053 1881 1678 
Q 1881 2303 2218 2693 
Q 2556 3084 3091 3084 
Q 3413 3084 3656 2967 
Q 3900 2850 4084 2613 
L 4084 3022 
L 4531 3022 
L 4531 722 
Q 4988 791 5245 1139 
Q 5503 1488 5503 2041 
Q 5503 2375 5404 2669 
Q 5306 2963 5106 3213 
Q 4781 3622 4314 3839 
Q 3847 4056 3297 4056 
Q 2913 4056 2559 3954 
Q 2206 3853 1906 3653 
Q 1416 3334 1139 2817 
Q 863 2300 863 1697 
Q 863 1200 1042 765 
Q 1222 331 1563 0 
Q 1891 -325 2322 -495 
Q 2753 -666 3244 -666 
Q 3647 -666 4036 -530 
Q 4425 -394 4750 -141 
L 5031 -488 
Q 4641 -791 4180 -952 
Q 3719 -1113 3244 -1113 
Q 2666 -1113 2153 -908 
Q 1641 -703 1241 -313 
Q 841 78 631 592 
Q 422 1106 422 1697 
Q 422 2266 634 2781 
Q 847 3297 1241 3688 
Q 1644 4084 2172 4295 
Q 2700 4506 3291 4506 
Q 3953 4506 4520 4234 
Q 5088 3963 5472 3463 
Q 5706 3156 5829 2797 
Q 5953 2438 5953 2053 
Q 5953 1231 5456 756 
Q 4959 281 4084 263 
L 4084 744 
z
" transform="scale(0.015625)"/>
       <path id="DejaVuSans-39" d="M 703 97 
L 703 672 
Q 941 559 1184 500 
Q 1428 441 1663 441 
Q 2288 441 2617 861 
Q 2947 1281 2994 2138 
Q 2813 1869 2534 1725 
Q 2256 1581 1919 1581 
Q 1219 1581 811 2004 
Q 403 2428 403 3163 
Q 403 3881 828 4315 
Q 1253 4750 1959 4750 
Q 2769 4750 3195 4129 
Q 3622 3509 3622 2328 
Q 3622 1225 3098 567 
Q 2575 -91 1691 -91 
Q 1453 -91 1209 -44 
Q 966 3 703 97 
z
M 1959 2075 
Q 2384 2075 2632 2365 
Q 2881 2656 2881 3163 
Q 2881 3666 2632 3958 
Q 2384 4250 1959 4250 
Q 1534 4250 1286 3958 
Q 1038 3666 1038 3163 
Q 1038 2656 1286 2365 
Q 1534 2075 1959 2075 
z
" transform="scale(0.015625)"/>
       <path id="DejaVuSans-28" d="M 1984 4856 
Q 1566 4138 1362 3434 
Q 1159 2731 1159 2009 
Q 1159 1288 1364 580 
Q 1569 -128 1984 -844 
L 1484 -844 
Q 1016 -109 783 600 
Q 550 1309 550 2009 
Q 550 2706 781 3412 
Q 1013 4119 1484 4856 
L 1984 4856 
z
" transform="scale(0.015625)"/>
       <path id="DejaVuSans-78" d="M 3513 3500 
L 2247 1797 
L 3578 0 
L 2900 0 
L 1881 1375 
L 863 0 
L 184 0 
L 1544 1831 
L 300 3500 
L 978 3500 
L 1906 2253 
L 2834 3500 
L 3513 3500 
z
" transform="scale(0.015625)"/>
       <path id="DejaVuSans-29" d="M 513 4856 
L 1013 4856 
Q 1481 4119 1714 3412 
Q 1947 2706 1947 2009 
Q 1947 1309 1714 600 
Q 1481 -109 1013 -844 
L 513 -844 
Q 928 -128 1133 580 
Q 1338 1288 1338 2009 
Q 1338 2731 1133 3434 
Q 928 4138 513 4856 
z
" transform="scale(0.015625)"/>
      </defs>
      <use xlink:href="#DejaVuSans-63"/>
      <use xlink:href="#DejaVuSans-72" x="54.980469"/>
      <use xlink:href="#DejaVuSans-6f" x="93.84375"/>
      <use xlink:href="#DejaVuSans-73" x="155.025391"/>
      <use xlink:href="#DejaVuSans-73" x="207.125"/>
      <use xlink:href="#DejaVuSans-63" x="259.224609"/>
      <use xlink:href="#DejaVuSans-68" x="314.205078"/>
      <use xlink:href="#DejaVuSans-65" x="377.583984"/>
      <use xlink:href="#DejaVuSans-63" x="439.107422"/>
      <use xlink:href="#DejaVuSans-6b" x="494.087891"/>
      <use xlink:href="#DejaVuSans-20" x="551.998047"/>
      <use xlink:href="#DejaVuSans-72" x="583.785156"/>
      <use xlink:href="#DejaVuSans-65" x="622.648438"/>
      <use xlink:href="#DejaVuSans-63" x="684.171875"/>
      <use xlink:href="#DejaVuSans-40" x="739.152344"/>
      <use xlink:href="#DejaVuSans-30" x="839.152344"/>
      <use xlink:href="#DejaVuSans-2e" x="902.775391"/>
      <use xlink:href="#DejaVuSans-39" x="934.5625"/>
      <use xlink:href="#DejaVuSans-20" x="998.185547"/>
      <use xlink:href="#DejaVuSans-28" x="1029.972656"/>
      <use xlink:href="#DejaVuSans-78" x="1068.986328"/>
      <use xlink:href="#DejaVuSans-72" x="1128.166016"/>
      <use xlink:href="#DejaVuSans-65" x="1167.029297"/>
      <use xlink:href="#DejaVuSans-63" x="1228.552734"/>
      <use xlink:href="#DejaVuSans-39" x="1283.533203"/>
      <use xlink:href="#DejaVuSans-30" x="1347.15625"/>
      <use xlink:href="#DejaVuSans-29" x="1410.779297"/>
     </g>
    </g>
   </g>
   <g id="patch_3">
    <path d="M 43.297344 186.10075 
L 43.297344 7.695416 
" style="fill: none; stroke: #1a1a1a; stroke-linejoin: miter; stroke-linecap: square"/>
   </g>
   <g id="patch_4">
    <path d="M 158.537344 186.10075 
L 158.537344 7.695416 
" style="fill: none; stroke: #1a1a1a; stroke-linejoin: miter; stroke-linecap: square"/>
   </g>
   <g id="patch_5">
    <path d="M 43.297344 186.10075 
L 158.537344 186.10075 
" style="fill: none; stroke: #1a1a1a; stroke-linejoin: miter; stroke-linecap: square"/>
   </g>
   <g id="patch_6">
    <path d="M 43.297344 7.695416 
L 158.537344 7.695416 
" style="fill: none; stroke: #1a1a1a; stroke-linejoin: miter; stroke-linecap: square"/>
   </g>
   <g id="line2d_20">
    <path d="M 48.535526 176.189342 
L 100.917344 83.269898 
L 153.299162 66.750885 
" clip-path="url(#p7b25d4572c)" style="fill: none; stroke: #0072b2; stroke-width: 2; stroke-linecap: square"/>
    <defs>
     <path id="m32f1093f8e" d="M 0 3 
C 0.795609 3 1.55874 2.683901 2.12132 2.12132 
C 2.683901 1.55874 3 0.795609 3 0 
C 3 -0.795609 2.683901 -1.55874 2.12132 -2.12132 
C 1.55874 -2.683901 0.795609 -3 0 -3 
C -0.795609 -3 -1.55874 -2.683901 -2.12132 -2.12132 
C -2.683901 -1.55874 -3 -0.795609 -3 0 
C -3 0.795609 -2.683901 1.55874 -2.12132 2.12132 
C -1.55874 2.683901 -0.795609 3 0 3 
z
" style="stroke: #0072b2"/>
    </defs>
    <g clip-path="url(#p7b25d4572c)">
     <use xlink:href="#m32f1093f8e" x="48.535526" y="176.189342" style="fill: #0072b2; stroke: #0072b2"/>
     <use xlink:href="#m32f1093f8e" x="100.917344" y="83.269898" style="fill: #0072b2; stroke: #0072b2"/>
     <use xlink:href="#m32f1093f8e" x="153.299162" y="66.750885" style="fill: #0072b2; stroke: #0072b2"/>
    </g>
   </g>
   <g id="text_12">
    <!-- S3 -->
    <g style="fill: #0072b2" transform="translate(50.211744 19.506248) scale(0.085 -0.085)">
     <defs>
      <path id="DejaVuSans-Bold-53" d="M 3834 4519 
L 3834 3531 
Q 3450 3703 3084 3790 
Q 2719 3878 2394 3878 
Q 1963 3878 1756 3759 
Q 1550 3641 1550 3391 
Q 1550 3203 1689 3098 
Q 1828 2994 2194 2919 
L 2706 2816 
Q 3484 2659 3812 2340 
Q 4141 2022 4141 1434 
Q 4141 663 3683 286 
Q 3225 -91 2284 -91 
Q 1841 -91 1394 -6 
Q 947 78 500 244 
L 500 1259 
Q 947 1022 1364 901 
Q 1781 781 2169 781 
Q 2563 781 2772 912 
Q 2981 1044 2981 1288 
Q 2981 1506 2839 1625 
Q 2697 1744 2272 1838 
L 1806 1941 
Q 1106 2091 782 2419 
Q 459 2747 459 3303 
Q 459 4000 909 4375 
Q 1359 4750 2203 4750 
Q 2588 4750 2994 4692 
Q 3400 4634 3834 4519 
z
" transform="scale(0.015625)"/>
      <path id="DejaVuSans-Bold-33" d="M 2981 2516 
Q 3453 2394 3698 2092 
Q 3944 1791 3944 1325 
Q 3944 631 3412 270 
Q 2881 -91 1863 -91 
Q 1503 -91 1142 -33 
Q 781 25 428 141 
L 428 1069 
Q 766 900 1098 814 
Q 1431 728 1753 728 
Q 2231 728 2486 893 
Q 2741 1059 2741 1369 
Q 2741 1688 2480 1852 
Q 2219 2016 1709 2016 
L 1228 2016 
L 1228 2791 
L 1734 2791 
Q 2188 2791 2409 2933 
Q 2631 3075 2631 3366 
Q 2631 3634 2415 3781 
Q 2200 3928 1806 3928 
Q 1516 3928 1219 3862 
Q 922 3797 628 3669 
L 628 4550 
Q 984 4650 1334 4700 
Q 1684 4750 2022 4750 
Q 2931 4750 3382 4451 
Q 3834 4153 3834 3553 
Q 3834 3144 3618 2883 
Q 3403 2622 2981 2516 
z
" transform="scale(0.015625)"/>
     </defs>
     <use xlink:href="#DejaVuSans-Bold-53"/>
     <use xlink:href="#DejaVuSans-Bold-33" x="72.021484"/>
    </g>
    <!-- d_min=2 -->
    <g style="fill: #0072b2" transform="translate(50.211744 29.024389) scale(0.085 -0.085)">
     <defs>
      <path id="DejaVuSans-Bold-64" d="M 2919 2988 
L 2919 4863 
L 4044 4863 
L 4044 0 
L 2919 0 
L 2919 506 
Q 2688 197 2409 53 
Q 2131 -91 1766 -91 
Q 1119 -91 703 423 
Q 288 938 288 1747 
Q 288 2556 703 3070 
Q 1119 3584 1766 3584 
Q 2128 3584 2408 3439 
Q 2688 3294 2919 2988 
z
M 2181 722 
Q 2541 722 2730 984 
Q 2919 1247 2919 1747 
Q 2919 2247 2730 2509 
Q 2541 2772 2181 2772 
Q 1825 2772 1636 2509 
Q 1447 2247 1447 1747 
Q 1447 1247 1636 984 
Q 1825 722 2181 722 
z
" transform="scale(0.015625)"/>
      <path id="DejaVuSans-Bold-5f" d="M 3200 -916 
L 3200 -1509 
L 0 -1509 
L 0 -916 
L 3200 -916 
z
" transform="scale(0.015625)"/>
      <path id="DejaVuSans-Bold-6d" d="M 3781 2919 
Q 3994 3244 4286 3414 
Q 4578 3584 4928 3584 
Q 5531 3584 5847 3212 
Q 6163 2841 6163 2131 
L 6163 0 
L 5038 0 
L 5038 1825 
Q 5041 1866 5042 1909 
Q 5044 1953 5044 2034 
Q 5044 2406 4934 2573 
Q 4825 2741 4581 2741 
Q 4263 2741 4089 2478 
Q 3916 2216 3909 1719 
L 3909 0 
L 2784 0 
L 2784 1825 
Q 2784 2406 2684 2573 
Q 2584 2741 2328 2741 
Q 2006 2741 1831 2477 
Q 1656 2213 1656 1722 
L 1656 0 
L 531 0 
L 531 3500 
L 1656 3500 
L 1656 2988 
Q 1863 3284 2130 3434 
Q 2397 3584 2719 3584 
Q 3081 3584 3359 3409 
Q 3638 3234 3781 2919 
z
" transform="scale(0.015625)"/>
      <path id="DejaVuSans-Bold-69" d="M 538 3500 
L 1656 3500 
L 1656 0 
L 538 0 
L 538 3500 
z
M 538 4863 
L 1656 4863 
L 1656 3950 
L 538 3950 
L 538 4863 
z
" transform="scale(0.015625)"/>
      <path id="DejaVuSans-Bold-6e" d="M 4056 2131 
L 4056 0 
L 2931 0 
L 2931 347 
L 2931 1631 
Q 2931 2084 2911 2256 
Q 2891 2428 2841 2509 
Q 2775 2619 2662 2680 
Q 2550 2741 2406 2741 
Q 2056 2741 1856 2470 
Q 1656 2200 1656 1722 
L 1656 0 
L 538 0 
L 538 3500 
L 1656 3500 
L 1656 2988 
Q 1909 3294 2193 3439 
Q 2478 3584 2822 3584 
Q 3428 3584 3742 3212 
Q 4056 2841 4056 2131 
z
" transform="scale(0.015625)"/>
      <path id="DejaVuSans-Bold-3d" d="M 678 3084 
L 4684 3084 
L 4684 2350 
L 678 2350 
L 678 3084 
z
M 678 1663 
L 4684 1663 
L 4684 922 
L 678 922 
L 678 1663 
z
" transform="scale(0.015625)"/>
      <path id="DejaVuSans-Bold-32" d="M 1844 884 
L 3897 884 
L 3897 0 
L 506 0 
L 506 884 
L 2209 2388 
Q 2438 2594 2547 2791 
Q 2656 2988 2656 3200 
Q 2656 3528 2436 3728 
Q 2216 3928 1850 3928 
Q 1569 3928 1234 3808 
Q 900 3688 519 3450 
L 519 4475 
Q 925 4609 1322 4679 
Q 1719 4750 2100 4750 
Q 2938 4750 3402 4381 
Q 3866 4013 3866 3353 
Q 3866 2972 3669 2642 
Q 3472 2313 2841 1759 
L 1844 884 
z
" transform="scale(0.015625)"/>
     </defs>
     <use xlink:href="#DejaVuSans-Bold-64"/>
     <use xlink:href="#DejaVuSans-Bold-5f" x="71.582031"/>
     <use xlink:href="#DejaVuSans-Bold-6d" x="121.582031"/>
     <use xlink:href="#DejaVuSans-Bold-69" x="225.78125"/>
     <use xlink:href="#DejaVuSans-Bold-6e" x="260.058594"/>
     <use xlink:href="#DejaVuSans-Bold-3d" x="331.25"/>
     <use xlink:href="#DejaVuSans-Bold-32" x="415.039062"/>
    </g>
    <!-- (solvable) -->
    <g style="fill: #0072b2" transform="translate(50.211744 38.778936) scale(0.085 -0.085)">
     <defs>
      <path id="DejaVuSans-Bold-28" d="M 2413 -844 
L 1484 -844 
Q 1006 -72 778 623 
Q 550 1319 550 2003 
Q 550 2688 779 3389 
Q 1009 4091 1484 4856 
L 2413 4856 
Q 2013 4116 1813 3408 
Q 1613 2700 1613 2009 
Q 1613 1319 1811 609 
Q 2009 -100 2413 -844 
z
" transform="scale(0.015625)"/>
      <path id="DejaVuSans-Bold-73" d="M 3272 3391 
L 3272 2541 
Q 2913 2691 2578 2766 
Q 2244 2841 1947 2841 
Q 1628 2841 1473 2761 
Q 1319 2681 1319 2516 
Q 1319 2381 1436 2309 
Q 1553 2238 1856 2203 
L 2053 2175 
Q 2913 2066 3209 1816 
Q 3506 1566 3506 1031 
Q 3506 472 3093 190 
Q 2681 -91 1863 -91 
Q 1516 -91 1145 -36 
Q 775 19 384 128 
L 384 978 
Q 719 816 1070 734 
Q 1422 653 1784 653 
Q 2113 653 2278 743 
Q 2444 834 2444 1013 
Q 2444 1163 2330 1236 
Q 2216 1309 1875 1350 
L 1678 1375 
Q 931 1469 631 1722 
Q 331 1975 331 2491 
Q 331 3047 712 3315 
Q 1094 3584 1881 3584 
Q 2191 3584 2531 3537 
Q 2872 3491 3272 3391 
z
" transform="scale(0.015625)"/>
      <path id="DejaVuSans-Bold-6f" d="M 2203 2784 
Q 1831 2784 1636 2517 
Q 1441 2250 1441 1747 
Q 1441 1244 1636 976 
Q 1831 709 2203 709 
Q 2569 709 2762 976 
Q 2956 1244 2956 1747 
Q 2956 2250 2762 2517 
Q 2569 2784 2203 2784 
z
M 2203 3584 
Q 3106 3584 3614 3096 
Q 4122 2609 4122 1747 
Q 4122 884 3614 396 
Q 3106 -91 2203 -91 
Q 1297 -91 786 396 
Q 275 884 275 1747 
Q 275 2609 786 3096 
Q 1297 3584 2203 3584 
z
" transform="scale(0.015625)"/>
      <path id="DejaVuSans-Bold-6c" d="M 538 4863 
L 1656 4863 
L 1656 0 
L 538 0 
L 538 4863 
z
" transform="scale(0.015625)"/>
      <path id="DejaVuSans-Bold-76" d="M 97 3500 
L 1216 3500 
L 2088 1081 
L 2956 3500 
L 4078 3500 
L 2700 0 
L 1472 0 
L 97 3500 
z
" transform="scale(0.015625)"/>
      <path id="DejaVuSans-Bold-61" d="M 2106 1575 
Q 1756 1575 1579 1456 
Q 1403 1338 1403 1106 
Q 1403 894 1545 773 
Q 1688 653 1941 653 
Q 2256 653 2472 879 
Q 2688 1106 2688 1447 
L 2688 1575 
L 2106 1575 
z
M 3816 1997 
L 3816 0 
L 2688 0 
L 2688 519 
Q 2463 200 2181 54 
Q 1900 -91 1497 -91 
Q 953 -91 614 226 
Q 275 544 275 1050 
Q 275 1666 698 1953 
Q 1122 2241 2028 2241 
L 2688 2241 
L 2688 2328 
Q 2688 2594 2478 2717 
Q 2269 2841 1825 2841 
Q 1466 2841 1156 2769 
Q 847 2697 581 2553 
L 581 3406 
Q 941 3494 1303 3539 
Q 1666 3584 2028 3584 
Q 2975 3584 3395 3211 
Q 3816 2838 3816 1997 
z
" transform="scale(0.015625)"/>
      <path id="DejaVuSans-Bold-62" d="M 2400 722 
Q 2759 722 2948 984 
Q 3138 1247 3138 1747 
Q 3138 2247 2948 2509 
Q 2759 2772 2400 2772 
Q 2041 2772 1848 2508 
Q 1656 2244 1656 1747 
Q 1656 1250 1848 986 
Q 2041 722 2400 722 
z
M 1656 2988 
Q 1888 3294 2169 3439 
Q 2450 3584 2816 3584 
Q 3463 3584 3878 3070 
Q 4294 2556 4294 1747 
Q 4294 938 3878 423 
Q 3463 -91 2816 -91 
Q 2450 -91 2169 54 
Q 1888 200 1656 506 
L 1656 0 
L 538 0 
L 538 4863 
L 1656 4863 
L 1656 2988 
z
" transform="scale(0.015625)"/>
      <path id="DejaVuSans-Bold-65" d="M 4031 1759 
L 4031 1441 
L 1416 1441 
Q 1456 1047 1700 850 
Q 1944 653 2381 653 
Q 2734 653 3104 758 
Q 3475 863 3866 1075 
L 3866 213 
Q 3469 63 3072 -14 
Q 2675 -91 2278 -91 
Q 1328 -91 801 392 
Q 275 875 275 1747 
Q 275 2603 792 3093 
Q 1309 3584 2216 3584 
Q 3041 3584 3536 3087 
Q 4031 2591 4031 1759 
z
M 2881 2131 
Q 2881 2450 2695 2645 
Q 2509 2841 2209 2841 
Q 1884 2841 1681 2658 
Q 1478 2475 1428 2131 
L 2881 2131 
z
" transform="scale(0.015625)"/>
      <path id="DejaVuSans-Bold-29" d="M 513 -844 
Q 913 -100 1113 609 
Q 1313 1319 1313 2009 
Q 1313 2700 1113 3408 
Q 913 4116 513 4856 
L 1441 4856 
Q 1916 4091 2145 3389 
Q 2375 2688 2375 2003 
Q 2375 1319 2147 623 
Q 1919 -72 1441 -844 
L 513 -844 
z
" transform="scale(0.015625)"/>
     </defs>
     <use xlink:href="#DejaVuSans-Bold-28"/>
     <use xlink:href="#DejaVuSans-Bold-73" x="45.703125"/>
     <use xlink:href="#DejaVuSans-Bold-6f" x="105.224609"/>
     <use xlink:href="#DejaVuSans-Bold-6c" x="173.925781"/>
     <use xlink:href="#DejaVuSans-Bold-76" x="208.203125"/>
     <use xlink:href="#DejaVuSans-Bold-61" x="273.388672"/>
     <use xlink:href="#DejaVuSans-Bold-62" x="340.869141"/>
     <use xlink:href="#DejaVuSans-Bold-6c" x="412.451172"/>
     <use xlink:href="#DejaVuSans-Bold-65" x="446.728516"/>
     <use xlink:href="#DejaVuSans-Bold-29" x="514.550781"/>
    </g>
   </g>
   <g id="LineCollection_1">
    <path d="M 100.917344 95.477448 
L 100.917344 71.062348 
" clip-path="url(#p7b25d4572c)" style="fill: none; stroke: #1a1a1a; stroke-width: 1.1"/>
    <path d="M 153.299162 80.312995 
L 153.299162 53.188776 
" clip-path="url(#p7b25d4572c)" style="fill: none; stroke: #1a1a1a; stroke-width: 1.1"/>
   </g>
   <g id="line2d_21">
    <defs>
     <path id="m8c28ca83ef" d="M 4 0 
L -4 -0 
" style="stroke: #1a1a1a"/>
    </defs>
    <g clip-path="url(#p7b25d4572c)">
     <use xlink:href="#m8c28ca83ef" x="100.917344" y="95.477448" style="fill: #1a1a1a; stroke: #1a1a1a"/>
     <use xlink:href="#m8c28ca83ef" x="153.299162" y="80.312995" style="fill: #1a1a1a; stroke: #1a1a1a"/>
    </g>
   </g>
   <g id="line2d_22">
    <g clip-path="url(#p7b25d4572c)">
     <use xlink:href="#m8c28ca83ef" x="100.917344" y="71.062348" style="fill: #1a1a1a; stroke: #1a1a1a"/>
     <use xlink:href="#m8c28ca83ef" x="153.299162" y="53.188776" style="fill: #1a1a1a; stroke: #1a1a1a"/>
    </g>
   </g>
  </g>
  <g id="axes_2">
   <g id="patch_7">
    <path d="M 172.837344 186.10075 
L 288.077344 186.10075 
L 288.077344 7.695416 
L 172.837344 7.695416 
z
" style="fill: #faf5e7"/>
   </g>
   <g id="line2d_23">
    <path d="M 172.837344 68.815762 
L 288.077344 68.815762 
" clip-path="url(#p652b632264)" style="fill: none; stroke-dasharray: 3.33,1.44; stroke-dashoffset: 0; stroke: #1a1a1a; stroke-opacity: 0.55; stroke-width: 0.9"/>
   </g>
   <g id="matplotlib.axis_3">
    <g id="xtick_4">
     <g id="line2d_24">
      <path d="M 178.075526 186.10075 
L 178.075526 7.695416 
" clip-path="url(#p652b632264)" style="fill: none; stroke: #1a1a1a; stroke-opacity: 0.22; stroke-width: 0.5; stroke-linecap: square"/>
     </g>
     <g id="line2d_25">
      <g>
       <use xlink:href="#m7430789b8b" x="178.075526" y="186.10075" style="fill: #1a1a1a; stroke: #1a1a1a; stroke-width: 0.8"/>
      </g>
     </g>
     <g id="text_13">
      <!-- 2 -->
      <g style="fill: #1a1a1a" transform="translate(175.212401 199.939343) scale(0.09 -0.09)">
       <use xlink:href="#DejaVuSans-32"/>
      </g>
     </g>
    </g>
    <g id="xtick_5">
     <g id="line2d_26">
      <path d="M 230.457344 186.10075 
L 230.457344 7.695416 
" clip-path="url(#p652b632264)" style="fill: none; stroke: #1a1a1a; stroke-opacity: 0.22; stroke-width: 0.5; stroke-linecap: square"/>
     </g>
     <g id="line2d_27">
      <g>
       <use xlink:href="#m7430789b8b" x="230.457344" y="186.10075" style="fill: #1a1a1a; stroke: #1a1a1a; stroke-width: 0.8"/>
      </g>
     </g>
     <g id="text_14">
      <!-- 3 -->
      <g style="fill: #1a1a1a" transform="translate(227.594219 199.939343) scale(0.09 -0.09)">
       <use xlink:href="#DejaVuSans-33"/>
      </g>
     </g>
    </g>
    <g id="xtick_6">
     <g id="line2d_28">
      <path d="M 282.839162 186.10075 
L 282.839162 7.695416 
" clip-path="url(#p652b632264)" style="fill: none; stroke: #1a1a1a; stroke-opacity: 0.22; stroke-width: 0.5; stroke-linecap: square"/>
     </g>
     <g id="line2d_29">
      <g>
       <use xlink:href="#m7430789b8b" x="282.839162" y="186.10075" style="fill: #1a1a1a; stroke: #1a1a1a; stroke-width: 0.8"/>
      </g>
     </g>
     <g id="text_15">
      <!-- 4 -->
      <g style="fill: #1a1a1a" transform="translate(279.976037 199.939343) scale(0.09 -0.09)">
       <use xlink:href="#DejaVuSans-34"/>
      </g>
     </g>
    </g>
    <g id="text_16">
     <!-- forced rank k -->
     <g style="fill: #1a1a1a" transform="translate(202.390742 212.269734) scale(0.085 -0.085)">
      <use xlink:href="#DejaVuSans-66"/>
      <use xlink:href="#DejaVuSans-6f" x="35.205078"/>
      <use xlink:href="#DejaVuSans-72" x="96.386719"/>
      <use xlink:href="#DejaVuSans-63" x="135.25"/>
      <use xlink:href="#DejaVuSans-65" x="190.230469"/>
      <use xlink:href="#DejaVuSans-64" x="251.753906"/>
      <use xlink:href="#DejaVuSans-20" x="315.230469"/>
      <use xlink:href="#DejaVuSans-72" x="347.017578"/>
      <use xlink:href="#DejaVuSans-61" x="388.130859"/>
      <use xlink:href="#DejaVuSans-6e" x="449.410156"/>
      <use xlink:href="#DejaVuSans-6b" x="512.789062"/>
      <use xlink:href="#DejaVuSans-20" x="570.699219"/>
      <use xlink:href="#DejaVuSans-6b" x="602.486328"/>
     </g>
    </g>
   </g>
   <g id="matplotlib.axis_4">
    <g id="ytick_7">
     <g id="line2d_30">
      <path d="M 172.837344 176.189342 
L 288.077344 176.189342 
" clip-path="url(#p652b632264)" style="fill: none; stroke: #1a1a1a; stroke-opacity: 0.22; stroke-width: 0.5; stroke-linecap: square"/>
     </g>
     <g id="line2d_31">
      <g>
       <use xlink:href="#m85c79da39b" x="172.837344" y="176.189342" style="fill: #1a1a1a; stroke: #1a1a1a; stroke-width: 0.8"/>
      </g>
     </g>
    </g>
    <g id="ytick_8">
     <g id="line2d_32">
      <path d="M 172.837344 143.151318 
L 288.077344 143.151318 
" clip-path="url(#p652b632264)" style="fill: none; stroke: #1a1a1a; stroke-opacity: 0.22; stroke-width: 0.5; stroke-linecap: square"/>
     </g>
     <g id="line2d_33">
      <g>
       <use xlink:href="#m85c79da39b" x="172.837344" y="143.151318" style="fill: #1a1a1a; stroke: #1a1a1a; stroke-width: 0.8"/>
      </g>
     </g>
    </g>
    <g id="ytick_9">
     <g id="line2d_34">
      <path d="M 172.837344 110.113293 
L 288.077344 110.113293 
" clip-path="url(#p652b632264)" style="fill: none; stroke: #1a1a1a; stroke-opacity: 0.22; stroke-width: 0.5; stroke-linecap: square"/>
     </g>
     <g id="line2d_35">
      <g>
       <use xlink:href="#m85c79da39b" x="172.837344" y="110.113293" style="fill: #1a1a1a; stroke: #1a1a1a; stroke-width: 0.8"/>
      </g>
     </g>
    </g>
    <g id="ytick_10">
     <g id="line2d_36">
      <path d="M 172.837344 77.075268 
L 288.077344 77.075268 
" clip-path="url(#p652b632264)" style="fill: none; stroke: #1a1a1a; stroke-opacity: 0.22; stroke-width: 0.5; stroke-linecap: square"/>
     </g>
     <g id="line2d_37">
      <g>
       <use xlink:href="#m85c79da39b" x="172.837344" y="77.075268" style="fill: #1a1a1a; stroke: #1a1a1a; stroke-width: 0.8"/>
      </g>
     </g>
    </g>
    <g id="ytick_11">
     <g id="line2d_38">
      <path d="M 172.837344 44.037243 
L 288.077344 44.037243 
" clip-path="url(#p652b632264)" style="fill: none; stroke: #1a1a1a; stroke-opacity: 0.22; stroke-width: 0.5; stroke-linecap: square"/>
     </g>
     <g id="line2d_39">
      <g>
       <use xlink:href="#m85c79da39b" x="172.837344" y="44.037243" style="fill: #1a1a1a; stroke: #1a1a1a; stroke-width: 0.8"/>
      </g>
     </g>
    </g>
    <g id="ytick_12">
     <g id="line2d_40">
      <path d="M 172.837344 10.999219 
L 288.077344 10.999219 
" clip-path="url(#p652b632264)" style="fill: none; stroke: #1a1a1a; stroke-opacity: 0.22; stroke-width: 0.5; stroke-linecap: square"/>
     </g>
     <g id="line2d_41">
      <g>
       <use xlink:href="#m85c79da39b" x="172.837344" y="10.999219" style="fill: #1a1a1a; stroke: #1a1a1a; stroke-width: 0.8"/>
      </g>
     </g>
    </g>
   </g>
   <g id="patch_8">
    <path d="M 172.837344 186.10075 
L 172.837344 7.695416 
" style="fill: none; stroke: #1a1a1a; stroke-linejoin: miter; stroke-linecap: square"/>
   </g>
   <g id="patch_9">
    <path d="M 288.077344 186.10075 
L 288.077344 7.695416 
" style="fill: none; stroke: #1a1a1a; stroke-linejoin: miter; stroke-linecap: square"/>
   </g>
   <g id="patch_10">
    <path d="M 172.837344 186.10075 
L 288.077344 186.10075 
" style="fill: none; stroke: #1a1a1a; stroke-linejoin: miter; stroke-linecap: square"/>
   </g>
   <g id="patch_11">
    <path d="M 172.837344 7.695416 
L 288.077344 7.695416 
" style="fill: none; stroke: #1a1a1a; stroke-linejoin: miter; stroke-linecap: square"/>
   </g>
   <g id="line2d_42">
    <path d="M 178.075526 176.189342 
L 230.457344 44.037243 
L 282.839162 19.258725 
" clip-path="url(#p652b632264)" style="fill: none; stroke: #0072b2; stroke-width: 2; stroke-linecap: square"/>
    <g clip-path="url(#p652b632264)">
     <use xlink:href="#m32f1093f8e" x="178.075526" y="176.189342" style="fill: #0072b2; stroke: #0072b2"/>
     <use xlink:href="#m32f1093f8e" x="230.457344" y="44.037243" style="fill: #0072b2; stroke: #0072b2"/>
     <use xlink:href="#m32f1093f8e" x="282.839162" y="19.258725" style="fill: #0072b2; stroke: #0072b2"/>
    </g>
   </g>
   <g id="text_17">
    <!-- S4 -->
    <g style="fill: #0072b2" transform="translate(179.751744 19.506248) scale(0.085 -0.085)">
     <defs>
      <path id="DejaVuSans-Bold-34" d="M 2356 3675 
L 1038 1722 
L 2356 1722 
L 2356 3675 
z
M 2156 4666 
L 3494 4666 
L 3494 1722 
L 4159 1722 
L 4159 850 
L 3494 850 
L 3494 0 
L 2356 0 
L 2356 850 
L 288 850 
L 288 1881 
L 2156 4666 
z
" transform="scale(0.015625)"/>
     </defs>
     <use xlink:href="#DejaVuSans-Bold-53"/>
     <use xlink:href="#DejaVuSans-Bold-34" x="72.021484"/>
    </g>
    <!-- d_min=3 -->
    <g style="fill: #0072b2" transform="translate(179.751744 29.024389) scale(0.085 -0.085)">
     <use xlink:href="#DejaVuSans-Bold-64"/>
     <use xlink:href="#DejaVuSans-Bold-5f" x="71.582031"/>
     <use xlink:href="#DejaVuSans-Bold-6d" x="121.582031"/>
     <use xlink:href="#DejaVuSans-Bold-69" x="225.78125"/>
     <use xlink:href="#DejaVuSans-Bold-6e" x="260.058594"/>
     <use xlink:href="#DejaVuSans-Bold-3d" x="331.25"/>
     <use xlink:href="#DejaVuSans-Bold-33" x="415.039062"/>
    </g>
    <!-- (solvable) -->
    <g style="fill: #0072b2" transform="translate(179.751744 38.778936) scale(0.085 -0.085)">
     <use xlink:href="#DejaVuSans-Bold-28"/>
     <use xlink:href="#DejaVuSans-Bold-73" x="45.703125"/>
     <use xlink:href="#DejaVuSans-Bold-6f" x="105.224609"/>
     <use xlink:href="#DejaVuSans-Bold-6c" x="173.925781"/>
     <use xlink:href="#DejaVuSans-Bold-76" x="208.203125"/>
     <use xlink:href="#DejaVuSans-Bold-61" x="273.388672"/>
     <use xlink:href="#DejaVuSans-Bold-62" x="340.869141"/>
     <use xlink:href="#DejaVuSans-Bold-6c" x="412.451172"/>
     <use xlink:href="#DejaVuSans-Bold-65" x="446.728516"/>
     <use xlink:href="#DejaVuSans-Bold-29" x="514.550781"/>
    </g>
   </g>
  </g>
  <g id="axes_3">
   <g id="patch_12">
    <path d="M 302.377344 186.10075 
L 417.617344 186.10075 
L 417.617344 7.695416 
L 302.377344 7.695416 
z
" style="fill: #faf5e7"/>
   </g>
   <g id="line2d_43">
    <path d="M 302.377344 60.556256 
L 417.617344 60.556256 
" clip-path="url(#pcd4047c4d9)" style="fill: none; stroke-dasharray: 3.33,1.44; stroke-dashoffset: 0; stroke: #1a1a1a; stroke-opacity: 0.55; stroke-width: 0.9"/>
   </g>
   <g id="matplotlib.axis_5">
    <g id="xtick_7">
     <g id="line2d_44">
      <path d="M 307.615526 186.10075 
L 307.615526 7.695416 
" clip-path="url(#pcd4047c4d9)" style="fill: none; stroke: #1a1a1a; stroke-opacity: 0.22; stroke-width: 0.5; stroke-linecap: square"/>
     </g>
     <g id="line2d_45">
      <g>
       <use xlink:href="#m7430789b8b" x="307.615526" y="186.10075" style="fill: #1a1a1a; stroke: #1a1a1a; stroke-width: 0.8"/>
      </g>
     </g>
     <g id="text_18">
      <!-- 2 -->
      <g style="fill: #1a1a1a" transform="translate(304.752401 199.939343) scale(0.09 -0.09)">
       <use xlink:href="#DejaVuSans-32"/>
      </g>
     </g>
    </g>
    <g id="xtick_8">
     <g id="line2d_46">
      <path d="M 359.997344 186.10075 
L 359.997344 7.695416 
" clip-path="url(#pcd4047c4d9)" style="fill: none; stroke: #1a1a1a; stroke-opacity: 0.22; stroke-width: 0.5; stroke-linecap: square"/>
     </g>
     <g id="line2d_47">
      <g>
       <use xlink:href="#m7430789b8b" x="359.997344" y="186.10075" style="fill: #1a1a1a; stroke: #1a1a1a; stroke-width: 0.8"/>
      </g>
     </g>
     <g id="text_19">
      <!-- 3 -->
      <g style="fill: #1a1a1a" transform="translate(357.134219 199.939343) scale(0.09 -0.09)">
       <use xlink:href="#DejaVuSans-33"/>
      </g>
     </g>
    </g>
    <g id="xtick_9">
     <g id="line2d_48">
      <path d="M 412.379162 186.10075 
L 412.379162 7.695416 
" clip-path="url(#pcd4047c4d9)" style="fill: none; stroke: #1a1a1a; stroke-opacity: 0.22; stroke-width: 0.5; stroke-linecap: square"/>
     </g>
     <g id="line2d_49">
      <g>
       <use xlink:href="#m7430789b8b" x="412.379162" y="186.10075" style="fill: #1a1a1a; stroke: #1a1a1a; stroke-width: 0.8"/>
      </g>
     </g>
     <g id="text_20">
      <!-- 4 -->
      <g style="fill: #1a1a1a" transform="translate(409.516037 199.939343) scale(0.09 -0.09)">
       <use xlink:href="#DejaVuSans-34"/>
      </g>
     </g>
    </g>
    <g id="text_21">
     <!-- forced rank k -->
     <g style="fill: #1a1a1a" transform="translate(331.930742 212.269734) scale(0.085 -0.085)">
      <use xlink:href="#DejaVuSans-66"/>
      <use xlink:href="#DejaVuSans-6f" x="35.205078"/>
      <use xlink:href="#DejaVuSans-72" x="96.386719"/>
      <use xlink:href="#DejaVuSans-63" x="135.25"/>
      <use xlink:href="#DejaVuSans-65" x="190.230469"/>
      <use xlink:href="#DejaVuSans-64" x="251.753906"/>
      <use xlink:href="#DejaVuSans-20" x="315.230469"/>
      <use xlink:href="#DejaVuSans-72" x="347.017578"/>
      <use xlink:href="#DejaVuSans-61" x="388.130859"/>
      <use xlink:href="#DejaVuSans-6e" x="449.410156"/>
      <use xlink:href="#DejaVuSans-6b" x="512.789062"/>
      <use xlink:href="#DejaVuSans-20" x="570.699219"/>
      <use xlink:href="#DejaVuSans-6b" x="602.486328"/>
     </g>
    </g>
   </g>
   <g id="matplotlib.axis_6">
    <g id="ytick_13">
     <g id="line2d_50">
      <path d="M 302.377344 176.189342 
L 417.617344 176.189342 
" clip-path="url(#pcd4047c4d9)" style="fill: none; stroke: #1a1a1a; stroke-opacity: 0.22; stroke-width: 0.5; stroke-linecap: square"/>
     </g>
     <g id="line2d_51">
      <g>
       <use xlink:href="#m85c79da39b" x="302.377344" y="176.189342" style="fill: #1a1a1a; stroke: #1a1a1a; stroke-width: 0.8"/>
      </g>
     </g>
    </g>
    <g id="ytick_14">
     <g id="line2d_52">
      <path d="M 302.377344 143.151318 
L 417.617344 143.151318 
" clip-path="url(#pcd4047c4d9)" style="fill: none; stroke: #1a1a1a; stroke-opacity: 0.22; stroke-width: 0.5; stroke-linecap: square"/>
     </g>
     <g id="line2d_53">
      <g>
       <use xlink:href="#m85c79da39b" x="302.377344" y="143.151318" style="fill: #1a1a1a; stroke: #1a1a1a; stroke-width: 0.8"/>
      </g>
     </g>
    </g>
    <g id="ytick_15">
     <g id="line2d_54">
      <path d="M 302.377344 110.113293 
L 417.617344 110.113293 
" clip-path="url(#pcd4047c4d9)" style="fill: none; stroke: #1a1a1a; stroke-opacity: 0.22; stroke-width: 0.5; stroke-linecap: square"/>
     </g>
     <g id="line2d_55">
      <g>
       <use xlink:href="#m85c79da39b" x="302.377344" y="110.113293" style="fill: #1a1a1a; stroke: #1a1a1a; stroke-width: 0.8"/>
      </g>
     </g>
    </g>
    <g id="ytick_16">
     <g id="line2d_56">
      <path d="M 302.377344 77.075268 
L 417.617344 77.075268 
" clip-path="url(#pcd4047c4d9)" style="fill: none; stroke: #1a1a1a; stroke-opacity: 0.22; stroke-width: 0.5; stroke-linecap: square"/>
     </g>
     <g id="line2d_57">
      <g>
       <use xlink:href="#m85c79da39b" x="302.377344" y="77.075268" style="fill: #1a1a1a; stroke: #1a1a1a; stroke-width: 0.8"/>
      </g>
     </g>
    </g>
    <g id="ytick_17">
     <g id="line2d_58">
      <path d="M 302.377344 44.037243 
L 417.617344 44.037243 
" clip-path="url(#pcd4047c4d9)" style="fill: none; stroke: #1a1a1a; stroke-opacity: 0.22; stroke-width: 0.5; stroke-linecap: square"/>
     </g>
     <g id="line2d_59">
      <g>
       <use xlink:href="#m85c79da39b" x="302.377344" y="44.037243" style="fill: #1a1a1a; stroke: #1a1a1a; stroke-width: 0.8"/>
      </g>
     </g>
    </g>
    <g id="ytick_18">
     <g id="line2d_60">
      <path d="M 302.377344 10.999219 
L 417.617344 10.999219 
" clip-path="url(#pcd4047c4d9)" style="fill: none; stroke: #1a1a1a; stroke-opacity: 0.22; stroke-width: 0.5; stroke-linecap: square"/>
     </g>
     <g id="line2d_61">
      <g>
       <use xlink:href="#m85c79da39b" x="302.377344" y="10.999219" style="fill: #1a1a1a; stroke: #1a1a1a; stroke-width: 0.8"/>
      </g>
     </g>
    </g>
   </g>
   <g id="patch_13">
    <path d="M 302.377344 186.10075 
L 302.377344 7.695416 
" style="fill: none; stroke: #1a1a1a; stroke-linejoin: miter; stroke-linecap: square"/>
   </g>
   <g id="patch_14">
    <path d="M 417.617344 186.10075 
L 417.617344 7.695416 
" style="fill: none; stroke: #1a1a1a; stroke-linejoin: miter; stroke-linecap: square"/>
   </g>
   <g id="patch_15">
    <path d="M 302.377344 186.10075 
L 417.617344 186.10075 
" style="fill: none; stroke: #1a1a1a; stroke-linejoin: miter; stroke-linecap: square"/>
   </g>
   <g id="patch_16">
    <path d="M 302.377344 7.695416 
L 417.617344 7.695416 
" style="fill: none; stroke: #1a1a1a; stroke-linejoin: miter; stroke-linecap: square"/>
   </g>
   <g id="line2d_62">
    <path d="M 307.615526 176.189342 
L 359.997344 60.556256 
L 412.379162 52.29675 
" clip-path="url(#pcd4047c4d9)" style="fill: none; stroke: #d55e00; stroke-width: 2; stroke-linecap: square"/>
    <defs>
     <path id="m6c952f3d02" d="M 0 3 
C 0.795609 3 1.55874 2.683901 2.12132 2.12132 
C 2.683901 1.55874 3 0.795609 3 0 
C 3 -0.795609 2.683901 -1.55874 2.12132 -2.12132 
C 1.55874 -2.683901 0.795609 -3 0 -3 
C -0.795609 -3 -1.55874 -2.683901 -2.12132 -2.12132 
C -2.683901 -1.55874 -3 -0.795609 -3 0 
C -3 0.795609 -2.683901 1.55874 -2.12132 2.12132 
C -1.55874 2.683901 -0.795609 3 0 3 
z
" style="stroke: #d55e00"/>
    </defs>
    <g clip-path="url(#pcd4047c4d9)">
     <use xlink:href="#m6c952f3d02" x="307.615526" y="176.189342" style="fill: #d55e00; stroke: #d55e00"/>
     <use xlink:href="#m6c952f3d02" x="359.997344" y="60.556256" style="fill: #d55e00; stroke: #d55e00"/>
     <use xlink:href="#m6c952f3d02" x="412.379162" y="52.29675" style="fill: #d55e00; stroke: #d55e00"/>
    </g>
   </g>
   <g id="text_22">
    <!-- A5 -->
    <g style="fill: #d55e00" transform="translate(309.291744 19.506248) scale(0.085 -0.085)">
     <defs>
      <path id="DejaVuSans-Bold-41" d="M 3419 850 
L 1538 850 
L 1241 0 
L 31 0 
L 1759 4666 
L 3194 4666 
L 4922 0 
L 3713 0 
L 3419 850 
z
M 1838 1716 
L 3116 1716 
L 2478 3572 
L 1838 1716 
z
" transform="scale(0.015625)"/>
      <path id="DejaVuSans-Bold-35" d="M 678 4666 
L 3669 4666 
L 3669 3781 
L 1638 3781 
L 1638 3059 
Q 1775 3097 1914 3117 
Q 2053 3138 2203 3138 
Q 3056 3138 3531 2711 
Q 4006 2284 4006 1522 
Q 4006 766 3489 337 
Q 2972 -91 2053 -91 
Q 1656 -91 1267 -14 
Q 878 63 494 219 
L 494 1166 
Q 875 947 1217 837 
Q 1559 728 1863 728 
Q 2300 728 2551 942 
Q 2803 1156 2803 1522 
Q 2803 1891 2551 2103 
Q 2300 2316 1863 2316 
Q 1603 2316 1309 2248 
Q 1016 2181 678 2041 
L 678 4666 
z
" transform="scale(0.015625)"/>
     </defs>
     <use xlink:href="#DejaVuSans-Bold-41"/>
     <use xlink:href="#DejaVuSans-Bold-35" x="77.392578"/>
    </g>
    <!-- d_min=3 -->
    <g style="fill: #d55e00" transform="translate(309.291744 29.024389) scale(0.085 -0.085)">
     <use xlink:href="#DejaVuSans-Bold-64"/>
     <use xlink:href="#DejaVuSans-Bold-5f" x="71.582031"/>
     <use xlink:href="#DejaVuSans-Bold-6d" x="121.582031"/>
     <use xlink:href="#DejaVuSans-Bold-69" x="225.78125"/>
     <use xlink:href="#DejaVuSans-Bold-6e" x="260.058594"/>
     <use xlink:href="#DejaVuSans-Bold-3d" x="331.25"/>
     <use xlink:href="#DejaVuSans-Bold-33" x="415.039062"/>
    </g>
    <!-- (non-solvable) -->
    <g style="fill: #d55e00" transform="translate(309.291744 38.778936) scale(0.085 -0.085)">
     <defs>
      <path id="DejaVuSans-Bold-2d" d="M 347 2297 
L 2309 2297 
L 2309 1388 
L 347 1388 
L 347 2297 
z
" transform="scale(0.015625)"/>
     </defs>
     <use xlink:href="#DejaVuSans-Bold-28"/>
     <use xlink:href="#DejaVuSans-Bold-6e" x="45.703125"/>
     <use xlink:href="#DejaVuSans-Bold-6f" x="116.894531"/>
     <use xlink:href="#DejaVuSans-Bold-6e" x="185.595703"/>
     <use xlink:href="#DejaVuSans-Bold-2d" x="256.787109"/>
     <use xlink:href="#DejaVuSans-Bold-73" x="298.291016"/>
     <use xlink:href="#DejaVuSans-Bold-6f" x="357.8125"/>
     <use xlink:href="#DejaVuSans-Bold-6c" x="426.513672"/>
     <use xlink:href="#DejaVuSans-Bold-76" x="460.791016"/>
     <use xlink:href="#DejaVuSans-Bold-61" x="525.976562"/>
     <use xlink:href="#DejaVuSans-Bold-62" x="593.457031"/>
     <use xlink:href="#DejaVuSans-Bold-6c" x="665.039062"/>
     <use xlink:href="#DejaVuSans-Bold-65" x="699.316406"/>
     <use xlink:href="#DejaVuSans-Bold-29" x="767.138672"/>
    </g>
   </g>
  </g>
  <g id="axes_4">
   <g id="patch_17">
    <path d="M 431.917344 186.10075 
L 547.157344 186.10075 
L 547.157344 7.695416 
L 431.917344 7.695416 
z
" style="fill: #faf5e7"/>
   </g>
   <g id="line2d_63">
    <path d="M 431.917344 93.59428 
L 547.157344 93.59428 
" clip-path="url(#pbab4b568fc)" style="fill: none; stroke-dasharray: 3.33,1.44; stroke-dashoffset: 0; stroke: #1a1a1a; stroke-opacity: 0.55; stroke-width: 0.9"/>
   </g>
   <g id="matplotlib.axis_7">
    <g id="xtick_10">
     <g id="line2d_64">
      <path d="M 437.155526 186.10075 
L 437.155526 7.695416 
" clip-path="url(#pbab4b568fc)" style="fill: none; stroke: #1a1a1a; stroke-opacity: 0.22; stroke-width: 0.5; stroke-linecap: square"/>
     </g>
     <g id="line2d_65">
      <g>
       <use xlink:href="#m7430789b8b" x="437.155526" y="186.10075" style="fill: #1a1a1a; stroke: #1a1a1a; stroke-width: 0.8"/>
      </g>
     </g>
     <g id="text_23">
      <!-- 3 -->
      <g style="fill: #1a1a1a" transform="translate(434.292401 199.939343) scale(0.09 -0.09)">
       <use xlink:href="#DejaVuSans-33"/>
      </g>
     </g>
    </g>
    <g id="xtick_11">
     <g id="line2d_66">
      <path d="M 489.537344 186.10075 
L 489.537344 7.695416 
" clip-path="url(#pbab4b568fc)" style="fill: none; stroke: #1a1a1a; stroke-opacity: 0.22; stroke-width: 0.5; stroke-linecap: square"/>
     </g>
     <g id="line2d_67">
      <g>
       <use xlink:href="#m7430789b8b" x="489.537344" y="186.10075" style="fill: #1a1a1a; stroke: #1a1a1a; stroke-width: 0.8"/>
      </g>
     </g>
     <g id="text_24">
      <!-- 4 -->
      <g style="fill: #1a1a1a" transform="translate(486.674219 199.939343) scale(0.09 -0.09)">
       <use xlink:href="#DejaVuSans-34"/>
      </g>
     </g>
    </g>
    <g id="xtick_12">
     <g id="line2d_68">
      <path d="M 541.919162 186.10075 
L 541.919162 7.695416 
" clip-path="url(#pbab4b568fc)" style="fill: none; stroke: #1a1a1a; stroke-opacity: 0.22; stroke-width: 0.5; stroke-linecap: square"/>
     </g>
     <g id="line2d_69">
      <g>
       <use xlink:href="#m7430789b8b" x="541.919162" y="186.10075" style="fill: #1a1a1a; stroke: #1a1a1a; stroke-width: 0.8"/>
      </g>
     </g>
     <g id="text_25">
      <!-- 5 -->
      <g style="fill: #1a1a1a" transform="translate(539.056037 199.939343) scale(0.09 -0.09)">
       <defs>
        <path id="DejaVuSans-35" d="M 691 4666 
L 3169 4666 
L 3169 4134 
L 1269 4134 
L 1269 2991 
Q 1406 3038 1543 3061 
Q 1681 3084 1819 3084 
Q 2600 3084 3056 2656 
Q 3513 2228 3513 1497 
Q 3513 744 3044 326 
Q 2575 -91 1722 -91 
Q 1428 -91 1123 -41 
Q 819 9 494 109 
L 494 744 
Q 775 591 1075 516 
Q 1375 441 1709 441 
Q 2250 441 2565 725 
Q 2881 1009 2881 1497 
Q 2881 1984 2565 2268 
Q 2250 2553 1709 2553 
Q 1456 2553 1204 2497 
Q 953 2441 691 2322 
L 691 4666 
z
" transform="scale(0.015625)"/>
       </defs>
       <use xlink:href="#DejaVuSans-35"/>
      </g>
     </g>
    </g>
    <g id="text_26">
     <!-- forced rank k -->
     <g style="fill: #1a1a1a" transform="translate(461.470742 212.269734) scale(0.085 -0.085)">
      <use xlink:href="#DejaVuSans-66"/>
      <use xlink:href="#DejaVuSans-6f" x="35.205078"/>
      <use xlink:href="#DejaVuSans-72" x="96.386719"/>
      <use xlink:href="#DejaVuSans-63" x="135.25"/>
      <use xlink:href="#DejaVuSans-65" x="190.230469"/>
      <use xlink:href="#DejaVuSans-64" x="251.753906"/>
      <use xlink:href="#DejaVuSans-20" x="315.230469"/>
      <use xlink:href="#DejaVuSans-72" x="347.017578"/>
      <use xlink:href="#DejaVuSans-61" x="388.130859"/>
      <use xlink:href="#DejaVuSans-6e" x="449.410156"/>
      <use xlink:href="#DejaVuSans-6b" x="512.789062"/>
      <use xlink:href="#DejaVuSans-20" x="570.699219"/>
      <use xlink:href="#DejaVuSans-6b" x="602.486328"/>
     </g>
    </g>
   </g>
   <g id="matplotlib.axis_8">
    <g id="ytick_19">
     <g id="line2d_70">
      <path d="M 431.917344 176.189342 
L 547.157344 176.189342 
" clip-path="url(#pbab4b568fc)" style="fill: none; stroke: #1a1a1a; stroke-opacity: 0.22; stroke-width: 0.5; stroke-linecap: square"/>
     </g>
     <g id="line2d_71">
      <g>
       <use xlink:href="#m85c79da39b" x="431.917344" y="176.189342" style="fill: #1a1a1a; stroke: #1a1a1a; stroke-width: 0.8"/>
      </g>
     </g>
    </g>
    <g id="ytick_20">
     <g id="line2d_72">
      <path d="M 431.917344 143.151318 
L 547.157344 143.151318 
" clip-path="url(#pbab4b568fc)" style="fill: none; stroke: #1a1a1a; stroke-opacity: 0.22; stroke-width: 0.5; stroke-linecap: square"/>
     </g>
     <g id="line2d_73">
      <g>
       <use xlink:href="#m85c79da39b" x="431.917344" y="143.151318" style="fill: #1a1a1a; stroke: #1a1a1a; stroke-width: 0.8"/>
      </g>
     </g>
    </g>
    <g id="ytick_21">
     <g id="line2d_74">
      <path d="M 431.917344 110.113293 
L 547.157344 110.113293 
" clip-path="url(#pbab4b568fc)" style="fill: none; stroke: #1a1a1a; stroke-opacity: 0.22; stroke-width: 0.5; stroke-linecap: square"/>
     </g>
     <g id="line2d_75">
      <g>
       <use xlink:href="#m85c79da39b" x="431.917344" y="110.113293" style="fill: #1a1a1a; stroke: #1a1a1a; stroke-width: 0.8"/>
      </g>
     </g>
    </g>
    <g id="ytick_22">
     <g id="line2d_76">
      <path d="M 431.917344 77.075268 
L 547.157344 77.075268 
" clip-path="url(#pbab4b568fc)" style="fill: none; stroke: #1a1a1a; stroke-opacity: 0.22; stroke-width: 0.5; stroke-linecap: square"/>
     </g>
     <g id="line2d_77">
      <g>
       <use xlink:href="#m85c79da39b" x="431.917344" y="77.075268" style="fill: #1a1a1a; stroke: #1a1a1a; stroke-width: 0.8"/>
      </g>
     </g>
    </g>
    <g id="ytick_23">
     <g id="line2d_78">
      <path d="M 431.917344 44.037243 
L 547.157344 44.037243 
" clip-path="url(#pbab4b568fc)" style="fill: none; stroke: #1a1a1a; stroke-opacity: 0.22; stroke-width: 0.5; stroke-linecap: square"/>
     </g>
     <g id="line2d_79">
      <g>
       <use xlink:href="#m85c79da39b" x="431.917344" y="44.037243" style="fill: #1a1a1a; stroke: #1a1a1a; stroke-width: 0.8"/>
      </g>
     </g>
    </g>
    <g id="ytick_24">
     <g id="line2d_80">
      <path d="M 431.917344 10.999219 
L 547.157344 10.999219 
" clip-path="url(#pbab4b568fc)" style="fill: none; stroke: #1a1a1a; stroke-opacity: 0.22; stroke-width: 0.5; stroke-linecap: square"/>
     </g>
     <g id="line2d_81">
      <g>
       <use xlink:href="#m85c79da39b" x="431.917344" y="10.999219" style="fill: #1a1a1a; stroke: #1a1a1a; stroke-width: 0.8"/>
      </g>
     </g>
    </g>
   </g>
   <g id="patch_18">
    <path d="M 431.917344 186.10075 
L 431.917344 7.695416 
" style="fill: none; stroke: #1a1a1a; stroke-linejoin: miter; stroke-linecap: square"/>
   </g>
   <g id="patch_19">
    <path d="M 547.157344 186.10075 
L 547.157344 7.695416 
" style="fill: none; stroke: #1a1a1a; stroke-linejoin: miter; stroke-linecap: square"/>
   </g>
   <g id="patch_20">
    <path d="M 431.917344 186.10075 
L 547.157344 186.10075 
" style="fill: none; stroke: #1a1a1a; stroke-linejoin: miter; stroke-linecap: square"/>
   </g>
   <g id="patch_21">
    <path d="M 431.917344 7.695416 
L 547.157344 7.695416 
" style="fill: none; stroke: #1a1a1a; stroke-linejoin: miter; stroke-linecap: square"/>
   </g>
   <g id="line2d_82">
    <path d="M 437.155526 176.189342 
L 489.537344 77.075268 
L 541.919162 85.334774 
" clip-path="url(#pbab4b568fc)" style="fill: none; stroke: #d55e00; stroke-width: 2; stroke-linecap: square"/>
    <g clip-path="url(#pbab4b568fc)">
     <use xlink:href="#m6c952f3d02" x="437.155526" y="176.189342" style="fill: #d55e00; stroke: #d55e00"/>
     <use xlink:href="#m6c952f3d02" x="489.537344" y="77.075268" style="fill: #d55e00; stroke: #d55e00"/>
     <use xlink:href="#m6c952f3d02" x="541.919162" y="85.334774" style="fill: #d55e00; stroke: #d55e00"/>
    </g>
   </g>
   <g id="text_27">
    <!-- S5 -->
    <g style="fill: #d55e00" transform="translate(438.831744 19.506248) scale(0.085 -0.085)">
     <use xlink:href="#DejaVuSans-Bold-53"/>
     <use xlink:href="#DejaVuSans-Bold-35" x="72.021484"/>
    </g>
    <!-- d_min=4 -->
    <g style="fill: #d55e00" transform="translate(438.831744 29.024389) scale(0.085 -0.085)">
     <use xlink:href="#DejaVuSans-Bold-64"/>
     <use xlink:href="#DejaVuSans-Bold-5f" x="71.582031"/>
     <use xlink:href="#DejaVuSans-Bold-6d" x="121.582031"/>
     <use xlink:href="#DejaVuSans-Bold-69" x="225.78125"/>
     <use xlink:href="#DejaVuSans-Bold-6e" x="260.058594"/>
     <use xlink:href="#DejaVuSans-Bold-3d" x="331.25"/>
     <use xlink:href="#DejaVuSans-Bold-34" x="415.039062"/>
    </g>
    <!-- (non-solvable) -->
    <g style="fill: #d55e00" transform="translate(438.831744 38.778936) scale(0.085 -0.085)">
     <use xlink:href="#DejaVuSans-Bold-28"/>
     <use xlink:href="#DejaVuSans-Bold-6e" x="45.703125"/>
     <use xlink:href="#DejaVuSans-Bold-6f" x="116.894531"/>
     <use xlink:href="#DejaVuSans-Bold-6e" x="185.595703"/>
     <use xlink:href="#DejaVuSans-Bold-2d" x="256.787109"/>
     <use xlink:href="#DejaVuSans-Bold-73" x="298.291016"/>
     <use xlink:href="#DejaVuSans-Bold-6f" x="357.8125"/>
     <use xlink:href="#DejaVuSans-Bold-6c" x="426.513672"/>
     <use xlink:href="#DejaVuSans-Bold-76" x="460.791016"/>
     <use xlink:href="#DejaVuSans-Bold-61" x="525.976562"/>
     <use xlink:href="#DejaVuSans-Bold-62" x="593.457031"/>
     <use xlink:href="#DejaVuSans-Bold-6c" x="665.039062"/>
     <use xlink:href="#DejaVuSans-Bold-65" x="699.316406"/>
     <use xlink:href="#DejaVuSans-Bold-29" x="767.138672"/>
    </g>
   </g>
  </g>
  <g id="axes_5">
   <g id="patch_22">
    <path d="M 561.457344 186.10075 
L 676.697344 186.10075 
L 676.697344 7.695416 
L 561.457344 7.695416 
z
" style="fill: #faf5e7"/>
   </g>
   <g id="line2d_83">
    <path d="M 561.457344 68.815762 
L 676.697344 68.815762 
" clip-path="url(#pa476c99d0b)" style="fill: none; stroke-dasharray: 3.33,1.44; stroke-dashoffset: 0; stroke: #1a1a1a; stroke-opacity: 0.55; stroke-width: 0.9"/>
   </g>
   <g id="matplotlib.axis_9">
    <g id="xtick_13">
     <g id="line2d_84">
      <path d="M 566.695526 186.10075 
L 566.695526 7.695416 
" clip-path="url(#pa476c99d0b)" style="fill: none; stroke: #1a1a1a; stroke-opacity: 0.22; stroke-width: 0.5; stroke-linecap: square"/>
     </g>
     <g id="line2d_85">
      <g>
       <use xlink:href="#m7430789b8b" x="566.695526" y="186.10075" style="fill: #1a1a1a; stroke: #1a1a1a; stroke-width: 0.8"/>
      </g>
     </g>
     <g id="text_28">
      <!-- 4 -->
      <g style="fill: #1a1a1a" transform="translate(563.832401 199.939343) scale(0.09 -0.09)">
       <use xlink:href="#DejaVuSans-34"/>
      </g>
     </g>
    </g>
    <g id="xtick_14">
     <g id="line2d_86">
      <path d="M 619.077344 186.10075 
L 619.077344 7.695416 
" clip-path="url(#pa476c99d0b)" style="fill: none; stroke: #1a1a1a; stroke-opacity: 0.22; stroke-width: 0.5; stroke-linecap: square"/>
     </g>
     <g id="line2d_87">
      <g>
       <use xlink:href="#m7430789b8b" x="619.077344" y="186.10075" style="fill: #1a1a1a; stroke: #1a1a1a; stroke-width: 0.8"/>
      </g>
     </g>
     <g id="text_29">
      <!-- 5 -->
      <g style="fill: #1a1a1a" transform="translate(616.214219 199.939343) scale(0.09 -0.09)">
       <use xlink:href="#DejaVuSans-35"/>
      </g>
     </g>
    </g>
    <g id="xtick_15">
     <g id="line2d_88">
      <path d="M 671.459162 186.10075 
L 671.459162 7.695416 
" clip-path="url(#pa476c99d0b)" style="fill: none; stroke: #1a1a1a; stroke-opacity: 0.22; stroke-width: 0.5; stroke-linecap: square"/>
     </g>
     <g id="line2d_89">
      <g>
       <use xlink:href="#m7430789b8b" x="671.459162" y="186.10075" style="fill: #1a1a1a; stroke: #1a1a1a; stroke-width: 0.8"/>
      </g>
     </g>
     <g id="text_30">
      <!-- 6 -->
      <g style="fill: #1a1a1a" transform="translate(668.596037 199.939343) scale(0.09 -0.09)">
       <use xlink:href="#DejaVuSans-36"/>
      </g>
     </g>
    </g>
    <g id="text_31">
     <!-- forced rank k -->
     <g style="fill: #1a1a1a" transform="translate(591.010742 212.269734) scale(0.085 -0.085)">
      <use xlink:href="#DejaVuSans-66"/>
      <use xlink:href="#DejaVuSans-6f" x="35.205078"/>
      <use xlink:href="#DejaVuSans-72" x="96.386719"/>
      <use xlink:href="#DejaVuSans-63" x="135.25"/>
      <use xlink:href="#DejaVuSans-65" x="190.230469"/>
      <use xlink:href="#DejaVuSans-64" x="251.753906"/>
      <use xlink:href="#DejaVuSans-20" x="315.230469"/>
      <use xlink:href="#DejaVuSans-72" x="347.017578"/>
      <use xlink:href="#DejaVuSans-61" x="388.130859"/>
      <use xlink:href="#DejaVuSans-6e" x="449.410156"/>
      <use xlink:href="#DejaVuSans-6b" x="512.789062"/>
      <use xlink:href="#DejaVuSans-20" x="570.699219"/>
      <use xlink:href="#DejaVuSans-6b" x="602.486328"/>
     </g>
    </g>
   </g>
   <g id="matplotlib.axis_10">
    <g id="ytick_25">
     <g id="line2d_90">
      <path d="M 561.457344 176.189342 
L 676.697344 176.189342 
" clip-path="url(#pa476c99d0b)" style="fill: none; stroke: #1a1a1a; stroke-opacity: 0.22; stroke-width: 0.5; stroke-linecap: square"/>
     </g>
     <g id="line2d_91">
      <g>
       <use xlink:href="#m85c79da39b" x="561.457344" y="176.189342" style="fill: #1a1a1a; stroke: #1a1a1a; stroke-width: 0.8"/>
      </g>
     </g>
    </g>
    <g id="ytick_26">
     <g id="line2d_92">
      <path d="M 561.457344 143.151318 
L 676.697344 143.151318 
" clip-path="url(#pa476c99d0b)" style="fill: none; stroke: #1a1a1a; stroke-opacity: 0.22; stroke-width: 0.5; stroke-linecap: square"/>
     </g>
     <g id="line2d_93">
      <g>
       <use xlink:href="#m85c79da39b" x="561.457344" y="143.151318" style="fill: #1a1a1a; stroke: #1a1a1a; stroke-width: 0.8"/>
      </g>
     </g>
    </g>
    <g id="ytick_27">
     <g id="line2d_94">
      <path d="M 561.457344 110.113293 
L 676.697344 110.113293 
" clip-path="url(#pa476c99d0b)" style="fill: none; stroke: #1a1a1a; stroke-opacity: 0.22; stroke-width: 0.5; stroke-linecap: square"/>
     </g>
     <g id="line2d_95">
      <g>
       <use xlink:href="#m85c79da39b" x="561.457344" y="110.113293" style="fill: #1a1a1a; stroke: #1a1a1a; stroke-width: 0.8"/>
      </g>
     </g>
    </g>
    <g id="ytick_28">
     <g id="line2d_96">
      <path d="M 561.457344 77.075268 
L 676.697344 77.075268 
" clip-path="url(#pa476c99d0b)" style="fill: none; stroke: #1a1a1a; stroke-opacity: 0.22; stroke-width: 0.5; stroke-linecap: square"/>
     </g>
     <g id="line2d_97">
      <g>
       <use xlink:href="#m85c79da39b" x="561.457344" y="77.075268" style="fill: #1a1a1a; stroke: #1a1a1a; stroke-width: 0.8"/>
      </g>
     </g>
    </g>
    <g id="ytick_29">
     <g id="line2d_98">
      <path d="M 561.457344 44.037243 
L 676.697344 44.037243 
" clip-path="url(#pa476c99d0b)" style="fill: none; stroke: #1a1a1a; stroke-opacity: 0.22; stroke-width: 0.5; stroke-linecap: square"/>
     </g>
     <g id="line2d_99">
      <g>
       <use xlink:href="#m85c79da39b" x="561.457344" y="44.037243" style="fill: #1a1a1a; stroke: #1a1a1a; stroke-width: 0.8"/>
      </g>
     </g>
    </g>
    <g id="ytick_30">
     <g id="line2d_100">
      <path d="M 561.457344 10.999219 
L 676.697344 10.999219 
" clip-path="url(#pa476c99d0b)" style="fill: none; stroke: #1a1a1a; stroke-opacity: 0.22; stroke-width: 0.5; stroke-linecap: square"/>
     </g>
     <g id="line2d_101">
      <g>
       <use xlink:href="#m85c79da39b" x="561.457344" y="10.999219" style="fill: #1a1a1a; stroke: #1a1a1a; stroke-width: 0.8"/>
      </g>
     </g>
    </g>
   </g>
   <g id="patch_23">
    <path d="M 561.457344 186.10075 
L 561.457344 7.695416 
" style="fill: none; stroke: #1a1a1a; stroke-linejoin: miter; stroke-linecap: square"/>
   </g>
   <g id="patch_24">
    <path d="M 676.697344 186.10075 
L 676.697344 7.695416 
" style="fill: none; stroke: #1a1a1a; stroke-linejoin: miter; stroke-linecap: square"/>
   </g>
   <g id="patch_25">
    <path d="M 561.457344 186.10075 
L 676.697344 186.10075 
" style="fill: none; stroke: #1a1a1a; stroke-linejoin: miter; stroke-linecap: square"/>
   </g>
   <g id="patch_26">
    <path d="M 561.457344 7.695416 
L 676.697344 7.695416 
" style="fill: none; stroke: #1a1a1a; stroke-linejoin: miter; stroke-linecap: square"/>
   </g>
   <g id="line2d_102">
    <path d="M 566.695526 176.189342 
L 619.077344 68.815762 
L 671.459162 60.556256 
" clip-path="url(#pa476c99d0b)" style="fill: none; stroke: #d55e00; stroke-width: 2; stroke-linecap: square"/>
    <g clip-path="url(#pa476c99d0b)">
     <use xlink:href="#m6c952f3d02" x="566.695526" y="176.189342" style="fill: #d55e00; stroke: #d55e00"/>
     <use xlink:href="#m6c952f3d02" x="619.077344" y="68.815762" style="fill: #d55e00; stroke: #d55e00"/>
     <use xlink:href="#m6c952f3d02" x="671.459162" y="60.556256" style="fill: #d55e00; stroke: #d55e00"/>
    </g>
   </g>
   <g id="text_32">
    <!-- A6 -->
    <g style="fill: #d55e00" transform="translate(568.371744 19.506248) scale(0.085 -0.085)">
     <defs>
      <path id="DejaVuSans-Bold-36" d="M 2316 2303 
Q 2000 2303 1842 2098 
Q 1684 1894 1684 1484 
Q 1684 1075 1842 870 
Q 2000 666 2316 666 
Q 2634 666 2792 870 
Q 2950 1075 2950 1484 
Q 2950 1894 2792 2098 
Q 2634 2303 2316 2303 
z
M 3803 4544 
L 3803 3681 
Q 3506 3822 3243 3889 
Q 2981 3956 2731 3956 
Q 2194 3956 1894 3657 
Q 1594 3359 1544 2772 
Q 1750 2925 1990 3001 
Q 2231 3078 2516 3078 
Q 3231 3078 3670 2659 
Q 4109 2241 4109 1563 
Q 4109 813 3618 361 
Q 3128 -91 2303 -91 
Q 1394 -91 895 523 
Q 397 1138 397 2266 
Q 397 3422 980 4083 
Q 1563 4744 2578 4744 
Q 2900 4744 3203 4694 
Q 3506 4644 3803 4544 
z
" transform="scale(0.015625)"/>
     </defs>
     <use xlink:href="#DejaVuSans-Bold-41"/>
     <use xlink:href="#DejaVuSans-Bold-36" x="77.392578"/>
    </g>
    <!-- d_min=5 -->
    <g style="fill: #d55e00" transform="translate(568.371744 29.024389) scale(0.085 -0.085)">
     <use xlink:href="#DejaVuSans-Bold-64"/>
     <use xlink:href="#DejaVuSans-Bold-5f" x="71.582031"/>
     <use xlink:href="#DejaVuSans-Bold-6d" x="121.582031"/>
     <use xlink:href="#DejaVuSans-Bold-69" x="225.78125"/>
     <use xlink:href="#DejaVuSans-Bold-6e" x="260.058594"/>
     <use xlink:href="#DejaVuSans-Bold-3d" x="331.25"/>
     <use xlink:href="#DejaVuSans-Bold-35" x="415.039062"/>
    </g>
    <!-- (non-solvable) -->
    <g style="fill: #d55e00" transform="translate(568.371744 38.778936) scale(0.085 -0.085)">
     <use xlink:href="#DejaVuSans-Bold-28"/>
     <use xlink:href="#DejaVuSans-Bold-6e" x="45.703125"/>
     <use xlink:href="#DejaVuSans-Bold-6f" x="116.894531"/>
     <use xlink:href="#DejaVuSans-Bold-6e" x="185.595703"/>
     <use xlink:href="#DejaVuSans-Bold-2d" x="256.787109"/>
     <use xlink:href="#DejaVuSans-Bold-73" x="298.291016"/>
     <use xlink:href="#DejaVuSans-Bold-6f" x="357.8125"/>
     <use xlink:href="#DejaVuSans-Bold-6c" x="426.513672"/>
     <use xlink:href="#DejaVuSans-Bold-76" x="460.791016"/>
     <use xlink:href="#DejaVuSans-Bold-61" x="525.976562"/>
     <use xlink:href="#DejaVuSans-Bold-62" x="593.457031"/>
     <use xlink:href="#DejaVuSans-Bold-6c" x="665.039062"/>
     <use xlink:href="#DejaVuSans-Bold-65" x="699.316406"/>
     <use xlink:href="#DejaVuSans-Bold-29" x="767.138672"/>
    </g>
   </g>
  </g>
 </g>
 <defs>
  <clipPath id="p7b25d4572c">
   <rect x="43.297344" y="7.695416" width="115.24" height="178.405333"/>
  </clipPath>
  <clipPath id="p652b632264">
   <rect x="172.837344" y="7.695416" width="115.24" height="178.405333"/>
  </clipPath>
  <clipPath id="pcd4047c4d9">
   <rect x="302.377344" y="7.695416" width="115.24" height="178.405333"/>
  </clipPath>
  <clipPath id="pbab4b568fc">
   <rect x="431.917344" y="7.695416" width="115.24" height="178.405333"/>
  </clipPath>
  <clipPath id="pa476c99d0b">
   <rect x="561.457344" y="7.695416" width="115.24" height="178.405333"/>
  </clipPath>
 </defs>
</svg>
