<?xml version="1.0" encoding="utf-8" standalone="no"?>
<!DOCTYPE svg PUBLIC "-//W3C//DTD SVG 1.1//EN"
  "http://www.w3.org/Graphics/SVG/1.1/DTD/svg11.dtd">
<svg xmlns:xlink="http://www.w3.org/1999/xlink" width="539.692812pt" height="337.773125pt" viewBox="0 0 539.692812 337.773125" xmlns="http://www.w3.org/2000/svg" version="1.1">
 <metadata>
  <rdf:RDF xmlns:dc="http://purl.org/dc/elements/1.1/" xmlns:cc="http://creativecommons.org/ns#" xmlns:rdf="http://www.w3.org/1999/02/22-rdf-syntax-ns#">
   <cc:Work>
    <dc:type rdf:resource="http://purl.org/dc/dcmitype/StillImage"/>
    <dc:date>2026-07-11T21:24:53.010663</dc:date>
    <dc:format>image/svg+xml</dc:format>
    <dc:creator>
     <cc:Agent>
      <dc:title>Matplotlib v3.9.4, https://matplotlib.org/</dc:title>
     </cc:Agent>
    </dc:creator>
   </cc:Work>
  </rdf:RDF>
 </metadata>
 <defs>
  <style type="text/css">*{stroke-linejoin: round; stroke-linecap: butt}</style>
 </defs>
 <g id="figure_1">
  <g id="patch_1">
   <path d="M 0 337.773125 
L 539.692812 337.773125 
L 539.692812 0 
L 0 0 
z
" style="fill: #faf5e7"/>
  </g>
  <g id="axes_1">
   <g id="patch_2">
    <path d="M 47.78125 295.93875 
L 524.54125 295.93875 
L 524.54125 7.2 
L 47.78125 7.2 
z
" style="fill: #faf5e7"/>
   </g>
   <g id="line2d_1">
    <path d="M 253.659702 295.93875 
L 253.659702 7.2 
" clip-path="url(#p57aaca58ae)" style="fill: none; stroke-dasharray: 3.33,1.44; stroke-dashoffset: 0; stroke: #0072b2; stroke-opacity: 0.55; stroke-width: 0.9"/>
   </g>
   <g id="line2d_2">
    <path d="M 332.597529 295.93875 
L 332.597529 7.2 
" clip-path="url(#p57aaca58ae)" style="fill: none; stroke-dasharray: 3.33,1.44; stroke-dashoffset: 0; stroke: #d55e00; stroke-opacity: 0.55; stroke-width: 0.9"/>
   </g>
   <g id="matplotlib.axis_1">
    <g id="xtick_1">
     <g id="line2d_3">
      <path d="M 47.78125 295.93875 
L 47.78125 7.2 
" clip-path="url(#p57aaca58ae)" style="fill: none; stroke: #1a1a1a; stroke-opacity: 0.25; stroke-width: 0.5; stroke-linecap: square"/>
     </g>
     <g id="line2d_4">
      <defs>
       <path id="mb04a75f5ad" d="M 0 0 
L 0 3.5 
" style="stroke: #1a1a1a; stroke-width: 0.8"/>
      </defs>
      <g>
       <use xlink:href="#mb04a75f5ad" x="47.78125" y="295.93875" style="fill: #1a1a1a; stroke: #1a1a1a; stroke-width: 0.8"/>
      </g>
     </g>
     <g id="text_1">
      <!-- 0.2 -->
      <g style="fill: #1a1a1a" transform="translate(39.829688 310.537187) scale(0.1 -0.1)">
       <defs>
        <path id="DejaVuSans-30" d="M 2034 4250 
Q 1547 4250 1301 3770 
Q 1056 3291 1056 2328 
Q 1056 1369 1301 889 
Q 1547 409 2034 409 
Q 2525 409 2770 889 
Q 3016 1369 3016 2328 
Q 3016 3291 2770 3770 
Q 2525 4250 2034 4250 
z
M 2034 4750 
Q 2819 4750 3233 4129 
Q 3647 3509 3647 2328 
Q 3647 1150 3233 529 
Q 2819 -91 2034 -91 
Q 1250 -91 836 529 
Q 422 1150 422 2328 
Q 422 3509 836 4129 
Q 1250 4750 2034 4750 
z
" transform="scale(0.015625)"/>
        <path id="DejaVuSans-2e" d="M 684 794 
L 1344 794 
L 1344 0 
L 684 0 
L 684 794 
z
" transform="scale(0.015625)"/>
        <path id="DejaVuSans-32" d="M 1228 531 
L 3431 531 
L 3431 0 
L 469 0 
L 469 531 
Q 828 903 1448 1529 
Q 2069 2156 2228 2338 
Q 2531 2678 2651 2914 
Q 2772 3150 2772 3378 
Q 2772 3750 2511 3984 
Q 2250 4219 1831 4219 
Q 1534 4219 1204 4116 
Q 875 4013 500 3803 
L 500 4441 
Q 881 4594 1212 4672 
Q 1544 4750 1819 4750 
Q 2544 4750 2975 4387 
Q 3406 4025 3406 3419 
Q 3406 3131 3298 2873 
Q 3191 2616 2906 2266 
Q 2828 2175 2409 1742 
Q 1991 1309 1228 531 
z
" transform="scale(0.015625)"/>
       </defs>
       <use xlink:href="#DejaVuSans-30"/>
       <use xlink:href="#DejaVuSans-2e" x="63.623047"/>
       <use xlink:href="#DejaVuSans-32" x="95.410156"/>
      </g>
     </g>
    </g>
    <g id="xtick_2">
     <g id="line2d_5">
      <path d="M 107.37625 295.93875 
L 107.37625 7.2 
" clip-path="url(#p57aaca58ae)" style="fill: none; stroke: #1a1a1a; stroke-opacity: 0.25; stroke-width: 0.5; stroke-linecap: square"/>
     </g>
     <g id="line2d_6">
      <g>
       <use xlink:href="#mb04a75f5ad" x="107.37625" y="295.93875" style="fill: #1a1a1a; stroke: #1a1a1a; stroke-width: 0.8"/>
      </g>
     </g>
     <g id="text_2">
      <!-- 0.3 -->
      <g style="fill: #1a1a1a" transform="translate(99.424688 310.537187) scale(0.1 -0.1)">
       <defs>
        <path id="DejaVuSans-33" d="M 2597 2516 
Q 3050 2419 3304 2112 
Q 3559 1806 3559 1356 
Q 3559 666 3084 287 
Q 2609 -91 1734 -91 
Q 1441 -91 1130 -33 
Q 819 25 488 141 
L 488 750 
Q 750 597 1062 519 
Q 1375 441 1716 441 
Q 2309 441 2620 675 
Q 2931 909 2931 1356 
Q 2931 1769 2642 2001 
Q 2353 2234 1838 2234 
L 1294 2234 
L 1294 2753 
L 1863 2753 
Q 2328 2753 2575 2939 
Q 2822 3125 2822 3475 
Q 2822 3834 2567 4026 
Q 2313 4219 1838 4219 
Q 1578 4219 1281 4162 
Q 984 4106 628 3988 
L 628 4550 
Q 988 4650 1302 4700 
Q 1616 4750 1894 4750 
Q 2613 4750 3031 4423 
Q 3450 4097 3450 3541 
Q 3450 3153 3228 2886 
Q 3006 2619 2597 2516 
z
" transform="scale(0.015625)"/>
       </defs>
       <use xlink:href="#DejaVuSans-30"/>
       <use xlink:href="#DejaVuSans-2e" x="63.623047"/>
       <use xlink:href="#DejaVuSans-33" x="95.410156"/>
      </g>
     </g>
    </g>
    <g id="xtick_3">
     <g id="line2d_7">
      <path d="M 166.97125 295.93875 
L 166.97125 7.2 
" clip-path="url(#p57aaca58ae)" style="fill: none; stroke: #1a1a1a; stroke-opacity: 0.25; stroke-width: 0.5; stroke-linecap: square"/>
     </g>
     <g id="line2d_8">
      <g>
       <use xlink:href="#mb04a75f5ad" x="166.97125" y="295.93875" style="fill: #1a1a1a; stroke: #1a1a1a; stroke-width: 0.8"/>
      </g>
     </g>
     <g id="text_3">
      <!-- 0.4 -->
      <g style="fill: #1a1a1a" transform="translate(159.019688 310.537187) scale(0.1 -0.1)">
       <defs>
        <path id="DejaVuSans-34" d="M 2419 4116 
L 825 1625 
L 2419 1625 
L 2419 4116 
z
M 2253 4666 
L 3047 4666 
L 3047 1625 
L 3713 1625 
L 3713 1100 
L 3047 1100 
L 3047 0 
L 2419 0 
L 2419 1100 
L 313 1100 
L 313 1709 
L 2253 4666 
z
" transform="scale(0.015625)"/>
       </defs>
       <use xlink:href="#DejaVuSans-30"/>
       <use xlink:href="#DejaVuSans-2e" x="63.623047"/>
       <use xlink:href="#DejaVuSans-34" x="95.410156"/>
      </g>
     </g>
    </g>
    <g id="xtick_4">
     <g id="line2d_9">
      <path d="M 226.56625 295.93875 
L 226.56625 7.2 
" clip-path="url(#p57aaca58ae)" style="fill: none; stroke: #1a1a1a; stroke-opacity: 0.25; stroke-width: 0.5; stroke-linecap: square"/>
     </g>
     <g id="line2d_10">
      <g>
       <use xlink:href="#mb04a75f5ad" x="226.56625" y="295.93875" style="fill: #1a1a1a; stroke: #1a1a1a; stroke-width: 0.8"/>
      </g>
     </g>
     <g id="text_4">
      <!-- 0.5 -->
      <g style="fill: #1a1a1a" transform="translate(218.614687 310.537187) scale(0.1 -0.1)">
       <defs>
        <path id="DejaVuSans-35" d="M 691 4666 
L 3169 4666 
L 3169 4134 
L 1269 4134 
L 1269 2991 
Q 1406 3038 1543 3061 
Q 1681 3084 1819 3084 
Q 2600 3084 3056 2656 
Q 3513 2228 3513 1497 
Q 3513 744 3044 326 
Q 2575 -91 1722 -91 
Q 1428 -91 1123 -41 
Q 819 9 494 109 
L 494 744 
Q 775 591 1075 516 
Q 1375 441 1709 441 
Q 2250 441 2565 725 
Q 2881 1009 2881 1497 
Q 2881 1984 2565 2268 
Q 2250 2553 1709 2553 
Q 1456 2553 1204 2497 
Q 953 2441 691 2322 
L 691 4666 
z
" transform="scale(0.015625)"/>
       </defs>
       <use xlink:href="#DejaVuSans-30"/>
       <use xlink:href="#DejaVuSans-2e" x="63.623047"/>
       <use xlink:href="#DejaVuSans-35" x="95.410156"/>
      </g>
     </g>
    </g>
    <g id="xtick_5">
     <g id="line2d_11">
      <path d="M 286.16125 295.93875 
L 286.16125 7.2 
" clip-path="url(#p57aaca58ae)" style="fill: none; stroke: #1a1a1a; stroke-opacity: 0.25; stroke-width: 0.5; stroke-linecap: square"/>
     </g>
     <g id="line2d_12">
      <g>
       <use xlink:href="#mb04a75f5ad" x="286.16125" y="295.93875" style="fill: #1a1a1a; stroke: #1a1a1a; stroke-width: 0.8"/>
      </g>
     </g>
     <g id="text_5">
      <!-- 0.6 -->
      <g style="fill: #1a1a1a" transform="translate(278.209687 310.537187) scale(0.1 -0.1)">
       <defs>
        <path id="DejaVuSans-36" d="M 2113 2584 
Q 1688 2584 1439 2293 
Q 1191 2003 1191 1497 
Q 1191 994 1439 701 
Q 1688 409 2113 409 
Q 2538 409 2786 701 
Q 3034 994 3034 1497 
Q 3034 2003 2786 2293 
Q 2538 2584 2113 2584 
z
M 3366 4563 
L 3366 3988 
Q 3128 4100 2886 4159 
Q 2644 4219 2406 4219 
Q 1781 4219 1451 3797 
Q 1122 3375 1075 2522 
Q 1259 2794 1537 2939 
Q 1816 3084 2150 3084 
Q 2853 3084 3261 2657 
Q 3669 2231 3669 1497 
Q 3669 778 3244 343 
Q 2819 -91 2113 -91 
Q 1303 -91 875 529 
Q 447 1150 447 2328 
Q 447 3434 972 4092 
Q 1497 4750 2381 4750 
Q 2619 4750 2861 4703 
Q 3103 4656 3366 4563 
z
" transform="scale(0.015625)"/>
       </defs>
       <use xlink:href="#DejaVuSans-30"/>
       <use xlink:href="#DejaVuSans-2e" x="63.623047"/>
       <use xlink:href="#DejaVuSans-36" x="95.410156"/>
      </g>
     </g>
    </g>
    <g id="xtick_6">
     <g id="line2d_13">
      <path d="M 345.75625 295.93875 
L 345.75625 7.2 
" clip-path="url(#p57aaca58ae)" style="fill: none; stroke: #1a1a1a; stroke-opacity: 0.25; stroke-width: 0.5; stroke-linecap: square"/>
     </g>
     <g id="line2d_14">
      <g>
       <use xlink:href="#mb04a75f5ad" x="345.75625" y="295.93875" style="fill: #1a1a1a; stroke: #1a1a1a; stroke-width: 0.8"/>
      </g>
     </g>
     <g id="text_6">
      <!-- 0.7 -->
      <g style="fill: #1a1a1a" transform="translate(337.804687 310.537187) scale(0.1 -0.1)">
       <defs>
        <path id="DejaVuSans-37" d="M 525 4666 
L 3525 4666 
L 3525 4397 
L 1831 0 
L 1172 0 
L 2766 4134 
L 525 4134 
L 525 4666 
z
" transform="scale(0.015625)"/>
       </defs>
       <use xlink:href="#DejaVuSans-30"/>
       <use xlink:href="#DejaVuSans-2e" x="63.623047"/>
       <use xlink:href="#DejaVuSans-37" x="95.410156"/>
      </g>
     </g>
    </g>
    <g id="xtick_7">
     <g id="line2d_15">
      <path d="M 405.35125 295.93875 
L 405.35125 7.2 
" clip-path="url(#p57aaca58ae)" style="fill: none; stroke: #1a1a1a; stroke-opacity: 0.25; stroke-width: 0.5; stroke-linecap: square"/>
     </g>
     <g id="line2d_16">
      <g>
       <use xlink:href="#mb04a75f5ad" x="405.35125" y="295.93875" style="fill: #1a1a1a; stroke: #1a1a1a; stroke-width: 0.8"/>
      </g>
     </g>
     <g id="text_7">
      <!-- 0.8 -->
      <g style="fill: #1a1a1a" transform="translate(397.399687 310.537187) scale(0.1 -0.1)">
       <defs>
        <path id="DejaVuSans-38" d="M 2034 2216 
Q 1584 2216 1326 1975 
Q 1069 1734 1069 1313 
Q 1069 891 1326 650 
Q 1584 409 2034 409 
Q 2484 409 2743 651 
Q 3003 894 3003 1313 
Q 3003 1734 2745 1975 
Q 2488 2216 2034 2216 
z
M 1403 2484 
Q 997 2584 770 2862 
Q 544 3141 544 3541 
Q 544 4100 942 4425 
Q 1341 4750 2034 4750 
Q 2731 4750 3128 4425 
Q 3525 4100 3525 3541 
Q 3525 3141 3298 2862 
Q 3072 2584 2669 2484 
Q 3125 2378 3379 2068 
Q 3634 1759 3634 1313 
Q 3634 634 3220 271 
Q 2806 -91 2034 -91 
Q 1263 -91 848 271 
Q 434 634 434 1313 
Q 434 1759 690 2068 
Q 947 2378 1403 2484 
z
M 1172 3481 
Q 1172 3119 1398 2916 
Q 1625 2713 2034 2713 
Q 2441 2713 2670 2916 
Q 2900 3119 2900 3481 
Q 2900 3844 2670 4047 
Q 2441 4250 2034 4250 
Q 1625 4250 1398 4047 
Q 1172 3844 1172 3481 
z
" transform="scale(0.015625)"/>
       </defs>
       <use xlink:href="#DejaVuSans-30"/>
       <use xlink:href="#DejaVuSans-2e" x="63.623047"/>
       <use xlink:href="#DejaVuSans-38" x="95.410156"/>
      </g>
     </g>
    </g>
    <g id="xtick_8">
     <g id="line2d_17">
      <path d="M 464.94625 295.93875 
L 464.94625 7.2 
" clip-path="url(#p57aaca58ae)" style="fill: none; stroke: #1a1a1a; stroke-opacity: 0.25; stroke-width: 0.5; stroke-linecap: square"/>
     </g>
     <g id="line2d_18">
      <g>
       <use xlink:href="#mb04a75f5ad" x="464.94625" y="295.93875" style="fill: #1a1a1a; stroke: #1a1a1a; stroke-width: 0.8"/>
      </g>
     </g>
     <g id="text_8">
      <!-- 0.9 -->
      <g style="fill: #1a1a1a" transform="translate(456.994687 310.537187) scale(0.1 -0.1)">
       <defs>
        <path id="DejaVuSans-39" d="M 703 97 
L 703 672 
Q 941 559 1184 500 
Q 1428 441 1663 441 
Q 2288 441 2617 861 
Q 2947 1281 2994 2138 
Q 2813 1869 2534 1725 
Q 2256 1581 1919 1581 
Q 1219 1581 811 2004 
Q 403 2428 403 3163 
Q 403 3881 828 4315 
Q 1253 4750 1959 4750 
Q 2769 4750 3195 4129 
Q 3622 3509 3622 2328 
Q 3622 1225 3098 567 
Q 2575 -91 1691 -91 
Q 1453 -91 1209 -44 
Q 966 3 703 97 
z
M 1959 2075 
Q 2384 2075 2632 2365 
Q 2881 2656 2881 3163 
Q 2881 3666 2632 3958 
Q 2384 4250 1959 4250 
Q 1534 4250 1286 3958 
Q 1038 3666 1038 3163 
Q 1038 2656 1286 2365 
Q 1534 2075 1959 2075 
z
" transform="scale(0.015625)"/>
       </defs>
       <use xlink:href="#DejaVuSans-30"/>
       <use xlink:href="#DejaVuSans-2e" x="63.623047"/>
       <use xlink:href="#DejaVuSans-39" x="95.410156"/>
      </g>
     </g>
    </g>
    <g id="xtick_9">
     <g id="line2d_19">
      <path d="M 524.54125 295.93875 
L 524.54125 7.2 
" clip-path="url(#p57aaca58ae)" style="fill: none; stroke: #1a1a1a; stroke-opacity: 0.25; stroke-width: 0.5; stroke-linecap: square"/>
     </g>
     <g id="line2d_20">
      <g>
       <use xlink:href="#mb04a75f5ad" x="524.54125" y="295.93875" style="fill: #1a1a1a; stroke: #1a1a1a; stroke-width: 0.8"/>
      </g>
     </g>
     <g id="text_9">
      <!-- 1.0 -->
      <g style="fill: #1a1a1a" transform="translate(516.589687 310.537187) scale(0.1 -0.1)">
       <defs>
        <path id="DejaVuSans-31" d="M 794 531 
L 1825 531 
L 1825 4091 
L 703 3866 
L 703 4441 
L 1819 4666 
L 2450 4666 
L 2450 531 
L 3481 531 
L 3481 0 
L 794 0 
L 794 531 
z
" transform="scale(0.015625)"/>
       </defs>
       <use xlink:href="#DejaVuSans-31"/>
       <use xlink:href="#DejaVuSans-2e" x="63.623047"/>
       <use xlink:href="#DejaVuSans-30" x="95.410156"/>
      </g>
     </g>
    </g>
    <g id="text_10">
     <!-- K / d_state (bindings per state dimension) -->
     <g style="fill: #1a1a1a" transform="translate(181.306562 328.215312) scale(0.1 -0.1)">
      <defs>
       <path id="DejaVuSans-4b" d="M 628 4666 
L 1259 4666 
L 1259 2694 
L 3353 4666 
L 4166 4666 
L 1850 2491 
L 4331 0 
L 3500 0 
L 1259 2247 
L 1259 0 
L 628 0 
L 628 4666 
z
" transform="scale(0.015625)"/>
       <path id="DejaVuSans-20" transform="scale(0.015625)"/>
       <path id="DejaVuSans-2f" d="M 1625 4666 
L 2156 4666 
L 531 -594 
L 0 -594 
L 1625 4666 
z
" transform="scale(0.015625)"/>
       <path id="DejaVuSans-64" d="M 2906 2969 
L 2906 4863 
L 3481 4863 
L 3481 0 
L 2906 0 
L 2906 525 
Q 2725 213 2448 61 
Q 2172 -91 1784 -91 
Q 1150 -91 751 415 
Q 353 922 353 1747 
Q 353 2572 751 3078 
Q 1150 3584 1784 3584 
Q 2172 3584 2448 3432 
Q 2725 3281 2906 2969 
z
M 947 1747 
Q 947 1113 1208 752 
Q 1469 391 1925 391 
Q 2381 391 2643 752 
Q 2906 1113 2906 1747 
Q 2906 2381 2643 2742 
Q 2381 3103 1925 3103 
Q 1469 3103 1208 2742 
Q 947 2381 947 1747 
z
" transform="scale(0.015625)"/>
       <path id="DejaVuSans-5f" d="M 3263 -1063 
L 3263 -1509 
L -63 -1509 
L -63 -1063 
L 3263 -1063 
z
" transform="scale(0.015625)"/>
       <path id="DejaVuSans-73" d="M 2834 3397 
L 2834 2853 
Q 2591 2978 2328 3040 
Q 2066 3103 1784 3103 
Q 1356 3103 1142 2972 
Q 928 2841 928 2578 
Q 928 2378 1081 2264 
Q 1234 2150 1697 2047 
L 1894 2003 
Q 2506 1872 2764 1633 
Q 3022 1394 3022 966 
Q 3022 478 2636 193 
Q 2250 -91 1575 -91 
Q 1294 -91 989 -36 
Q 684 19 347 128 
L 347 722 
Q 666 556 975 473 
Q 1284 391 1588 391 
Q 1994 391 2212 530 
Q 2431 669 2431 922 
Q 2431 1156 2273 1281 
Q 2116 1406 1581 1522 
L 1381 1569 
Q 847 1681 609 1914 
Q 372 2147 372 2553 
Q 372 3047 722 3315 
Q 1072 3584 1716 3584 
Q 2034 3584 2315 3537 
Q 2597 3491 2834 3397 
z
" transform="scale(0.015625)"/>
       <path id="DejaVuSans-74" d="M 1172 4494 
L 1172 3500 
L 2356 3500 
L 2356 3053 
L 1172 3053 
L 1172 1153 
Q 1172 725 1289 603 
Q 1406 481 1766 481 
L 2356 481 
L 2356 0 
L 1766 0 
Q 1100 0 847 248 
Q 594 497 594 1153 
L 594 3053 
L 172 3053 
L 172 3500 
L 594 3500 
L 594 4494 
L 1172 4494 
z
" transform="scale(0.015625)"/>
       <path id="DejaVuSans-61" d="M 2194 1759 
Q 1497 1759 1228 1600 
Q 959 1441 959 1056 
Q 959 750 1161 570 
Q 1363 391 1709 391 
Q 2188 391 2477 730 
Q 2766 1069 2766 1631 
L 2766 1759 
L 2194 1759 
z
M 3341 1997 
L 3341 0 
L 2766 0 
L 2766 531 
Q 2569 213 2275 61 
Q 1981 -91 1556 -91 
Q 1019 -91 701 211 
Q 384 513 384 1019 
Q 384 1609 779 1909 
Q 1175 2209 1959 2209 
L 2766 2209 
L 2766 2266 
Q 2766 2663 2505 2880 
Q 2244 3097 1772 3097 
Q 1472 3097 1187 3025 
Q 903 2953 641 2809 
L 641 3341 
Q 956 3463 1253 3523 
Q 1550 3584 1831 3584 
Q 2591 3584 2966 3190 
Q 3341 2797 3341 1997 
z
" transform="scale(0.015625)"/>
       <path id="DejaVuSans-65" d="M 3597 1894 
L 3597 1613 
L 953 1613 
Q 991 1019 1311 708 
Q 1631 397 2203 397 
Q 2534 397 2845 478 
Q 3156 559 3463 722 
L 3463 178 
Q 3153 47 2828 -22 
Q 2503 -91 2169 -91 
Q 1331 -91 842 396 
Q 353 884 353 1716 
Q 353 2575 817 3079 
Q 1281 3584 2069 3584 
Q 2775 3584 3186 3129 
Q 3597 2675 3597 1894 
z
M 3022 2063 
Q 3016 2534 2758 2815 
Q 2500 3097 2075 3097 
Q 1594 3097 1305 2825 
Q 1016 2553 972 2059 
L 3022 2063 
z
" transform="scale(0.015625)"/>
       <path id="DejaVuSans-28" d="M 1984 4856 
Q 1566 4138 1362 3434 
Q 1159 2731 1159 2009 
Q 1159 1288 1364 580 
Q 1569 -128 1984 -844 
L 1484 -844 
Q 1016 -109 783 600 
Q 550 1309 550 2009 
Q 550 2706 781 3412 
Q 1013 4119 1484 4856 
L 1984 4856 
z
" transform="scale(0.015625)"/>
       <path id="DejaVuSans-62" d="M 3116 1747 
Q 3116 2381 2855 2742 
Q 2594 3103 2138 3103 
Q 1681 3103 1420 2742 
Q 1159 2381 1159 1747 
Q 1159 1113 1420 752 
Q 1681 391 2138 391 
Q 2594 391 2855 752 
Q 3116 1113 3116 1747 
z
M 1159 2969 
Q 1341 3281 1617 3432 
Q 1894 3584 2278 3584 
Q 2916 3584 3314 3078 
Q 3713 2572 3713 1747 
Q 3713 922 3314 415 
Q 2916 -91 2278 -91 
Q 1894 -91 1617 61 
Q 1341 213 1159 525 
L 1159 0 
L 581 0 
L 581 4863 
L 1159 4863 
L 1159 2969 
z
" transform="scale(0.015625)"/>
       <path id="DejaVuSans-69" d="M 603 3500 
L 1178 3500 
L 1178 0 
L 603 0 
L 603 3500 
z
M 603 4863 
L 1178 4863 
L 1178 4134 
L 603 4134 
L 603 4863 
z
" transform="scale(0.015625)"/>
       <path id="DejaVuSans-6e" d="M 3513 2113 
L 3513 0 
L 2938 0 
L 2938 2094 
Q 2938 2591 2744 2837 
Q 2550 3084 2163 3084 
Q 1697 3084 1428 2787 
Q 1159 2491 1159 1978 
L 1159 0 
L 581 0 
L 581 3500 
L 1159 3500 
L 1159 2956 
Q 1366 3272 1645 3428 
Q 1925 3584 2291 3584 
Q 2894 3584 3203 3211 
Q 3513 2838 3513 2113 
z
" transform="scale(0.015625)"/>
       <path id="DejaVuSans-67" d="M 2906 1791 
Q 2906 2416 2648 2759 
Q 2391 3103 1925 3103 
Q 1463 3103 1205 2759 
Q 947 2416 947 1791 
Q 947 1169 1205 825 
Q 1463 481 1925 481 
Q 2391 481 2648 825 
Q 2906 1169 2906 1791 
z
M 3481 434 
Q 3481 -459 3084 -895 
Q 2688 -1331 1869 -1331 
Q 1566 -1331 1297 -1286 
Q 1028 -1241 775 -1147 
L 775 -588 
Q 1028 -725 1275 -790 
Q 1522 -856 1778 -856 
Q 2344 -856 2625 -561 
Q 2906 -266 2906 331 
L 2906 616 
Q 2728 306 2450 153 
Q 2172 0 1784 0 
Q 1141 0 747 490 
Q 353 981 353 1791 
Q 353 2603 747 3093 
Q 1141 3584 1784 3584 
Q 2172 3584 2450 3431 
Q 2728 3278 2906 2969 
L 2906 3500 
L 3481 3500 
L 3481 434 
z
" transform="scale(0.015625)"/>
       <path id="DejaVuSans-70" d="M 1159 525 
L 1159 -1331 
L 581 -1331 
L 581 3500 
L 1159 3500 
L 1159 2969 
Q 1341 3281 1617 3432 
Q 1894 3584 2278 3584 
Q 2916 3584 3314 3078 
Q 3713 2572 3713 1747 
Q 3713 922 3314 415 
Q 2916 -91 2278 -91 
Q 1894 -91 1617 61 
Q 1341 213 1159 525 
z
M 3116 1747 
Q 3116 2381 2855 2742 
Q 2594 3103 2138 3103 
Q 1681 3103 1420 2742 
Q 1159 2381 1159 1747 
Q 1159 1113 1420 752 
Q 1681 391 2138 391 
Q 2594 391 2855 752 
Q 3116 1113 3116 1747 
z
" transform="scale(0.015625)"/>
       <path id="DejaVuSans-72" d="M 2631 2963 
Q 2534 3019 2420 3045 
Q 2306 3072 2169 3072 
Q 1681 3072 1420 2755 
Q 1159 2438 1159 1844 
L 1159 0 
L 581 0 
L 581 3500 
L 1159 3500 
L 1159 2956 
Q 1341 3275 1631 3429 
Q 1922 3584 2338 3584 
Q 2397 3584 2469 3576 
Q 2541 3569 2628 3553 
L 2631 2963 
z
" transform="scale(0.015625)"/>
       <path id="DejaVuSans-6d" d="M 3328 2828 
Q 3544 3216 3844 3400 
Q 4144 3584 4550 3584 
Q 5097 3584 5394 3201 
Q 5691 2819 5691 2113 
L 5691 0 
L 5113 0 
L 5113 2094 
Q 5113 2597 4934 2840 
Q 4756 3084 4391 3084 
Q 3944 3084 3684 2787 
Q 3425 2491 3425 1978 
L 3425 0 
L 2847 0 
L 2847 2094 
Q 2847 2600 2669 2842 
Q 2491 3084 2119 3084 
Q 1678 3084 1418 2786 
Q 1159 2488 1159 1978 
L 1159 0 
L 581 0 
L 581 3500 
L 1159 3500 
L 1159 2956 
Q 1356 3278 1631 3431 
Q 1906 3584 2284 3584 
Q 2666 3584 2933 3390 
Q 3200 3197 3328 2828 
z
" transform="scale(0.015625)"/>
       <path id="DejaVuSans-6f" d="M 1959 3097 
Q 1497 3097 1228 2736 
Q 959 2375 959 1747 
Q 959 1119 1226 758 
Q 1494 397 1959 397 
Q 2419 397 2687 759 
Q 2956 1122 2956 1747 
Q 2956 2369 2687 2733 
Q 2419 3097 1959 3097 
z
M 1959 3584 
Q 2709 3584 3137 3096 
Q 3566 2609 3566 1747 
Q 3566 888 3137 398 
Q 2709 -91 1959 -91 
Q 1206 -91 779 398 
Q 353 888 353 1747 
Q 353 2609 779 3096 
Q 1206 3584 1959 3584 
z
" transform="scale(0.015625)"/>
       <path id="DejaVuSans-29" d="M 513 4856 
L 1013 4856 
Q 1481 4119 1714 3412 
Q 1947 2706 1947 2009 
Q 1947 1309 1714 600 
Q 1481 -109 1013 -844 
L 513 -844 
Q 928 -128 1133 580 
Q 1338 1288 1338 2009 
Q 1338 2731 1133 3434 
Q 928 4138 513 4856 
z
" transform="scale(0.015625)"/>
      </defs>
      <use xlink:href="#DejaVuSans-4b"/>
      <use xlink:href="#DejaVuSans-20" x="65.576172"/>
      <use xlink:href="#DejaVuSans-2f" x="97.363281"/>
      <use xlink:href="#DejaVuSans-20" x="131.054688"/>
      <use xlink:href="#DejaVuSans-64" x="162.841797"/>
      <use xlink:href="#DejaVuSans-5f" x="226.318359"/>
      <use xlink:href="#DejaVuSans-73" x="276.318359"/>
      <use xlink:href="#DejaVuSans-74" x="328.417969"/>
      <use xlink:href="#DejaVuSans-61" x="367.626953"/>
      <use xlink:href="#DejaVuSans-74" x="428.90625"/>
      <use xlink:href="#DejaVuSans-65" x="468.115234"/>
      <use xlink:href="#DejaVuSans-20" x="529.638672"/>
      <use xlink:href="#DejaVuSans-28" x="561.425781"/>
      <use xlink:href="#DejaVuSans-62" x="600.439453"/>
      <use xlink:href="#DejaVuSans-69" x="663.916016"/>
      <use xlink:href="#DejaVuSans-6e" x="691.699219"/>
      <use xlink:href="#DejaVuSans-64" x="755.078125"/>
      <use xlink:href="#DejaVuSans-69" x="818.554688"/>
      <use xlink:href="#DejaVuSans-6e" x="846.337891"/>
      <use xlink:href="#DejaVuSans-67" x="909.716797"/>
      <use xlink:href="#DejaVuSans-73" x="973.193359"/>
      <use xlink:href="#DejaVuSans-20" x="1025.292969"/>
      <use xlink:href="#DejaVuSans-70" x="1057.080078"/>
      <use xlink:href="#DejaVuSans-65" x="1120.556641"/>
      <use xlink:href="#DejaVuSans-72" x="1182.080078"/>
      <use xlink:href="#DejaVuSans-20" x="1223.193359"/>
      <use xlink:href="#DejaVuSans-73" x="1254.980469"/>
      <use xlink:href="#DejaVuSans-74" x="1307.080078"/>
      <use xlink:href="#DejaVuSans-61" x="1346.289062"/>
      <use xlink:href="#DejaVuSans-74" x="1407.568359"/>
      <use xlink:href="#DejaVuSans-65" x="1446.777344"/>
      <use xlink:href="#DejaVuSans-20" x="1508.300781"/>
      <use xlink:href="#DejaVuSans-64" x="1540.087891"/>
      <use xlink:href="#DejaVuSans-69" x="1603.564453"/>
      <use xlink:href="#DejaVuSans-6d" x="1631.347656"/>
      <use xlink:href="#DejaVuSans-65" x="1728.759766"/>
      <use xlink:href="#DejaVuSans-6e" x="1790.283203"/>
      <use xlink:href="#DejaVuSans-73" x="1853.662109"/>
      <use xlink:href="#DejaVuSans-69" x="1905.761719"/>
      <use xlink:href="#DejaVuSans-6f" x="1933.544922"/>
      <use xlink:href="#DejaVuSans-6e" x="1994.726562"/>
      <use xlink:href="#DejaVuSans-29" x="2058.105469"/>
     </g>
    </g>
   </g>
   <g id="matplotlib.axis_2">
    <g id="ytick_1">
     <g id="line2d_21">
      <path d="M 47.78125 287.991812 
L 524.54125 287.991812 
" clip-path="url(#p57aaca58ae)" style="fill: none; stroke: #1a1a1a; stroke-opacity: 0.25; stroke-width: 0.5; stroke-linecap: square"/>
     </g>
     <g id="line2d_22">
      <defs>
       <path id="mcf62cc060c" d="M 0 0 
L -3.5 0 
" style="stroke: #1a1a1a; stroke-width: 0.8"/>
      </defs>
      <g>
       <use xlink:href="#mcf62cc060c" x="47.78125" y="287.991812" style="fill: #1a1a1a; stroke: #1a1a1a; stroke-width: 0.8"/>
      </g>
     </g>
     <g id="text_11">
      <!-- 0.0 -->
      <g style="fill: #1a1a1a" transform="translate(24.878125 291.791031) scale(0.1 -0.1)">
       <use xlink:href="#DejaVuSans-30"/>
       <use xlink:href="#DejaVuSans-2e" x="63.623047"/>
       <use xlink:href="#DejaVuSans-30" x="95.410156"/>
      </g>
     </g>
    </g>
    <g id="ytick_2">
     <g id="line2d_23">
      <path d="M 47.78125 235.012225 
L 524.54125 235.012225 
" clip-path="url(#p57aaca58ae)" style="fill: none; stroke: #1a1a1a; stroke-opacity: 0.25; stroke-width: 0.5; stroke-linecap: square"/>
     </g>
     <g id="line2d_24">
      <g>
       <use xlink:href="#mcf62cc060c" x="47.78125" y="235.012225" style="fill: #1a1a1a; stroke: #1a1a1a; stroke-width: 0.8"/>
      </g>
     </g>
     <g id="text_12">
      <!-- 0.2 -->
      <g style="fill: #1a1a1a" transform="translate(24.878125 238.811444) scale(0.1 -0.1)">
       <use xlink:href="#DejaVuSans-30"/>
       <use xlink:href="#DejaVuSans-2e" x="63.623047"/>
       <use xlink:href="#DejaVuSans-32" x="95.410156"/>
      </g>
     </g>
    </g>
    <g id="ytick_3">
     <g id="line2d_25">
      <path d="M 47.78125 182.032638 
L 524.54125 182.032638 
" clip-path="url(#p57aaca58ae)" style="fill: none; stroke: #1a1a1a; stroke-opacity: 0.25; stroke-width: 0.5; stroke-linecap: square"/>
     </g>
     <g id="line2d_26">
      <g>
       <use xlink:href="#mcf62cc060c" x="47.78125" y="182.032638" style="fill: #1a1a1a; stroke: #1a1a1a; stroke-width: 0.8"/>
      </g>
     </g>
     <g id="text_13">
      <!-- 0.4 -->
      <g style="fill: #1a1a1a" transform="translate(24.878125 185.831856) scale(0.1 -0.1)">
       <use xlink:href="#DejaVuSans-30"/>
       <use xlink:href="#DejaVuSans-2e" x="63.623047"/>
       <use xlink:href="#DejaVuSans-34" x="95.410156"/>
      </g>
     </g>
    </g>
    <g id="ytick_4">
     <g id="line2d_27">
      <path d="M 47.78125 129.05305 
L 524.54125 129.05305 
" clip-path="url(#p57aaca58ae)" style="fill: none; stroke: #1a1a1a; stroke-opacity: 0.25; stroke-width: 0.5; stroke-linecap: square"/>
     </g>
     <g id="line2d_28">
      <g>
       <use xlink:href="#mcf62cc060c" x="47.78125" y="129.05305" style="fill: #1a1a1a; stroke: #1a1a1a; stroke-width: 0.8"/>
      </g>
     </g>
     <g id="text_14">
      <!-- 0.6 -->
      <g style="fill: #1a1a1a" transform="translate(24.878125 132.852269) scale(0.1 -0.1)">
       <use xlink:href="#DejaVuSans-30"/>
       <use xlink:href="#DejaVuSans-2e" x="63.623047"/>
       <use xlink:href="#DejaVuSans-36" x="95.410156"/>
      </g>
     </g>
    </g>
    <g id="ytick_5">
     <g id="line2d_29">
      <path d="M 47.78125 76.073463 
L 524.54125 76.073463 
" clip-path="url(#p57aaca58ae)" style="fill: none; stroke: #1a1a1a; stroke-opacity: 0.25; stroke-width: 0.5; stroke-linecap: square"/>
     </g>
     <g id="line2d_30">
      <g>
       <use xlink:href="#mcf62cc060c" x="47.78125" y="76.073463" style="fill: #1a1a1a; stroke: #1a1a1a; stroke-width: 0.8"/>
      </g>
     </g>
     <g id="text_15">
      <!-- 0.8 -->
      <g style="fill: #1a1a1a" transform="translate(24.878125 79.872682) scale(0.1 -0.1)">
       <use xlink:href="#DejaVuSans-30"/>
       <use xlink:href="#DejaVuSans-2e" x="63.623047"/>
       <use xlink:href="#DejaVuSans-38" x="95.410156"/>
      </g>
     </g>
    </g>
    <g id="ytick_6">
     <g id="line2d_31">
      <path d="M 47.78125 23.093876 
L 524.54125 23.093876 
" clip-path="url(#p57aaca58ae)" style="fill: none; stroke: #1a1a1a; stroke-opacity: 0.25; stroke-width: 0.5; stroke-linecap: square"/>
     </g>
     <g id="line2d_32">
      <g>
       <use xlink:href="#mcf62cc060c" x="47.78125" y="23.093876" style="fill: #1a1a1a; stroke: #1a1a1a; stroke-width: 0.8"/>
      </g>
     </g>
     <g id="text_16">
      <!-- 1.0 -->
      <g style="fill: #1a1a1a" transform="translate(24.878125 26.893095) scale(0.1 -0.1)">
       <use xlink:href="#DejaVuSans-31"/>
       <use xlink:href="#DejaVuSans-2e" x="63.623047"/>
       <use xlink:href="#DejaVuSans-30" x="95.410156"/>
      </g>
     </g>
    </g>
    <g id="text_17">
     <!-- held-out 4-hop recall (rec@0.9), per seed -->
     <g style="fill: #1a1a1a" transform="translate(14.798438 254.856875) rotate(-90) scale(0.1 -0.1)">
      <defs>
       <path id="DejaVuSans-68" d="M 3513 2113 
L 3513 0 
L 2938 0 
L 2938 2094 
Q 2938 2591 2744 2837 
Q 2550 3084 2163 3084 
Q 1697 3084 1428 2787 
Q 1159 2491 1159 1978 
L 1159 0 
L 581 0 
L 581 4863 
L 1159 4863 
L 1159 2956 
Q 1366 3272 1645 3428 
Q 1925 3584 2291 3584 
Q 2894 3584 3203 3211 
Q 3513 2838 3513 2113 
z
" transform="scale(0.015625)"/>
       <path id="DejaVuSans-6c" d="M 603 4863 
L 1178 4863 
L 1178 0 
L 603 0 
L 603 4863 
z
" transform="scale(0.015625)"/>
       <path id="DejaVuSans-2d" d="M 313 2009 
L 1997 2009 
L 1997 1497 
L 313 1497 
L 313 2009 
z
" transform="scale(0.015625)"/>
       <path id="DejaVuSans-75" d="M 544 1381 
L 544 3500 
L 1119 3500 
L 1119 1403 
Q 1119 906 1312 657 
Q 1506 409 1894 409 
Q 2359 409 2629 706 
Q 2900 1003 2900 1516 
L 2900 3500 
L 3475 3500 
L 3475 0 
L 2900 0 
L 2900 538 
Q 2691 219 2414 64 
Q 2138 -91 1772 -91 
Q 1169 -91 856 284 
Q 544 659 544 1381 
z
M 1991 3584 
L 1991 3584 
z
" transform="scale(0.015625)"/>
       <path id="DejaVuSans-63" d="M 3122 3366 
L 3122 2828 
Q 2878 2963 2633 3030 
Q 2388 3097 2138 3097 
Q 1578 3097 1268 2742 
Q 959 2388 959 1747 
Q 959 1106 1268 751 
Q 1578 397 2138 397 
Q 2388 397 2633 464 
Q 2878 531 3122 666 
L 3122 134 
Q 2881 22 2623 -34 
Q 2366 -91 2075 -91 
Q 1284 -91 818 406 
Q 353 903 353 1747 
Q 353 2603 823 3093 
Q 1294 3584 2113 3584 
Q 2378 3584 2631 3529 
Q 2884 3475 3122 3366 
z
" transform="scale(0.015625)"/>
       <path id="DejaVuSans-40" d="M 2381 1678 
Q 2381 1231 2603 976 
Q 2825 722 3213 722 
Q 3597 722 3817 978 
Q 4038 1234 4038 1678 
Q 4038 2116 3813 2373 
Q 3588 2631 3206 2631 
Q 2828 2631 2604 2375 
Q 2381 2119 2381 1678 
z
M 4084 744 
Q 3897 503 3655 389 
Q 3413 275 3091 275 
Q 2553 275 2217 664 
Q 1881 1053 1881 1678 
Q 1881 2303 2218 2693 
Q 2556 3084 3091 3084 
Q 3413 3084 3656 2967 
Q 3900 2850 4084 2613 
L 4084 3022 
L 4531 3022 
L 4531 722 
Q 4988 791 5245 1139 
Q 5503 1488 5503 2041 
Q 5503 2375 5404 2669 
Q 5306 2963 5106 3213 
Q 4781 3622 4314 3839 
Q 3847 4056 3297 4056 
Q 2913 4056 2559 3954 
Q 2206 3853 1906 3653 
Q 1416 3334 1139 2817 
Q 863 2300 863 1697 
Q 863 1200 1042 765 
Q 1222 331 1563 0 
Q 1891 -325 2322 -495 
Q 2753 -666 3244 -666 
Q 3647 -666 4036 -530 
Q 4425 -394 4750 -141 
L 5031 -488 
Q 4641 -791 4180 -952 
Q 3719 -1113 3244 -1113 
Q 2666 -1113 2153 -908 
Q 1641 -703 1241 -313 
Q 841 78 631 592 
Q 422 1106 422 1697 
Q 422 2266 634 2781 
Q 847 3297 1241 3688 
Q 1644 4084 2172 4295 
Q 2700 4506 3291 4506 
Q 3953 4506 4520 4234 
Q 5088 3963 5472 3463 
Q 5706 3156 5829 2797 
Q 5953 2438 5953 2053 
Q 5953 1231 5456 756 
Q 4959 281 4084 263 
L 4084 744 
z
" transform="scale(0.015625)"/>
       <path id="DejaVuSans-2c" d="M 750 794 
L 1409 794 
L 1409 256 
L 897 -744 
L 494 -744 
L 750 256 
L 750 794 
z
" transform="scale(0.015625)"/>
      </defs>
      <use xlink:href="#DejaVuSans-68"/>
      <use xlink:href="#DejaVuSans-65" x="63.378906"/>
      <use xlink:href="#DejaVuSans-6c" x="124.902344"/>
      <use xlink:href="#DejaVuSans-64" x="152.685547"/>
      <use xlink:href="#DejaVuSans-2d" x="216.162109"/>
      <use xlink:href="#DejaVuSans-6f" x="254.121094"/>
      <use xlink:href="#DejaVuSans-75" x="315.302734"/>
      <use xlink:href="#DejaVuSans-74" x="378.681641"/>
      <use xlink:href="#DejaVuSans-20" x="417.890625"/>
      <use xlink:href="#DejaVuSans-34" x="449.677734"/>
      <use xlink:href="#DejaVuSans-2d" x="513.300781"/>
      <use xlink:href="#DejaVuSans-68" x="549.384766"/>
      <use xlink:href="#DejaVuSans-6f" x="612.763672"/>
      <use xlink:href="#DejaVuSans-70" x="673.945312"/>
      <use xlink:href="#DejaVuSans-20" x="737.421875"/>
      <use xlink:href="#DejaVuSans-72" x="769.208984"/>
      <use xlink:href="#DejaVuSans-65" x="808.072266"/>
      <use xlink:href="#DejaVuSans-63" x="869.595703"/>
      <use xlink:href="#DejaVuSans-61" x="924.576172"/>
      <use xlink:href="#DejaVuSans-6c" x="985.855469"/>
      <use xlink:href="#DejaVuSans-6c" x="1013.638672"/>
      <use xlink:href="#DejaVuSans-20" x="1041.421875"/>
      <use xlink:href="#DejaVuSans-28" x="1073.208984"/>
      <use xlink:href="#DejaVuSans-72" x="1112.222656"/>
      <use xlink:href="#DejaVuSans-65" x="1151.085938"/>
      <use xlink:href="#DejaVuSans-63" x="1212.609375"/>
      <use xlink:href="#DejaVuSans-40" x="1267.589844"/>
      <use xlink:href="#DejaVuSans-30" x="1367.589844"/>
      <use xlink:href="#DejaVuSans-2e" x="1431.212891"/>
      <use xlink:href="#DejaVuSans-39" x="1463"/>
      <use xlink:href="#DejaVuSans-29" x="1526.623047"/>
      <use xlink:href="#DejaVuSans-2c" x="1565.636719"/>
      <use xlink:href="#DejaVuSans-20" x="1597.423828"/>
      <use xlink:href="#DejaVuSans-70" x="1629.210938"/>
      <use xlink:href="#DejaVuSans-65" x="1692.6875"/>
      <use xlink:href="#DejaVuSans-72" x="1754.210938"/>
      <use xlink:href="#DejaVuSans-20" x="1795.324219"/>
      <use xlink:href="#DejaVuSans-73" x="1827.111328"/>
      <use xlink:href="#DejaVuSans-65" x="1879.210938"/>
      <use xlink:href="#DejaVuSans-65" x="1940.734375"/>
      <use xlink:href="#DejaVuSans-64" x="2002.257812"/>
     </g>
    </g>
   </g>
   <g id="line2d_33">
    <path d="M 47.78125 23.109479 
L 64.509671 23.594138 
L 78.848318 24.2328 
L 90.79719 24.997315 
L 100.356288 25.818506 
L 108.720498 26.736204 
L 117.084709 27.888055 
L 124.254032 29.104445 
L 130.228468 30.311849 
L 136.202904 31.725654 
L 142.17734 33.378174 
L 146.956889 34.896297 
L 151.736438 36.610739 
L 156.515987 38.543525 
L 161.295536 40.718198 
L 166.075085 43.159643 
L 170.854633 45.893812 
L 175.634182 48.947332 
L 180.413731 52.346967 
L 183.998393 55.13965 
L 187.583055 58.152393 
L 191.167716 61.39511 
L 194.752378 64.876776 
L 198.337039 68.605133 
L 201.921701 72.58638 
L 205.506363 76.824845 
L 210.285912 82.879572 
L 215.065461 89.39301 
L 219.845009 96.353905 
L 224.624558 103.740823 
L 229.404107 111.52152 
L 235.378543 121.734308 
L 241.352979 132.386831 
L 249.71719 147.789367 
L 266.445611 178.771209 
L 272.420047 189.392972 
L 278.394483 199.56552 
L 283.174032 207.308506 
L 287.953581 214.653985 
L 292.73313 221.570811 
L 297.512679 228.038606 
L 302.292227 234.047088 
L 307.071776 239.595053 
L 310.656438 243.457537 
L 314.2411 247.069815 
L 317.825761 250.438843 
L 321.410423 253.572979 
L 324.995085 256.48167 
L 329.774633 260.027057 
L 334.554182 263.215735 
L 339.333731 266.074346 
L 344.11328 268.629644 
L 348.892829 270.907905 
L 353.672378 272.934479 
L 358.451927 274.733472 
L 363.231476 276.327531 
L 369.205912 278.063851 
L 375.180348 279.550294 
L 381.154784 280.820424 
L 388.324107 282.100648 
L 395.49343 283.156604 
L 403.857641 284.155305 
L 413.416739 285.049515 
L 424.170724 285.810981 
L 436.119596 286.429643 
L 450.458242 286.945934 
L 468.381551 287.358978 
L 492.279295 287.66824 
L 524.54125 287.861098 
L 524.54125 287.861098 
" clip-path="url(#p57aaca58ae)" style="fill: none; stroke: #0072b2; stroke-opacity: 0.85; stroke-width: 1.6; stroke-linecap: square"/>
   </g>
   <g id="line2d_34">
    <path d="M 47.78125 23.275104 
L 119.474483 23.413592 
L 148.151776 23.674284 
L 167.269972 24.065782 
L 181.608618 24.587473 
L 192.362603 25.189511 
L 201.921701 25.94861 
L 210.285912 26.851224 
L 217.455235 27.858623 
L 223.429671 28.90644 
L 229.404107 30.186797 
L 234.183656 31.410773 
L 238.963205 32.843076 
L 243.742754 34.516119 
L 248.522303 36.466216 
L 252.106964 38.134677 
L 255.691626 39.999946 
L 259.276288 42.081543 
L 262.860949 44.399963 
L 266.445611 46.976465 
L 270.030273 49.832772 
L 273.614934 52.990687 
L 277.199596 56.471595 
L 280.784258 60.295861 
L 284.368919 64.482116 
L 287.953581 69.04644 
L 291.538242 74.00145 
L 295.122904 79.355337 
L 298.707566 85.110882 
L 302.292227 91.264507 
L 305.876889 97.805437 
L 310.656438 107.095744 
L 315.435987 116.973399 
L 320.215536 127.345254 
L 326.189972 140.824791 
L 346.503055 187.262561 
L 351.282603 197.48852 
L 356.062152 207.187844 
L 360.841701 216.275564 
L 364.426363 222.653692 
L 368.011024 228.63901 
L 371.595686 234.223891 
L 375.180348 239.407574 
L 378.765009 244.195256 
L 382.349671 248.597132 
L 385.934333 252.627404 
L 389.518994 256.303343 
L 393.103656 259.644411 
L 396.688318 262.671489 
L 400.272979 265.406206 
L 403.857641 267.870384 
L 407.442303 270.085592 
L 411.026964 272.072794 
L 414.611626 273.852094 
L 419.391175 275.933863 
L 424.170724 277.721698 
L 428.950273 279.253617 
L 433.729821 280.563702 
L 439.704258 281.935105 
L 445.678694 283.058169 
L 452.848017 284.138541 
L 460.01734 284.985071 
L 468.381551 285.742649 
L 477.940648 286.379118 
L 489.889521 286.928752 
L 504.228167 287.347693 
L 523.346363 287.661867 
L 524.54125 287.675385 
L 524.54125 287.675385 
" clip-path="url(#p57aaca58ae)" style="fill: none; stroke: #d55e00; stroke-opacity: 0.85; stroke-width: 1.6; stroke-linecap: square"/>
   </g>
   <g id="patch_3">
    <path d="M 47.78125 295.93875 
L 47.78125 7.2 
" style="fill: none; stroke: #1a1a1a; stroke-linejoin: miter; stroke-linecap: square"/>
   </g>
   <g id="patch_4">
    <path d="M 524.54125 295.93875 
L 524.54125 7.2 
" style="fill: none; stroke: #1a1a1a; stroke-linejoin: miter; stroke-linecap: square"/>
   </g>
   <g id="patch_5">
    <path d="M 47.78125 295.93875 
L 524.54125 295.93875 
" style="fill: none; stroke: #1a1a1a; stroke-linejoin: miter; stroke-linecap: square"/>
   </g>
   <g id="patch_6">
    <path d="M 47.78125 7.2 
L 524.54125 7.2 
" style="fill: none; stroke: #1a1a1a; stroke-linejoin: miter; stroke-linecap: square"/>
   </g>
   <g id="PathCollection_1">
    <defs>
     <path id="m04b4945b66" d="M 0 2.54951 
C 0.676138 2.54951 1.324674 2.280877 1.802776 1.802776 
C 2.280877 1.324674 2.54951 0.676138 2.54951 0 
C 2.54951 -0.676138 2.280877 -1.324674 1.802776 -1.802776 
C 1.324674 -2.280877 0.676138 -2.54951 0 -2.54951 
C -0.676138 -2.54951 -1.324674 -2.280877 -1.802776 -1.802776 
C -2.280877 -1.324674 -2.54951 -0.676138 -2.54951 0 
C -2.54951 0.676138 -2.280877 1.324674 -1.802776 1.802776 
C -1.324674 2.280877 -0.676138 2.54951 0 2.54951 
z
" style="stroke: #1a1a1a; stroke-opacity: 0.55; stroke-width: 0.4"/>
    </defs>
    <g clip-path="url(#p57aaca58ae)">
     <use xlink:href="#m04b4945b66" x="245.794157" y="153.747239" style="fill: #0072b2; fill-opacity: 0.55; stroke: #1a1a1a; stroke-opacity: 0.55; stroke-width: 0.4"/>
     <use xlink:href="#m04b4945b66" x="245.531969" y="128.547839" style="fill: #0072b2; fill-opacity: 0.55; stroke: #1a1a1a; stroke-opacity: 0.55; stroke-width: 0.4"/>
     <use xlink:href="#m04b4945b66" x="244.813599" y="130.617354" style="fill: #0072b2; fill-opacity: 0.55; stroke: #1a1a1a; stroke-opacity: 0.55; stroke-width: 0.4"/>
     <use xlink:href="#m04b4945b66" x="282.378768" y="199.77873" style="fill: #0072b2; fill-opacity: 0.55; stroke: #1a1a1a; stroke-opacity: 0.55; stroke-width: 0.4"/>
     <use xlink:href="#m04b4945b66" x="281.672913" y="197.954286" style="fill: #0072b2; fill-opacity: 0.55; stroke: #1a1a1a; stroke-opacity: 0.55; stroke-width: 0.4"/>
     <use xlink:href="#m04b4945b66" x="282.381039" y="202.719616" style="fill: #0072b2; fill-opacity: 0.55; stroke: #1a1a1a; stroke-opacity: 0.55; stroke-width: 0.4"/>
     <use xlink:href="#m04b4945b66" x="321.150868" y="258.981644" style="fill: #0072b2; fill-opacity: 0.55; stroke: #1a1a1a; stroke-opacity: 0.55; stroke-width: 0.4"/>
     <use xlink:href="#m04b4945b66" x="320.102092" y="255.988238" style="fill: #0072b2; fill-opacity: 0.55; stroke: #1a1a1a; stroke-opacity: 0.55; stroke-width: 0.4"/>
     <use xlink:href="#m04b4945b66" x="321.342804" y="255.495497" style="fill: #0072b2; fill-opacity: 0.55; stroke: #1a1a1a; stroke-opacity: 0.55; stroke-width: 0.4"/>
     <use xlink:href="#m04b4945b66" x="355.817154" y="276.47451" style="fill: #0072b2; fill-opacity: 0.55; stroke: #1a1a1a; stroke-opacity: 0.55; stroke-width: 0.4"/>
     <use xlink:href="#m04b4945b66" x="356.478248" y="276.665716" style="fill: #0072b2; fill-opacity: 0.55; stroke: #1a1a1a; stroke-opacity: 0.55; stroke-width: 0.4"/>
     <use xlink:href="#m04b4945b66" x="358.4268" y="276.3058" style="fill: #0072b2; fill-opacity: 0.55; stroke: #1a1a1a; stroke-opacity: 0.55; stroke-width: 0.4"/>
     <use xlink:href="#m04b4945b66" x="78.661907" y="23.158548" style="fill: #0072b2; fill-opacity: 0.55; stroke: #1a1a1a; stroke-opacity: 0.55; stroke-width: 0.4"/>
     <use xlink:href="#m04b4945b66" x="227.19436" y="109.43146" style="fill: #0072b2; fill-opacity: 0.55; stroke: #1a1a1a; stroke-opacity: 0.55; stroke-width: 0.4"/>
     <use xlink:href="#m04b4945b66" x="227.065783" y="99.245565" style="fill: #0072b2; fill-opacity: 0.55; stroke: #1a1a1a; stroke-opacity: 0.55; stroke-width: 0.4"/>
     <use xlink:href="#m04b4945b66" x="228.325881" y="125.32469" style="fill: #0072b2; fill-opacity: 0.55; stroke: #1a1a1a; stroke-opacity: 0.55; stroke-width: 0.4"/>
     <use xlink:href="#m04b4945b66" x="376.2139" y="281.912611" style="fill: #0072b2; fill-opacity: 0.55; stroke: #1a1a1a; stroke-opacity: 0.55; stroke-width: 0.4"/>
     <use xlink:href="#m04b4945b66" x="375.27522" y="281.934168" style="fill: #0072b2; fill-opacity: 0.55; stroke: #1a1a1a; stroke-opacity: 0.55; stroke-width: 0.4"/>
     <use xlink:href="#m04b4945b66" x="376.443317" y="283.033598" style="fill: #0072b2; fill-opacity: 0.55; stroke: #1a1a1a; stroke-opacity: 0.55; stroke-width: 0.4"/>
    </g>
   </g>
   <g id="PathCollection_2">
    <defs>
     <path id="m383d287463" d="M -2.54951 2.54951 
L 2.54951 2.54951 
L 2.54951 -2.54951 
L -2.54951 -2.54951 
z
" style="stroke: #1a1a1a; stroke-opacity: 0.55; stroke-width: 0.4"/>
    </defs>
    <g clip-path="url(#p57aaca58ae)">
     <use xlink:href="#m383d287463" x="285.233539" y="56.682934" style="fill: #d55e00; fill-opacity: 0.55; stroke: #1a1a1a; stroke-opacity: 0.55; stroke-width: 0.4"/>
     <use xlink:href="#m383d287463" x="284.603216" y="114.271746" style="fill: #d55e00; fill-opacity: 0.55; stroke: #1a1a1a; stroke-opacity: 0.55; stroke-width: 0.4"/>
     <use xlink:href="#m383d287463" x="286.137574" y="56.444526" style="fill: #d55e00; fill-opacity: 0.55; stroke: #1a1a1a; stroke-opacity: 0.55; stroke-width: 0.4"/>
     <use xlink:href="#m383d287463" x="286.352126" y="48.100241" style="fill: #d55e00; fill-opacity: 0.55; stroke: #1a1a1a; stroke-opacity: 0.55; stroke-width: 0.4"/>
     <use xlink:href="#m383d287463" x="286.633156" y="43.967833" style="fill: #d55e00; fill-opacity: 0.55; stroke: #1a1a1a; stroke-opacity: 0.55; stroke-width: 0.4"/>
     <use xlink:href="#m383d287463" x="324.509171" y="133.609295" style="fill: #d55e00; fill-opacity: 0.55; stroke: #1a1a1a; stroke-opacity: 0.55; stroke-width: 0.4"/>
     <use xlink:href="#m383d287463" x="325.055938" y="161.714966" style="fill: #d55e00; fill-opacity: 0.55; stroke: #1a1a1a; stroke-opacity: 0.55; stroke-width: 0.4"/>
     <use xlink:href="#m383d287463" x="324.22709" y="114.589623" style="fill: #d55e00; fill-opacity: 0.55; stroke: #1a1a1a; stroke-opacity: 0.55; stroke-width: 0.4"/>
     <use xlink:href="#m383d287463" x="323.078134" y="121.794847" style="fill: #d55e00; fill-opacity: 0.55; stroke: #1a1a1a; stroke-opacity: 0.55; stroke-width: 0.4"/>
     <use xlink:href="#m383d287463" x="324.254275" y="151.595865" style="fill: #d55e00; fill-opacity: 0.55; stroke: #1a1a1a; stroke-opacity: 0.55; stroke-width: 0.4"/>
     <use xlink:href="#m383d287463" x="75.938726" y="23.093876" style="fill: #d55e00; fill-opacity: 0.55; stroke: #1a1a1a; stroke-opacity: 0.55; stroke-width: 0.4"/>
     <use xlink:href="#m383d287463" x="77.657867" y="23.093876" style="fill: #d55e00; fill-opacity: 0.55; stroke: #1a1a1a; stroke-opacity: 0.55; stroke-width: 0.4"/>
     <use xlink:href="#m383d287463" x="78.494387" y="23.093876" style="fill: #d55e00; fill-opacity: 0.55; stroke: #1a1a1a; stroke-opacity: 0.55; stroke-width: 0.4"/>
     <use xlink:href="#m383d287463" x="248.652586" y="31.612579" style="fill: #d55e00; fill-opacity: 0.55; stroke: #1a1a1a; stroke-opacity: 0.55; stroke-width: 0.4"/>
     <use xlink:href="#m383d287463" x="250.062672" y="24.766342" style="fill: #d55e00; fill-opacity: 0.55; stroke: #1a1a1a; stroke-opacity: 0.55; stroke-width: 0.4"/>
     <use xlink:href="#m383d287463" x="248.1222" y="58.612526" style="fill: #d55e00; fill-opacity: 0.55; stroke: #1a1a1a; stroke-opacity: 0.55; stroke-width: 0.4"/>
     <use xlink:href="#m383d287463" x="361.129776" y="231.231793" style="fill: #d55e00; fill-opacity: 0.55; stroke: #1a1a1a; stroke-opacity: 0.55; stroke-width: 0.4"/>
     <use xlink:href="#m383d287463" x="359.466469" y="208.190595" style="fill: #d55e00; fill-opacity: 0.55; stroke: #1a1a1a; stroke-opacity: 0.55; stroke-width: 0.4"/>
     <use xlink:href="#m383d287463" x="361.940127" y="204.97928" style="fill: #d55e00; fill-opacity: 0.55; stroke: #1a1a1a; stroke-opacity: 0.55; stroke-width: 0.4"/>
    </g>
   </g>
   <g id="PathCollection_3">
    <defs>
     <path id="m2b8613f3f9" d="M 0 -2.54951 
L -2.54951 2.54951 
L 2.54951 2.54951 
z
" style="stroke: #1a1a1a; stroke-opacity: 0.55; stroke-width: 0.4"/>
    </defs>
    <g clip-path="url(#p57aaca58ae)">
     <use xlink:href="#m2b8613f3f9" x="355.66111" y="25.266039" style="fill: #009e73; fill-opacity: 0.55; stroke: #1a1a1a; stroke-opacity: 0.55; stroke-width: 0.4"/>
     <use xlink:href="#m2b8613f3f9" x="357.780643" y="23.464733" style="fill: #009e73; fill-opacity: 0.55; stroke: #1a1a1a; stroke-opacity: 0.55; stroke-width: 0.4"/>
     <use xlink:href="#m2b8613f3f9" x="356.810757" y="33.318936" style="fill: #009e73; fill-opacity: 0.55; stroke: #1a1a1a; stroke-opacity: 0.55; stroke-width: 0.4"/>
     <use xlink:href="#m2b8613f3f9" x="373.89575" y="41.133426" style="fill: #009e73; fill-opacity: 0.55; stroke: #1a1a1a; stroke-opacity: 0.55; stroke-width: 0.4"/>
     <use xlink:href="#m2b8613f3f9" x="374.877982" y="64.788811" style="fill: #009e73; fill-opacity: 0.55; stroke: #1a1a1a; stroke-opacity: 0.55; stroke-width: 0.4"/>
     <use xlink:href="#m2b8613f3f9" x="376.314386" y="25.636896" style="fill: #009e73; fill-opacity: 0.55; stroke: #1a1a1a; stroke-opacity: 0.55; stroke-width: 0.4"/>
     <use xlink:href="#m2b8613f3f9" x="412.843557" y="58.404771" style="fill: #009e73; fill-opacity: 0.55; stroke: #1a1a1a; stroke-opacity: 0.55; stroke-width: 0.4"/>
     <use xlink:href="#m2b8613f3f9" x="413.725661" y="27.78257" style="fill: #009e73; fill-opacity: 0.55; stroke: #1a1a1a; stroke-opacity: 0.55; stroke-width: 0.4"/>
     <use xlink:href="#m2b8613f3f9" x="413.933917" y="36.65665" style="fill: #009e73; fill-opacity: 0.55; stroke: #1a1a1a; stroke-opacity: 0.55; stroke-width: 0.4"/>
     <use xlink:href="#m2b8613f3f9" x="448.795518" y="28.232896" style="fill: #009e73; fill-opacity: 0.55; stroke: #1a1a1a; stroke-opacity: 0.55; stroke-width: 0.4"/>
     <use xlink:href="#m2b8613f3f9" x="450.575595" y="34.405018" style="fill: #009e73; fill-opacity: 0.55; stroke: #1a1a1a; stroke-opacity: 0.55; stroke-width: 0.4"/>
     <use xlink:href="#m2b8613f3f9" x="448.671994" y="39.967875" style="fill: #009e73; fill-opacity: 0.55; stroke: #1a1a1a; stroke-opacity: 0.55; stroke-width: 0.4"/>
     <use xlink:href="#m2b8613f3f9" x="487.917624" y="23.093876" style="fill: #009e73; fill-opacity: 0.55; stroke: #1a1a1a; stroke-opacity: 0.55; stroke-width: 0.4"/>
     <use xlink:href="#m2b8613f3f9" x="486.537556" y="23.093876" style="fill: #009e73; fill-opacity: 0.55; stroke: #1a1a1a; stroke-opacity: 0.55; stroke-width: 0.4"/>
     <use xlink:href="#m2b8613f3f9" x="485.647727" y="23.093876" style="fill: #009e73; fill-opacity: 0.55; stroke: #1a1a1a; stroke-opacity: 0.55; stroke-width: 0.4"/>
     <use xlink:href="#m2b8613f3f9" x="78.726251" y="23.093876" style="fill: #009e73; fill-opacity: 0.55; stroke: #1a1a1a; stroke-opacity: 0.55; stroke-width: 0.4"/>
     <use xlink:href="#m2b8613f3f9" x="79.134374" y="23.093876" style="fill: #009e73; fill-opacity: 0.55; stroke: #1a1a1a; stroke-opacity: 0.55; stroke-width: 0.4"/>
     <use xlink:href="#m2b8613f3f9" x="77.107467" y="23.093876" style="fill: #009e73; fill-opacity: 0.55; stroke: #1a1a1a; stroke-opacity: 0.55; stroke-width: 0.4"/>
     <use xlink:href="#m2b8613f3f9" x="244.882721" y="23.093876" style="fill: #009e73; fill-opacity: 0.55; stroke: #1a1a1a; stroke-opacity: 0.55; stroke-width: 0.4"/>
     <use xlink:href="#m2b8613f3f9" x="244.424356" y="23.093876" style="fill: #009e73; fill-opacity: 0.55; stroke: #1a1a1a; stroke-opacity: 0.55; stroke-width: 0.4"/>
     <use xlink:href="#m2b8613f3f9" x="244.458864" y="23.093876" style="fill: #009e73; fill-opacity: 0.55; stroke: #1a1a1a; stroke-opacity: 0.55; stroke-width: 0.4"/>
     <use xlink:href="#m2b8613f3f9" x="282.952698" y="23.20279" style="fill: #009e73; fill-opacity: 0.55; stroke: #1a1a1a; stroke-opacity: 0.55; stroke-width: 0.4"/>
     <use xlink:href="#m2b8613f3f9" x="283.892409" y="25.054462" style="fill: #009e73; fill-opacity: 0.55; stroke: #1a1a1a; stroke-opacity: 0.55; stroke-width: 0.4"/>
     <use xlink:href="#m2b8613f3f9" x="280.672892" y="23.093876" style="fill: #009e73; fill-opacity: 0.55; stroke: #1a1a1a; stroke-opacity: 0.55; stroke-width: 0.4"/>
     <use xlink:href="#m2b8613f3f9" x="319.124394" y="24.227174" style="fill: #009e73; fill-opacity: 0.55; stroke: #1a1a1a; stroke-opacity: 0.55; stroke-width: 0.4"/>
     <use xlink:href="#m2b8613f3f9" x="318.562824" y="32.497008" style="fill: #009e73; fill-opacity: 0.55; stroke: #1a1a1a; stroke-opacity: 0.55; stroke-width: 0.4"/>
     <use xlink:href="#m2b8613f3f9" x="318.710065" y="28.070552" style="fill: #009e73; fill-opacity: 0.55; stroke: #1a1a1a; stroke-opacity: 0.55; stroke-width: 0.4"/>
     <use xlink:href="#m2b8613f3f9" x="356.471909" y="44.958751" style="fill: #009e73; fill-opacity: 0.55; stroke: #1a1a1a; stroke-opacity: 0.55; stroke-width: 0.4"/>
    </g>
   </g>
   <g id="legend_1">
    <g id="patch_7">
     <path d="M 53.73125 291.68875 
L 226.337031 291.68875 
Q 228.037031 291.68875 228.037031 289.98875 
L 228.037031 253.409531 
Q 228.037031 251.709531 226.337031 251.709531 
L 53.73125 251.709531 
Q 52.03125 251.709531 52.03125 253.409531 
L 52.03125 289.98875 
Q 52.03125 291.68875 53.73125 291.68875 
z
" style="fill: #faf5e7; opacity: 0.8; stroke: #1a1a1a; stroke-linejoin: miter"/>
    </g>
    <g id="PathCollection_4">
     <g>
      <use xlink:href="#m04b4945b66" x="63.93125" y="259.336953" style="fill: #0072b2; fill-opacity: 0.55; stroke: #1a1a1a; stroke-opacity: 0.55; stroke-width: 0.4"/>
     </g>
    </g>
    <g id="text_18">
     <!-- d=64 (n=19 seed measurements) -->
     <g style="fill: #1a1a1a" transform="translate(79.23125 261.568203) scale(0.085 -0.085)">
      <defs>
       <path id="DejaVuSans-3d" d="M 678 2906 
L 4684 2906 
L 4684 2381 
L 678 2381 
L 678 2906 
z
M 678 1631 
L 4684 1631 
L 4684 1100 
L 678 1100 
L 678 1631 
z
" transform="scale(0.015625)"/>
      </defs>
      <use xlink:href="#DejaVuSans-64"/>
      <use xlink:href="#DejaVuSans-3d" x="63.476562"/>
      <use xlink:href="#DejaVuSans-36" x="147.265625"/>
      <use xlink:href="#DejaVuSans-34" x="210.888672"/>
      <use xlink:href="#DejaVuSans-20" x="274.511719"/>
      <use xlink:href="#DejaVuSans-28" x="306.298828"/>
      <use xlink:href="#DejaVuSans-6e" x="345.3125"/>
      <use xlink:href="#DejaVuSans-3d" x="408.691406"/>
      <use xlink:href="#DejaVuSans-31" x="492.480469"/>
      <use xlink:href="#DejaVuSans-39" x="556.103516"/>
      <use xlink:href="#DejaVuSans-20" x="619.726562"/>
      <use xlink:href="#DejaVuSans-73" x="651.513672"/>
      <use xlink:href="#DejaVuSans-65" x="703.613281"/>
      <use xlink:href="#DejaVuSans-65" x="765.136719"/>
      <use xlink:href="#DejaVuSans-64" x="826.660156"/>
      <use xlink:href="#DejaVuSans-20" x="890.136719"/>
      <use xlink:href="#DejaVuSans-6d" x="921.923828"/>
      <use xlink:href="#DejaVuSans-65" x="1019.335938"/>
      <use xlink:href="#DejaVuSans-61" x="1080.859375"/>
      <use xlink:href="#DejaVuSans-73" x="1142.138672"/>
      <use xlink:href="#DejaVuSans-75" x="1194.238281"/>
      <use xlink:href="#DejaVuSans-72" x="1257.617188"/>
      <use xlink:href="#DejaVuSans-65" x="1296.480469"/>
      <use xlink:href="#DejaVuSans-6d" x="1358.003906"/>
      <use xlink:href="#DejaVuSans-65" x="1455.416016"/>
      <use xlink:href="#DejaVuSans-6e" x="1516.939453"/>
      <use xlink:href="#DejaVuSans-74" x="1580.318359"/>
      <use xlink:href="#DejaVuSans-73" x="1619.527344"/>
      <use xlink:href="#DejaVuSans-29" x="1671.626953"/>
     </g>
    </g>
    <g id="PathCollection_5">
     <g>
      <use xlink:href="#m383d287463" x="63.93125" y="271.813359" style="fill: #d55e00; fill-opacity: 0.55; stroke: #1a1a1a; stroke-opacity: 0.55; stroke-width: 0.4"/>
     </g>
    </g>
    <g id="text_19">
     <!-- d=80 (n=19 seed measurements) -->
     <g style="fill: #1a1a1a" transform="translate(79.23125 274.044609) scale(0.085 -0.085)">
      <use xlink:href="#DejaVuSans-64"/>
      <use xlink:href="#DejaVuSans-3d" x="63.476562"/>
      <use xlink:href="#DejaVuSans-38" x="147.265625"/>
      <use xlink:href="#DejaVuSans-30" x="210.888672"/>
      <use xlink:href="#DejaVuSans-20" x="274.511719"/>
      <use xlink:href="#DejaVuSans-28" x="306.298828"/>
      <use xlink:href="#DejaVuSans-6e" x="345.3125"/>
      <use xlink:href="#DejaVuSans-3d" x="408.691406"/>
      <use xlink:href="#DejaVuSans-31" x="492.480469"/>
      <use xlink:href="#DejaVuSans-39" x="556.103516"/>
      <use xlink:href="#DejaVuSans-20" x="619.726562"/>
      <use xlink:href="#DejaVuSans-73" x="651.513672"/>
      <use xlink:href="#DejaVuSans-65" x="703.613281"/>
      <use xlink:href="#DejaVuSans-65" x="765.136719"/>
      <use xlink:href="#DejaVuSans-64" x="826.660156"/>
      <use xlink:href="#DejaVuSans-20" x="890.136719"/>
      <use xlink:href="#DejaVuSans-6d" x="921.923828"/>
      <use xlink:href="#DejaVuSans-65" x="1019.335938"/>
      <use xlink:href="#DejaVuSans-61" x="1080.859375"/>
      <use xlink:href="#DejaVuSans-73" x="1142.138672"/>
      <use xlink:href="#DejaVuSans-75" x="1194.238281"/>
      <use xlink:href="#DejaVuSans-72" x="1257.617188"/>
      <use xlink:href="#DejaVuSans-65" x="1296.480469"/>
      <use xlink:href="#DejaVuSans-6d" x="1358.003906"/>
      <use xlink:href="#DejaVuSans-65" x="1455.416016"/>
      <use xlink:href="#DejaVuSans-6e" x="1516.939453"/>
      <use xlink:href="#DejaVuSans-74" x="1580.318359"/>
      <use xlink:href="#DejaVuSans-73" x="1619.527344"/>
      <use xlink:href="#DejaVuSans-29" x="1671.626953"/>
     </g>
    </g>
    <g id="PathCollection_6">
     <g>
      <use xlink:href="#m2b8613f3f9" x="63.93125" y="284.289766" style="fill: #009e73; fill-opacity: 0.55; stroke: #1a1a1a; stroke-opacity: 0.55; stroke-width: 0.4"/>
     </g>
    </g>
    <g id="text_20">
     <!-- d=96 (n=28 seed measurements) -->
     <g style="fill: #1a1a1a" transform="translate(79.23125 286.521016) scale(0.085 -0.085)">
      <use xlink:href="#DejaVuSans-64"/>
      <use xlink:href="#DejaVuSans-3d" x="63.476562"/>
      <use xlink:href="#DejaVuSans-39" x="147.265625"/>
      <use xlink:href="#DejaVuSans-36" x="210.888672"/>
      <use xlink:href="#DejaVuSans-20" x="274.511719"/>
      <use xlink:href="#DejaVuSans-28" x="306.298828"/>
      <use xlink:href="#DejaVuSans-6e" x="345.3125"/>
      <use xlink:href="#DejaVuSans-3d" x="408.691406"/>
      <use xlink:href="#DejaVuSans-32" x="492.480469"/>
      <use xlink:href="#DejaVuSans-38" x="556.103516"/>
      <use xlink:href="#DejaVuSans-20" x="619.726562"/>
      <use xlink:href="#DejaVuSans-73" x="651.513672"/>
      <use xlink:href="#DejaVuSans-65" x="703.613281"/>
      <use xlink:href="#DejaVuSans-65" x="765.136719"/>
      <use xlink:href="#DejaVuSans-64" x="826.660156"/>
      <use xlink:href="#DejaVuSans-20" x="890.136719"/>
      <use xlink:href="#DejaVuSans-6d" x="921.923828"/>
      <use xlink:href="#DejaVuSans-65" x="1019.335938"/>
      <use xlink:href="#DejaVuSans-61" x="1080.859375"/>
      <use xlink:href="#DejaVuSans-73" x="1142.138672"/>
      <use xlink:href="#DejaVuSans-75" x="1194.238281"/>
      <use xlink:href="#DejaVuSans-72" x="1257.617188"/>
      <use xlink:href="#DejaVuSans-65" x="1296.480469"/>
      <use xlink:href="#DejaVuSans-6d" x="1358.003906"/>
      <use xlink:href="#DejaVuSans-65" x="1455.416016"/>
      <use xlink:href="#DejaVuSans-6e" x="1516.939453"/>
      <use xlink:href="#DejaVuSans-74" x="1580.318359"/>
      <use xlink:href="#DejaVuSans-73" x="1619.527344"/>
      <use xlink:href="#DejaVuSans-29" x="1671.626953"/>
     </g>
    </g>
   </g>
  </g>
 </g>
 <defs>
  <clipPath id="p57aaca58ae">
   <rect x="47.78125" y="7.2" width="476.76" height="288.73875"/>
  </clipPath>
 </defs>
</svg>
